G75*
G70*
%OFA0B0*%
%FSLAX25Y25*%
%IPPOS*%
%LPD*%
%AMOC8*
5,1,8,0,0,1.08239X$1,22.5*
%
%ADD1061R,0.02970X0.05520*%
%ADD1164C,0.06800*%
%ADD1168R,0.08200X0.08200*%
%ADD1227R,0.02530X0.05330*%
%ADD1269C,0.06350*%
%ADD1279C,0.07000*%
%ADD1425C,0.07800*%
%ADD1450R,0.03280X0.05330*%
%ADD1474R,0.05520X0.02970*%
%ADD1478C,0.07920*%
%ADD1517OC8,0.08400*%
%ADD1530R,0.04340X0.03950*%
%ADD1595C,0.01600*%
%ADD1596C,0.09660*%
%ADD1633R,0.04740X0.05130*%
%ADD1776R,0.05800X0.03300*%
%ADD1809R,0.07100X0.07890*%
%ADD192C,0.08200*%
%ADD1920R,0.08800X0.08800*%
%ADD1943R,0.09500X0.03200*%
%ADD1980R,0.08670X0.08670*%
%ADD1986C,0.14800*%
%ADD2250C,0.11820*%
%ADD2322R,0.03950X0.05520*%
%ADD2393C,0.09000*%
%ADD2516R,0.06590X0.05800*%
%ADD2552R,0.05920X0.06710*%
%ADD2568R,0.06310X0.05130*%
%ADD2635C,0.08800*%
%ADD2651C,0.09070*%
%ADD2667C,0.17400*%
%ADD2669R,0.12610X0.07100*%
%ADD2683R,0.05520X0.03950*%
%ADD2741R,0.07890X0.07100*%
%ADD2789R,0.05130X0.04740*%
%ADD2795R,0.06710X0.05920*%
%ADD2838R,0.18520X0.14190*%
%ADD2941R,0.07100X0.06310*%
%ADD2942C,0.07200*%
%ADD3212R,0.25210X0.23630*%
%ADD3410R,0.07140X0.07140*%
%ADD468R,0.03950X0.04340*%
%ADD5093R,0.07800X0.50800*%
%ADD607R,0.05130X0.06310*%
%ADD609R,0.03200X0.09500*%
%ADD639C,0.10250*%
%ADD669C,0.07530*%
%ADD710OC8,0.08200*%
%ADD892R,0.06310X0.07100*%
%ADD906R,0.08670X0.05520*%
X0020000Y0020000D02*
G75*
%LPD*%
D2941*
X0148600Y0157890D03*
X0148600Y0168910D03*
D2683*
X0185100Y0166540D03*
X0185100Y0159460D03*
X0117500Y0077140D03*
X0117500Y0070060D03*
X0093000Y0162360D03*
X0093000Y0169440D03*
X0081400Y0224160D03*
X0081400Y0231240D03*
X0084800Y0263660D03*
X0084800Y0270740D03*
X0095800Y0306160D03*
X0095800Y0313240D03*
X0099000Y0325760D03*
X0099000Y0332840D03*
X0089500Y0332540D03*
X0089500Y0325460D03*
D2322*
X0081540Y0238500D03*
X0074460Y0238500D03*
X0160160Y0164000D03*
X0167240Y0164000D03*
X0154440Y0108700D03*
X0147360Y0108700D03*
X0102040Y0078600D03*
X0094960Y0078600D03*
X0094960Y0067600D03*
X0102040Y0067600D03*
D2552*
X0160550Y0148200D03*
X0167250Y0148200D03*
D2942*
X0084100Y0151400D02*
X0077700Y0151400D01*
X0076700Y0161400D02*
X0083100Y0161400D01*
X0084100Y0171400D02*
X0077700Y0171400D01*
X0076700Y0141400D02*
X0083100Y0141400D01*
X0084100Y0131400D02*
X0077700Y0131400D01*
D192*
X0084000Y0058600D03*
X0085000Y0068600D03*
X0084000Y0078600D03*
X0096900Y0109700D03*
X0096900Y0127500D03*
X0122500Y0127500D03*
X0122500Y0109700D03*
D2789*
X0160550Y0156400D03*
X0167250Y0156400D03*
D1986*
X0133000Y0390000D03*
X0338000Y0390000D03*
D639*
X0306800Y0392800D03*
X0291200Y0392800D03*
X0275600Y0392800D03*
X0275600Y0377100D03*
X0291200Y0377100D03*
X0306800Y0377100D03*
X0306800Y0408500D03*
X0291200Y0408500D03*
X0275600Y0408500D03*
X0226600Y0408500D03*
X0211000Y0408500D03*
X0195400Y0408500D03*
X0179800Y0408500D03*
X0164200Y0408500D03*
X0164200Y0392800D03*
X0179800Y0392800D03*
X0195400Y0392800D03*
X0211000Y0392800D03*
X0226600Y0392800D03*
X0226600Y0377100D03*
X0211000Y0377100D03*
X0195400Y0377100D03*
X0179800Y0377100D03*
X0164200Y0377100D03*
X0101800Y0377100D03*
X0086200Y0377100D03*
X0070600Y0377100D03*
X0055000Y0377100D03*
X0039400Y0377100D03*
X0039400Y0392800D03*
X0055000Y0392800D03*
X0070600Y0392800D03*
X0086200Y0392800D03*
X0101800Y0392800D03*
X0101800Y0408500D03*
X0086200Y0408500D03*
X0070600Y0408500D03*
X0055000Y0408500D03*
X0039400Y0408500D03*
X0369200Y0408500D03*
X0384800Y0408500D03*
X0400400Y0408500D03*
X0400400Y0392800D03*
X0384800Y0392800D03*
X0369200Y0392800D03*
X0369200Y0377100D03*
X0384800Y0377100D03*
X0400400Y0377100D03*
D1517*
X0329900Y0191900D03*
X0356100Y0124300D03*
X0111800Y0262700D03*
X0075900Y0265400D03*
X0081000Y0353000D03*
X0096500Y0353000D03*
D1980*
X0104270Y0286500D03*
X0088530Y0286500D03*
D468*
X0078000Y0253330D03*
X0074260Y0245060D03*
X0081740Y0245060D03*
X0164160Y0346560D03*
X0171640Y0346560D03*
X0167900Y0354830D03*
X0191760Y0345960D03*
X0199240Y0345960D03*
X0206760Y0345860D03*
X0214240Y0345860D03*
X0210500Y0354130D03*
X0195500Y0354230D03*
X0195900Y0334330D03*
X0192160Y0326060D03*
X0199640Y0326060D03*
X0195900Y0314130D03*
X0192160Y0305860D03*
X0199640Y0305860D03*
D892*
X0104810Y0270900D03*
X0093790Y0270900D03*
D1168*
X0085000Y0088600D03*
D2568*
X0211200Y0275560D03*
X0211200Y0283440D03*
X0318400Y0381960D03*
X0318400Y0389840D03*
D607*
X0220040Y0311000D03*
X0212160Y0311000D03*
X0199840Y0296800D03*
X0191960Y0296800D03*
X0171440Y0211700D03*
X0171440Y0204000D03*
X0163560Y0204000D03*
X0163560Y0211700D03*
D669*
X0161400Y0257100D03*
X0161400Y0267100D03*
X0161400Y0277100D03*
X0161400Y0287100D03*
X0161400Y0297100D03*
X0131400Y0297100D03*
X0131400Y0287100D03*
X0131400Y0277100D03*
X0131400Y0267100D03*
X0131400Y0257100D03*
X0110500Y0296000D03*
X0110500Y0306000D03*
X0110500Y0316000D03*
X0110500Y0326000D03*
X0110500Y0336000D03*
X0080500Y0336000D03*
X0080500Y0326000D03*
X0080500Y0316000D03*
X0080500Y0306000D03*
X0080500Y0296000D03*
D1227*
X0130430Y0319960D03*
X0133570Y0319960D03*
X0133570Y0327440D03*
X0130430Y0327440D03*
X0145530Y0327640D03*
X0148670Y0327640D03*
X0148670Y0320160D03*
X0145530Y0320160D03*
X0194030Y0234540D03*
X0197170Y0234540D03*
X0197170Y0227060D03*
X0194030Y0227060D03*
D1450*
X0190880Y0227060D03*
X0190880Y0234540D03*
X0200320Y0234540D03*
X0200320Y0227060D03*
X0151820Y0320160D03*
X0151820Y0327640D03*
X0142380Y0327640D03*
X0136720Y0327440D03*
X0136720Y0319960D03*
X0142380Y0320160D03*
X0127280Y0319960D03*
X0127280Y0327440D03*
D1596*
X0181700Y0345800D03*
X0231700Y0345800D03*
X0231700Y0320800D03*
X0231700Y0308300D03*
X0231700Y0295800D03*
X0231700Y0258300D03*
X0181700Y0258300D03*
D2741*
X0221500Y0269590D03*
X0221500Y0280610D03*
D1809*
X0220790Y0332900D03*
X0231810Y0332900D03*
D906*
X0232900Y0286400D03*
X0232900Y0273800D03*
D1530*
X0219630Y0295600D03*
X0211360Y0291860D03*
X0211360Y0299340D03*
X0020000Y0440000D02*
G75*
%LPD*%
D1986*
X0133000Y0810000D03*
X0338000Y0810000D03*
D639*
X0306800Y0812800D03*
X0291200Y0812800D03*
X0275600Y0812800D03*
X0275600Y0797100D03*
X0291200Y0797100D03*
X0306800Y0797100D03*
X0306800Y0828500D03*
X0291200Y0828500D03*
X0275600Y0828500D03*
X0226600Y0828500D03*
X0211000Y0828500D03*
X0195400Y0828500D03*
X0179800Y0828500D03*
X0164200Y0828500D03*
X0164200Y0812800D03*
X0179800Y0812800D03*
X0195400Y0812800D03*
X0211000Y0812800D03*
X0226600Y0812800D03*
X0226600Y0797100D03*
X0211000Y0797100D03*
X0195400Y0797100D03*
X0179800Y0797100D03*
X0164200Y0797100D03*
X0101800Y0797100D03*
X0086200Y0797100D03*
X0070600Y0797100D03*
X0055000Y0797100D03*
X0039400Y0797100D03*
X0039400Y0812800D03*
X0055000Y0812800D03*
X0070600Y0812800D03*
X0086200Y0812800D03*
X0101800Y0812800D03*
X0101800Y0828500D03*
X0086200Y0828500D03*
X0070600Y0828500D03*
X0055000Y0828500D03*
X0039400Y0828500D03*
X0369200Y0828500D03*
X0384800Y0828500D03*
X0400400Y0828500D03*
X0400400Y0812800D03*
X0384800Y0812800D03*
X0369200Y0812800D03*
X0369200Y0797100D03*
X0384800Y0797100D03*
X0400400Y0797100D03*
D2942*
X0085700Y0646000D02*
X0079300Y0646000D01*
X0080300Y0656000D02*
X0086700Y0656000D01*
X0085700Y0666000D02*
X0079300Y0666000D01*
X0080300Y0676000D02*
X0086700Y0676000D01*
X0085700Y0686000D02*
X0079300Y0686000D01*
D2683*
X0097500Y0655040D03*
X0097500Y0647960D03*
X0306000Y0586040D03*
X0306000Y0578960D03*
D2552*
X0259050Y0623700D03*
X0252350Y0623700D03*
X0164350Y0676000D03*
X0157650Y0676000D03*
X0149850Y0657500D03*
X0143150Y0657500D03*
X0100350Y0714000D03*
X0093650Y0714000D03*
X0110850Y0721800D03*
X0117550Y0721800D03*
X0118350Y0747000D03*
X0111650Y0747000D03*
D3410*
X0354000Y0547000D03*
D1425*
X0354000Y0537000D03*
X0354000Y0527000D03*
X0354000Y0517000D03*
X0354000Y0507000D03*
X0354000Y0497000D03*
D1061*
X0100740Y0725880D03*
X0093260Y0725880D03*
X0093260Y0736120D03*
X0097000Y0736120D03*
X0100740Y0736120D03*
D2568*
X0101500Y0747060D03*
X0101500Y0754940D03*
X0318200Y0817360D03*
X0318200Y0825240D03*
D607*
X0100440Y0705500D03*
X0092560Y0705500D03*
D1809*
X0248090Y0634100D03*
X0259110Y0634100D03*
X0432500Y0020000D02*
G75*
%LPD*%
D2250*
X0442500Y0030000D03*
X0442500Y0210000D03*
X0822500Y0210000D03*
X0822500Y0030000D03*
D2838*
X0809950Y0088860D03*
X0778690Y0089150D03*
X0747230Y0088750D03*
X0715480Y0088740D03*
X0682700Y0088690D03*
X0649700Y0088290D03*
X0617100Y0087290D03*
X0617100Y0148310D03*
X0649700Y0149310D03*
X0682700Y0149710D03*
X0715480Y0149760D03*
X0747230Y0149780D03*
X0778690Y0150180D03*
X0809950Y0149890D03*
D1164*
X0500100Y0207900D02*
X0500100Y0213900D01*
X0490100Y0212900D02*
X0490100Y0206900D01*
X0480100Y0207900D02*
X0480100Y0213900D01*
X0470100Y0212900D02*
X0470100Y0206900D01*
X0460100Y0207900D02*
X0460100Y0213900D01*
D2322*
X0461650Y0198400D03*
X0468740Y0198400D03*
X0578950Y0089000D03*
X0586040Y0089000D03*
D2795*
X0570000Y0163560D03*
X0570000Y0170250D03*
X0537400Y0170650D03*
X0537400Y0163960D03*
X0621000Y0174660D03*
X0621000Y0181350D03*
X0651500Y0181350D03*
X0651500Y0174660D03*
X0684500Y0174660D03*
X0684500Y0181350D03*
X0725000Y0181850D03*
X0725000Y0175160D03*
X0755500Y0178350D03*
X0755500Y0171660D03*
X0785500Y0171660D03*
X0785500Y0178350D03*
X0814000Y0178850D03*
X0814000Y0172160D03*
D1920*
X0673500Y0044000D03*
D2635*
X0687270Y0044000D03*
X0701050Y0044000D03*
X0714830Y0044000D03*
X0728610Y0044000D03*
X0742390Y0044000D03*
X0756170Y0044000D03*
X0769950Y0044000D03*
D1596*
X0544500Y0079000D03*
X0504500Y0079000D03*
X0444500Y0079000D03*
X0444500Y0099000D03*
X0444500Y0119000D03*
X0524500Y0119000D03*
D2683*
X0586300Y0061650D03*
X0586300Y0054560D03*
D1980*
X0474370Y0100000D03*
X0458620Y0100000D03*
X0458620Y0119000D03*
X0474370Y0119000D03*
D1943*
X0561200Y0081500D03*
X0561200Y0076500D03*
X0561200Y0071500D03*
X0561200Y0066500D03*
X0581800Y0066500D03*
X0581800Y0071500D03*
X0581800Y0076500D03*
X0581800Y0081500D03*
D710*
X0524600Y0142000D03*
X0514600Y0142000D03*
X0504600Y0142000D03*
X0494600Y0142000D03*
X0494600Y0152000D03*
X0504600Y0152000D03*
X0514600Y0152000D03*
X0524600Y0152000D03*
X0449800Y0157400D03*
X0439800Y0157400D03*
X0439800Y0167400D03*
X0449800Y0167400D03*
X0449800Y0177400D03*
X0439800Y0177400D03*
X0439800Y0187400D03*
X0449800Y0187400D03*
D607*
X0468260Y0172000D03*
X0476130Y0172000D03*
X0469930Y0040100D03*
X0462060Y0040100D03*
D1474*
X0546880Y0172760D03*
X0557110Y0172760D03*
X0557110Y0176500D03*
X0557110Y0180240D03*
X0546880Y0180240D03*
D2552*
X0467640Y0187200D03*
X0460950Y0187200D03*
D2669*
X0629890Y0043480D03*
X0629890Y0025530D03*
D3212*
X0601630Y0034500D03*
D1168*
X0460500Y0030000D03*
D192*
X0470500Y0029000D03*
X0480500Y0030000D03*
D2667*
X0502500Y0040000D03*
X0532500Y0040000D03*
X0562500Y0040000D03*
X0432500Y0232500D02*
G75*
%LPD*%
D1595*
X0575500Y0533500D02*
X0575500Y0576500D01*
X0577500Y0578500D01*
X0584500Y0578500D01*
X0587500Y0581500D01*
X0587500Y0591500D01*
X0589500Y0593500D01*
X0595500Y0593500D01*
X0597500Y0591500D01*
X0597500Y0581500D01*
X0600500Y0578500D01*
X0607500Y0578500D01*
X0609500Y0576500D01*
X0609500Y0534500D01*
X0606500Y0531500D01*
X0578500Y0531500D01*
X0575500Y0533500D01*
X0575530Y0533480D02*
X0608480Y0533480D01*
X0609500Y0535070D02*
X0575500Y0535070D01*
X0575500Y0536650D02*
X0609500Y0536650D01*
X0609500Y0538240D02*
X0575500Y0538240D01*
X0575500Y0539820D02*
X0609500Y0539820D01*
X0609500Y0541410D02*
X0575500Y0541410D01*
X0575500Y0542990D02*
X0609500Y0542990D01*
X0609500Y0544580D02*
X0575500Y0544580D01*
X0575500Y0546160D02*
X0609500Y0546160D01*
X0609500Y0547750D02*
X0575500Y0547750D01*
X0575500Y0549330D02*
X0609500Y0549330D01*
X0609500Y0550920D02*
X0575500Y0550920D01*
X0575500Y0552500D02*
X0609500Y0552500D01*
X0609500Y0554090D02*
X0575500Y0554090D01*
X0575500Y0555670D02*
X0609500Y0555670D01*
X0609500Y0557260D02*
X0575500Y0557260D01*
X0575500Y0558840D02*
X0609500Y0558840D01*
X0609500Y0560430D02*
X0575500Y0560430D01*
X0575500Y0562010D02*
X0609500Y0562010D01*
X0609500Y0563600D02*
X0575500Y0563600D01*
X0575500Y0565180D02*
X0609500Y0565180D01*
X0609500Y0566770D02*
X0575500Y0566770D01*
X0575500Y0568350D02*
X0609500Y0568350D01*
X0609500Y0569940D02*
X0575500Y0569940D01*
X0575500Y0571520D02*
X0609500Y0571520D01*
X0609500Y0573110D02*
X0575500Y0573110D01*
X0575500Y0574690D02*
X0609500Y0574690D01*
X0609500Y0576280D02*
X0575500Y0576280D01*
X0576860Y0577860D02*
X0608140Y0577860D01*
X0599550Y0579450D02*
X0585450Y0579450D01*
X0587030Y0581030D02*
X0597970Y0581030D01*
X0597500Y0582620D02*
X0587500Y0582620D01*
X0587500Y0584200D02*
X0597500Y0584200D01*
X0597500Y0585790D02*
X0587500Y0585790D01*
X0587500Y0587370D02*
X0597500Y0587370D01*
X0597500Y0588960D02*
X0587500Y0588960D01*
X0587500Y0590540D02*
X0597500Y0590540D01*
X0596870Y0592130D02*
X0588130Y0592130D01*
X0577910Y0531900D02*
X0606900Y0531900D01*
D2941*
X0538200Y0369110D03*
X0538200Y0358090D03*
D2683*
X0525700Y0358060D03*
X0525700Y0365140D03*
X0576500Y0346540D03*
X0576500Y0339460D03*
X0592800Y0334740D03*
X0592800Y0327660D03*
X0619300Y0347960D03*
X0619300Y0355040D03*
X0527000Y0504460D03*
X0527000Y0511540D03*
D892*
X0615590Y0329700D03*
X0626610Y0329700D03*
D2322*
X0602740Y0355900D03*
X0595660Y0355900D03*
X0588240Y0272600D03*
X0581160Y0272600D03*
X0600960Y0270800D03*
X0608040Y0270800D03*
X0702560Y0466500D03*
X0709640Y0466500D03*
X0526540Y0550500D03*
X0519460Y0550500D03*
X0501040Y0550500D03*
X0493960Y0550500D03*
D2942*
X0579900Y0290800D02*
X0579900Y0284400D01*
X0589900Y0283400D02*
X0589900Y0289800D01*
X0599900Y0290800D02*
X0599900Y0284400D01*
X0609900Y0283400D02*
X0609900Y0289800D01*
X0619900Y0290800D02*
X0619900Y0284400D01*
D192*
X0541800Y0249600D03*
X0541800Y0267400D03*
X0567400Y0267400D03*
X0567400Y0249600D03*
X0536900Y0342200D03*
X0526900Y0343200D03*
X0516900Y0342200D03*
D2789*
X0605350Y0348000D03*
X0612050Y0348000D03*
D2568*
X0732300Y0603360D03*
X0732300Y0611240D03*
D1168*
X0506900Y0343200D03*
D1776*
X0521900Y0381830D03*
X0521900Y0385370D03*
D1986*
X0545500Y0602500D03*
X0750500Y0602500D03*
D639*
X0719300Y0605300D03*
X0703700Y0605300D03*
X0688100Y0605300D03*
X0688100Y0589600D03*
X0703700Y0589600D03*
X0719300Y0589600D03*
X0719300Y0621000D03*
X0703700Y0621000D03*
X0688100Y0621000D03*
X0639100Y0621000D03*
X0623500Y0621000D03*
X0607900Y0621000D03*
X0592300Y0621000D03*
X0576700Y0621000D03*
X0576700Y0605300D03*
X0592300Y0605300D03*
X0607900Y0605300D03*
X0623500Y0605300D03*
X0639100Y0605300D03*
X0639100Y0589600D03*
X0623500Y0589600D03*
X0607900Y0589600D03*
X0592300Y0589600D03*
X0576700Y0589600D03*
X0514300Y0589600D03*
X0498700Y0589600D03*
X0483100Y0589600D03*
X0467500Y0589600D03*
X0451900Y0589600D03*
X0451900Y0605300D03*
X0467500Y0605300D03*
X0483100Y0605300D03*
X0498700Y0605300D03*
X0514300Y0605300D03*
X0514300Y0621000D03*
X0498700Y0621000D03*
X0483100Y0621000D03*
X0467500Y0621000D03*
X0451900Y0621000D03*
X0781700Y0621000D03*
X0797300Y0621000D03*
X0812900Y0621000D03*
X0812900Y0605300D03*
X0797300Y0605300D03*
X0781700Y0605300D03*
X0781700Y0589600D03*
X0797300Y0589600D03*
X0812900Y0589600D03*
D2651*
X0680360Y0562150D03*
X0680360Y0542270D03*
X0680360Y0522390D03*
X0651030Y0522390D03*
X0651030Y0542270D03*
X0651030Y0562150D03*
X0650840Y0462150D03*
X0665600Y0462150D03*
X0680360Y0462150D03*
D2516*
X0675500Y0471640D03*
X0675500Y0488560D03*
X0655800Y0488660D03*
X0655800Y0471740D03*
X0020000Y0860000D02*
G75*
%LPD*%
D2795*
X0216000Y1004150D03*
X0216000Y1010850D03*
X0105000Y1120650D03*
X0105000Y1127350D03*
X0100100Y1195150D03*
X0100100Y1201850D03*
D2322*
X0217460Y1030000D03*
X0224540Y1030000D03*
X0280660Y1081800D03*
X0287740Y1081800D03*
D892*
X0286760Y1069700D03*
X0275740Y1069700D03*
D2683*
X0296400Y1081510D03*
X0296400Y1088590D03*
X0242500Y1030040D03*
X0242500Y1022960D03*
D2568*
X0255000Y1080060D03*
X0255000Y1087940D03*
X0264000Y1087940D03*
X0264000Y1080060D03*
D2941*
X0194800Y1004910D03*
X0194800Y0993890D03*
D2942*
X0213500Y0931200D02*
X0213500Y0924800D01*
X0223500Y0923800D02*
X0223500Y0930200D01*
X0233500Y0931200D02*
X0233500Y0924800D01*
X0243500Y0923800D02*
X0243500Y0930200D01*
X0203500Y0930200D02*
X0203500Y0923800D01*
D192*
X0294800Y0927100D03*
X0294800Y0944900D03*
X0269200Y0944900D03*
X0269200Y0927100D03*
X0310500Y1066500D03*
X0310500Y1076500D03*
X0310500Y1086500D03*
D1633*
X0225000Y1014850D03*
X0225000Y1008150D03*
D1986*
X0057500Y0973000D03*
X0057500Y1178000D03*
D639*
X0054700Y1146800D03*
X0054700Y1131200D03*
X0054700Y1115600D03*
X0070400Y1115600D03*
X0070400Y1131200D03*
X0070400Y1146800D03*
X0039000Y1146800D03*
X0039000Y1131200D03*
X0039000Y1115600D03*
X0039000Y1066600D03*
X0039000Y1051000D03*
X0039000Y1035400D03*
X0039000Y1019800D03*
X0039000Y1004200D03*
X0054700Y1004200D03*
X0054700Y1019800D03*
X0054700Y1035400D03*
X0054700Y1051000D03*
X0054700Y1066600D03*
X0070400Y1066600D03*
X0070400Y1051000D03*
X0070400Y1035400D03*
X0070400Y1019800D03*
X0070400Y1004200D03*
X0070400Y0941800D03*
X0070400Y0926200D03*
X0070400Y0910600D03*
X0070400Y0895000D03*
X0070400Y0879400D03*
X0054700Y0879400D03*
X0054700Y0895000D03*
X0054700Y0910600D03*
X0054700Y0926200D03*
X0054700Y0941800D03*
X0039000Y0941800D03*
X0039000Y0926200D03*
X0039000Y0910600D03*
X0039000Y0895000D03*
X0039000Y0879400D03*
X0039000Y1209200D03*
X0039000Y1224800D03*
X0039000Y1240400D03*
X0054700Y1240400D03*
X0054700Y1224800D03*
X0054700Y1209200D03*
X0070400Y1209200D03*
X0070400Y1224800D03*
X0070400Y1240400D03*
D1168*
X0310500Y1096500D03*
X0440000Y0652500D02*
G75*
%LPD*%
D2942*
X0564300Y0755100D02*
X0564300Y0761500D01*
X0553300Y0761500D02*
X0553300Y0755100D01*
X0540800Y0754800D02*
X0540800Y0761200D01*
X0529800Y0761200D02*
X0529800Y0754800D01*
X0517100Y0754600D02*
X0517100Y0761000D01*
X0506100Y0761000D02*
X0506100Y0754600D01*
X0514300Y0941000D02*
X0514300Y0947400D01*
X0524300Y0948400D02*
X0524300Y0942000D01*
X0534300Y0941000D02*
X0534300Y0947400D01*
X0544300Y0948400D02*
X0544300Y0942000D01*
X0554300Y0941000D02*
X0554300Y0947400D01*
D2322*
X0553040Y0932850D03*
X0545960Y0932850D03*
X0566060Y0841200D03*
X0573140Y0841200D03*
X0584160Y0819700D03*
X0591240Y0819700D03*
X0592840Y0810800D03*
X0585760Y0810800D03*
X0534690Y0735500D03*
X0527610Y0735500D03*
X0512740Y0729600D03*
X0505660Y0729600D03*
X0554860Y0731100D03*
X0561940Y0731100D03*
D2941*
X0589100Y0828490D03*
X0589100Y0839510D03*
X0756500Y0921190D03*
X0756500Y0932210D03*
D2683*
X0746400Y0931740D03*
X0746400Y0924660D03*
X0569600Y0822440D03*
X0569600Y0815360D03*
X0562700Y0826660D03*
X0562700Y0833740D03*
X0492500Y0923360D03*
X0492500Y0930440D03*
D2795*
X0553550Y0920150D03*
X0553550Y0913450D03*
D2393*
X0504880Y0934360D03*
X0477320Y0934360D03*
D1279*
X0481260Y0944200D03*
X0500940Y0944200D03*
D5093*
X0790000Y0678500D03*
X0780000Y0678500D03*
X0770000Y0678500D03*
X0760000Y0678500D03*
X0750000Y0678500D03*
X0740000Y0678500D03*
X0730000Y0678500D03*
X0720000Y0678500D03*
X0710000Y0678500D03*
X0700000Y0678500D03*
X0690000Y0678500D03*
X0680000Y0678500D03*
X0670000Y0678500D03*
X0660000Y0678500D03*
X0650000Y0678500D03*
X0640000Y0678500D03*
X0630000Y0678500D03*
X0620000Y0678500D03*
X0610000Y0678500D03*
X0600000Y0678500D03*
X0590000Y0678500D03*
X0580000Y0678500D03*
X0570000Y0678500D03*
X0560000Y0678500D03*
X0550000Y0678500D03*
X0540000Y0678500D03*
X0530000Y0678500D03*
X0520000Y0678500D03*
X0510000Y0678500D03*
X0500000Y0678500D03*
X0490000Y0678500D03*
X0480000Y0678500D03*
D1269*
X0660090Y0812170D03*
X0660090Y0820040D03*
X0660090Y0827910D03*
X0660090Y0835790D03*
X0660090Y0843660D03*
X0660090Y0851540D03*
X0660090Y0859410D03*
X0660090Y0867290D03*
X0660090Y0875160D03*
X0660090Y0883030D03*
X0664930Y0938860D03*
X0672800Y0938860D03*
X0680670Y0938860D03*
X0680670Y0946740D03*
X0672800Y0946740D03*
X0664930Y0946740D03*
X0746710Y0883030D03*
X0746710Y0875160D03*
X0746710Y0867290D03*
X0746710Y0859410D03*
X0746710Y0851540D03*
X0746710Y0843660D03*
X0746710Y0835790D03*
X0746710Y0827910D03*
X0746710Y0820040D03*
X0746710Y0812170D03*
D1168*
X0795400Y0942100D03*
D192*
X0785400Y0943100D03*
X0775400Y0942100D03*
X0765400Y0943100D03*
D1478*
X0690910Y0942800D03*
X0654690Y0942800D03*
X0440000Y0970000D02*
G75*
%LPD*%
D2942*
X0643200Y1251000D02*
X0636800Y1251000D01*
X0633200Y1261000D02*
X0626800Y1261000D01*
X0623200Y1251000D02*
X0616800Y1251000D01*
X0593200Y1250000D02*
X0586800Y1250000D01*
X0583200Y1260000D02*
X0576800Y1260000D01*
X0573200Y1250000D02*
X0566800Y1250000D01*
X0553200Y1250000D02*
X0546800Y1250000D01*
X0543200Y1260000D02*
X0536800Y1260000D01*
X0533200Y1250000D02*
X0526800Y1250000D01*
X0513200Y1250000D02*
X0506800Y1250000D01*
X0503200Y1260000D02*
X0496800Y1260000D01*
X0493200Y1250000D02*
X0486800Y1250000D01*
X0656000Y1259800D02*
X0656000Y1266200D01*
X0666000Y1267200D02*
X0666000Y1260800D01*
X0676000Y1259800D02*
X0676000Y1266200D01*
X0686000Y1267200D02*
X0686000Y1260800D01*
X0696000Y1259800D02*
X0696000Y1266200D01*
D2795*
X0678000Y1152850D03*
X0678000Y1146160D03*
D2552*
X0664840Y1129000D03*
X0658150Y1129000D03*
D1168*
X0494500Y1158000D03*
X0494500Y1184000D03*
D192*
X0483500Y1184000D03*
X0483500Y1158000D03*
X0500000Y1210000D03*
X0500000Y1225000D03*
X0535000Y1230000D03*
X0535500Y1216500D03*
X0564500Y1223500D03*
X0618000Y1207000D03*
X0629000Y1207000D03*
X0621500Y1140000D03*
D5093*
X0790000Y0996000D03*
X0780000Y0996000D03*
X0770000Y0996000D03*
X0760000Y0996000D03*
X0750000Y0996000D03*
X0740000Y0996000D03*
X0730000Y0996000D03*
X0720000Y0996000D03*
X0710000Y0996000D03*
X0700000Y0996000D03*
X0690000Y0996000D03*
X0680000Y0996000D03*
X0670000Y0996000D03*
X0660000Y0996000D03*
X0650000Y0996000D03*
X0640000Y0996000D03*
X0630000Y0996000D03*
X0620000Y0996000D03*
X0610000Y0996000D03*
X0600000Y0996000D03*
X0590000Y0996000D03*
X0580000Y0996000D03*
X0570000Y0996000D03*
X0560000Y0996000D03*
X0550000Y0996000D03*
X0540000Y0996000D03*
X0530000Y0996000D03*
X0520000Y0996000D03*
X0510000Y0996000D03*
X0500000Y0996000D03*
X0490000Y0996000D03*
X0480000Y0996000D03*
D2683*
X0579000Y1080960D03*
X0579000Y1088050D03*
X0576000Y1214460D03*
X0576000Y1221550D03*
D2322*
X0485540Y1092700D03*
X0478450Y1092700D03*
D2568*
X0709000Y1245060D03*
X0709000Y1252940D03*
X0720000Y1252940D03*
X0720000Y1245060D03*
D609*
X0504800Y1126200D03*
X0499800Y1126200D03*
X0494800Y1126200D03*
X0489800Y1126200D03*
X0489800Y1105600D03*
X0494800Y1105600D03*
X0499800Y1105600D03*
X0504800Y1105600D03*
D607*
X0501230Y1093800D03*
X0493360Y1093800D03*
M02*
