G75*
G70*
%OFA0B0*%
%FSLAX25Y25*%
%IPPOS*%
%LPD*%
%AMOC8*
5,1,8,0,0,1.08239X$1,22.5*
%
%ADD581C,0.00000*%
%ADD755C,0.00500*%
X0020000Y0020000D02*
G75*
%LPD*%
D755*
X0052500Y0035240D02*
X0052500Y0312110D01*
X0052480Y0313190D01*
X0052420Y0314280D01*
X0052330Y0315360D01*
X0052190Y0316430D01*
X0052020Y0317510D01*
X0051810Y0318570D01*
X0051560Y0319630D01*
X0051270Y0320670D01*
X0050940Y0321710D01*
X0050580Y0322730D01*
X0050190Y0323740D01*
X0049750Y0324730D01*
X0049290Y0325710D01*
X0048780Y0326670D01*
X0048250Y0327620D01*
X0047680Y0328540D01*
X0047070Y0329440D01*
X0046440Y0330320D01*
X0045770Y0331180D01*
X0045080Y0332010D01*
X0044350Y0332820D01*
X0043600Y0333600D01*
X0042820Y0334350D01*
X0042010Y0335080D01*
X0041180Y0335770D01*
X0040320Y0336440D01*
X0039440Y0337070D01*
X0038540Y0337680D01*
X0037620Y0338250D01*
X0036670Y0338780D01*
X0035710Y0339290D01*
X0034730Y0339750D01*
X0033740Y0340190D01*
X0032730Y0340580D01*
X0031710Y0340940D01*
X0030670Y0341270D01*
X0029630Y0341560D01*
X0028570Y0341810D01*
X0027510Y0342020D01*
X0026430Y0342190D01*
X0025360Y0342330D01*
X0024280Y0342420D01*
X0023190Y0342480D01*
X0022110Y0342500D01*
X0020000Y0342500D01*
X0020000Y0427500D01*
X0420000Y0427500D01*
X0420000Y0342500D01*
X0417780Y0342500D01*
X0416700Y0342480D01*
X0415620Y0342420D01*
X0414540Y0342330D01*
X0413470Y0342190D01*
X0412400Y0342020D01*
X0411340Y0341810D01*
X0410290Y0341560D01*
X0409250Y0341270D01*
X0408220Y0340950D01*
X0407200Y0340590D01*
X0406190Y0340200D01*
X0405200Y0339760D01*
X0404230Y0339300D01*
X0403270Y0338800D01*
X0402330Y0338260D01*
X0401410Y0337690D01*
X0400510Y0337090D01*
X0399640Y0336460D01*
X0398780Y0335800D01*
X0397960Y0335100D01*
X0397150Y0334380D01*
X0396370Y0333630D01*
X0395620Y0332850D01*
X0394900Y0332050D01*
X0394210Y0331220D01*
X0393550Y0330370D01*
X0392910Y0329490D01*
X0392310Y0328590D01*
X0391750Y0327670D01*
X0391210Y0326730D01*
X0390710Y0325780D01*
X0390240Y0324800D01*
X0389810Y0323810D01*
X0389420Y0322800D01*
X0389060Y0321780D01*
X0388730Y0320750D01*
X0388450Y0319710D01*
X0388200Y0318660D01*
X0387990Y0317600D01*
X0387820Y0316530D01*
X0387680Y0315460D01*
X0387590Y0314380D01*
X0387530Y0313300D01*
X0387510Y0312220D01*
X0387510Y0312230D02*
X0387600Y0035320D01*
X0387590Y0035310D02*
X0387570Y0034540D01*
X0387510Y0033760D01*
X0387410Y0032990D01*
X0387280Y0032230D01*
X0387100Y0031470D01*
X0386890Y0030730D01*
X0386640Y0029990D01*
X0386350Y0029270D01*
X0386030Y0028570D01*
X0385670Y0027880D01*
X0385270Y0027210D01*
X0384850Y0026560D01*
X0384390Y0025940D01*
X0383900Y0025340D01*
X0383380Y0024760D01*
X0382830Y0024210D01*
X0382250Y0023690D01*
X0381650Y0023200D01*
X0381030Y0022740D01*
X0380380Y0022320D01*
X0379710Y0021920D01*
X0379020Y0021560D01*
X0378320Y0021240D01*
X0377600Y0020950D01*
X0376860Y0020700D01*
X0376120Y0020490D01*
X0375360Y0020310D01*
X0374600Y0020180D01*
X0373830Y0020080D01*
X0373050Y0020020D01*
X0372280Y0020000D01*
X0067740Y0020000D01*
X0066970Y0020020D01*
X0066200Y0020080D01*
X0065430Y0020180D01*
X0064670Y0020310D01*
X0063920Y0020490D01*
X0063180Y0020700D01*
X0062450Y0020950D01*
X0061730Y0021240D01*
X0061030Y0021560D01*
X0060340Y0021910D01*
X0059680Y0022310D01*
X0059030Y0022730D01*
X0058410Y0023190D01*
X0057810Y0023680D01*
X0057240Y0024190D01*
X0056690Y0024740D01*
X0056180Y0025310D01*
X0055690Y0025910D01*
X0055230Y0026530D01*
X0054810Y0027180D01*
X0054410Y0027840D01*
X0054060Y0028530D01*
X0053740Y0029230D01*
X0053450Y0029950D01*
X0053200Y0030680D01*
X0052990Y0031420D01*
X0052810Y0032170D01*
X0052680Y0032930D01*
X0052580Y0033700D01*
X0052520Y0034470D01*
X0052500Y0035240D01*
D581*
X0126000Y0390000D02*
X0126020Y0390520D01*
X0126080Y0391040D01*
X0126180Y0391560D01*
X0126310Y0392060D01*
X0126480Y0392560D01*
X0126690Y0393040D01*
X0126940Y0393500D01*
X0127220Y0393940D01*
X0127530Y0394360D01*
X0127870Y0394760D01*
X0128240Y0395130D01*
X0128640Y0395470D01*
X0129060Y0395780D01*
X0129500Y0396060D01*
X0129960Y0396310D01*
X0130440Y0396520D01*
X0130940Y0396690D01*
X0131440Y0396820D01*
X0131960Y0396920D01*
X0132480Y0396980D01*
X0133000Y0397000D01*
X0133520Y0396980D01*
X0134040Y0396920D01*
X0134560Y0396820D01*
X0135060Y0396690D01*
X0135560Y0396520D01*
X0136040Y0396310D01*
X0136500Y0396060D01*
X0136940Y0395780D01*
X0137360Y0395470D01*
X0137760Y0395130D01*
X0138130Y0394760D01*
X0138470Y0394360D01*
X0138780Y0393940D01*
X0139060Y0393500D01*
X0139310Y0393040D01*
X0139520Y0392560D01*
X0139690Y0392060D01*
X0139820Y0391560D01*
X0139920Y0391040D01*
X0139980Y0390520D01*
X0140000Y0390000D01*
X0139980Y0389480D01*
X0139920Y0388960D01*
X0139820Y0388440D01*
X0139690Y0387940D01*
X0139520Y0387440D01*
X0139310Y0386960D01*
X0139060Y0386500D01*
X0138780Y0386060D01*
X0138470Y0385640D01*
X0138130Y0385240D01*
X0137760Y0384870D01*
X0137360Y0384530D01*
X0136940Y0384220D01*
X0136500Y0383940D01*
X0136040Y0383690D01*
X0135560Y0383480D01*
X0135060Y0383310D01*
X0134560Y0383180D01*
X0134040Y0383080D01*
X0133520Y0383020D01*
X0133000Y0383000D01*
X0132480Y0383020D01*
X0131960Y0383080D01*
X0131440Y0383180D01*
X0130940Y0383310D01*
X0130440Y0383480D01*
X0129960Y0383690D01*
X0129500Y0383940D01*
X0129060Y0384220D01*
X0128640Y0384530D01*
X0128240Y0384870D01*
X0127870Y0385240D01*
X0127530Y0385640D01*
X0127220Y0386060D01*
X0126940Y0386500D01*
X0126690Y0386960D01*
X0126480Y0387440D01*
X0126310Y0387940D01*
X0126180Y0388440D01*
X0126080Y0388960D01*
X0126020Y0389480D01*
X0126000Y0390000D01*
X0331000Y0390000D02*
X0331020Y0390520D01*
X0331080Y0391040D01*
X0331180Y0391560D01*
X0331310Y0392060D01*
X0331480Y0392560D01*
X0331690Y0393040D01*
X0331940Y0393500D01*
X0332220Y0393940D01*
X0332530Y0394360D01*
X0332870Y0394760D01*
X0333240Y0395130D01*
X0333640Y0395470D01*
X0334060Y0395780D01*
X0334500Y0396060D01*
X0334960Y0396310D01*
X0335440Y0396520D01*
X0335940Y0396690D01*
X0336440Y0396820D01*
X0336960Y0396920D01*
X0337480Y0396980D01*
X0338000Y0397000D01*
X0338520Y0396980D01*
X0339040Y0396920D01*
X0339560Y0396820D01*
X0340060Y0396690D01*
X0340560Y0396520D01*
X0341040Y0396310D01*
X0341500Y0396060D01*
X0341940Y0395780D01*
X0342360Y0395470D01*
X0342760Y0395130D01*
X0343130Y0394760D01*
X0343470Y0394360D01*
X0343780Y0393940D01*
X0344060Y0393500D01*
X0344310Y0393040D01*
X0344520Y0392560D01*
X0344690Y0392060D01*
X0344820Y0391560D01*
X0344920Y0391040D01*
X0344980Y0390520D01*
X0345000Y0390000D01*
X0344980Y0389480D01*
X0344920Y0388960D01*
X0344820Y0388440D01*
X0344690Y0387940D01*
X0344520Y0387440D01*
X0344310Y0386960D01*
X0344060Y0386500D01*
X0343780Y0386060D01*
X0343470Y0385640D01*
X0343130Y0385240D01*
X0342760Y0384870D01*
X0342360Y0384530D01*
X0341940Y0384220D01*
X0341500Y0383940D01*
X0341040Y0383690D01*
X0340560Y0383480D01*
X0340060Y0383310D01*
X0339560Y0383180D01*
X0339040Y0383080D01*
X0338520Y0383020D01*
X0338000Y0383000D01*
X0337480Y0383020D01*
X0336960Y0383080D01*
X0336440Y0383180D01*
X0335940Y0383310D01*
X0335440Y0383480D01*
X0334960Y0383690D01*
X0334500Y0383940D01*
X0334060Y0384220D01*
X0333640Y0384530D01*
X0333240Y0384870D01*
X0332870Y0385240D01*
X0332530Y0385640D01*
X0332220Y0386060D01*
X0331940Y0386500D01*
X0331690Y0386960D01*
X0331480Y0387440D01*
X0331310Y0387940D01*
X0331180Y0388440D01*
X0331080Y0388960D01*
X0331020Y0389480D01*
X0331000Y0390000D01*
X0020000Y0440000D02*
G75*
%LPD*%
D755*
X0052500Y0455240D02*
X0052500Y0732110D01*
X0052480Y0733190D01*
X0052420Y0734280D01*
X0052330Y0735360D01*
X0052190Y0736430D01*
X0052020Y0737510D01*
X0051810Y0738570D01*
X0051560Y0739630D01*
X0051270Y0740670D01*
X0050940Y0741710D01*
X0050580Y0742730D01*
X0050190Y0743740D01*
X0049750Y0744730D01*
X0049290Y0745710D01*
X0048780Y0746670D01*
X0048250Y0747620D01*
X0047680Y0748540D01*
X0047070Y0749440D01*
X0046440Y0750320D01*
X0045770Y0751180D01*
X0045080Y0752010D01*
X0044350Y0752820D01*
X0043600Y0753600D01*
X0042820Y0754350D01*
X0042010Y0755080D01*
X0041180Y0755770D01*
X0040320Y0756440D01*
X0039440Y0757070D01*
X0038540Y0757680D01*
X0037620Y0758250D01*
X0036670Y0758780D01*
X0035710Y0759290D01*
X0034730Y0759750D01*
X0033740Y0760190D01*
X0032730Y0760580D01*
X0031710Y0760940D01*
X0030670Y0761270D01*
X0029630Y0761560D01*
X0028570Y0761810D01*
X0027510Y0762020D01*
X0026430Y0762190D01*
X0025360Y0762330D01*
X0024280Y0762420D01*
X0023190Y0762480D01*
X0022110Y0762500D01*
X0020000Y0762500D01*
X0020000Y0847500D01*
X0420000Y0847500D01*
X0420000Y0762500D01*
X0417780Y0762500D01*
X0416700Y0762480D01*
X0415620Y0762420D01*
X0414540Y0762330D01*
X0413470Y0762190D01*
X0412400Y0762020D01*
X0411340Y0761810D01*
X0410290Y0761560D01*
X0409250Y0761270D01*
X0408220Y0760950D01*
X0407200Y0760590D01*
X0406190Y0760200D01*
X0405200Y0759760D01*
X0404230Y0759300D01*
X0403270Y0758800D01*
X0402330Y0758260D01*
X0401410Y0757690D01*
X0400510Y0757090D01*
X0399640Y0756460D01*
X0398780Y0755800D01*
X0397960Y0755100D01*
X0397150Y0754380D01*
X0396370Y0753630D01*
X0395620Y0752850D01*
X0394900Y0752050D01*
X0394210Y0751220D01*
X0393550Y0750370D01*
X0392910Y0749490D01*
X0392310Y0748590D01*
X0391750Y0747670D01*
X0391210Y0746730D01*
X0390710Y0745780D01*
X0390240Y0744800D01*
X0389810Y0743810D01*
X0389420Y0742800D01*
X0389060Y0741780D01*
X0388730Y0740750D01*
X0388450Y0739710D01*
X0388200Y0738660D01*
X0387990Y0737600D01*
X0387820Y0736530D01*
X0387680Y0735460D01*
X0387590Y0734380D01*
X0387530Y0733300D01*
X0387510Y0732220D01*
X0387510Y0732230D02*
X0387600Y0455320D01*
X0387590Y0455310D02*
X0387570Y0454540D01*
X0387510Y0453760D01*
X0387410Y0452990D01*
X0387280Y0452230D01*
X0387100Y0451470D01*
X0386890Y0450730D01*
X0386640Y0449990D01*
X0386350Y0449270D01*
X0386030Y0448570D01*
X0385670Y0447880D01*
X0385270Y0447210D01*
X0384850Y0446560D01*
X0384390Y0445940D01*
X0383900Y0445340D01*
X0383380Y0444760D01*
X0382830Y0444210D01*
X0382250Y0443690D01*
X0381650Y0443200D01*
X0381030Y0442740D01*
X0380380Y0442320D01*
X0379710Y0441920D01*
X0379020Y0441560D01*
X0378320Y0441240D01*
X0377600Y0440950D01*
X0376860Y0440700D01*
X0376120Y0440490D01*
X0375360Y0440310D01*
X0374600Y0440180D01*
X0373830Y0440080D01*
X0373050Y0440020D01*
X0372280Y0440000D01*
X0067740Y0440000D01*
X0066970Y0440020D01*
X0066200Y0440080D01*
X0065430Y0440180D01*
X0064670Y0440310D01*
X0063920Y0440490D01*
X0063180Y0440700D01*
X0062450Y0440950D01*
X0061730Y0441240D01*
X0061030Y0441560D01*
X0060340Y0441910D01*
X0059680Y0442310D01*
X0059030Y0442730D01*
X0058410Y0443190D01*
X0057810Y0443680D01*
X0057240Y0444190D01*
X0056690Y0444740D01*
X0056180Y0445310D01*
X0055690Y0445910D01*
X0055230Y0446530D01*
X0054810Y0447180D01*
X0054410Y0447840D01*
X0054060Y0448530D01*
X0053740Y0449230D01*
X0053450Y0449950D01*
X0053200Y0450680D01*
X0052990Y0451420D01*
X0052810Y0452170D01*
X0052680Y0452930D01*
X0052580Y0453700D01*
X0052520Y0454470D01*
X0052500Y0455240D01*
D581*
X0126000Y0810000D02*
X0126020Y0810520D01*
X0126080Y0811040D01*
X0126180Y0811560D01*
X0126310Y0812060D01*
X0126480Y0812560D01*
X0126690Y0813040D01*
X0126940Y0813500D01*
X0127220Y0813940D01*
X0127530Y0814360D01*
X0127870Y0814760D01*
X0128240Y0815130D01*
X0128640Y0815470D01*
X0129060Y0815780D01*
X0129500Y0816060D01*
X0129960Y0816310D01*
X0130440Y0816520D01*
X0130940Y0816690D01*
X0131440Y0816820D01*
X0131960Y0816920D01*
X0132480Y0816980D01*
X0133000Y0817000D01*
X0133520Y0816980D01*
X0134040Y0816920D01*
X0134560Y0816820D01*
X0135060Y0816690D01*
X0135560Y0816520D01*
X0136040Y0816310D01*
X0136500Y0816060D01*
X0136940Y0815780D01*
X0137360Y0815470D01*
X0137760Y0815130D01*
X0138130Y0814760D01*
X0138470Y0814360D01*
X0138780Y0813940D01*
X0139060Y0813500D01*
X0139310Y0813040D01*
X0139520Y0812560D01*
X0139690Y0812060D01*
X0139820Y0811560D01*
X0139920Y0811040D01*
X0139980Y0810520D01*
X0140000Y0810000D01*
X0139980Y0809480D01*
X0139920Y0808960D01*
X0139820Y0808440D01*
X0139690Y0807940D01*
X0139520Y0807440D01*
X0139310Y0806960D01*
X0139060Y0806500D01*
X0138780Y0806060D01*
X0138470Y0805640D01*
X0138130Y0805240D01*
X0137760Y0804870D01*
X0137360Y0804530D01*
X0136940Y0804220D01*
X0136500Y0803940D01*
X0136040Y0803690D01*
X0135560Y0803480D01*
X0135060Y0803310D01*
X0134560Y0803180D01*
X0134040Y0803080D01*
X0133520Y0803020D01*
X0133000Y0803000D01*
X0132480Y0803020D01*
X0131960Y0803080D01*
X0131440Y0803180D01*
X0130940Y0803310D01*
X0130440Y0803480D01*
X0129960Y0803690D01*
X0129500Y0803940D01*
X0129060Y0804220D01*
X0128640Y0804530D01*
X0128240Y0804870D01*
X0127870Y0805240D01*
X0127530Y0805640D01*
X0127220Y0806060D01*
X0126940Y0806500D01*
X0126690Y0806960D01*
X0126480Y0807440D01*
X0126310Y0807940D01*
X0126180Y0808440D01*
X0126080Y0808960D01*
X0126020Y0809480D01*
X0126000Y0810000D01*
X0331000Y0810000D02*
X0331020Y0810520D01*
X0331080Y0811040D01*
X0331180Y0811560D01*
X0331310Y0812060D01*
X0331480Y0812560D01*
X0331690Y0813040D01*
X0331940Y0813500D01*
X0332220Y0813940D01*
X0332530Y0814360D01*
X0332870Y0814760D01*
X0333240Y0815130D01*
X0333640Y0815470D01*
X0334060Y0815780D01*
X0334500Y0816060D01*
X0334960Y0816310D01*
X0335440Y0816520D01*
X0335940Y0816690D01*
X0336440Y0816820D01*
X0336960Y0816920D01*
X0337480Y0816980D01*
X0338000Y0817000D01*
X0338520Y0816980D01*
X0339040Y0816920D01*
X0339560Y0816820D01*
X0340060Y0816690D01*
X0340560Y0816520D01*
X0341040Y0816310D01*
X0341500Y0816060D01*
X0341940Y0815780D01*
X0342360Y0815470D01*
X0342760Y0815130D01*
X0343130Y0814760D01*
X0343470Y0814360D01*
X0343780Y0813940D01*
X0344060Y0813500D01*
X0344310Y0813040D01*
X0344520Y0812560D01*
X0344690Y0812060D01*
X0344820Y0811560D01*
X0344920Y0811040D01*
X0344980Y0810520D01*
X0345000Y0810000D01*
X0344980Y0809480D01*
X0344920Y0808960D01*
X0344820Y0808440D01*
X0344690Y0807940D01*
X0344520Y0807440D01*
X0344310Y0806960D01*
X0344060Y0806500D01*
X0343780Y0806060D01*
X0343470Y0805640D01*
X0343130Y0805240D01*
X0342760Y0804870D01*
X0342360Y0804530D01*
X0341940Y0804220D01*
X0341500Y0803940D01*
X0341040Y0803690D01*
X0340560Y0803480D01*
X0340060Y0803310D01*
X0339560Y0803180D01*
X0339040Y0803080D01*
X0338520Y0803020D01*
X0338000Y0803000D01*
X0337480Y0803020D01*
X0336960Y0803080D01*
X0336440Y0803180D01*
X0335940Y0803310D01*
X0335440Y0803480D01*
X0334960Y0803690D01*
X0334500Y0803940D01*
X0334060Y0804220D01*
X0333640Y0804530D01*
X0333240Y0804870D01*
X0332870Y0805240D01*
X0332530Y0805640D01*
X0332220Y0806060D01*
X0331940Y0806500D01*
X0331690Y0806960D01*
X0331480Y0807440D01*
X0331310Y0807940D01*
X0331180Y0808440D01*
X0331080Y0808960D01*
X0331020Y0809480D01*
X0331000Y0810000D01*
X0432500Y0020000D02*
G75*
%LPD*%
D581*
X0432500Y0020000D02*
X0432500Y0220000D01*
X0832500Y0220000D01*
X0832500Y0020000D01*
X0432500Y0020000D01*
X0436990Y0030000D02*
X0437010Y0030470D01*
X0437070Y0030930D01*
X0437170Y0031390D01*
X0437300Y0031840D01*
X0437480Y0032270D01*
X0437690Y0032690D01*
X0437930Y0033090D01*
X0438210Y0033460D01*
X0438520Y0033810D01*
X0438860Y0034140D01*
X0439220Y0034430D01*
X0439610Y0034690D01*
X0440020Y0034920D01*
X0440450Y0035110D01*
X0440890Y0035270D01*
X0441340Y0035390D01*
X0441800Y0035470D01*
X0442270Y0035510D01*
X0442730Y0035510D01*
X0443200Y0035470D01*
X0443660Y0035390D01*
X0444110Y0035270D01*
X0444550Y0035110D01*
X0444980Y0034920D01*
X0445390Y0034690D01*
X0445780Y0034430D01*
X0446140Y0034140D01*
X0446480Y0033810D01*
X0446790Y0033460D01*
X0447070Y0033090D01*
X0447310Y0032690D01*
X0447520Y0032270D01*
X0447700Y0031840D01*
X0447830Y0031390D01*
X0447930Y0030930D01*
X0447990Y0030470D01*
X0448010Y0030000D01*
X0447990Y0029530D01*
X0447930Y0029070D01*
X0447830Y0028610D01*
X0447700Y0028160D01*
X0447520Y0027730D01*
X0447310Y0027310D01*
X0447070Y0026910D01*
X0446790Y0026540D01*
X0446480Y0026190D01*
X0446140Y0025860D01*
X0445780Y0025570D01*
X0445390Y0025310D01*
X0444980Y0025080D01*
X0444550Y0024890D01*
X0444110Y0024730D01*
X0443660Y0024610D01*
X0443200Y0024530D01*
X0442730Y0024490D01*
X0442270Y0024490D01*
X0441800Y0024530D01*
X0441340Y0024610D01*
X0440890Y0024730D01*
X0440450Y0024890D01*
X0440020Y0025080D01*
X0439610Y0025310D01*
X0439220Y0025570D01*
X0438860Y0025860D01*
X0438520Y0026190D01*
X0438210Y0026540D01*
X0437930Y0026910D01*
X0437690Y0027310D01*
X0437480Y0027730D01*
X0437300Y0028160D01*
X0437170Y0028610D01*
X0437070Y0029070D01*
X0437010Y0029530D01*
X0436990Y0030000D01*
X0436990Y0210000D02*
X0437010Y0210470D01*
X0437070Y0210930D01*
X0437170Y0211390D01*
X0437300Y0211840D01*
X0437480Y0212270D01*
X0437690Y0212690D01*
X0437930Y0213090D01*
X0438210Y0213460D01*
X0438520Y0213810D01*
X0438860Y0214140D01*
X0439220Y0214430D01*
X0439610Y0214690D01*
X0440020Y0214920D01*
X0440450Y0215110D01*
X0440890Y0215270D01*
X0441340Y0215390D01*
X0441800Y0215470D01*
X0442270Y0215510D01*
X0442730Y0215510D01*
X0443200Y0215470D01*
X0443660Y0215390D01*
X0444110Y0215270D01*
X0444550Y0215110D01*
X0444980Y0214920D01*
X0445390Y0214690D01*
X0445780Y0214430D01*
X0446140Y0214140D01*
X0446480Y0213810D01*
X0446790Y0213460D01*
X0447070Y0213090D01*
X0447310Y0212690D01*
X0447520Y0212270D01*
X0447700Y0211840D01*
X0447830Y0211390D01*
X0447930Y0210930D01*
X0447990Y0210470D01*
X0448010Y0210000D01*
X0447990Y0209530D01*
X0447930Y0209070D01*
X0447830Y0208610D01*
X0447700Y0208160D01*
X0447520Y0207730D01*
X0447310Y0207310D01*
X0447070Y0206910D01*
X0446790Y0206540D01*
X0446480Y0206190D01*
X0446140Y0205860D01*
X0445780Y0205570D01*
X0445390Y0205310D01*
X0444980Y0205080D01*
X0444550Y0204890D01*
X0444110Y0204730D01*
X0443660Y0204610D01*
X0443200Y0204530D01*
X0442730Y0204490D01*
X0442270Y0204490D01*
X0441800Y0204530D01*
X0441340Y0204610D01*
X0440890Y0204730D01*
X0440450Y0204890D01*
X0440020Y0205080D01*
X0439610Y0205310D01*
X0439220Y0205570D01*
X0438860Y0205860D01*
X0438520Y0206190D01*
X0438210Y0206540D01*
X0437930Y0206910D01*
X0437690Y0207310D01*
X0437480Y0207730D01*
X0437300Y0208160D01*
X0437170Y0208610D01*
X0437070Y0209070D01*
X0437010Y0209530D01*
X0436990Y0210000D01*
X0816990Y0210000D02*
X0817010Y0210470D01*
X0817070Y0210930D01*
X0817170Y0211390D01*
X0817300Y0211840D01*
X0817480Y0212270D01*
X0817690Y0212690D01*
X0817930Y0213090D01*
X0818210Y0213460D01*
X0818520Y0213810D01*
X0818860Y0214140D01*
X0819220Y0214430D01*
X0819610Y0214690D01*
X0820020Y0214920D01*
X0820450Y0215110D01*
X0820890Y0215270D01*
X0821340Y0215390D01*
X0821800Y0215470D01*
X0822270Y0215510D01*
X0822730Y0215510D01*
X0823200Y0215470D01*
X0823660Y0215390D01*
X0824110Y0215270D01*
X0824550Y0215110D01*
X0824980Y0214920D01*
X0825390Y0214690D01*
X0825780Y0214430D01*
X0826140Y0214140D01*
X0826480Y0213810D01*
X0826790Y0213460D01*
X0827070Y0213090D01*
X0827310Y0212690D01*
X0827520Y0212270D01*
X0827700Y0211840D01*
X0827830Y0211390D01*
X0827930Y0210930D01*
X0827990Y0210470D01*
X0828010Y0210000D01*
X0827990Y0209530D01*
X0827930Y0209070D01*
X0827830Y0208610D01*
X0827700Y0208160D01*
X0827520Y0207730D01*
X0827310Y0207310D01*
X0827070Y0206910D01*
X0826790Y0206540D01*
X0826480Y0206190D01*
X0826140Y0205860D01*
X0825780Y0205570D01*
X0825390Y0205310D01*
X0824980Y0205080D01*
X0824550Y0204890D01*
X0824110Y0204730D01*
X0823660Y0204610D01*
X0823200Y0204530D01*
X0822730Y0204490D01*
X0822270Y0204490D01*
X0821800Y0204530D01*
X0821340Y0204610D01*
X0820890Y0204730D01*
X0820450Y0204890D01*
X0820020Y0205080D01*
X0819610Y0205310D01*
X0819220Y0205570D01*
X0818860Y0205860D01*
X0818520Y0206190D01*
X0818210Y0206540D01*
X0817930Y0206910D01*
X0817690Y0207310D01*
X0817480Y0207730D01*
X0817300Y0208160D01*
X0817170Y0208610D01*
X0817070Y0209070D01*
X0817010Y0209530D01*
X0816990Y0210000D01*
X0816990Y0030000D02*
X0817010Y0030470D01*
X0817070Y0030930D01*
X0817170Y0031390D01*
X0817300Y0031840D01*
X0817480Y0032270D01*
X0817690Y0032690D01*
X0817930Y0033090D01*
X0818210Y0033460D01*
X0818520Y0033810D01*
X0818860Y0034140D01*
X0819220Y0034430D01*
X0819610Y0034690D01*
X0820020Y0034920D01*
X0820450Y0035110D01*
X0820890Y0035270D01*
X0821340Y0035390D01*
X0821800Y0035470D01*
X0822270Y0035510D01*
X0822730Y0035510D01*
X0823200Y0035470D01*
X0823660Y0035390D01*
X0824110Y0035270D01*
X0824550Y0035110D01*
X0824980Y0034920D01*
X0825390Y0034690D01*
X0825780Y0034430D01*
X0826140Y0034140D01*
X0826480Y0033810D01*
X0826790Y0033460D01*
X0827070Y0033090D01*
X0827310Y0032690D01*
X0827520Y0032270D01*
X0827700Y0031840D01*
X0827830Y0031390D01*
X0827930Y0030930D01*
X0827990Y0030470D01*
X0828010Y0030000D01*
X0827990Y0029530D01*
X0827930Y0029070D01*
X0827830Y0028610D01*
X0827700Y0028160D01*
X0827520Y0027730D01*
X0827310Y0027310D01*
X0827070Y0026910D01*
X0826790Y0026540D01*
X0826480Y0026190D01*
X0826140Y0025860D01*
X0825780Y0025570D01*
X0825390Y0025310D01*
X0824980Y0025080D01*
X0824550Y0024890D01*
X0824110Y0024730D01*
X0823660Y0024610D01*
X0823200Y0024530D01*
X0822730Y0024490D01*
X0822270Y0024490D01*
X0821800Y0024530D01*
X0821340Y0024610D01*
X0820890Y0024730D01*
X0820450Y0024890D01*
X0820020Y0025080D01*
X0819610Y0025310D01*
X0819220Y0025570D01*
X0818860Y0025860D01*
X0818520Y0026190D01*
X0818210Y0026540D01*
X0817930Y0026910D01*
X0817690Y0027310D01*
X0817480Y0027730D01*
X0817300Y0028160D01*
X0817170Y0028610D01*
X0817070Y0029070D01*
X0817010Y0029530D01*
X0816990Y0030000D01*
X0432500Y0232500D02*
G75*
%LPD*%
D755*
X0465000Y0247740D02*
X0465000Y0524610D01*
X0464980Y0525690D01*
X0464920Y0526780D01*
X0464830Y0527860D01*
X0464690Y0528930D01*
X0464520Y0530010D01*
X0464310Y0531070D01*
X0464060Y0532130D01*
X0463770Y0533170D01*
X0463440Y0534210D01*
X0463080Y0535230D01*
X0462690Y0536240D01*
X0462250Y0537230D01*
X0461790Y0538210D01*
X0461280Y0539170D01*
X0460750Y0540120D01*
X0460180Y0541040D01*
X0459570Y0541940D01*
X0458940Y0542820D01*
X0458270Y0543680D01*
X0457580Y0544510D01*
X0456850Y0545320D01*
X0456100Y0546100D01*
X0455320Y0546850D01*
X0454510Y0547580D01*
X0453680Y0548270D01*
X0452820Y0548940D01*
X0451940Y0549570D01*
X0451040Y0550180D01*
X0450120Y0550750D01*
X0449170Y0551280D01*
X0448210Y0551790D01*
X0447230Y0552250D01*
X0446240Y0552690D01*
X0445230Y0553080D01*
X0444210Y0553440D01*
X0443170Y0553770D01*
X0442130Y0554060D01*
X0441070Y0554310D01*
X0440010Y0554520D01*
X0438930Y0554690D01*
X0437860Y0554830D01*
X0436780Y0554920D01*
X0435690Y0554980D01*
X0434610Y0555000D01*
X0432500Y0555000D01*
X0432500Y0640000D01*
X0832500Y0640000D01*
X0832500Y0555000D01*
X0830280Y0555000D01*
X0829200Y0554980D01*
X0828120Y0554920D01*
X0827040Y0554830D01*
X0825970Y0554690D01*
X0824900Y0554520D01*
X0823840Y0554310D01*
X0822790Y0554060D01*
X0821750Y0553770D01*
X0820720Y0553450D01*
X0819700Y0553090D01*
X0818690Y0552700D01*
X0817700Y0552260D01*
X0816730Y0551800D01*
X0815770Y0551300D01*
X0814830Y0550760D01*
X0813910Y0550190D01*
X0813010Y0549590D01*
X0812140Y0548960D01*
X0811280Y0548300D01*
X0810460Y0547600D01*
X0809650Y0546880D01*
X0808870Y0546130D01*
X0808120Y0545350D01*
X0807400Y0544550D01*
X0806710Y0543720D01*
X0806050Y0542870D01*
X0805410Y0541990D01*
X0804810Y0541090D01*
X0804250Y0540170D01*
X0803710Y0539230D01*
X0803210Y0538280D01*
X0802740Y0537300D01*
X0802310Y0536310D01*
X0801920Y0535300D01*
X0801560Y0534280D01*
X0801230Y0533250D01*
X0800950Y0532210D01*
X0800700Y0531160D01*
X0800490Y0530100D01*
X0800320Y0529030D01*
X0800180Y0527960D01*
X0800090Y0526880D01*
X0800030Y0525800D01*
X0800010Y0524720D01*
X0800010Y0524730D02*
X0800100Y0247820D01*
X0800090Y0247810D02*
X0800070Y0247040D01*
X0800010Y0246260D01*
X0799910Y0245490D01*
X0799780Y0244730D01*
X0799600Y0243970D01*
X0799390Y0243230D01*
X0799140Y0242490D01*
X0798850Y0241770D01*
X0798530Y0241070D01*
X0798170Y0240380D01*
X0797770Y0239710D01*
X0797350Y0239060D01*
X0796890Y0238440D01*
X0796400Y0237840D01*
X0795880Y0237260D01*
X0795330Y0236710D01*
X0794750Y0236190D01*
X0794150Y0235700D01*
X0793530Y0235240D01*
X0792880Y0234820D01*
X0792210Y0234420D01*
X0791520Y0234060D01*
X0790820Y0233740D01*
X0790100Y0233450D01*
X0789360Y0233200D01*
X0788620Y0232990D01*
X0787860Y0232810D01*
X0787100Y0232680D01*
X0786330Y0232580D01*
X0785550Y0232520D01*
X0784780Y0232500D01*
X0480240Y0232500D01*
X0479470Y0232520D01*
X0478700Y0232580D01*
X0477930Y0232680D01*
X0477170Y0232810D01*
X0476420Y0232990D01*
X0475680Y0233200D01*
X0474950Y0233450D01*
X0474230Y0233740D01*
X0473530Y0234060D01*
X0472840Y0234410D01*
X0472180Y0234810D01*
X0471530Y0235230D01*
X0470910Y0235690D01*
X0470310Y0236180D01*
X0469740Y0236690D01*
X0469190Y0237240D01*
X0468680Y0237810D01*
X0468190Y0238410D01*
X0467730Y0239030D01*
X0467310Y0239680D01*
X0466910Y0240340D01*
X0466560Y0241030D01*
X0466240Y0241730D01*
X0465950Y0242450D01*
X0465700Y0243180D01*
X0465490Y0243920D01*
X0465310Y0244670D01*
X0465180Y0245430D01*
X0465080Y0246200D01*
X0465020Y0246970D01*
X0465000Y0247740D01*
D581*
X0538500Y0602500D02*
X0538520Y0603020D01*
X0538580Y0603540D01*
X0538680Y0604060D01*
X0538810Y0604560D01*
X0538980Y0605060D01*
X0539190Y0605540D01*
X0539440Y0606000D01*
X0539720Y0606440D01*
X0540030Y0606860D01*
X0540370Y0607260D01*
X0540740Y0607630D01*
X0541140Y0607970D01*
X0541560Y0608280D01*
X0542000Y0608560D01*
X0542460Y0608810D01*
X0542940Y0609020D01*
X0543440Y0609190D01*
X0543940Y0609320D01*
X0544460Y0609420D01*
X0544980Y0609480D01*
X0545500Y0609500D01*
X0546020Y0609480D01*
X0546540Y0609420D01*
X0547060Y0609320D01*
X0547560Y0609190D01*
X0548060Y0609020D01*
X0548540Y0608810D01*
X0549000Y0608560D01*
X0549440Y0608280D01*
X0549860Y0607970D01*
X0550260Y0607630D01*
X0550630Y0607260D01*
X0550970Y0606860D01*
X0551280Y0606440D01*
X0551560Y0606000D01*
X0551810Y0605540D01*
X0552020Y0605060D01*
X0552190Y0604560D01*
X0552320Y0604060D01*
X0552420Y0603540D01*
X0552480Y0603020D01*
X0552500Y0602500D01*
X0552480Y0601980D01*
X0552420Y0601460D01*
X0552320Y0600940D01*
X0552190Y0600440D01*
X0552020Y0599940D01*
X0551810Y0599460D01*
X0551560Y0599000D01*
X0551280Y0598560D01*
X0550970Y0598140D01*
X0550630Y0597740D01*
X0550260Y0597370D01*
X0549860Y0597030D01*
X0549440Y0596720D01*
X0549000Y0596440D01*
X0548540Y0596190D01*
X0548060Y0595980D01*
X0547560Y0595810D01*
X0547060Y0595680D01*
X0546540Y0595580D01*
X0546020Y0595520D01*
X0545500Y0595500D01*
X0544980Y0595520D01*
X0544460Y0595580D01*
X0543940Y0595680D01*
X0543440Y0595810D01*
X0542940Y0595980D01*
X0542460Y0596190D01*
X0542000Y0596440D01*
X0541560Y0596720D01*
X0541140Y0597030D01*
X0540740Y0597370D01*
X0540370Y0597740D01*
X0540030Y0598140D01*
X0539720Y0598560D01*
X0539440Y0599000D01*
X0539190Y0599460D01*
X0538980Y0599940D01*
X0538810Y0600440D01*
X0538680Y0600940D01*
X0538580Y0601460D01*
X0538520Y0601980D01*
X0538500Y0602500D01*
X0743500Y0602500D02*
X0743520Y0603020D01*
X0743580Y0603540D01*
X0743680Y0604060D01*
X0743810Y0604560D01*
X0743980Y0605060D01*
X0744190Y0605540D01*
X0744440Y0606000D01*
X0744720Y0606440D01*
X0745030Y0606860D01*
X0745370Y0607260D01*
X0745740Y0607630D01*
X0746140Y0607970D01*
X0746560Y0608280D01*
X0747000Y0608560D01*
X0747460Y0608810D01*
X0747940Y0609020D01*
X0748440Y0609190D01*
X0748940Y0609320D01*
X0749460Y0609420D01*
X0749980Y0609480D01*
X0750500Y0609500D01*
X0751020Y0609480D01*
X0751540Y0609420D01*
X0752060Y0609320D01*
X0752560Y0609190D01*
X0753060Y0609020D01*
X0753540Y0608810D01*
X0754000Y0608560D01*
X0754440Y0608280D01*
X0754860Y0607970D01*
X0755260Y0607630D01*
X0755630Y0607260D01*
X0755970Y0606860D01*
X0756280Y0606440D01*
X0756560Y0606000D01*
X0756810Y0605540D01*
X0757020Y0605060D01*
X0757190Y0604560D01*
X0757320Y0604060D01*
X0757420Y0603540D01*
X0757480Y0603020D01*
X0757500Y0602500D01*
X0757480Y0601980D01*
X0757420Y0601460D01*
X0757320Y0600940D01*
X0757190Y0600440D01*
X0757020Y0599940D01*
X0756810Y0599460D01*
X0756560Y0599000D01*
X0756280Y0598560D01*
X0755970Y0598140D01*
X0755630Y0597740D01*
X0755260Y0597370D01*
X0754860Y0597030D01*
X0754440Y0596720D01*
X0754000Y0596440D01*
X0753540Y0596190D01*
X0753060Y0595980D01*
X0752560Y0595810D01*
X0752060Y0595680D01*
X0751540Y0595580D01*
X0751020Y0595520D01*
X0750500Y0595500D01*
X0749980Y0595520D01*
X0749460Y0595580D01*
X0748940Y0595680D01*
X0748440Y0595810D01*
X0747940Y0595980D01*
X0747460Y0596190D01*
X0747000Y0596440D01*
X0746560Y0596720D01*
X0746140Y0597030D01*
X0745740Y0597370D01*
X0745370Y0597740D01*
X0745030Y0598140D01*
X0744720Y0598560D01*
X0744440Y0599000D01*
X0744190Y0599460D01*
X0743980Y0599940D01*
X0743810Y0600440D01*
X0743680Y0600940D01*
X0743580Y0601460D01*
X0743520Y0601980D01*
X0743500Y0602500D01*
X0020000Y0860000D02*
G75*
%LPD*%
D755*
X0412260Y0892500D02*
X0135390Y0892500D01*
X0134310Y0892480D01*
X0133220Y0892420D01*
X0132140Y0892330D01*
X0131070Y0892190D01*
X0129990Y0892020D01*
X0128930Y0891810D01*
X0127870Y0891560D01*
X0126830Y0891270D01*
X0125790Y0890940D01*
X0124770Y0890580D01*
X0123760Y0890190D01*
X0122770Y0889750D01*
X0121790Y0889290D01*
X0120830Y0888780D01*
X0119880Y0888250D01*
X0118960Y0887680D01*
X0118060Y0887070D01*
X0117180Y0886440D01*
X0116320Y0885770D01*
X0115490Y0885080D01*
X0114680Y0884350D01*
X0113900Y0883600D01*
X0113150Y0882820D01*
X0112420Y0882010D01*
X0111730Y0881180D01*
X0111060Y0880320D01*
X0110430Y0879440D01*
X0109820Y0878540D01*
X0109250Y0877620D01*
X0108720Y0876670D01*
X0108210Y0875710D01*
X0107750Y0874730D01*
X0107310Y0873740D01*
X0106920Y0872730D01*
X0106560Y0871710D01*
X0106230Y0870670D01*
X0105940Y0869630D01*
X0105690Y0868570D01*
X0105480Y0867510D01*
X0105310Y0866430D01*
X0105170Y0865360D01*
X0105080Y0864280D01*
X0105020Y0863190D01*
X0105000Y0862110D01*
X0105000Y0860000D01*
X0020000Y0860000D01*
X0020000Y1260000D01*
X0105000Y1260000D01*
X0105000Y1257780D01*
X0105020Y1256700D01*
X0105080Y1255620D01*
X0105170Y1254540D01*
X0105310Y1253470D01*
X0105480Y1252400D01*
X0105690Y1251340D01*
X0105940Y1250290D01*
X0106230Y1249250D01*
X0106550Y1248220D01*
X0106910Y1247200D01*
X0107300Y1246190D01*
X0107740Y1245200D01*
X0108200Y1244230D01*
X0108700Y1243270D01*
X0109240Y1242330D01*
X0109810Y1241410D01*
X0110410Y1240510D01*
X0111040Y1239640D01*
X0111700Y1238780D01*
X0112400Y1237960D01*
X0113120Y1237150D01*
X0113870Y1236370D01*
X0114650Y1235620D01*
X0115450Y1234900D01*
X0116280Y1234210D01*
X0117130Y1233550D01*
X0118010Y1232910D01*
X0118910Y1232310D01*
X0119830Y1231750D01*
X0120770Y1231210D01*
X0121720Y1230710D01*
X0122700Y1230240D01*
X0123690Y1229810D01*
X0124700Y1229420D01*
X0125720Y1229060D01*
X0126750Y1228730D01*
X0127790Y1228450D01*
X0128840Y1228200D01*
X0129900Y1227990D01*
X0130970Y1227820D01*
X0132040Y1227680D01*
X0133120Y1227590D01*
X0134200Y1227530D01*
X0135280Y1227510D01*
X0135270Y1227510D02*
X0412180Y1227600D01*
X0412190Y1227590D02*
X0412960Y1227570D01*
X0413740Y1227510D01*
X0414510Y1227410D01*
X0415270Y1227280D01*
X0416030Y1227100D01*
X0416770Y1226890D01*
X0417510Y1226640D01*
X0418230Y1226350D01*
X0418930Y1226030D01*
X0419620Y1225670D01*
X0420290Y1225270D01*
X0420940Y1224850D01*
X0421560Y1224390D01*
X0422160Y1223900D01*
X0422740Y1223380D01*
X0423290Y1222830D01*
X0423810Y1222250D01*
X0424300Y1221650D01*
X0424760Y1221030D01*
X0425180Y1220380D01*
X0425580Y1219710D01*
X0425940Y1219020D01*
X0426260Y1218320D01*
X0426550Y1217600D01*
X0426800Y1216860D01*
X0427010Y1216120D01*
X0427190Y1215360D01*
X0427320Y1214600D01*
X0427420Y1213830D01*
X0427480Y1213050D01*
X0427500Y1212280D01*
X0427500Y0907740D01*
X0427480Y0906970D01*
X0427420Y0906200D01*
X0427320Y0905430D01*
X0427190Y0904670D01*
X0427010Y0903920D01*
X0426800Y0903180D01*
X0426550Y0902450D01*
X0426260Y0901730D01*
X0425940Y0901030D01*
X0425590Y0900340D01*
X0425190Y0899680D01*
X0424770Y0899030D01*
X0424310Y0898410D01*
X0423820Y0897810D01*
X0423310Y0897240D01*
X0422760Y0896690D01*
X0422190Y0896180D01*
X0421590Y0895690D01*
X0420970Y0895230D01*
X0420320Y0894810D01*
X0419660Y0894410D01*
X0418970Y0894060D01*
X0418270Y0893740D01*
X0417550Y0893450D01*
X0416820Y0893200D01*
X0416080Y0892990D01*
X0415330Y0892810D01*
X0414570Y0892680D01*
X0413800Y0892580D01*
X0413030Y0892520D01*
X0412260Y0892500D01*
D581*
X0057500Y0966000D02*
X0056980Y0966020D01*
X0056460Y0966080D01*
X0055940Y0966180D01*
X0055440Y0966310D01*
X0054940Y0966480D01*
X0054460Y0966690D01*
X0054000Y0966940D01*
X0053560Y0967220D01*
X0053140Y0967530D01*
X0052740Y0967870D01*
X0052370Y0968240D01*
X0052030Y0968640D01*
X0051720Y0969060D01*
X0051440Y0969500D01*
X0051190Y0969960D01*
X0050980Y0970440D01*
X0050810Y0970940D01*
X0050680Y0971440D01*
X0050580Y0971960D01*
X0050520Y0972480D01*
X0050500Y0973000D01*
X0050520Y0973520D01*
X0050580Y0974040D01*
X0050680Y0974560D01*
X0050810Y0975060D01*
X0050980Y0975560D01*
X0051190Y0976040D01*
X0051440Y0976500D01*
X0051720Y0976940D01*
X0052030Y0977360D01*
X0052370Y0977760D01*
X0052740Y0978130D01*
X0053140Y0978470D01*
X0053560Y0978780D01*
X0054000Y0979060D01*
X0054460Y0979310D01*
X0054940Y0979520D01*
X0055440Y0979690D01*
X0055940Y0979820D01*
X0056460Y0979920D01*
X0056980Y0979980D01*
X0057500Y0980000D01*
X0058020Y0979980D01*
X0058540Y0979920D01*
X0059060Y0979820D01*
X0059560Y0979690D01*
X0060060Y0979520D01*
X0060540Y0979310D01*
X0061000Y0979060D01*
X0061440Y0978780D01*
X0061860Y0978470D01*
X0062260Y0978130D01*
X0062630Y0977760D01*
X0062970Y0977360D01*
X0063280Y0976940D01*
X0063560Y0976500D01*
X0063810Y0976040D01*
X0064020Y0975560D01*
X0064190Y0975060D01*
X0064320Y0974560D01*
X0064420Y0974040D01*
X0064480Y0973520D01*
X0064500Y0973000D01*
X0064480Y0972480D01*
X0064420Y0971960D01*
X0064320Y0971440D01*
X0064190Y0970940D01*
X0064020Y0970440D01*
X0063810Y0969960D01*
X0063560Y0969500D01*
X0063280Y0969060D01*
X0062970Y0968640D01*
X0062630Y0968240D01*
X0062260Y0967870D01*
X0061860Y0967530D01*
X0061440Y0967220D01*
X0061000Y0966940D01*
X0060540Y0966690D01*
X0060060Y0966480D01*
X0059560Y0966310D01*
X0059060Y0966180D01*
X0058540Y0966080D01*
X0058020Y0966020D01*
X0057500Y0966000D01*
X0057500Y1171000D02*
X0056980Y1171020D01*
X0056460Y1171080D01*
X0055940Y1171180D01*
X0055440Y1171310D01*
X0054940Y1171480D01*
X0054460Y1171690D01*
X0054000Y1171940D01*
X0053560Y1172220D01*
X0053140Y1172530D01*
X0052740Y1172870D01*
X0052370Y1173240D01*
X0052030Y1173640D01*
X0051720Y1174060D01*
X0051440Y1174500D01*
X0051190Y1174960D01*
X0050980Y1175440D01*
X0050810Y1175940D01*
X0050680Y1176440D01*
X0050580Y1176960D01*
X0050520Y1177480D01*
X0050500Y1178000D01*
X0050520Y1178520D01*
X0050580Y1179040D01*
X0050680Y1179560D01*
X0050810Y1180060D01*
X0050980Y1180560D01*
X0051190Y1181040D01*
X0051440Y1181500D01*
X0051720Y1181940D01*
X0052030Y1182360D01*
X0052370Y1182760D01*
X0052740Y1183130D01*
X0053140Y1183470D01*
X0053560Y1183780D01*
X0054000Y1184060D01*
X0054460Y1184310D01*
X0054940Y1184520D01*
X0055440Y1184690D01*
X0055940Y1184820D01*
X0056460Y1184920D01*
X0056980Y1184980D01*
X0057500Y1185000D01*
X0058020Y1184980D01*
X0058540Y1184920D01*
X0059060Y1184820D01*
X0059560Y1184690D01*
X0060060Y1184520D01*
X0060540Y1184310D01*
X0061000Y1184060D01*
X0061440Y1183780D01*
X0061860Y1183470D01*
X0062260Y1183130D01*
X0062630Y1182760D01*
X0062970Y1182360D01*
X0063280Y1181940D01*
X0063560Y1181500D01*
X0063810Y1181040D01*
X0064020Y1180560D01*
X0064190Y1180060D01*
X0064320Y1179560D01*
X0064420Y1179040D01*
X0064480Y1178520D01*
X0064500Y1178000D01*
X0064480Y1177480D01*
X0064420Y1176960D01*
X0064320Y1176440D01*
X0064190Y1175940D01*
X0064020Y1175440D01*
X0063810Y1174960D01*
X0063560Y1174500D01*
X0063280Y1174060D01*
X0062970Y1173640D01*
X0062630Y1173240D01*
X0062260Y1172870D01*
X0061860Y1172530D01*
X0061440Y1172220D01*
X0061000Y1171940D01*
X0060540Y1171690D01*
X0060060Y1171480D01*
X0059560Y1171310D01*
X0059060Y1171180D01*
X0058540Y1171080D01*
X0058020Y1171020D01*
X0057500Y1171000D01*
X0440000Y0652500D02*
G75*
%LPD*%
D755*
X0830000Y0652500D02*
X0440000Y0652500D01*
X0440000Y0923500D01*
X0449000Y0923500D01*
X0449390Y0923520D01*
X0449780Y0923580D01*
X0450160Y0923670D01*
X0450530Y0923800D01*
X0450890Y0923970D01*
X0451220Y0924170D01*
X0451540Y0924410D01*
X0451830Y0924670D01*
X0452090Y0924960D01*
X0452330Y0925280D01*
X0452530Y0925610D01*
X0452700Y0925970D01*
X0452830Y0926340D01*
X0452920Y0926720D01*
X0452980Y0927110D01*
X0453000Y0927500D01*
X0452980Y0927890D01*
X0452920Y0928280D01*
X0452830Y0928660D01*
X0452700Y0929030D01*
X0452530Y0929390D01*
X0452330Y0929720D01*
X0452090Y0930040D01*
X0451830Y0930330D01*
X0451540Y0930590D01*
X0451220Y0930830D01*
X0450890Y0931030D01*
X0450530Y0931200D01*
X0450160Y0931330D01*
X0449780Y0931420D01*
X0449390Y0931480D01*
X0449000Y0931500D01*
X0440000Y0931500D01*
X0440000Y0957500D01*
X0830000Y0957500D01*
X0830000Y0931500D01*
X0820000Y0931500D01*
X0819610Y0931480D01*
X0819220Y0931420D01*
X0818840Y0931330D01*
X0818470Y0931200D01*
X0818110Y0931030D01*
X0817780Y0930830D01*
X0817460Y0930590D01*
X0817170Y0930330D01*
X0816910Y0930040D01*
X0816670Y0929720D01*
X0816470Y0929390D01*
X0816300Y0929030D01*
X0816170Y0928660D01*
X0816080Y0928280D01*
X0816020Y0927890D01*
X0816000Y0927500D01*
X0816020Y0927110D01*
X0816080Y0926720D01*
X0816170Y0926340D01*
X0816300Y0925970D01*
X0816470Y0925610D01*
X0816670Y0925280D01*
X0816910Y0924960D01*
X0817170Y0924670D01*
X0817460Y0924410D01*
X0817780Y0924170D01*
X0818110Y0923970D01*
X0818470Y0923800D01*
X0818840Y0923670D01*
X0819220Y0923580D01*
X0819610Y0923520D01*
X0820000Y0923500D01*
X0830000Y0923500D01*
X0830000Y0652500D01*
X0440000Y0970000D02*
G75*
%LPD*%
D755*
X0830000Y0970000D02*
X0440000Y0970000D01*
X0440000Y1241000D01*
X0449000Y1241000D01*
X0449390Y1241020D01*
X0449780Y1241080D01*
X0450160Y1241170D01*
X0450530Y1241300D01*
X0450890Y1241470D01*
X0451220Y1241670D01*
X0451540Y1241910D01*
X0451830Y1242170D01*
X0452090Y1242460D01*
X0452330Y1242780D01*
X0452530Y1243110D01*
X0452700Y1243470D01*
X0452830Y1243840D01*
X0452920Y1244220D01*
X0452980Y1244610D01*
X0453000Y1245000D01*
X0452980Y1245390D01*
X0452920Y1245780D01*
X0452830Y1246160D01*
X0452700Y1246530D01*
X0452530Y1246890D01*
X0452330Y1247220D01*
X0452090Y1247540D01*
X0451830Y1247830D01*
X0451540Y1248090D01*
X0451220Y1248330D01*
X0450890Y1248530D01*
X0450530Y1248700D01*
X0450160Y1248830D01*
X0449780Y1248920D01*
X0449390Y1248980D01*
X0449000Y1249000D01*
X0440000Y1249000D01*
X0440000Y1275000D01*
X0830000Y1275000D01*
X0830000Y1249000D01*
X0820000Y1249000D01*
X0819610Y1248980D01*
X0819220Y1248920D01*
X0818840Y1248830D01*
X0818470Y1248700D01*
X0818110Y1248530D01*
X0817780Y1248330D01*
X0817460Y1248090D01*
X0817170Y1247830D01*
X0816910Y1247540D01*
X0816670Y1247220D01*
X0816470Y1246890D01*
X0816300Y1246530D01*
X0816170Y1246160D01*
X0816080Y1245780D01*
X0816020Y1245390D01*
X0816000Y1245000D01*
X0816020Y1244610D01*
X0816080Y1244220D01*
X0816170Y1243840D01*
X0816300Y1243470D01*
X0816470Y1243110D01*
X0816670Y1242780D01*
X0816910Y1242460D01*
X0817170Y1242170D01*
X0817460Y1241910D01*
X0817780Y1241670D01*
X0818110Y1241470D01*
X0818470Y1241300D01*
X0818840Y1241170D01*
X0819220Y1241080D01*
X0819610Y1241020D01*
X0820000Y1241000D01*
X0830000Y1241000D01*
X0830000Y0970000D01*
M02*
