%
T01C0.019350
X7400Y2500
X15670Y13970
X17020Y14080
X17740Y14170
X17370Y14790
X18560Y15300
X17280Y16370
X18070Y17010
X18370Y18280
X17845Y18505
X17275Y18615
X16620Y18330
X16070Y18320
X16290Y17020
X18580Y23050
X23090Y21770
X25860Y19050
X26230Y19550
X27750Y26640
X29070Y27340
X29460Y27010
X29470Y27680
X12300Y31700
X10150Y26350
X9350Y24650
X9000Y23950
X9000Y22750
X9080Y20950
X7350Y20950
X7500Y25800
X36750Y2450
X7550Y44600
X23960Y62770
X23970Y63630
X22350Y65050
X19200Y64700
X25200Y70450
X25600Y70850
X26000Y71250
X26250Y68100
X26900Y68100
X27700Y68100
X30500Y66500
X30500Y66000
X30500Y65500
X30500Y65000
X30500Y64500
X31000Y64500
X31000Y65000
X31000Y65500
X31000Y66000
X31000Y66500
X31500Y66500
X31500Y66000
X31500Y65500
X31500Y65000
X31500Y64500
X32000Y64500
X32000Y65000
X32000Y65500
X32000Y66000
X32000Y66500
X31300Y68100
X33800Y68000
X33800Y68600
X34100Y69700
X34700Y69700
X35300Y69700
X35800Y69700
X35800Y70400
X35300Y70400
X35300Y71000
X35800Y71000
X34700Y71000
X34700Y70400
X34100Y70400
X34100Y71000
X34700Y73300
X34700Y73950
X36000Y76300
X36600Y76300
X36600Y77000
X36600Y77700
X32000Y74850
X32000Y74250
X32000Y73650
X30600Y73650
X30600Y74250
X30600Y74850
X32000Y72200
X35300Y68500
X35300Y67900
X35500Y66500
X35500Y66000
X35500Y65500
X35500Y65000
X35500Y64500
X36000Y64500
X36000Y65000
X36000Y65500
X36000Y66000
X36000Y66500
X36500Y66500
X36500Y66000
X36500Y65500
X36500Y65000
X36500Y64500
X36500Y64000
X36500Y63500
X36500Y63000
X36000Y63000
X36000Y63500
X36000Y64000
X35500Y64000
X35500Y63500
X35500Y63000
X35000Y63000
X35000Y63500
X34500Y63500
X34500Y63000
X34000Y63000
X34000Y63500
X33500Y63500
X33500Y63000
X33000Y63000
X33000Y63500
X32500Y63500
X32500Y63000
X32000Y63000
X32000Y63500
X32000Y64000
X31500Y64000
X31500Y63500
X31500Y63000
X31000Y63000
X31000Y63500
X31000Y64000
X30500Y64000
X30500Y63500
X30500Y63000
X33500Y54500
X33500Y47550
X32900Y47550
X32350Y47550
X31800Y47550
X31800Y46850
X32350Y46850
X32900Y46850
X33500Y46850
X33500Y46100
X32900Y46100
X32350Y46100
X31800Y46100
X36400Y44600
X22500Y73150
X21750Y73150
X21400Y75400
X22150Y75400
X19900Y75400
X18350Y75400
X16900Y75400
X15400Y75400
X13850Y75400
X11000Y76900
X10650Y74150
X8700Y74150
X7450Y75800
X24750Y74850
X24950Y75450
X25600Y75650
X25600Y74800
X27260Y75100
X27510Y77640
X44670Y4050
X51170Y9290
X55300Y9920
X56230Y9380
X55900Y12540
X57050Y13820
X61060Y14390
X62320Y14390
X62340Y15250
X61090Y15250
X64320Y15320
X65630Y15360
X66800Y14980
X67630Y15400
X67610Y14520
X68920Y14540
X68920Y15400
X65630Y14480
X64320Y14490
X60400Y17960
X58590Y19220
X57790Y20070
X53720Y20720
X50700Y19900
X50720Y18370
X51970Y17250
X52300Y16770
X53860Y17650
X47600Y16510
X46840Y14420
X44710Y12930
X44190Y12930
X57890Y6090
X72500Y11590
X75440Y12510
X75920Y10760
X76650Y8950
X76100Y15900
X76650Y16050
X82450Y16050
X82750Y17450
X50750Y52850
X51430Y52860
X52050Y51750
X50850Y50900
X48760Y52360
X53820Y50610
X52140Y46480
X52350Y45750
X51990Y43900
X53410Y41270
X52270Y39060
X52190Y37340
X50400Y39030
X54880Y37460
X55110Y35250
X57660Y35700
X59310Y34100
X60710Y32960
X61010Y33900
X61950Y34150
X63900Y33000
X64250Y33550
X64810Y32700
X65360Y29500
X63400Y27350
X59510Y29750
X57650Y33300
X61200Y38800
X61650Y39250
X64860Y36400
X63290Y46440
X61800Y47550
X61550Y48200
X61500Y48750
X61200Y49300
X59000Y51640
X59210Y46170
X53800Y56700
X70100Y54950
X70650Y54950
X73900Y50550
X75100Y50550
X78050Y36390
X60850Y35650
X59250Y41250
X57350Y43350
X64150Y41550
X69500Y46700
X73550Y43000
X73550Y42250
X73550Y41500
X74300Y41500
X75050Y41500
X75050Y42250
X74300Y42250
X74300Y43000
X75050Y43000
X62800Y52850
X51400Y54600
X48900Y54700
X42250Y91400
X30800Y101550
X26400Y100450
X25880Y101650
X24300Y101650
X23490Y101170
X22550Y102250
X22950Y103100
X21300Y102410
X20540Y103770
X21950Y105200
X22300Y105800
X23050Y106150
X23500Y105750
X25600Y105150
X23350Y107950
X21050Y108900
X20950Y109650
X20100Y109900
X22650Y110700
X23640Y111220
X20000Y107200
X14950Y110610
X14600Y109700
X13800Y110600
X12840Y108670
X14040Y107890
X14600Y108200
X14650Y106600
X9600Y102900
X14350Y99850
X16800Y97000
X17200Y97350
X17600Y97750
X16960Y95640
X17850Y94700
X17450Y94350
X17050Y93900
X18450Y91550
X20350Y95700
X21310Y98610
X20290Y99520
X23450Y97200
X23800Y96800
X24350Y96750
X25150Y98100
X24600Y98550
X26300Y97000
X26000Y91900
X13310Y93120
X12810Y94620
X28050Y108800
X29650Y106570
X29610Y110900
X20050Y115750
X20050Y117050
X19550Y117050
X17200Y118250
X16900Y118700
X16350Y115800
X13500Y115950
X13000Y115950
X13000Y114850
X13550Y114850
X13500Y113800
X12950Y113800
X10400Y111450
X16550Y112050
X18150Y112950
X18750Y113100
X12570Y118130
X12570Y119540
X12850Y120850
X9550Y118050
X20550Y120350
X29050Y120600
X42300Y120750
X76610Y88820
X77660Y90470
X59450Y114930
X53930Y121000
X53000Y105200
T02C0.023600
X28400Y12080
X29040Y12190
X27690Y13510
X27000Y12600
X27620Y12140
X29820Y15480
X31430Y17390
X33710Y16760
X36580Y19710
X35550Y20600
X34850Y20550
X34300Y20550
X33750Y20550
X34150Y21400
X34700Y21400
X35250Y21400
X35500Y22150
X34950Y22150
X34400Y22150
X33800Y22150
X31900Y21450
X31030Y22720
X29130Y20640
X28410Y21230
X27360Y22020
X26820Y22340
X27110Y24270
X26820Y25640
X26750Y28040
X27380Y28070
X29600Y29220
X27500Y30500
X26950Y30780
X26020Y30980
X28030Y32500
X29400Y32600
X27880Y34040
X27880Y35350
X29400Y35700
X29300Y36250
X29350Y34500
X31710Y31220
X33600Y31000
X33900Y31400
X34200Y31000
X34500Y31400
X34800Y31000
X35100Y31400
X35400Y31000
X35700Y31400
X36100Y31000
X36000Y31850
X35700Y32300
X35400Y31850
X35100Y32300
X34800Y31850
X34500Y32300
X34200Y31850
X33900Y32300
X33600Y31850
X33600Y32750
X34200Y32750
X34800Y32750
X35400Y32750
X36000Y32750
X34410Y29110
X34190Y28570
X33670Y29190
X33030Y29150
X31860Y27840
X31680Y27160
X32290Y27150
X32250Y25750
X31670Y25740
X33750Y26400
X34300Y26400
X34850Y26400
X35450Y26400
X35150Y25550
X34550Y25550
X33950Y25550
X33700Y24600
X34250Y24600
X34800Y24600
X35400Y24600
X28590Y18090
X25700Y18510
X25880Y16410
X22350Y20550
X20565Y22075
X20090Y21640
X19820Y20880
X19470Y20260
X18890Y19990
X17910Y20390
X17870Y21140
X15880Y22470
X16210Y23080
X16600Y24330
X17010Y25380
X17380Y26720
X18460Y27120
X18050Y28310
X19360Y28540
X19850Y28130
X20430Y26980
X21430Y25480
X22090Y24110
X22410Y23520
X23340Y23020
X22390Y22430
X18630Y24120
X14820Y26920
X14840Y27790
X13750Y27140
X13780Y26170
X13780Y25420
X11050Y25120
X9370Y26140
X7520Y28010
X8730Y29980
X10390Y30070
X9840Y32060
X9230Y32010
X9340Y34420
X8930Y35610
X7520Y34570
X12070Y33400
X12190Y34000
X12250Y35120
X13400Y34530
X13770Y33470
X14420Y34490
X14180Y35700
X14860Y36800
X14520Y37600
X16000Y35290
X15620Y34010
X15630Y33480
X15770Y32130
X15870Y30480
X15290Y30490
X14810Y29620
X13750Y29290
X14220Y30790
X17920Y31400
X20260Y31640
X21160Y32560
X20340Y33650
X18870Y33830
X18580Y35630
X17800Y35610
X21720Y35270
X22210Y34320
X23580Y35640
X26010Y34960
X22340Y30340
X15080Y20960
X14010Y20630
X14430Y19830
X13470Y19790
X12630Y19980
X12920Y21170
X12890Y21920
X12390Y18180
X14280Y18110
X11540Y15850
X11300Y16380
X10980Y15870
X11390Y15170
X10080Y13920
X10150Y13380
X11790Y13530
X13430Y14090
X13560Y15180
X12880Y15170
X14850Y13100
X17380Y12210
X17900Y12490
X18390Y12160
X16970Y9650
X13950Y8260
X12350Y8910
X12650Y7060
X9450Y5060
X16520Y6210
X17210Y5880
X20550Y14650
X20090Y15085
X20640Y17470
X20100Y17850
X10460Y17090
X7410Y21750
X7300Y23150
X27200Y76100
X24950Y76100
X24850Y76900
X22900Y76250
X22950Y77800
X21600Y78750
X20600Y72900
X19200Y71900
X17900Y71500
X17000Y70300
X16400Y70600
X16000Y71700
X15300Y71100
X13250Y70100
X13250Y69500
X12250Y69050
X12300Y67550
X12200Y66950
X13750Y66650
X14300Y67400
X13800Y67900
X14250Y68500
X14950Y68600
X16200Y68400
X14850Y66650
X15700Y65750
X16450Y66550
X18300Y67100
X18750Y66500
X18850Y65850
X21600Y63400
X22700Y63600
X22450Y66500
X22580Y67940
X22900Y68500
X23000Y69300
X22525Y70475
X21550Y70500
X24000Y72150
X24450Y71650
X23910Y68170
X28640Y69160
X28650Y70400
X29070Y73840
X18650Y69150
X12300Y75700
X12700Y77500
X9350Y77450
X8700Y77350
X8050Y77050
X6900Y78700
X11400Y73350
X10500Y67550
X10550Y65050
X8500Y63200
X19800Y56500
X21900Y57100
X22100Y56300
X22000Y58100
X26300Y60700
X26800Y62580
X27700Y62600
X28600Y62600
X29900Y57600
X30500Y57200
X28900Y57100
X36700Y46250
X82350Y16900
X80350Y17750
X79450Y16450
X78550Y15480
X77190Y15480
X77200Y14550
X78550Y14560
X80350Y14560
X80350Y15420
X81660Y15430
X81650Y14560
X79520Y13180
X78520Y12400
X76440Y13060
X75400Y14520
X74050Y14520
X74040Y15440
X73200Y15850
X73150Y16450
X71200Y17000
X70000Y16450
X70880Y15440
X70000Y15000
X70900Y14540
X72200Y14530
X72220Y15430
X75400Y15440
X76050Y16500
X77600Y17750
X74500Y17750
X71500Y17800
X69650Y18050
X66250Y18050
X63300Y18050
X61000Y17050
X60250Y16050
X63250Y16450
X63500Y14900
X66400Y15800
X67000Y16100
X66250Y16450
X72350Y12440
X73170Y11740
X69450Y10800
X69050Y12200
X66000Y10900
X65650Y12150
X62500Y12150
X62750Y10450
X63550Y8900
X60400Y8900
X57950Y10750
X57290Y6890
X59600Y4250
X60100Y4250
X60100Y3700
X59600Y3700
X59600Y3150
X60100Y3150
X60100Y2650
X59600Y2650
X63400Y3700
X63650Y3250
X66900Y8900
X70250Y8900
X73400Y8950
X79000Y10840
X81800Y10870
X82500Y10010
X79700Y8950
X81710Y12480
X56800Y17750
X55950Y18850
X55250Y18800
X54560Y18780
X54050Y18300
X56650Y19050
X56010Y16210
X55510Y15930
X54450Y16050
X53250Y15490
X48730Y13300
X47680Y15320
X47550Y15920
X45070Y14800
X46800Y17950
X47570Y17990
X68630Y40400
X68170Y39920
X68860Y41270
X62550Y38000
X62100Y38550
X62520Y37400
X58150Y36380
X57920Y37170
X62370Y42850
X62380Y44640
X60850Y50000
X61650Y52450
X60450Y53550
X60050Y53950
X59650Y53550
X59250Y53950
X58850Y53550
X58450Y53950
X58050Y53550
X58050Y54350
X58450Y54750
X58850Y54350
X59250Y54750
X59650Y54350
X60050Y54750
X60450Y54350
X60450Y55150
X59650Y55150
X58850Y55150
X58050Y55150
X57550Y51450
X53240Y49700
X53090Y48580
X53370Y48050
X50970Y44820
X47650Y57350
X52350Y58050
X52950Y59450
X67100Y56760
X72750Y53560
X72740Y53000
X72760Y52520
X72160Y49790
X73900Y49350
X74500Y49950
X75100Y49350
X71480Y47940
X73100Y56950
X66070Y32260
X60700Y30850
X60220Y30180
X27900Y120050
X27400Y120050
X26900Y120050
X26400Y120050
X25900Y120050
X25900Y119550
X26400Y119550
X26900Y119550
X27400Y119550
X27900Y119550
X27900Y119050
X27400Y119050
X26900Y119050
X26400Y119050
X25900Y119050
X25900Y118550
X26400Y118550
X26900Y118550
X27400Y118550
X27900Y118550
X27900Y118050
X27400Y118050
X26900Y118050
X26400Y118050
X25900Y118050
X25900Y117550
X26400Y117550
X26900Y117550
X27400Y117550
X27900Y117550
X27900Y117050
X27400Y117050
X26900Y117050
X26400Y117050
X25900Y117050
X25900Y116550
X26400Y116550
X26900Y116550
X27400Y116550
X27900Y116550
X27900Y116050
X27400Y116050
X26900Y116050
X26400Y116050
X25900Y116050
X25900Y115550
X26400Y115550
X26900Y115550
X27400Y115550
X27900Y115550
X27900Y115050
X27400Y115050
X26900Y115050
X26400Y115050
X25900Y115050
X25900Y114550
X26400Y114550
X26900Y114550
X27400Y114550
X27900Y114550
X27900Y114050
X27400Y114050
X26900Y114050
X26400Y114050
X25900Y114050
X25900Y113550
X26400Y113550
X26900Y113550
X27400Y113550
X27900Y113550
X27900Y113050
X27400Y113050
X26900Y113050
X26400Y113050
X25900Y113050
X25400Y113050
X24900Y113050
X24400Y113050
X23900Y113050
X23400Y113050
X23400Y113550
X23900Y113550
X24400Y113550
X24900Y113550
X25400Y113550
X25400Y114050
X24900Y114050
X24400Y114050
X23900Y114050
X23400Y114050
X22900Y114050
X22400Y114050
X21900Y114050
X21900Y113550
X22400Y113550
X22900Y113550
X22900Y113050
X22400Y113050
X21900Y113050
X20790Y113550
X18890Y113880
X18700Y114650
X18100Y111250
X17130Y110860
X12690Y111260
X11830Y111070
X11450Y109630
X6350Y110150
X12150Y102590
X10380Y100580
X8720Y97840
X12170Y97140
X12020Y94720
X12010Y93830
X11980Y92570
X9600Y91250
X7860Y93310
X19150Y101270
X19250Y102180
X23030Y100230
X26000Y106000
X27250Y108650
X26650Y110950
X25250Y111050
X25400Y114550
X24900Y114550
X24400Y114550
X24400Y115050
X24900Y115050
X25400Y115050
X25400Y115550
X24900Y115550
X24400Y115550
X24400Y116050
X24900Y116050
X25400Y116050
X25400Y116550
X24900Y116550
X24400Y116550
X24400Y117050
X24900Y117050
X25400Y117050
X25400Y117550
X24900Y117550
X24400Y117550
X23900Y117550
X23400Y117550
X23400Y117050
X23900Y117050
X23900Y118050
X24400Y118050
X24900Y118050
X25400Y118050
X25400Y118550
X24900Y118550
X24400Y118550
X23900Y118550
X23400Y118550
X23400Y119050
X23900Y119050
X24400Y119050
X24900Y119050
X25400Y119050
X25400Y119550
X24900Y119550
X24400Y119550
X23900Y119550
X23400Y119550
X23400Y120050
X23900Y120050
X24400Y120050
X24900Y120050
X25400Y120050
X23400Y118050
X22900Y118050
X22400Y118050
X21900Y118050
X21900Y117550
X22400Y117550
X22900Y117550
X22900Y117050
X22400Y117050
X21900Y117050
X21900Y118550
X22400Y118550
X22900Y118550
X22900Y119050
X22400Y119050
X21900Y119050
X21900Y119550
X22400Y119550
X22900Y119550
X22900Y120050
X22400Y120050
X21900Y120050
X17570Y119160
X10770Y119780
X10480Y118340
X14650Y105050
X82200Y65970
X72945Y71755
X70135Y71740
X70060Y72685
X69425Y70815
X66220Y71750
X64910Y73565
X66435Y73960
X67605Y75910
X65575Y79720
X65180Y81105
X66625Y81590
X67815Y85640
X68710Y87585
X69565Y88920
X67205Y89040
X63420Y88900
X61755Y89480
X61050Y89555
X60355Y89520
X59435Y89550
X58505Y89485
X57600Y89535
X56860Y88900
X56035Y88300
X58035Y86985
X58560Y86725
X59835Y86085
X60465Y86220
X60825Y87120
X61500Y86730
X63060Y86285
X61270Y82870
X59590Y81980
X58110Y82610
X57110Y83220
X57810Y84120
X58190Y83640
X56260Y82190
X56280Y81355
X56860Y80970
X58060Y81070
X58035Y79520
X58000Y78710
X56775Y77695
X55730Y79110
X55035Y80790
X55050Y81425
X53535Y79590
X50880Y80730
X50875Y81555
X50065Y82015
X49655Y82600
X51365Y83595
X52610Y83455
X52770Y82515
X54625Y84440
X55750Y86050
X53130Y86380
X51135Y88225
X50200Y90620
X49930Y92290
X53305Y90750
X55305Y90470
X53785Y92685
X57600Y94945
X58505Y94920
X59470Y95000
X60355Y94915
X61380Y94970
X62250Y94930
X63300Y94990
X65420Y92660
X65770Y92130
X70270Y94780
X74815Y94540
X77060Y93320
X78060Y93370
X80810Y93330
X82340Y95100
X81260Y91370
X78410Y90470
X78260Y89520
X79210Y88420
X76010Y91070
X74635Y79650
X61630Y78945
X58590Y76045
X60765Y73920
X61305Y73275
X57475Y71695
X56925Y72950
X54695Y71415
X53730Y71000
X52710Y70895
X52175Y71230
X53720Y72790
X54165Y73380
X51775Y72985
X48760Y71020
X48160Y71020
X45370Y71190
X45335Y72235
X46940Y76090
X46940Y76890
X45450Y76910
X45460Y76110
X46460Y78720
X47260Y78720
X47960Y78720
X47960Y79520
X47260Y79520
X46460Y79520
X46460Y80320
X47260Y80320
X47960Y80220
X47760Y81220
X46960Y81220
X46160Y81220
X45360Y81220
X45360Y82020
X46160Y82020
X46960Y82020
X47760Y82020
X47760Y82820
X46960Y82820
X46160Y82820
X45360Y82820
X45360Y83620
X46160Y83620
X46960Y83620
X47760Y83620
X47760Y84420
X46960Y84420
X46160Y84420
X45360Y84420
X45360Y85220
X45360Y85920
X46160Y85920
X46160Y85220
X46960Y85220
X46960Y85920
X47760Y85920
X47760Y85220
X47760Y86720
X46960Y86720
X46160Y86720
X45360Y86720
X45840Y88510
X49535Y85310
X45360Y80220
X45360Y79520
X45360Y78920
X50765Y78300
X44730Y94920
X73100Y104100
X71890Y105500
X76400Y104250
X70670Y110440
X67740Y110060
X66450Y108750
X62650Y109200
X62050Y109450
X62000Y107650
X61300Y107450
X62150Y105550
X63320Y105250
X66940Y105500
X59890Y102740
X58980Y102630
X58220Y102590
X56470Y102590
X53450Y103330
X51030Y102480
X50210Y102570
X49000Y103200
X48050Y103150
X48960Y106170
X51750Y106920
X51800Y107590
X52530Y107610
X53154Y107246
X53930Y108200
X54170Y106760
X55410Y106550
X56200Y105980
X58100Y105500
X58190Y107510
X58200Y109600
X58050Y110150
X57970Y110880
X59600Y112250
X59400Y112950
X61000Y112250
X61800Y112950
X62400Y112150
X64050Y112550
X62690Y114530
X59470Y116570
X57000Y115500
X55300Y115650
X54400Y115300
X52270Y117080
X53800Y117550
X54250Y119200
X55500Y119700
X57200Y119850
X57700Y119300
X58600Y120400
X57300Y122800
X55530Y122640
X54000Y122300
X52480Y123390
X51950Y124300
X51900Y125700
X54650Y124000
X56200Y125900
X61300Y122050
X64700Y122250
X64750Y121300
X66700Y123950
X66100Y124850
X68250Y123550
X68750Y124250
X70300Y123050
X71300Y122450
X72750Y122550
X72260Y127040
X70150Y127110
X66900Y115500
X67300Y112900
X55800Y112100
X55850Y111410
X55000Y111950
X54130Y112290
X51800Y113900
X49700Y114700
X48590Y109880
X51900Y120050
T03C0.031500
X48126Y94420
X50094Y94420
X66009Y88303
X66009Y87516
X66009Y86729
X66009Y85941
X66009Y85154
X66009Y84366
X66009Y83579
X66009Y82791
X66009Y82004
X66009Y81217
X74671Y81217
X74671Y82004
X74671Y82791
X74671Y83579
X74671Y84366
X74671Y85154
X74671Y85941
X74671Y86729
X74671Y87516
X74671Y88303
X68067Y93886
X67280Y93886
X66493Y93886
X66493Y94674
X67280Y94674
X68067Y94674
T04C0.041350
X13140Y25710
X13140Y26710
X13140Y27710
X13140Y28710
X13140Y29710
X11050Y29600
X11050Y30600
X11050Y31600
X11050Y32600
X11050Y33600
X8050Y33600
X8050Y32600
X8050Y31600
X8050Y30600
X8050Y29600
X16140Y29710
X16140Y28710
X16140Y27710
X16140Y26710
X16140Y25710
X8090Y17140
X7990Y16140
X8090Y15140
X7990Y14140
X8090Y13140
X9690Y12750
X9690Y10970
X8500Y8860
X8400Y7860
X8500Y6860
X8400Y5860
X12250Y10970
X12250Y12750
X35400Y53700
X35400Y52700
X35400Y51700
X35400Y50700
X35400Y49700
X8350Y65600
X8250Y64600
X8250Y66600
X8350Y67600
X8250Y68600
X35400Y54700
X47050Y2900
X48050Y3000
X46050Y3000
X49460Y14200
X50460Y14200
X51460Y14200
X52460Y14200
X52460Y15200
X51460Y15200
X50460Y15200
X49460Y15200
X44980Y15740
X43980Y15740
X43980Y16740
X44980Y16740
X44980Y17740
X43980Y17740
X43980Y18740
X44980Y18740
X47010Y20990
X48010Y21090
X49010Y20990
X50010Y21090
X46010Y21090
X54180Y24960
X54180Y26740
X56740Y26740
X56740Y24960
X57990Y28760
X58990Y28660
X59990Y28760
X60990Y28660
X61990Y28760
X53690Y34220
X52690Y34320
X51690Y34220
X50690Y34320
X26920Y94490
X26920Y92710
X29480Y92710
X29480Y94490
X24350Y92700
X23350Y92800
X22350Y92700
X21350Y92800
X20350Y92700
X31050Y106650
X31050Y107650
X31050Y108650
X31050Y109650
X76540Y94310
X77540Y94210
X78540Y94310
X79540Y94210
X56430Y75830
X55330Y75830
X54080Y75800
X52980Y75800
X51710Y75780
X50610Y75780
X51430Y94420
X52430Y94520
X53430Y94420
X54430Y94520
X55430Y94420
X50000Y121000
X50000Y122500
X51000Y125000
X50000Y126000
X49000Y125000
X53000Y125000
X54000Y126000
X55000Y125000
X57000Y125000
X58000Y126000
X59000Y125000
X62000Y125100
X63000Y126100
X64000Y125100
X65600Y126300
X66600Y126400
X67600Y126300
X68600Y126400
X69600Y126300
X62900Y120700
X61800Y120700
X56450Y122350
X53550Y121650
X53500Y123000
X49450Y118400
X48350Y118400
X48350Y115800
X49450Y115800
X62150Y114000
T05C0.047200
X11180Y26270
X7590Y26540
X8100Y35300
X9650Y35300
X32990Y19190
X35610Y12430
X67350Y4400
X68727Y4400
X70105Y4400
X71483Y4400
X72861Y4400
X74239Y4400
X75617Y4400
X76995Y4400
X50488Y93436
X47732Y93436
X65469Y94280
X69091Y94280
T06C0.057100
X23170Y25830
X23170Y29580
X23170Y30830
X23170Y32080
X23170Y34580
X18170Y34580
X18170Y25830
X54450Y7900
X50450Y7900
X44450Y7900
X44450Y9900
X44450Y11900
X52450Y11900
X65084Y46215
X66560Y46215
X68036Y46215
X68036Y52239
X68036Y54227
X68036Y56215
X65103Y56215
X65103Y54227
X65103Y52239
T07C0.063000
X17980Y37710
X19540Y37710
X21100Y37710
X22660Y37710
X22660Y39280
X21100Y39280
X19540Y39280
X17980Y39280
X16420Y39280
X16420Y37710
X16420Y40850
X17980Y40850
X19540Y40850
X21100Y40850
X22660Y40850
X27560Y40850
X29120Y40850
X30680Y40850
X30680Y39280
X29120Y39280
X27560Y39280
X27560Y37710
X29120Y37710
X30680Y37710
X36920Y37710
X38480Y37710
X40040Y37710
X40040Y39280
X38480Y39280
X36920Y39280
X36920Y40850
X38480Y40850
X40040Y40850
X10180Y40850
X8620Y40850
X7060Y40850
X5500Y40850
X3940Y40850
X3940Y39280
X5500Y39280
X7060Y39280
X8620Y39280
X10180Y39280
X10180Y37710
X8620Y37710
X7060Y37710
X5500Y37710
X3940Y37710
X8620Y79710
X7060Y79710
X5500Y79710
X3940Y79710
X3940Y81280
X5500Y81280
X7060Y81280
X8620Y81280
X10180Y81280
X10180Y79710
X10180Y82850
X8620Y82850
X7060Y82850
X5500Y82850
X3940Y82850
X16420Y82850
X17980Y82850
X19540Y82850
X21100Y82850
X22660Y82850
X22660Y81280
X21100Y81280
X19540Y81280
X17980Y81280
X16420Y81280
X16420Y79710
X17980Y79710
X19540Y79710
X21100Y79710
X22660Y79710
X27560Y79710
X29120Y79710
X30680Y79710
X30680Y81280
X29120Y81280
X27560Y81280
X27560Y82850
X29120Y82850
X30680Y82850
X36920Y82850
X38480Y82850
X40040Y82850
X40040Y81280
X38480Y81280
X36920Y81280
X36920Y79710
X38480Y79710
X40040Y79710
X63910Y58960
X62350Y58960
X60790Y58960
X59230Y58960
X57670Y58960
X57670Y60530
X59230Y60530
X60790Y60530
X62350Y60530
X63910Y60530
X63910Y62100
X62350Y62100
X60790Y62100
X59230Y62100
X57670Y62100
X51430Y62100
X49870Y62100
X48310Y62100
X46750Y62100
X45190Y62100
X45190Y60530
X46750Y60530
X48310Y60530
X49870Y60530
X51430Y60530
X51430Y58960
X49870Y58960
X48310Y58960
X46750Y58960
X45190Y58960
X68810Y58960
X70370Y58960
X71930Y58960
X71930Y60530
X70370Y60530
X68810Y60530
X68810Y62100
X70370Y62100
X71930Y62100
X78170Y62100
X79730Y62100
X81290Y62100
X81290Y60530
X79730Y60530
X78170Y60530
X78170Y58960
X79730Y58960
X81290Y58960
X7040Y111560
X7040Y113120
X7040Y114680
X5470Y114680
X5470Y113120
X5470Y111560
X3900Y111560
X3900Y113120
X3900Y114680
X3900Y120920
X3900Y122480
X3900Y124040
X5470Y124040
X5470Y122480
X5470Y120920
X7040Y120920
X7040Y122480
X7040Y124040
X7040Y106660
X7040Y105100
X7040Y103540
X7040Y101980
X7040Y100420
X5470Y100420
X5470Y101980
X5470Y103540
X5470Y105100
X5470Y106660
X3900Y106660
X3900Y105100
X3900Y103540
X3900Y101980
X3900Y100420
X3900Y94180
X3900Y92620
X3900Y91060
X3900Y89500
X3900Y87940
X5470Y87940
X5470Y89500
X5470Y91060
X5470Y92620
X5470Y94180
X7040Y94180
X7040Y92620
X7040Y91060
X7040Y89500
X7040Y87940
T08C0.110200
X44250Y3000
X44250Y21000
X82250Y21000
X82250Y3000
T09C0.126000
X56250Y4000
X53250Y4000
X50250Y4000
T10C0.140000
X13300Y39000
X33800Y39000
X33800Y81000
X13300Y81000
X75050Y60250
X54550Y60250
X5750Y97300
X5750Y117800
M30
