G75*
G70*
%OFA0B0*%
%FSLAX25Y25*%
%IPPOS*%
%LPD*%
%AMOC8*
5,1,8,0,0,1.08239X$1,22.5*
%
%ADD1711C,0.01200*%
%ADD251R,0.03000X0.03400*%
%ADD3172C,0.01000*%
%ADD3323C,0.00800*%
X0020000Y0020000D02*
G75*
%LPD*%
D3172*
X0052500Y0035240D02*
X0052500Y0312110D01*
X0052480Y0313190D01*
X0052420Y0314280D01*
X0052330Y0315360D01*
X0052190Y0316430D01*
X0052020Y0317510D01*
X0051810Y0318570D01*
X0051560Y0319630D01*
X0051270Y0320670D01*
X0050940Y0321710D01*
X0050580Y0322730D01*
X0050190Y0323740D01*
X0049750Y0324730D01*
X0049290Y0325710D01*
X0048780Y0326670D01*
X0048250Y0327620D01*
X0047680Y0328540D01*
X0047070Y0329440D01*
X0046440Y0330320D01*
X0045770Y0331180D01*
X0045080Y0332010D01*
X0044350Y0332820D01*
X0043600Y0333600D01*
X0042820Y0334350D01*
X0042010Y0335080D01*
X0041180Y0335770D01*
X0040320Y0336440D01*
X0039440Y0337070D01*
X0038540Y0337680D01*
X0037620Y0338250D01*
X0036670Y0338780D01*
X0035710Y0339290D01*
X0034730Y0339750D01*
X0033740Y0340190D01*
X0032730Y0340580D01*
X0031710Y0340940D01*
X0030670Y0341270D01*
X0029630Y0341560D01*
X0028570Y0341810D01*
X0027510Y0342020D01*
X0026430Y0342190D01*
X0025360Y0342330D01*
X0024280Y0342420D01*
X0023190Y0342480D01*
X0022110Y0342500D01*
X0020000Y0342500D01*
X0020000Y0427500D01*
X0420000Y0427500D01*
X0420000Y0342500D01*
X0417780Y0342500D01*
X0416700Y0342480D01*
X0415620Y0342420D01*
X0414540Y0342330D01*
X0413470Y0342190D01*
X0412400Y0342020D01*
X0411340Y0341810D01*
X0410290Y0341560D01*
X0409250Y0341270D01*
X0408220Y0340950D01*
X0407200Y0340590D01*
X0406190Y0340200D01*
X0405200Y0339760D01*
X0404230Y0339300D01*
X0403270Y0338800D01*
X0402330Y0338260D01*
X0401410Y0337690D01*
X0400510Y0337090D01*
X0399640Y0336460D01*
X0398780Y0335800D01*
X0397960Y0335100D01*
X0397150Y0334380D01*
X0396370Y0333630D01*
X0395620Y0332850D01*
X0394900Y0332050D01*
X0394210Y0331220D01*
X0393550Y0330370D01*
X0392910Y0329490D01*
X0392310Y0328590D01*
X0391750Y0327670D01*
X0391210Y0326730D01*
X0390710Y0325780D01*
X0390240Y0324800D01*
X0389810Y0323810D01*
X0389420Y0322800D01*
X0389060Y0321780D01*
X0388730Y0320750D01*
X0388450Y0319710D01*
X0388200Y0318660D01*
X0387990Y0317600D01*
X0387820Y0316530D01*
X0387680Y0315460D01*
X0387590Y0314380D01*
X0387530Y0313300D01*
X0387510Y0312220D01*
X0387510Y0312230D02*
X0387600Y0035320D01*
X0387590Y0035310D02*
X0387570Y0034540D01*
X0387510Y0033760D01*
X0387410Y0032990D01*
X0387280Y0032230D01*
X0387100Y0031470D01*
X0386890Y0030730D01*
X0386640Y0029990D01*
X0386350Y0029270D01*
X0386030Y0028570D01*
X0385670Y0027880D01*
X0385270Y0027210D01*
X0384850Y0026560D01*
X0384390Y0025940D01*
X0383900Y0025340D01*
X0383380Y0024760D01*
X0382830Y0024210D01*
X0382250Y0023690D01*
X0381650Y0023200D01*
X0381030Y0022740D01*
X0380380Y0022320D01*
X0379710Y0021920D01*
X0379020Y0021560D01*
X0378320Y0021240D01*
X0377600Y0020950D01*
X0376860Y0020700D01*
X0376120Y0020490D01*
X0375360Y0020310D01*
X0374600Y0020180D01*
X0373830Y0020080D01*
X0373050Y0020020D01*
X0372280Y0020000D01*
X0067740Y0020000D01*
X0066970Y0020020D01*
X0066200Y0020080D01*
X0065430Y0020180D01*
X0064670Y0020310D01*
X0063920Y0020490D01*
X0063180Y0020700D01*
X0062450Y0020950D01*
X0061730Y0021240D01*
X0061030Y0021560D01*
X0060340Y0021910D01*
X0059680Y0022310D01*
X0059030Y0022730D01*
X0058410Y0023190D01*
X0057810Y0023680D01*
X0057240Y0024190D01*
X0056690Y0024740D01*
X0056180Y0025310D01*
X0055690Y0025910D01*
X0055230Y0026530D01*
X0054810Y0027180D01*
X0054410Y0027840D01*
X0054060Y0028530D01*
X0053740Y0029230D01*
X0053450Y0029950D01*
X0053200Y0030680D01*
X0052990Y0031420D01*
X0052810Y0032170D01*
X0052680Y0032930D01*
X0052580Y0033700D01*
X0052520Y0034470D01*
X0052500Y0035240D01*
X0092040Y0059850D02*
X0094700Y0059850D01*
X0093370Y0059850D02*
X0093370Y0063850D01*
X0094700Y0062520D01*
X0096640Y0059850D02*
X0099310Y0059850D01*
X0097970Y0059850D02*
X0097970Y0063850D01*
X0099310Y0062520D01*
X0101240Y0063190D02*
X0101910Y0063850D01*
X0103240Y0063850D01*
X0103910Y0063190D01*
X0103910Y0060520D01*
X0103240Y0059850D01*
X0101910Y0059850D01*
X0101240Y0060520D01*
X0099680Y0065240D02*
X0097320Y0065240D01*
X0097320Y0069960D02*
X0099680Y0069960D01*
X0099680Y0076240D02*
X0097320Y0076240D01*
X0097320Y0080960D02*
X0099680Y0080960D01*
X0099370Y0082950D02*
X0099370Y0086950D01*
X0100710Y0085620D01*
X0102640Y0086290D02*
X0103310Y0086950D01*
X0104640Y0086950D01*
X0105310Y0086290D01*
X0105310Y0083620D01*
X0104640Y0082950D01*
X0103310Y0082950D01*
X0102640Y0083620D01*
X0100710Y0082950D02*
X0098040Y0082950D01*
X0096100Y0083620D02*
X0095440Y0082950D01*
X0094100Y0082950D01*
X0093440Y0083620D01*
X0093440Y0084280D01*
X0094100Y0084950D01*
X0094770Y0084950D01*
X0094100Y0084950D02*
X0093440Y0085620D01*
X0093440Y0086290D01*
X0094100Y0086950D01*
X0095440Y0086950D01*
X0096100Y0086290D01*
X0109350Y0076970D02*
X0109350Y0074300D01*
X0112020Y0076970D01*
X0112690Y0076970D01*
X0113350Y0076310D01*
X0113350Y0074970D01*
X0112690Y0074300D01*
X0112690Y0072370D02*
X0113350Y0071700D01*
X0113350Y0070370D01*
X0112690Y0069700D01*
X0110020Y0069700D01*
X0109350Y0070370D01*
X0109350Y0071700D01*
X0110020Y0072370D01*
X0115140Y0072420D02*
X0115140Y0074780D01*
X0119860Y0074780D02*
X0119860Y0072420D01*
X0149720Y0106340D02*
X0152080Y0106340D01*
X0152080Y0111060D02*
X0149720Y0111060D01*
X0149910Y0112450D02*
X0149910Y0116450D01*
X0151910Y0114450D01*
X0149240Y0114450D01*
X0147300Y0115120D02*
X0145970Y0116450D01*
X0145970Y0112450D01*
X0147300Y0112450D02*
X0144640Y0112450D01*
X0153840Y0112450D02*
X0155180Y0113780D01*
X0154510Y0113780D02*
X0156510Y0113780D01*
X0156510Y0112450D02*
X0156510Y0116450D01*
X0154510Y0116450D01*
X0153840Y0115790D01*
X0153840Y0114450D01*
X0154510Y0113780D01*
X0163900Y0145600D02*
X0163900Y0150600D01*
X0163500Y0154700D02*
X0164400Y0154700D01*
X0164300Y0158200D02*
X0163400Y0158200D01*
X0162520Y0161640D02*
X0164880Y0161640D01*
X0164880Y0166360D02*
X0162520Y0166360D01*
X0162230Y0173550D02*
X0164900Y0173550D01*
X0163560Y0173550D02*
X0163560Y0177550D01*
X0164900Y0176220D01*
X0166830Y0176890D02*
X0167500Y0177550D01*
X0168830Y0177550D01*
X0169500Y0176890D01*
X0169500Y0174220D01*
X0168830Y0173550D01*
X0167500Y0173550D01*
X0166830Y0174220D01*
X0160290Y0174220D02*
X0159620Y0173550D01*
X0158290Y0173550D01*
X0157620Y0174220D01*
X0157620Y0176890D01*
X0158290Y0177550D01*
X0159620Y0177550D01*
X0160290Y0176890D01*
X0160290Y0176220D01*
X0159620Y0175550D01*
X0157620Y0175550D01*
X0153320Y0173240D02*
X0143880Y0173240D01*
X0143880Y0167340D01*
X0141470Y0166000D02*
X0140800Y0166670D01*
X0140130Y0166670D01*
X0139460Y0166000D01*
X0139460Y0164660D01*
X0140130Y0164000D01*
X0140800Y0164000D01*
X0141470Y0164660D01*
X0141470Y0166000D01*
X0139460Y0166000D02*
X0138800Y0166670D01*
X0138130Y0166670D01*
X0137460Y0166000D01*
X0137460Y0164660D01*
X0138130Y0164000D01*
X0138800Y0164000D01*
X0139460Y0164660D01*
X0138130Y0162060D02*
X0137460Y0161390D01*
X0137460Y0160060D01*
X0138130Y0159390D01*
X0140800Y0159390D01*
X0141470Y0160060D01*
X0141470Y0161390D01*
X0140800Y0162060D01*
X0144600Y0161900D02*
X0152600Y0161900D01*
X0153320Y0159460D02*
X0153320Y0155130D01*
X0151750Y0153560D01*
X0145450Y0153560D01*
X0143880Y0155130D01*
X0143880Y0159460D01*
X0145970Y0150000D02*
X0145970Y0146000D01*
X0147300Y0146000D02*
X0144640Y0146000D01*
X0147300Y0148670D02*
X0145970Y0150000D01*
X0149240Y0149340D02*
X0149910Y0150000D01*
X0151240Y0150000D01*
X0151910Y0149340D01*
X0153840Y0149340D02*
X0154510Y0150000D01*
X0155840Y0150000D01*
X0156510Y0149340D01*
X0156510Y0146670D01*
X0155840Y0146000D01*
X0154510Y0146000D01*
X0153840Y0146670D01*
X0151910Y0146000D02*
X0149240Y0148670D01*
X0149240Y0149340D01*
X0149240Y0146000D02*
X0151910Y0146000D01*
X0153320Y0167340D02*
X0153320Y0173240D01*
X0171930Y0157240D02*
X0171930Y0156570D01*
X0172600Y0155900D01*
X0171930Y0155230D01*
X0171930Y0154570D01*
X0172600Y0153900D01*
X0173940Y0153900D01*
X0174600Y0154570D01*
X0173270Y0155900D02*
X0172600Y0155900D01*
X0171930Y0157240D02*
X0172600Y0157900D01*
X0173940Y0157900D01*
X0174600Y0157240D01*
X0176540Y0153900D02*
X0179210Y0153900D01*
X0179210Y0157900D01*
X0182740Y0161820D02*
X0182740Y0164180D01*
X0187460Y0164180D02*
X0187460Y0161820D01*
X0189450Y0162000D02*
X0189450Y0164670D01*
X0189450Y0163340D02*
X0193450Y0163340D01*
X0192120Y0162000D01*
X0192790Y0160070D02*
X0193450Y0159400D01*
X0193450Y0158070D01*
X0192790Y0157400D01*
X0190120Y0157400D01*
X0189450Y0158070D01*
X0189450Y0159400D01*
X0190120Y0160070D01*
X0190120Y0166610D02*
X0190780Y0166610D01*
X0191450Y0167280D01*
X0191450Y0168610D01*
X0190780Y0169280D01*
X0190120Y0169280D01*
X0189450Y0168610D01*
X0189450Y0167280D01*
X0190120Y0166610D01*
X0191450Y0167280D02*
X0192120Y0166610D01*
X0192790Y0166610D01*
X0193450Y0167280D01*
X0193450Y0168610D01*
X0192790Y0169280D01*
X0192120Y0169280D01*
X0191450Y0168610D01*
X0174300Y0195100D02*
X0174300Y0199100D01*
X0172300Y0199100D01*
X0171630Y0198440D01*
X0171630Y0197100D01*
X0172300Y0196430D01*
X0174300Y0196430D01*
X0172970Y0196430D02*
X0171630Y0195100D01*
X0169700Y0195100D02*
X0167030Y0197770D01*
X0167030Y0198440D01*
X0167690Y0199100D01*
X0169030Y0199100D01*
X0169700Y0198440D01*
X0168800Y0201400D02*
X0166500Y0201400D01*
X0164420Y0199100D02*
X0163090Y0199100D01*
X0162420Y0198440D01*
X0162420Y0197770D01*
X0163090Y0197100D01*
X0164420Y0197100D01*
X0165090Y0197770D01*
X0165090Y0198440D01*
X0164420Y0199100D01*
X0164420Y0197100D02*
X0165090Y0196430D01*
X0165090Y0195770D01*
X0164420Y0195100D01*
X0163090Y0195100D01*
X0162420Y0195770D01*
X0162420Y0196430D01*
X0163090Y0197100D01*
X0167030Y0195100D02*
X0169700Y0195100D01*
X0168700Y0206400D02*
X0166400Y0206400D01*
X0166400Y0209200D02*
X0168700Y0209200D01*
X0168600Y0214200D02*
X0166300Y0214200D01*
X0166130Y0216800D02*
X0168800Y0216800D01*
X0166130Y0219470D01*
X0166130Y0220140D01*
X0166790Y0220800D01*
X0168130Y0220800D01*
X0168800Y0220140D01*
X0170730Y0220140D02*
X0170730Y0218800D01*
X0171400Y0218130D01*
X0173400Y0218130D01*
X0173400Y0216800D02*
X0173400Y0220800D01*
X0171400Y0220800D01*
X0170730Y0220140D01*
X0172070Y0218130D02*
X0170730Y0216800D01*
X0164190Y0216800D02*
X0164190Y0217470D01*
X0161520Y0220140D01*
X0161520Y0220800D01*
X0164190Y0220800D01*
X0189690Y0230210D02*
X0201510Y0230210D01*
X0201510Y0231390D01*
X0189690Y0231390D01*
X0189690Y0230210D01*
X0204470Y0230530D02*
X0208470Y0230530D01*
X0204470Y0233200D01*
X0208470Y0233200D01*
X0207800Y0235130D02*
X0208470Y0235800D01*
X0208470Y0237140D01*
X0207800Y0237800D01*
X0207140Y0237800D01*
X0204470Y0235130D01*
X0204470Y0237800D01*
X0204470Y0228590D02*
X0205800Y0227260D01*
X0205800Y0227930D02*
X0205800Y0225930D01*
X0204470Y0225930D02*
X0208470Y0225930D01*
X0208470Y0227930D01*
X0207800Y0228590D01*
X0206470Y0228590D01*
X0205800Y0227930D01*
X0220870Y0250290D02*
X0220200Y0250960D01*
X0220200Y0252290D01*
X0220870Y0252960D01*
X0220870Y0254890D02*
X0220200Y0255560D01*
X0220200Y0256890D01*
X0220870Y0257560D01*
X0221530Y0257560D01*
X0222200Y0256890D01*
X0222200Y0256230D01*
X0222200Y0256890D02*
X0222870Y0257560D01*
X0223540Y0257560D01*
X0224200Y0256890D01*
X0224200Y0255560D01*
X0223540Y0254890D01*
X0223540Y0252960D02*
X0224200Y0252290D01*
X0224200Y0250960D01*
X0223540Y0250290D01*
X0220870Y0250290D01*
X0220870Y0259500D02*
X0220200Y0260160D01*
X0220200Y0261500D01*
X0220870Y0262170D01*
X0221530Y0262170D01*
X0222200Y0261500D01*
X0222200Y0260830D01*
X0222200Y0261500D02*
X0222870Y0262170D01*
X0223540Y0262170D01*
X0224200Y0261500D01*
X0224200Y0260160D01*
X0223540Y0259500D01*
X0225000Y0264600D02*
X0217500Y0264600D01*
X0216500Y0265600D01*
X0216500Y0269600D01*
X0213800Y0269080D02*
X0213140Y0268410D01*
X0213800Y0269080D02*
X0213800Y0270410D01*
X0213140Y0271080D01*
X0212470Y0271080D01*
X0209800Y0268410D01*
X0209800Y0271080D01*
X0209800Y0266470D02*
X0209800Y0263800D01*
X0212470Y0266470D01*
X0213140Y0266470D01*
X0213800Y0265810D01*
X0213800Y0264470D01*
X0213140Y0263800D01*
X0213140Y0261870D02*
X0211800Y0261870D01*
X0211130Y0261200D01*
X0211130Y0259200D01*
X0209800Y0259200D02*
X0213800Y0259200D01*
X0213800Y0261200D01*
X0213140Y0261870D01*
X0211130Y0260530D02*
X0209800Y0261870D01*
X0225000Y0264600D02*
X0226500Y0266100D01*
X0226500Y0269100D01*
X0227780Y0273800D02*
X0227780Y0286400D01*
X0226000Y0285100D02*
X0217000Y0285100D01*
X0217000Y0277600D01*
X0213700Y0278400D02*
X0213700Y0280700D01*
X0208700Y0280600D02*
X0208700Y0278300D01*
X0214910Y0290090D02*
X0218060Y0290090D01*
X0218060Y0292450D01*
X0218060Y0298750D02*
X0218060Y0301110D01*
X0214910Y0301110D01*
X0214500Y0302800D02*
X0211830Y0302800D01*
X0213160Y0302800D02*
X0213160Y0306800D01*
X0214500Y0305470D01*
X0216430Y0306140D02*
X0216430Y0303470D01*
X0217100Y0302800D01*
X0218430Y0302800D01*
X0219100Y0303470D01*
X0219100Y0306140D01*
X0218430Y0306800D01*
X0217100Y0306800D01*
X0216430Y0306140D01*
X0217770Y0304130D02*
X0216430Y0302800D01*
X0217300Y0308500D02*
X0215000Y0308500D01*
X0214900Y0313500D02*
X0217200Y0313500D01*
X0217210Y0316300D02*
X0214540Y0316300D01*
X0212600Y0316970D02*
X0209940Y0319640D01*
X0209940Y0316970D01*
X0210600Y0316300D01*
X0211940Y0316300D01*
X0212600Y0316970D01*
X0212600Y0319640D01*
X0211940Y0320300D01*
X0210600Y0320300D01*
X0209940Y0319640D01*
X0214540Y0319640D02*
X0215210Y0320300D01*
X0216540Y0320300D01*
X0217210Y0319640D01*
X0219140Y0319640D02*
X0219140Y0318300D01*
X0219810Y0317630D01*
X0221810Y0317630D01*
X0221810Y0316300D02*
X0221810Y0320300D01*
X0219810Y0320300D01*
X0219140Y0319640D01*
X0220480Y0317630D02*
X0219140Y0316300D01*
X0217210Y0316300D02*
X0214540Y0318970D01*
X0214540Y0319640D01*
X0216300Y0328400D02*
X0223800Y0328400D01*
X0216300Y0328400D02*
X0216300Y0337400D01*
X0223800Y0337400D01*
X0214900Y0339370D02*
X0214230Y0338700D01*
X0212900Y0338700D01*
X0212230Y0339370D01*
X0212230Y0342040D01*
X0212900Y0342700D01*
X0214230Y0342700D01*
X0214900Y0342040D01*
X0214900Y0339370D01*
X0213570Y0340030D02*
X0212230Y0338700D01*
X0210300Y0339370D02*
X0209630Y0338700D01*
X0208290Y0338700D01*
X0207630Y0339370D01*
X0207630Y0340030D01*
X0208290Y0340700D01*
X0210300Y0340700D01*
X0210300Y0339370D01*
X0210300Y0340700D02*
X0208960Y0342040D01*
X0207630Y0342700D01*
X0204990Y0349410D02*
X0204990Y0352560D01*
X0207350Y0352560D01*
X0201010Y0352660D02*
X0201010Y0349510D01*
X0201010Y0352660D02*
X0198650Y0352660D01*
X0192350Y0352660D02*
X0189990Y0352660D01*
X0189990Y0349510D01*
X0191930Y0342200D02*
X0191930Y0341540D01*
X0194600Y0338870D01*
X0194600Y0338200D01*
X0196530Y0338200D02*
X0197870Y0339530D01*
X0198530Y0338200D02*
X0199200Y0338870D01*
X0199200Y0341540D01*
X0198530Y0342200D01*
X0197200Y0342200D01*
X0196530Y0341540D01*
X0196530Y0338870D01*
X0197200Y0338200D01*
X0198530Y0338200D01*
X0199050Y0332760D02*
X0201410Y0332760D01*
X0201410Y0329610D01*
X0192750Y0332760D02*
X0190390Y0332760D01*
X0190390Y0329610D01*
X0187400Y0330640D02*
X0186730Y0331300D01*
X0185400Y0331300D01*
X0184730Y0330640D01*
X0184730Y0327970D01*
X0185400Y0327300D01*
X0186730Y0327300D01*
X0187400Y0327970D01*
X0187400Y0330640D01*
X0186070Y0328630D02*
X0184730Y0327300D01*
X0182800Y0327970D02*
X0182130Y0327300D01*
X0180790Y0327300D01*
X0180130Y0327970D01*
X0180130Y0329300D01*
X0180790Y0329970D01*
X0181460Y0329970D01*
X0182800Y0329300D01*
X0182800Y0331300D01*
X0180130Y0331300D01*
X0171400Y0339670D02*
X0170730Y0339000D01*
X0169400Y0339000D01*
X0168730Y0339670D01*
X0168730Y0342340D01*
X0169400Y0343000D01*
X0170730Y0343000D01*
X0171400Y0342340D01*
X0171400Y0339670D01*
X0170070Y0340330D02*
X0168730Y0339000D01*
X0166800Y0339670D02*
X0166130Y0339000D01*
X0164790Y0339000D01*
X0164130Y0339670D01*
X0164130Y0340330D01*
X0164790Y0341000D01*
X0165460Y0341000D01*
X0164790Y0341000D02*
X0164130Y0341670D01*
X0164130Y0342340D01*
X0164790Y0343000D01*
X0166130Y0343000D01*
X0166800Y0342340D01*
X0162390Y0350110D02*
X0162390Y0353260D01*
X0164750Y0353260D01*
X0171050Y0353260D02*
X0173410Y0353260D01*
X0173410Y0350110D01*
X0191930Y0342200D02*
X0194600Y0342200D01*
X0213650Y0352560D02*
X0216010Y0352560D01*
X0216010Y0349410D01*
X0232300Y0337900D02*
X0235300Y0337900D01*
X0236800Y0336400D01*
X0236800Y0328900D01*
X0235800Y0327900D01*
X0231800Y0327900D01*
X0238990Y0331600D02*
X0238990Y0335600D01*
X0240990Y0333600D01*
X0238320Y0333600D01*
X0242930Y0332930D02*
X0242930Y0332270D01*
X0243590Y0331600D01*
X0244930Y0331600D01*
X0245600Y0332270D01*
X0244260Y0333600D02*
X0243590Y0333600D01*
X0242930Y0332930D01*
X0243590Y0333600D02*
X0242930Y0334270D01*
X0242930Y0334940D01*
X0243590Y0335600D01*
X0244930Y0335600D01*
X0245600Y0334940D01*
X0247530Y0334940D02*
X0248200Y0335600D01*
X0249530Y0335600D01*
X0250200Y0334940D01*
X0250200Y0332270D01*
X0249530Y0331600D01*
X0248200Y0331600D01*
X0247530Y0332270D01*
X0209890Y0306140D02*
X0209890Y0303470D01*
X0207220Y0306140D01*
X0207220Y0303470D01*
X0207890Y0302800D01*
X0209220Y0302800D01*
X0209890Y0303470D01*
X0209890Y0306140D02*
X0209220Y0306800D01*
X0207890Y0306800D01*
X0207220Y0306140D01*
X0201410Y0309410D02*
X0201410Y0312560D01*
X0199050Y0312560D01*
X0192750Y0312560D02*
X0190390Y0312560D01*
X0190390Y0309410D01*
X0187800Y0308940D02*
X0187130Y0309600D01*
X0185800Y0309600D01*
X0185130Y0308940D01*
X0185130Y0306270D01*
X0185800Y0305600D01*
X0187130Y0305600D01*
X0187800Y0306270D01*
X0187800Y0308940D01*
X0186470Y0306930D02*
X0185130Y0305600D01*
X0183200Y0306270D02*
X0183200Y0306930D01*
X0182530Y0307600D01*
X0181190Y0307600D01*
X0180530Y0306930D01*
X0180530Y0306270D01*
X0181190Y0305600D01*
X0182530Y0305600D01*
X0183200Y0306270D01*
X0182530Y0307600D02*
X0183200Y0308270D01*
X0183200Y0308940D01*
X0182530Y0309600D01*
X0181190Y0309600D01*
X0180530Y0308940D01*
X0180530Y0308270D01*
X0181190Y0307600D01*
X0181970Y0298500D02*
X0181970Y0294500D01*
X0180640Y0294500D02*
X0183310Y0294500D01*
X0185240Y0294500D02*
X0186580Y0295830D01*
X0185910Y0295830D02*
X0187910Y0295830D01*
X0187910Y0294500D02*
X0187910Y0298500D01*
X0185910Y0298500D01*
X0185240Y0297840D01*
X0185240Y0296500D01*
X0185910Y0295830D01*
X0183310Y0297170D02*
X0181970Y0298500D01*
X0178700Y0298500D02*
X0176040Y0298500D01*
X0176040Y0297840D01*
X0178700Y0295170D01*
X0178700Y0294500D01*
X0194800Y0294200D02*
X0197100Y0294200D01*
X0197000Y0299200D02*
X0194700Y0299200D01*
X0226000Y0285100D02*
X0226000Y0277600D01*
X0238020Y0273800D02*
X0238020Y0286400D01*
X0240670Y0285960D02*
X0240670Y0284630D01*
X0241340Y0283960D01*
X0242670Y0283960D02*
X0243340Y0285290D01*
X0243340Y0285960D01*
X0242670Y0286630D01*
X0241340Y0286630D01*
X0240670Y0285960D01*
X0242670Y0283960D02*
X0244670Y0283960D01*
X0244670Y0286630D01*
X0244000Y0282020D02*
X0243340Y0282020D01*
X0242670Y0281360D01*
X0242000Y0282020D01*
X0241340Y0282020D01*
X0240670Y0281360D01*
X0240670Y0280020D01*
X0241340Y0279350D01*
X0242670Y0280690D02*
X0242670Y0281360D01*
X0244000Y0282020D02*
X0244670Y0281360D01*
X0244670Y0280020D01*
X0244000Y0279350D01*
X0244000Y0277420D02*
X0244670Y0276750D01*
X0244670Y0275420D01*
X0244000Y0274750D01*
X0241340Y0274750D01*
X0240670Y0275420D01*
X0240670Y0276750D01*
X0241340Y0277420D01*
X0154140Y0312030D02*
X0154140Y0316040D01*
X0152140Y0316040D01*
X0151470Y0315370D01*
X0151470Y0314030D01*
X0152140Y0313370D01*
X0154140Y0313370D01*
X0152800Y0313370D02*
X0151470Y0312030D01*
X0149530Y0312030D02*
X0149530Y0316040D01*
X0146860Y0312030D01*
X0146860Y0316040D01*
X0144930Y0314030D02*
X0142260Y0314030D01*
X0142930Y0312030D02*
X0142930Y0316040D01*
X0144930Y0314030D01*
X0138370Y0313500D02*
X0136370Y0313500D01*
X0135710Y0314170D01*
X0135710Y0315500D01*
X0136370Y0316170D01*
X0138370Y0316170D01*
X0138370Y0312170D01*
X0137040Y0313500D02*
X0135710Y0312170D01*
X0133770Y0312170D02*
X0133770Y0316170D01*
X0131100Y0312170D01*
X0131100Y0316170D01*
X0129170Y0315500D02*
X0128500Y0316170D01*
X0127160Y0316170D01*
X0126500Y0315500D01*
X0126500Y0314840D01*
X0127160Y0314170D01*
X0126500Y0313500D01*
X0126500Y0312830D01*
X0127160Y0312170D01*
X0128500Y0312170D01*
X0129170Y0312830D01*
X0127830Y0314170D02*
X0127160Y0314170D01*
X0126090Y0323110D02*
X0126090Y0324290D01*
X0137910Y0324290D01*
X0137910Y0323110D01*
X0126090Y0323110D01*
X0141190Y0323310D02*
X0141190Y0324490D01*
X0153010Y0324490D01*
X0153010Y0323310D01*
X0141190Y0323310D01*
X0104050Y0312910D02*
X0103390Y0313570D01*
X0102720Y0313570D01*
X0102050Y0312910D01*
X0101380Y0313570D01*
X0100720Y0313570D01*
X0100050Y0312910D01*
X0100050Y0311570D01*
X0100720Y0310900D01*
X0102050Y0312240D02*
X0102050Y0312910D01*
X0104050Y0312910D02*
X0104050Y0311570D01*
X0103390Y0310900D01*
X0103390Y0308970D02*
X0102050Y0308970D01*
X0101380Y0308300D01*
X0101380Y0306300D01*
X0100050Y0306300D02*
X0104050Y0306300D01*
X0104050Y0308300D01*
X0103390Y0308970D01*
X0101380Y0307630D02*
X0100050Y0308970D01*
X0098160Y0308520D02*
X0098160Y0310880D01*
X0093440Y0310880D02*
X0093440Y0308520D01*
X0093100Y0297600D02*
X0095100Y0295600D01*
X0092430Y0295600D01*
X0093100Y0293600D02*
X0093100Y0297600D01*
X0097040Y0296940D02*
X0097710Y0297600D01*
X0099710Y0297600D01*
X0099710Y0293600D01*
X0097710Y0293600D01*
X0097040Y0294270D01*
X0097040Y0296940D01*
X0098760Y0290440D02*
X0098760Y0282560D01*
X0105460Y0281380D02*
X0105460Y0280790D01*
X0087340Y0280790D01*
X0087340Y0281380D01*
X0091030Y0275620D02*
X0095360Y0275620D01*
X0097800Y0274900D02*
X0097800Y0266900D01*
X0095360Y0266180D02*
X0091030Y0266180D01*
X0089460Y0267750D01*
X0089460Y0274050D01*
X0091030Y0275620D01*
X0087160Y0268380D02*
X0087160Y0266020D01*
X0082440Y0266020D02*
X0082440Y0268380D01*
X0081330Y0260050D02*
X0084000Y0260050D01*
X0084000Y0258050D01*
X0082660Y0258720D01*
X0081990Y0258720D01*
X0081330Y0258050D01*
X0081330Y0256720D01*
X0081990Y0256050D01*
X0083330Y0256050D01*
X0084000Y0256720D01*
X0085930Y0256720D02*
X0086600Y0256050D01*
X0087930Y0256050D01*
X0088600Y0256720D01*
X0088600Y0259390D01*
X0087930Y0260050D01*
X0086600Y0260050D01*
X0085930Y0259390D01*
X0085800Y0252870D02*
X0085800Y0250200D01*
X0085800Y0251540D02*
X0089800Y0251540D01*
X0088470Y0250200D01*
X0089140Y0248270D02*
X0086470Y0248270D01*
X0085800Y0247600D01*
X0085800Y0246270D01*
X0086470Y0245600D01*
X0089140Y0245600D01*
X0089800Y0246270D01*
X0089800Y0247600D01*
X0089140Y0248270D01*
X0087130Y0246930D02*
X0085800Y0248270D01*
X0083510Y0248610D02*
X0083510Y0251760D01*
X0081150Y0251760D01*
X0074850Y0251760D02*
X0072490Y0251760D01*
X0072490Y0248610D01*
X0076820Y0240860D02*
X0079180Y0240860D01*
X0079180Y0236140D02*
X0076820Y0236140D01*
X0079040Y0228880D02*
X0079040Y0226520D01*
X0083760Y0226520D02*
X0083760Y0228880D01*
X0087300Y0232350D02*
X0087300Y0236350D01*
X0089300Y0234350D01*
X0086630Y0234350D01*
X0091240Y0234350D02*
X0091910Y0233680D01*
X0093910Y0233680D01*
X0093910Y0232350D02*
X0093910Y0236350D01*
X0091910Y0236350D01*
X0091240Y0235690D01*
X0091240Y0234350D01*
X0092570Y0233680D02*
X0091240Y0232350D01*
X0083090Y0220470D02*
X0082420Y0220470D01*
X0079750Y0217800D01*
X0079750Y0220470D01*
X0083090Y0220470D02*
X0083750Y0219810D01*
X0083750Y0218470D01*
X0083090Y0217800D01*
X0083090Y0215870D02*
X0081750Y0215870D01*
X0081080Y0215200D01*
X0081080Y0213200D01*
X0079750Y0213200D02*
X0083750Y0213200D01*
X0083750Y0215200D01*
X0083090Y0215870D01*
X0081080Y0214530D02*
X0079750Y0215870D01*
X0090640Y0167080D02*
X0090640Y0164720D01*
X0092020Y0159370D02*
X0091350Y0158700D01*
X0091350Y0157360D01*
X0092020Y0156700D01*
X0094690Y0159370D01*
X0092020Y0159370D01*
X0094690Y0159370D02*
X0095350Y0158700D01*
X0095350Y0157360D01*
X0094690Y0156700D01*
X0092020Y0156700D01*
X0093350Y0154760D02*
X0093350Y0152090D01*
X0095350Y0154090D01*
X0091350Y0154090D01*
X0091350Y0150160D02*
X0092680Y0148820D01*
X0092680Y0149490D02*
X0092680Y0147490D01*
X0091350Y0147490D02*
X0095350Y0147490D01*
X0095350Y0149490D01*
X0094690Y0150160D01*
X0093350Y0150160D01*
X0092680Y0149490D01*
X0095360Y0164720D02*
X0095360Y0167080D01*
X0103240Y0266180D02*
X0109140Y0266180D01*
X0109140Y0275620D01*
X0103240Y0275620D01*
X0110930Y0271360D02*
X0113600Y0271360D01*
X0111600Y0273370D01*
X0111600Y0269360D01*
X0115540Y0270030D02*
X0116210Y0269360D01*
X0117540Y0269360D01*
X0118210Y0270030D01*
X0118210Y0272700D01*
X0117540Y0273370D01*
X0116210Y0273370D01*
X0115540Y0272700D01*
X0105460Y0291620D02*
X0105460Y0292210D01*
X0087340Y0292210D01*
X0087340Y0291620D01*
X0087140Y0327820D02*
X0087140Y0330180D01*
X0091860Y0330180D02*
X0091860Y0327820D01*
X0096640Y0328120D02*
X0096640Y0330480D01*
X0101360Y0330480D02*
X0101360Y0328120D01*
X0100950Y0335900D02*
X0096950Y0335900D01*
X0098280Y0335900D02*
X0098280Y0337900D01*
X0098950Y0338570D01*
X0100290Y0338570D01*
X0100950Y0337900D01*
X0100950Y0335900D01*
X0098280Y0337230D02*
X0096950Y0338570D01*
X0096950Y0340500D02*
X0097620Y0340500D01*
X0100290Y0343170D01*
X0100950Y0343170D01*
X0100950Y0340500D01*
X0090150Y0341640D02*
X0086150Y0341640D01*
X0086150Y0342970D02*
X0086150Y0340300D01*
X0086150Y0338370D02*
X0087480Y0337030D01*
X0087480Y0337700D02*
X0087480Y0335700D01*
X0086150Y0335700D02*
X0090150Y0335700D01*
X0090150Y0337700D01*
X0089490Y0338370D01*
X0088150Y0338370D01*
X0087480Y0337700D01*
X0088820Y0340300D02*
X0090150Y0341640D01*
X0315900Y0384700D02*
X0315900Y0387000D01*
X0320900Y0387100D02*
X0320900Y0384800D01*
X0320400Y0394690D02*
X0316400Y0394690D01*
X0317730Y0394690D02*
X0317730Y0396690D01*
X0318400Y0397360D01*
X0319740Y0397360D01*
X0320400Y0396690D01*
X0320400Y0394690D01*
X0317730Y0396020D02*
X0316400Y0397360D01*
X0317070Y0399290D02*
X0316400Y0399960D01*
X0316400Y0401290D01*
X0317070Y0401960D01*
X0317730Y0401960D01*
X0318400Y0401290D01*
X0318400Y0400630D01*
X0318400Y0401290D02*
X0319070Y0401960D01*
X0319740Y0401960D01*
X0320400Y0401290D01*
X0320400Y0399960D01*
X0319740Y0399290D01*
X0319740Y0403900D02*
X0320400Y0404560D01*
X0320400Y0405900D01*
X0319740Y0406570D01*
X0319070Y0406570D01*
X0316400Y0403900D01*
X0316400Y0406570D01*
D3172*
X0019500Y0019500D02*
X0019500Y0428000D01*
X0420500Y0428000D01*
X0420500Y0019500D01*
X0019500Y0019500D01*
X0020000Y0440000D02*
G75*
%LPD*%
D3323*
X0132470Y0655750D02*
X0134470Y0655750D01*
X0132470Y0657750D01*
X0132470Y0658250D01*
X0132970Y0658750D01*
X0133970Y0658750D01*
X0134470Y0658250D01*
X0135690Y0658250D02*
X0136190Y0658750D01*
X0137200Y0658750D01*
X0137700Y0658250D01*
X0137700Y0656250D01*
X0137200Y0655750D01*
X0136190Y0655750D01*
X0135690Y0656250D01*
X0170470Y0675750D02*
X0170970Y0675250D01*
X0171970Y0675250D01*
X0172470Y0675750D01*
X0173690Y0675750D02*
X0174190Y0675250D01*
X0175200Y0675250D01*
X0175700Y0675750D01*
X0175700Y0677750D01*
X0175200Y0678250D01*
X0174190Y0678250D01*
X0173690Y0677750D01*
X0172470Y0677750D02*
X0171970Y0678250D01*
X0170970Y0678250D01*
X0170470Y0677750D01*
X0170470Y0677250D01*
X0170970Y0676750D01*
X0170470Y0676250D01*
X0170470Y0675750D01*
X0170970Y0676750D02*
X0171470Y0676750D01*
X0128800Y0720250D02*
X0127790Y0720250D01*
X0127290Y0720750D01*
X0126070Y0720750D02*
X0125570Y0720250D01*
X0124570Y0720250D01*
X0124070Y0720750D01*
X0124070Y0722750D01*
X0124570Y0723250D01*
X0125570Y0723250D01*
X0126070Y0722750D01*
X0126070Y0722250D01*
X0125570Y0721750D01*
X0124070Y0721750D01*
X0127290Y0722750D02*
X0127790Y0723250D01*
X0128800Y0723250D01*
X0129300Y0722750D01*
X0129300Y0720750D01*
X0128800Y0720250D01*
X0111250Y0714750D02*
X0111250Y0712750D01*
X0110750Y0712250D01*
X0109750Y0712250D01*
X0109250Y0712750D01*
X0108030Y0712750D02*
X0108030Y0713250D01*
X0107530Y0713750D01*
X0106530Y0713750D01*
X0106030Y0713250D01*
X0106030Y0712750D01*
X0106530Y0712250D01*
X0107530Y0712250D01*
X0108030Y0712750D01*
X0107530Y0713750D02*
X0108030Y0714250D01*
X0108030Y0714750D01*
X0107530Y0715250D01*
X0106530Y0715250D01*
X0106030Y0714750D01*
X0106030Y0714250D01*
X0106530Y0713750D01*
X0109250Y0714750D02*
X0109750Y0715250D01*
X0110750Y0715250D01*
X0111250Y0714750D01*
X0110690Y0707250D02*
X0110690Y0704250D01*
X0109690Y0704250D02*
X0111700Y0704250D01*
X0112920Y0704250D02*
X0113920Y0705250D01*
X0113420Y0705250D02*
X0114920Y0705250D01*
X0114920Y0704250D02*
X0114920Y0707250D01*
X0113420Y0707250D01*
X0112920Y0706750D01*
X0112920Y0705750D01*
X0113420Y0705250D01*
X0111700Y0706250D02*
X0110690Y0707250D01*
X0108470Y0707250D02*
X0108470Y0705750D01*
X0107470Y0706250D01*
X0106970Y0706250D01*
X0106470Y0705750D01*
X0106470Y0704750D01*
X0106970Y0704250D01*
X0107970Y0704250D01*
X0108470Y0704750D01*
X0108470Y0707250D02*
X0106470Y0707250D01*
X0088750Y0727750D02*
X0086250Y0727750D01*
X0085750Y0728250D01*
X0085750Y0729250D01*
X0086250Y0729750D01*
X0088750Y0729750D01*
X0088750Y0730970D02*
X0087250Y0730970D01*
X0087750Y0731970D01*
X0087750Y0732470D01*
X0087250Y0732970D01*
X0086250Y0732970D01*
X0085750Y0732470D01*
X0085750Y0731470D01*
X0086250Y0730970D01*
X0088750Y0730970D02*
X0088750Y0732970D01*
X0093250Y0746750D02*
X0096250Y0746750D01*
X0096250Y0748250D01*
X0095750Y0748750D01*
X0094750Y0748750D01*
X0094250Y0748250D01*
X0094250Y0746750D01*
X0094250Y0747750D02*
X0093250Y0748750D01*
X0093250Y0749970D02*
X0093250Y0751970D01*
X0093250Y0750970D02*
X0096250Y0750970D01*
X0095250Y0749970D01*
X0095750Y0753200D02*
X0096250Y0753700D01*
X0096250Y0754700D01*
X0095750Y0755200D01*
X0095250Y0755200D01*
X0093250Y0753200D01*
X0093250Y0755200D01*
X0112470Y0742250D02*
X0113470Y0741750D01*
X0114470Y0740750D01*
X0112970Y0740750D01*
X0112470Y0740250D01*
X0112470Y0739750D01*
X0112970Y0739250D01*
X0113970Y0739250D01*
X0114470Y0739750D01*
X0114470Y0740750D01*
X0115690Y0739750D02*
X0116190Y0739250D01*
X0117200Y0739250D01*
X0117700Y0739750D01*
X0117700Y0741750D01*
X0117200Y0742250D01*
X0116190Y0742250D01*
X0115690Y0741750D01*
X0099950Y0661300D02*
X0098450Y0661300D01*
X0097950Y0660800D01*
X0097950Y0659800D01*
X0098450Y0659300D01*
X0099950Y0659300D01*
X0099950Y0658300D02*
X0099950Y0661300D01*
X0098950Y0659300D02*
X0097950Y0658300D01*
X0096730Y0658800D02*
X0096730Y0659300D01*
X0096230Y0659800D01*
X0095230Y0659800D01*
X0094730Y0659300D01*
X0094730Y0658800D01*
X0095230Y0658300D01*
X0096230Y0658300D01*
X0096730Y0658800D01*
X0096230Y0659800D02*
X0096730Y0660300D01*
X0096730Y0660800D01*
X0096230Y0661300D01*
X0095230Y0661300D01*
X0094730Y0660800D01*
X0094730Y0660300D01*
X0095230Y0659800D01*
X0245800Y0640150D02*
X0247800Y0640150D01*
X0246800Y0640150D02*
X0246800Y0643150D01*
X0247800Y0642150D01*
X0249030Y0640150D02*
X0251030Y0640150D01*
X0250030Y0640150D02*
X0250030Y0643150D01*
X0251030Y0642150D01*
X0252250Y0642650D02*
X0252750Y0643150D01*
X0253750Y0643150D01*
X0254250Y0642650D01*
X0254250Y0640650D01*
X0253750Y0640150D01*
X0252750Y0640150D01*
X0252250Y0640650D01*
X0253900Y0616750D02*
X0253400Y0616250D01*
X0255400Y0614250D01*
X0254900Y0613750D01*
X0253900Y0613750D01*
X0253400Y0614250D01*
X0253400Y0616250D01*
X0253900Y0616750D02*
X0254900Y0616750D01*
X0255400Y0616250D01*
X0255400Y0614250D01*
X0256630Y0613750D02*
X0258630Y0613750D01*
X0257630Y0613750D02*
X0257630Y0616750D01*
X0258630Y0615750D01*
X0259850Y0616250D02*
X0260350Y0616750D01*
X0261350Y0616750D01*
X0261850Y0616250D01*
X0261850Y0614250D01*
X0261350Y0613750D01*
X0260350Y0613750D01*
X0259850Y0614250D01*
X0311000Y0587530D02*
X0314000Y0587530D01*
X0312500Y0586030D01*
X0312500Y0588030D01*
X0311000Y0584810D02*
X0311000Y0582800D01*
X0311000Y0583810D02*
X0314000Y0583810D01*
X0313000Y0582800D01*
X0312500Y0581580D02*
X0312000Y0581080D01*
X0312000Y0579580D01*
X0311000Y0579580D02*
X0314000Y0579580D01*
X0314000Y0581080D01*
X0313500Y0581580D01*
X0312500Y0581580D01*
X0312000Y0580580D02*
X0311000Y0581580D01*
X0318650Y0803680D02*
X0321650Y0803680D01*
X0321650Y0805180D01*
X0321150Y0805680D01*
X0320150Y0805680D01*
X0319650Y0805180D01*
X0319650Y0803680D01*
X0319650Y0804680D02*
X0318650Y0805680D01*
X0319150Y0806900D02*
X0318650Y0807400D01*
X0318650Y0808410D01*
X0319150Y0808910D01*
X0319650Y0808910D01*
X0320150Y0808410D01*
X0320150Y0807910D01*
X0320150Y0808410D02*
X0320650Y0808910D01*
X0321150Y0808910D01*
X0321650Y0808410D01*
X0321650Y0807400D01*
X0321150Y0806900D01*
X0321150Y0810130D02*
X0321650Y0810630D01*
X0321650Y0811630D01*
X0321150Y0812130D01*
X0320650Y0812130D01*
X0318650Y0810130D01*
X0318650Y0812130D01*
D3172*
X0052500Y0732110D02*
X0052500Y0455240D01*
X0052520Y0454470D01*
X0052580Y0453700D01*
X0052680Y0452930D01*
X0052810Y0452170D01*
X0052990Y0451420D01*
X0053200Y0450680D01*
X0053450Y0449950D01*
X0053740Y0449230D01*
X0054060Y0448530D01*
X0054410Y0447840D01*
X0054810Y0447180D01*
X0055230Y0446530D01*
X0055690Y0445910D01*
X0056180Y0445310D01*
X0056690Y0444740D01*
X0057240Y0444190D01*
X0057810Y0443680D01*
X0058410Y0443190D01*
X0059030Y0442730D01*
X0059680Y0442310D01*
X0060340Y0441910D01*
X0061030Y0441560D01*
X0061730Y0441240D01*
X0062450Y0440950D01*
X0063180Y0440700D01*
X0063920Y0440490D01*
X0064670Y0440310D01*
X0065430Y0440180D01*
X0066200Y0440080D01*
X0066970Y0440020D01*
X0067740Y0440000D01*
X0372280Y0440000D01*
X0373050Y0440020D01*
X0373830Y0440080D01*
X0374600Y0440180D01*
X0375360Y0440310D01*
X0376120Y0440490D01*
X0376860Y0440700D01*
X0377600Y0440950D01*
X0378320Y0441240D01*
X0379020Y0441560D01*
X0379710Y0441920D01*
X0380380Y0442320D01*
X0381030Y0442740D01*
X0381650Y0443200D01*
X0382250Y0443690D01*
X0382830Y0444210D01*
X0383380Y0444760D01*
X0383900Y0445340D01*
X0384390Y0445940D01*
X0384850Y0446560D01*
X0385270Y0447210D01*
X0385670Y0447880D01*
X0386030Y0448570D01*
X0386350Y0449270D01*
X0386640Y0449990D01*
X0386890Y0450730D01*
X0387100Y0451470D01*
X0387280Y0452230D01*
X0387410Y0452990D01*
X0387510Y0453760D01*
X0387570Y0454540D01*
X0387590Y0455310D01*
X0387600Y0455320D02*
X0387510Y0732230D01*
X0387510Y0732220D02*
X0387530Y0733300D01*
X0387590Y0734380D01*
X0387680Y0735460D01*
X0387820Y0736530D01*
X0387990Y0737600D01*
X0388200Y0738660D01*
X0388450Y0739710D01*
X0388730Y0740750D01*
X0389060Y0741780D01*
X0389420Y0742800D01*
X0389810Y0743810D01*
X0390240Y0744800D01*
X0390710Y0745780D01*
X0391210Y0746730D01*
X0391750Y0747670D01*
X0392310Y0748590D01*
X0392910Y0749490D01*
X0393550Y0750370D01*
X0394210Y0751220D01*
X0394900Y0752050D01*
X0395620Y0752850D01*
X0396370Y0753630D01*
X0397150Y0754380D01*
X0397960Y0755100D01*
X0398780Y0755800D01*
X0399640Y0756460D01*
X0400510Y0757090D01*
X0401410Y0757690D01*
X0402330Y0758260D01*
X0403270Y0758800D01*
X0404230Y0759300D01*
X0405200Y0759760D01*
X0406190Y0760200D01*
X0407200Y0760590D01*
X0408220Y0760950D01*
X0409250Y0761270D01*
X0410290Y0761560D01*
X0411340Y0761810D01*
X0412400Y0762020D01*
X0413470Y0762190D01*
X0414540Y0762330D01*
X0415620Y0762420D01*
X0416700Y0762480D01*
X0417780Y0762500D01*
X0420000Y0762500D01*
X0420000Y0847500D01*
X0020000Y0847500D01*
X0020000Y0762500D01*
X0022110Y0762500D01*
X0023190Y0762480D01*
X0024280Y0762420D01*
X0025360Y0762330D01*
X0026430Y0762190D01*
X0027510Y0762020D01*
X0028570Y0761810D01*
X0029630Y0761560D01*
X0030670Y0761270D01*
X0031710Y0760940D01*
X0032730Y0760580D01*
X0033740Y0760190D01*
X0034730Y0759750D01*
X0035710Y0759290D01*
X0036670Y0758780D01*
X0037620Y0758250D01*
X0038540Y0757680D01*
X0039440Y0757070D01*
X0040320Y0756440D01*
X0041180Y0755770D01*
X0042010Y0755080D01*
X0042820Y0754350D01*
X0043600Y0753600D01*
X0044350Y0752820D01*
X0045080Y0752010D01*
X0045770Y0751180D01*
X0046440Y0750320D01*
X0047070Y0749440D01*
X0047680Y0748540D01*
X0048250Y0747620D01*
X0048780Y0746670D01*
X0049290Y0745710D01*
X0049750Y0744730D01*
X0050190Y0743740D01*
X0050580Y0742730D01*
X0050940Y0741710D01*
X0051270Y0740670D01*
X0051560Y0739630D01*
X0051810Y0738570D01*
X0052020Y0737510D01*
X0052190Y0736430D01*
X0052330Y0735360D01*
X0052420Y0734280D01*
X0052480Y0733190D01*
X0052500Y0732110D01*
X0091400Y0732690D02*
X0091400Y0729310D01*
X0095940Y0727810D02*
X0098060Y0727810D01*
X0102600Y0729310D02*
X0102600Y0732690D01*
X0115000Y0744000D02*
X0115000Y0750000D01*
X0104000Y0750000D02*
X0104000Y0752000D01*
X0099000Y0752000D02*
X0099000Y0750000D01*
X0097000Y0717000D02*
X0097000Y0711000D01*
X0097500Y0708000D02*
X0095500Y0708000D01*
X0095500Y0703000D02*
X0097500Y0703000D01*
X0095140Y0652680D02*
X0095140Y0650320D01*
X0099860Y0650320D02*
X0099860Y0652680D01*
X0146500Y0654500D02*
X0146500Y0660500D01*
X0161000Y0673000D02*
X0161000Y0679000D01*
X0243600Y0638600D02*
X0243600Y0629600D01*
X0251100Y0629600D01*
X0259100Y0629100D02*
X0263100Y0629100D01*
X0264100Y0630100D01*
X0264100Y0637600D01*
X0262600Y0639100D01*
X0259600Y0639100D01*
X0251100Y0638600D02*
X0243600Y0638600D01*
X0303640Y0583680D02*
X0303640Y0581320D01*
X0308360Y0581320D02*
X0308360Y0583680D01*
X0315000Y0820500D02*
X0315000Y0822500D01*
X0321500Y0822500D02*
X0321500Y0820500D01*
D3172*
X0019500Y0439500D02*
X0019500Y0848000D01*
X0420500Y0848000D01*
X0420500Y0439500D01*
X0019500Y0439500D01*
X0432500Y0020000D02*
G75*
%LPD*%
D3323*
X0567020Y0059350D02*
X0569020Y0059350D01*
X0568020Y0059350D02*
X0568020Y0062360D01*
X0569020Y0061350D01*
X0570240Y0062360D02*
X0570240Y0059850D01*
X0570740Y0059350D01*
X0571740Y0059350D01*
X0572250Y0059850D01*
X0572250Y0062360D01*
X0590900Y0059930D02*
X0590900Y0058930D01*
X0591400Y0058430D01*
X0592400Y0058930D02*
X0592400Y0060430D01*
X0593400Y0060430D02*
X0593900Y0059930D01*
X0593900Y0058930D01*
X0593400Y0058430D01*
X0592900Y0058430D01*
X0592400Y0058930D01*
X0591400Y0060430D02*
X0593400Y0060430D01*
X0591400Y0060430D02*
X0590900Y0059930D01*
X0591400Y0057210D02*
X0590900Y0056710D01*
X0590900Y0055710D01*
X0591400Y0055210D01*
X0593400Y0055210D01*
X0593900Y0055710D01*
X0593900Y0056710D01*
X0593400Y0057210D01*
X0605620Y0052460D02*
X0605620Y0051950D01*
X0606120Y0051450D01*
X0605620Y0050950D01*
X0605620Y0050450D01*
X0606120Y0049950D01*
X0607120Y0049950D01*
X0607620Y0050450D01*
X0608840Y0050450D02*
X0608840Y0052960D01*
X0607620Y0052460D02*
X0607120Y0052960D01*
X0606120Y0052960D01*
X0605620Y0052460D01*
X0606120Y0051450D02*
X0606620Y0051450D01*
X0608840Y0050450D02*
X0609340Y0049950D01*
X0610340Y0049950D01*
X0610850Y0050450D01*
X0610850Y0052960D01*
X0585240Y0093500D02*
X0584240Y0093500D01*
X0583740Y0094000D01*
X0582520Y0094000D02*
X0582520Y0093500D01*
X0582520Y0094000D02*
X0580520Y0096010D01*
X0580520Y0096510D01*
X0582520Y0096510D01*
X0583740Y0096010D02*
X0584240Y0096510D01*
X0585240Y0096510D01*
X0585750Y0096010D01*
X0585750Y0094000D01*
X0585240Y0093500D01*
X0469510Y0108350D02*
X0468010Y0108350D01*
X0467510Y0108850D01*
X0467510Y0110860D01*
X0468010Y0111360D01*
X0469510Y0111360D01*
X0469510Y0108350D01*
X0466290Y0108350D02*
X0464290Y0108350D01*
X0465290Y0108350D02*
X0465290Y0111360D01*
X0466290Y0110350D01*
X0463070Y0110350D02*
X0462070Y0111360D01*
X0462070Y0108350D01*
X0463070Y0108350D02*
X0461070Y0108350D01*
X0462270Y0092760D02*
X0462270Y0092260D01*
X0464270Y0090250D01*
X0464270Y0089750D01*
X0465490Y0090250D02*
X0465490Y0092260D01*
X0465990Y0092760D01*
X0467490Y0092760D01*
X0467490Y0089750D01*
X0465990Y0089750D01*
X0465490Y0090250D01*
X0464270Y0092760D02*
X0462270Y0092760D01*
X0529650Y0162580D02*
X0529150Y0163090D01*
X0529150Y0164090D01*
X0529650Y0164590D01*
X0529150Y0165810D02*
X0529150Y0167810D01*
X0529150Y0166810D02*
X0532150Y0166810D01*
X0531150Y0165810D01*
X0531650Y0164590D02*
X0532150Y0164090D01*
X0532150Y0163090D01*
X0531650Y0162580D01*
X0529650Y0162580D01*
X0529650Y0169030D02*
X0529150Y0169530D01*
X0529150Y0170530D01*
X0529650Y0171030D01*
X0530150Y0171030D01*
X0530650Y0170530D01*
X0530650Y0170030D01*
X0530650Y0170530D02*
X0531150Y0171030D01*
X0531650Y0171030D01*
X0532150Y0170530D01*
X0532150Y0169530D01*
X0531650Y0169030D01*
X0546370Y0167760D02*
X0546370Y0167250D01*
X0546870Y0166750D01*
X0547870Y0166750D01*
X0548370Y0167250D01*
X0548370Y0167760D01*
X0547870Y0168260D01*
X0546870Y0168260D01*
X0546370Y0167760D01*
X0546870Y0166750D02*
X0546370Y0166250D01*
X0546370Y0165750D01*
X0546870Y0165250D01*
X0547870Y0165250D01*
X0548370Y0165750D01*
X0548370Y0166250D01*
X0547870Y0166750D01*
X0549590Y0165250D02*
X0551590Y0165250D01*
X0550590Y0165250D02*
X0550590Y0168260D01*
X0551590Y0167250D01*
X0552810Y0167760D02*
X0553310Y0168260D01*
X0554310Y0168260D01*
X0554810Y0167760D01*
X0554810Y0167250D01*
X0554310Y0166750D01*
X0553310Y0166750D01*
X0552810Y0166250D01*
X0552810Y0165750D01*
X0553310Y0165250D01*
X0554310Y0165250D01*
X0554810Y0165750D01*
X0556030Y0165750D02*
X0556030Y0168260D01*
X0558040Y0168260D02*
X0558040Y0165750D01*
X0557540Y0165250D01*
X0556530Y0165250D01*
X0556030Y0165750D01*
X0553810Y0164750D02*
X0553810Y0168760D01*
X0575150Y0167710D02*
X0575150Y0165710D01*
X0575150Y0166710D02*
X0578150Y0166710D01*
X0577150Y0165710D01*
X0577650Y0164490D02*
X0578150Y0163990D01*
X0578150Y0162990D01*
X0577650Y0162480D01*
X0575650Y0162480D01*
X0575150Y0162990D01*
X0575150Y0163990D01*
X0575650Y0164490D01*
X0576650Y0168930D02*
X0576650Y0170930D01*
X0578150Y0170430D02*
X0576650Y0168930D01*
X0575150Y0170430D02*
X0578150Y0170430D01*
X0612550Y0176350D02*
X0612550Y0177350D01*
X0613050Y0177850D01*
X0612550Y0179080D02*
X0614550Y0181080D01*
X0615050Y0181080D01*
X0615550Y0180580D01*
X0615550Y0179580D01*
X0615050Y0179080D01*
X0615050Y0177850D02*
X0615550Y0177350D01*
X0615550Y0176350D01*
X0615050Y0175850D01*
X0613050Y0175850D01*
X0612550Y0176350D01*
X0612550Y0179080D02*
X0612550Y0181080D01*
X0643050Y0180380D02*
X0643050Y0179380D01*
X0643550Y0178880D01*
X0643550Y0177650D02*
X0643050Y0177150D01*
X0643050Y0176150D01*
X0643550Y0175650D01*
X0645550Y0175650D01*
X0646050Y0176150D01*
X0646050Y0177150D01*
X0645550Y0177650D01*
X0645550Y0178880D02*
X0646050Y0179380D01*
X0646050Y0180380D01*
X0645550Y0180880D01*
X0645050Y0180880D01*
X0644550Y0180380D01*
X0644050Y0180880D01*
X0643550Y0180880D01*
X0643050Y0180380D01*
X0644550Y0180380D02*
X0644550Y0179880D01*
X0676650Y0180280D02*
X0679650Y0180280D01*
X0678150Y0178780D01*
X0678150Y0180780D01*
X0679150Y0177550D02*
X0679650Y0177050D01*
X0679650Y0176050D01*
X0679150Y0175550D01*
X0677150Y0175550D01*
X0676650Y0176050D01*
X0676650Y0177050D01*
X0677150Y0177550D01*
X0729950Y0178180D02*
X0729950Y0180180D01*
X0729950Y0179180D02*
X0732950Y0179180D01*
X0731950Y0178180D01*
X0732450Y0176950D02*
X0732950Y0176450D01*
X0732950Y0175450D01*
X0732450Y0174950D01*
X0730450Y0174950D01*
X0729950Y0175450D01*
X0729950Y0176450D01*
X0730450Y0176950D01*
X0730450Y0181400D02*
X0732450Y0183400D01*
X0730450Y0183400D01*
X0729950Y0182900D01*
X0729950Y0181900D01*
X0730450Y0181400D01*
X0732450Y0181400D01*
X0732950Y0181900D01*
X0732950Y0182900D01*
X0732450Y0183400D01*
X0760950Y0180300D02*
X0760950Y0178300D01*
X0760950Y0179300D02*
X0763950Y0179300D01*
X0762950Y0178300D01*
X0760950Y0177080D02*
X0760950Y0175080D01*
X0760950Y0176080D02*
X0763950Y0176080D01*
X0762950Y0175080D01*
X0763450Y0173850D02*
X0763950Y0173350D01*
X0763950Y0172350D01*
X0763450Y0171850D01*
X0761450Y0171850D01*
X0760950Y0172350D01*
X0760950Y0173350D01*
X0761450Y0173850D01*
X0790850Y0173150D02*
X0790850Y0172150D01*
X0791350Y0171650D01*
X0793350Y0171650D01*
X0793850Y0172150D01*
X0793850Y0173150D01*
X0793350Y0173650D01*
X0792850Y0174880D02*
X0793850Y0175880D01*
X0790850Y0175880D01*
X0790850Y0174880D02*
X0790850Y0176880D01*
X0790850Y0178100D02*
X0792850Y0180100D01*
X0793350Y0180100D01*
X0793850Y0179600D01*
X0793850Y0178600D01*
X0793350Y0178100D01*
X0790850Y0178100D02*
X0790850Y0180100D01*
X0791350Y0173650D02*
X0790850Y0173150D01*
X0819250Y0173190D02*
X0819750Y0172680D01*
X0821750Y0172680D01*
X0822250Y0173190D01*
X0822250Y0174190D01*
X0821750Y0174690D01*
X0821250Y0175910D02*
X0822250Y0176910D01*
X0819250Y0176910D01*
X0819250Y0175910D02*
X0819250Y0177910D01*
X0819750Y0179130D02*
X0819250Y0179630D01*
X0819250Y0180630D01*
X0819750Y0181130D01*
X0820750Y0181130D01*
X0821250Y0180630D01*
X0821250Y0180130D01*
X0820750Y0179130D01*
X0822250Y0179130D01*
X0822250Y0181130D01*
X0819750Y0174690D02*
X0819250Y0174190D01*
X0819250Y0173190D01*
X0480650Y0186350D02*
X0480140Y0185850D01*
X0479140Y0185850D01*
X0478640Y0186350D01*
X0477420Y0185850D02*
X0475420Y0185850D01*
X0476420Y0185850D02*
X0476420Y0188860D01*
X0477420Y0187850D01*
X0478640Y0188360D02*
X0479140Y0188860D01*
X0480140Y0188860D01*
X0480650Y0188360D01*
X0480650Y0186350D01*
X0474200Y0186350D02*
X0474200Y0187350D01*
X0472700Y0187350D01*
X0472200Y0186850D01*
X0472200Y0186350D01*
X0472700Y0185850D01*
X0473700Y0185850D01*
X0474200Y0186350D01*
X0474200Y0187350D02*
X0473200Y0188360D01*
X0472200Y0188860D01*
X0472870Y0197000D02*
X0473870Y0197000D01*
X0474370Y0197500D01*
X0474370Y0198000D01*
X0473870Y0198500D01*
X0472870Y0198500D01*
X0472370Y0198000D01*
X0472370Y0197500D01*
X0472870Y0197000D01*
X0472870Y0198500D02*
X0472370Y0199000D01*
X0472370Y0199510D01*
X0472870Y0200010D01*
X0473870Y0200010D01*
X0474370Y0199510D01*
X0474370Y0199000D01*
X0473870Y0198500D01*
X0475590Y0198500D02*
X0476090Y0198000D01*
X0477590Y0198000D01*
X0477590Y0197000D02*
X0477590Y0200010D01*
X0476090Y0200010D01*
X0475590Y0199510D01*
X0475590Y0198500D01*
X0476590Y0198000D02*
X0475590Y0197000D01*
X0464250Y0173560D02*
X0462740Y0173560D01*
X0462240Y0173060D01*
X0462240Y0172050D01*
X0462740Y0171550D01*
X0464250Y0171550D01*
X0464250Y0170550D02*
X0464250Y0173560D01*
X0463240Y0171550D02*
X0462240Y0170550D01*
X0461020Y0171050D02*
X0460520Y0170550D01*
X0459520Y0170550D01*
X0459020Y0171050D01*
X0459020Y0171550D01*
X0459520Y0172050D01*
X0460020Y0172050D01*
X0459520Y0172050D02*
X0459020Y0172550D01*
X0459020Y0173060D01*
X0459520Y0173560D01*
X0460520Y0173560D01*
X0461020Y0173060D01*
D3172*
X0432500Y0220000D02*
X0432500Y0020000D01*
X0832500Y0020000D01*
X0832500Y0220000D01*
X0432500Y0220000D01*
X0464010Y0200770D02*
X0466380Y0200770D01*
X0466380Y0196040D02*
X0464010Y0196040D01*
X0548800Y0177560D02*
X0548800Y0175450D01*
X0550300Y0170900D02*
X0553690Y0170900D01*
X0553690Y0182100D02*
X0550300Y0182100D01*
X0602730Y0151270D02*
X0602730Y0084340D01*
X0631470Y0084340D01*
X0631470Y0151270D01*
X0602730Y0151270D01*
X0635330Y0152270D02*
X0635330Y0085340D01*
X0664070Y0085340D01*
X0664070Y0152270D01*
X0635330Y0152270D01*
X0668330Y0152670D02*
X0668330Y0085740D01*
X0697070Y0085740D01*
X0697070Y0152670D01*
X0668330Y0152670D01*
X0701110Y0152720D02*
X0701110Y0085790D01*
X0729850Y0085790D01*
X0729850Y0152720D01*
X0701110Y0152720D01*
X0732860Y0152730D02*
X0732860Y0085800D01*
X0761600Y0085800D01*
X0761600Y0152730D01*
X0732860Y0152730D01*
X0764320Y0153130D02*
X0764320Y0086200D01*
X0793060Y0086200D01*
X0793060Y0153130D01*
X0764320Y0153130D01*
X0795580Y0152840D02*
X0795580Y0085910D01*
X0824320Y0085910D01*
X0824320Y0152840D01*
X0795580Y0152840D01*
X0619500Y0047400D02*
X0595900Y0047400D01*
X0588660Y0056920D02*
X0588660Y0059280D01*
X0583930Y0059280D02*
X0583930Y0056920D01*
X0578590Y0064700D02*
X0564400Y0064700D01*
X0567030Y0066900D02*
X0567050Y0067050D01*
X0567110Y0067180D01*
X0567200Y0067300D01*
X0567310Y0067390D01*
X0567450Y0067450D01*
X0567600Y0067470D01*
X0567750Y0067450D01*
X0567880Y0067390D01*
X0568000Y0067300D01*
X0568090Y0067190D01*
X0568150Y0067050D01*
X0568170Y0066900D01*
X0568150Y0066750D01*
X0568090Y0066620D01*
X0568000Y0066500D01*
X0567890Y0066410D01*
X0567750Y0066350D01*
X0567600Y0066330D01*
X0567450Y0066350D01*
X0567320Y0066410D01*
X0567200Y0066500D01*
X0567110Y0066610D01*
X0567050Y0066750D01*
X0567030Y0066900D01*
X0564400Y0083300D02*
X0578590Y0083300D01*
X0581310Y0086640D02*
X0583680Y0086640D01*
X0583680Y0091370D02*
X0581310Y0091370D01*
X0619500Y0047400D02*
X0619500Y0021600D01*
X0595900Y0021600D01*
X0475550Y0094290D02*
X0457440Y0094290D01*
X0457440Y0094880D01*
X0468860Y0096070D02*
X0468860Y0103940D01*
X0475550Y0105120D02*
X0475550Y0105710D01*
X0457440Y0105710D01*
X0457440Y0105120D01*
X0457440Y0113290D02*
X0475550Y0113290D01*
X0475550Y0113880D01*
X0468860Y0115070D02*
X0468860Y0122940D01*
X0475550Y0124120D02*
X0475550Y0124710D01*
X0457440Y0124710D01*
X0457440Y0124120D01*
X0457440Y0113880D02*
X0457440Y0113290D01*
X0475550Y0094880D02*
X0475550Y0094290D01*
D251*
X0621400Y0034500D03*
D1711*
X0467000Y0037700D02*
X0465200Y0037700D01*
X0465100Y0042700D02*
X0466900Y0042700D01*
X0535000Y0167300D02*
X0539800Y0167300D01*
X0567700Y0166900D02*
X0572500Y0166900D01*
X0618600Y0178000D02*
X0623400Y0178000D01*
X0649100Y0178000D02*
X0653900Y0178000D01*
X0682200Y0178000D02*
X0687000Y0178000D01*
X0722600Y0178500D02*
X0727400Y0178500D01*
X0753000Y0175100D02*
X0757800Y0175100D01*
X0783100Y0175000D02*
X0787900Y0175000D01*
X0811500Y0175500D02*
X0816300Y0175500D01*
X0473300Y0169500D02*
X0471200Y0169500D01*
X0471100Y0174700D02*
X0473200Y0174700D01*
X0464300Y0184800D02*
X0464300Y0189600D01*
D3172*
X0432000Y0019500D02*
X0432000Y0220500D01*
X0833000Y0220500D01*
X0833000Y0019500D01*
X0432000Y0019500D01*
X0432500Y0232500D02*
G75*
%LPD*%
D3172*
X0465000Y0247740D02*
X0465000Y0524610D01*
X0464980Y0525690D01*
X0464920Y0526780D01*
X0464830Y0527860D01*
X0464690Y0528930D01*
X0464520Y0530010D01*
X0464310Y0531070D01*
X0464060Y0532130D01*
X0463770Y0533170D01*
X0463440Y0534210D01*
X0463080Y0535230D01*
X0462690Y0536240D01*
X0462250Y0537230D01*
X0461790Y0538210D01*
X0461280Y0539170D01*
X0460750Y0540120D01*
X0460180Y0541040D01*
X0459570Y0541940D01*
X0458940Y0542820D01*
X0458270Y0543680D01*
X0457580Y0544510D01*
X0456850Y0545320D01*
X0456100Y0546100D01*
X0455320Y0546850D01*
X0454510Y0547580D01*
X0453680Y0548270D01*
X0452820Y0548940D01*
X0451940Y0549570D01*
X0451040Y0550180D01*
X0450120Y0550750D01*
X0449170Y0551280D01*
X0448210Y0551790D01*
X0447230Y0552250D01*
X0446240Y0552690D01*
X0445230Y0553080D01*
X0444210Y0553440D01*
X0443170Y0553770D01*
X0442130Y0554060D01*
X0441070Y0554310D01*
X0440010Y0554520D01*
X0438930Y0554690D01*
X0437860Y0554830D01*
X0436780Y0554920D01*
X0435690Y0554980D01*
X0434610Y0555000D01*
X0432500Y0555000D01*
X0432500Y0640000D01*
X0832500Y0640000D01*
X0832500Y0555000D01*
X0830280Y0555000D01*
X0829200Y0554980D01*
X0828120Y0554920D01*
X0827040Y0554830D01*
X0825970Y0554690D01*
X0824900Y0554520D01*
X0823840Y0554310D01*
X0822790Y0554060D01*
X0821750Y0553770D01*
X0820720Y0553450D01*
X0819700Y0553090D01*
X0818690Y0552700D01*
X0817700Y0552260D01*
X0816730Y0551800D01*
X0815770Y0551300D01*
X0814830Y0550760D01*
X0813910Y0550190D01*
X0813010Y0549590D01*
X0812140Y0548960D01*
X0811280Y0548300D01*
X0810460Y0547600D01*
X0809650Y0546880D01*
X0808870Y0546130D01*
X0808120Y0545350D01*
X0807400Y0544550D01*
X0806710Y0543720D01*
X0806050Y0542870D01*
X0805410Y0541990D01*
X0804810Y0541090D01*
X0804250Y0540170D01*
X0803710Y0539230D01*
X0803210Y0538280D01*
X0802740Y0537300D01*
X0802310Y0536310D01*
X0801920Y0535300D01*
X0801560Y0534280D01*
X0801230Y0533250D01*
X0800950Y0532210D01*
X0800700Y0531160D01*
X0800490Y0530100D01*
X0800320Y0529030D01*
X0800180Y0527960D01*
X0800090Y0526880D01*
X0800030Y0525800D01*
X0800010Y0524720D01*
X0800010Y0524730D02*
X0800100Y0247820D01*
X0800090Y0247810D02*
X0800070Y0247040D01*
X0800010Y0246260D01*
X0799910Y0245490D01*
X0799780Y0244730D01*
X0799600Y0243970D01*
X0799390Y0243230D01*
X0799140Y0242490D01*
X0798850Y0241770D01*
X0798530Y0241070D01*
X0798170Y0240380D01*
X0797770Y0239710D01*
X0797350Y0239060D01*
X0796890Y0238440D01*
X0796400Y0237840D01*
X0795880Y0237260D01*
X0795330Y0236710D01*
X0794750Y0236190D01*
X0794150Y0235700D01*
X0793530Y0235240D01*
X0792880Y0234820D01*
X0792210Y0234420D01*
X0791520Y0234060D01*
X0790820Y0233740D01*
X0790100Y0233450D01*
X0789360Y0233200D01*
X0788620Y0232990D01*
X0787860Y0232810D01*
X0787100Y0232680D01*
X0786330Y0232580D01*
X0785550Y0232520D01*
X0784780Y0232500D01*
X0480240Y0232500D01*
X0479470Y0232520D01*
X0478700Y0232580D01*
X0477930Y0232680D01*
X0477170Y0232810D01*
X0476420Y0232990D01*
X0475680Y0233200D01*
X0474950Y0233450D01*
X0474230Y0233740D01*
X0473530Y0234060D01*
X0472840Y0234410D01*
X0472180Y0234810D01*
X0471530Y0235230D01*
X0470910Y0235690D01*
X0470310Y0236180D01*
X0469740Y0236690D01*
X0469190Y0237240D01*
X0468680Y0237810D01*
X0468190Y0238410D01*
X0467730Y0239030D01*
X0467310Y0239680D01*
X0466910Y0240340D01*
X0466560Y0241030D01*
X0466240Y0241730D01*
X0465950Y0242450D01*
X0465700Y0243180D01*
X0465490Y0243920D01*
X0465310Y0244670D01*
X0465180Y0245430D01*
X0465080Y0246200D01*
X0465020Y0246970D01*
X0465000Y0247740D01*
X0535050Y0353760D02*
X0533480Y0355330D01*
X0533480Y0359660D01*
X0534200Y0362100D02*
X0542200Y0362100D01*
X0542920Y0359660D02*
X0542920Y0355330D01*
X0541350Y0353760D01*
X0535050Y0353760D01*
X0528060Y0360420D02*
X0528060Y0362780D01*
X0533480Y0367540D02*
X0533480Y0373440D01*
X0542920Y0373440D01*
X0542920Y0367540D01*
X0545260Y0368670D02*
X0545260Y0366000D01*
X0547930Y0368670D01*
X0548600Y0368670D01*
X0549270Y0368000D01*
X0549270Y0366660D01*
X0548600Y0366000D01*
X0548600Y0364060D02*
X0549270Y0363390D01*
X0549270Y0362060D01*
X0548600Y0361390D01*
X0548600Y0359460D02*
X0549270Y0358790D01*
X0549270Y0357460D01*
X0548600Y0356790D01*
X0545930Y0356790D01*
X0545260Y0357460D01*
X0545260Y0358790D01*
X0545930Y0359460D01*
X0545260Y0361390D02*
X0547930Y0364060D01*
X0548600Y0364060D01*
X0545260Y0364060D02*
X0545260Y0361390D01*
X0530740Y0379530D02*
X0530070Y0379530D01*
X0529400Y0380190D01*
X0529400Y0381530D01*
X0528730Y0382190D01*
X0528070Y0382190D01*
X0527400Y0381530D01*
X0527400Y0380190D01*
X0528070Y0379530D01*
X0525840Y0380450D02*
X0525840Y0386750D01*
X0525830Y0386750D02*
X0525770Y0386930D01*
X0525680Y0387110D01*
X0525560Y0387260D01*
X0525400Y0387380D01*
X0525230Y0387470D01*
X0525040Y0387530D01*
X0524850Y0387550D01*
X0524650Y0387530D01*
X0527400Y0388730D02*
X0527400Y0391400D01*
X0527400Y0390070D02*
X0531400Y0390070D01*
X0530070Y0388730D01*
X0531400Y0386800D02*
X0531400Y0385460D01*
X0531400Y0386130D02*
X0528070Y0386130D01*
X0527400Y0385460D01*
X0527400Y0384800D01*
X0528070Y0384130D01*
X0530740Y0382190D02*
X0531400Y0381530D01*
X0531400Y0380190D01*
X0530740Y0379530D01*
X0525830Y0380450D02*
X0525780Y0380290D01*
X0525700Y0380130D01*
X0525600Y0379990D01*
X0525480Y0379870D01*
X0525330Y0379770D01*
X0525170Y0379700D01*
X0525000Y0379660D01*
X0524830Y0379650D01*
X0524650Y0379670D01*
X0519150Y0379670D02*
X0518970Y0379650D01*
X0518800Y0379660D01*
X0518630Y0379700D01*
X0518470Y0379770D01*
X0518320Y0379870D01*
X0518200Y0379990D01*
X0518100Y0380130D01*
X0518020Y0380290D01*
X0517970Y0380450D01*
X0517960Y0380450D02*
X0517960Y0386750D01*
X0517970Y0386750D02*
X0518030Y0386930D01*
X0518120Y0387110D01*
X0518240Y0387260D01*
X0518400Y0387380D01*
X0518570Y0387470D01*
X0518760Y0387530D01*
X0518950Y0387550D01*
X0519150Y0387530D01*
X0519620Y0367980D02*
X0518950Y0367310D01*
X0518280Y0367980D01*
X0517620Y0367980D01*
X0516950Y0367310D01*
X0516950Y0365980D01*
X0517620Y0365310D01*
X0518950Y0366640D02*
X0518950Y0367310D01*
X0519620Y0367980D02*
X0520290Y0367980D01*
X0520950Y0367310D01*
X0520950Y0365980D01*
X0520290Y0365310D01*
X0520290Y0363370D02*
X0520950Y0362710D01*
X0520950Y0361370D01*
X0520290Y0360700D01*
X0520290Y0358770D02*
X0520950Y0358100D01*
X0520950Y0356770D01*
X0520290Y0356100D01*
X0517620Y0356100D01*
X0516950Y0356770D01*
X0516950Y0358100D01*
X0517620Y0358770D01*
X0516950Y0360700D02*
X0519620Y0363370D01*
X0520290Y0363370D01*
X0523340Y0362780D02*
X0523340Y0360420D01*
X0516950Y0360700D02*
X0516950Y0363370D01*
X0567750Y0348210D02*
X0567750Y0346880D01*
X0568420Y0346210D01*
X0569750Y0346210D02*
X0570420Y0347540D01*
X0570420Y0348210D01*
X0569750Y0348880D01*
X0568420Y0348880D01*
X0567750Y0348210D01*
X0569750Y0346210D02*
X0571750Y0346210D01*
X0571750Y0348880D01*
X0571090Y0344270D02*
X0571750Y0343610D01*
X0571750Y0342270D01*
X0571090Y0341600D01*
X0571090Y0339670D02*
X0569750Y0339670D01*
X0569080Y0339000D01*
X0569080Y0337000D01*
X0567750Y0337000D02*
X0571750Y0337000D01*
X0571750Y0339000D01*
X0571090Y0339670D01*
X0569080Y0338330D02*
X0567750Y0339670D01*
X0567750Y0341600D02*
X0570420Y0344270D01*
X0571090Y0344270D01*
X0574140Y0344180D02*
X0574140Y0341820D01*
X0578860Y0341820D02*
X0578860Y0344180D01*
X0584720Y0335770D02*
X0584050Y0335100D01*
X0584050Y0333760D01*
X0584720Y0333100D01*
X0585380Y0333100D01*
X0586050Y0333760D01*
X0586050Y0335100D01*
X0585380Y0335770D01*
X0584720Y0335770D01*
X0586050Y0335100D02*
X0586720Y0335770D01*
X0587390Y0335770D01*
X0588050Y0335100D01*
X0588050Y0333760D01*
X0587390Y0333100D01*
X0586720Y0333100D01*
X0586050Y0333760D01*
X0584050Y0331160D02*
X0584050Y0328490D01*
X0584050Y0329830D02*
X0588050Y0329830D01*
X0586720Y0328490D01*
X0587390Y0326560D02*
X0588050Y0325890D01*
X0588050Y0324560D01*
X0587390Y0323890D01*
X0584720Y0323890D01*
X0584050Y0324560D01*
X0584050Y0325890D01*
X0584720Y0326560D01*
X0590440Y0330020D02*
X0590440Y0332380D01*
X0595160Y0332380D02*
X0595160Y0330020D01*
X0611260Y0332850D02*
X0611260Y0326550D01*
X0612830Y0324980D01*
X0617160Y0324980D01*
X0617160Y0322640D02*
X0617160Y0318640D01*
X0615830Y0318640D02*
X0618500Y0318640D01*
X0620430Y0319300D02*
X0621100Y0318640D01*
X0622430Y0318640D01*
X0623100Y0319300D01*
X0623100Y0321970D01*
X0622430Y0322640D01*
X0621100Y0322640D01*
X0620430Y0321970D01*
X0618500Y0321310D02*
X0617160Y0322640D01*
X0613890Y0321970D02*
X0613220Y0322640D01*
X0611890Y0322640D01*
X0611220Y0321970D01*
X0611220Y0321310D01*
X0613890Y0318640D01*
X0611220Y0318640D01*
X0619600Y0325700D02*
X0619600Y0333700D01*
X0617160Y0334420D02*
X0612830Y0334420D01*
X0611260Y0332850D01*
X0625040Y0334420D02*
X0630940Y0334420D01*
X0630940Y0324980D01*
X0625040Y0324980D01*
X0624720Y0348000D02*
X0624050Y0348670D01*
X0624050Y0350000D01*
X0624720Y0350670D01*
X0624050Y0352600D02*
X0624050Y0355270D01*
X0624050Y0352600D02*
X0626720Y0355270D01*
X0627390Y0355270D01*
X0628050Y0354610D01*
X0628050Y0353270D01*
X0627390Y0352600D01*
X0627390Y0350670D02*
X0628050Y0350000D01*
X0628050Y0348670D01*
X0627390Y0348000D01*
X0624720Y0348000D01*
X0621660Y0350320D02*
X0621660Y0352680D01*
X0616940Y0352680D02*
X0616940Y0350320D01*
X0604700Y0361320D02*
X0604700Y0363990D01*
X0604030Y0364650D01*
X0602700Y0364650D01*
X0602030Y0363990D01*
X0600100Y0363320D02*
X0598760Y0364650D01*
X0598760Y0360650D01*
X0597430Y0360650D02*
X0600100Y0360650D01*
X0602030Y0361320D02*
X0602700Y0360650D01*
X0604030Y0360650D01*
X0604700Y0361320D01*
X0600380Y0358260D02*
X0598020Y0358260D01*
X0595490Y0361320D02*
X0594820Y0360650D01*
X0593490Y0360650D01*
X0592820Y0361320D01*
X0592820Y0363990D01*
X0593490Y0364650D01*
X0594820Y0364650D01*
X0595490Y0363990D01*
X0595490Y0363320D01*
X0594820Y0362650D01*
X0592820Y0362650D01*
X0598020Y0353540D02*
X0600380Y0353540D01*
X0600700Y0350500D02*
X0600700Y0346500D01*
X0598030Y0346500D01*
X0596100Y0348500D02*
X0594090Y0350500D01*
X0594090Y0346500D01*
X0593430Y0348500D02*
X0596100Y0348500D01*
X0567750Y0344270D02*
X0567750Y0341600D01*
X0583520Y0274960D02*
X0585880Y0274960D01*
X0585880Y0270240D02*
X0583520Y0270240D01*
X0582860Y0267990D02*
X0584200Y0266650D01*
X0582190Y0266650D01*
X0581530Y0265980D01*
X0581530Y0265320D01*
X0582190Y0264650D01*
X0583530Y0264650D01*
X0584200Y0265320D01*
X0584200Y0266650D01*
X0582860Y0267990D02*
X0581530Y0268650D01*
X0586130Y0267990D02*
X0586800Y0268650D01*
X0588130Y0268650D01*
X0588800Y0267990D01*
X0588800Y0265320D01*
X0588130Y0264650D01*
X0586800Y0264650D01*
X0586130Y0265320D01*
X0598440Y0265390D02*
X0598440Y0262720D01*
X0599100Y0262050D01*
X0600440Y0262050D01*
X0601100Y0262720D01*
X0598440Y0265390D01*
X0599100Y0266050D01*
X0600440Y0266050D01*
X0601100Y0265390D01*
X0601100Y0262720D01*
X0603040Y0262050D02*
X0605710Y0262050D01*
X0603040Y0264720D01*
X0603040Y0265390D01*
X0603710Y0266050D01*
X0605040Y0266050D01*
X0605710Y0265390D01*
X0607640Y0265390D02*
X0607640Y0264050D01*
X0608310Y0263380D01*
X0610310Y0263380D01*
X0610310Y0262050D02*
X0610310Y0266050D01*
X0608310Y0266050D01*
X0607640Y0265390D01*
X0608980Y0263380D02*
X0607640Y0262050D01*
X0605680Y0268440D02*
X0603320Y0268440D01*
X0603320Y0273160D02*
X0605680Y0273160D01*
X0703200Y0457750D02*
X0704540Y0457750D01*
X0705200Y0458420D01*
X0703870Y0459750D02*
X0703200Y0459750D01*
X0702530Y0459080D01*
X0702530Y0458420D01*
X0703200Y0457750D01*
X0703200Y0459750D02*
X0702530Y0460420D01*
X0702530Y0461090D01*
X0703200Y0461750D01*
X0704540Y0461750D01*
X0705200Y0461090D01*
X0707140Y0461090D02*
X0707810Y0461750D01*
X0709140Y0461750D01*
X0709810Y0461090D01*
X0709810Y0458420D01*
X0709140Y0457750D01*
X0707810Y0457750D01*
X0707140Y0458420D01*
X0707280Y0464140D02*
X0704920Y0464140D01*
X0704920Y0468860D02*
X0707280Y0468860D01*
X0686500Y0471600D02*
X0686500Y0473600D01*
X0685840Y0474270D01*
X0683170Y0474270D01*
X0682500Y0473600D01*
X0682500Y0471600D01*
X0686500Y0471600D01*
X0685170Y0476200D02*
X0686500Y0477540D01*
X0682500Y0477540D01*
X0682500Y0478870D02*
X0682500Y0476200D01*
X0681210Y0471040D02*
X0679440Y0471040D01*
X0681210Y0471040D02*
X0681210Y0489160D01*
X0679440Y0489160D01*
X0679440Y0484040D02*
X0671560Y0484040D01*
X0671560Y0489160D02*
X0669790Y0489160D01*
X0669790Y0471040D01*
X0671560Y0471040D01*
X0666800Y0471700D02*
X0666800Y0473700D01*
X0666140Y0474370D01*
X0663470Y0474370D01*
X0662800Y0473700D01*
X0662800Y0471700D01*
X0666800Y0471700D01*
X0666140Y0476300D02*
X0666800Y0476970D01*
X0666800Y0478310D01*
X0666140Y0478970D01*
X0665470Y0478970D01*
X0662800Y0476300D01*
X0662800Y0478970D01*
X0659740Y0484140D02*
X0651860Y0484140D01*
X0651860Y0489260D02*
X0650090Y0489260D01*
X0650090Y0471140D01*
X0651860Y0471140D01*
X0659740Y0471140D02*
X0661510Y0471140D01*
X0661510Y0489260D01*
X0659740Y0489260D01*
X0730500Y0585600D02*
X0734500Y0585600D01*
X0734500Y0587600D01*
X0733840Y0588270D01*
X0732500Y0588270D01*
X0731830Y0587600D01*
X0731830Y0585600D01*
X0731830Y0586930D02*
X0730500Y0588270D01*
X0731170Y0590200D02*
X0730500Y0590870D01*
X0730500Y0592210D01*
X0731170Y0592870D01*
X0731830Y0592870D01*
X0732500Y0592210D01*
X0732500Y0591540D01*
X0732500Y0592210D02*
X0733170Y0592870D01*
X0733840Y0592870D01*
X0734500Y0592210D01*
X0734500Y0590870D01*
X0733840Y0590200D01*
X0733840Y0594810D02*
X0734500Y0595480D01*
X0734500Y0596810D01*
X0733840Y0597480D01*
X0733170Y0597480D01*
X0730500Y0594810D01*
X0730500Y0597480D01*
X0729600Y0606500D02*
X0729600Y0608100D01*
X0735000Y0608200D02*
X0735000Y0606600D01*
X0533310Y0546090D02*
X0533310Y0543420D01*
X0532640Y0542750D01*
X0531310Y0542750D01*
X0530640Y0543420D01*
X0528710Y0542750D02*
X0526040Y0542750D01*
X0527370Y0542750D02*
X0527370Y0546750D01*
X0528710Y0545420D01*
X0530640Y0546090D02*
X0531310Y0546750D01*
X0532640Y0546750D01*
X0533310Y0546090D01*
X0524100Y0546090D02*
X0523440Y0546750D01*
X0522100Y0546750D01*
X0521440Y0546090D01*
X0524100Y0543420D01*
X0523440Y0542750D01*
X0522100Y0542750D01*
X0521440Y0543420D01*
X0521440Y0546090D01*
X0521820Y0548140D02*
X0524180Y0548140D01*
X0524100Y0546090D02*
X0524100Y0543420D01*
X0524180Y0552860D02*
X0521820Y0552860D01*
X0507810Y0546090D02*
X0507810Y0543420D01*
X0507140Y0542750D01*
X0505810Y0542750D01*
X0505140Y0543420D01*
X0503210Y0542750D02*
X0500540Y0542750D01*
X0501870Y0542750D02*
X0501870Y0546750D01*
X0503210Y0545420D01*
X0505140Y0546090D02*
X0505810Y0546750D01*
X0507140Y0546750D01*
X0507810Y0546090D01*
X0498600Y0544750D02*
X0495940Y0544750D01*
X0496600Y0542750D02*
X0496600Y0546750D01*
X0498600Y0544750D01*
X0498680Y0548140D02*
X0496320Y0548140D01*
X0496320Y0552860D02*
X0498680Y0552860D01*
X0518420Y0512570D02*
X0517750Y0511900D01*
X0517750Y0510560D01*
X0518420Y0509900D01*
X0519750Y0509900D02*
X0520420Y0511230D01*
X0520420Y0511900D01*
X0519750Y0512570D01*
X0518420Y0512570D01*
X0519750Y0509900D02*
X0521750Y0509900D01*
X0521750Y0512570D01*
X0524640Y0509180D02*
X0524640Y0506820D01*
X0521750Y0506630D02*
X0520420Y0505290D01*
X0521750Y0506630D02*
X0517750Y0506630D01*
X0517750Y0507960D02*
X0517750Y0505290D01*
X0518420Y0503360D02*
X0517750Y0502690D01*
X0517750Y0501360D01*
X0518420Y0500690D01*
X0521090Y0500690D01*
X0521750Y0501360D01*
X0521750Y0502690D01*
X0521090Y0503360D01*
X0529360Y0506820D02*
X0529360Y0509180D01*
D3172*
X0432000Y0232000D02*
X0432000Y0640500D01*
X0833000Y0640500D01*
X0833000Y0232000D01*
X0432000Y0232000D01*
X0020000Y0860000D02*
G75*
%LPD*%
D3172*
X0412260Y0892500D02*
X0135390Y0892500D01*
X0134310Y0892480D01*
X0133220Y0892420D01*
X0132140Y0892330D01*
X0131070Y0892190D01*
X0129990Y0892020D01*
X0128930Y0891810D01*
X0127870Y0891560D01*
X0126830Y0891270D01*
X0125790Y0890940D01*
X0124770Y0890580D01*
X0123760Y0890190D01*
X0122770Y0889750D01*
X0121790Y0889290D01*
X0120830Y0888780D01*
X0119880Y0888250D01*
X0118960Y0887680D01*
X0118060Y0887070D01*
X0117180Y0886440D01*
X0116320Y0885770D01*
X0115490Y0885080D01*
X0114680Y0884350D01*
X0113900Y0883600D01*
X0113150Y0882820D01*
X0112420Y0882010D01*
X0111730Y0881180D01*
X0111060Y0880320D01*
X0110430Y0879440D01*
X0109820Y0878540D01*
X0109250Y0877620D01*
X0108720Y0876670D01*
X0108210Y0875710D01*
X0107750Y0874730D01*
X0107310Y0873740D01*
X0106920Y0872730D01*
X0106560Y0871710D01*
X0106230Y0870670D01*
X0105940Y0869630D01*
X0105690Y0868570D01*
X0105480Y0867510D01*
X0105310Y0866430D01*
X0105170Y0865360D01*
X0105080Y0864280D01*
X0105020Y0863190D01*
X0105000Y0862110D01*
X0105000Y0860000D01*
X0020000Y0860000D01*
X0020000Y1260000D01*
X0105000Y1260000D01*
X0105000Y1257780D01*
X0105020Y1256700D01*
X0105080Y1255620D01*
X0105170Y1254540D01*
X0105310Y1253470D01*
X0105480Y1252400D01*
X0105690Y1251340D01*
X0105940Y1250290D01*
X0106230Y1249250D01*
X0106550Y1248220D01*
X0106910Y1247200D01*
X0107300Y1246190D01*
X0107740Y1245200D01*
X0108200Y1244230D01*
X0108700Y1243270D01*
X0109240Y1242330D01*
X0109810Y1241410D01*
X0110410Y1240510D01*
X0111040Y1239640D01*
X0111700Y1238780D01*
X0112400Y1237960D01*
X0113120Y1237150D01*
X0113870Y1236370D01*
X0114650Y1235620D01*
X0115450Y1234900D01*
X0116280Y1234210D01*
X0117130Y1233550D01*
X0118010Y1232910D01*
X0118910Y1232310D01*
X0119830Y1231750D01*
X0120770Y1231210D01*
X0121720Y1230710D01*
X0122700Y1230240D01*
X0123690Y1229810D01*
X0124700Y1229420D01*
X0125720Y1229060D01*
X0126750Y1228730D01*
X0127790Y1228450D01*
X0128840Y1228200D01*
X0129900Y1227990D01*
X0130970Y1227820D01*
X0132040Y1227680D01*
X0133120Y1227590D01*
X0134200Y1227530D01*
X0135280Y1227510D01*
X0135270Y1227510D02*
X0412180Y1227600D01*
X0412190Y1227590D02*
X0412960Y1227570D01*
X0413740Y1227510D01*
X0414510Y1227410D01*
X0415270Y1227280D01*
X0416030Y1227100D01*
X0416770Y1226890D01*
X0417510Y1226640D01*
X0418230Y1226350D01*
X0418930Y1226030D01*
X0419620Y1225670D01*
X0420290Y1225270D01*
X0420940Y1224850D01*
X0421560Y1224390D01*
X0422160Y1223900D01*
X0422740Y1223380D01*
X0423290Y1222830D01*
X0423810Y1222250D01*
X0424300Y1221650D01*
X0424760Y1221030D01*
X0425180Y1220380D01*
X0425580Y1219710D01*
X0425940Y1219020D01*
X0426260Y1218320D01*
X0426550Y1217600D01*
X0426800Y1216860D01*
X0427010Y1216120D01*
X0427190Y1215360D01*
X0427320Y1214600D01*
X0427420Y1213830D01*
X0427480Y1213050D01*
X0427500Y1212280D01*
X0427500Y0907740D01*
X0427480Y0906970D01*
X0427420Y0906200D01*
X0427320Y0905430D01*
X0427190Y0904670D01*
X0427010Y0903920D01*
X0426800Y0903180D01*
X0426550Y0902450D01*
X0426260Y0901730D01*
X0425940Y0901030D01*
X0425590Y0900340D01*
X0425190Y0899680D01*
X0424770Y0899030D01*
X0424310Y0898410D01*
X0423820Y0897810D01*
X0423310Y0897240D01*
X0422760Y0896690D01*
X0422190Y0896180D01*
X0421590Y0895690D01*
X0420970Y0895230D01*
X0420320Y0894810D01*
X0419660Y0894410D01*
X0418970Y0894060D01*
X0418270Y0893740D01*
X0417550Y0893450D01*
X0416820Y0893200D01*
X0416080Y0892990D01*
X0415330Y0892810D01*
X0414570Y0892680D01*
X0413800Y0892580D01*
X0413030Y0892520D01*
X0412260Y0892500D01*
X0249950Y1023380D02*
X0249950Y1024380D01*
X0249450Y1024880D01*
X0248950Y1024880D01*
X0248450Y1024380D01*
X0248450Y1023380D01*
X0248950Y1022880D01*
X0249450Y1022880D01*
X0249950Y1023380D01*
X0248450Y1023380D02*
X0247950Y1022880D01*
X0247450Y1022880D01*
X0246950Y1023380D01*
X0246950Y1024380D01*
X0247450Y1024880D01*
X0247950Y1024880D01*
X0248450Y1024380D01*
X0249950Y1026560D02*
X0249950Y1028570D01*
X0249950Y1027570D02*
X0246950Y1027570D01*
X0247950Y1028570D01*
X0247450Y1030250D02*
X0246950Y1030750D01*
X0246950Y1031750D01*
X0247450Y1032250D01*
X0249450Y1032250D01*
X0249950Y1031750D01*
X0249950Y1030750D01*
X0249450Y1030250D01*
X0244860Y1027680D02*
X0244860Y1025320D01*
X0240140Y1025320D02*
X0240140Y1027680D01*
X0234970Y1019400D02*
X0234970Y1016400D01*
X0232960Y1016400D01*
X0231280Y1016900D02*
X0230780Y1016400D01*
X0229780Y1016400D01*
X0229280Y1016900D01*
X0229280Y1017400D01*
X0229780Y1017900D01*
X0230280Y1017900D01*
X0229780Y1017900D02*
X0229280Y1018400D01*
X0229280Y1018900D01*
X0229780Y1019400D01*
X0230780Y1019400D01*
X0231280Y1018900D01*
X0227700Y1012400D02*
X0227700Y1010700D01*
X0222300Y1010700D02*
X0222300Y1012400D01*
X0218600Y1007500D02*
X0213600Y1007500D01*
X0209600Y1007870D02*
X0209600Y1005860D01*
X0209600Y1004180D02*
X0209600Y1002180D01*
X0209600Y1003180D02*
X0206600Y1003180D01*
X0207600Y1004180D01*
X0207600Y1005860D02*
X0207100Y1005860D01*
X0206600Y1006370D01*
X0206600Y1007370D01*
X0207100Y1007870D01*
X0207100Y1009550D02*
X0206600Y1010050D01*
X0206600Y1011050D01*
X0207100Y1011550D01*
X0209100Y1011550D01*
X0209600Y1011050D01*
X0209600Y1010050D01*
X0209100Y1009550D01*
X0209600Y1007870D02*
X0207600Y1005860D01*
X0199520Y1007670D02*
X0199520Y1003340D01*
X0198800Y1000900D02*
X0190800Y1000900D01*
X0190080Y1003340D02*
X0190080Y1007670D01*
X0191650Y1009240D01*
X0197950Y1009240D01*
X0199520Y1007670D01*
X0186940Y1001470D02*
X0186940Y1000470D01*
X0186440Y0999960D01*
X0186940Y1001470D02*
X0186440Y1001970D01*
X0184430Y1001970D01*
X0183930Y1001470D01*
X0183930Y1000470D01*
X0184430Y0999960D01*
X0184430Y0998280D02*
X0184940Y0998280D01*
X0185440Y0997780D01*
X0185440Y0996780D01*
X0185940Y0996280D01*
X0186440Y0996280D01*
X0186940Y0996780D01*
X0186940Y0997780D01*
X0186440Y0998280D01*
X0185940Y0998280D01*
X0185440Y0997780D01*
X0185440Y0996780D02*
X0184940Y0996280D01*
X0184430Y0996280D01*
X0183930Y0996780D01*
X0183930Y0997780D01*
X0184430Y0998280D01*
X0190080Y0995460D02*
X0190080Y0989560D01*
X0199520Y0989560D01*
X0199520Y0995460D01*
X0219820Y1027640D02*
X0222180Y1027640D01*
X0222180Y1032360D02*
X0219820Y1032360D01*
X0219420Y1035250D02*
X0221420Y1035250D01*
X0220420Y1035250D02*
X0220420Y1038250D01*
X0221420Y1037250D01*
X0223100Y1037750D02*
X0223600Y1038250D01*
X0224600Y1038250D01*
X0225100Y1037750D01*
X0225100Y1035750D01*
X0224600Y1035250D01*
X0223600Y1035250D01*
X0223100Y1035750D01*
X0217730Y1035750D02*
X0217230Y1035250D01*
X0216230Y1035250D01*
X0215730Y1035750D01*
X0215730Y1037750D01*
X0216230Y1038250D01*
X0217230Y1038250D01*
X0217730Y1037750D01*
X0217730Y1037250D01*
X0217230Y1036750D01*
X0215730Y1036750D01*
X0251500Y1083000D02*
X0251500Y1084700D01*
X0258400Y1084700D02*
X0258400Y1083000D01*
X0260600Y1083000D02*
X0260600Y1084700D01*
X0267100Y1084900D02*
X0267100Y1083200D01*
X0271410Y1074420D02*
X0271410Y1064980D01*
X0277310Y1064980D01*
X0276930Y1061870D02*
X0276430Y1061370D01*
X0276430Y1060860D01*
X0276930Y1060360D01*
X0276430Y1059860D01*
X0276430Y1059360D01*
X0276930Y1058860D01*
X0277930Y1058860D01*
X0278430Y1059360D01*
X0277430Y1060360D02*
X0276930Y1060360D01*
X0276930Y1061870D02*
X0277930Y1061870D01*
X0278430Y1061370D01*
X0280110Y1061370D02*
X0280110Y1060860D01*
X0280620Y1060360D01*
X0280110Y1059860D01*
X0280110Y1059360D01*
X0280620Y1058860D01*
X0281620Y1058860D01*
X0282120Y1059360D01*
X0281120Y1060360D02*
X0280620Y1060360D01*
X0280110Y1061370D02*
X0280620Y1061870D01*
X0281620Y1061870D01*
X0282120Y1061370D01*
X0283800Y1061370D02*
X0284300Y1061870D01*
X0285300Y1061870D01*
X0285800Y1061370D01*
X0285800Y1059360D01*
X0285300Y1058860D01*
X0284300Y1058860D01*
X0283800Y1059360D01*
X0285190Y1064980D02*
X0289520Y1064980D01*
X0291090Y1066550D01*
X0291090Y1072850D01*
X0289520Y1074420D01*
X0285190Y1074420D01*
X0282750Y1073700D02*
X0282750Y1065700D01*
X0277310Y1074420D02*
X0271410Y1074420D01*
X0283020Y1079440D02*
X0285380Y1079440D01*
X0285380Y1084160D02*
X0283020Y1084160D01*
X0286050Y1086980D02*
X0285550Y1087480D01*
X0285550Y1088480D01*
X0286050Y1088980D01*
X0286050Y1090660D02*
X0286550Y1090660D01*
X0287050Y1091170D01*
X0287550Y1090660D01*
X0288050Y1090660D01*
X0288550Y1091170D01*
X0288550Y1092170D01*
X0288050Y1092670D01*
X0287050Y1091670D02*
X0287050Y1091170D01*
X0286050Y1090660D02*
X0285550Y1091170D01*
X0285550Y1092170D01*
X0286050Y1092670D01*
X0286050Y1094350D02*
X0285550Y1094850D01*
X0285550Y1095850D01*
X0286050Y1096350D01*
X0288050Y1096350D01*
X0288550Y1095850D01*
X0288550Y1094850D01*
X0288050Y1094350D01*
X0288550Y1088980D02*
X0286550Y1086980D01*
X0286050Y1086980D01*
X0288550Y1086980D02*
X0288550Y1088980D01*
X0294040Y1086230D02*
X0294040Y1083870D01*
X0298760Y1083870D02*
X0298760Y1086230D01*
X0301250Y1086420D02*
X0301250Y1085420D01*
X0301750Y1084910D01*
X0302250Y1084910D01*
X0302750Y1085420D01*
X0303250Y1084910D01*
X0303750Y1084910D01*
X0304250Y1085420D01*
X0304250Y1086420D01*
X0303750Y1086920D01*
X0302750Y1085920D02*
X0302750Y1085420D01*
X0301750Y1086920D02*
X0301250Y1086420D01*
X0301750Y1088600D02*
X0301250Y1089100D01*
X0301250Y1090100D01*
X0301750Y1090600D01*
X0303750Y1090600D01*
X0304250Y1090100D01*
X0304250Y1089100D01*
X0303750Y1088600D01*
X0302750Y1083230D02*
X0302750Y1081230D01*
X0304250Y1081730D02*
X0301250Y1081730D01*
X0302750Y1083230D01*
X0266500Y1095630D02*
X0266500Y1096630D01*
X0266000Y1097130D01*
X0265500Y1097130D01*
X0265000Y1096630D01*
X0265000Y1095630D01*
X0265500Y1095130D01*
X0266000Y1095130D01*
X0266500Y1095630D01*
X0265000Y1095630D02*
X0264500Y1095130D01*
X0264000Y1095130D01*
X0263500Y1095630D01*
X0263500Y1096630D01*
X0264000Y1097130D01*
X0264500Y1097130D01*
X0265000Y1096630D01*
X0265500Y1098820D02*
X0266000Y1098820D01*
X0266500Y1099320D01*
X0266500Y1100320D01*
X0266000Y1100820D01*
X0265500Y1100820D01*
X0265000Y1100320D01*
X0265000Y1099320D01*
X0265500Y1098820D01*
X0265000Y1099320D02*
X0264500Y1098820D01*
X0264000Y1098820D01*
X0263500Y1099320D01*
X0263500Y1100320D01*
X0264000Y1100820D01*
X0264500Y1100820D01*
X0265000Y1100320D01*
X0265000Y1102500D02*
X0265500Y1103000D01*
X0265500Y1104500D01*
X0266500Y1104500D02*
X0263500Y1104500D01*
X0263500Y1103000D01*
X0264000Y1102500D01*
X0265000Y1102500D01*
X0265500Y1103500D02*
X0266500Y1102500D01*
X0256300Y1102000D02*
X0253300Y1102000D01*
X0253300Y1100500D01*
X0253800Y1100000D01*
X0254800Y1100000D01*
X0255300Y1100500D01*
X0255300Y1102000D01*
X0255300Y1101000D02*
X0256300Y1100000D01*
X0255800Y1098320D02*
X0255300Y1098320D01*
X0254800Y1097820D01*
X0254800Y1096820D01*
X0255300Y1096320D01*
X0255800Y1096320D01*
X0256300Y1096820D01*
X0256300Y1097820D01*
X0255800Y1098320D01*
X0254800Y1097820D02*
X0254300Y1098320D01*
X0253800Y1098320D01*
X0253300Y1097820D01*
X0253300Y1096820D01*
X0253800Y1096320D01*
X0254300Y1096320D01*
X0254800Y1096820D01*
X0255800Y1094630D02*
X0253800Y1092630D01*
X0253300Y1092630D01*
X0253300Y1094630D01*
X0255800Y1094630D02*
X0256300Y1094630D01*
X0113700Y1120480D02*
X0113700Y1122480D01*
X0111700Y1120480D01*
X0111200Y1120480D01*
X0110700Y1120980D01*
X0110700Y1121980D01*
X0111200Y1122480D01*
X0110700Y1125170D02*
X0113700Y1125170D01*
X0113700Y1126170D02*
X0113700Y1124160D01*
X0111700Y1126170D02*
X0110700Y1125170D01*
X0111200Y1127850D02*
X0110700Y1128350D01*
X0110700Y1129350D01*
X0111200Y1129850D01*
X0113200Y1129850D01*
X0113700Y1129350D01*
X0113700Y1128350D01*
X0113200Y1127850D01*
X0107500Y1124000D02*
X0102500Y1124000D01*
X0093700Y1192830D02*
X0094200Y1193330D01*
X0094200Y1194330D01*
X0093700Y1194830D01*
X0091700Y1192830D01*
X0093700Y1192830D01*
X0091700Y1192830D02*
X0091200Y1193330D01*
X0091200Y1194330D01*
X0091700Y1194830D01*
X0093700Y1194830D01*
X0092700Y1196520D02*
X0092700Y1198520D01*
X0091200Y1197020D01*
X0094200Y1197020D01*
X0093700Y1200200D02*
X0094200Y1200700D01*
X0094200Y1201700D01*
X0093700Y1202200D01*
X0091700Y1202200D01*
X0091200Y1201700D01*
X0091200Y1200700D01*
X0091700Y1200200D01*
X0097700Y1198500D02*
X0102700Y1198500D01*
D3172*
X0019500Y0859500D02*
X0019500Y1260500D01*
X0428000Y1260500D01*
X0428000Y0859500D01*
X0019500Y0859500D01*
X0440000Y0652500D02*
G75*
%LPD*%
D3323*
X0592200Y0804200D02*
X0591700Y0803700D01*
X0590690Y0803700D01*
X0590190Y0804200D01*
X0588970Y0804200D02*
X0588470Y0803700D01*
X0587470Y0803700D01*
X0586970Y0804200D01*
X0586970Y0806200D01*
X0587470Y0806700D01*
X0588470Y0806700D01*
X0588970Y0806200D01*
X0588970Y0805700D01*
X0588470Y0805200D01*
X0586970Y0805200D01*
X0590190Y0806200D02*
X0590690Y0806700D01*
X0591700Y0806700D01*
X0592200Y0806200D01*
X0592200Y0804200D01*
X0581200Y0814670D02*
X0581200Y0816670D01*
X0581200Y0815670D02*
X0578200Y0815670D01*
X0579200Y0816670D01*
X0581200Y0817890D02*
X0581200Y0819900D01*
X0581200Y0818890D02*
X0578200Y0818890D01*
X0579200Y0819900D01*
X0578700Y0821120D02*
X0578200Y0821620D01*
X0578200Y0822620D01*
X0578700Y0823120D01*
X0580700Y0823120D01*
X0581200Y0822620D01*
X0581200Y0821620D01*
X0580700Y0821120D01*
X0575050Y0826000D02*
X0574550Y0825500D01*
X0573550Y0825500D01*
X0573050Y0826000D01*
X0571830Y0825500D02*
X0569830Y0825500D01*
X0570830Y0825500D02*
X0570830Y0828500D01*
X0571830Y0827500D01*
X0573050Y0828000D02*
X0573550Y0828500D01*
X0574550Y0828500D01*
X0575050Y0828000D01*
X0575050Y0826000D01*
X0568600Y0826000D02*
X0568100Y0825500D01*
X0567100Y0825500D01*
X0566600Y0826000D01*
X0566600Y0828000D01*
X0568600Y0826000D01*
X0568600Y0828000D01*
X0568100Y0828500D01*
X0567100Y0828500D01*
X0566600Y0828000D01*
X0558500Y0828570D02*
X0558500Y0829570D01*
X0558000Y0830070D01*
X0558000Y0831290D02*
X0558500Y0831790D01*
X0558500Y0832800D01*
X0558000Y0833300D01*
X0556000Y0833300D01*
X0555500Y0832800D01*
X0555500Y0831790D01*
X0556000Y0831290D01*
X0556000Y0830070D02*
X0555500Y0829570D01*
X0555500Y0828570D01*
X0556000Y0828070D01*
X0556500Y0828070D01*
X0557000Y0828570D01*
X0557500Y0828070D01*
X0558000Y0828070D01*
X0558500Y0828570D01*
X0557000Y0828570D02*
X0557000Y0829070D01*
X0565200Y0845700D02*
X0566200Y0845700D01*
X0566700Y0846200D01*
X0567930Y0845700D02*
X0569930Y0845700D01*
X0567930Y0847700D01*
X0567930Y0848200D01*
X0568430Y0848700D01*
X0569430Y0848700D01*
X0569930Y0848200D01*
X0571150Y0848200D02*
X0571650Y0848700D01*
X0572650Y0848700D01*
X0573150Y0848200D01*
X0573150Y0846200D01*
X0572650Y0845700D01*
X0571650Y0845700D01*
X0571150Y0846200D01*
X0566700Y0848200D02*
X0566200Y0848700D01*
X0565200Y0848700D01*
X0564700Y0848200D01*
X0564700Y0847700D01*
X0565200Y0847200D01*
X0564700Y0846700D01*
X0564700Y0846200D01*
X0565200Y0845700D01*
X0565200Y0847200D02*
X0565700Y0847200D01*
X0585830Y0848090D02*
X0587830Y0848090D01*
X0586330Y0849590D01*
X0586330Y0846590D01*
X0589050Y0847090D02*
X0589550Y0846590D01*
X0590550Y0846590D01*
X0591050Y0847090D01*
X0591050Y0849090D01*
X0590550Y0849590D01*
X0589550Y0849590D01*
X0589050Y0849090D01*
X0549300Y0914130D02*
X0549300Y0916130D01*
X0547300Y0914130D01*
X0546800Y0914130D01*
X0546300Y0914630D01*
X0546300Y0915630D01*
X0546800Y0916130D01*
X0546800Y0917350D02*
X0546300Y0917850D01*
X0546300Y0918850D01*
X0546800Y0919350D01*
X0548800Y0919350D01*
X0549300Y0918850D01*
X0549300Y0917850D01*
X0548800Y0917350D01*
X0548780Y0925850D02*
X0550780Y0925850D01*
X0549780Y0925850D02*
X0549780Y0928850D01*
X0550780Y0927850D01*
X0552000Y0927350D02*
X0552500Y0926850D01*
X0554000Y0926850D01*
X0554000Y0925850D02*
X0554000Y0928850D01*
X0552500Y0928850D01*
X0552000Y0928350D01*
X0552000Y0927350D01*
X0553000Y0926850D02*
X0552000Y0925850D01*
X0547550Y0926350D02*
X0547050Y0925850D01*
X0546050Y0925850D01*
X0545550Y0926350D01*
X0545550Y0927350D01*
X0546050Y0927850D01*
X0546550Y0927850D01*
X0547550Y0927350D01*
X0547550Y0928850D01*
X0545550Y0928850D01*
X0488100Y0929850D02*
X0485100Y0929850D01*
X0485100Y0928350D01*
X0485600Y0927850D01*
X0486600Y0927850D01*
X0487100Y0928350D01*
X0487100Y0929850D01*
X0487100Y0928850D02*
X0488100Y0927850D01*
X0488100Y0926630D02*
X0486100Y0924630D01*
X0485600Y0924630D01*
X0485100Y0925130D01*
X0485100Y0926130D01*
X0485600Y0926630D01*
X0488100Y0926630D02*
X0488100Y0924630D01*
X0487600Y0923400D02*
X0488100Y0922900D01*
X0488100Y0921900D01*
X0487600Y0921400D01*
X0486600Y0921400D01*
X0486100Y0921900D01*
X0486100Y0922400D01*
X0486600Y0923400D01*
X0485100Y0923400D01*
X0485100Y0921400D01*
X0526950Y0742900D02*
X0527950Y0742900D01*
X0528450Y0742400D01*
X0529680Y0742400D02*
X0530180Y0742900D01*
X0531180Y0742900D01*
X0531680Y0742400D01*
X0532900Y0742400D02*
X0533400Y0742900D01*
X0534400Y0742900D01*
X0534900Y0742400D01*
X0534900Y0740400D01*
X0534400Y0739900D01*
X0533400Y0739900D01*
X0532900Y0740400D01*
X0531680Y0739900D02*
X0529680Y0741900D01*
X0529680Y0742400D01*
X0529680Y0739900D02*
X0531680Y0739900D01*
X0528450Y0739900D02*
X0526450Y0741900D01*
X0526450Y0742400D01*
X0526950Y0742900D01*
X0526450Y0739900D02*
X0528450Y0739900D01*
X0512850Y0736500D02*
X0512850Y0734500D01*
X0512350Y0734000D01*
X0511350Y0734000D01*
X0510850Y0734500D01*
X0509630Y0734000D02*
X0507630Y0734000D01*
X0508630Y0734000D02*
X0508630Y0737000D01*
X0509630Y0736000D01*
X0510850Y0736500D02*
X0511350Y0737000D01*
X0512350Y0737000D01*
X0512850Y0736500D01*
X0506400Y0736500D02*
X0505900Y0737000D01*
X0504900Y0737000D01*
X0504400Y0736500D01*
X0504400Y0736000D01*
X0504900Y0735500D01*
X0504400Y0735000D01*
X0504400Y0734500D01*
X0504900Y0734000D01*
X0505900Y0734000D01*
X0506400Y0734500D01*
X0505400Y0735500D02*
X0504900Y0735500D01*
X0555830Y0736200D02*
X0556330Y0735700D01*
X0557330Y0735700D01*
X0557830Y0736200D01*
X0557830Y0737200D02*
X0556830Y0737700D01*
X0556330Y0737700D01*
X0555830Y0737200D01*
X0555830Y0736200D01*
X0557830Y0737200D02*
X0557830Y0738700D01*
X0555830Y0738700D01*
X0559050Y0738200D02*
X0559550Y0738700D01*
X0560550Y0738700D01*
X0561050Y0738200D01*
X0561050Y0736200D01*
X0560550Y0735700D01*
X0559550Y0735700D01*
X0559050Y0736200D01*
X0738500Y0923200D02*
X0739000Y0923200D01*
X0741000Y0925200D01*
X0741500Y0925200D01*
X0741500Y0926430D02*
X0741500Y0928430D01*
X0741500Y0927430D02*
X0738500Y0927430D01*
X0739500Y0928430D01*
X0739000Y0929650D02*
X0738500Y0930150D01*
X0738500Y0931150D01*
X0739000Y0931650D01*
X0741000Y0931650D01*
X0741500Y0931150D01*
X0741500Y0930150D01*
X0741000Y0929650D01*
X0738500Y0925200D02*
X0738500Y0923200D01*
X0753530Y0938790D02*
X0754530Y0938790D01*
X0755030Y0939290D01*
X0755030Y0939790D01*
X0754530Y0940290D01*
X0753530Y0940290D01*
X0753030Y0939790D01*
X0753030Y0939290D01*
X0753530Y0938790D01*
X0753530Y0940290D02*
X0753030Y0940790D01*
X0753030Y0941290D01*
X0753530Y0941790D01*
X0754530Y0941790D01*
X0755030Y0941290D01*
X0755030Y0940790D01*
X0754530Y0940290D01*
X0756250Y0941290D02*
X0756750Y0941790D01*
X0757750Y0941790D01*
X0758250Y0941290D01*
X0758250Y0939290D01*
X0757750Y0938790D01*
X0756750Y0938790D01*
X0756250Y0939290D01*
D3172*
X0830000Y0652500D02*
X0440000Y0652500D01*
X0440000Y0923500D01*
X0449000Y0923500D01*
X0449390Y0923520D01*
X0449780Y0923580D01*
X0450160Y0923670D01*
X0450530Y0923800D01*
X0450890Y0923970D01*
X0451220Y0924170D01*
X0451540Y0924410D01*
X0451830Y0924670D01*
X0452090Y0924960D01*
X0452330Y0925280D01*
X0452530Y0925610D01*
X0452700Y0925970D01*
X0452830Y0926340D01*
X0452920Y0926720D01*
X0452980Y0927110D01*
X0453000Y0927500D01*
X0452980Y0927890D01*
X0452920Y0928280D01*
X0452830Y0928660D01*
X0452700Y0929030D01*
X0452530Y0929390D01*
X0452330Y0929720D01*
X0452090Y0930040D01*
X0451830Y0930330D01*
X0451540Y0930590D01*
X0451220Y0930830D01*
X0450890Y0931030D01*
X0450530Y0931200D01*
X0450160Y0931330D01*
X0449780Y0931420D01*
X0449390Y0931480D01*
X0449000Y0931500D01*
X0440000Y0931500D01*
X0440000Y0957500D01*
X0830000Y0957500D01*
X0830000Y0931500D01*
X0820000Y0931500D01*
X0819610Y0931480D01*
X0819220Y0931420D01*
X0818840Y0931330D01*
X0818470Y0931200D01*
X0818110Y0931030D01*
X0817780Y0930830D01*
X0817460Y0930590D01*
X0817170Y0930330D01*
X0816910Y0930040D01*
X0816670Y0929720D01*
X0816470Y0929390D01*
X0816300Y0929030D01*
X0816170Y0928660D01*
X0816080Y0928280D01*
X0816020Y0927890D01*
X0816000Y0927500D01*
X0816020Y0927110D01*
X0816080Y0926720D01*
X0816170Y0926340D01*
X0816300Y0925970D01*
X0816470Y0925610D01*
X0816670Y0925280D01*
X0816910Y0924960D01*
X0817170Y0924670D01*
X0817460Y0924410D01*
X0817780Y0924170D01*
X0818110Y0923970D01*
X0818470Y0923800D01*
X0818840Y0923670D01*
X0819220Y0923580D01*
X0819610Y0923520D01*
X0820000Y0923500D01*
X0830000Y0923500D01*
X0830000Y0652500D01*
X0593820Y0824160D02*
X0593820Y0830060D01*
X0593100Y0835500D02*
X0585100Y0835500D01*
X0584380Y0837940D02*
X0584380Y0842270D01*
X0585950Y0843840D01*
X0592250Y0843840D01*
X0593820Y0842270D01*
X0593820Y0837940D01*
X0584380Y0830060D02*
X0584380Y0824160D01*
X0593820Y0824160D01*
X0588880Y0822060D02*
X0586520Y0822060D01*
X0586520Y0817340D02*
X0588880Y0817340D01*
X0588120Y0813160D02*
X0590480Y0813160D01*
X0590480Y0808440D02*
X0588120Y0808440D01*
X0571960Y0817720D02*
X0571960Y0820080D01*
X0567240Y0820080D02*
X0567240Y0817720D01*
X0565060Y0829020D02*
X0565060Y0831380D01*
X0560340Y0831380D02*
X0560340Y0829020D01*
X0568420Y0838840D02*
X0570780Y0838840D01*
X0570780Y0843560D02*
X0568420Y0843560D01*
X0554400Y0916900D02*
X0552500Y0916900D01*
X0550680Y0930490D02*
X0548320Y0930490D01*
X0548320Y0935210D02*
X0550680Y0935210D01*
X0494860Y0928080D02*
X0494860Y0925720D01*
X0490140Y0925720D02*
X0490140Y0928080D01*
X0529970Y0737860D02*
X0532330Y0737860D01*
X0532330Y0733140D02*
X0529970Y0733140D01*
X0510380Y0731960D02*
X0508020Y0731960D01*
X0508020Y0727240D02*
X0510380Y0727240D01*
X0557220Y0728740D02*
X0559580Y0728740D01*
X0559580Y0733460D02*
X0557220Y0733460D01*
X0751780Y0916860D02*
X0761220Y0916860D01*
X0761220Y0922760D01*
X0760500Y0928200D02*
X0752500Y0928200D01*
X0751780Y0930640D02*
X0751780Y0934970D01*
X0753350Y0936540D01*
X0759650Y0936540D01*
X0761220Y0934970D01*
X0761220Y0930640D01*
X0751780Y0922760D02*
X0751780Y0916860D01*
X0748760Y0927020D02*
X0748760Y0929380D01*
X0744040Y0929380D02*
X0744040Y0927020D01*
D3172*
X0439500Y0652000D02*
X0439500Y0958000D01*
X0830500Y0958000D01*
X0830500Y0652000D01*
X0439500Y0652000D01*
X0440000Y0970000D02*
G75*
%LPD*%
D3172*
X0830000Y0970000D02*
X0440000Y0970000D01*
X0440000Y1241000D01*
X0449000Y1241000D01*
X0449390Y1241020D01*
X0449780Y1241080D01*
X0450160Y1241170D01*
X0450530Y1241300D01*
X0450890Y1241470D01*
X0451220Y1241670D01*
X0451540Y1241910D01*
X0451830Y1242170D01*
X0452090Y1242460D01*
X0452330Y1242780D01*
X0452530Y1243110D01*
X0452700Y1243470D01*
X0452830Y1243840D01*
X0452920Y1244220D01*
X0452980Y1244610D01*
X0453000Y1245000D01*
X0452980Y1245390D01*
X0452920Y1245780D01*
X0452830Y1246160D01*
X0452700Y1246530D01*
X0452530Y1246890D01*
X0452330Y1247220D01*
X0452090Y1247540D01*
X0451830Y1247830D01*
X0451540Y1248090D01*
X0451220Y1248330D01*
X0450890Y1248530D01*
X0450530Y1248700D01*
X0450160Y1248830D01*
X0449780Y1248920D01*
X0449390Y1248980D01*
X0449000Y1249000D01*
X0440000Y1249000D01*
X0440000Y1275000D01*
X0830000Y1275000D01*
X0830000Y1249000D01*
X0820000Y1249000D01*
X0819610Y1248980D01*
X0819220Y1248920D01*
X0818840Y1248830D01*
X0818470Y1248700D01*
X0818110Y1248530D01*
X0817780Y1248330D01*
X0817460Y1248090D01*
X0817170Y1247830D01*
X0816910Y1247540D01*
X0816670Y1247220D01*
X0816470Y1246890D01*
X0816300Y1246530D01*
X0816170Y1246160D01*
X0816080Y1245780D01*
X0816020Y1245390D01*
X0816000Y1245000D01*
X0816020Y1244610D01*
X0816080Y1244220D01*
X0816170Y1243840D01*
X0816300Y1243470D01*
X0816470Y1243110D01*
X0816670Y1242780D01*
X0816910Y1242460D01*
X0817170Y1242170D01*
X0817460Y1241910D01*
X0817780Y1241670D01*
X0818110Y1241470D01*
X0818470Y1241300D01*
X0818840Y1241170D01*
X0819220Y1241080D01*
X0819610Y1241020D01*
X0820000Y1241000D01*
X0830000Y1241000D01*
X0830000Y0970000D01*
X0665000Y1134970D02*
X0664330Y1134300D01*
X0663000Y1134300D01*
X0662330Y1134970D01*
X0660390Y1134300D02*
X0657720Y1136970D01*
X0657720Y1137640D01*
X0658390Y1138310D01*
X0659730Y1138310D01*
X0660390Y1137640D01*
X0662330Y1137640D02*
X0663000Y1138310D01*
X0664330Y1138310D01*
X0665000Y1137640D01*
X0665000Y1134970D01*
X0660390Y1134300D02*
X0657720Y1134300D01*
X0682790Y1146960D02*
X0686800Y1146960D01*
X0686800Y1145630D02*
X0686800Y1148300D01*
X0686130Y1150230D02*
X0686800Y1150900D01*
X0686800Y1152230D01*
X0686130Y1152900D01*
X0683460Y1152900D01*
X0682790Y1152230D01*
X0682790Y1150900D01*
X0683460Y1150230D01*
X0684130Y1148300D02*
X0682790Y1146960D01*
X0584350Y1212690D02*
X0583680Y1212030D01*
X0581010Y1212030D01*
X0580340Y1212690D01*
X0580340Y1214030D01*
X0581010Y1214690D01*
X0581680Y1214690D01*
X0582350Y1214030D01*
X0582350Y1212030D01*
X0584350Y1212690D02*
X0584350Y1214030D01*
X0583680Y1214690D01*
X0584350Y1216630D02*
X0584350Y1219300D01*
X0584350Y1217960D02*
X0580340Y1217960D01*
X0581680Y1219300D01*
X0581010Y1221230D02*
X0580340Y1221900D01*
X0580340Y1223230D01*
X0581010Y1223900D01*
X0583680Y1223900D01*
X0584350Y1223230D01*
X0584350Y1221900D01*
X0583680Y1221230D01*
X0578360Y1219180D02*
X0578360Y1216820D01*
X0573630Y1216820D02*
X0573630Y1219180D01*
X0484330Y1127510D02*
X0485000Y1126840D01*
X0485000Y1125510D01*
X0484330Y1124840D01*
X0480990Y1124840D01*
X0480990Y1122910D02*
X0480990Y1120240D01*
X0481660Y1120240D01*
X0484330Y1122910D01*
X0485000Y1122910D01*
X0488000Y1123000D02*
X0488000Y1108800D01*
X0490200Y1119230D02*
X0490050Y1119250D01*
X0489920Y1119310D01*
X0489800Y1119400D01*
X0489710Y1119510D01*
X0489650Y1119650D01*
X0489630Y1119800D01*
X0489650Y1119950D01*
X0489710Y1120080D01*
X0489800Y1120200D01*
X0489910Y1120290D01*
X0490050Y1120350D01*
X0490200Y1120370D01*
X0490350Y1120350D01*
X0490480Y1120290D01*
X0490600Y1120200D01*
X0490690Y1120090D01*
X0490750Y1119950D01*
X0490770Y1119800D01*
X0490750Y1119650D01*
X0490690Y1119520D01*
X0490600Y1119400D01*
X0490490Y1119310D01*
X0490350Y1119250D01*
X0490200Y1119230D01*
X0484330Y1127510D02*
X0480990Y1127510D01*
X0506600Y1123000D02*
X0506600Y1108800D01*
X0483180Y1095060D02*
X0480820Y1095060D01*
X0480820Y1090340D02*
X0483180Y1090340D01*
X0483070Y1087360D02*
X0483070Y1083350D01*
X0484400Y1083350D02*
X0481740Y1083350D01*
X0479800Y1084020D02*
X0479130Y1083350D01*
X0477800Y1083350D01*
X0477130Y1084020D01*
X0477130Y1084690D01*
X0477800Y1085350D01*
X0479800Y1085350D01*
X0479800Y1084020D01*
X0479800Y1085350D02*
X0478470Y1086690D01*
X0477130Y1087360D01*
X0483070Y1087360D02*
X0484400Y1086020D01*
X0486340Y1086690D02*
X0487010Y1087360D01*
X0488340Y1087360D01*
X0489010Y1086690D01*
X0489010Y1084020D01*
X0488340Y1083350D01*
X0487010Y1083350D01*
X0486340Y1084020D01*
X0491720Y1084600D02*
X0494390Y1084600D01*
X0493050Y1084600D02*
X0493050Y1088610D01*
X0494390Y1087270D01*
X0496320Y1086600D02*
X0498990Y1086600D01*
X0496990Y1088610D01*
X0496990Y1084600D01*
X0500930Y1084600D02*
X0502260Y1085940D01*
X0501600Y1085940D02*
X0503600Y1085940D01*
X0503600Y1084600D02*
X0503600Y1088610D01*
X0501600Y1088610D01*
X0500930Y1087940D01*
X0500930Y1086600D01*
X0501600Y1085940D01*
X0570340Y1084330D02*
X0571010Y1085000D01*
X0570340Y1084330D02*
X0570340Y1083000D01*
X0571010Y1082330D01*
X0571680Y1082330D01*
X0574350Y1085000D01*
X0574350Y1082330D01*
X0573680Y1080390D02*
X0571010Y1077730D01*
X0573680Y1077730D01*
X0574350Y1078390D01*
X0574350Y1079730D01*
X0573680Y1080390D01*
X0571010Y1080390D01*
X0570340Y1079730D01*
X0570340Y1078390D01*
X0571010Y1077730D01*
X0576630Y1083320D02*
X0576630Y1085680D01*
X0574350Y1087600D02*
X0573680Y1086930D01*
X0574350Y1087600D02*
X0574350Y1088930D01*
X0573680Y1089600D01*
X0571010Y1089600D01*
X0570340Y1088930D01*
X0570340Y1087600D01*
X0571010Y1086930D01*
X0581360Y1085680D02*
X0581360Y1083320D01*
X0707660Y1229130D02*
X0710330Y1229130D01*
X0711000Y1229790D01*
X0711000Y1231130D01*
X0710330Y1231790D01*
X0709000Y1231130D02*
X0709000Y1229130D01*
X0707660Y1229130D02*
X0706990Y1229790D01*
X0706990Y1231130D01*
X0707660Y1231790D01*
X0708330Y1231790D01*
X0709000Y1231130D01*
X0709660Y1233730D02*
X0710330Y1233730D01*
X0711000Y1234400D01*
X0711000Y1235730D01*
X0710330Y1236400D01*
X0709000Y1235060D02*
X0709000Y1234400D01*
X0709660Y1233730D01*
X0709000Y1234400D02*
X0708330Y1233730D01*
X0707660Y1233730D01*
X0706990Y1234400D01*
X0706990Y1235730D01*
X0707660Y1236400D01*
X0707660Y1238330D02*
X0709000Y1238330D01*
X0709660Y1239000D01*
X0709660Y1241000D01*
X0709660Y1239670D02*
X0711000Y1238330D01*
X0711000Y1241000D02*
X0706990Y1241000D01*
X0706990Y1239000D01*
X0707660Y1238330D01*
X0717890Y1239000D02*
X0718560Y1238330D01*
X0719900Y1238330D01*
X0720560Y1239000D01*
X0720560Y1241000D01*
X0720560Y1239670D02*
X0721900Y1238330D01*
X0721900Y1241000D02*
X0717890Y1241000D01*
X0717890Y1239000D01*
X0719900Y1236400D02*
X0719900Y1233730D01*
X0721900Y1234400D02*
X0717890Y1234400D01*
X0719900Y1236400D01*
X0721230Y1231790D02*
X0721900Y1231130D01*
X0721900Y1229790D01*
X0721230Y1229130D01*
X0718560Y1229130D01*
X0721230Y1231790D01*
X0718560Y1231790D01*
X0717890Y1231130D01*
X0717890Y1229790D01*
X0718560Y1229130D01*
D1711*
X0717200Y1248100D02*
X0717200Y1250000D01*
X0711600Y1250000D02*
X0711600Y1248100D01*
X0706300Y1248000D02*
X0706300Y1249900D01*
X0722600Y1250000D02*
X0722600Y1248100D01*
X0679000Y1149500D02*
X0677100Y1149500D01*
X0661500Y1129600D02*
X0661500Y1127700D01*
X0498200Y1096700D02*
X0496300Y1096700D01*
X0496300Y1091000D02*
X0498200Y1091000D01*
D3172*
X0439500Y0969500D02*
X0439500Y1275500D01*
X0830500Y1275500D01*
X0830500Y0969500D01*
X0439500Y0969500D01*
D3172*
X0023000Y0010500D02*
X0010500Y0010500D01*
X0010500Y0023000D01*
X0842000Y0023000D02*
X0842000Y0010500D01*
X0829500Y0010500D01*
X0829500Y1284500D02*
X0842000Y1284500D01*
X0842000Y1272000D01*
X0010500Y1272000D02*
X0010500Y1284500D01*
X0023000Y1284500D01*
M02*
