G75*
G70*
%OFA0B0*%
%FSLAX25Y25*%
%IPPOS*%
%LPD*%
%AMOC8*
5,1,8,0,0,1.08239X$1,22.5*
%
%ADD434C,0.00000*%
%ADD559C,0.00500*%
X0020000Y0020000D02*
G75*
%LPD*%
D559*
X0410000Y0020000D02*
X0020000Y0020000D01*
X0020000Y0291000D01*
X0029000Y0291000D01*
X0029390Y0291020D01*
X0029780Y0291080D01*
X0030160Y0291170D01*
X0030530Y0291300D01*
X0030890Y0291470D01*
X0031220Y0291670D01*
X0031540Y0291910D01*
X0031830Y0292170D01*
X0032090Y0292460D01*
X0032330Y0292780D01*
X0032530Y0293110D01*
X0032700Y0293470D01*
X0032830Y0293840D01*
X0032920Y0294220D01*
X0032980Y0294610D01*
X0033000Y0295000D01*
X0032980Y0295390D01*
X0032920Y0295780D01*
X0032830Y0296160D01*
X0032700Y0296530D01*
X0032530Y0296890D01*
X0032330Y0297220D01*
X0032090Y0297540D01*
X0031830Y0297830D01*
X0031540Y0298090D01*
X0031220Y0298330D01*
X0030890Y0298530D01*
X0030530Y0298700D01*
X0030160Y0298830D01*
X0029780Y0298920D01*
X0029390Y0298980D01*
X0029000Y0299000D01*
X0020000Y0299000D01*
X0020000Y0325000D01*
X0410000Y0325000D01*
X0410000Y0299000D01*
X0400000Y0299000D01*
X0399610Y0298980D01*
X0399220Y0298920D01*
X0398840Y0298830D01*
X0398470Y0298700D01*
X0398110Y0298530D01*
X0397780Y0298330D01*
X0397460Y0298090D01*
X0397170Y0297830D01*
X0396910Y0297540D01*
X0396670Y0297220D01*
X0396470Y0296890D01*
X0396300Y0296530D01*
X0396170Y0296160D01*
X0396080Y0295780D01*
X0396020Y0295390D01*
X0396000Y0295000D01*
X0396020Y0294610D01*
X0396080Y0294220D01*
X0396170Y0293840D01*
X0396300Y0293470D01*
X0396470Y0293110D01*
X0396670Y0292780D01*
X0396910Y0292460D01*
X0397170Y0292170D01*
X0397460Y0291910D01*
X0397780Y0291670D01*
X0398110Y0291470D01*
X0398470Y0291300D01*
X0398840Y0291170D01*
X0399220Y0291080D01*
X0399610Y0291020D01*
X0400000Y0291000D01*
X0410000Y0291000D01*
X0410000Y0020000D01*
X0020000Y0337500D02*
G75*
%LPD*%
D559*
X0052500Y0352740D02*
X0052500Y0629610D01*
X0052480Y0630690D01*
X0052420Y0631780D01*
X0052330Y0632860D01*
X0052190Y0633930D01*
X0052020Y0635010D01*
X0051810Y0636070D01*
X0051560Y0637130D01*
X0051270Y0638170D01*
X0050940Y0639210D01*
X0050580Y0640230D01*
X0050190Y0641240D01*
X0049750Y0642230D01*
X0049290Y0643210D01*
X0048780Y0644170D01*
X0048250Y0645120D01*
X0047680Y0646040D01*
X0047070Y0646940D01*
X0046440Y0647820D01*
X0045770Y0648680D01*
X0045080Y0649510D01*
X0044350Y0650320D01*
X0043600Y0651100D01*
X0042820Y0651850D01*
X0042010Y0652580D01*
X0041180Y0653270D01*
X0040320Y0653940D01*
X0039440Y0654570D01*
X0038540Y0655180D01*
X0037620Y0655750D01*
X0036670Y0656280D01*
X0035710Y0656790D01*
X0034730Y0657250D01*
X0033740Y0657690D01*
X0032730Y0658080D01*
X0031710Y0658440D01*
X0030670Y0658770D01*
X0029630Y0659060D01*
X0028570Y0659310D01*
X0027510Y0659520D01*
X0026430Y0659690D01*
X0025360Y0659830D01*
X0024280Y0659920D01*
X0023190Y0659980D01*
X0022110Y0660000D01*
X0020000Y0660000D01*
X0020000Y0745000D01*
X0420000Y0745000D01*
X0420000Y0660000D01*
X0417780Y0660000D01*
X0416700Y0659980D01*
X0415620Y0659920D01*
X0414540Y0659830D01*
X0413470Y0659690D01*
X0412400Y0659520D01*
X0411340Y0659310D01*
X0410290Y0659060D01*
X0409250Y0658770D01*
X0408220Y0658450D01*
X0407200Y0658090D01*
X0406190Y0657700D01*
X0405200Y0657260D01*
X0404230Y0656800D01*
X0403270Y0656300D01*
X0402330Y0655760D01*
X0401410Y0655190D01*
X0400510Y0654590D01*
X0399640Y0653960D01*
X0398780Y0653300D01*
X0397960Y0652600D01*
X0397150Y0651880D01*
X0396370Y0651130D01*
X0395620Y0650350D01*
X0394900Y0649550D01*
X0394210Y0648720D01*
X0393550Y0647870D01*
X0392910Y0646990D01*
X0392310Y0646090D01*
X0391750Y0645170D01*
X0391210Y0644230D01*
X0390710Y0643280D01*
X0390240Y0642300D01*
X0389810Y0641310D01*
X0389420Y0640300D01*
X0389060Y0639280D01*
X0388730Y0638250D01*
X0388450Y0637210D01*
X0388200Y0636160D01*
X0387990Y0635100D01*
X0387820Y0634030D01*
X0387680Y0632960D01*
X0387590Y0631880D01*
X0387530Y0630800D01*
X0387510Y0629720D01*
X0387510Y0629730D02*
X0387600Y0352820D01*
X0387590Y0352810D02*
X0387570Y0352040D01*
X0387510Y0351260D01*
X0387410Y0350490D01*
X0387280Y0349730D01*
X0387100Y0348970D01*
X0386890Y0348230D01*
X0386640Y0347490D01*
X0386350Y0346770D01*
X0386030Y0346070D01*
X0385670Y0345380D01*
X0385270Y0344710D01*
X0384850Y0344060D01*
X0384390Y0343440D01*
X0383900Y0342840D01*
X0383380Y0342260D01*
X0382830Y0341710D01*
X0382250Y0341190D01*
X0381650Y0340700D01*
X0381030Y0340240D01*
X0380380Y0339820D01*
X0379710Y0339420D01*
X0379020Y0339060D01*
X0378320Y0338740D01*
X0377600Y0338450D01*
X0376860Y0338200D01*
X0376120Y0337990D01*
X0375360Y0337810D01*
X0374600Y0337680D01*
X0373830Y0337580D01*
X0373050Y0337520D01*
X0372280Y0337500D01*
X0067740Y0337500D01*
X0066970Y0337520D01*
X0066200Y0337580D01*
X0065430Y0337680D01*
X0064670Y0337810D01*
X0063920Y0337990D01*
X0063180Y0338200D01*
X0062450Y0338450D01*
X0061730Y0338740D01*
X0061030Y0339060D01*
X0060340Y0339410D01*
X0059680Y0339810D01*
X0059030Y0340230D01*
X0058410Y0340690D01*
X0057810Y0341180D01*
X0057240Y0341690D01*
X0056690Y0342240D01*
X0056180Y0342810D01*
X0055690Y0343410D01*
X0055230Y0344030D01*
X0054810Y0344680D01*
X0054410Y0345340D01*
X0054060Y0346030D01*
X0053740Y0346730D01*
X0053450Y0347450D01*
X0053200Y0348180D01*
X0052990Y0348920D01*
X0052810Y0349670D01*
X0052680Y0350430D01*
X0052580Y0351200D01*
X0052520Y0351970D01*
X0052500Y0352740D01*
D434*
X0126000Y0707500D02*
X0126020Y0708020D01*
X0126080Y0708540D01*
X0126180Y0709060D01*
X0126310Y0709560D01*
X0126480Y0710060D01*
X0126690Y0710540D01*
X0126940Y0711000D01*
X0127220Y0711440D01*
X0127530Y0711860D01*
X0127870Y0712260D01*
X0128240Y0712630D01*
X0128640Y0712970D01*
X0129060Y0713280D01*
X0129500Y0713560D01*
X0129960Y0713810D01*
X0130440Y0714020D01*
X0130940Y0714190D01*
X0131440Y0714320D01*
X0131960Y0714420D01*
X0132480Y0714480D01*
X0133000Y0714500D01*
X0133520Y0714480D01*
X0134040Y0714420D01*
X0134560Y0714320D01*
X0135060Y0714190D01*
X0135560Y0714020D01*
X0136040Y0713810D01*
X0136500Y0713560D01*
X0136940Y0713280D01*
X0137360Y0712970D01*
X0137760Y0712630D01*
X0138130Y0712260D01*
X0138470Y0711860D01*
X0138780Y0711440D01*
X0139060Y0711000D01*
X0139310Y0710540D01*
X0139520Y0710060D01*
X0139690Y0709560D01*
X0139820Y0709060D01*
X0139920Y0708540D01*
X0139980Y0708020D01*
X0140000Y0707500D01*
X0139980Y0706980D01*
X0139920Y0706460D01*
X0139820Y0705940D01*
X0139690Y0705440D01*
X0139520Y0704940D01*
X0139310Y0704460D01*
X0139060Y0704000D01*
X0138780Y0703560D01*
X0138470Y0703140D01*
X0138130Y0702740D01*
X0137760Y0702370D01*
X0137360Y0702030D01*
X0136940Y0701720D01*
X0136500Y0701440D01*
X0136040Y0701190D01*
X0135560Y0700980D01*
X0135060Y0700810D01*
X0134560Y0700680D01*
X0134040Y0700580D01*
X0133520Y0700520D01*
X0133000Y0700500D01*
X0132480Y0700520D01*
X0131960Y0700580D01*
X0131440Y0700680D01*
X0130940Y0700810D01*
X0130440Y0700980D01*
X0129960Y0701190D01*
X0129500Y0701440D01*
X0129060Y0701720D01*
X0128640Y0702030D01*
X0128240Y0702370D01*
X0127870Y0702740D01*
X0127530Y0703140D01*
X0127220Y0703560D01*
X0126940Y0704000D01*
X0126690Y0704460D01*
X0126480Y0704940D01*
X0126310Y0705440D01*
X0126180Y0705940D01*
X0126080Y0706460D01*
X0126020Y0706980D01*
X0126000Y0707500D01*
X0331000Y0707500D02*
X0331020Y0708020D01*
X0331080Y0708540D01*
X0331180Y0709060D01*
X0331310Y0709560D01*
X0331480Y0710060D01*
X0331690Y0710540D01*
X0331940Y0711000D01*
X0332220Y0711440D01*
X0332530Y0711860D01*
X0332870Y0712260D01*
X0333240Y0712630D01*
X0333640Y0712970D01*
X0334060Y0713280D01*
X0334500Y0713560D01*
X0334960Y0713810D01*
X0335440Y0714020D01*
X0335940Y0714190D01*
X0336440Y0714320D01*
X0336960Y0714420D01*
X0337480Y0714480D01*
X0338000Y0714500D01*
X0338520Y0714480D01*
X0339040Y0714420D01*
X0339560Y0714320D01*
X0340060Y0714190D01*
X0340560Y0714020D01*
X0341040Y0713810D01*
X0341500Y0713560D01*
X0341940Y0713280D01*
X0342360Y0712970D01*
X0342760Y0712630D01*
X0343130Y0712260D01*
X0343470Y0711860D01*
X0343780Y0711440D01*
X0344060Y0711000D01*
X0344310Y0710540D01*
X0344520Y0710060D01*
X0344690Y0709560D01*
X0344820Y0709060D01*
X0344920Y0708540D01*
X0344980Y0708020D01*
X0345000Y0707500D01*
X0344980Y0706980D01*
X0344920Y0706460D01*
X0344820Y0705940D01*
X0344690Y0705440D01*
X0344520Y0704940D01*
X0344310Y0704460D01*
X0344060Y0704000D01*
X0343780Y0703560D01*
X0343470Y0703140D01*
X0343130Y0702740D01*
X0342760Y0702370D01*
X0342360Y0702030D01*
X0341940Y0701720D01*
X0341500Y0701440D01*
X0341040Y0701190D01*
X0340560Y0700980D01*
X0340060Y0700810D01*
X0339560Y0700680D01*
X0339040Y0700580D01*
X0338520Y0700520D01*
X0338000Y0700500D01*
X0337480Y0700520D01*
X0336960Y0700580D01*
X0336440Y0700680D01*
X0335940Y0700810D01*
X0335440Y0700980D01*
X0334960Y0701190D01*
X0334500Y0701440D01*
X0334060Y0701720D01*
X0333640Y0702030D01*
X0333240Y0702370D01*
X0332870Y0702740D01*
X0332530Y0703140D01*
X0332220Y0703560D01*
X0331940Y0704000D01*
X0331690Y0704460D01*
X0331480Y0704940D01*
X0331310Y0705440D01*
X0331180Y0705940D01*
X0331080Y0706460D01*
X0331020Y0706980D01*
X0331000Y0707500D01*
X0020000Y0757500D02*
G75*
%LPD*%
D434*
X0020000Y0757500D02*
X0020000Y0957500D01*
X0420000Y0957500D01*
X0420000Y0757500D01*
X0020000Y0757500D01*
X0024490Y0767500D02*
X0024510Y0767970D01*
X0024570Y0768430D01*
X0024670Y0768890D01*
X0024800Y0769340D01*
X0024980Y0769770D01*
X0025190Y0770190D01*
X0025430Y0770590D01*
X0025710Y0770960D01*
X0026020Y0771310D01*
X0026360Y0771640D01*
X0026720Y0771930D01*
X0027110Y0772190D01*
X0027520Y0772420D01*
X0027950Y0772610D01*
X0028390Y0772770D01*
X0028840Y0772890D01*
X0029300Y0772970D01*
X0029770Y0773010D01*
X0030230Y0773010D01*
X0030700Y0772970D01*
X0031160Y0772890D01*
X0031610Y0772770D01*
X0032050Y0772610D01*
X0032480Y0772420D01*
X0032890Y0772190D01*
X0033280Y0771930D01*
X0033640Y0771640D01*
X0033980Y0771310D01*
X0034290Y0770960D01*
X0034570Y0770590D01*
X0034810Y0770190D01*
X0035020Y0769770D01*
X0035200Y0769340D01*
X0035330Y0768890D01*
X0035430Y0768430D01*
X0035490Y0767970D01*
X0035510Y0767500D01*
X0035490Y0767030D01*
X0035430Y0766570D01*
X0035330Y0766110D01*
X0035200Y0765660D01*
X0035020Y0765230D01*
X0034810Y0764810D01*
X0034570Y0764410D01*
X0034290Y0764040D01*
X0033980Y0763690D01*
X0033640Y0763360D01*
X0033280Y0763070D01*
X0032890Y0762810D01*
X0032480Y0762580D01*
X0032050Y0762390D01*
X0031610Y0762230D01*
X0031160Y0762110D01*
X0030700Y0762030D01*
X0030230Y0761990D01*
X0029770Y0761990D01*
X0029300Y0762030D01*
X0028840Y0762110D01*
X0028390Y0762230D01*
X0027950Y0762390D01*
X0027520Y0762580D01*
X0027110Y0762810D01*
X0026720Y0763070D01*
X0026360Y0763360D01*
X0026020Y0763690D01*
X0025710Y0764040D01*
X0025430Y0764410D01*
X0025190Y0764810D01*
X0024980Y0765230D01*
X0024800Y0765660D01*
X0024670Y0766110D01*
X0024570Y0766570D01*
X0024510Y0767030D01*
X0024490Y0767500D01*
X0024490Y0947500D02*
X0024510Y0947970D01*
X0024570Y0948430D01*
X0024670Y0948890D01*
X0024800Y0949340D01*
X0024980Y0949770D01*
X0025190Y0950190D01*
X0025430Y0950590D01*
X0025710Y0950960D01*
X0026020Y0951310D01*
X0026360Y0951640D01*
X0026720Y0951930D01*
X0027110Y0952190D01*
X0027520Y0952420D01*
X0027950Y0952610D01*
X0028390Y0952770D01*
X0028840Y0952890D01*
X0029300Y0952970D01*
X0029770Y0953010D01*
X0030230Y0953010D01*
X0030700Y0952970D01*
X0031160Y0952890D01*
X0031610Y0952770D01*
X0032050Y0952610D01*
X0032480Y0952420D01*
X0032890Y0952190D01*
X0033280Y0951930D01*
X0033640Y0951640D01*
X0033980Y0951310D01*
X0034290Y0950960D01*
X0034570Y0950590D01*
X0034810Y0950190D01*
X0035020Y0949770D01*
X0035200Y0949340D01*
X0035330Y0948890D01*
X0035430Y0948430D01*
X0035490Y0947970D01*
X0035510Y0947500D01*
X0035490Y0947030D01*
X0035430Y0946570D01*
X0035330Y0946110D01*
X0035200Y0945660D01*
X0035020Y0945230D01*
X0034810Y0944810D01*
X0034570Y0944410D01*
X0034290Y0944040D01*
X0033980Y0943690D01*
X0033640Y0943360D01*
X0033280Y0943070D01*
X0032890Y0942810D01*
X0032480Y0942580D01*
X0032050Y0942390D01*
X0031610Y0942230D01*
X0031160Y0942110D01*
X0030700Y0942030D01*
X0030230Y0941990D01*
X0029770Y0941990D01*
X0029300Y0942030D01*
X0028840Y0942110D01*
X0028390Y0942230D01*
X0027950Y0942390D01*
X0027520Y0942580D01*
X0027110Y0942810D01*
X0026720Y0943070D01*
X0026360Y0943360D01*
X0026020Y0943690D01*
X0025710Y0944040D01*
X0025430Y0944410D01*
X0025190Y0944810D01*
X0024980Y0945230D01*
X0024800Y0945660D01*
X0024670Y0946110D01*
X0024570Y0946570D01*
X0024510Y0947030D01*
X0024490Y0947500D01*
X0404490Y0947500D02*
X0404510Y0947970D01*
X0404570Y0948430D01*
X0404670Y0948890D01*
X0404800Y0949340D01*
X0404980Y0949770D01*
X0405190Y0950190D01*
X0405430Y0950590D01*
X0405710Y0950960D01*
X0406020Y0951310D01*
X0406360Y0951640D01*
X0406720Y0951930D01*
X0407110Y0952190D01*
X0407520Y0952420D01*
X0407950Y0952610D01*
X0408390Y0952770D01*
X0408840Y0952890D01*
X0409300Y0952970D01*
X0409770Y0953010D01*
X0410230Y0953010D01*
X0410700Y0952970D01*
X0411160Y0952890D01*
X0411610Y0952770D01*
X0412050Y0952610D01*
X0412480Y0952420D01*
X0412890Y0952190D01*
X0413280Y0951930D01*
X0413640Y0951640D01*
X0413980Y0951310D01*
X0414290Y0950960D01*
X0414570Y0950590D01*
X0414810Y0950190D01*
X0415020Y0949770D01*
X0415200Y0949340D01*
X0415330Y0948890D01*
X0415430Y0948430D01*
X0415490Y0947970D01*
X0415510Y0947500D01*
X0415490Y0947030D01*
X0415430Y0946570D01*
X0415330Y0946110D01*
X0415200Y0945660D01*
X0415020Y0945230D01*
X0414810Y0944810D01*
X0414570Y0944410D01*
X0414290Y0944040D01*
X0413980Y0943690D01*
X0413640Y0943360D01*
X0413280Y0943070D01*
X0412890Y0942810D01*
X0412480Y0942580D01*
X0412050Y0942390D01*
X0411610Y0942230D01*
X0411160Y0942110D01*
X0410700Y0942030D01*
X0410230Y0941990D01*
X0409770Y0941990D01*
X0409300Y0942030D01*
X0408840Y0942110D01*
X0408390Y0942230D01*
X0407950Y0942390D01*
X0407520Y0942580D01*
X0407110Y0942810D01*
X0406720Y0943070D01*
X0406360Y0943360D01*
X0406020Y0943690D01*
X0405710Y0944040D01*
X0405430Y0944410D01*
X0405190Y0944810D01*
X0404980Y0945230D01*
X0404800Y0945660D01*
X0404670Y0946110D01*
X0404570Y0946570D01*
X0404510Y0947030D01*
X0404490Y0947500D01*
X0404490Y0767500D02*
X0404510Y0767970D01*
X0404570Y0768430D01*
X0404670Y0768890D01*
X0404800Y0769340D01*
X0404980Y0769770D01*
X0405190Y0770190D01*
X0405430Y0770590D01*
X0405710Y0770960D01*
X0406020Y0771310D01*
X0406360Y0771640D01*
X0406720Y0771930D01*
X0407110Y0772190D01*
X0407520Y0772420D01*
X0407950Y0772610D01*
X0408390Y0772770D01*
X0408840Y0772890D01*
X0409300Y0772970D01*
X0409770Y0773010D01*
X0410230Y0773010D01*
X0410700Y0772970D01*
X0411160Y0772890D01*
X0411610Y0772770D01*
X0412050Y0772610D01*
X0412480Y0772420D01*
X0412890Y0772190D01*
X0413280Y0771930D01*
X0413640Y0771640D01*
X0413980Y0771310D01*
X0414290Y0770960D01*
X0414570Y0770590D01*
X0414810Y0770190D01*
X0415020Y0769770D01*
X0415200Y0769340D01*
X0415330Y0768890D01*
X0415430Y0768430D01*
X0415490Y0767970D01*
X0415510Y0767500D01*
X0415490Y0767030D01*
X0415430Y0766570D01*
X0415330Y0766110D01*
X0415200Y0765660D01*
X0415020Y0765230D01*
X0414810Y0764810D01*
X0414570Y0764410D01*
X0414290Y0764040D01*
X0413980Y0763690D01*
X0413640Y0763360D01*
X0413280Y0763070D01*
X0412890Y0762810D01*
X0412480Y0762580D01*
X0412050Y0762390D01*
X0411610Y0762230D01*
X0411160Y0762110D01*
X0410700Y0762030D01*
X0410230Y0761990D01*
X0409770Y0761990D01*
X0409300Y0762030D01*
X0408840Y0762110D01*
X0408390Y0762230D01*
X0407950Y0762390D01*
X0407520Y0762580D01*
X0407110Y0762810D01*
X0406720Y0763070D01*
X0406360Y0763360D01*
X0406020Y0763690D01*
X0405710Y0764040D01*
X0405430Y0764410D01*
X0405190Y0764810D01*
X0404980Y0765230D01*
X0404800Y0765660D01*
X0404670Y0766110D01*
X0404570Y0766570D01*
X0404510Y0767030D01*
X0404490Y0767500D01*
X0020000Y0970000D02*
G75*
%LPD*%
D559*
X0052500Y0985240D02*
X0052500Y1262110D01*
X0052480Y1263190D01*
X0052420Y1264280D01*
X0052330Y1265360D01*
X0052190Y1266430D01*
X0052020Y1267510D01*
X0051810Y1268570D01*
X0051560Y1269630D01*
X0051270Y1270670D01*
X0050940Y1271710D01*
X0050580Y1272730D01*
X0050190Y1273740D01*
X0049750Y1274730D01*
X0049290Y1275710D01*
X0048780Y1276670D01*
X0048250Y1277620D01*
X0047680Y1278540D01*
X0047070Y1279440D01*
X0046440Y1280320D01*
X0045770Y1281180D01*
X0045080Y1282010D01*
X0044350Y1282820D01*
X0043600Y1283600D01*
X0042820Y1284350D01*
X0042010Y1285080D01*
X0041180Y1285770D01*
X0040320Y1286440D01*
X0039440Y1287070D01*
X0038540Y1287680D01*
X0037620Y1288250D01*
X0036670Y1288780D01*
X0035710Y1289290D01*
X0034730Y1289750D01*
X0033740Y1290190D01*
X0032730Y1290580D01*
X0031710Y1290940D01*
X0030670Y1291270D01*
X0029630Y1291560D01*
X0028570Y1291810D01*
X0027510Y1292020D01*
X0026430Y1292190D01*
X0025360Y1292330D01*
X0024280Y1292420D01*
X0023190Y1292480D01*
X0022110Y1292500D01*
X0020000Y1292500D01*
X0020000Y1377500D01*
X0420000Y1377500D01*
X0420000Y1292500D01*
X0417780Y1292500D01*
X0416700Y1292480D01*
X0415620Y1292420D01*
X0414540Y1292330D01*
X0413470Y1292190D01*
X0412400Y1292020D01*
X0411340Y1291810D01*
X0410290Y1291560D01*
X0409250Y1291270D01*
X0408220Y1290950D01*
X0407200Y1290590D01*
X0406190Y1290200D01*
X0405200Y1289760D01*
X0404230Y1289300D01*
X0403270Y1288800D01*
X0402330Y1288260D01*
X0401410Y1287690D01*
X0400510Y1287090D01*
X0399640Y1286460D01*
X0398780Y1285800D01*
X0397960Y1285100D01*
X0397150Y1284380D01*
X0396370Y1283630D01*
X0395620Y1282850D01*
X0394900Y1282050D01*
X0394210Y1281220D01*
X0393550Y1280370D01*
X0392910Y1279490D01*
X0392310Y1278590D01*
X0391750Y1277670D01*
X0391210Y1276730D01*
X0390710Y1275780D01*
X0390240Y1274800D01*
X0389810Y1273810D01*
X0389420Y1272800D01*
X0389060Y1271780D01*
X0388730Y1270750D01*
X0388450Y1269710D01*
X0388200Y1268660D01*
X0387990Y1267600D01*
X0387820Y1266530D01*
X0387680Y1265460D01*
X0387590Y1264380D01*
X0387530Y1263300D01*
X0387510Y1262220D01*
X0387510Y1262230D02*
X0387600Y0985320D01*
X0387590Y0985310D02*
X0387570Y0984540D01*
X0387510Y0983760D01*
X0387410Y0982990D01*
X0387280Y0982230D01*
X0387100Y0981470D01*
X0386890Y0980730D01*
X0386640Y0979990D01*
X0386350Y0979270D01*
X0386030Y0978570D01*
X0385670Y0977880D01*
X0385270Y0977210D01*
X0384850Y0976560D01*
X0384390Y0975940D01*
X0383900Y0975340D01*
X0383380Y0974760D01*
X0382830Y0974210D01*
X0382250Y0973690D01*
X0381650Y0973200D01*
X0381030Y0972740D01*
X0380380Y0972320D01*
X0379710Y0971920D01*
X0379020Y0971560D01*
X0378320Y0971240D01*
X0377600Y0970950D01*
X0376860Y0970700D01*
X0376120Y0970490D01*
X0375360Y0970310D01*
X0374600Y0970180D01*
X0373830Y0970080D01*
X0373050Y0970020D01*
X0372280Y0970000D01*
X0067740Y0970000D01*
X0066970Y0970020D01*
X0066200Y0970080D01*
X0065430Y0970180D01*
X0064670Y0970310D01*
X0063920Y0970490D01*
X0063180Y0970700D01*
X0062450Y0970950D01*
X0061730Y0971240D01*
X0061030Y0971560D01*
X0060340Y0971910D01*
X0059680Y0972310D01*
X0059030Y0972730D01*
X0058410Y0973190D01*
X0057810Y0973680D01*
X0057240Y0974190D01*
X0056690Y0974740D01*
X0056180Y0975310D01*
X0055690Y0975910D01*
X0055230Y0976530D01*
X0054810Y0977180D01*
X0054410Y0977840D01*
X0054060Y0978530D01*
X0053740Y0979230D01*
X0053450Y0979950D01*
X0053200Y0980680D01*
X0052990Y0981420D01*
X0052810Y0982170D01*
X0052680Y0982930D01*
X0052580Y0983700D01*
X0052520Y0984470D01*
X0052500Y0985240D01*
D434*
X0126000Y1340000D02*
X0126020Y1340520D01*
X0126080Y1341040D01*
X0126180Y1341560D01*
X0126310Y1342060D01*
X0126480Y1342560D01*
X0126690Y1343040D01*
X0126940Y1343500D01*
X0127220Y1343940D01*
X0127530Y1344360D01*
X0127870Y1344760D01*
X0128240Y1345130D01*
X0128640Y1345470D01*
X0129060Y1345780D01*
X0129500Y1346060D01*
X0129960Y1346310D01*
X0130440Y1346520D01*
X0130940Y1346690D01*
X0131440Y1346820D01*
X0131960Y1346920D01*
X0132480Y1346980D01*
X0133000Y1347000D01*
X0133520Y1346980D01*
X0134040Y1346920D01*
X0134560Y1346820D01*
X0135060Y1346690D01*
X0135560Y1346520D01*
X0136040Y1346310D01*
X0136500Y1346060D01*
X0136940Y1345780D01*
X0137360Y1345470D01*
X0137760Y1345130D01*
X0138130Y1344760D01*
X0138470Y1344360D01*
X0138780Y1343940D01*
X0139060Y1343500D01*
X0139310Y1343040D01*
X0139520Y1342560D01*
X0139690Y1342060D01*
X0139820Y1341560D01*
X0139920Y1341040D01*
X0139980Y1340520D01*
X0140000Y1340000D01*
X0139980Y1339480D01*
X0139920Y1338960D01*
X0139820Y1338440D01*
X0139690Y1337940D01*
X0139520Y1337440D01*
X0139310Y1336960D01*
X0139060Y1336500D01*
X0138780Y1336060D01*
X0138470Y1335640D01*
X0138130Y1335240D01*
X0137760Y1334870D01*
X0137360Y1334530D01*
X0136940Y1334220D01*
X0136500Y1333940D01*
X0136040Y1333690D01*
X0135560Y1333480D01*
X0135060Y1333310D01*
X0134560Y1333180D01*
X0134040Y1333080D01*
X0133520Y1333020D01*
X0133000Y1333000D01*
X0132480Y1333020D01*
X0131960Y1333080D01*
X0131440Y1333180D01*
X0130940Y1333310D01*
X0130440Y1333480D01*
X0129960Y1333690D01*
X0129500Y1333940D01*
X0129060Y1334220D01*
X0128640Y1334530D01*
X0128240Y1334870D01*
X0127870Y1335240D01*
X0127530Y1335640D01*
X0127220Y1336060D01*
X0126940Y1336500D01*
X0126690Y1336960D01*
X0126480Y1337440D01*
X0126310Y1337940D01*
X0126180Y1338440D01*
X0126080Y1338960D01*
X0126020Y1339480D01*
X0126000Y1340000D01*
X0331000Y1340000D02*
X0331020Y1340520D01*
X0331080Y1341040D01*
X0331180Y1341560D01*
X0331310Y1342060D01*
X0331480Y1342560D01*
X0331690Y1343040D01*
X0331940Y1343500D01*
X0332220Y1343940D01*
X0332530Y1344360D01*
X0332870Y1344760D01*
X0333240Y1345130D01*
X0333640Y1345470D01*
X0334060Y1345780D01*
X0334500Y1346060D01*
X0334960Y1346310D01*
X0335440Y1346520D01*
X0335940Y1346690D01*
X0336440Y1346820D01*
X0336960Y1346920D01*
X0337480Y1346980D01*
X0338000Y1347000D01*
X0338520Y1346980D01*
X0339040Y1346920D01*
X0339560Y1346820D01*
X0340060Y1346690D01*
X0340560Y1346520D01*
X0341040Y1346310D01*
X0341500Y1346060D01*
X0341940Y1345780D01*
X0342360Y1345470D01*
X0342760Y1345130D01*
X0343130Y1344760D01*
X0343470Y1344360D01*
X0343780Y1343940D01*
X0344060Y1343500D01*
X0344310Y1343040D01*
X0344520Y1342560D01*
X0344690Y1342060D01*
X0344820Y1341560D01*
X0344920Y1341040D01*
X0344980Y1340520D01*
X0345000Y1340000D01*
X0344980Y1339480D01*
X0344920Y1338960D01*
X0344820Y1338440D01*
X0344690Y1337940D01*
X0344520Y1337440D01*
X0344310Y1336960D01*
X0344060Y1336500D01*
X0343780Y1336060D01*
X0343470Y1335640D01*
X0343130Y1335240D01*
X0342760Y1334870D01*
X0342360Y1334530D01*
X0341940Y1334220D01*
X0341500Y1333940D01*
X0341040Y1333690D01*
X0340560Y1333480D01*
X0340060Y1333310D01*
X0339560Y1333180D01*
X0339040Y1333080D01*
X0338520Y1333020D01*
X0338000Y1333000D01*
X0337480Y1333020D01*
X0336960Y1333080D01*
X0336440Y1333180D01*
X0335940Y1333310D01*
X0335440Y1333480D01*
X0334960Y1333690D01*
X0334500Y1333940D01*
X0334060Y1334220D01*
X0333640Y1334530D01*
X0333240Y1334870D01*
X0332870Y1335240D01*
X0332530Y1335640D01*
X0332220Y1336060D01*
X0331940Y1336500D01*
X0331690Y1336960D01*
X0331480Y1337440D01*
X0331310Y1337940D01*
X0331180Y1338440D01*
X0331080Y1338960D01*
X0331020Y1339480D01*
X0331000Y1340000D01*
M02*
