G75*
G70*
%OFA0B0*%
%FSLAX25Y25*%
%IPPOS*%
%LPD*%
%AMOC8*
5,1,8,0,0,1.08239X$1,22.5*
%
%ADD1072C,0.07800*%
%ADD1108R,0.05520X0.02970*%
%ADD1111C,0.07920*%
%ADD1198C,0.09660*%
%ADD1353R,0.07100X0.07890*%
%ADD1435R,0.08800X0.08800*%
%ADD1453R,0.09500X0.03200*%
%ADD1474R,0.08670X0.08670*%
%ADD1479C,0.14800*%
%ADD149C,0.08200*%
%ADD1674C,0.11820*%
%ADD1730R,0.03950X0.05520*%
%ADD1782C,0.09000*%
%ADD1907R,0.05920X0.06710*%
%ADD1917R,0.06310X0.05130*%
%ADD1972C,0.08800*%
%ADD1996C,0.17400*%
%ADD1997R,0.12610X0.07100*%
%ADD2010R,0.05520X0.03950*%
%ADD2090R,0.05130X0.04740*%
%ADD2096R,0.06710X0.05920*%
%ADD2131R,0.18520X0.14190*%
%ADD2201R,0.07100X0.06310*%
%ADD2202C,0.07200*%
%ADD2405R,0.25210X0.23630*%
%ADD2548R,0.07140X0.07140*%
%ADD4339R,0.07800X0.50800*%
%ADD455R,0.05130X0.06310*%
%ADD474C,0.10250*%
%ADD525OC8,0.08200*%
%ADD663R,0.06310X0.07100*%
%ADD787R,0.02970X0.05520*%
%ADD865C,0.06800*%
%ADD868R,0.08200X0.08200*%
%ADD945C,0.06350*%
%ADD955C,0.07000*%
X0020000Y0020000D02*
G75*
%LPD*%
D2202*
X0144300Y0122600D02*
X0144300Y0129000D01*
X0133300Y0129000D02*
X0133300Y0122600D01*
X0120800Y0122300D02*
X0120800Y0128700D01*
X0109800Y0128700D02*
X0109800Y0122300D01*
X0097100Y0122100D02*
X0097100Y0128500D01*
X0086100Y0128500D02*
X0086100Y0122100D01*
X0094300Y0308500D02*
X0094300Y0314900D01*
X0104300Y0315900D02*
X0104300Y0309500D01*
X0114300Y0308500D02*
X0114300Y0314900D01*
X0124300Y0315900D02*
X0124300Y0309500D01*
X0134300Y0308500D02*
X0134300Y0314900D01*
D1730*
X0133040Y0300350D03*
X0125960Y0300350D03*
X0146060Y0208700D03*
X0153140Y0208700D03*
X0164160Y0187200D03*
X0171240Y0187200D03*
X0172840Y0178300D03*
X0165760Y0178300D03*
X0114690Y0103000D03*
X0107610Y0103000D03*
X0092740Y0097100D03*
X0085660Y0097100D03*
X0134860Y0098600D03*
X0141940Y0098600D03*
D2201*
X0169100Y0195990D03*
X0169100Y0207010D03*
X0336500Y0288690D03*
X0336500Y0299710D03*
D2010*
X0326400Y0299240D03*
X0326400Y0292160D03*
X0149600Y0189940D03*
X0149600Y0182860D03*
X0142700Y0194160D03*
X0142700Y0201240D03*
X0072500Y0290860D03*
X0072500Y0297940D03*
D2096*
X0133550Y0287650D03*
X0133550Y0280950D03*
D1782*
X0084880Y0301860D03*
X0057320Y0301860D03*
D955*
X0061260Y0311700D03*
X0080940Y0311700D03*
D4339*
X0370000Y0046000D03*
X0360000Y0046000D03*
X0350000Y0046000D03*
X0340000Y0046000D03*
X0330000Y0046000D03*
X0320000Y0046000D03*
X0310000Y0046000D03*
X0300000Y0046000D03*
X0290000Y0046000D03*
X0280000Y0046000D03*
X0270000Y0046000D03*
X0260000Y0046000D03*
X0250000Y0046000D03*
X0240000Y0046000D03*
X0230000Y0046000D03*
X0220000Y0046000D03*
X0210000Y0046000D03*
X0200000Y0046000D03*
X0190000Y0046000D03*
X0180000Y0046000D03*
X0170000Y0046000D03*
X0160000Y0046000D03*
X0150000Y0046000D03*
X0140000Y0046000D03*
X0130000Y0046000D03*
X0120000Y0046000D03*
X0110000Y0046000D03*
X0100000Y0046000D03*
X0090000Y0046000D03*
X0080000Y0046000D03*
X0070000Y0046000D03*
X0060000Y0046000D03*
D945*
X0240090Y0179670D03*
X0240090Y0187540D03*
X0240090Y0195410D03*
X0240090Y0203290D03*
X0240090Y0211160D03*
X0240090Y0219040D03*
X0240090Y0226910D03*
X0240090Y0234790D03*
X0240090Y0242660D03*
X0240090Y0250530D03*
X0244930Y0306360D03*
X0252800Y0306360D03*
X0260670Y0306360D03*
X0260670Y0314240D03*
X0252800Y0314240D03*
X0244930Y0314240D03*
X0326710Y0250530D03*
X0326710Y0242660D03*
X0326710Y0234790D03*
X0326710Y0226910D03*
X0326710Y0219040D03*
X0326710Y0211160D03*
X0326710Y0203290D03*
X0326710Y0195410D03*
X0326710Y0187540D03*
X0326710Y0179670D03*
D868*
X0375400Y0309600D03*
D149*
X0365400Y0310600D03*
X0355400Y0309600D03*
X0345400Y0310600D03*
D1111*
X0270910Y0310300D03*
X0234690Y0310300D03*
X0020000Y0337500D02*
G75*
%LPD*%
D1479*
X0133000Y0707500D03*
X0338000Y0707500D03*
D474*
X0306800Y0710300D03*
X0291200Y0710300D03*
X0275600Y0710300D03*
X0275600Y0694600D03*
X0291200Y0694600D03*
X0306800Y0694600D03*
X0306800Y0726000D03*
X0291200Y0726000D03*
X0275600Y0726000D03*
X0226600Y0726000D03*
X0211000Y0726000D03*
X0195400Y0726000D03*
X0179800Y0726000D03*
X0164200Y0726000D03*
X0164200Y0710300D03*
X0179800Y0710300D03*
X0195400Y0710300D03*
X0211000Y0710300D03*
X0226600Y0710300D03*
X0226600Y0694600D03*
X0211000Y0694600D03*
X0195400Y0694600D03*
X0179800Y0694600D03*
X0164200Y0694600D03*
X0101800Y0694600D03*
X0086200Y0694600D03*
X0070600Y0694600D03*
X0055000Y0694600D03*
X0039400Y0694600D03*
X0039400Y0710300D03*
X0055000Y0710300D03*
X0070600Y0710300D03*
X0086200Y0710300D03*
X0101800Y0710300D03*
X0101800Y0726000D03*
X0086200Y0726000D03*
X0070600Y0726000D03*
X0055000Y0726000D03*
X0039400Y0726000D03*
X0369200Y0726000D03*
X0384800Y0726000D03*
X0400400Y0726000D03*
X0400400Y0710300D03*
X0384800Y0710300D03*
X0369200Y0710300D03*
X0369200Y0694600D03*
X0384800Y0694600D03*
X0400400Y0694600D03*
D2202*
X0085700Y0543500D02*
X0079300Y0543500D01*
X0080300Y0553500D02*
X0086700Y0553500D01*
X0085700Y0563500D02*
X0079300Y0563500D01*
X0080300Y0573500D02*
X0086700Y0573500D01*
X0085700Y0583500D02*
X0079300Y0583500D01*
D2010*
X0097500Y0552540D03*
X0097500Y0545460D03*
X0306000Y0483540D03*
X0306000Y0476460D03*
D1907*
X0259050Y0521200D03*
X0252350Y0521200D03*
X0164350Y0573500D03*
X0157650Y0573500D03*
X0149850Y0555000D03*
X0143150Y0555000D03*
X0100350Y0611500D03*
X0093650Y0611500D03*
X0110850Y0619300D03*
X0117550Y0619300D03*
X0118350Y0644500D03*
X0111650Y0644500D03*
D2548*
X0354000Y0444500D03*
D1072*
X0354000Y0434500D03*
X0354000Y0424500D03*
X0354000Y0414500D03*
X0354000Y0404500D03*
X0354000Y0394500D03*
D787*
X0100740Y0623380D03*
X0093260Y0623380D03*
X0093260Y0633620D03*
X0097000Y0633620D03*
X0100740Y0633620D03*
D1917*
X0101500Y0644560D03*
X0101500Y0652440D03*
X0318200Y0714860D03*
X0318200Y0722740D03*
D455*
X0100440Y0603000D03*
X0092560Y0603000D03*
D1353*
X0248090Y0531600D03*
X0259110Y0531600D03*
X0020000Y0757500D02*
G75*
%LPD*%
D1674*
X0030000Y0767500D03*
X0030000Y0947500D03*
X0410000Y0947500D03*
X0410000Y0767500D03*
D2131*
X0397450Y0826360D03*
X0366190Y0826650D03*
X0334730Y0826250D03*
X0302980Y0826240D03*
X0270200Y0826190D03*
X0237200Y0825790D03*
X0204600Y0824790D03*
X0204600Y0885810D03*
X0237200Y0886810D03*
X0270200Y0887210D03*
X0302980Y0887260D03*
X0334730Y0887280D03*
X0366190Y0887680D03*
X0397450Y0887390D03*
D865*
X0087600Y0945400D02*
X0087600Y0951400D01*
X0077600Y0950400D02*
X0077600Y0944400D01*
X0067600Y0945400D02*
X0067600Y0951400D01*
X0057600Y0950400D02*
X0057600Y0944400D01*
X0047600Y0945400D02*
X0047600Y0951400D01*
D1730*
X0049150Y0935900D03*
X0056240Y0935900D03*
X0166450Y0826500D03*
X0173540Y0826500D03*
D2096*
X0157500Y0901060D03*
X0157500Y0907750D03*
X0124900Y0908150D03*
X0124900Y0901460D03*
X0208500Y0912160D03*
X0208500Y0918850D03*
X0239000Y0918850D03*
X0239000Y0912160D03*
X0272000Y0912160D03*
X0272000Y0918850D03*
X0312500Y0919350D03*
X0312500Y0912660D03*
X0343000Y0915850D03*
X0343000Y0909160D03*
X0373000Y0909160D03*
X0373000Y0915850D03*
X0401500Y0916350D03*
X0401500Y0909660D03*
D1435*
X0261000Y0781500D03*
D1972*
X0274770Y0781500D03*
X0288550Y0781500D03*
X0302330Y0781500D03*
X0316110Y0781500D03*
X0329890Y0781500D03*
X0343670Y0781500D03*
X0357450Y0781500D03*
D1198*
X0132000Y0816500D03*
X0092000Y0816500D03*
X0032000Y0816500D03*
X0032000Y0836500D03*
X0032000Y0856500D03*
X0112000Y0856500D03*
D2010*
X0173800Y0799150D03*
X0173800Y0792060D03*
D1474*
X0061870Y0837500D03*
X0046120Y0837500D03*
X0046120Y0856500D03*
X0061870Y0856500D03*
D1453*
X0148700Y0819000D03*
X0148700Y0814000D03*
X0148700Y0809000D03*
X0148700Y0804000D03*
X0169300Y0804000D03*
X0169300Y0809000D03*
X0169300Y0814000D03*
X0169300Y0819000D03*
D525*
X0112100Y0879500D03*
X0102100Y0879500D03*
X0092100Y0879500D03*
X0082100Y0879500D03*
X0082100Y0889500D03*
X0092100Y0889500D03*
X0102100Y0889500D03*
X0112100Y0889500D03*
X0037300Y0894900D03*
X0027300Y0894900D03*
X0027300Y0904900D03*
X0037300Y0904900D03*
X0037300Y0914900D03*
X0027300Y0914900D03*
X0027300Y0924900D03*
X0037300Y0924900D03*
D455*
X0055760Y0909500D03*
X0063630Y0909500D03*
X0057430Y0777600D03*
X0049560Y0777600D03*
D1108*
X0134380Y0910260D03*
X0144610Y0910260D03*
X0144610Y0914000D03*
X0144610Y0917740D03*
X0134380Y0917740D03*
D1907*
X0055140Y0924700D03*
X0048450Y0924700D03*
D1997*
X0217390Y0780980D03*
X0217390Y0763030D03*
D2405*
X0189130Y0772000D03*
D868*
X0048000Y0767500D03*
D149*
X0058000Y0766500D03*
X0068000Y0767500D03*
D1996*
X0090000Y0777500D03*
X0120000Y0777500D03*
X0150000Y0777500D03*
X0020000Y0970000D02*
G75*
%LPD*%
D1907*
X0164150Y1181500D03*
X0170850Y1181500D03*
X0280650Y1292500D03*
X0287350Y1292500D03*
X0355150Y1297400D03*
X0361850Y1297400D03*
D2010*
X0190000Y1180040D03*
X0190000Y1172960D03*
X0241800Y1116840D03*
X0241800Y1109760D03*
D2201*
X0229700Y1110740D03*
X0229700Y1121760D03*
D1730*
X0241510Y1101100D03*
X0248590Y1101100D03*
X0190040Y1155000D03*
X0182960Y1155000D03*
D455*
X0240060Y1142500D03*
X0247940Y1142500D03*
X0247940Y1133500D03*
X0240060Y1133500D03*
D663*
X0164910Y1202700D03*
X0153890Y1202700D03*
D2202*
X0091200Y1184000D02*
X0084800Y1184000D01*
X0083800Y1174000D02*
X0090200Y1174000D01*
X0091200Y1164000D02*
X0084800Y1164000D01*
X0083800Y1154000D02*
X0090200Y1154000D01*
X0090200Y1194000D02*
X0083800Y1194000D01*
D149*
X0087100Y1102700D03*
X0104900Y1102700D03*
X0104900Y1128300D03*
X0087100Y1128300D03*
X0226500Y1087000D03*
X0236500Y1087000D03*
X0246500Y1087000D03*
D2090*
X0174850Y1172500D03*
X0168150Y1172500D03*
D1479*
X0133000Y1340000D03*
X0338000Y1340000D03*
D474*
X0306800Y1342800D03*
X0291200Y1342800D03*
X0275600Y1342800D03*
X0275600Y1327100D03*
X0291200Y1327100D03*
X0306800Y1327100D03*
X0306800Y1358500D03*
X0291200Y1358500D03*
X0275600Y1358500D03*
X0226600Y1358500D03*
X0211000Y1358500D03*
X0195400Y1358500D03*
X0179800Y1358500D03*
X0164200Y1358500D03*
X0164200Y1342800D03*
X0179800Y1342800D03*
X0195400Y1342800D03*
X0211000Y1342800D03*
X0226600Y1342800D03*
X0226600Y1327100D03*
X0211000Y1327100D03*
X0195400Y1327100D03*
X0179800Y1327100D03*
X0164200Y1327100D03*
X0101800Y1327100D03*
X0086200Y1327100D03*
X0070600Y1327100D03*
X0055000Y1327100D03*
X0039400Y1327100D03*
X0039400Y1342800D03*
X0055000Y1342800D03*
X0070600Y1342800D03*
X0086200Y1342800D03*
X0101800Y1342800D03*
X0101800Y1358500D03*
X0086200Y1358500D03*
X0070600Y1358500D03*
X0055000Y1358500D03*
X0039400Y1358500D03*
X0369200Y1358500D03*
X0384800Y1358500D03*
X0400400Y1358500D03*
X0400400Y1342800D03*
X0384800Y1342800D03*
X0369200Y1342800D03*
X0369200Y1327100D03*
X0384800Y1327100D03*
X0400400Y1327100D03*
D868*
X0256500Y1087000D03*
M02*
