%
T01C0.021650
X40200Y2720
X30945Y8505
X28135Y8490
X28060Y9435
X27425Y7565
X24220Y8500
X22910Y10315
X24435Y10710
X25605Y12660
X23575Y16470
X23180Y17855
X24625Y18340
X25815Y22390
X26710Y24335
X27565Y25670
X25205Y25790
X21420Y25650
X19755Y26230
X19050Y26305
X18355Y26270
X17435Y26300
X16505Y26235
X15600Y26285
X14860Y25650
X14035Y25050
X16035Y23735
X16560Y23475
X17835Y22835
X18465Y22970
X18825Y23870
X19500Y23480
X21060Y23035
X19270Y19620
X17590Y18730
X16110Y19360
X15110Y19970
X15810Y20870
X16190Y20390
X14260Y18940
X14280Y18105
X14860Y17720
X16060Y17820
X16035Y16270
X16000Y15460
X14775Y14445
X13730Y15860
X13035Y17540
X13050Y18175
X11535Y16340
X8880Y17480
X8875Y18305
X8065Y18765
X7655Y19350
X9365Y20345
X10610Y20205
X10770Y19265
X12625Y21190
X13750Y22800
X11130Y23130
X9135Y24975
X8200Y27370
X7930Y29040
X11305Y27500
X13305Y27220
X11785Y29435
X15600Y31695
X16505Y31670
X17470Y31750
X18355Y31665
X19380Y31720
X20250Y31680
X21300Y31740
X23420Y29410
X23770Y28880
X28270Y31530
X32815Y31290
X35060Y30070
X36060Y30120
X38810Y30080
X40340Y31850
X39260Y28120
X36410Y27220
X36260Y26270
X37210Y25170
X34010Y27820
X32635Y16400
X19630Y15695
X16590Y12795
X18765Y10670
X19305Y10025
X15475Y8445
X14925Y9700
X12695Y8165
X11730Y7750
X10710Y7645
X10175Y7980
X11720Y9540
X12165Y10130
X9775Y9735
X6760Y7770
X6160Y7770
X3370Y7940
X3335Y8985
X4940Y12840
X4940Y13640
X3450Y13660
X3460Y12860
X4460Y15470
X5260Y15470
X5960Y15470
X5960Y16270
X5260Y16270
X4460Y16270
X4460Y17070
X5260Y17070
X5960Y16970
X5760Y17970
X4960Y17970
X4160Y17970
X3360Y17970
X3360Y18770
X4160Y18770
X4960Y18770
X5760Y18770
X5760Y19570
X4960Y19570
X4160Y19570
X3360Y19570
X3360Y20370
X4160Y20370
X4960Y20370
X5760Y20370
X5760Y21170
X4960Y21170
X4160Y21170
X3360Y21170
X3360Y21970
X3360Y22670
X4160Y22670
X4160Y21970
X4960Y21970
X4960Y22670
X5760Y22670
X5760Y21970
X5760Y23470
X4960Y23470
X4160Y23470
X3360Y23470
X3840Y25260
X7535Y22060
X3360Y16970
X3360Y16270
X3360Y15670
X8765Y15050
X2730Y31670
X34610Y25570
X35660Y27220
X27200Y65850
X24950Y65850
X24850Y66650
X22900Y66000
X22950Y67550
X21600Y68500
X20600Y62650
X19200Y61650
X17900Y61250
X17000Y60050
X16400Y60350
X16000Y61450
X15300Y60850
X13250Y59850
X13250Y59250
X12250Y58800
X12300Y57300
X12200Y56700
X13750Y56400
X14300Y57150
X13800Y57650
X14250Y58250
X14950Y58350
X16200Y58150
X14850Y56400
X15700Y55500
X16450Y56300
X18300Y56850
X18750Y56250
X18850Y55600
X21600Y53150
X22700Y53350
X22450Y56250
X22580Y57690
X22900Y58250
X23000Y59050
X22525Y60225
X21550Y60250
X24000Y61900
X24450Y61400
X23910Y57920
X28640Y58910
X28650Y60150
X29070Y63590
X18650Y58900
X12300Y65450
X12700Y67250
X9350Y67200
X8700Y67100
X8050Y66800
X6900Y68450
X11400Y63100
X10500Y57300
X10550Y54800
X8500Y52950
X19800Y46250
X21900Y46850
X22100Y46050
X22000Y47850
X26300Y50450
X26800Y52330
X27700Y52350
X28600Y52350
X29900Y47350
X30500Y46950
X28900Y46850
X36700Y36000
X7550Y34350
X23960Y52520
X23970Y53380
X22350Y54800
X19200Y54450
X25200Y60200
X25600Y60600
X26000Y61000
X26250Y57850
X26900Y57850
X27700Y57850
X30500Y56250
X30500Y55750
X30500Y55250
X30500Y54750
X30500Y54250
X31000Y54250
X31000Y54750
X31000Y55250
X31000Y55750
X31000Y56250
X31500Y56250
X31500Y55750
X31500Y55250
X31500Y54750
X31500Y54250
X32000Y54250
X32000Y54750
X32000Y55250
X32000Y55750
X32000Y56250
X31300Y57850
X33800Y57750
X33800Y58350
X34100Y59450
X34700Y59450
X35300Y59450
X35800Y59450
X35800Y60150
X35300Y60150
X35300Y60750
X35800Y60750
X34700Y60750
X34700Y60150
X34100Y60150
X34100Y60750
X34700Y63050
X34700Y63700
X36000Y66050
X36600Y66050
X36600Y66750
X36600Y67450
X32000Y64600
X32000Y64000
X32000Y63400
X30600Y63400
X30600Y64000
X30600Y64600
X32000Y61950
X35300Y58250
X35300Y57650
X35500Y56250
X35500Y55750
X35500Y55250
X35500Y54750
X35500Y54250
X36000Y54250
X36000Y54750
X36000Y55250
X36000Y55750
X36000Y56250
X36500Y56250
X36500Y55750
X36500Y55250
X36500Y54750
X36500Y54250
X36500Y53750
X36500Y53250
X36500Y52750
X36000Y52750
X36000Y53250
X36000Y53750
X35500Y53750
X35500Y53250
X35500Y52750
X35000Y52750
X35000Y53250
X34500Y53250
X34500Y52750
X34000Y52750
X34000Y53250
X33500Y53250
X33500Y52750
X33000Y52750
X33000Y53250
X32500Y53250
X32500Y52750
X32000Y52750
X32000Y53250
X32000Y53750
X31500Y53750
X31500Y53250
X31500Y52750
X31000Y52750
X31000Y53250
X31000Y53750
X30500Y53750
X30500Y53250
X30500Y52750
X33500Y44250
X33500Y37300
X32900Y37300
X32350Y37300
X31800Y37300
X31800Y36600
X32350Y36600
X32900Y36600
X33500Y36600
X33500Y35850
X32900Y35850
X32350Y35850
X31800Y35850
X36400Y34350
X22500Y62900
X21750Y62900
X21400Y65150
X22150Y65150
X19900Y65150
X18350Y65150
X16900Y65150
X15400Y65150
X13850Y65150
X11000Y66650
X10650Y63900
X8700Y63900
X7450Y65550
X24750Y64600
X24950Y65200
X25600Y65400
X25600Y64550
X27260Y64850
X27510Y67390
X41100Y90650
X39100Y91500
X38200Y90200
X37300Y89230
X35940Y89230
X35950Y88300
X37300Y88310
X39100Y88310
X39100Y89170
X40410Y89180
X40400Y88310
X38270Y86930
X37270Y86150
X35190Y86810
X34150Y88270
X32800Y88270
X32790Y89190
X31950Y89600
X31900Y90200
X29950Y90750
X28750Y90200
X29630Y89190
X28750Y88750
X29650Y88290
X30950Y88280
X30970Y89180
X34150Y89190
X34800Y90250
X36350Y91500
X33250Y91500
X30250Y91550
X28400Y91800
X25000Y91800
X22050Y91800
X19750Y90800
X19000Y89800
X22000Y90200
X22250Y88650
X25150Y89550
X25750Y89850
X25000Y90200
X31100Y86190
X31920Y85490
X28200Y84550
X27800Y85950
X24750Y84650
X24400Y85900
X21250Y85900
X21500Y84200
X22300Y82650
X19150Y82650
X16700Y84500
X16040Y80640
X18350Y78000
X18850Y78000
X18850Y77450
X18350Y77450
X18350Y76900
X18850Y76900
X18850Y76400
X18350Y76400
X22150Y77450
X22400Y77000
X25650Y82650
X29000Y82650
X32150Y82700
X37750Y84590
X40550Y84620
X41250Y83760
X38450Y82700
X40460Y86230
X15550Y91500
X14700Y92600
X14000Y92550
X13310Y92530
X12800Y92050
X15400Y92800
X14760Y89960
X14260Y89680
X13200Y89800
X12000Y89240
X7480Y87050
X6430Y89070
X6300Y89670
X3820Y88550
X5550Y91700
X6320Y91740
X3420Y77800
X9920Y83040
X14050Y83670
X14980Y83130
X14650Y86290
X15800Y87570
X19810Y88140
X21070Y88140
X21090Y89000
X19840Y89000
X23070Y89070
X24380Y89110
X25550Y88730
X26380Y89150
X26360Y88270
X27670Y88290
X27670Y89150
X24380Y88230
X23070Y88240
X19150Y91710
X17340Y92970
X16540Y93820
X12470Y94470
X9450Y93650
X9470Y92120
X10720Y91000
X11050Y90520
X12610Y91400
X6350Y90260
X5590Y88170
X3460Y86680
X2940Y86680
X16640Y79840
X31250Y85340
X34190Y86260
X34670Y84510
X35400Y82700
X34850Y89650
X35400Y89800
X41200Y89800
X41500Y91200
X36050Y111850
X36050Y112350
X36050Y112850
X36050Y113350
X36050Y113850
X35550Y113850
X35550Y113350
X35550Y112850
X35550Y112350
X35550Y111850
X35050Y111850
X35050Y112350
X35050Y112850
X35050Y113350
X35050Y113850
X34550Y113850
X34550Y113350
X34550Y112850
X34550Y112350
X34550Y111850
X34050Y111850
X34050Y112350
X34050Y112850
X34050Y113350
X34050Y113850
X33550Y113850
X33550Y113350
X33550Y112850
X33550Y112350
X33550Y111850
X33050Y111850
X33050Y112350
X33050Y112850
X33050Y113350
X33050Y113850
X32550Y113850
X32550Y113350
X32550Y112850
X32550Y112350
X32550Y111850
X32050Y111850
X32050Y112350
X32050Y112850
X32050Y113350
X32050Y113850
X31550Y113850
X31550Y113350
X31550Y112850
X31550Y112350
X31550Y111850
X31050Y111850
X31050Y112350
X31050Y112850
X31050Y113350
X31050Y113850
X30550Y113850
X30550Y113350
X30550Y112850
X30550Y112350
X30550Y111850
X30050Y111850
X30050Y112350
X30050Y112850
X30050Y113350
X30050Y113850
X29550Y113850
X29550Y113350
X29550Y112850
X29550Y112350
X29550Y111850
X29050Y111850
X29050Y112350
X29050Y112850
X29050Y113350
X29050Y113850
X29050Y114350
X29050Y114850
X29050Y115350
X29050Y115850
X29050Y116350
X29550Y116350
X29550Y115850
X29550Y115350
X29550Y114850
X29550Y114350
X30050Y114350
X30050Y114850
X30050Y115350
X30050Y115850
X30050Y116350
X30050Y116850
X30050Y117350
X30050Y117850
X29550Y117850
X29550Y117350
X29550Y116850
X29050Y116850
X29050Y117350
X29050Y117850
X29550Y118960
X29880Y120860
X30650Y121050
X27250Y121650
X26860Y122620
X27260Y127060
X27070Y127920
X25630Y128300
X26150Y133400
X18590Y127600
X16580Y129370
X13840Y131030
X13140Y127580
X10720Y127730
X9830Y127740
X8570Y127770
X7250Y130150
X9310Y131890
X17270Y120600
X18180Y120500
X16230Y116720
X22000Y113750
X24650Y112500
X26950Y113100
X27050Y114500
X30550Y114350
X30550Y114850
X30550Y115350
X31050Y115350
X31050Y114850
X31050Y114350
X31550Y114350
X31550Y114850
X31550Y115350
X32050Y115350
X32050Y114850
X32050Y114350
X32550Y114350
X32550Y114850
X32550Y115350
X33050Y115350
X33050Y114850
X33050Y114350
X33550Y114350
X33550Y114850
X33550Y115350
X33550Y115850
X33550Y116350
X33050Y116350
X33050Y115850
X34050Y115850
X34050Y115350
X34050Y114850
X34050Y114350
X34550Y114350
X34550Y114850
X34550Y115350
X34550Y115850
X34550Y116350
X35050Y116350
X35050Y115850
X35050Y115350
X35050Y114850
X35050Y114350
X35550Y114350
X35550Y114850
X35550Y115350
X35550Y115850
X35550Y116350
X36050Y116350
X36050Y115850
X36050Y115350
X36050Y114850
X36050Y114350
X34050Y116350
X34050Y116850
X34050Y117350
X34050Y117850
X33550Y117850
X33550Y117350
X33550Y116850
X33050Y116850
X33050Y117350
X33050Y117850
X34550Y117850
X34550Y117350
X34550Y116850
X35050Y116850
X35050Y117350
X35050Y117850
X35550Y117850
X35550Y117350
X35550Y116850
X36050Y116850
X36050Y117350
X36050Y117850
X35160Y122180
X35780Y128980
X34340Y129270
X21050Y125100
X7400Y97500
X17550Y108950
X16450Y113350
X17650Y113870
X17650Y115450
X17170Y116260
X18250Y117200
X19100Y116800
X18410Y118450
X19770Y119210
X21200Y117800
X21800Y117450
X22150Y116700
X21750Y116250
X21150Y114150
X23950Y116400
X24900Y118700
X25650Y118800
X25900Y119650
X26700Y117100
X27220Y116110
X23200Y119750
X26610Y124800
X25700Y125150
X26600Y125950
X24670Y126910
X23890Y125710
X24200Y125150
X22600Y125100
X18900Y130150
X15850Y125400
X13000Y122950
X13350Y122550
X13750Y122150
X11640Y122790
X10700Y121900
X10350Y122300
X9900Y122700
X7550Y121300
X11700Y119400
X14610Y118440
X15520Y119460
X13200Y116300
X12800Y115950
X12750Y115400
X14100Y114600
X14550Y115150
X13000Y113450
X7900Y113750
X9120Y126440
X10620Y126940
X24800Y111700
X22570Y110100
X26900Y110140
X31750Y119700
X33050Y119700
X33050Y120200
X34250Y122550
X34700Y122850
X31800Y123400
X31950Y126250
X31950Y126750
X30850Y126750
X30850Y126200
X29800Y126250
X29800Y126800
X27450Y129350
X28050Y123200
X28950Y121600
X29100Y121000
X34130Y127180
X35540Y127180
X36850Y126900
X34050Y130200
X36350Y119200
X36600Y110700
X36750Y97450
T02C0.031500
X6126Y31170
X8094Y31170
X24009Y25053
X24009Y24266
X24009Y23479
X24009Y22691
X24009Y21904
X24009Y21116
X24009Y20329
X24009Y19541
X24009Y18754
X24009Y17967
X32671Y17967
X32671Y18754
X32671Y19541
X32671Y20329
X32671Y21116
X32671Y21904
X32671Y22691
X32671Y23479
X32671Y24266
X32671Y25053
X26067Y30636
X25280Y30636
X24493Y30636
X24493Y31424
X25280Y31424
X26067Y31424
T03C0.039700
X34540Y31060
X35540Y30960
X36540Y31060
X37540Y30960
X14430Y12580
X13330Y12580
X12080Y12550
X10980Y12550
X9710Y12530
X8610Y12530
X9430Y31170
X10430Y31270
X11430Y31170
X12430Y31270
X13430Y31170
X35400Y43450
X35400Y42450
X35400Y41450
X35400Y40450
X35400Y39450
X8350Y55350
X8250Y54350
X8250Y56350
X8350Y57350
X8250Y58350
X35400Y44450
X5800Y76650
X6800Y76750
X4800Y76750
X8210Y87950
X9210Y87950
X10210Y87950
X11210Y87950
X11210Y88950
X10210Y88950
X9210Y88950
X8210Y88950
X3730Y89490
X2730Y89490
X2730Y90490
X3730Y90490
X3730Y91490
X2730Y91490
X2730Y92490
X3730Y92490
X5760Y94740
X6760Y94840
X7760Y94740
X8760Y94840
X4760Y94840
X10490Y112830
X8710Y112830
X8710Y110270
X10490Y110270
X8700Y115400
X8800Y116400
X8700Y117400
X8800Y118400
X8700Y119400
X22650Y108700
X23650Y108700
X24650Y108700
X25650Y108700
T04C0.047200
X8488Y30186
X5732Y30186
X23469Y31030
X27091Y31030
X26100Y78150
X27477Y78150
X28855Y78150
X30233Y78150
X31611Y78150
X32989Y78150
X34367Y78150
X35745Y78150
T05C0.061050
X8620Y69460
X7060Y69460
X5500Y69460
X3940Y69460
X3940Y71030
X5500Y71030
X7060Y71030
X8620Y71030
X10180Y71030
X10180Y69460
X10180Y72600
X8620Y72600
X7060Y72600
X5500Y72600
X3940Y72600
X16420Y72600
X17980Y72600
X19540Y72600
X21100Y72600
X22660Y72600
X22660Y71030
X21100Y71030
X19540Y71030
X17980Y71030
X16420Y71030
X16420Y69460
X17980Y69460
X19540Y69460
X21100Y69460
X22660Y69460
X27560Y69460
X29120Y69460
X30680Y69460
X30680Y71030
X29120Y71030
X27560Y71030
X27560Y72600
X29120Y72600
X30680Y72600
X36920Y72600
X38480Y72600
X40040Y72600
X40040Y71030
X38480Y71030
X36920Y71030
X36920Y69460
X38480Y69460
X40040Y69460
X13200Y81650
X9200Y81650
X3200Y81650
X3200Y83650
X3200Y85650
X11200Y85650
X27560Y132710
X29120Y132710
X30680Y132710
X30680Y134280
X29120Y134280
X27560Y134280
X27560Y135850
X29120Y135850
X30680Y135850
X36920Y135850
X38480Y135850
X40040Y135850
X40040Y134280
X38480Y134280
X36920Y134280
X36920Y132710
X38480Y132710
X40040Y132710
X22660Y132710
X21100Y132710
X19540Y132710
X17980Y132710
X16420Y132710
X16420Y134280
X17980Y134280
X19540Y134280
X21100Y134280
X22660Y134280
X22660Y135850
X21100Y135850
X19540Y135850
X17980Y135850
X16420Y135850
X10180Y135850
X8620Y135850
X7060Y135850
X5500Y135850
X3940Y135850
X3940Y134280
X5500Y134280
X7060Y134280
X8620Y134280
X10180Y134280
X10180Y132710
X8620Y132710
X7060Y132710
X5500Y132710
X3940Y132710
T06C0.110200
X3000Y76750
X3000Y94750
X41000Y94750
X41000Y76750
T07C0.126000
X15000Y77750
X12000Y77750
X9000Y77750
T08C0.140000
X33800Y70750
X13300Y70750
X13300Y134000
X33800Y134000
M30
