%
M48
M72
T01C0.0130
T02C0.0197
T03C0.0236
T04C0.0315
T05C0.0335
T06C0.0400
T07C0.0709
T08C0.1600
%
T01
X9480Y9560
T02
X11630Y8370
X12390Y8480
X12730Y9260
X15160Y10470
X15770Y10420
X17330Y10660
X17330Y8900
X14280Y7370
X13730Y6760
X13280Y7260
X16170Y5970
X15910Y4900
X17150Y4580
X17480Y3310
X13860Y4950
X11910Y5000
X9370Y3250
X7610Y3440
X5200Y4560
X3450Y6010
X4430Y6940
X4930Y7180
X5210Y6770
X5830Y7300
X4260Y7620
X3520Y8900
X4440Y9650
X4810Y10020
X5300Y10260
X6250Y9420
X7950Y11140
X9460Y11780
X7500Y12770
X3310Y11930
X3440Y10890
X9070Y7510
X10320Y7150
X16900Y13290
X21490Y7280
X22340Y7180
T03
X21570Y8420
X21470Y10270
T04
X17219Y10491
X17219Y9704
X17219Y8916
X17219Y8129
X17219Y7341
X17219Y6554
X17219Y5767
X17219Y11279
X17219Y12066
X17219Y12853
X25881Y12853
X25881Y12066
X25881Y11279
X25881Y10491
X25881Y9704
X25881Y8916
X25881Y8129
X25881Y7341
X25881Y6554
X25881Y5767
T05
X9821Y14430
X8639Y14430
T06
X6180Y13230
X5180Y13330
X4180Y13230
X3180Y13330
X2180Y13230
X19960Y6390
X20960Y6290
X21960Y6390
X22960Y6290
T07
X2056Y3872
X27096Y3872
T08
X14210Y15510
M30
