G75*
%MOIN*%
%OFA0B0*%
%FSLAX24Y24*%
%IPPOS*%
%LPD*%
%AMOC8*
5,1,8,0,0,1.08239X$1,22.5*
%
%ADD10R,0.0474X0.0513*%
%ADD11R,0.0395X0.0395*%
%ADD12R,0.0513X0.0474*%
%ADD13R,0.0552X0.0395*%
%ADD14R,0.0198X0.0474*%
%ADD15R,0.0828X0.0513*%
%ADD16C,0.0720*%
%ADD17R,0.0434X0.0356*%
%ADD18R,0.0474X0.0167*%
%ADD19R,0.0167X0.0474*%
%ADD20R,0.0237X0.0552*%
%ADD21C,0.0635*%
%ADD22R,0.0710X0.0631*%
%ADD23R,0.0552X0.0552*%
%ADD24R,0.0198X0.0710*%
%ADD25R,0.0820X0.0820*%
%ADD26C,0.0820*%
%ADD27R,0.0530X0.0245*%
%ADD28R,0.0580X0.0330*%
%ADD29R,0.1064X0.0552*%
%ADD30R,0.0474X0.0533*%
%ADD31C,0.0415*%
%ADD32R,0.0257X0.0986*%
%ADD33C,0.0789*%
%ADD34C,0.1680*%
%ADD35R,0.0552X0.0297*%
%ADD36R,0.0395X0.0552*%
%ADD37R,0.0395X0.0749*%
%ADD38R,0.0671X0.0474*%
D10*
X007800Y005285D03*
X007800Y005955D03*
X010380Y005485D03*
X010380Y004815D03*
X017470Y006765D03*
X017470Y007435D03*
X016680Y011855D03*
X016680Y012525D03*
X020545Y013100D03*
X021215Y013100D03*
D11*
X009380Y004365D03*
X009380Y003775D03*
X007800Y004045D03*
X007800Y004635D03*
X002940Y005255D03*
X002940Y005845D03*
D12*
X002940Y004710D03*
X002940Y004040D03*
X004855Y003580D03*
X005525Y003580D03*
X006475Y004150D03*
X007145Y004150D03*
X007145Y005000D03*
X006475Y005000D03*
X008580Y004950D03*
X008580Y004365D03*
X009380Y004955D03*
X009380Y005625D03*
X008580Y005620D03*
X010870Y006905D03*
X011680Y006905D03*
X012480Y006905D03*
X012480Y007575D03*
X013210Y008005D03*
X013210Y008675D03*
X014040Y008665D03*
X014040Y007995D03*
X014850Y008005D03*
X014850Y008675D03*
X015660Y007435D03*
X016460Y007435D03*
X016460Y006765D03*
X015660Y006765D03*
X011680Y007575D03*
X010870Y007575D03*
X008580Y003695D03*
X019690Y010695D03*
X019690Y011365D03*
X023490Y011595D03*
X023490Y012265D03*
D13*
X020550Y011394D03*
X020550Y010686D03*
X016410Y012151D03*
X016410Y012859D03*
D14*
X012314Y005948D03*
X012058Y005948D03*
X011802Y005948D03*
X011546Y005948D03*
X013476Y005928D03*
X013732Y005928D03*
X013988Y005928D03*
X014244Y005928D03*
X014244Y004402D03*
X013988Y004402D03*
X013732Y004402D03*
X013476Y004402D03*
X012314Y004422D03*
X012058Y004422D03*
X011802Y004422D03*
X011546Y004422D03*
D15*
X010408Y009117D03*
X010408Y010023D03*
X008952Y010023D03*
X008952Y009117D03*
D16*
X006180Y012910D02*
X006180Y013550D01*
X005180Y013650D02*
X005180Y013010D01*
X004180Y012910D02*
X004180Y013550D01*
X003180Y013650D02*
X003180Y013010D01*
X002180Y012910D02*
X002180Y013550D01*
D17*
X008300Y009606D03*
X008300Y009094D03*
X011320Y009444D03*
X011320Y009956D03*
D18*
X007554Y010006D03*
X007554Y009810D03*
X007554Y009613D03*
X007554Y009416D03*
X007554Y009219D03*
X007554Y009022D03*
X007554Y008825D03*
X007554Y008628D03*
X007554Y008432D03*
X007554Y008235D03*
X007554Y008038D03*
X007554Y007841D03*
X007554Y007644D03*
X007554Y007447D03*
X007554Y007250D03*
X007554Y007054D03*
X003026Y007054D03*
X003026Y007250D03*
X003026Y007447D03*
X003026Y007644D03*
X003026Y007841D03*
X003026Y008038D03*
X003026Y008235D03*
X003026Y008432D03*
X003026Y008628D03*
X003026Y008825D03*
X003026Y009022D03*
X003026Y009219D03*
X003026Y009416D03*
X003026Y009613D03*
X003026Y009810D03*
X003026Y010006D03*
D19*
X003814Y010794D03*
X004010Y010794D03*
X004207Y010794D03*
X004404Y010794D03*
X004601Y010794D03*
X004798Y010794D03*
X004995Y010794D03*
X005192Y010794D03*
X005388Y010794D03*
X005585Y010794D03*
X005782Y010794D03*
X005979Y010794D03*
X006176Y010794D03*
X006373Y010794D03*
X006570Y010794D03*
X006766Y010794D03*
X006766Y006266D03*
X006570Y006266D03*
X006373Y006266D03*
X006176Y006266D03*
X005979Y006266D03*
X005782Y006266D03*
X005585Y006266D03*
X005388Y006266D03*
X005192Y006266D03*
X004995Y006266D03*
X004798Y006266D03*
X004601Y006266D03*
X004404Y006266D03*
X004207Y006266D03*
X004010Y006266D03*
X003814Y006266D03*
D20*
X015476Y005907D03*
X015732Y005907D03*
X015988Y005907D03*
X016244Y005907D03*
X016244Y004293D03*
X015988Y004293D03*
X015732Y004293D03*
X015476Y004293D03*
D21*
X017219Y005767D03*
X017219Y006554D03*
X017219Y007341D03*
X017219Y008129D03*
X017219Y008916D03*
X017219Y009704D03*
X017219Y010491D03*
X017219Y011279D03*
X017219Y012066D03*
X017219Y012853D03*
X025881Y012853D03*
X025881Y012066D03*
X025881Y011279D03*
X025881Y010491D03*
X025881Y009704D03*
X025881Y008916D03*
X025881Y008129D03*
X025881Y007341D03*
X025881Y006554D03*
X025881Y005767D03*
D22*
X003790Y005291D03*
X003790Y004189D03*
D23*
X019730Y008887D03*
X019730Y009713D03*
X023490Y009917D03*
X023490Y010743D03*
D24*
X021976Y010951D03*
X021720Y010951D03*
X021460Y010951D03*
X021204Y010951D03*
X021204Y012293D03*
X021460Y012289D03*
X021718Y012289D03*
X021972Y012285D03*
D25*
X019960Y006390D03*
D26*
X020960Y006290D03*
X021960Y006390D03*
X022960Y006290D03*
D27*
X022750Y008455D03*
X022750Y008705D03*
X022750Y008955D03*
X022750Y009205D03*
X022750Y009455D03*
X022750Y009705D03*
X022750Y009955D03*
X022750Y010205D03*
X020670Y010205D03*
X020670Y009955D03*
X020670Y009705D03*
X020670Y009455D03*
X020670Y009205D03*
X020670Y008955D03*
X020670Y008705D03*
X020670Y008455D03*
D28*
X022660Y010713D03*
X022660Y011067D03*
D29*
X018530Y011730D03*
X018530Y013030D03*
D30*
X010214Y013318D03*
X009230Y013318D03*
X008246Y013318D03*
X008246Y015542D03*
X009230Y015542D03*
X010214Y015542D03*
D31*
X009821Y014430D03*
X008639Y014430D03*
D32*
X002056Y002061D03*
X002293Y002061D03*
X002529Y002061D03*
X002765Y002061D03*
X003001Y002061D03*
X003238Y002061D03*
X003474Y002061D03*
X003710Y002061D03*
X003946Y002061D03*
X004182Y002061D03*
X004419Y002061D03*
X004655Y002061D03*
X004891Y002061D03*
X005127Y002061D03*
X005364Y002061D03*
X005600Y002061D03*
X005836Y002061D03*
X006072Y002061D03*
X006308Y002061D03*
X006545Y002061D03*
X008198Y002061D03*
X008434Y002061D03*
X008671Y002061D03*
X008907Y002061D03*
X009143Y002061D03*
X009379Y002061D03*
X009616Y002061D03*
X009852Y002061D03*
X010088Y002061D03*
X010324Y002061D03*
X010560Y002061D03*
X010797Y002061D03*
X011033Y002061D03*
X011269Y002061D03*
X011505Y002061D03*
X011741Y002061D03*
X011978Y002061D03*
X012214Y002061D03*
X012450Y002061D03*
X012686Y002061D03*
X012923Y002061D03*
X013159Y002061D03*
X013395Y002061D03*
X013631Y002061D03*
X013867Y002061D03*
X014104Y002061D03*
X014340Y002061D03*
X014576Y002061D03*
X014812Y002061D03*
X015049Y002061D03*
X015285Y002061D03*
X015521Y002061D03*
X015757Y002061D03*
X015993Y002061D03*
X016230Y002061D03*
X016466Y002061D03*
X016702Y002061D03*
X016938Y002061D03*
X017175Y002061D03*
X017411Y002061D03*
X017647Y002061D03*
X017883Y002061D03*
X018119Y002061D03*
X018356Y002061D03*
X018592Y002061D03*
X018828Y002061D03*
X019064Y002061D03*
X019301Y002061D03*
X019537Y002061D03*
X019773Y002061D03*
X020009Y002061D03*
X020245Y002061D03*
X020482Y002061D03*
X020718Y002061D03*
X020954Y002061D03*
X021190Y002061D03*
X021427Y002061D03*
X021663Y002061D03*
X021899Y002061D03*
X022135Y002061D03*
X022371Y002061D03*
X022608Y002061D03*
X022844Y002061D03*
X023080Y002061D03*
X023316Y002061D03*
X023553Y002061D03*
X023789Y002061D03*
X024025Y002061D03*
X024261Y002061D03*
X024497Y002061D03*
X024734Y002061D03*
X024970Y002061D03*
X025206Y002061D03*
X025442Y002061D03*
X025679Y002061D03*
X025915Y002061D03*
X026151Y002061D03*
X026387Y002061D03*
X026623Y002061D03*
X026860Y002061D03*
D33*
X027096Y003872D03*
X002056Y003872D03*
D34*
X014210Y015510D03*
D35*
X005792Y004954D03*
X005792Y004580D03*
X005792Y004206D03*
X004768Y004206D03*
X004768Y004954D03*
D36*
X004706Y011710D03*
X005414Y011710D03*
D37*
X004700Y015413D03*
X003362Y015413D03*
D38*
X016311Y015284D03*
X016311Y015836D03*
X017689Y015847D03*
X017689Y015284D03*
X019051Y015344D03*
X019051Y015896D03*
X020429Y015907D03*
X020429Y015344D03*
X021701Y015304D03*
X021701Y015856D03*
X023079Y015867D03*
X023079Y015304D03*
X024241Y015324D03*
X024241Y015876D03*
X025619Y015887D03*
X025619Y015324D03*
M02*
