G75*
%MOIN*%
%OFA0B0*%
%FSLAX24Y24*%
%IPPOS*%
%LPD*%
%AMOC8*
5,1,8,0,0,1.08239X$1,22.5*
%
%ADD10R,0.0472X0.0315*%
%ADD11R,0.0433X0.0394*%
%ADD12R,0.0394X0.0433*%
%ADD13C,0.0640*%
%ADD14C,0.0555*%
%ADD15R,0.0740X0.0740*%
%ADD16C,0.0740*%
%ADD17R,0.0177X0.0906*%
%ADD18C,0.0160*%
%ADD19C,0.0397*%
%ADD20C,0.0070*%
%ADD21C,0.0330*%
%ADD22C,0.0120*%
%ADD23C,0.0100*%
%ADD24C,0.0436*%
D10*
X011890Y005526D03*
X011890Y006234D03*
X013840Y006084D03*
X013840Y005376D03*
X015890Y005376D03*
X015890Y006084D03*
X022910Y007326D03*
X022910Y008034D03*
D11*
X006975Y006830D03*
X006305Y006830D03*
X006295Y005550D03*
X005625Y005550D03*
X003285Y008220D03*
X002615Y008220D03*
X003945Y011970D03*
X004615Y011970D03*
X005285Y011915D03*
X005955Y011915D03*
D12*
X002155Y011625D03*
X002155Y010955D03*
X002890Y009615D03*
X002890Y008945D03*
X006940Y008785D03*
X006940Y009455D03*
D13*
X006180Y012910D02*
X006180Y013550D01*
X005180Y013650D02*
X005180Y013010D01*
X004180Y012910D02*
X004180Y013550D01*
X003180Y013650D02*
X003180Y013010D01*
X002180Y012910D02*
X002180Y013550D01*
D14*
X017219Y012853D03*
X017219Y012066D03*
X017219Y011279D03*
X017219Y010491D03*
X017219Y009704D03*
X017219Y008916D03*
X017219Y008129D03*
X017219Y007341D03*
X017219Y006554D03*
X017219Y005767D03*
X025881Y005767D03*
X025881Y006554D03*
X025881Y007341D03*
X025881Y008129D03*
X025881Y008916D03*
X025881Y009704D03*
X025881Y010491D03*
X025881Y011279D03*
X025881Y012066D03*
X025881Y012853D03*
D15*
X019960Y006390D03*
D16*
X020960Y006290D03*
X021960Y006390D03*
X022960Y006290D03*
D17*
X022844Y002061D03*
X023080Y002061D03*
X023316Y002061D03*
X023553Y002061D03*
X023789Y002061D03*
X024025Y002061D03*
X024261Y002061D03*
X024497Y002061D03*
X024734Y002061D03*
X024970Y002061D03*
X025206Y002061D03*
X025442Y002061D03*
X025679Y002061D03*
X025915Y002061D03*
X026151Y002061D03*
X026387Y002061D03*
X026623Y002061D03*
X026860Y002061D03*
X022608Y002061D03*
X022371Y002061D03*
X022135Y002061D03*
X021899Y002061D03*
X021663Y002061D03*
X021427Y002061D03*
X021190Y002061D03*
X020954Y002061D03*
X020718Y002061D03*
X020482Y002061D03*
X020245Y002061D03*
X020009Y002061D03*
X019773Y002061D03*
X019537Y002061D03*
X019301Y002061D03*
X019064Y002061D03*
X018828Y002061D03*
X018592Y002061D03*
X018356Y002061D03*
X018119Y002061D03*
X017883Y002061D03*
X017647Y002061D03*
X017411Y002061D03*
X017175Y002061D03*
X016938Y002061D03*
X016702Y002061D03*
X016466Y002061D03*
X016230Y002061D03*
X015993Y002061D03*
X015757Y002061D03*
X015521Y002061D03*
X015285Y002061D03*
X015049Y002061D03*
X014812Y002061D03*
X014576Y002061D03*
X014340Y002061D03*
X014104Y002061D03*
X013867Y002061D03*
X013631Y002061D03*
X013395Y002061D03*
X013159Y002061D03*
X012923Y002061D03*
X012686Y002061D03*
X012450Y002061D03*
X012214Y002061D03*
X011978Y002061D03*
X011741Y002061D03*
X011505Y002061D03*
X011269Y002061D03*
X011033Y002061D03*
X010797Y002061D03*
X010560Y002061D03*
X010324Y002061D03*
X010088Y002061D03*
X009852Y002061D03*
X009616Y002061D03*
X009379Y002061D03*
X009143Y002061D03*
X008907Y002061D03*
X008671Y002061D03*
X008434Y002061D03*
X008198Y002061D03*
X006545Y002061D03*
X006308Y002061D03*
X006072Y002061D03*
X005836Y002061D03*
X005600Y002061D03*
X005364Y002061D03*
X005127Y002061D03*
X004891Y002061D03*
X004655Y002061D03*
X004419Y002061D03*
X004182Y002061D03*
X003946Y002061D03*
X003710Y002061D03*
X003474Y002061D03*
X003238Y002061D03*
X003001Y002061D03*
X002765Y002061D03*
X002529Y002061D03*
X002293Y002061D03*
X002056Y002061D03*
D18*
X001390Y001690D02*
X001390Y008420D01*
X001701Y008533D01*
X001701Y008533D01*
X001963Y008753D01*
X002133Y009048D01*
X002133Y009048D01*
X002192Y009384D01*
X002133Y009720D01*
X001963Y010015D01*
X001701Y010235D01*
X001390Y010348D01*
X001390Y016830D01*
X027644Y016830D01*
X027644Y010348D01*
X027333Y010235D01*
X027072Y010015D01*
X026901Y009720D01*
X026842Y009384D01*
X026901Y009048D01*
X027072Y008753D01*
X027333Y008533D01*
X027644Y008420D01*
X027644Y001690D01*
X027128Y001690D01*
X027128Y002061D01*
X026860Y002061D01*
X026860Y002061D01*
X027128Y002061D01*
X027128Y002538D01*
X027116Y002583D01*
X027092Y002624D01*
X027059Y002658D01*
X027018Y002682D01*
X026972Y002694D01*
X026860Y002694D01*
X026860Y002618D01*
X026860Y002618D01*
X026860Y002694D01*
X026747Y002694D01*
X026741Y002692D01*
X026736Y002694D01*
X026623Y002694D01*
X026511Y002694D01*
X026505Y002692D01*
X026499Y002694D01*
X026387Y002694D01*
X026275Y002694D01*
X026229Y002682D01*
X026216Y002674D01*
X008043Y002674D01*
X007984Y002615D01*
X007984Y002989D01*
X007884Y003164D01*
X007884Y003164D01*
X007884Y003164D01*
X007709Y003265D01*
X007507Y003265D01*
X007332Y003164D01*
X007332Y003164D01*
X007332Y003164D01*
X007231Y002989D01*
X007231Y001690D01*
X006793Y001690D01*
X006793Y002580D01*
X006700Y002674D01*
X001902Y002674D01*
X001808Y002580D01*
X001808Y001690D01*
X001390Y001690D01*
X001390Y001834D02*
X001808Y001834D01*
X001808Y001993D02*
X001390Y001993D01*
X001390Y002151D02*
X001808Y002151D01*
X001808Y002310D02*
X001390Y002310D01*
X001390Y002468D02*
X001808Y002468D01*
X001854Y002627D02*
X001390Y002627D01*
X001390Y002785D02*
X007231Y002785D01*
X007231Y002627D02*
X006747Y002627D01*
X006793Y002468D02*
X007231Y002468D01*
X007231Y002310D02*
X006793Y002310D01*
X006793Y002151D02*
X007231Y002151D01*
X007231Y001993D02*
X006793Y001993D01*
X006793Y001834D02*
X007231Y001834D01*
X007984Y002627D02*
X007996Y002627D01*
X007984Y002785D02*
X027644Y002785D01*
X027644Y002627D02*
X027090Y002627D01*
X027128Y002468D02*
X027644Y002468D01*
X027644Y002310D02*
X027128Y002310D01*
X027128Y002151D02*
X027644Y002151D01*
X027644Y001993D02*
X027128Y001993D01*
X027128Y001834D02*
X027644Y001834D01*
X026860Y002061D02*
X026623Y002061D01*
X026400Y002061D01*
X026400Y002061D01*
X026623Y002061D01*
X026623Y002061D01*
X026623Y002061D01*
X026860Y002061D01*
X026860Y002061D01*
X026860Y002627D02*
X026860Y002627D01*
X026623Y002627D02*
X026623Y002627D01*
X026623Y002618D02*
X026623Y002694D01*
X026623Y002618D01*
X026623Y002618D01*
X026623Y002618D01*
X026387Y002618D02*
X026387Y002618D01*
X026387Y002694D01*
X026387Y002618D01*
X026387Y002627D02*
X026387Y002627D01*
X026793Y003419D02*
X026990Y003338D01*
X027202Y003338D01*
X027399Y003419D01*
X027549Y003570D01*
X027630Y003766D01*
X027630Y003978D01*
X027549Y004175D01*
X027399Y004325D01*
X027202Y004407D01*
X026990Y004407D01*
X026793Y004325D01*
X026643Y004175D01*
X026561Y003978D01*
X026561Y003766D01*
X026643Y003570D01*
X026793Y003419D01*
X026794Y003419D02*
X002359Y003419D01*
X002509Y003570D01*
X002591Y003766D01*
X002591Y003978D01*
X002509Y004175D01*
X002359Y004325D01*
X002163Y004407D01*
X001950Y004407D01*
X001754Y004325D01*
X001603Y004175D01*
X001522Y003978D01*
X001522Y003766D01*
X001603Y003570D01*
X001754Y003419D01*
X001390Y003419D01*
X001390Y003261D02*
X007499Y003261D01*
X007716Y003261D02*
X027644Y003261D01*
X027644Y003419D02*
X027398Y003419D01*
X027552Y003578D02*
X027644Y003578D01*
X027644Y003736D02*
X027618Y003736D01*
X027630Y003895D02*
X027644Y003895D01*
X027644Y004053D02*
X027599Y004053D01*
X027644Y004212D02*
X027512Y004212D01*
X027644Y004370D02*
X027290Y004370D01*
X027644Y004529D02*
X001390Y004529D01*
X001390Y004687D02*
X011729Y004687D01*
X011707Y004696D02*
X011839Y004642D01*
X011981Y004642D01*
X012113Y004696D01*
X012177Y004760D01*
X013551Y004760D01*
X013556Y004747D01*
X013657Y004646D01*
X013789Y004592D01*
X013931Y004592D01*
X014063Y004646D01*
X014127Y004710D01*
X015601Y004710D01*
X015606Y004697D01*
X015707Y004596D01*
X015839Y004542D01*
X015981Y004542D01*
X016113Y004596D01*
X016214Y004697D01*
X016268Y004829D01*
X016268Y004971D01*
X016221Y005086D01*
X016286Y005152D01*
X016286Y005599D01*
X016192Y005693D01*
X015588Y005693D01*
X015494Y005599D01*
X015494Y005152D01*
X015516Y005130D01*
X014214Y005130D01*
X014236Y005152D01*
X014236Y005599D01*
X014142Y005693D01*
X013538Y005693D01*
X013444Y005599D01*
X013444Y005180D01*
X012223Y005180D01*
X012214Y005203D01*
X012201Y005216D01*
X012286Y005302D01*
X012286Y005749D01*
X012192Y005843D01*
X011588Y005843D01*
X011494Y005749D01*
X011494Y005302D01*
X011588Y005208D01*
X011611Y005208D01*
X011606Y005203D01*
X011552Y005071D01*
X011552Y004929D01*
X011606Y004797D01*
X011707Y004696D01*
X011586Y004846D02*
X001390Y004846D01*
X001390Y005004D02*
X011552Y005004D01*
X011589Y005163D02*
X001390Y005163D01*
X001390Y005321D02*
X005249Y005321D01*
X005249Y005287D02*
X005343Y005193D01*
X005908Y005193D01*
X005946Y005231D01*
X005968Y005209D01*
X006009Y005185D01*
X006054Y005173D01*
X006276Y005173D01*
X006276Y005532D01*
X006313Y005532D01*
X006313Y005568D01*
X006691Y005568D01*
X006691Y005771D01*
X006679Y005816D01*
X006655Y005857D01*
X006648Y005865D01*
X010841Y005865D01*
X011301Y006325D01*
X011474Y006325D01*
X011474Y006234D01*
X011474Y006053D01*
X011486Y006007D01*
X011510Y005966D01*
X011543Y005933D01*
X011584Y005909D01*
X011630Y005897D01*
X011890Y005897D01*
X012150Y005897D01*
X012196Y005909D01*
X012237Y005933D01*
X012270Y005966D01*
X012294Y006007D01*
X012306Y006053D01*
X012306Y006234D01*
X011890Y006234D01*
X011890Y005897D01*
X011890Y006234D01*
X011890Y006234D01*
X011890Y006234D01*
X011474Y006234D01*
X011890Y006234D01*
X011890Y006234D01*
X012306Y006234D01*
X012306Y006325D01*
X013299Y006325D01*
X013399Y006225D01*
X013424Y006225D01*
X013424Y006084D01*
X013424Y005903D01*
X013436Y005857D01*
X013460Y005816D01*
X013493Y005783D01*
X013534Y005759D01*
X013580Y005747D01*
X013840Y005747D01*
X014100Y005747D01*
X014146Y005759D01*
X014187Y005783D01*
X014220Y005816D01*
X014244Y005857D01*
X014256Y005903D01*
X014256Y006084D01*
X013840Y006084D01*
X013840Y005747D01*
X013840Y006084D01*
X013840Y006084D01*
X013840Y006084D01*
X013424Y006084D01*
X013840Y006084D01*
X013840Y006084D01*
X014256Y006084D01*
X014256Y006225D01*
X014285Y006225D01*
X014439Y006379D01*
X014439Y007048D01*
X014483Y007066D01*
X014584Y007167D01*
X014638Y007299D01*
X014638Y007441D01*
X014584Y007573D01*
X014483Y007674D01*
X014351Y007728D01*
X014209Y007728D01*
X014077Y007674D01*
X013976Y007573D01*
X013922Y007441D01*
X013922Y007299D01*
X013976Y007167D01*
X014049Y007094D01*
X014049Y006927D01*
X014034Y006963D01*
X013933Y007064D01*
X013801Y007118D01*
X013659Y007118D01*
X013599Y007094D01*
X013638Y007189D01*
X013638Y007331D01*
X013584Y007463D01*
X013483Y007564D01*
X013351Y007618D01*
X013209Y007618D01*
X013077Y007564D01*
X012976Y007463D01*
X012922Y007331D01*
X012922Y007189D01*
X012956Y007105D01*
X012601Y007105D01*
X012675Y007179D01*
X012675Y008258D01*
X012694Y008277D01*
X012748Y008409D01*
X012748Y008551D01*
X012694Y008683D01*
X012593Y008784D01*
X012461Y008838D01*
X012319Y008838D01*
X012187Y008784D01*
X012086Y008683D01*
X012032Y008551D01*
X012032Y008409D01*
X012086Y008277D01*
X012187Y008176D01*
X012285Y008136D01*
X012285Y007341D01*
X012229Y007285D01*
X010809Y007285D01*
X010695Y007171D01*
X010678Y007154D01*
X010678Y007221D01*
X010624Y007353D01*
X010562Y007415D01*
X011564Y007415D01*
X011599Y007380D01*
X011761Y007380D01*
X011875Y007494D01*
X011875Y008108D01*
X011934Y008167D01*
X011988Y008299D01*
X011988Y008441D01*
X011934Y008573D01*
X011833Y008674D01*
X011701Y008728D01*
X011559Y008728D01*
X011427Y008674D01*
X011326Y008573D01*
X011272Y008441D01*
X011272Y008299D01*
X011326Y008167D01*
X011427Y008066D01*
X011485Y008042D01*
X011485Y007861D01*
X011429Y007805D01*
X009989Y007805D01*
X009875Y007691D01*
X009755Y007571D01*
X009755Y007201D01*
X009749Y007195D01*
X008391Y007195D01*
X008285Y007301D01*
X008285Y010011D01*
X008171Y010125D01*
X007841Y010455D01*
X005607Y010455D01*
X005604Y010463D01*
X005503Y010564D01*
X005371Y010618D01*
X005229Y010618D01*
X005097Y010564D01*
X004996Y010463D01*
X004949Y010350D01*
X004881Y010378D01*
X004739Y010378D01*
X004607Y010324D01*
X004506Y010223D01*
X004452Y010091D01*
X004452Y010008D01*
X004369Y010008D01*
X004237Y009954D01*
X004136Y009853D01*
X004082Y009721D01*
X004082Y009579D01*
X004136Y009447D01*
X004237Y009346D01*
X004369Y009292D01*
X004511Y009292D01*
X004643Y009346D01*
X004744Y009447D01*
X004768Y009505D01*
X004928Y009505D01*
X004985Y009492D01*
X005006Y009505D01*
X005031Y009505D01*
X005072Y009546D01*
X005086Y009555D01*
X005621Y009555D01*
X005771Y009705D01*
X006566Y009705D01*
X006563Y009695D01*
X006563Y009473D01*
X006922Y009473D01*
X006922Y009436D01*
X006563Y009436D01*
X006563Y009214D01*
X006575Y009169D01*
X006599Y009128D01*
X006621Y009106D01*
X006583Y009068D01*
X006583Y008503D01*
X006677Y008409D01*
X007203Y008409D01*
X007297Y008503D01*
X007297Y009068D01*
X007259Y009106D01*
X007281Y009128D01*
X007305Y009169D01*
X007317Y009214D01*
X007317Y009436D01*
X006958Y009436D01*
X006958Y009473D01*
X007317Y009473D01*
X007317Y009695D01*
X007314Y009705D01*
X007509Y009705D01*
X007545Y009669D01*
X007545Y006959D01*
X007869Y006635D01*
X007371Y006635D01*
X007371Y006812D01*
X006993Y006812D01*
X006993Y006848D01*
X007371Y006848D01*
X007371Y007051D01*
X007359Y007096D01*
X007335Y007137D01*
X007302Y007171D01*
X007261Y007195D01*
X007215Y007207D01*
X006993Y007207D01*
X006993Y006848D01*
X006956Y006848D01*
X006956Y007207D01*
X006734Y007207D01*
X006689Y007195D01*
X006648Y007171D01*
X006626Y007149D01*
X006588Y007187D01*
X006171Y007187D01*
X006188Y007229D01*
X006188Y007371D01*
X006134Y007503D01*
X006033Y007604D01*
X005901Y007658D01*
X005759Y007658D01*
X005627Y007604D01*
X005526Y007503D01*
X005472Y007373D01*
X005471Y007375D01*
X005460Y007375D01*
X005451Y007382D01*
X005380Y007375D01*
X005237Y007375D01*
X005234Y007383D01*
X005133Y007484D01*
X005001Y007538D01*
X004859Y007538D01*
X004727Y007484D01*
X004626Y007383D01*
X004578Y007267D01*
X004501Y007298D01*
X004359Y007298D01*
X004227Y007244D01*
X004126Y007143D01*
X004072Y007011D01*
X004072Y006869D01*
X004126Y006737D01*
X004227Y006636D01*
X004359Y006582D01*
X004501Y006582D01*
X004625Y006633D01*
X004625Y006189D01*
X004835Y005979D01*
X004949Y005865D01*
X005301Y005865D01*
X005249Y005813D01*
X005249Y005287D01*
X005249Y005480D02*
X001390Y005480D01*
X001390Y005638D02*
X005249Y005638D01*
X005249Y005797D02*
X001390Y005797D01*
X001390Y005955D02*
X004859Y005955D01*
X004701Y006114D02*
X001390Y006114D01*
X001390Y006272D02*
X004625Y006272D01*
X004625Y006431D02*
X001390Y006431D01*
X001390Y006589D02*
X004341Y006589D01*
X004519Y006589D02*
X004625Y006589D01*
X004122Y006748D02*
X001390Y006748D01*
X001390Y006906D02*
X004072Y006906D01*
X004094Y007065D02*
X001390Y007065D01*
X001390Y007223D02*
X004206Y007223D01*
X004626Y007382D02*
X001390Y007382D01*
X001390Y007540D02*
X005563Y007540D01*
X005476Y007382D02*
X005452Y007382D01*
X005447Y007382D02*
X005234Y007382D01*
X006097Y007540D02*
X007545Y007540D01*
X007545Y007382D02*
X006184Y007382D01*
X006186Y007223D02*
X007545Y007223D01*
X007545Y007065D02*
X007367Y007065D01*
X007371Y006906D02*
X007598Y006906D01*
X007757Y006748D02*
X007371Y006748D01*
X006993Y006906D02*
X006956Y006906D01*
X006956Y007065D02*
X006993Y007065D01*
X007545Y007699D02*
X001390Y007699D01*
X001390Y007857D02*
X002327Y007857D01*
X002329Y007855D02*
X002375Y007843D01*
X002597Y007843D01*
X002597Y008202D01*
X002219Y008202D01*
X002219Y007999D01*
X002231Y007954D01*
X002255Y007913D01*
X002288Y007879D01*
X002329Y007855D01*
X002219Y008016D02*
X001390Y008016D01*
X001390Y008174D02*
X002219Y008174D01*
X002219Y008238D02*
X002597Y008238D01*
X002597Y008202D01*
X002634Y008202D01*
X002634Y007843D01*
X002856Y007843D01*
X002901Y007855D01*
X002942Y007879D01*
X002964Y007901D01*
X003002Y007863D01*
X003567Y007863D01*
X003661Y007957D01*
X003661Y008483D01*
X003599Y008545D01*
X003723Y008596D01*
X003824Y008697D01*
X003878Y008829D01*
X003878Y008971D01*
X003824Y009103D01*
X003723Y009204D01*
X003591Y009258D01*
X003449Y009258D01*
X003317Y009204D01*
X003247Y009134D01*
X003247Y009228D01*
X003195Y009280D01*
X003247Y009332D01*
X003247Y009897D01*
X003153Y009991D01*
X003125Y009991D01*
X003125Y011619D01*
X003239Y011572D01*
X003381Y011572D01*
X003513Y011626D01*
X003581Y011694D01*
X003663Y011613D01*
X004228Y011613D01*
X004266Y011651D01*
X004288Y011629D01*
X004329Y011605D01*
X004374Y011593D01*
X004596Y011593D01*
X004596Y011952D01*
X004633Y011952D01*
X004633Y011593D01*
X004855Y011593D01*
X004901Y011605D01*
X004935Y011625D01*
X005003Y011558D01*
X005568Y011558D01*
X005620Y011610D01*
X005672Y011558D01*
X006237Y011558D01*
X006331Y011652D01*
X006331Y011994D01*
X006379Y012041D01*
X006379Y012043D01*
X006380Y012043D01*
X006380Y012129D01*
X006383Y012475D01*
X006452Y012503D01*
X006587Y012638D01*
X006660Y012815D01*
X006660Y013645D01*
X006587Y013822D01*
X006452Y013957D01*
X006275Y014030D01*
X006085Y014030D01*
X005908Y013957D01*
X005773Y013822D01*
X005700Y013645D01*
X005700Y012815D01*
X005773Y012638D01*
X005908Y012503D01*
X005963Y012480D01*
X005961Y012272D01*
X005672Y012272D01*
X005620Y012220D01*
X005568Y012272D01*
X005003Y012272D01*
X004987Y012257D01*
X004975Y012277D01*
X004942Y012311D01*
X004901Y012335D01*
X004855Y012347D01*
X004633Y012347D01*
X004633Y011988D01*
X004596Y011988D01*
X004596Y012347D01*
X004374Y012347D01*
X004329Y012335D01*
X004288Y012311D01*
X004266Y012289D01*
X004228Y012327D01*
X003663Y012327D01*
X003569Y012233D01*
X003569Y012178D01*
X003513Y012234D01*
X003381Y012288D01*
X003239Y012288D01*
X003107Y012234D01*
X003018Y012145D01*
X002909Y012145D01*
X002849Y012085D01*
X002735Y011971D01*
X002735Y011150D01*
X002512Y011150D01*
X002512Y011238D01*
X002474Y011276D01*
X002496Y011298D01*
X002520Y011339D01*
X002532Y011384D01*
X002532Y011606D01*
X002173Y011606D01*
X002173Y011643D01*
X002137Y011643D01*
X002137Y012021D01*
X001934Y012021D01*
X001889Y012009D01*
X001848Y011985D01*
X001814Y011952D01*
X001790Y011911D01*
X001778Y011865D01*
X001778Y011643D01*
X002137Y011643D01*
X002137Y011606D01*
X001778Y011606D01*
X001778Y011384D01*
X001790Y011339D01*
X001814Y011298D01*
X001836Y011276D01*
X001798Y011238D01*
X001798Y010673D01*
X001892Y010579D01*
X002025Y010579D01*
X002074Y010530D01*
X002236Y010530D01*
X002285Y010579D01*
X002418Y010579D01*
X002512Y010673D01*
X002512Y010760D01*
X002634Y010760D01*
X002735Y010659D01*
X002735Y009991D01*
X002627Y009991D01*
X002533Y009897D01*
X002533Y009332D01*
X002585Y009280D01*
X002533Y009228D01*
X002533Y008663D01*
X002627Y008569D01*
X002634Y008569D01*
X002634Y008238D01*
X002597Y008238D01*
X002597Y008597D01*
X002375Y008597D01*
X002329Y008585D01*
X002288Y008561D01*
X002255Y008527D01*
X002231Y008486D01*
X002219Y008441D01*
X002219Y008238D01*
X002219Y008333D02*
X001390Y008333D01*
X001585Y008491D02*
X002234Y008491D01*
X002546Y008650D02*
X001840Y008650D01*
X001963Y008753D02*
X001963Y008753D01*
X001963Y008753D01*
X001995Y008808D02*
X002533Y008808D01*
X002533Y008967D02*
X002086Y008967D01*
X002147Y009125D02*
X002533Y009125D01*
X002581Y009284D02*
X002175Y009284D01*
X002192Y009384D02*
X002192Y009384D01*
X002182Y009442D02*
X002533Y009442D01*
X002533Y009601D02*
X002154Y009601D01*
X002133Y009720D02*
X002133Y009720D01*
X002111Y009759D02*
X002533Y009759D01*
X002553Y009918D02*
X002019Y009918D01*
X001963Y010015D02*
X001963Y010015D01*
X001890Y010076D02*
X002735Y010076D01*
X002735Y010235D02*
X001701Y010235D01*
X001701Y010235D01*
X001390Y010393D02*
X002735Y010393D01*
X002735Y010552D02*
X002257Y010552D01*
X002053Y010552D02*
X001390Y010552D01*
X001390Y010710D02*
X001798Y010710D01*
X001798Y010869D02*
X001390Y010869D01*
X001390Y011027D02*
X001798Y011027D01*
X001798Y011186D02*
X001390Y011186D01*
X001390Y011344D02*
X001789Y011344D01*
X001778Y011503D02*
X001390Y011503D01*
X001390Y011661D02*
X001778Y011661D01*
X001778Y011820D02*
X001390Y011820D01*
X001390Y011978D02*
X001840Y011978D01*
X002137Y011978D02*
X002173Y011978D01*
X002173Y012021D02*
X002173Y011643D01*
X002532Y011643D01*
X002532Y011865D01*
X002520Y011911D01*
X002496Y011952D01*
X002462Y011985D01*
X002421Y012009D01*
X002376Y012021D01*
X002173Y012021D01*
X002173Y011820D02*
X002137Y011820D01*
X002137Y011661D02*
X002173Y011661D01*
X002532Y011661D02*
X002735Y011661D01*
X002735Y011503D02*
X002532Y011503D01*
X002521Y011344D02*
X002735Y011344D01*
X002735Y011186D02*
X002512Y011186D01*
X002512Y010710D02*
X002684Y010710D01*
X003125Y010710D02*
X014893Y010710D01*
X014856Y010673D02*
X014957Y010774D01*
X015089Y010828D01*
X015231Y010828D01*
X015363Y010774D01*
X015464Y010673D01*
X015479Y010636D01*
X015567Y010724D01*
X015699Y010778D01*
X015841Y010778D01*
X015973Y010724D01*
X016074Y010623D01*
X016128Y010491D01*
X016128Y010349D01*
X016074Y010217D01*
X015973Y010116D01*
X015841Y010062D01*
X015699Y010062D01*
X015567Y010116D01*
X015466Y010217D01*
X015451Y010254D01*
X015363Y010166D01*
X015231Y010112D01*
X015089Y010112D01*
X014957Y010166D01*
X014856Y010267D01*
X014802Y010399D01*
X014802Y010541D01*
X014856Y010673D01*
X014806Y010552D02*
X005515Y010552D01*
X005085Y010552D02*
X003125Y010552D01*
X003125Y010393D02*
X004967Y010393D01*
X004518Y010235D02*
X003125Y010235D01*
X003125Y010076D02*
X004452Y010076D01*
X004201Y009918D02*
X003227Y009918D01*
X003247Y009759D02*
X004097Y009759D01*
X004082Y009601D02*
X003247Y009601D01*
X003247Y009442D02*
X004141Y009442D01*
X003802Y009125D02*
X006602Y009125D01*
X006583Y008967D02*
X003878Y008967D01*
X003870Y008808D02*
X006583Y008808D01*
X006583Y008650D02*
X003776Y008650D01*
X003653Y008491D02*
X006595Y008491D01*
X007285Y008491D02*
X007545Y008491D01*
X007545Y008333D02*
X003661Y008333D01*
X003661Y008174D02*
X007545Y008174D01*
X007545Y008016D02*
X003661Y008016D01*
X002904Y007857D02*
X007545Y007857D01*
X008285Y007857D02*
X011481Y007857D01*
X011485Y008016D02*
X008285Y008016D01*
X008285Y008174D02*
X011323Y008174D01*
X011272Y008333D02*
X008285Y008333D01*
X008285Y008491D02*
X011292Y008491D01*
X011403Y008650D02*
X008285Y008650D01*
X008285Y008808D02*
X012245Y008808D01*
X012072Y008650D02*
X011857Y008650D01*
X011968Y008491D02*
X012032Y008491D01*
X012063Y008333D02*
X011988Y008333D01*
X011937Y008174D02*
X012192Y008174D01*
X012285Y008016D02*
X011875Y008016D01*
X011875Y007857D02*
X012285Y007857D01*
X012285Y007699D02*
X011875Y007699D01*
X011875Y007540D02*
X012285Y007540D01*
X012285Y007382D02*
X011763Y007382D01*
X011597Y007382D02*
X010595Y007382D01*
X010678Y007223D02*
X010747Y007223D01*
X009883Y007699D02*
X008285Y007699D01*
X008285Y007540D02*
X009755Y007540D01*
X009755Y007382D02*
X008285Y007382D01*
X008363Y007223D02*
X009755Y007223D01*
X011248Y006272D02*
X011474Y006272D01*
X011474Y006114D02*
X011089Y006114D01*
X010931Y005955D02*
X011521Y005955D01*
X011541Y005797D02*
X006684Y005797D01*
X006691Y005638D02*
X011494Y005638D01*
X011494Y005480D02*
X006691Y005480D01*
X006691Y005532D02*
X006313Y005532D01*
X006313Y005173D01*
X006535Y005173D01*
X006581Y005185D01*
X006622Y005209D01*
X006655Y005243D01*
X006679Y005284D01*
X006691Y005329D01*
X006691Y005532D01*
X006689Y005321D02*
X011494Y005321D01*
X012286Y005321D02*
X013444Y005321D01*
X013444Y005480D02*
X012286Y005480D01*
X012286Y005638D02*
X013482Y005638D01*
X013480Y005797D02*
X012239Y005797D01*
X012259Y005955D02*
X013424Y005955D01*
X013424Y006114D02*
X012306Y006114D01*
X012306Y006272D02*
X013352Y006272D01*
X013840Y005955D02*
X013840Y005955D01*
X013840Y005797D02*
X013840Y005797D01*
X014200Y005797D02*
X015530Y005797D01*
X015543Y005783D02*
X015584Y005759D01*
X015630Y005747D01*
X015890Y005747D01*
X016150Y005747D01*
X016196Y005759D01*
X016237Y005783D01*
X016270Y005816D01*
X016294Y005857D01*
X016306Y005903D01*
X016306Y006084D01*
X015890Y006084D01*
X015890Y005747D01*
X015890Y006084D01*
X015890Y006084D01*
X015890Y006084D01*
X015474Y006084D01*
X015474Y005903D01*
X015486Y005857D01*
X015510Y005816D01*
X015543Y005783D01*
X015532Y005638D02*
X014198Y005638D01*
X014236Y005480D02*
X015494Y005480D01*
X015494Y005321D02*
X014236Y005321D01*
X014236Y005163D02*
X015494Y005163D01*
X016248Y005638D02*
X016780Y005638D01*
X016773Y005660D02*
X016795Y005591D01*
X016828Y005527D01*
X016870Y005469D01*
X016921Y005418D01*
X016980Y005375D01*
X017044Y005343D01*
X017112Y005320D01*
X017183Y005309D01*
X017219Y005309D01*
X017219Y005767D01*
X017219Y005767D01*
X016762Y005767D01*
X016762Y005803D01*
X016773Y005874D01*
X016795Y005942D01*
X016828Y006006D01*
X016870Y006065D01*
X016921Y006116D01*
X016980Y006158D01*
X017003Y006170D01*
X016971Y006183D01*
X016848Y006306D01*
X016782Y006467D01*
X016782Y006641D01*
X016848Y006802D01*
X016971Y006925D01*
X017027Y006948D01*
X016971Y006971D01*
X016848Y007094D01*
X016782Y007254D01*
X016782Y007429D01*
X016848Y007589D01*
X016971Y007712D01*
X017027Y007735D01*
X016971Y007758D01*
X016848Y007881D01*
X016782Y008042D01*
X016782Y008216D01*
X016848Y008377D01*
X016971Y008500D01*
X017027Y008523D01*
X016971Y008545D01*
X016848Y008668D01*
X016782Y008829D01*
X016782Y009003D01*
X016848Y009164D01*
X016971Y009287D01*
X017027Y009310D01*
X016971Y009333D01*
X016848Y009456D01*
X016782Y009617D01*
X016782Y009791D01*
X016848Y009952D01*
X016971Y010075D01*
X017027Y010097D01*
X016971Y010120D01*
X016848Y010243D01*
X016782Y010404D01*
X016782Y010578D01*
X016848Y010739D01*
X016971Y010862D01*
X017027Y010885D01*
X016971Y010908D01*
X016848Y011031D01*
X016782Y011191D01*
X016782Y011366D01*
X016848Y011526D01*
X016971Y011649D01*
X017027Y011672D01*
X016971Y011695D01*
X016848Y011818D01*
X016782Y011979D01*
X016782Y012153D01*
X016848Y012314D01*
X016971Y012437D01*
X017027Y012460D01*
X016971Y012482D01*
X016848Y012605D01*
X016782Y012766D01*
X016782Y012940D01*
X016848Y013101D01*
X016971Y013224D01*
X017132Y013291D01*
X017306Y013291D01*
X017467Y013224D01*
X017590Y013101D01*
X017657Y012940D01*
X017657Y012766D01*
X017590Y012605D01*
X017467Y012482D01*
X017412Y012460D01*
X017467Y012437D01*
X017590Y012314D01*
X017657Y012153D01*
X017657Y011979D01*
X017590Y011818D01*
X017467Y011695D01*
X017412Y011672D01*
X017467Y011649D01*
X017590Y011526D01*
X017657Y011366D01*
X017657Y011191D01*
X017590Y011031D01*
X017467Y010908D01*
X017412Y010885D01*
X017467Y010862D01*
X017590Y010739D01*
X017657Y010578D01*
X017657Y010404D01*
X017590Y010243D01*
X017467Y010120D01*
X017412Y010097D01*
X017467Y010075D01*
X017590Y009952D01*
X017657Y009791D01*
X017657Y009617D01*
X017590Y009456D01*
X017467Y009333D01*
X017412Y009310D01*
X017467Y009287D01*
X017590Y009164D01*
X017657Y009003D01*
X017657Y008829D01*
X017590Y008668D01*
X017467Y008545D01*
X017412Y008523D01*
X017467Y008500D01*
X017590Y008377D01*
X017657Y008216D01*
X017657Y008042D01*
X017590Y007881D01*
X017467Y007758D01*
X017412Y007735D01*
X017467Y007712D01*
X017590Y007589D01*
X017657Y007429D01*
X017657Y007254D01*
X017590Y007094D01*
X017467Y006971D01*
X017412Y006948D01*
X017467Y006925D01*
X017590Y006802D01*
X017657Y006641D01*
X017657Y006467D01*
X017590Y006306D01*
X017467Y006183D01*
X017435Y006170D01*
X017459Y006158D01*
X017517Y006116D01*
X017568Y006065D01*
X017611Y006006D01*
X017643Y005942D01*
X017666Y005874D01*
X017677Y005803D01*
X017677Y005767D01*
X017219Y005767D01*
X016762Y005767D01*
X016762Y005731D01*
X016773Y005660D01*
X016762Y005797D02*
X016250Y005797D01*
X016306Y005955D02*
X016802Y005955D01*
X016919Y006114D02*
X016306Y006114D01*
X016306Y006084D02*
X016306Y006266D01*
X016294Y006311D01*
X016270Y006352D01*
X016237Y006386D01*
X016196Y006410D01*
X016150Y006422D01*
X015890Y006422D01*
X015630Y006422D01*
X015584Y006410D01*
X015543Y006386D01*
X015510Y006352D01*
X015486Y006311D01*
X015474Y006266D01*
X015474Y006084D01*
X015890Y006084D01*
X015890Y006084D01*
X016306Y006084D01*
X016304Y006272D02*
X016883Y006272D01*
X016797Y006431D02*
X014439Y006431D01*
X014439Y006589D02*
X016782Y006589D01*
X016826Y006748D02*
X014439Y006748D01*
X014439Y006906D02*
X016953Y006906D01*
X016878Y007065D02*
X014479Y007065D01*
X014607Y007223D02*
X016795Y007223D01*
X016782Y007382D02*
X014638Y007382D01*
X014598Y007540D02*
X016828Y007540D01*
X016958Y007699D02*
X014424Y007699D01*
X014136Y007699D02*
X012675Y007699D01*
X012675Y007857D02*
X016872Y007857D01*
X016793Y008016D02*
X012675Y008016D01*
X012675Y008174D02*
X016782Y008174D01*
X016830Y008333D02*
X012717Y008333D01*
X012748Y008491D02*
X016963Y008491D01*
X016867Y008650D02*
X012708Y008650D01*
X012535Y008808D02*
X016791Y008808D01*
X016782Y008967D02*
X008285Y008967D01*
X008285Y009125D02*
X016832Y009125D01*
X016968Y009284D02*
X008285Y009284D01*
X008285Y009442D02*
X016862Y009442D01*
X016789Y009601D02*
X008285Y009601D01*
X008285Y009759D02*
X016782Y009759D01*
X016834Y009918D02*
X008285Y009918D01*
X008220Y010076D02*
X015664Y010076D01*
X015876Y010076D02*
X016975Y010076D01*
X016857Y010235D02*
X016081Y010235D01*
X016128Y010393D02*
X016786Y010393D01*
X016782Y010552D02*
X016103Y010552D01*
X015987Y010710D02*
X016836Y010710D01*
X016987Y010869D02*
X003125Y010869D01*
X003125Y011027D02*
X016852Y011027D01*
X016784Y011186D02*
X003125Y011186D01*
X003125Y011344D02*
X016782Y011344D01*
X016839Y011503D02*
X003125Y011503D01*
X003548Y011661D02*
X003615Y011661D01*
X002901Y012137D02*
X001390Y012137D01*
X001390Y012295D02*
X003631Y012295D01*
X003854Y012529D02*
X003918Y012482D01*
X003988Y012447D01*
X004063Y012422D01*
X004141Y012410D01*
X004160Y012410D01*
X004160Y013210D01*
X003680Y013210D01*
X003680Y012871D01*
X003692Y012793D01*
X003717Y012718D01*
X003752Y012648D01*
X003799Y012584D01*
X003854Y012529D01*
X003778Y012612D02*
X003461Y012612D01*
X003452Y012603D02*
X003587Y012738D01*
X003660Y012915D01*
X003660Y013745D01*
X003587Y013922D01*
X003452Y014057D01*
X003275Y014130D01*
X003085Y014130D01*
X002908Y014057D01*
X002773Y013922D01*
X002700Y013745D01*
X002700Y012915D01*
X002773Y012738D01*
X002908Y012603D01*
X003085Y012530D01*
X003275Y012530D01*
X003452Y012603D01*
X003600Y012771D02*
X003700Y012771D01*
X003680Y012929D02*
X003660Y012929D01*
X003660Y013088D02*
X003680Y013088D01*
X003660Y013246D02*
X004160Y013246D01*
X004160Y013250D02*
X004160Y013210D01*
X004200Y013210D01*
X004200Y013250D01*
X004160Y013250D01*
X004160Y014050D01*
X004141Y014050D01*
X004063Y014038D01*
X003988Y014013D01*
X003918Y013978D01*
X003854Y013931D01*
X003799Y013876D01*
X003752Y013812D01*
X003717Y013742D01*
X003692Y013667D01*
X003680Y013589D01*
X003680Y013250D01*
X004160Y013250D01*
X004200Y013250D02*
X004200Y014050D01*
X004219Y014050D01*
X004297Y014038D01*
X004372Y014013D01*
X004442Y013978D01*
X004506Y013931D01*
X004561Y013876D01*
X004608Y013812D01*
X004643Y013742D01*
X004668Y013667D01*
X004680Y013589D01*
X004680Y013250D01*
X004200Y013250D01*
X004200Y013246D02*
X004700Y013246D01*
X004680Y013210D02*
X004200Y013210D01*
X004200Y012410D01*
X004219Y012410D01*
X004297Y012422D01*
X004372Y012447D01*
X004442Y012482D01*
X004506Y012529D01*
X004561Y012584D01*
X004608Y012648D01*
X004643Y012718D01*
X004668Y012793D01*
X004680Y012871D01*
X004680Y013210D01*
X004680Y013088D02*
X004700Y013088D01*
X004700Y012929D02*
X004680Y012929D01*
X004700Y012915D02*
X004773Y012738D01*
X004908Y012603D01*
X005085Y012530D01*
X005275Y012530D01*
X005452Y012603D01*
X005587Y012738D01*
X005660Y012915D01*
X005660Y013745D01*
X005587Y013922D01*
X005452Y014057D01*
X005275Y014130D01*
X005085Y014130D01*
X004908Y014057D01*
X004773Y013922D01*
X004700Y013745D01*
X004700Y012915D01*
X004660Y012771D02*
X004760Y012771D01*
X004899Y012612D02*
X004582Y012612D01*
X004385Y012454D02*
X005963Y012454D01*
X005961Y012295D02*
X004958Y012295D01*
X004633Y012295D02*
X004596Y012295D01*
X004596Y012137D02*
X004633Y012137D01*
X004272Y012295D02*
X004260Y012295D01*
X004200Y012454D02*
X004160Y012454D01*
X004160Y012612D02*
X004200Y012612D01*
X004200Y012771D02*
X004160Y012771D01*
X004160Y012929D02*
X004200Y012929D01*
X004200Y013088D02*
X004160Y013088D01*
X004160Y013405D02*
X004200Y013405D01*
X004200Y013563D02*
X004160Y013563D01*
X004160Y013722D02*
X004200Y013722D01*
X004200Y013880D02*
X004160Y013880D01*
X004160Y014039D02*
X004200Y014039D01*
X004292Y014039D02*
X004890Y014039D01*
X004756Y013880D02*
X004557Y013880D01*
X004650Y013722D02*
X004700Y013722D01*
X004700Y013563D02*
X004680Y013563D01*
X004680Y013405D02*
X004700Y013405D01*
X004068Y014039D02*
X003470Y014039D01*
X003604Y013880D02*
X003803Y013880D01*
X003710Y013722D02*
X003660Y013722D01*
X003660Y013563D02*
X003680Y013563D01*
X003680Y013405D02*
X003660Y013405D01*
X002890Y014039D02*
X001390Y014039D01*
X001390Y014197D02*
X008381Y014197D01*
X008345Y014233D02*
X008443Y014136D01*
X008570Y014083D01*
X008709Y014083D01*
X008836Y014136D01*
X008934Y014233D01*
X008987Y014361D01*
X008987Y014499D01*
X008934Y014627D01*
X008836Y014724D01*
X008709Y014777D01*
X008570Y014777D01*
X008443Y014724D01*
X008345Y014627D01*
X008292Y014499D01*
X008292Y014361D01*
X008345Y014233D01*
X008294Y014356D02*
X001390Y014356D01*
X001390Y014514D02*
X008298Y014514D01*
X008391Y014673D02*
X001390Y014673D01*
X001390Y014831D02*
X013503Y014831D01*
X013379Y014955D02*
X013655Y014679D01*
X014015Y014530D01*
X014405Y014530D01*
X014765Y014679D01*
X015041Y014955D01*
X015190Y015315D01*
X015190Y015705D01*
X015041Y016065D01*
X014765Y016341D01*
X014405Y016490D01*
X014015Y016490D01*
X013655Y016341D01*
X013379Y016065D01*
X013230Y015705D01*
X013230Y015315D01*
X013379Y014955D01*
X013365Y014990D02*
X001390Y014990D01*
X001390Y015148D02*
X013299Y015148D01*
X013234Y015307D02*
X001390Y015307D01*
X001390Y015465D02*
X013230Y015465D01*
X013230Y015624D02*
X001390Y015624D01*
X001390Y015782D02*
X013262Y015782D01*
X013328Y015941D02*
X001390Y015941D01*
X001390Y016099D02*
X013413Y016099D01*
X013572Y016258D02*
X001390Y016258D01*
X001390Y016416D02*
X013836Y016416D01*
X014584Y016416D02*
X027644Y016416D01*
X027644Y016258D02*
X014848Y016258D01*
X015007Y016099D02*
X027644Y016099D01*
X027644Y015941D02*
X015092Y015941D01*
X015158Y015782D02*
X027644Y015782D01*
X027644Y015624D02*
X015190Y015624D01*
X015190Y015465D02*
X027644Y015465D01*
X027644Y015307D02*
X015186Y015307D01*
X015121Y015148D02*
X027644Y015148D01*
X027644Y014990D02*
X015055Y014990D01*
X014917Y014831D02*
X027644Y014831D01*
X027644Y014673D02*
X014749Y014673D01*
X013671Y014673D02*
X010069Y014673D01*
X010115Y014627D02*
X010017Y014724D01*
X009890Y014777D01*
X009751Y014777D01*
X009624Y014724D01*
X009526Y014627D01*
X009473Y014499D01*
X009473Y014361D01*
X009526Y014233D01*
X009624Y014136D01*
X009751Y014083D01*
X009890Y014083D01*
X010017Y014136D01*
X010115Y014233D01*
X010168Y014361D01*
X010168Y014499D01*
X010115Y014627D01*
X010162Y014514D02*
X027644Y014514D01*
X027644Y014356D02*
X010166Y014356D01*
X010079Y014197D02*
X027644Y014197D01*
X027644Y014039D02*
X005470Y014039D01*
X005604Y013880D02*
X005831Y013880D01*
X005731Y013722D02*
X005660Y013722D01*
X005660Y013563D02*
X005700Y013563D01*
X005700Y013405D02*
X005660Y013405D01*
X005660Y013246D02*
X005700Y013246D01*
X005700Y013088D02*
X005660Y013088D01*
X005660Y012929D02*
X005700Y012929D01*
X005718Y012771D02*
X005600Y012771D01*
X005461Y012612D02*
X005799Y012612D01*
X006383Y012454D02*
X017012Y012454D01*
X016846Y012612D02*
X006561Y012612D01*
X006642Y012771D02*
X016782Y012771D01*
X016782Y012929D02*
X006660Y012929D01*
X006660Y013088D02*
X016843Y013088D01*
X017024Y013246D02*
X006660Y013246D01*
X006660Y013405D02*
X027644Y013405D01*
X027644Y013563D02*
X006660Y013563D01*
X006629Y013722D02*
X027644Y013722D01*
X027644Y013880D02*
X006529Y013880D01*
X006382Y012295D02*
X016841Y012295D01*
X016782Y012137D02*
X006380Y012137D01*
X006331Y011978D02*
X016782Y011978D01*
X016848Y011820D02*
X006331Y011820D01*
X006331Y011661D02*
X017000Y011661D01*
X017439Y011661D02*
X025661Y011661D01*
X025688Y011672D02*
X025633Y011649D01*
X025510Y011526D01*
X025443Y011366D01*
X025443Y011191D01*
X025510Y011031D01*
X025633Y010908D01*
X025688Y010885D01*
X025633Y010862D01*
X025510Y010739D01*
X025443Y010578D01*
X025443Y010404D01*
X025510Y010243D01*
X025633Y010120D01*
X025688Y010097D01*
X025633Y010075D01*
X025510Y009952D01*
X025443Y009791D01*
X025443Y009617D01*
X025510Y009456D01*
X025633Y009333D01*
X025688Y009310D01*
X025633Y009287D01*
X025510Y009164D01*
X025443Y009003D01*
X025443Y008829D01*
X025510Y008668D01*
X025633Y008545D01*
X025688Y008523D01*
X025633Y008500D01*
X025510Y008377D01*
X025443Y008216D01*
X025443Y008042D01*
X025510Y007881D01*
X025633Y007758D01*
X025688Y007735D01*
X025633Y007712D01*
X025510Y007589D01*
X025443Y007429D01*
X025443Y007254D01*
X025510Y007094D01*
X025633Y006971D01*
X025688Y006948D01*
X025633Y006925D01*
X025510Y006802D01*
X025443Y006641D01*
X025443Y006467D01*
X025510Y006306D01*
X025633Y006183D01*
X025688Y006160D01*
X025633Y006138D01*
X025510Y006015D01*
X025443Y005854D01*
X025443Y005680D01*
X025510Y005519D01*
X025633Y005396D01*
X025794Y005329D01*
X025968Y005329D01*
X026129Y005396D01*
X026252Y005519D01*
X026318Y005680D01*
X026318Y005854D01*
X026252Y006015D01*
X026129Y006138D01*
X026073Y006160D01*
X026129Y006183D01*
X026252Y006306D01*
X026318Y006467D01*
X026318Y006641D01*
X026252Y006802D01*
X026129Y006925D01*
X026073Y006948D01*
X026129Y006971D01*
X026252Y007094D01*
X026318Y007254D01*
X026318Y007429D01*
X026252Y007589D01*
X026129Y007712D01*
X026073Y007735D01*
X026129Y007758D01*
X026252Y007881D01*
X026318Y008042D01*
X026318Y008216D01*
X026252Y008377D01*
X026129Y008500D01*
X026073Y008523D01*
X026129Y008545D01*
X026252Y008668D01*
X026318Y008829D01*
X026318Y009003D01*
X026252Y009164D01*
X026129Y009287D01*
X026073Y009310D01*
X026129Y009333D01*
X026252Y009456D01*
X026318Y009617D01*
X026318Y009791D01*
X026252Y009952D01*
X026129Y010075D01*
X026073Y010097D01*
X026129Y010120D01*
X026252Y010243D01*
X026318Y010404D01*
X026318Y010578D01*
X026252Y010739D01*
X026129Y010862D01*
X026073Y010885D01*
X026129Y010908D01*
X026252Y011031D01*
X026318Y011191D01*
X026318Y011366D01*
X026252Y011526D01*
X026129Y011649D01*
X026073Y011672D01*
X026129Y011695D01*
X026252Y011818D01*
X026318Y011979D01*
X026318Y012153D01*
X026252Y012314D01*
X026129Y012437D01*
X026073Y012460D01*
X026129Y012482D01*
X026252Y012605D01*
X026318Y012766D01*
X026318Y012940D01*
X026252Y013101D01*
X026129Y013224D01*
X025968Y013291D01*
X025794Y013291D01*
X025633Y013224D01*
X025510Y013101D01*
X025443Y012940D01*
X025443Y012766D01*
X025510Y012605D01*
X025633Y012482D01*
X025688Y012460D01*
X025633Y012437D01*
X025510Y012314D01*
X025443Y012153D01*
X025443Y011979D01*
X025510Y011818D01*
X025633Y011695D01*
X025688Y011672D01*
X025509Y011820D02*
X017591Y011820D01*
X017656Y011978D02*
X025444Y011978D01*
X025443Y012137D02*
X017657Y012137D01*
X017598Y012295D02*
X025502Y012295D01*
X025673Y012454D02*
X017427Y012454D01*
X017593Y012612D02*
X025507Y012612D01*
X025443Y012771D02*
X017657Y012771D01*
X017657Y012929D02*
X025443Y012929D01*
X025504Y013088D02*
X017596Y013088D01*
X017414Y013246D02*
X025686Y013246D01*
X026076Y013246D02*
X027644Y013246D01*
X027644Y013088D02*
X026257Y013088D01*
X026318Y012929D02*
X027644Y012929D01*
X027644Y012771D02*
X026318Y012771D01*
X026254Y012612D02*
X027644Y012612D01*
X027644Y012454D02*
X026088Y012454D01*
X026259Y012295D02*
X027644Y012295D01*
X027644Y012137D02*
X026318Y012137D01*
X026318Y011978D02*
X027644Y011978D01*
X027644Y011820D02*
X026252Y011820D01*
X026100Y011661D02*
X027644Y011661D01*
X027644Y011503D02*
X026261Y011503D01*
X026318Y011344D02*
X027644Y011344D01*
X027644Y011186D02*
X026316Y011186D01*
X026248Y011027D02*
X027644Y011027D01*
X027644Y010869D02*
X026113Y010869D01*
X026264Y010710D02*
X027644Y010710D01*
X027644Y010552D02*
X026318Y010552D01*
X026314Y010393D02*
X027644Y010393D01*
X027333Y010235D02*
X027333Y010235D01*
X026243Y010235D01*
X026125Y010076D02*
X027144Y010076D01*
X027072Y010015D02*
X027072Y010015D01*
X027072Y010015D01*
X027015Y009918D02*
X026266Y009918D01*
X026318Y009759D02*
X026924Y009759D01*
X026901Y009720D02*
X026901Y009720D01*
X026880Y009601D02*
X026311Y009601D01*
X026238Y009442D02*
X026852Y009442D01*
X026842Y009384D02*
X026842Y009384D01*
X026860Y009284D02*
X026132Y009284D01*
X026268Y009125D02*
X026888Y009125D01*
X026901Y009048D02*
X026901Y009048D01*
X026948Y008967D02*
X026318Y008967D01*
X026309Y008808D02*
X027040Y008808D01*
X027072Y008753D02*
X027072Y008753D01*
X027195Y008650D02*
X026233Y008650D01*
X026137Y008491D02*
X027449Y008491D01*
X027333Y008533D02*
X027333Y008533D01*
X027644Y008333D02*
X026270Y008333D01*
X026318Y008174D02*
X027644Y008174D01*
X027644Y008016D02*
X026307Y008016D01*
X026228Y007857D02*
X027644Y007857D01*
X027644Y007699D02*
X026142Y007699D01*
X026272Y007540D02*
X027644Y007540D01*
X027644Y007382D02*
X026318Y007382D01*
X026305Y007223D02*
X027644Y007223D01*
X027644Y007065D02*
X026222Y007065D01*
X026147Y006906D02*
X027644Y006906D01*
X027644Y006748D02*
X026274Y006748D01*
X026318Y006589D02*
X027644Y006589D01*
X027644Y006431D02*
X026303Y006431D01*
X026217Y006272D02*
X027644Y006272D01*
X027644Y006114D02*
X026153Y006114D01*
X026276Y005955D02*
X027644Y005955D01*
X027644Y005797D02*
X026318Y005797D01*
X026301Y005638D02*
X027644Y005638D01*
X027644Y005480D02*
X026212Y005480D01*
X025549Y005480D02*
X017576Y005480D01*
X017568Y005469D02*
X017611Y005527D01*
X017643Y005591D01*
X017666Y005660D01*
X017677Y005731D01*
X017677Y005767D01*
X017219Y005767D01*
X017219Y005767D01*
X017219Y005767D01*
X017219Y005309D01*
X017255Y005309D01*
X017326Y005320D01*
X017395Y005343D01*
X017459Y005375D01*
X017517Y005418D01*
X017568Y005469D01*
X017659Y005638D02*
X025460Y005638D01*
X025443Y005797D02*
X023154Y005797D01*
X023065Y005760D02*
X023260Y005841D01*
X023409Y005990D01*
X023490Y006185D01*
X023490Y006395D01*
X023409Y006590D01*
X023260Y006739D01*
X023170Y006777D01*
X023170Y007008D01*
X023212Y007008D01*
X023306Y007102D01*
X023306Y007549D01*
X023212Y007643D01*
X022608Y007643D01*
X022514Y007549D01*
X022514Y007102D01*
X022608Y007008D01*
X022750Y007008D01*
X022750Y006777D01*
X022660Y006739D01*
X022511Y006590D01*
X022481Y006518D01*
X022409Y006690D01*
X022260Y006839D01*
X022065Y006920D01*
X021855Y006920D01*
X021660Y006839D01*
X021511Y006690D01*
X021439Y006518D01*
X021409Y006590D01*
X021260Y006739D01*
X021065Y006820D01*
X020855Y006820D01*
X020660Y006739D01*
X020511Y006590D01*
X020510Y006589D01*
X020510Y006589D01*
X020510Y006784D01*
X020498Y006829D01*
X020474Y006871D01*
X020441Y006904D01*
X020399Y006928D01*
X020354Y006940D01*
X019980Y006940D01*
X019980Y006410D01*
X019940Y006410D01*
X019940Y006940D01*
X019566Y006940D01*
X019521Y006928D01*
X019479Y006904D01*
X019446Y006871D01*
X019422Y006829D01*
X019410Y006784D01*
X019410Y006410D01*
X019940Y006410D01*
X019940Y006370D01*
X019980Y006370D01*
X019980Y005840D01*
X020354Y005840D01*
X020399Y005852D01*
X020441Y005876D01*
X020474Y005909D01*
X020498Y005951D01*
X020509Y005993D01*
X020511Y005990D01*
X020660Y005841D01*
X020855Y005760D01*
X021065Y005760D01*
X021260Y005841D01*
X021409Y005990D01*
X021481Y006162D01*
X021511Y006090D01*
X021660Y005941D01*
X021855Y005860D01*
X022065Y005860D01*
X022260Y005941D01*
X022409Y006090D01*
X022439Y006162D01*
X022511Y005990D01*
X022660Y005841D01*
X022855Y005760D01*
X023065Y005760D01*
X022766Y005797D02*
X021154Y005797D01*
X021375Y005955D02*
X021645Y005955D01*
X021501Y006114D02*
X021461Y006114D01*
X020766Y005797D02*
X017677Y005797D01*
X017637Y005955D02*
X019421Y005955D01*
X019422Y005951D02*
X019446Y005909D01*
X019479Y005876D01*
X019521Y005852D01*
X019566Y005840D01*
X019940Y005840D01*
X019940Y006370D01*
X019410Y006370D01*
X019410Y005996D01*
X019422Y005951D01*
X019410Y006114D02*
X017519Y006114D01*
X017556Y006272D02*
X019410Y006272D01*
X019410Y006431D02*
X017642Y006431D01*
X017657Y006589D02*
X019410Y006589D01*
X019410Y006748D02*
X017613Y006748D01*
X017486Y006906D02*
X019483Y006906D01*
X019940Y006906D02*
X019980Y006906D01*
X019980Y006748D02*
X019940Y006748D01*
X019940Y006589D02*
X019980Y006589D01*
X019980Y006431D02*
X019940Y006431D01*
X019940Y006272D02*
X019980Y006272D01*
X019980Y006114D02*
X019940Y006114D01*
X019940Y005955D02*
X019980Y005955D01*
X020499Y005955D02*
X020545Y005955D01*
X021410Y006589D02*
X021469Y006589D01*
X021568Y006748D02*
X021240Y006748D01*
X020680Y006748D02*
X020510Y006748D01*
X020437Y006906D02*
X021821Y006906D01*
X022099Y006906D02*
X022750Y006906D01*
X022680Y006748D02*
X022352Y006748D01*
X022451Y006589D02*
X022510Y006589D01*
X022551Y007065D02*
X017561Y007065D01*
X017644Y007223D02*
X022514Y007223D01*
X022514Y007382D02*
X017657Y007382D01*
X017611Y007540D02*
X022514Y007540D01*
X022604Y007709D02*
X022563Y007733D01*
X022530Y007766D01*
X022506Y007807D01*
X022494Y007853D01*
X022494Y008034D01*
X022910Y008034D01*
X022910Y007697D01*
X023170Y007697D01*
X023216Y007709D01*
X023257Y007733D01*
X023290Y007766D01*
X023314Y007807D01*
X023326Y007853D01*
X023326Y008034D01*
X022910Y008034D01*
X022910Y008034D01*
X022910Y007697D01*
X022650Y007697D01*
X022604Y007709D01*
X022644Y007699D02*
X017481Y007699D01*
X017566Y007857D02*
X022494Y007857D01*
X022494Y008016D02*
X017646Y008016D01*
X017657Y008174D02*
X021281Y008174D01*
X021249Y008206D02*
X021356Y008099D01*
X021495Y008042D01*
X021645Y008042D01*
X021784Y008099D01*
X021891Y008206D01*
X021948Y008345D01*
X021948Y008495D01*
X021891Y008634D01*
X021784Y008741D01*
X021780Y008742D01*
X021780Y009920D01*
X021797Y009954D01*
X021780Y010004D01*
X021780Y010045D01*
X021791Y010056D01*
X021848Y010195D01*
X021848Y010345D01*
X021791Y010484D01*
X021684Y010591D01*
X021545Y010648D01*
X021395Y010648D01*
X021256Y010591D01*
X021149Y010484D01*
X021092Y010345D01*
X021092Y010195D01*
X021149Y010056D01*
X021256Y009949D01*
X021360Y009906D01*
X021360Y008742D01*
X021356Y008741D01*
X021249Y008634D01*
X021192Y008495D01*
X021192Y008345D01*
X021249Y008206D01*
X021197Y008333D02*
X017608Y008333D01*
X017476Y008491D02*
X021192Y008491D01*
X021265Y008650D02*
X017571Y008650D01*
X017648Y008808D02*
X021360Y008808D01*
X021360Y008967D02*
X017657Y008967D01*
X017606Y009125D02*
X021360Y009125D01*
X021360Y009284D02*
X017471Y009284D01*
X017576Y009442D02*
X021360Y009442D01*
X021360Y009601D02*
X017650Y009601D01*
X017657Y009759D02*
X021360Y009759D01*
X021333Y009918D02*
X017604Y009918D01*
X017464Y010076D02*
X021141Y010076D01*
X021092Y010235D02*
X017581Y010235D01*
X017652Y010393D02*
X021112Y010393D01*
X021217Y010552D02*
X017657Y010552D01*
X017602Y010710D02*
X025498Y010710D01*
X025443Y010552D02*
X021723Y010552D01*
X021828Y010393D02*
X025448Y010393D01*
X025519Y010235D02*
X021848Y010235D01*
X021799Y010076D02*
X025636Y010076D01*
X025496Y009918D02*
X021780Y009918D01*
X021780Y009759D02*
X025443Y009759D01*
X025450Y009601D02*
X021780Y009601D01*
X021780Y009442D02*
X025524Y009442D01*
X025629Y009284D02*
X021780Y009284D01*
X021780Y009125D02*
X025494Y009125D01*
X025443Y008967D02*
X021780Y008967D01*
X021780Y008808D02*
X025452Y008808D01*
X025529Y008650D02*
X021875Y008650D01*
X021948Y008491D02*
X025624Y008491D01*
X025492Y008333D02*
X023260Y008333D01*
X023257Y008336D02*
X023216Y008360D01*
X023170Y008372D01*
X022910Y008372D01*
X022650Y008372D01*
X022604Y008360D01*
X022563Y008336D01*
X022530Y008302D01*
X022506Y008261D01*
X022494Y008216D01*
X022494Y008034D01*
X022910Y008034D01*
X022910Y008034D01*
X022910Y008034D01*
X023326Y008034D01*
X023326Y008216D01*
X023314Y008261D01*
X023290Y008302D01*
X023257Y008336D01*
X023326Y008174D02*
X025443Y008174D01*
X025454Y008016D02*
X023326Y008016D01*
X023326Y007857D02*
X025534Y007857D01*
X025619Y007699D02*
X023176Y007699D01*
X023306Y007540D02*
X025489Y007540D01*
X025443Y007382D02*
X023306Y007382D01*
X023306Y007223D02*
X025456Y007223D01*
X025539Y007065D02*
X023269Y007065D01*
X023170Y006906D02*
X025614Y006906D01*
X025487Y006748D02*
X023240Y006748D01*
X023410Y006589D02*
X025443Y006589D01*
X025458Y006431D02*
X023475Y006431D01*
X023490Y006272D02*
X025544Y006272D01*
X025609Y006114D02*
X023461Y006114D01*
X023375Y005955D02*
X025485Y005955D01*
X027644Y005321D02*
X017328Y005321D01*
X017219Y005321D02*
X017219Y005321D01*
X017111Y005321D02*
X016286Y005321D01*
X016286Y005163D02*
X027644Y005163D01*
X027644Y005004D02*
X016255Y005004D01*
X016268Y004846D02*
X027644Y004846D01*
X027644Y004687D02*
X016204Y004687D01*
X015616Y004687D02*
X014104Y004687D01*
X013616Y004687D02*
X012091Y004687D01*
X011890Y005955D02*
X011890Y005955D01*
X011890Y006114D02*
X011890Y006114D01*
X012675Y007223D02*
X012922Y007223D01*
X012942Y007382D02*
X012675Y007382D01*
X012675Y007540D02*
X013053Y007540D01*
X013507Y007540D02*
X013962Y007540D01*
X013922Y007382D02*
X013618Y007382D01*
X013638Y007223D02*
X013953Y007223D01*
X013931Y007065D02*
X014049Y007065D01*
X014332Y006272D02*
X015476Y006272D01*
X015474Y006114D02*
X014256Y006114D01*
X014256Y005955D02*
X015474Y005955D01*
X015890Y005955D02*
X015890Y005955D01*
X015890Y006084D02*
X015890Y006422D01*
X015890Y006084D01*
X015890Y006084D01*
X015890Y006114D02*
X015890Y006114D01*
X015890Y006272D02*
X015890Y006272D01*
X015890Y005797D02*
X015890Y005797D01*
X016286Y005480D02*
X016862Y005480D01*
X017219Y005480D02*
X017219Y005480D01*
X017219Y005638D02*
X017219Y005638D01*
X021859Y008174D02*
X022494Y008174D01*
X022560Y008333D02*
X021943Y008333D01*
X022910Y008333D02*
X022910Y008333D01*
X022910Y008372D02*
X022910Y008034D01*
X022910Y008034D01*
X022910Y008372D01*
X022910Y008174D02*
X022910Y008174D01*
X022910Y008016D02*
X022910Y008016D01*
X022910Y007857D02*
X022910Y007857D01*
X022910Y007699D02*
X022910Y007699D01*
X022459Y006114D02*
X022419Y006114D01*
X022545Y005955D02*
X022275Y005955D01*
X026592Y004053D02*
X002560Y004053D01*
X002591Y003895D02*
X026561Y003895D01*
X026574Y003736D02*
X002578Y003736D01*
X002513Y003578D02*
X026640Y003578D01*
X026679Y004212D02*
X002473Y004212D01*
X002251Y004370D02*
X026901Y004370D01*
X027644Y003102D02*
X007919Y003102D01*
X007984Y002944D02*
X027644Y002944D01*
X025649Y010869D02*
X017451Y010869D01*
X017586Y011027D02*
X025514Y011027D01*
X025446Y011186D02*
X017654Y011186D01*
X017657Y011344D02*
X025443Y011344D01*
X025500Y011503D02*
X017600Y011503D01*
X015553Y010710D02*
X015427Y010710D01*
X014804Y010393D02*
X007903Y010393D01*
X008061Y010235D02*
X014889Y010235D01*
X015431Y010235D02*
X015459Y010235D01*
X009562Y014197D02*
X008898Y014197D01*
X008985Y014356D02*
X009475Y014356D01*
X009479Y014514D02*
X008981Y014514D01*
X008888Y014673D02*
X009572Y014673D01*
X004633Y011820D02*
X004596Y011820D01*
X004596Y011661D02*
X004633Y011661D01*
X003975Y012454D02*
X002332Y012454D01*
X002275Y012430D02*
X002452Y012503D01*
X002587Y012638D01*
X002660Y012815D01*
X002660Y013645D01*
X002587Y013822D01*
X002452Y013957D01*
X002275Y014030D01*
X002085Y014030D01*
X001908Y013957D01*
X001773Y013822D01*
X001700Y013645D01*
X001700Y012815D01*
X001773Y012638D01*
X001908Y012503D01*
X002085Y012430D01*
X002275Y012430D01*
X002028Y012454D02*
X001390Y012454D01*
X001390Y012612D02*
X001799Y012612D01*
X001718Y012771D02*
X001390Y012771D01*
X001390Y012929D02*
X001700Y012929D01*
X001700Y013088D02*
X001390Y013088D01*
X001390Y013246D02*
X001700Y013246D01*
X001700Y013405D02*
X001390Y013405D01*
X001390Y013563D02*
X001700Y013563D01*
X001731Y013722D02*
X001390Y013722D01*
X001390Y013880D02*
X001831Y013880D01*
X002529Y013880D02*
X002756Y013880D01*
X002700Y013722D02*
X002629Y013722D01*
X002660Y013563D02*
X002700Y013563D01*
X002700Y013405D02*
X002660Y013405D01*
X002660Y013246D02*
X002700Y013246D01*
X002700Y013088D02*
X002660Y013088D01*
X002660Y012929D02*
X002700Y012929D01*
X002642Y012771D02*
X002760Y012771D01*
X002899Y012612D02*
X002561Y012612D01*
X002470Y011978D02*
X002742Y011978D01*
X002735Y011820D02*
X002532Y011820D01*
X005666Y009601D02*
X006563Y009601D01*
X006563Y009284D02*
X003199Y009284D01*
X002634Y008491D02*
X002597Y008491D01*
X002597Y008333D02*
X002634Y008333D01*
X002634Y008174D02*
X002597Y008174D01*
X002597Y008016D02*
X002634Y008016D01*
X002634Y007857D02*
X002597Y007857D01*
X004739Y009442D02*
X006922Y009442D01*
X006958Y009442D02*
X007545Y009442D01*
X007545Y009284D02*
X007317Y009284D01*
X007278Y009125D02*
X007545Y009125D01*
X007545Y008967D02*
X007297Y008967D01*
X007297Y008808D02*
X007545Y008808D01*
X007545Y008650D02*
X007297Y008650D01*
X007317Y009601D02*
X007545Y009601D01*
X006313Y005480D02*
X006276Y005480D01*
X006276Y005321D02*
X006313Y005321D01*
X007296Y003102D02*
X001390Y003102D01*
X001390Y002944D02*
X007231Y002944D01*
X002359Y003419D02*
X002163Y003338D01*
X001950Y003338D01*
X001754Y003419D01*
X001600Y003578D02*
X001390Y003578D01*
X001390Y003736D02*
X001535Y003736D01*
X001522Y003895D02*
X001390Y003895D01*
X001390Y004053D02*
X001553Y004053D01*
X001640Y004212D02*
X001390Y004212D01*
X001390Y004370D02*
X001862Y004370D01*
X001390Y016575D02*
X027644Y016575D01*
X027644Y016733D02*
X001390Y016733D01*
D19*
X007500Y012770D03*
X009460Y011780D03*
X007950Y011140D03*
X006250Y009420D03*
X005300Y010260D03*
X004810Y010020D03*
X004440Y009650D03*
X003520Y008900D03*
X004260Y007620D03*
X004930Y007180D03*
X005210Y006770D03*
X005830Y007300D03*
X004430Y006940D03*
X003450Y006010D03*
X005200Y004560D03*
X007610Y003440D03*
X009370Y003250D03*
X011910Y005000D03*
X013860Y004950D03*
X015910Y004900D03*
X017150Y004580D03*
X017480Y003310D03*
X016170Y005970D03*
X014280Y007370D03*
X013730Y006760D03*
X013280Y007260D03*
X012390Y008480D03*
X011630Y008370D03*
X012730Y009260D03*
X015160Y010470D03*
X015770Y010420D03*
X017330Y010660D03*
X017330Y008900D03*
X021490Y007280D03*
X022340Y007180D03*
X016900Y013290D03*
X009070Y007510D03*
X010320Y007150D03*
X003440Y010890D03*
X003310Y011930D03*
D20*
X003290Y011950D02*
X002990Y011950D01*
X002930Y011890D01*
X002930Y010740D01*
X002715Y010955D01*
X002155Y010955D01*
X002155Y010725D01*
X002930Y010740D02*
X002930Y009655D01*
X002890Y009615D01*
X002890Y008945D02*
X002906Y008945D01*
X003026Y008825D01*
X003445Y008825D01*
X003520Y008900D01*
X004440Y009650D02*
X004480Y009700D01*
X004950Y009700D01*
X005030Y009750D01*
X005540Y009750D01*
X005690Y009900D01*
X007590Y009900D01*
X007740Y009750D01*
X007740Y007040D01*
X008130Y006650D01*
X010450Y006650D01*
X010890Y007090D01*
X012310Y007090D01*
X012480Y007260D01*
X012480Y008390D01*
X012390Y008480D01*
X011680Y008320D02*
X011680Y007780D01*
X011510Y007610D01*
X010070Y007610D01*
X009950Y007490D01*
X009950Y007120D01*
X009830Y007000D01*
X008310Y007000D01*
X008090Y007220D01*
X008090Y009930D01*
X007760Y010260D01*
X005300Y010260D01*
X005490Y009940D02*
X004930Y009940D01*
X004810Y010020D01*
X005490Y009940D02*
X005640Y010080D01*
X007680Y010080D01*
X007910Y009850D01*
X007910Y007130D01*
X008250Y006810D01*
X010230Y006810D01*
X010380Y006940D01*
X010380Y007090D01*
X010320Y007150D01*
X010600Y006440D02*
X011070Y006910D01*
X013120Y006910D01*
X013280Y007070D01*
X013280Y007260D01*
X013730Y006760D02*
X013650Y006680D01*
X011120Y006680D01*
X010700Y006260D01*
X005250Y006260D01*
X005210Y006300D01*
X005210Y006770D01*
X004820Y006720D02*
X004820Y006270D01*
X005030Y006060D01*
X010760Y006060D01*
X011220Y006520D01*
X013380Y006520D01*
X013480Y006420D01*
X014204Y006420D01*
X014244Y006460D01*
X014244Y007334D01*
X014280Y007370D01*
X014280Y007420D01*
X011680Y007575D02*
X011680Y007780D01*
X011680Y008320D02*
X011630Y008370D01*
X010600Y006440D02*
X005770Y006440D01*
X005670Y006540D01*
X005670Y006950D01*
X005390Y007180D01*
X004930Y007180D01*
X004600Y006940D02*
X004820Y006720D01*
X004600Y006940D02*
X004430Y006940D01*
X005830Y007270D02*
X005900Y007200D01*
X005900Y006870D01*
X005970Y006800D01*
X006275Y006800D01*
X006305Y006830D01*
X005830Y007270D02*
X005830Y007300D01*
X006940Y009455D02*
X006975Y009455D01*
X006990Y009440D01*
X007000Y009450D01*
X015740Y010420D02*
X015770Y010420D01*
D21*
X009480Y009560D03*
D22*
X011890Y005526D02*
X011890Y005020D01*
X011910Y005000D01*
X013840Y004970D02*
X013860Y004950D01*
X013840Y004970D02*
X013840Y005376D01*
D23*
X013840Y004970D02*
X011940Y004970D01*
X011910Y005000D01*
X013860Y004950D02*
X013890Y004920D01*
X015890Y004920D01*
X015910Y004900D01*
X015890Y004920D02*
X015890Y005376D01*
X021570Y008420D02*
X021570Y009970D01*
X021470Y010270D01*
X022910Y007326D02*
X022960Y007290D01*
X022960Y006290D01*
X006170Y012130D02*
X005955Y011915D01*
X006170Y012130D02*
X006180Y013230D01*
X003310Y011930D02*
X003290Y011950D01*
D24*
X021470Y010270D03*
X021570Y008420D03*
M02*
