G75*
%MOIN*%
%OFA0B0*%
%FSLAX24Y24*%
%IPPOS*%
%LPD*%
%AMOC8*
5,1,8,0,0,1.08239X$1,22.5*
%
%ADD10R,0.0300X0.0180*%
%ADD11C,0.0100*%
%ADD12R,0.0098X0.0098*%
%ADD13C,0.0050*%
%ADD14C,0.0240*%
%ADD15C,0.0220*%
%ADD16C,0.0060*%
%ADD17C,0.0040*%
%ADD18R,0.0059X0.0118*%
%ADD19R,0.0118X0.0118*%
%ADD20C,0.0080*%
%ADD21C,0.0160*%
%ADD22C,0.0157*%
%ADD23R,0.0079X0.0079*%
%ADD24R,0.0180X0.0300*%
D10*
X007800Y005620D03*
X010380Y005150D03*
X016680Y012190D03*
D11*
X003862Y003205D02*
X003795Y003272D01*
X003795Y003539D01*
X003862Y003605D01*
X003995Y003605D01*
X004062Y003539D01*
X004255Y003472D02*
X004389Y003605D01*
X004389Y003205D01*
X004522Y003205D02*
X004255Y003205D01*
X004062Y003272D02*
X003995Y003205D01*
X003862Y003205D01*
X002571Y004445D02*
X002305Y004445D01*
X002438Y004445D02*
X002438Y004845D01*
X002305Y004712D01*
X002111Y004445D02*
X001844Y004445D01*
X001978Y004445D02*
X001978Y004845D01*
X001844Y004712D01*
X001651Y004779D02*
X001651Y004645D01*
X001584Y004578D01*
X001384Y004578D01*
X001384Y004445D02*
X001384Y004845D01*
X001584Y004845D01*
X001651Y004779D01*
X001517Y004578D02*
X001651Y004445D01*
X001579Y005160D02*
X001446Y005160D01*
X001379Y005227D01*
X001512Y005360D02*
X001579Y005360D01*
X001646Y005293D01*
X001646Y005227D01*
X001579Y005160D01*
X001579Y005360D02*
X001646Y005427D01*
X001646Y005494D01*
X001579Y005560D01*
X001446Y005560D01*
X001379Y005494D01*
X001467Y005784D02*
X001600Y005784D01*
X001667Y005850D01*
X001860Y005784D02*
X002127Y005784D01*
X001994Y005784D02*
X001994Y006184D01*
X001860Y006051D01*
X001667Y006117D02*
X001600Y006184D01*
X001467Y006184D01*
X001400Y006117D01*
X001400Y005850D01*
X001467Y005784D01*
X001839Y005560D02*
X001839Y005293D01*
X001973Y005160D01*
X002106Y005293D01*
X002106Y005560D01*
X002300Y005494D02*
X002366Y005560D01*
X002500Y005560D01*
X002566Y005494D01*
X002566Y005427D01*
X002500Y005360D01*
X002566Y005293D01*
X002566Y005227D01*
X002500Y005160D01*
X002366Y005160D01*
X002300Y005227D01*
X002433Y005360D02*
X002500Y005360D01*
X002588Y005784D02*
X002321Y005784D01*
X002588Y006051D01*
X002588Y006117D01*
X002521Y006184D01*
X002388Y006184D01*
X002321Y006117D01*
X005019Y005740D02*
X005019Y005407D01*
X005086Y005340D01*
X005219Y005340D01*
X005286Y005407D01*
X005286Y005740D01*
X005480Y005740D02*
X005480Y005540D01*
X005613Y005607D01*
X005680Y005607D01*
X005747Y005540D01*
X005747Y005407D01*
X005680Y005340D01*
X005546Y005340D01*
X005480Y005407D01*
X005480Y005740D02*
X005747Y005740D01*
X006419Y005865D02*
X006419Y005465D01*
X006419Y005598D02*
X006619Y005598D01*
X006686Y005665D01*
X006686Y005799D01*
X006619Y005865D01*
X006419Y005865D01*
X006553Y005598D02*
X006686Y005465D01*
X006880Y005465D02*
X006880Y005532D01*
X007147Y005799D01*
X007147Y005865D01*
X006880Y005865D01*
X008235Y005734D02*
X008635Y005734D01*
X008635Y005867D02*
X008635Y005600D01*
X008635Y005407D02*
X008502Y005273D01*
X008502Y005340D02*
X008502Y005140D01*
X008635Y005140D02*
X008235Y005140D01*
X008235Y005340D01*
X008301Y005407D01*
X008435Y005407D01*
X008502Y005340D01*
X008935Y005288D02*
X009335Y005288D01*
X009335Y005421D02*
X009335Y005154D01*
X009335Y004961D02*
X009202Y004827D01*
X009202Y004894D02*
X009202Y004694D01*
X009335Y004694D02*
X008935Y004694D01*
X008935Y004894D01*
X009001Y004961D01*
X009135Y004961D01*
X009202Y004894D01*
X009068Y005154D02*
X008935Y005288D01*
X009001Y005615D02*
X008935Y005681D01*
X008935Y005815D01*
X009001Y005881D01*
X009268Y005615D01*
X009335Y005681D01*
X009335Y005815D01*
X009268Y005881D01*
X009001Y005881D01*
X009089Y005950D02*
X009089Y006350D01*
X009289Y006350D01*
X009356Y006284D01*
X009356Y006150D01*
X009289Y006083D01*
X009089Y006083D01*
X009222Y006083D02*
X009356Y005950D01*
X009549Y005950D02*
X009816Y005950D01*
X009683Y005950D02*
X009683Y006350D01*
X009549Y006217D01*
X010010Y006350D02*
X010276Y006350D01*
X010276Y006284D01*
X010010Y006017D01*
X010010Y005950D01*
X010185Y006015D02*
X010251Y006082D01*
X010385Y006082D01*
X010452Y006015D01*
X010452Y005815D01*
X010585Y005815D02*
X010185Y005815D01*
X010185Y006015D01*
X010452Y005948D02*
X010585Y006082D01*
X010585Y006275D02*
X010585Y006542D01*
X010585Y006409D02*
X010185Y006409D01*
X010318Y006275D01*
X010385Y006736D02*
X010385Y006936D01*
X010452Y007003D01*
X010518Y007003D01*
X010585Y006936D01*
X010585Y006803D01*
X010518Y006736D01*
X010385Y006736D01*
X010251Y006869D01*
X010185Y007003D01*
X010670Y007940D02*
X010670Y008207D01*
X010670Y008073D02*
X011070Y008073D01*
X011070Y008400D02*
X010670Y008667D01*
X010736Y008861D02*
X010670Y008928D01*
X010670Y009061D01*
X010736Y009128D01*
X011003Y008861D01*
X011070Y008928D01*
X011070Y009061D01*
X011003Y009128D01*
X010736Y009128D01*
X010825Y009025D02*
X010825Y008959D01*
X010958Y008825D01*
X010958Y008625D01*
X011070Y008667D02*
X010670Y008400D01*
X010736Y008861D02*
X011003Y008861D01*
X010958Y008825D02*
X011092Y008959D01*
X011092Y009025D01*
X011285Y008892D02*
X011419Y009025D01*
X011419Y008625D01*
X011450Y008611D02*
X011450Y008477D01*
X011516Y008410D01*
X011650Y008544D02*
X011650Y008611D01*
X011717Y008677D01*
X011783Y008677D01*
X011850Y008611D01*
X011850Y008477D01*
X011783Y008410D01*
X011783Y008217D02*
X011450Y008217D01*
X011450Y007950D02*
X011783Y007950D01*
X011850Y008017D01*
X011850Y008150D01*
X011783Y008217D01*
X012210Y008200D02*
X012210Y008000D01*
X012610Y008000D01*
X012477Y008000D02*
X012477Y008200D01*
X012410Y008267D01*
X012276Y008267D01*
X012210Y008200D01*
X012210Y008460D02*
X012610Y008727D01*
X012543Y008921D02*
X012276Y008921D01*
X012210Y008988D01*
X012210Y009121D01*
X012276Y009188D01*
X012543Y008921D01*
X012610Y008988D01*
X012610Y009121D01*
X012543Y009188D01*
X012276Y009188D01*
X011850Y009331D02*
X011450Y009331D01*
X011450Y009598D01*
X011516Y009792D02*
X011783Y009792D01*
X011850Y009858D01*
X011850Y009992D01*
X011783Y010058D01*
X011516Y010058D02*
X011450Y009992D01*
X011450Y009858D01*
X011516Y009792D01*
X011650Y009465D02*
X011650Y009331D01*
X011650Y009138D02*
X011650Y008871D01*
X011583Y008677D02*
X011650Y008611D01*
X011583Y008677D02*
X011516Y008677D01*
X011450Y008611D01*
X011552Y008625D02*
X011285Y008625D01*
X012210Y008727D02*
X012610Y008460D01*
X012610Y008267D02*
X012477Y008133D01*
X012980Y009050D02*
X012980Y009317D01*
X012980Y009183D02*
X013380Y009183D01*
X013380Y009510D02*
X012980Y009777D01*
X013113Y009971D02*
X012980Y010104D01*
X013380Y010104D01*
X013380Y009971D02*
X013380Y010238D01*
X013380Y009777D02*
X012980Y009510D01*
X013850Y009367D02*
X014183Y009367D01*
X014250Y009300D01*
X014250Y009167D01*
X014183Y009100D01*
X013850Y009100D01*
X014660Y009000D02*
X014660Y009200D01*
X014726Y009267D01*
X014860Y009267D01*
X014927Y009200D01*
X014927Y009000D01*
X015060Y009000D02*
X014660Y009000D01*
X014927Y009133D02*
X015060Y009267D01*
X015060Y009460D02*
X014660Y009727D01*
X014793Y009921D02*
X014660Y010054D01*
X015060Y010054D01*
X015060Y009921D02*
X015060Y010188D01*
X015060Y009727D02*
X014660Y009460D01*
X014250Y009560D02*
X014250Y009827D01*
X014250Y009694D02*
X013850Y009694D01*
X013983Y009560D01*
X014050Y010021D02*
X014050Y010288D01*
X014050Y010481D02*
X014050Y010615D01*
X013850Y010481D02*
X013850Y010748D01*
X013916Y010942D02*
X014183Y010942D01*
X014250Y011008D01*
X014250Y011142D01*
X014183Y011208D01*
X013916Y011208D02*
X013850Y011142D01*
X013850Y011008D01*
X013916Y010942D01*
X013850Y010481D02*
X014250Y010481D01*
X016155Y010417D02*
X016221Y010350D01*
X016488Y010350D01*
X016555Y010417D01*
X016555Y010550D01*
X016488Y010617D01*
X016555Y010810D02*
X016555Y011077D01*
X016555Y010944D02*
X016155Y010944D01*
X016288Y010810D01*
X016221Y010617D02*
X016155Y010550D01*
X016155Y010417D01*
X016355Y011271D02*
X016355Y011538D01*
X016555Y011471D02*
X016155Y011471D01*
X016355Y011271D01*
X017135Y011690D02*
X017135Y011890D01*
X017201Y011957D01*
X017335Y011957D01*
X017402Y011890D01*
X017402Y011690D01*
X017535Y011690D02*
X017135Y011690D01*
X017402Y011823D02*
X017535Y011957D01*
X017535Y012150D02*
X017268Y012417D01*
X017201Y012417D01*
X017135Y012351D01*
X017135Y012217D01*
X017201Y012150D01*
X017535Y012150D02*
X017535Y012417D01*
X017535Y012611D02*
X017535Y012878D01*
X017535Y012744D02*
X017135Y012744D01*
X017268Y012611D01*
X017706Y013616D02*
X017839Y013616D01*
X017906Y013683D01*
X018099Y013616D02*
X018366Y013883D01*
X018366Y013950D01*
X018299Y014017D01*
X018166Y014017D01*
X018099Y013950D01*
X017906Y013950D02*
X017839Y014017D01*
X017706Y014017D01*
X017639Y013950D01*
X017639Y013683D01*
X017706Y013616D01*
X018099Y013616D02*
X018366Y013616D01*
X018560Y013616D02*
X018826Y013616D01*
X018693Y013616D02*
X018693Y014017D01*
X018560Y013883D01*
X019576Y012848D02*
X019510Y012781D01*
X019510Y012648D01*
X019576Y012581D01*
X019643Y012581D01*
X019710Y012648D01*
X019710Y012781D01*
X019777Y012848D01*
X019843Y012848D01*
X019910Y012781D01*
X019910Y012648D01*
X019843Y012581D01*
X019777Y012581D01*
X019710Y012648D01*
X019710Y012781D02*
X019643Y012848D01*
X019576Y012848D01*
X019910Y012387D02*
X019910Y012120D01*
X019910Y012254D02*
X019510Y012254D01*
X019643Y012120D01*
X019576Y011927D02*
X019710Y011927D01*
X019777Y011860D01*
X019777Y011660D01*
X019910Y011660D02*
X019510Y011660D01*
X019510Y011860D01*
X019576Y011927D01*
X019777Y011793D02*
X019910Y011927D01*
X020285Y011950D02*
X020285Y011817D01*
X020351Y011750D01*
X020618Y011750D01*
X020685Y011817D01*
X020685Y011950D01*
X020618Y012017D01*
X020618Y012210D02*
X020685Y012277D01*
X020685Y012411D01*
X020618Y012477D01*
X020552Y012477D01*
X020485Y012411D01*
X020485Y012210D01*
X020618Y012210D01*
X020485Y012210D02*
X020351Y012344D01*
X020285Y012477D01*
X020351Y012017D02*
X020285Y011950D01*
X020419Y013500D02*
X020419Y013900D01*
X020619Y013900D01*
X020686Y013834D01*
X020686Y013700D01*
X020619Y013633D01*
X020419Y013633D01*
X020552Y013633D02*
X020686Y013500D01*
X020879Y013500D02*
X021146Y013767D01*
X021146Y013834D01*
X021079Y013900D01*
X020946Y013900D01*
X020879Y013834D01*
X020879Y013500D02*
X021146Y013500D01*
X021340Y013567D02*
X021406Y013500D01*
X021540Y013500D01*
X021606Y013567D01*
X021606Y013834D01*
X021540Y013900D01*
X021406Y013900D01*
X021340Y013834D01*
X021340Y013767D01*
X021406Y013700D01*
X021606Y013700D01*
X022686Y012550D02*
X022620Y012483D01*
X022620Y012350D01*
X022686Y012283D01*
X022620Y012090D02*
X022620Y011956D01*
X022620Y012023D02*
X022953Y012023D01*
X023020Y011956D01*
X023020Y011890D01*
X022953Y011823D01*
X022953Y011629D02*
X023020Y011563D01*
X023020Y011429D01*
X022953Y011363D01*
X022820Y011429D02*
X022820Y011563D01*
X022887Y011629D01*
X022953Y011629D01*
X022820Y011429D02*
X022753Y011363D01*
X022686Y011363D01*
X022620Y011429D01*
X022620Y011563D01*
X022686Y011629D01*
X023020Y012283D02*
X022753Y012550D01*
X022686Y012550D01*
X023020Y012550D02*
X023020Y012283D01*
X023300Y012580D02*
X023300Y012780D01*
X023366Y012847D01*
X023500Y012847D01*
X023567Y012780D01*
X023567Y012580D01*
X023700Y012580D02*
X023300Y012580D01*
X023567Y012713D02*
X023700Y012847D01*
X023700Y013040D02*
X023700Y013307D01*
X023700Y013174D02*
X023300Y013174D01*
X023433Y013040D01*
X023433Y013501D02*
X023500Y013568D01*
X023500Y013768D01*
X023633Y013768D02*
X023366Y013768D01*
X023300Y013701D01*
X023300Y013568D01*
X023366Y013501D01*
X023433Y013501D01*
X023633Y013501D02*
X023700Y013568D01*
X023700Y013701D01*
X023633Y013768D01*
X019290Y009690D02*
X019223Y009756D01*
X019090Y009756D01*
X019023Y009690D01*
X019023Y009623D01*
X019090Y009490D01*
X018890Y009490D01*
X018890Y009756D01*
X019290Y009690D02*
X019290Y009556D01*
X019223Y009490D01*
X019290Y009296D02*
X018890Y009029D01*
X018890Y008836D02*
X018890Y008569D01*
X018890Y008702D02*
X019290Y008702D01*
X019290Y009029D02*
X018890Y009296D01*
X017485Y008971D02*
X017485Y008838D01*
X017418Y008771D01*
X017151Y009038D01*
X017085Y008971D01*
X017085Y008838D01*
X017151Y008771D01*
X017418Y008771D01*
X017485Y008577D02*
X017485Y008310D01*
X017218Y008577D01*
X017151Y008577D01*
X017085Y008511D01*
X017085Y008377D01*
X017151Y008310D01*
X017151Y008117D02*
X017085Y008050D01*
X017085Y007917D01*
X017151Y007850D01*
X017418Y007850D01*
X017485Y007917D01*
X017485Y008050D01*
X017418Y008117D01*
X016610Y008067D02*
X016477Y007933D01*
X016477Y008000D02*
X016477Y007800D01*
X016610Y007800D02*
X016210Y007800D01*
X016210Y008000D01*
X016276Y008067D01*
X016410Y008067D01*
X016477Y008000D01*
X016610Y008260D02*
X016210Y008527D01*
X016276Y008721D02*
X016210Y008788D01*
X016210Y008921D01*
X016276Y008988D01*
X016343Y008988D01*
X016610Y008721D01*
X016610Y008988D01*
X016610Y008527D02*
X016210Y008260D01*
X015860Y008260D02*
X015460Y008527D01*
X015526Y008721D02*
X015460Y008788D01*
X015460Y008921D01*
X015526Y008988D01*
X015593Y008988D01*
X015860Y008721D01*
X015860Y008988D01*
X015860Y008527D02*
X015460Y008260D01*
X015460Y008067D02*
X015460Y007800D01*
X015460Y007933D02*
X015860Y007933D01*
X017151Y009038D02*
X017418Y009038D01*
X017485Y008971D01*
X021209Y008140D02*
X021209Y007807D01*
X021276Y007740D01*
X021409Y007740D01*
X021476Y007807D01*
X021476Y008140D01*
X021669Y008007D02*
X021803Y008140D01*
X021803Y007740D01*
X021936Y007740D02*
X021669Y007740D01*
X022130Y007807D02*
X022196Y007740D01*
X022330Y007740D01*
X022396Y007807D01*
X022396Y007940D01*
X022330Y008007D01*
X022263Y008007D01*
X022130Y007940D01*
X022130Y008140D01*
X022396Y008140D01*
X023310Y008109D02*
X023310Y008309D01*
X023376Y008376D01*
X023510Y008376D01*
X023577Y008309D01*
X023577Y008109D01*
X023710Y008109D02*
X023310Y008109D01*
X023577Y008242D02*
X023710Y008376D01*
X023710Y008569D02*
X023310Y008836D01*
X023310Y009030D02*
X023510Y009030D01*
X023443Y009163D01*
X023443Y009230D01*
X023510Y009296D01*
X023643Y009296D01*
X023710Y009230D01*
X023710Y009096D01*
X023643Y009030D01*
X023710Y008836D02*
X023310Y008569D01*
X023310Y009030D02*
X023310Y009296D01*
X015080Y005507D02*
X015080Y005240D01*
X014813Y005507D01*
X014746Y005507D01*
X014680Y005440D01*
X014680Y005306D01*
X014746Y005240D01*
X014680Y005046D02*
X015013Y005046D01*
X015080Y004979D01*
X015080Y004846D01*
X015013Y004779D01*
X014680Y004779D01*
X014044Y003890D02*
X014044Y003490D01*
X014177Y003490D02*
X013910Y003490D01*
X013717Y003557D02*
X013717Y003890D01*
X013910Y003757D02*
X014044Y003890D01*
X013717Y003557D02*
X013650Y003490D01*
X013517Y003490D01*
X013450Y003557D01*
X013450Y003890D01*
X012237Y003894D02*
X012237Y003827D01*
X012171Y003760D01*
X012237Y003693D01*
X012237Y003627D01*
X012171Y003560D01*
X012037Y003560D01*
X011970Y003627D01*
X012104Y003760D02*
X012171Y003760D01*
X012237Y003894D02*
X012171Y003960D01*
X012037Y003960D01*
X011970Y003894D01*
X011777Y003960D02*
X011777Y003627D01*
X011710Y003560D01*
X011577Y003560D01*
X011510Y003627D01*
X011510Y003960D01*
X010200Y003867D02*
X010200Y003600D01*
X009800Y003600D01*
X009430Y003614D02*
X009030Y003614D01*
X009030Y003814D01*
X009096Y003881D01*
X009230Y003881D01*
X009297Y003814D01*
X009297Y003614D01*
X009297Y003748D02*
X009430Y003881D01*
X009363Y004075D02*
X009430Y004141D01*
X009430Y004275D01*
X009363Y004342D01*
X009096Y004342D01*
X009030Y004275D01*
X009030Y004141D01*
X009096Y004075D01*
X009163Y004075D01*
X009230Y004141D01*
X009230Y004342D01*
X009800Y004327D02*
X009800Y004060D01*
X010200Y004060D01*
X010200Y004327D01*
X010200Y004521D02*
X009800Y004521D01*
X009800Y004721D01*
X009866Y004788D01*
X010133Y004788D01*
X010200Y004721D01*
X010200Y004521D01*
X010000Y004194D02*
X010000Y004060D01*
X010133Y004981D02*
X010200Y005048D01*
X010200Y005181D01*
X010133Y005248D01*
X010067Y005248D01*
X010000Y005181D01*
X010000Y005115D01*
X010000Y005181D02*
X009933Y005248D01*
X009866Y005248D01*
X009800Y005181D01*
X009800Y005048D01*
X009866Y004981D01*
X009268Y005615D02*
X009001Y005615D01*
X008368Y005600D02*
X008235Y005734D01*
X008435Y006061D02*
X008435Y006328D01*
X008635Y006261D02*
X008235Y006261D01*
X008435Y006061D01*
X008383Y004856D02*
X008316Y004856D01*
X008250Y004790D01*
X008250Y004656D01*
X008316Y004590D01*
X008316Y004396D02*
X008250Y004329D01*
X008250Y004129D01*
X008650Y004129D01*
X008650Y004329D01*
X008583Y004396D01*
X008316Y004396D01*
X008650Y004590D02*
X008383Y004856D01*
X008650Y004856D02*
X008650Y004590D01*
X008650Y003936D02*
X008650Y003669D01*
X008250Y003669D01*
X008250Y003936D01*
X008450Y003802D02*
X008450Y003669D01*
X008650Y003475D02*
X008650Y003208D01*
X008250Y003208D01*
X007246Y003392D02*
X007180Y003325D01*
X007046Y003325D01*
X006980Y003392D01*
X007246Y003659D01*
X007246Y003392D01*
X006980Y003392D02*
X006980Y003659D01*
X007046Y003725D01*
X007180Y003725D01*
X007246Y003659D01*
X006786Y003659D02*
X006719Y003725D01*
X006586Y003725D01*
X006519Y003659D01*
X006326Y003659D02*
X006326Y003525D01*
X006259Y003458D01*
X006059Y003458D01*
X006059Y003325D02*
X006059Y003725D01*
X006259Y003725D01*
X006326Y003659D01*
X006192Y003458D02*
X006326Y003325D01*
X006519Y003325D02*
X006786Y003592D01*
X006786Y003659D01*
X006786Y003325D02*
X006519Y003325D01*
X007621Y008800D02*
X007888Y008800D01*
X007955Y008867D01*
X007955Y009000D01*
X007888Y009067D01*
X007955Y009260D02*
X007955Y009527D01*
X007955Y009394D02*
X007555Y009394D01*
X007688Y009260D01*
X007621Y009067D02*
X007555Y009000D01*
X007555Y008867D01*
X007621Y008800D01*
X007755Y009721D02*
X007755Y009921D01*
X007822Y009988D01*
X007888Y009988D01*
X007955Y009921D01*
X007955Y009788D01*
X007888Y009721D01*
X007755Y009721D01*
X007621Y009854D01*
X007555Y009988D01*
X010029Y010532D02*
X010096Y010465D01*
X010229Y010465D01*
X010296Y010532D01*
X010489Y010465D02*
X010756Y010465D01*
X010623Y010465D02*
X010623Y010865D01*
X010489Y010732D01*
X010296Y010799D02*
X010229Y010865D01*
X010096Y010865D01*
X010029Y010799D01*
X010029Y010532D01*
X010950Y010532D02*
X011016Y010465D01*
X011150Y010465D01*
X011216Y010532D01*
X011216Y010665D01*
X011150Y010732D01*
X011083Y010732D01*
X010950Y010665D01*
X010950Y010865D01*
X011216Y010865D01*
X004417Y011785D02*
X004150Y011785D01*
X004350Y011985D01*
X004350Y011585D01*
X003956Y011652D02*
X003889Y011585D01*
X003756Y011585D01*
X003689Y011652D01*
X003689Y011919D01*
X003756Y011985D01*
X003889Y011985D01*
X003956Y011919D01*
X003066Y010791D02*
X002799Y010791D01*
X002606Y010791D02*
X002606Y010458D01*
X002539Y010391D01*
X002406Y010391D01*
X002339Y010458D01*
X002339Y010791D01*
X002799Y010458D02*
X002799Y010391D01*
X002799Y010458D02*
X003066Y010725D01*
X003066Y010791D01*
D12*
X002940Y005599D03*
X009380Y004021D03*
D13*
X011300Y004708D02*
X011300Y005652D01*
X012521Y005652D01*
X012521Y004708D01*
X011300Y004708D01*
X012142Y005377D02*
X012144Y005400D01*
X012150Y005423D01*
X012159Y005445D01*
X012172Y005464D01*
X012188Y005481D01*
X012206Y005496D01*
X012227Y005507D01*
X012249Y005515D01*
X012272Y005519D01*
X012296Y005519D01*
X012319Y005515D01*
X012341Y005507D01*
X012362Y005496D01*
X012380Y005481D01*
X012396Y005464D01*
X012409Y005445D01*
X012418Y005423D01*
X012424Y005400D01*
X012426Y005377D01*
X012424Y005354D01*
X012418Y005331D01*
X012409Y005309D01*
X012396Y005290D01*
X012380Y005273D01*
X012362Y005258D01*
X012341Y005247D01*
X012319Y005239D01*
X012296Y005235D01*
X012272Y005235D01*
X012249Y005239D01*
X012227Y005247D01*
X012206Y005258D01*
X012188Y005273D01*
X012172Y005290D01*
X012159Y005309D01*
X012150Y005331D01*
X012144Y005354D01*
X012142Y005377D01*
X013230Y005632D02*
X014451Y005632D01*
X014451Y004688D01*
X013230Y004688D01*
X013230Y005632D01*
X014072Y005357D02*
X014074Y005380D01*
X014080Y005403D01*
X014089Y005425D01*
X014102Y005444D01*
X014118Y005461D01*
X014136Y005476D01*
X014157Y005487D01*
X014179Y005495D01*
X014202Y005499D01*
X014226Y005499D01*
X014249Y005495D01*
X014271Y005487D01*
X014292Y005476D01*
X014310Y005461D01*
X014326Y005444D01*
X014339Y005425D01*
X014348Y005403D01*
X014354Y005380D01*
X014356Y005357D01*
X014354Y005334D01*
X014348Y005311D01*
X014339Y005289D01*
X014326Y005270D01*
X014310Y005253D01*
X014292Y005238D01*
X014271Y005227D01*
X014249Y005219D01*
X014226Y005215D01*
X014202Y005215D01*
X014179Y005219D01*
X014157Y005227D01*
X014136Y005238D01*
X014118Y005253D01*
X014102Y005270D01*
X014089Y005289D01*
X014080Y005311D01*
X014074Y005334D01*
X014072Y005357D01*
X016300Y002805D02*
X026796Y002801D01*
X026796Y002803D02*
X026800Y019671D01*
X026800Y019670D01*
X019865Y019670D01*
X019857Y019672D02*
X016300Y019672D01*
X016300Y002805D01*
X016300Y002804D01*
X019460Y005340D02*
X019960Y005340D01*
X019960Y005840D01*
X022960Y005840D01*
X022960Y005340D01*
X019960Y005340D01*
X019460Y005340D02*
X019460Y007540D01*
X023460Y007540D01*
X023460Y005340D01*
X022960Y005340D01*
X022375Y008255D02*
X021045Y008255D01*
X021045Y010405D01*
X022375Y010405D01*
X022375Y008255D01*
X022050Y008810D02*
X021550Y008810D01*
X021550Y009310D01*
X022050Y009310D01*
X022050Y008810D01*
X022550Y007810D02*
X022521Y007743D01*
X022488Y007678D01*
X022453Y007615D01*
X022413Y007553D01*
X022371Y007494D01*
X022325Y007438D01*
X022276Y007383D01*
X022225Y007332D01*
X022171Y007283D01*
X022114Y007238D01*
X022055Y007195D01*
X021993Y007156D01*
X021930Y007120D01*
X021865Y007088D01*
X021798Y007059D01*
X021729Y007034D01*
X021660Y007013D01*
X021589Y006995D01*
X021518Y006982D01*
X021445Y006972D01*
X021373Y006966D01*
X021300Y006964D01*
X021227Y006966D01*
X021155Y006972D01*
X021082Y006982D01*
X021011Y006995D01*
X020940Y007013D01*
X020871Y007034D01*
X020802Y007059D01*
X020735Y007088D01*
X020670Y007120D01*
X020607Y007156D01*
X020545Y007195D01*
X020486Y007238D01*
X020429Y007283D01*
X020375Y007332D01*
X020324Y007383D01*
X020275Y007438D01*
X020229Y007494D01*
X020187Y007553D01*
X020147Y007615D01*
X020112Y007678D01*
X020079Y007743D01*
X020050Y007810D01*
X021190Y008270D02*
X021190Y010390D01*
X021310Y010200D02*
X021312Y010220D01*
X021318Y010238D01*
X021327Y010256D01*
X021339Y010271D01*
X021354Y010283D01*
X021372Y010292D01*
X021390Y010298D01*
X021410Y010300D01*
X021430Y010298D01*
X021448Y010292D01*
X021466Y010283D01*
X021481Y010271D01*
X021493Y010256D01*
X021502Y010238D01*
X021508Y010220D01*
X021510Y010200D01*
X021508Y010180D01*
X021502Y010162D01*
X021493Y010144D01*
X021481Y010129D01*
X021466Y010117D01*
X021448Y010108D01*
X021430Y010102D01*
X021410Y010100D01*
X021390Y010102D01*
X021372Y010108D01*
X021354Y010117D01*
X021339Y010129D01*
X021327Y010144D01*
X021318Y010162D01*
X021312Y010180D01*
X021310Y010200D01*
X021050Y009310D02*
X020550Y009310D01*
X020550Y008810D01*
X021050Y008810D01*
X021050Y009310D01*
X021059Y011325D02*
X021059Y011502D01*
X021059Y011738D01*
X021059Y011915D01*
X022121Y011915D01*
X022121Y011325D01*
X021059Y011325D01*
X021059Y011502D02*
X021079Y011504D01*
X021099Y011509D01*
X021118Y011518D01*
X021135Y011530D01*
X021149Y011544D01*
X021161Y011561D01*
X021170Y011580D01*
X021175Y011600D01*
X021177Y011620D01*
X021175Y011640D01*
X021170Y011660D01*
X021161Y011679D01*
X021149Y011696D01*
X021135Y011710D01*
X021118Y011722D01*
X021099Y011731D01*
X021079Y011736D01*
X021059Y011738D01*
X021234Y011522D02*
X021236Y011542D01*
X021242Y011560D01*
X021251Y011578D01*
X021263Y011593D01*
X021278Y011605D01*
X021296Y011614D01*
X021314Y011620D01*
X021334Y011622D01*
X021354Y011620D01*
X021372Y011614D01*
X021390Y011605D01*
X021405Y011593D01*
X021417Y011578D01*
X021426Y011560D01*
X021432Y011542D01*
X021434Y011522D01*
X021432Y011502D01*
X021426Y011484D01*
X021417Y011466D01*
X021405Y011451D01*
X021390Y011439D01*
X021372Y011430D01*
X021354Y011424D01*
X021334Y011422D01*
X021314Y011424D01*
X021296Y011430D01*
X021278Y011439D01*
X021263Y011451D01*
X021251Y011466D01*
X021242Y011484D01*
X021236Y011502D01*
X021234Y011522D01*
X016550Y014810D02*
X026550Y014810D01*
X025560Y014970D02*
X025206Y014970D01*
X025127Y014970D01*
X025127Y016191D01*
X025166Y016191D01*
X025166Y015009D01*
X025087Y015009D01*
X025087Y016230D01*
X025206Y016230D01*
X025206Y014970D01*
X025127Y014970D02*
X025087Y014970D01*
X025087Y015009D01*
X025087Y014970D02*
X024300Y014970D01*
X023020Y014950D02*
X022666Y014950D01*
X022587Y014950D01*
X022587Y016171D01*
X022626Y016171D01*
X022626Y014989D01*
X022547Y014989D01*
X022547Y016210D01*
X022666Y016210D01*
X022666Y014950D01*
X022587Y014950D02*
X022547Y014950D01*
X022547Y014989D01*
X022547Y014950D02*
X021760Y014950D01*
X020370Y014990D02*
X020016Y014990D01*
X019937Y014990D01*
X019937Y016211D01*
X019976Y016211D01*
X019976Y015029D01*
X019897Y015029D01*
X019897Y016250D01*
X020016Y016250D01*
X020016Y014990D01*
X019937Y014990D02*
X019897Y014990D01*
X019897Y015029D01*
X019897Y014990D02*
X019110Y014990D01*
X017630Y014930D02*
X017276Y014930D01*
X017197Y014930D01*
X017197Y016151D01*
X017236Y016151D01*
X017236Y014969D01*
X017157Y014969D01*
X017157Y016190D01*
X017276Y016190D01*
X017276Y014930D01*
X017197Y014930D02*
X017157Y014930D01*
X017157Y014969D01*
X017157Y014930D02*
X016370Y014930D01*
X016370Y016190D02*
X017157Y016190D01*
X017276Y016190D02*
X017630Y016190D01*
X019110Y016250D02*
X019897Y016250D01*
X020016Y016250D02*
X020370Y016250D01*
X021760Y016210D02*
X022547Y016210D01*
X022666Y016210D02*
X023020Y016210D01*
X024300Y016230D02*
X025087Y016230D01*
X025206Y016230D02*
X025560Y016230D01*
X004523Y015906D02*
X003539Y015906D01*
X003539Y014921D02*
X004523Y014921D01*
X002390Y012125D02*
X001390Y011125D01*
X003390Y011125D01*
X002390Y012125D01*
X001520Y011205D02*
X001460Y011155D01*
X001560Y011155D01*
X003250Y011155D02*
X003260Y011205D01*
X003290Y011185D01*
X003320Y011145D02*
X003250Y011155D01*
X003390Y004590D02*
X004190Y004590D01*
D14*
X003140Y011225D02*
X001640Y011225D01*
X001690Y011275D02*
X002190Y011775D01*
X002390Y011975D01*
X003140Y011225D01*
X002940Y011425D02*
X001840Y011425D01*
X002040Y011625D02*
X002740Y011625D01*
X002590Y011775D02*
X002190Y011775D01*
D15*
X005190Y003592D02*
X005190Y003568D01*
X017458Y007100D02*
X017482Y007100D01*
D16*
X020314Y010922D02*
X020314Y011158D01*
X020786Y011158D02*
X020786Y010922D01*
X016646Y012387D02*
X016646Y012623D01*
X016174Y012623D02*
X016174Y012387D01*
X005178Y011946D02*
X004942Y011946D01*
X004942Y011474D02*
X005178Y011474D01*
D17*
X012474Y006031D02*
X012627Y006184D01*
X012627Y005724D01*
X012474Y005724D02*
X012781Y005724D01*
X014404Y005704D02*
X014711Y005704D01*
X014557Y005704D02*
X014557Y006164D01*
X014404Y006011D01*
X017223Y013330D02*
X017070Y013483D01*
X017530Y013483D01*
X017530Y013330D02*
X017530Y013637D01*
X017621Y014214D02*
X017774Y014214D01*
X017851Y014291D01*
X017851Y014367D01*
X017774Y014444D01*
X017544Y014444D01*
X017544Y014291D01*
X017621Y014214D01*
X017544Y014444D02*
X017697Y014598D01*
X017851Y014674D01*
X017390Y014598D02*
X017390Y014291D01*
X017314Y014214D01*
X017083Y014214D01*
X017083Y014674D01*
X017314Y014674D01*
X017390Y014598D01*
X016930Y014674D02*
X016623Y014674D01*
X016623Y014214D01*
X016930Y014214D01*
X016777Y014444D02*
X016623Y014444D01*
X016470Y014214D02*
X016163Y014214D01*
X016163Y014674D01*
X018903Y014734D02*
X018903Y014274D01*
X019210Y014274D01*
X019363Y014274D02*
X019670Y014274D01*
X019823Y014274D02*
X020054Y014274D01*
X020130Y014351D01*
X020130Y014658D01*
X020054Y014734D01*
X019823Y014734D01*
X019823Y014274D01*
X019517Y014504D02*
X019363Y014504D01*
X019363Y014734D02*
X019363Y014274D01*
X019363Y014734D02*
X019670Y014734D01*
X020284Y014734D02*
X020284Y014504D01*
X020437Y014581D01*
X020514Y014581D01*
X020591Y014504D01*
X020591Y014351D01*
X020514Y014274D01*
X020361Y014274D01*
X020284Y014351D01*
X020284Y014734D02*
X020591Y014734D01*
X021553Y014694D02*
X021553Y014234D01*
X021860Y014234D01*
X022013Y014234D02*
X022320Y014234D01*
X022473Y014234D02*
X022704Y014234D01*
X022780Y014311D01*
X022780Y014618D01*
X022704Y014694D01*
X022473Y014694D01*
X022473Y014234D01*
X022013Y014234D02*
X022013Y014694D01*
X022320Y014694D01*
X022167Y014464D02*
X022013Y014464D01*
X022934Y014464D02*
X023241Y014464D01*
X023164Y014234D02*
X023164Y014694D01*
X022934Y014464D01*
X024093Y014254D02*
X024400Y014254D01*
X024553Y014254D02*
X024860Y014254D01*
X025013Y014254D02*
X025244Y014254D01*
X025320Y014331D01*
X025320Y014638D01*
X025244Y014714D01*
X025013Y014714D01*
X025013Y014254D01*
X024707Y014484D02*
X024553Y014484D01*
X024553Y014714D02*
X024553Y014254D01*
X024093Y014254D02*
X024093Y014714D01*
X024553Y014714D02*
X024860Y014714D01*
X025474Y014561D02*
X025627Y014714D01*
X025627Y014254D01*
X025474Y014254D02*
X025781Y014254D01*
D18*
X007948Y004281D03*
X007652Y004281D03*
D19*
X007800Y004281D03*
D20*
X005449Y004020D02*
X005111Y004020D01*
X004961Y004474D02*
X004961Y004686D01*
X005111Y005140D02*
X005449Y005140D01*
X004262Y005134D02*
X004262Y005724D01*
X003318Y005724D01*
X003318Y005134D01*
X003318Y004346D02*
X003318Y003913D01*
X003475Y003756D01*
X004105Y003756D01*
X004262Y003913D01*
X004262Y004346D01*
X003676Y006522D02*
X003282Y006522D01*
X003282Y006916D01*
X006904Y006522D02*
X007298Y006522D01*
X007298Y006916D01*
X009444Y008940D02*
X009916Y008940D01*
X010664Y009452D02*
X010664Y009688D01*
X009916Y010200D02*
X009444Y010200D01*
X008696Y009688D02*
X008696Y009452D01*
X007298Y010144D02*
X007298Y010538D01*
X006904Y010538D01*
X003676Y010538D02*
X003282Y010144D01*
X001790Y012780D02*
X001680Y012890D01*
X001680Y013280D01*
X001680Y013670D01*
X001790Y013780D01*
X001780Y013280D02*
X001680Y013280D01*
X002580Y013280D02*
X002780Y013280D01*
X003580Y013280D02*
X003780Y013280D01*
X004580Y013280D02*
X004780Y013280D01*
X005580Y013280D02*
X005780Y013280D01*
X006580Y013280D02*
X006680Y013280D01*
X006680Y013670D01*
X006570Y013780D01*
X006680Y013280D02*
X006680Y012890D01*
X006570Y012780D01*
X007813Y013741D02*
X010647Y013741D01*
X010647Y015119D01*
X007813Y015119D01*
X007813Y013741D01*
X017920Y013246D02*
X017920Y012774D01*
X017920Y013246D01*
X018038Y013404D01*
X019002Y013404D01*
X019140Y013246D01*
X019140Y012774D01*
X019036Y012620D02*
X018014Y012620D01*
X017920Y012026D02*
X017920Y011356D01*
X019160Y011356D01*
X019160Y012026D01*
X022266Y011205D02*
X022266Y010575D01*
X022267Y010575D02*
X022273Y010557D01*
X022282Y010539D01*
X022294Y010524D01*
X022310Y010512D01*
X022327Y010503D01*
X022346Y010497D01*
X022365Y010495D01*
X022385Y010497D01*
X022935Y010497D02*
X022953Y010495D01*
X022970Y010496D01*
X022987Y010500D01*
X023003Y010507D01*
X023018Y010517D01*
X023030Y010529D01*
X023040Y010543D01*
X023048Y010559D01*
X023053Y010575D01*
X023054Y010575D02*
X023054Y011205D01*
X023053Y011205D02*
X023048Y011221D01*
X023040Y011237D01*
X023030Y011251D01*
X023018Y011263D01*
X023003Y011273D01*
X022987Y011280D01*
X022970Y011284D01*
X022953Y011285D01*
X022935Y011283D01*
X022385Y011283D02*
X022365Y011285D01*
X022346Y011283D01*
X022327Y011277D01*
X022310Y011268D01*
X022294Y011256D01*
X022282Y011241D01*
X022273Y011223D01*
X022267Y011205D01*
X016451Y005691D02*
X016451Y004509D01*
X015269Y004509D02*
X015269Y005691D01*
D21*
X011332Y009700D02*
X011308Y009700D01*
X008312Y009350D02*
X008288Y009350D01*
D22*
X016313Y005553D03*
D23*
X019730Y009261D03*
X023490Y010291D03*
D24*
X006810Y005000D03*
X006810Y004150D03*
M02*
