G75*
G70*
%OFA0B0*%
%FSLAX25Y25*%
%IPPOS*%
%LPD*%
%AMOC8*
5,1,8,0,0,1.08239X$1,22.5*
%
%ADD1611C,0.04000*%
%ADD1621C,0.01600*%
%ADD2282C,0.05000*%
%ADD2612C,0.03200*%
%ADD588C,0.00000*%
%ADD770C,0.00500*%
X0020000Y0020000D02*
G75*
%LPD*%
D588*
X0220000Y0020000D02*
X0020000Y0020000D01*
X0020000Y0420000D01*
X0220000Y0420000D01*
X0220000Y0020000D01*
X0210000Y0024490D02*
X0209530Y0024510D01*
X0209070Y0024570D01*
X0208610Y0024670D01*
X0208160Y0024800D01*
X0207730Y0024980D01*
X0207310Y0025190D01*
X0206910Y0025430D01*
X0206540Y0025710D01*
X0206190Y0026020D01*
X0205860Y0026360D01*
X0205570Y0026720D01*
X0205310Y0027110D01*
X0205080Y0027520D01*
X0204890Y0027950D01*
X0204730Y0028390D01*
X0204610Y0028840D01*
X0204530Y0029300D01*
X0204490Y0029770D01*
X0204490Y0030230D01*
X0204530Y0030700D01*
X0204610Y0031160D01*
X0204730Y0031610D01*
X0204890Y0032050D01*
X0205080Y0032480D01*
X0205310Y0032890D01*
X0205570Y0033280D01*
X0205860Y0033640D01*
X0206190Y0033980D01*
X0206540Y0034290D01*
X0206910Y0034570D01*
X0207310Y0034810D01*
X0207730Y0035020D01*
X0208160Y0035200D01*
X0208610Y0035330D01*
X0209070Y0035430D01*
X0209530Y0035490D01*
X0210000Y0035510D01*
X0210470Y0035490D01*
X0210930Y0035430D01*
X0211390Y0035330D01*
X0211840Y0035200D01*
X0212270Y0035020D01*
X0212690Y0034810D01*
X0213090Y0034570D01*
X0213460Y0034290D01*
X0213810Y0033980D01*
X0214140Y0033640D01*
X0214430Y0033280D01*
X0214690Y0032890D01*
X0214920Y0032480D01*
X0215110Y0032050D01*
X0215270Y0031610D01*
X0215390Y0031160D01*
X0215470Y0030700D01*
X0215510Y0030230D01*
X0215510Y0029770D01*
X0215470Y0029300D01*
X0215390Y0028840D01*
X0215270Y0028390D01*
X0215110Y0027950D01*
X0214920Y0027520D01*
X0214690Y0027110D01*
X0214430Y0026720D01*
X0214140Y0026360D01*
X0213810Y0026020D01*
X0213460Y0025710D01*
X0213090Y0025430D01*
X0212690Y0025190D01*
X0212270Y0024980D01*
X0211840Y0024800D01*
X0211390Y0024670D01*
X0210930Y0024570D01*
X0210470Y0024510D01*
X0210000Y0024490D01*
X0030000Y0024490D02*
X0029530Y0024510D01*
X0029070Y0024570D01*
X0028610Y0024670D01*
X0028160Y0024800D01*
X0027730Y0024980D01*
X0027310Y0025190D01*
X0026910Y0025430D01*
X0026540Y0025710D01*
X0026190Y0026020D01*
X0025860Y0026360D01*
X0025570Y0026720D01*
X0025310Y0027110D01*
X0025080Y0027520D01*
X0024890Y0027950D01*
X0024730Y0028390D01*
X0024610Y0028840D01*
X0024530Y0029300D01*
X0024490Y0029770D01*
X0024490Y0030230D01*
X0024530Y0030700D01*
X0024610Y0031160D01*
X0024730Y0031610D01*
X0024890Y0032050D01*
X0025080Y0032480D01*
X0025310Y0032890D01*
X0025570Y0033280D01*
X0025860Y0033640D01*
X0026190Y0033980D01*
X0026540Y0034290D01*
X0026910Y0034570D01*
X0027310Y0034810D01*
X0027730Y0035020D01*
X0028160Y0035200D01*
X0028610Y0035330D01*
X0029070Y0035430D01*
X0029530Y0035490D01*
X0030000Y0035510D01*
X0030470Y0035490D01*
X0030930Y0035430D01*
X0031390Y0035330D01*
X0031840Y0035200D01*
X0032270Y0035020D01*
X0032690Y0034810D01*
X0033090Y0034570D01*
X0033460Y0034290D01*
X0033810Y0033980D01*
X0034140Y0033640D01*
X0034430Y0033280D01*
X0034690Y0032890D01*
X0034920Y0032480D01*
X0035110Y0032050D01*
X0035270Y0031610D01*
X0035390Y0031160D01*
X0035470Y0030700D01*
X0035510Y0030230D01*
X0035510Y0029770D01*
X0035470Y0029300D01*
X0035390Y0028840D01*
X0035270Y0028390D01*
X0035110Y0027950D01*
X0034920Y0027520D01*
X0034690Y0027110D01*
X0034430Y0026720D01*
X0034140Y0026360D01*
X0033810Y0026020D01*
X0033460Y0025710D01*
X0033090Y0025430D01*
X0032690Y0025190D01*
X0032270Y0024980D01*
X0031840Y0024800D01*
X0031390Y0024670D01*
X0030930Y0024570D01*
X0030470Y0024510D01*
X0030000Y0024490D01*
X0030000Y0404490D02*
X0029530Y0404510D01*
X0029070Y0404570D01*
X0028610Y0404670D01*
X0028160Y0404800D01*
X0027730Y0404980D01*
X0027310Y0405190D01*
X0026910Y0405430D01*
X0026540Y0405710D01*
X0026190Y0406020D01*
X0025860Y0406360D01*
X0025570Y0406720D01*
X0025310Y0407110D01*
X0025080Y0407520D01*
X0024890Y0407950D01*
X0024730Y0408390D01*
X0024610Y0408840D01*
X0024530Y0409300D01*
X0024490Y0409770D01*
X0024490Y0410230D01*
X0024530Y0410700D01*
X0024610Y0411160D01*
X0024730Y0411610D01*
X0024890Y0412050D01*
X0025080Y0412480D01*
X0025310Y0412890D01*
X0025570Y0413280D01*
X0025860Y0413640D01*
X0026190Y0413980D01*
X0026540Y0414290D01*
X0026910Y0414570D01*
X0027310Y0414810D01*
X0027730Y0415020D01*
X0028160Y0415200D01*
X0028610Y0415330D01*
X0029070Y0415430D01*
X0029530Y0415490D01*
X0030000Y0415510D01*
X0030470Y0415490D01*
X0030930Y0415430D01*
X0031390Y0415330D01*
X0031840Y0415200D01*
X0032270Y0415020D01*
X0032690Y0414810D01*
X0033090Y0414570D01*
X0033460Y0414290D01*
X0033810Y0413980D01*
X0034140Y0413640D01*
X0034430Y0413280D01*
X0034690Y0412890D01*
X0034920Y0412480D01*
X0035110Y0412050D01*
X0035270Y0411610D01*
X0035390Y0411160D01*
X0035470Y0410700D01*
X0035510Y0410230D01*
X0035510Y0409770D01*
X0035470Y0409300D01*
X0035390Y0408840D01*
X0035270Y0408390D01*
X0035110Y0407950D01*
X0034920Y0407520D01*
X0034690Y0407110D01*
X0034430Y0406720D01*
X0034140Y0406360D01*
X0033810Y0406020D01*
X0033460Y0405710D01*
X0033090Y0405430D01*
X0032690Y0405190D01*
X0032270Y0404980D01*
X0031840Y0404800D01*
X0031390Y0404670D01*
X0030930Y0404570D01*
X0030470Y0404510D01*
X0030000Y0404490D01*
X0210000Y0404490D02*
X0209530Y0404510D01*
X0209070Y0404570D01*
X0208610Y0404670D01*
X0208160Y0404800D01*
X0207730Y0404980D01*
X0207310Y0405190D01*
X0206910Y0405430D01*
X0206540Y0405710D01*
X0206190Y0406020D01*
X0205860Y0406360D01*
X0205570Y0406720D01*
X0205310Y0407110D01*
X0205080Y0407520D01*
X0204890Y0407950D01*
X0204730Y0408390D01*
X0204610Y0408840D01*
X0204530Y0409300D01*
X0204490Y0409770D01*
X0204490Y0410230D01*
X0204530Y0410700D01*
X0204610Y0411160D01*
X0204730Y0411610D01*
X0204890Y0412050D01*
X0205080Y0412480D01*
X0205310Y0412890D01*
X0205570Y0413280D01*
X0205860Y0413640D01*
X0206190Y0413980D01*
X0206540Y0414290D01*
X0206910Y0414570D01*
X0207310Y0414810D01*
X0207730Y0415020D01*
X0208160Y0415200D01*
X0208610Y0415330D01*
X0209070Y0415430D01*
X0209530Y0415490D01*
X0210000Y0415510D01*
X0210470Y0415490D01*
X0210930Y0415430D01*
X0211390Y0415330D01*
X0211840Y0415200D01*
X0212270Y0415020D01*
X0212690Y0414810D01*
X0213090Y0414570D01*
X0213460Y0414290D01*
X0213810Y0413980D01*
X0214140Y0413640D01*
X0214430Y0413280D01*
X0214690Y0412890D01*
X0214920Y0412480D01*
X0215110Y0412050D01*
X0215270Y0411610D01*
X0215390Y0411160D01*
X0215470Y0410700D01*
X0215510Y0410230D01*
X0215510Y0409770D01*
X0215470Y0409300D01*
X0215390Y0408840D01*
X0215270Y0408390D01*
X0215110Y0407950D01*
X0214920Y0407520D01*
X0214690Y0407110D01*
X0214430Y0406720D01*
X0214140Y0406360D01*
X0213810Y0406020D01*
X0213460Y0405710D01*
X0213090Y0405430D01*
X0212690Y0405190D01*
X0212270Y0404980D01*
X0211840Y0404800D01*
X0211390Y0404670D01*
X0210930Y0404570D01*
X0210470Y0404510D01*
X0210000Y0404490D01*
X0020000Y0432500D02*
G75*
%LPD*%
D770*
X0412260Y0465000D02*
X0135390Y0465000D01*
X0134310Y0464980D01*
X0133220Y0464920D01*
X0132140Y0464830D01*
X0131070Y0464690D01*
X0129990Y0464520D01*
X0128930Y0464310D01*
X0127870Y0464060D01*
X0126830Y0463770D01*
X0125790Y0463440D01*
X0124770Y0463080D01*
X0123760Y0462690D01*
X0122770Y0462250D01*
X0121790Y0461790D01*
X0120830Y0461280D01*
X0119880Y0460750D01*
X0118960Y0460180D01*
X0118060Y0459570D01*
X0117180Y0458940D01*
X0116320Y0458270D01*
X0115490Y0457580D01*
X0114680Y0456850D01*
X0113900Y0456100D01*
X0113150Y0455320D01*
X0112420Y0454510D01*
X0111730Y0453680D01*
X0111060Y0452820D01*
X0110430Y0451940D01*
X0109820Y0451040D01*
X0109250Y0450120D01*
X0108720Y0449170D01*
X0108210Y0448210D01*
X0107750Y0447230D01*
X0107310Y0446240D01*
X0106920Y0445230D01*
X0106560Y0444210D01*
X0106230Y0443170D01*
X0105940Y0442130D01*
X0105690Y0441070D01*
X0105480Y0440010D01*
X0105310Y0438930D01*
X0105170Y0437860D01*
X0105080Y0436780D01*
X0105020Y0435690D01*
X0105000Y0434610D01*
X0105000Y0432500D01*
X0020000Y0432500D01*
X0020000Y0832500D01*
X0105000Y0832500D01*
X0105000Y0830280D01*
X0105020Y0829200D01*
X0105080Y0828120D01*
X0105170Y0827040D01*
X0105310Y0825970D01*
X0105480Y0824900D01*
X0105690Y0823840D01*
X0105940Y0822790D01*
X0106230Y0821750D01*
X0106550Y0820720D01*
X0106910Y0819700D01*
X0107300Y0818690D01*
X0107740Y0817700D01*
X0108200Y0816730D01*
X0108700Y0815770D01*
X0109240Y0814830D01*
X0109810Y0813910D01*
X0110410Y0813010D01*
X0111040Y0812140D01*
X0111700Y0811280D01*
X0112400Y0810460D01*
X0113120Y0809650D01*
X0113870Y0808870D01*
X0114650Y0808120D01*
X0115450Y0807400D01*
X0116280Y0806710D01*
X0117130Y0806050D01*
X0118010Y0805410D01*
X0118910Y0804810D01*
X0119830Y0804250D01*
X0120770Y0803710D01*
X0121720Y0803210D01*
X0122700Y0802740D01*
X0123690Y0802310D01*
X0124700Y0801920D01*
X0125720Y0801560D01*
X0126750Y0801230D01*
X0127790Y0800950D01*
X0128840Y0800700D01*
X0129900Y0800490D01*
X0130970Y0800320D01*
X0132040Y0800180D01*
X0133120Y0800090D01*
X0134200Y0800030D01*
X0135280Y0800010D01*
X0135270Y0800010D02*
X0412180Y0800100D01*
X0412190Y0800090D02*
X0412960Y0800070D01*
X0413740Y0800010D01*
X0414510Y0799910D01*
X0415270Y0799780D01*
X0416030Y0799600D01*
X0416770Y0799390D01*
X0417510Y0799140D01*
X0418230Y0798850D01*
X0418930Y0798530D01*
X0419620Y0798170D01*
X0420290Y0797770D01*
X0420940Y0797350D01*
X0421560Y0796890D01*
X0422160Y0796400D01*
X0422740Y0795880D01*
X0423290Y0795330D01*
X0423810Y0794750D01*
X0424300Y0794150D01*
X0424760Y0793530D01*
X0425180Y0792880D01*
X0425580Y0792210D01*
X0425940Y0791520D01*
X0426260Y0790820D01*
X0426550Y0790100D01*
X0426800Y0789360D01*
X0427010Y0788620D01*
X0427190Y0787860D01*
X0427320Y0787100D01*
X0427420Y0786330D01*
X0427480Y0785550D01*
X0427500Y0784780D01*
X0427500Y0480240D01*
X0427480Y0479470D01*
X0427420Y0478700D01*
X0427320Y0477930D01*
X0427190Y0477170D01*
X0427010Y0476420D01*
X0426800Y0475680D01*
X0426550Y0474950D01*
X0426260Y0474230D01*
X0425940Y0473530D01*
X0425590Y0472840D01*
X0425190Y0472180D01*
X0424770Y0471530D01*
X0424310Y0470910D01*
X0423820Y0470310D01*
X0423310Y0469740D01*
X0422760Y0469190D01*
X0422190Y0468680D01*
X0421590Y0468190D01*
X0420970Y0467730D01*
X0420320Y0467310D01*
X0419660Y0466910D01*
X0418970Y0466560D01*
X0418270Y0466240D01*
X0417550Y0465950D01*
X0416820Y0465700D01*
X0416080Y0465490D01*
X0415330Y0465310D01*
X0414570Y0465180D01*
X0413800Y0465080D01*
X0413030Y0465020D01*
X0412260Y0465000D01*
D588*
X0057500Y0538500D02*
X0056980Y0538520D01*
X0056460Y0538580D01*
X0055940Y0538680D01*
X0055440Y0538810D01*
X0054940Y0538980D01*
X0054460Y0539190D01*
X0054000Y0539440D01*
X0053560Y0539720D01*
X0053140Y0540030D01*
X0052740Y0540370D01*
X0052370Y0540740D01*
X0052030Y0541140D01*
X0051720Y0541560D01*
X0051440Y0542000D01*
X0051190Y0542460D01*
X0050980Y0542940D01*
X0050810Y0543440D01*
X0050680Y0543940D01*
X0050580Y0544460D01*
X0050520Y0544980D01*
X0050500Y0545500D01*
X0050520Y0546020D01*
X0050580Y0546540D01*
X0050680Y0547060D01*
X0050810Y0547560D01*
X0050980Y0548060D01*
X0051190Y0548540D01*
X0051440Y0549000D01*
X0051720Y0549440D01*
X0052030Y0549860D01*
X0052370Y0550260D01*
X0052740Y0550630D01*
X0053140Y0550970D01*
X0053560Y0551280D01*
X0054000Y0551560D01*
X0054460Y0551810D01*
X0054940Y0552020D01*
X0055440Y0552190D01*
X0055940Y0552320D01*
X0056460Y0552420D01*
X0056980Y0552480D01*
X0057500Y0552500D01*
X0058020Y0552480D01*
X0058540Y0552420D01*
X0059060Y0552320D01*
X0059560Y0552190D01*
X0060060Y0552020D01*
X0060540Y0551810D01*
X0061000Y0551560D01*
X0061440Y0551280D01*
X0061860Y0550970D01*
X0062260Y0550630D01*
X0062630Y0550260D01*
X0062970Y0549860D01*
X0063280Y0549440D01*
X0063560Y0549000D01*
X0063810Y0548540D01*
X0064020Y0548060D01*
X0064190Y0547560D01*
X0064320Y0547060D01*
X0064420Y0546540D01*
X0064480Y0546020D01*
X0064500Y0545500D01*
X0064480Y0544980D01*
X0064420Y0544460D01*
X0064320Y0543940D01*
X0064190Y0543440D01*
X0064020Y0542940D01*
X0063810Y0542460D01*
X0063560Y0542000D01*
X0063280Y0541560D01*
X0062970Y0541140D01*
X0062630Y0540740D01*
X0062260Y0540370D01*
X0061860Y0540030D01*
X0061440Y0539720D01*
X0061000Y0539440D01*
X0060540Y0539190D01*
X0060060Y0538980D01*
X0059560Y0538810D01*
X0059060Y0538680D01*
X0058540Y0538580D01*
X0058020Y0538520D01*
X0057500Y0538500D01*
X0057500Y0743500D02*
X0056980Y0743520D01*
X0056460Y0743580D01*
X0055940Y0743680D01*
X0055440Y0743810D01*
X0054940Y0743980D01*
X0054460Y0744190D01*
X0054000Y0744440D01*
X0053560Y0744720D01*
X0053140Y0745030D01*
X0052740Y0745370D01*
X0052370Y0745740D01*
X0052030Y0746140D01*
X0051720Y0746560D01*
X0051440Y0747000D01*
X0051190Y0747460D01*
X0050980Y0747940D01*
X0050810Y0748440D01*
X0050680Y0748940D01*
X0050580Y0749460D01*
X0050520Y0749980D01*
X0050500Y0750500D01*
X0050520Y0751020D01*
X0050580Y0751540D01*
X0050680Y0752060D01*
X0050810Y0752560D01*
X0050980Y0753060D01*
X0051190Y0753540D01*
X0051440Y0754000D01*
X0051720Y0754440D01*
X0052030Y0754860D01*
X0052370Y0755260D01*
X0052740Y0755630D01*
X0053140Y0755970D01*
X0053560Y0756280D01*
X0054000Y0756560D01*
X0054460Y0756810D01*
X0054940Y0757020D01*
X0055440Y0757190D01*
X0055940Y0757320D01*
X0056460Y0757420D01*
X0056980Y0757480D01*
X0057500Y0757500D01*
X0058020Y0757480D01*
X0058540Y0757420D01*
X0059060Y0757320D01*
X0059560Y0757190D01*
X0060060Y0757020D01*
X0060540Y0756810D01*
X0061000Y0756560D01*
X0061440Y0756280D01*
X0061860Y0755970D01*
X0062260Y0755630D01*
X0062630Y0755260D01*
X0062970Y0754860D01*
X0063280Y0754440D01*
X0063560Y0754000D01*
X0063810Y0753540D01*
X0064020Y0753060D01*
X0064190Y0752560D01*
X0064320Y0752060D01*
X0064420Y0751540D01*
X0064480Y0751020D01*
X0064500Y0750500D01*
X0064480Y0749980D01*
X0064420Y0749460D01*
X0064320Y0748940D01*
X0064190Y0748440D01*
X0064020Y0747940D01*
X0063810Y0747460D01*
X0063560Y0747000D01*
X0063280Y0746560D01*
X0062970Y0746140D01*
X0062630Y0745740D01*
X0062260Y0745370D01*
X0061860Y0745030D01*
X0061440Y0744720D01*
X0061000Y0744440D01*
X0060540Y0744190D01*
X0060060Y0743980D01*
X0059560Y0743810D01*
X0059060Y0743680D01*
X0058540Y0743580D01*
X0058020Y0743520D01*
X0057500Y0743500D01*
X0232500Y0020000D02*
G75*
%LPD*%
D770*
X0232500Y0020000D02*
X0232500Y0410000D01*
X0503500Y0410000D01*
X0503500Y0401000D01*
X0503520Y0400610D01*
X0503580Y0400220D01*
X0503670Y0399840D01*
X0503800Y0399470D01*
X0503970Y0399110D01*
X0504170Y0398780D01*
X0504410Y0398460D01*
X0504670Y0398170D01*
X0504960Y0397910D01*
X0505280Y0397670D01*
X0505610Y0397470D01*
X0505970Y0397300D01*
X0506340Y0397170D01*
X0506720Y0397080D01*
X0507110Y0397020D01*
X0507500Y0397000D01*
X0507890Y0397020D01*
X0508280Y0397080D01*
X0508660Y0397170D01*
X0509030Y0397300D01*
X0509390Y0397470D01*
X0509720Y0397670D01*
X0510040Y0397910D01*
X0510330Y0398170D01*
X0510590Y0398460D01*
X0510830Y0398780D01*
X0511030Y0399110D01*
X0511200Y0399470D01*
X0511330Y0399840D01*
X0511420Y0400220D01*
X0511480Y0400610D01*
X0511500Y0401000D01*
X0511500Y0410000D01*
X0537500Y0410000D01*
X0537500Y0020000D01*
X0511500Y0020000D01*
X0511500Y0030000D01*
X0511480Y0030390D01*
X0511420Y0030780D01*
X0511330Y0031160D01*
X0511200Y0031530D01*
X0511030Y0031890D01*
X0510830Y0032220D01*
X0510590Y0032540D01*
X0510330Y0032830D01*
X0510040Y0033090D01*
X0509720Y0033330D01*
X0509390Y0033530D01*
X0509030Y0033700D01*
X0508660Y0033830D01*
X0508280Y0033920D01*
X0507890Y0033980D01*
X0507500Y0034000D01*
X0507110Y0033980D01*
X0506720Y0033920D01*
X0506340Y0033830D01*
X0505970Y0033700D01*
X0505610Y0033530D01*
X0505280Y0033330D01*
X0504960Y0033090D01*
X0504670Y0032830D01*
X0504410Y0032540D01*
X0504170Y0032220D01*
X0503970Y0031890D01*
X0503800Y0031530D01*
X0503670Y0031160D01*
X0503580Y0030780D01*
X0503520Y0030390D01*
X0503500Y0030000D01*
X0503500Y0020000D01*
X0232500Y0020000D01*
X0550000Y0020000D02*
G75*
%LPD*%
D588*
X0550000Y0020000D02*
X0550000Y0410000D01*
X0780000Y0410000D01*
X0780000Y0020000D01*
X0550000Y0020000D01*
X0563500Y0040000D02*
X0563520Y0040500D01*
X0563580Y0041000D01*
X0563680Y0041500D01*
X0563810Y0041980D01*
X0563980Y0042460D01*
X0564190Y0042920D01*
X0564430Y0043360D01*
X0564710Y0043780D01*
X0565020Y0044180D01*
X0565360Y0044550D01*
X0565730Y0044900D01*
X0566120Y0045210D01*
X0566530Y0045500D01*
X0566970Y0045750D01*
X0567430Y0045970D01*
X0567900Y0046150D01*
X0568380Y0046290D01*
X0568870Y0046400D01*
X0569370Y0046470D01*
X0569870Y0046500D01*
X0570380Y0046490D01*
X0570880Y0046440D01*
X0571380Y0046350D01*
X0571860Y0046230D01*
X0572340Y0046060D01*
X0572800Y0045860D01*
X0573250Y0045630D01*
X0573680Y0045360D01*
X0574080Y0045060D01*
X0574460Y0044730D01*
X0574810Y0044370D01*
X0575140Y0043980D01*
X0575430Y0043570D01*
X0575690Y0043140D01*
X0575920Y0042690D01*
X0576110Y0042220D01*
X0576260Y0041740D01*
X0576380Y0041250D01*
X0576460Y0040750D01*
X0576500Y0040250D01*
X0576500Y0039750D01*
X0576460Y0039250D01*
X0576380Y0038750D01*
X0576260Y0038260D01*
X0576110Y0037780D01*
X0575920Y0037310D01*
X0575690Y0036860D01*
X0575430Y0036430D01*
X0575140Y0036020D01*
X0574810Y0035630D01*
X0574460Y0035270D01*
X0574080Y0034940D01*
X0573680Y0034640D01*
X0573250Y0034370D01*
X0572800Y0034140D01*
X0572340Y0033940D01*
X0571860Y0033770D01*
X0571380Y0033650D01*
X0570880Y0033560D01*
X0570380Y0033510D01*
X0569870Y0033500D01*
X0569370Y0033530D01*
X0568870Y0033600D01*
X0568380Y0033710D01*
X0567900Y0033850D01*
X0567430Y0034030D01*
X0566970Y0034250D01*
X0566530Y0034500D01*
X0566120Y0034790D01*
X0565730Y0035100D01*
X0565360Y0035450D01*
X0565020Y0035820D01*
X0564710Y0036220D01*
X0564430Y0036640D01*
X0564190Y0037080D01*
X0563980Y0037540D01*
X0563810Y0038020D01*
X0563680Y0038500D01*
X0563580Y0039000D01*
X0563520Y0039500D01*
X0563500Y0040000D01*
X0753500Y0040000D02*
X0753520Y0040500D01*
X0753580Y0041000D01*
X0753680Y0041500D01*
X0753810Y0041980D01*
X0753980Y0042460D01*
X0754190Y0042920D01*
X0754430Y0043360D01*
X0754710Y0043780D01*
X0755020Y0044180D01*
X0755360Y0044550D01*
X0755730Y0044900D01*
X0756120Y0045210D01*
X0756530Y0045500D01*
X0756970Y0045750D01*
X0757430Y0045970D01*
X0757900Y0046150D01*
X0758380Y0046290D01*
X0758870Y0046400D01*
X0759370Y0046470D01*
X0759870Y0046500D01*
X0760380Y0046490D01*
X0760880Y0046440D01*
X0761380Y0046350D01*
X0761860Y0046230D01*
X0762340Y0046060D01*
X0762800Y0045860D01*
X0763250Y0045630D01*
X0763680Y0045360D01*
X0764080Y0045060D01*
X0764460Y0044730D01*
X0764810Y0044370D01*
X0765140Y0043980D01*
X0765430Y0043570D01*
X0765690Y0043140D01*
X0765920Y0042690D01*
X0766110Y0042220D01*
X0766260Y0041740D01*
X0766380Y0041250D01*
X0766460Y0040750D01*
X0766500Y0040250D01*
X0766500Y0039750D01*
X0766460Y0039250D01*
X0766380Y0038750D01*
X0766260Y0038260D01*
X0766110Y0037780D01*
X0765920Y0037310D01*
X0765690Y0036860D01*
X0765430Y0036430D01*
X0765140Y0036020D01*
X0764810Y0035630D01*
X0764460Y0035270D01*
X0764080Y0034940D01*
X0763680Y0034640D01*
X0763250Y0034370D01*
X0762800Y0034140D01*
X0762340Y0033940D01*
X0761860Y0033770D01*
X0761380Y0033650D01*
X0760880Y0033560D01*
X0760380Y0033510D01*
X0759870Y0033500D01*
X0759370Y0033530D01*
X0758870Y0033600D01*
X0758380Y0033710D01*
X0757900Y0033850D01*
X0757430Y0034030D01*
X0756970Y0034250D01*
X0756530Y0034500D01*
X0756120Y0034790D01*
X0755730Y0035100D01*
X0755360Y0035450D01*
X0755020Y0035820D01*
X0754710Y0036220D01*
X0754430Y0036640D01*
X0754190Y0037080D01*
X0753980Y0037540D01*
X0753810Y0038020D01*
X0753680Y0038500D01*
X0753580Y0039000D01*
X0753520Y0039500D01*
X0753500Y0040000D01*
X0753500Y0390000D02*
X0753520Y0390500D01*
X0753580Y0391000D01*
X0753680Y0391500D01*
X0753810Y0391980D01*
X0753980Y0392460D01*
X0754190Y0392920D01*
X0754430Y0393360D01*
X0754710Y0393780D01*
X0755020Y0394180D01*
X0755360Y0394550D01*
X0755730Y0394900D01*
X0756120Y0395210D01*
X0756530Y0395500D01*
X0756970Y0395750D01*
X0757430Y0395970D01*
X0757900Y0396150D01*
X0758380Y0396290D01*
X0758870Y0396400D01*
X0759370Y0396470D01*
X0759870Y0396500D01*
X0760380Y0396490D01*
X0760880Y0396440D01*
X0761380Y0396350D01*
X0761860Y0396230D01*
X0762340Y0396060D01*
X0762800Y0395860D01*
X0763250Y0395630D01*
X0763680Y0395360D01*
X0764080Y0395060D01*
X0764460Y0394730D01*
X0764810Y0394370D01*
X0765140Y0393980D01*
X0765430Y0393570D01*
X0765690Y0393140D01*
X0765920Y0392690D01*
X0766110Y0392220D01*
X0766260Y0391740D01*
X0766380Y0391250D01*
X0766460Y0390750D01*
X0766500Y0390250D01*
X0766500Y0389750D01*
X0766460Y0389250D01*
X0766380Y0388750D01*
X0766260Y0388260D01*
X0766110Y0387780D01*
X0765920Y0387310D01*
X0765690Y0386860D01*
X0765430Y0386430D01*
X0765140Y0386020D01*
X0764810Y0385630D01*
X0764460Y0385270D01*
X0764080Y0384940D01*
X0763680Y0384640D01*
X0763250Y0384370D01*
X0762800Y0384140D01*
X0762340Y0383940D01*
X0761860Y0383770D01*
X0761380Y0383650D01*
X0760880Y0383560D01*
X0760380Y0383510D01*
X0759870Y0383500D01*
X0759370Y0383530D01*
X0758870Y0383600D01*
X0758380Y0383710D01*
X0757900Y0383850D01*
X0757430Y0384030D01*
X0756970Y0384250D01*
X0756530Y0384500D01*
X0756120Y0384790D01*
X0755730Y0385100D01*
X0755360Y0385450D01*
X0755020Y0385820D01*
X0754710Y0386220D01*
X0754430Y0386640D01*
X0754190Y0387080D01*
X0753980Y0387540D01*
X0753810Y0388020D01*
X0753680Y0388500D01*
X0753580Y0389000D01*
X0753520Y0389500D01*
X0753500Y0390000D01*
X0563500Y0390000D02*
X0563520Y0390500D01*
X0563580Y0391000D01*
X0563680Y0391500D01*
X0563810Y0391980D01*
X0563980Y0392460D01*
X0564190Y0392920D01*
X0564430Y0393360D01*
X0564710Y0393780D01*
X0565020Y0394180D01*
X0565360Y0394550D01*
X0565730Y0394900D01*
X0566120Y0395210D01*
X0566530Y0395500D01*
X0566970Y0395750D01*
X0567430Y0395970D01*
X0567900Y0396150D01*
X0568380Y0396290D01*
X0568870Y0396400D01*
X0569370Y0396470D01*
X0569870Y0396500D01*
X0570380Y0396490D01*
X0570880Y0396440D01*
X0571380Y0396350D01*
X0571860Y0396230D01*
X0572340Y0396060D01*
X0572800Y0395860D01*
X0573250Y0395630D01*
X0573680Y0395360D01*
X0574080Y0395060D01*
X0574460Y0394730D01*
X0574810Y0394370D01*
X0575140Y0393980D01*
X0575430Y0393570D01*
X0575690Y0393140D01*
X0575920Y0392690D01*
X0576110Y0392220D01*
X0576260Y0391740D01*
X0576380Y0391250D01*
X0576460Y0390750D01*
X0576500Y0390250D01*
X0576500Y0389750D01*
X0576460Y0389250D01*
X0576380Y0388750D01*
X0576260Y0388260D01*
X0576110Y0387780D01*
X0575920Y0387310D01*
X0575690Y0386860D01*
X0575430Y0386430D01*
X0575140Y0386020D01*
X0574810Y0385630D01*
X0574460Y0385270D01*
X0574080Y0384940D01*
X0573680Y0384640D01*
X0573250Y0384370D01*
X0572800Y0384140D01*
X0572340Y0383940D01*
X0571860Y0383770D01*
X0571380Y0383650D01*
X0570880Y0383560D01*
X0570380Y0383510D01*
X0569870Y0383500D01*
X0569370Y0383530D01*
X0568870Y0383600D01*
X0568380Y0383710D01*
X0567900Y0383850D01*
X0567430Y0384030D01*
X0566970Y0384250D01*
X0566530Y0384500D01*
X0566120Y0384790D01*
X0565730Y0385100D01*
X0565360Y0385450D01*
X0565020Y0385820D01*
X0564710Y0386220D01*
X0564430Y0386640D01*
X0564190Y0387080D01*
X0563980Y0387540D01*
X0563810Y0388020D01*
X0563680Y0388500D01*
X0563580Y0389000D01*
X0563520Y0389500D01*
X0563500Y0390000D01*
D2612*
X0623140Y0245140D02*
X0622700Y0244700D01*
X0627640Y0247000D02*
X0653000Y0247000D01*
X0660100Y0254200D02*
X0659900Y0386300D01*
X0668000Y0247000D02*
X0769000Y0247000D01*
X0768000Y0207000D02*
X0718000Y0207000D01*
X0720000Y0200600D02*
X0720000Y0183500D01*
X0719000Y0177000D02*
X0769000Y0177000D01*
X0768000Y0148000D02*
X0718000Y0148000D01*
X0740000Y0183500D02*
X0740000Y0200600D01*
X0740000Y0213000D02*
X0740000Y0230100D01*
X0720000Y0230100D02*
X0720000Y0213000D01*
X0707000Y0091000D02*
X0690500Y0091000D01*
X0689000Y0091000D02*
X0689000Y0077000D01*
X0687500Y0039500D02*
X0698500Y0039500D01*
X0687500Y0039500D02*
X0687500Y0028500D01*
X0620000Y0147000D02*
X0620000Y0238180D01*
X0623140Y0245140D02*
X0623480Y0245450D01*
X0623830Y0245730D01*
X0624200Y0245990D01*
X0624590Y0246220D01*
X0625000Y0246430D01*
X0625420Y0246600D01*
X0625850Y0246740D01*
X0626290Y0246850D01*
X0626730Y0246940D01*
X0627190Y0246980D01*
X0627640Y0247000D01*
X0622700Y0244700D02*
X0622320Y0244290D01*
X0621960Y0243870D01*
X0621630Y0243420D01*
X0621330Y0242950D01*
X0621060Y0242460D01*
X0620810Y0241960D01*
X0620600Y0241450D01*
X0620420Y0240920D01*
X0620270Y0240390D01*
X0620150Y0239840D01*
X0620070Y0239290D01*
X0620020Y0238740D01*
X0620000Y0238180D01*
X0020000Y0845000D02*
G75*
%LPD*%
D770*
X0412260Y0877500D02*
X0135390Y0877500D01*
X0134310Y0877480D01*
X0133220Y0877420D01*
X0132140Y0877330D01*
X0131070Y0877190D01*
X0129990Y0877020D01*
X0128930Y0876810D01*
X0127870Y0876560D01*
X0126830Y0876270D01*
X0125790Y0875940D01*
X0124770Y0875580D01*
X0123760Y0875190D01*
X0122770Y0874750D01*
X0121790Y0874290D01*
X0120830Y0873780D01*
X0119880Y0873250D01*
X0118960Y0872680D01*
X0118060Y0872070D01*
X0117180Y0871440D01*
X0116320Y0870770D01*
X0115490Y0870080D01*
X0114680Y0869350D01*
X0113900Y0868600D01*
X0113150Y0867820D01*
X0112420Y0867010D01*
X0111730Y0866180D01*
X0111060Y0865320D01*
X0110430Y0864440D01*
X0109820Y0863540D01*
X0109250Y0862620D01*
X0108720Y0861670D01*
X0108210Y0860710D01*
X0107750Y0859730D01*
X0107310Y0858740D01*
X0106920Y0857730D01*
X0106560Y0856710D01*
X0106230Y0855670D01*
X0105940Y0854630D01*
X0105690Y0853570D01*
X0105480Y0852510D01*
X0105310Y0851430D01*
X0105170Y0850360D01*
X0105080Y0849280D01*
X0105020Y0848190D01*
X0105000Y0847110D01*
X0105000Y0845000D01*
X0020000Y0845000D01*
X0020000Y1245000D01*
X0105000Y1245000D01*
X0105000Y1242780D01*
X0105020Y1241700D01*
X0105080Y1240620D01*
X0105170Y1239540D01*
X0105310Y1238470D01*
X0105480Y1237400D01*
X0105690Y1236340D01*
X0105940Y1235290D01*
X0106230Y1234250D01*
X0106550Y1233220D01*
X0106910Y1232200D01*
X0107300Y1231190D01*
X0107740Y1230200D01*
X0108200Y1229230D01*
X0108700Y1228270D01*
X0109240Y1227330D01*
X0109810Y1226410D01*
X0110410Y1225510D01*
X0111040Y1224640D01*
X0111700Y1223780D01*
X0112400Y1222960D01*
X0113120Y1222150D01*
X0113870Y1221370D01*
X0114650Y1220620D01*
X0115450Y1219900D01*
X0116280Y1219210D01*
X0117130Y1218550D01*
X0118010Y1217910D01*
X0118910Y1217310D01*
X0119830Y1216750D01*
X0120770Y1216210D01*
X0121720Y1215710D01*
X0122700Y1215240D01*
X0123690Y1214810D01*
X0124700Y1214420D01*
X0125720Y1214060D01*
X0126750Y1213730D01*
X0127790Y1213450D01*
X0128840Y1213200D01*
X0129900Y1212990D01*
X0130970Y1212820D01*
X0132040Y1212680D01*
X0133120Y1212590D01*
X0134200Y1212530D01*
X0135280Y1212510D01*
X0135270Y1212510D02*
X0412180Y1212600D01*
X0412190Y1212590D02*
X0412960Y1212570D01*
X0413740Y1212510D01*
X0414510Y1212410D01*
X0415270Y1212280D01*
X0416030Y1212100D01*
X0416770Y1211890D01*
X0417510Y1211640D01*
X0418230Y1211350D01*
X0418930Y1211030D01*
X0419620Y1210670D01*
X0420290Y1210270D01*
X0420940Y1209850D01*
X0421560Y1209390D01*
X0422160Y1208900D01*
X0422740Y1208380D01*
X0423290Y1207830D01*
X0423810Y1207250D01*
X0424300Y1206650D01*
X0424760Y1206030D01*
X0425180Y1205380D01*
X0425580Y1204710D01*
X0425940Y1204020D01*
X0426260Y1203320D01*
X0426550Y1202600D01*
X0426800Y1201860D01*
X0427010Y1201120D01*
X0427190Y1200360D01*
X0427320Y1199600D01*
X0427420Y1198830D01*
X0427480Y1198050D01*
X0427500Y1197280D01*
X0427500Y0892740D01*
X0427480Y0891970D01*
X0427420Y0891200D01*
X0427320Y0890430D01*
X0427190Y0889670D01*
X0427010Y0888920D01*
X0426800Y0888180D01*
X0426550Y0887450D01*
X0426260Y0886730D01*
X0425940Y0886030D01*
X0425590Y0885340D01*
X0425190Y0884680D01*
X0424770Y0884030D01*
X0424310Y0883410D01*
X0423820Y0882810D01*
X0423310Y0882240D01*
X0422760Y0881690D01*
X0422190Y0881180D01*
X0421590Y0880690D01*
X0420970Y0880230D01*
X0420320Y0879810D01*
X0419660Y0879410D01*
X0418970Y0879060D01*
X0418270Y0878740D01*
X0417550Y0878450D01*
X0416820Y0878200D01*
X0416080Y0877990D01*
X0415330Y0877810D01*
X0414570Y0877680D01*
X0413800Y0877580D01*
X0413030Y0877520D01*
X0412260Y0877500D01*
D588*
X0057500Y0951000D02*
X0056980Y0951020D01*
X0056460Y0951080D01*
X0055940Y0951180D01*
X0055440Y0951310D01*
X0054940Y0951480D01*
X0054460Y0951690D01*
X0054000Y0951940D01*
X0053560Y0952220D01*
X0053140Y0952530D01*
X0052740Y0952870D01*
X0052370Y0953240D01*
X0052030Y0953640D01*
X0051720Y0954060D01*
X0051440Y0954500D01*
X0051190Y0954960D01*
X0050980Y0955440D01*
X0050810Y0955940D01*
X0050680Y0956440D01*
X0050580Y0956960D01*
X0050520Y0957480D01*
X0050500Y0958000D01*
X0050520Y0958520D01*
X0050580Y0959040D01*
X0050680Y0959560D01*
X0050810Y0960060D01*
X0050980Y0960560D01*
X0051190Y0961040D01*
X0051440Y0961500D01*
X0051720Y0961940D01*
X0052030Y0962360D01*
X0052370Y0962760D01*
X0052740Y0963130D01*
X0053140Y0963470D01*
X0053560Y0963780D01*
X0054000Y0964060D01*
X0054460Y0964310D01*
X0054940Y0964520D01*
X0055440Y0964690D01*
X0055940Y0964820D01*
X0056460Y0964920D01*
X0056980Y0964980D01*
X0057500Y0965000D01*
X0058020Y0964980D01*
X0058540Y0964920D01*
X0059060Y0964820D01*
X0059560Y0964690D01*
X0060060Y0964520D01*
X0060540Y0964310D01*
X0061000Y0964060D01*
X0061440Y0963780D01*
X0061860Y0963470D01*
X0062260Y0963130D01*
X0062630Y0962760D01*
X0062970Y0962360D01*
X0063280Y0961940D01*
X0063560Y0961500D01*
X0063810Y0961040D01*
X0064020Y0960560D01*
X0064190Y0960060D01*
X0064320Y0959560D01*
X0064420Y0959040D01*
X0064480Y0958520D01*
X0064500Y0958000D01*
X0064480Y0957480D01*
X0064420Y0956960D01*
X0064320Y0956440D01*
X0064190Y0955940D01*
X0064020Y0955440D01*
X0063810Y0954960D01*
X0063560Y0954500D01*
X0063280Y0954060D01*
X0062970Y0953640D01*
X0062630Y0953240D01*
X0062260Y0952870D01*
X0061860Y0952530D01*
X0061440Y0952220D01*
X0061000Y0951940D01*
X0060540Y0951690D01*
X0060060Y0951480D01*
X0059560Y0951310D01*
X0059060Y0951180D01*
X0058540Y0951080D01*
X0058020Y0951020D01*
X0057500Y0951000D01*
X0057500Y1156000D02*
X0056980Y1156020D01*
X0056460Y1156080D01*
X0055940Y1156180D01*
X0055440Y1156310D01*
X0054940Y1156480D01*
X0054460Y1156690D01*
X0054000Y1156940D01*
X0053560Y1157220D01*
X0053140Y1157530D01*
X0052740Y1157870D01*
X0052370Y1158240D01*
X0052030Y1158640D01*
X0051720Y1159060D01*
X0051440Y1159500D01*
X0051190Y1159960D01*
X0050980Y1160440D01*
X0050810Y1160940D01*
X0050680Y1161440D01*
X0050580Y1161960D01*
X0050520Y1162480D01*
X0050500Y1163000D01*
X0050520Y1163520D01*
X0050580Y1164040D01*
X0050680Y1164560D01*
X0050810Y1165060D01*
X0050980Y1165560D01*
X0051190Y1166040D01*
X0051440Y1166500D01*
X0051720Y1166940D01*
X0052030Y1167360D01*
X0052370Y1167760D01*
X0052740Y1168130D01*
X0053140Y1168470D01*
X0053560Y1168780D01*
X0054000Y1169060D01*
X0054460Y1169310D01*
X0054940Y1169520D01*
X0055440Y1169690D01*
X0055940Y1169820D01*
X0056460Y1169920D01*
X0056980Y1169980D01*
X0057500Y1170000D01*
X0058020Y1169980D01*
X0058540Y1169920D01*
X0059060Y1169820D01*
X0059560Y1169690D01*
X0060060Y1169520D01*
X0060540Y1169310D01*
X0061000Y1169060D01*
X0061440Y1168780D01*
X0061860Y1168470D01*
X0062260Y1168130D01*
X0062630Y1167760D01*
X0062970Y1167360D01*
X0063280Y1166940D01*
X0063560Y1166500D01*
X0063810Y1166040D01*
X0064020Y1165560D01*
X0064190Y1165060D01*
X0064320Y1164560D01*
X0064420Y1164040D01*
X0064480Y1163520D01*
X0064500Y1163000D01*
X0064480Y1162480D01*
X0064420Y1161960D01*
X0064320Y1161440D01*
X0064190Y1160940D01*
X0064020Y1160440D01*
X0063810Y1159960D01*
X0063560Y1159500D01*
X0063280Y1159060D01*
X0062970Y1158640D01*
X0062630Y1158240D01*
X0062260Y1157870D01*
X0061860Y1157530D01*
X0061440Y1157220D01*
X0061000Y1156940D01*
X0060540Y1156690D01*
X0060060Y1156480D01*
X0059560Y1156310D01*
X0059060Y1156180D01*
X0058540Y1156080D01*
X0058020Y1156020D01*
X0057500Y1156000D01*
X0440000Y0422500D02*
G75*
%LPD*%
D770*
X0472500Y0437740D02*
X0472500Y0714610D01*
X0472480Y0715690D01*
X0472420Y0716780D01*
X0472330Y0717860D01*
X0472190Y0718930D01*
X0472020Y0720010D01*
X0471810Y0721070D01*
X0471560Y0722130D01*
X0471270Y0723170D01*
X0470940Y0724210D01*
X0470580Y0725230D01*
X0470190Y0726240D01*
X0469750Y0727230D01*
X0469290Y0728210D01*
X0468780Y0729170D01*
X0468250Y0730120D01*
X0467680Y0731040D01*
X0467070Y0731940D01*
X0466440Y0732820D01*
X0465770Y0733680D01*
X0465080Y0734510D01*
X0464350Y0735320D01*
X0463600Y0736100D01*
X0462820Y0736850D01*
X0462010Y0737580D01*
X0461180Y0738270D01*
X0460320Y0738940D01*
X0459440Y0739570D01*
X0458540Y0740180D01*
X0457620Y0740750D01*
X0456670Y0741280D01*
X0455710Y0741790D01*
X0454730Y0742250D01*
X0453740Y0742690D01*
X0452730Y0743080D01*
X0451710Y0743440D01*
X0450670Y0743770D01*
X0449630Y0744060D01*
X0448570Y0744310D01*
X0447510Y0744520D01*
X0446430Y0744690D01*
X0445360Y0744830D01*
X0444280Y0744920D01*
X0443190Y0744980D01*
X0442110Y0745000D01*
X0440000Y0745000D01*
X0440000Y0830000D01*
X0840000Y0830000D01*
X0840000Y0745000D01*
X0837780Y0745000D01*
X0836700Y0744980D01*
X0835620Y0744920D01*
X0834540Y0744830D01*
X0833470Y0744690D01*
X0832400Y0744520D01*
X0831340Y0744310D01*
X0830290Y0744060D01*
X0829250Y0743770D01*
X0828220Y0743450D01*
X0827200Y0743090D01*
X0826190Y0742700D01*
X0825200Y0742260D01*
X0824230Y0741800D01*
X0823270Y0741300D01*
X0822330Y0740760D01*
X0821410Y0740190D01*
X0820510Y0739590D01*
X0819640Y0738960D01*
X0818780Y0738300D01*
X0817960Y0737600D01*
X0817150Y0736880D01*
X0816370Y0736130D01*
X0815620Y0735350D01*
X0814900Y0734550D01*
X0814210Y0733720D01*
X0813550Y0732870D01*
X0812910Y0731990D01*
X0812310Y0731090D01*
X0811750Y0730170D01*
X0811210Y0729230D01*
X0810710Y0728280D01*
X0810240Y0727300D01*
X0809810Y0726310D01*
X0809420Y0725300D01*
X0809060Y0724280D01*
X0808730Y0723250D01*
X0808450Y0722210D01*
X0808200Y0721160D01*
X0807990Y0720100D01*
X0807820Y0719030D01*
X0807680Y0717960D01*
X0807590Y0716880D01*
X0807530Y0715800D01*
X0807510Y0714720D01*
X0807510Y0714730D02*
X0807600Y0437820D01*
X0807590Y0437810D02*
X0807570Y0437040D01*
X0807510Y0436260D01*
X0807410Y0435490D01*
X0807280Y0434730D01*
X0807100Y0433970D01*
X0806890Y0433230D01*
X0806640Y0432490D01*
X0806350Y0431770D01*
X0806030Y0431070D01*
X0805670Y0430380D01*
X0805270Y0429710D01*
X0804850Y0429060D01*
X0804390Y0428440D01*
X0803900Y0427840D01*
X0803380Y0427260D01*
X0802830Y0426710D01*
X0802250Y0426190D01*
X0801650Y0425700D01*
X0801030Y0425240D01*
X0800380Y0424820D01*
X0799710Y0424420D01*
X0799020Y0424060D01*
X0798320Y0423740D01*
X0797600Y0423450D01*
X0796860Y0423200D01*
X0796120Y0422990D01*
X0795360Y0422810D01*
X0794600Y0422680D01*
X0793830Y0422580D01*
X0793050Y0422520D01*
X0792280Y0422500D01*
X0487740Y0422500D01*
X0486970Y0422520D01*
X0486200Y0422580D01*
X0485430Y0422680D01*
X0484670Y0422810D01*
X0483920Y0422990D01*
X0483180Y0423200D01*
X0482450Y0423450D01*
X0481730Y0423740D01*
X0481030Y0424060D01*
X0480340Y0424410D01*
X0479680Y0424810D01*
X0479030Y0425230D01*
X0478410Y0425690D01*
X0477810Y0426180D01*
X0477240Y0426690D01*
X0476690Y0427240D01*
X0476180Y0427810D01*
X0475690Y0428410D01*
X0475230Y0429030D01*
X0474810Y0429680D01*
X0474410Y0430340D01*
X0474060Y0431030D01*
X0473740Y0431730D01*
X0473450Y0432450D01*
X0473200Y0433180D01*
X0472990Y0433920D01*
X0472810Y0434670D01*
X0472680Y0435430D01*
X0472580Y0436200D01*
X0472520Y0436970D01*
X0472500Y0437740D01*
D588*
X0546000Y0792500D02*
X0546020Y0793020D01*
X0546080Y0793540D01*
X0546180Y0794060D01*
X0546310Y0794560D01*
X0546480Y0795060D01*
X0546690Y0795540D01*
X0546940Y0796000D01*
X0547220Y0796440D01*
X0547530Y0796860D01*
X0547870Y0797260D01*
X0548240Y0797630D01*
X0548640Y0797970D01*
X0549060Y0798280D01*
X0549500Y0798560D01*
X0549960Y0798810D01*
X0550440Y0799020D01*
X0550940Y0799190D01*
X0551440Y0799320D01*
X0551960Y0799420D01*
X0552480Y0799480D01*
X0553000Y0799500D01*
X0553520Y0799480D01*
X0554040Y0799420D01*
X0554560Y0799320D01*
X0555060Y0799190D01*
X0555560Y0799020D01*
X0556040Y0798810D01*
X0556500Y0798560D01*
X0556940Y0798280D01*
X0557360Y0797970D01*
X0557760Y0797630D01*
X0558130Y0797260D01*
X0558470Y0796860D01*
X0558780Y0796440D01*
X0559060Y0796000D01*
X0559310Y0795540D01*
X0559520Y0795060D01*
X0559690Y0794560D01*
X0559820Y0794060D01*
X0559920Y0793540D01*
X0559980Y0793020D01*
X0560000Y0792500D01*
X0559980Y0791980D01*
X0559920Y0791460D01*
X0559820Y0790940D01*
X0559690Y0790440D01*
X0559520Y0789940D01*
X0559310Y0789460D01*
X0559060Y0789000D01*
X0558780Y0788560D01*
X0558470Y0788140D01*
X0558130Y0787740D01*
X0557760Y0787370D01*
X0557360Y0787030D01*
X0556940Y0786720D01*
X0556500Y0786440D01*
X0556040Y0786190D01*
X0555560Y0785980D01*
X0555060Y0785810D01*
X0554560Y0785680D01*
X0554040Y0785580D01*
X0553520Y0785520D01*
X0553000Y0785500D01*
X0552480Y0785520D01*
X0551960Y0785580D01*
X0551440Y0785680D01*
X0550940Y0785810D01*
X0550440Y0785980D01*
X0549960Y0786190D01*
X0549500Y0786440D01*
X0549060Y0786720D01*
X0548640Y0787030D01*
X0548240Y0787370D01*
X0547870Y0787740D01*
X0547530Y0788140D01*
X0547220Y0788560D01*
X0546940Y0789000D01*
X0546690Y0789460D01*
X0546480Y0789940D01*
X0546310Y0790440D01*
X0546180Y0790940D01*
X0546080Y0791460D01*
X0546020Y0791980D01*
X0546000Y0792500D01*
X0751000Y0792500D02*
X0751020Y0793020D01*
X0751080Y0793540D01*
X0751180Y0794060D01*
X0751310Y0794560D01*
X0751480Y0795060D01*
X0751690Y0795540D01*
X0751940Y0796000D01*
X0752220Y0796440D01*
X0752530Y0796860D01*
X0752870Y0797260D01*
X0753240Y0797630D01*
X0753640Y0797970D01*
X0754060Y0798280D01*
X0754500Y0798560D01*
X0754960Y0798810D01*
X0755440Y0799020D01*
X0755940Y0799190D01*
X0756440Y0799320D01*
X0756960Y0799420D01*
X0757480Y0799480D01*
X0758000Y0799500D01*
X0758520Y0799480D01*
X0759040Y0799420D01*
X0759560Y0799320D01*
X0760060Y0799190D01*
X0760560Y0799020D01*
X0761040Y0798810D01*
X0761500Y0798560D01*
X0761940Y0798280D01*
X0762360Y0797970D01*
X0762760Y0797630D01*
X0763130Y0797260D01*
X0763470Y0796860D01*
X0763780Y0796440D01*
X0764060Y0796000D01*
X0764310Y0795540D01*
X0764520Y0795060D01*
X0764690Y0794560D01*
X0764820Y0794060D01*
X0764920Y0793540D01*
X0764980Y0793020D01*
X0765000Y0792500D01*
X0764980Y0791980D01*
X0764920Y0791460D01*
X0764820Y0790940D01*
X0764690Y0790440D01*
X0764520Y0789940D01*
X0764310Y0789460D01*
X0764060Y0789000D01*
X0763780Y0788560D01*
X0763470Y0788140D01*
X0763130Y0787740D01*
X0762760Y0787370D01*
X0762360Y0787030D01*
X0761940Y0786720D01*
X0761500Y0786440D01*
X0761040Y0786190D01*
X0760560Y0785980D01*
X0760060Y0785810D01*
X0759560Y0785680D01*
X0759040Y0785580D01*
X0758520Y0785520D01*
X0758000Y0785500D01*
X0757480Y0785520D01*
X0756960Y0785580D01*
X0756440Y0785680D01*
X0755940Y0785810D01*
X0755440Y0785980D01*
X0754960Y0786190D01*
X0754500Y0786440D01*
X0754060Y0786720D01*
X0753640Y0787030D01*
X0753240Y0787370D01*
X0752870Y0787740D01*
X0752530Y0788140D01*
X0752220Y0788560D01*
X0751940Y0789000D01*
X0751690Y0789460D01*
X0751480Y0789940D01*
X0751310Y0790440D01*
X0751180Y0790940D01*
X0751080Y0791460D01*
X0751020Y0791980D01*
X0751000Y0792500D01*
X0440000Y0842500D02*
G75*
%LPD*%
D770*
X0472500Y0857740D02*
X0472500Y1134610D01*
X0472480Y1135690D01*
X0472420Y1136780D01*
X0472330Y1137860D01*
X0472190Y1138930D01*
X0472020Y1140010D01*
X0471810Y1141070D01*
X0471560Y1142130D01*
X0471270Y1143170D01*
X0470940Y1144210D01*
X0470580Y1145230D01*
X0470190Y1146240D01*
X0469750Y1147230D01*
X0469290Y1148210D01*
X0468780Y1149170D01*
X0468250Y1150120D01*
X0467680Y1151040D01*
X0467070Y1151940D01*
X0466440Y1152820D01*
X0465770Y1153680D01*
X0465080Y1154510D01*
X0464350Y1155320D01*
X0463600Y1156100D01*
X0462820Y1156850D01*
X0462010Y1157580D01*
X0461180Y1158270D01*
X0460320Y1158940D01*
X0459440Y1159570D01*
X0458540Y1160180D01*
X0457620Y1160750D01*
X0456670Y1161280D01*
X0455710Y1161790D01*
X0454730Y1162250D01*
X0453740Y1162690D01*
X0452730Y1163080D01*
X0451710Y1163440D01*
X0450670Y1163770D01*
X0449630Y1164060D01*
X0448570Y1164310D01*
X0447510Y1164520D01*
X0446430Y1164690D01*
X0445360Y1164830D01*
X0444280Y1164920D01*
X0443190Y1164980D01*
X0442110Y1165000D01*
X0440000Y1165000D01*
X0440000Y1250000D01*
X0840000Y1250000D01*
X0840000Y1165000D01*
X0837780Y1165000D01*
X0836700Y1164980D01*
X0835620Y1164920D01*
X0834540Y1164830D01*
X0833470Y1164690D01*
X0832400Y1164520D01*
X0831340Y1164310D01*
X0830290Y1164060D01*
X0829250Y1163770D01*
X0828220Y1163450D01*
X0827200Y1163090D01*
X0826190Y1162700D01*
X0825200Y1162260D01*
X0824230Y1161800D01*
X0823270Y1161300D01*
X0822330Y1160760D01*
X0821410Y1160190D01*
X0820510Y1159590D01*
X0819640Y1158960D01*
X0818780Y1158300D01*
X0817960Y1157600D01*
X0817150Y1156880D01*
X0816370Y1156130D01*
X0815620Y1155350D01*
X0814900Y1154550D01*
X0814210Y1153720D01*
X0813550Y1152870D01*
X0812910Y1151990D01*
X0812310Y1151090D01*
X0811750Y1150170D01*
X0811210Y1149230D01*
X0810710Y1148280D01*
X0810240Y1147300D01*
X0809810Y1146310D01*
X0809420Y1145300D01*
X0809060Y1144280D01*
X0808730Y1143250D01*
X0808450Y1142210D01*
X0808200Y1141160D01*
X0807990Y1140100D01*
X0807820Y1139030D01*
X0807680Y1137960D01*
X0807590Y1136880D01*
X0807530Y1135800D01*
X0807510Y1134720D01*
X0807510Y1134730D02*
X0807600Y0857820D01*
X0807590Y0857810D02*
X0807570Y0857040D01*
X0807510Y0856260D01*
X0807410Y0855490D01*
X0807280Y0854730D01*
X0807100Y0853970D01*
X0806890Y0853230D01*
X0806640Y0852490D01*
X0806350Y0851770D01*
X0806030Y0851070D01*
X0805670Y0850380D01*
X0805270Y0849710D01*
X0804850Y0849060D01*
X0804390Y0848440D01*
X0803900Y0847840D01*
X0803380Y0847260D01*
X0802830Y0846710D01*
X0802250Y0846190D01*
X0801650Y0845700D01*
X0801030Y0845240D01*
X0800380Y0844820D01*
X0799710Y0844420D01*
X0799020Y0844060D01*
X0798320Y0843740D01*
X0797600Y0843450D01*
X0796860Y0843200D01*
X0796120Y0842990D01*
X0795360Y0842810D01*
X0794600Y0842680D01*
X0793830Y0842580D01*
X0793050Y0842520D01*
X0792280Y0842500D01*
X0487740Y0842500D01*
X0486970Y0842520D01*
X0486200Y0842580D01*
X0485430Y0842680D01*
X0484670Y0842810D01*
X0483920Y0842990D01*
X0483180Y0843200D01*
X0482450Y0843450D01*
X0481730Y0843740D01*
X0481030Y0844060D01*
X0480340Y0844410D01*
X0479680Y0844810D01*
X0479030Y0845230D01*
X0478410Y0845690D01*
X0477810Y0846180D01*
X0477240Y0846690D01*
X0476690Y0847240D01*
X0476180Y0847810D01*
X0475690Y0848410D01*
X0475230Y0849030D01*
X0474810Y0849680D01*
X0474410Y0850340D01*
X0474060Y0851030D01*
X0473740Y0851730D01*
X0473450Y0852450D01*
X0473200Y0853180D01*
X0472990Y0853920D01*
X0472810Y0854670D01*
X0472680Y0855430D01*
X0472580Y0856200D01*
X0472520Y0856970D01*
X0472500Y0857740D01*
D588*
X0546000Y1212500D02*
X0546020Y1213020D01*
X0546080Y1213540D01*
X0546180Y1214060D01*
X0546310Y1214560D01*
X0546480Y1215060D01*
X0546690Y1215540D01*
X0546940Y1216000D01*
X0547220Y1216440D01*
X0547530Y1216860D01*
X0547870Y1217260D01*
X0548240Y1217630D01*
X0548640Y1217970D01*
X0549060Y1218280D01*
X0549500Y1218560D01*
X0549960Y1218810D01*
X0550440Y1219020D01*
X0550940Y1219190D01*
X0551440Y1219320D01*
X0551960Y1219420D01*
X0552480Y1219480D01*
X0553000Y1219500D01*
X0553520Y1219480D01*
X0554040Y1219420D01*
X0554560Y1219320D01*
X0555060Y1219190D01*
X0555560Y1219020D01*
X0556040Y1218810D01*
X0556500Y1218560D01*
X0556940Y1218280D01*
X0557360Y1217970D01*
X0557760Y1217630D01*
X0558130Y1217260D01*
X0558470Y1216860D01*
X0558780Y1216440D01*
X0559060Y1216000D01*
X0559310Y1215540D01*
X0559520Y1215060D01*
X0559690Y1214560D01*
X0559820Y1214060D01*
X0559920Y1213540D01*
X0559980Y1213020D01*
X0560000Y1212500D01*
X0559980Y1211980D01*
X0559920Y1211460D01*
X0559820Y1210940D01*
X0559690Y1210440D01*
X0559520Y1209940D01*
X0559310Y1209460D01*
X0559060Y1209000D01*
X0558780Y1208560D01*
X0558470Y1208140D01*
X0558130Y1207740D01*
X0557760Y1207370D01*
X0557360Y1207030D01*
X0556940Y1206720D01*
X0556500Y1206440D01*
X0556040Y1206190D01*
X0555560Y1205980D01*
X0555060Y1205810D01*
X0554560Y1205680D01*
X0554040Y1205580D01*
X0553520Y1205520D01*
X0553000Y1205500D01*
X0552480Y1205520D01*
X0551960Y1205580D01*
X0551440Y1205680D01*
X0550940Y1205810D01*
X0550440Y1205980D01*
X0549960Y1206190D01*
X0549500Y1206440D01*
X0549060Y1206720D01*
X0548640Y1207030D01*
X0548240Y1207370D01*
X0547870Y1207740D01*
X0547530Y1208140D01*
X0547220Y1208560D01*
X0546940Y1209000D01*
X0546690Y1209460D01*
X0546480Y1209940D01*
X0546310Y1210440D01*
X0546180Y1210940D01*
X0546080Y1211460D01*
X0546020Y1211980D01*
X0546000Y1212500D01*
X0751000Y1212500D02*
X0751020Y1213020D01*
X0751080Y1213540D01*
X0751180Y1214060D01*
X0751310Y1214560D01*
X0751480Y1215060D01*
X0751690Y1215540D01*
X0751940Y1216000D01*
X0752220Y1216440D01*
X0752530Y1216860D01*
X0752870Y1217260D01*
X0753240Y1217630D01*
X0753640Y1217970D01*
X0754060Y1218280D01*
X0754500Y1218560D01*
X0754960Y1218810D01*
X0755440Y1219020D01*
X0755940Y1219190D01*
X0756440Y1219320D01*
X0756960Y1219420D01*
X0757480Y1219480D01*
X0758000Y1219500D01*
X0758520Y1219480D01*
X0759040Y1219420D01*
X0759560Y1219320D01*
X0760060Y1219190D01*
X0760560Y1219020D01*
X0761040Y1218810D01*
X0761500Y1218560D01*
X0761940Y1218280D01*
X0762360Y1217970D01*
X0762760Y1217630D01*
X0763130Y1217260D01*
X0763470Y1216860D01*
X0763780Y1216440D01*
X0764060Y1216000D01*
X0764310Y1215540D01*
X0764520Y1215060D01*
X0764690Y1214560D01*
X0764820Y1214060D01*
X0764920Y1213540D01*
X0764980Y1213020D01*
X0765000Y1212500D01*
X0764980Y1211980D01*
X0764920Y1211460D01*
X0764820Y1210940D01*
X0764690Y1210440D01*
X0764520Y1209940D01*
X0764310Y1209460D01*
X0764060Y1209000D01*
X0763780Y1208560D01*
X0763470Y1208140D01*
X0763130Y1207740D01*
X0762760Y1207370D01*
X0762360Y1207030D01*
X0761940Y1206720D01*
X0761500Y1206440D01*
X0761040Y1206190D01*
X0760560Y1205980D01*
X0760060Y1205810D01*
X0759560Y1205680D01*
X0759040Y1205580D01*
X0758520Y1205520D01*
X0758000Y1205500D01*
X0757480Y1205520D01*
X0756960Y1205580D01*
X0756440Y1205680D01*
X0755940Y1205810D01*
X0755440Y1205980D01*
X0754960Y1206190D01*
X0754500Y1206440D01*
X0754060Y1206720D01*
X0753640Y1207030D01*
X0753240Y1207370D01*
X0752870Y1207740D01*
X0752530Y1208140D01*
X0752220Y1208560D01*
X0751940Y1209000D01*
X0751690Y1209460D01*
X0751480Y1209940D01*
X0751310Y1210440D01*
X0751180Y1210940D01*
X0751080Y1211460D01*
X0751020Y1211980D01*
X0751000Y1212500D01*
X0792500Y0020000D02*
G75*
%LPD*%
D770*
X0792500Y0020000D02*
X0860700Y0020000D01*
X0860700Y0031100D01*
X0860720Y0031840D01*
X0860780Y0032570D01*
X0860870Y0033310D01*
X0861010Y0034030D01*
X0861180Y0034750D01*
X0861390Y0035460D01*
X0861640Y0036150D01*
X0861920Y0036830D01*
X0862240Y0037500D01*
X0862590Y0038150D01*
X0862970Y0038780D01*
X0863390Y0039390D01*
X0863840Y0039970D01*
X0864320Y0040530D01*
X0864830Y0041070D01*
X0865370Y0041580D01*
X0865930Y0042060D01*
X0866510Y0042510D01*
X0867120Y0042930D01*
X0867750Y0043310D01*
X0868400Y0043660D01*
X0869070Y0043980D01*
X0869750Y0044260D01*
X0870440Y0044510D01*
X0871150Y0044720D01*
X0871870Y0044890D01*
X0872590Y0045030D01*
X0873330Y0045120D01*
X0874060Y0045180D01*
X0874800Y0045200D01*
X0875540Y0045180D01*
X0876270Y0045120D01*
X0877010Y0045030D01*
X0877730Y0044890D01*
X0878450Y0044720D01*
X0879160Y0044510D01*
X0879850Y0044260D01*
X0880530Y0043980D01*
X0881200Y0043660D01*
X0881850Y0043310D01*
X0882480Y0042930D01*
X0883090Y0042510D01*
X0883670Y0042060D01*
X0884230Y0041580D01*
X0884770Y0041070D01*
X0885280Y0040530D01*
X0885760Y0039970D01*
X0886210Y0039390D01*
X0886630Y0038780D01*
X0887010Y0038150D01*
X0887360Y0037500D01*
X0887680Y0036830D01*
X0887960Y0036150D01*
X0888210Y0035460D01*
X0888420Y0034750D01*
X0888590Y0034030D01*
X0888730Y0033310D01*
X0888820Y0032570D01*
X0888880Y0031840D01*
X0888900Y0031100D01*
X0888900Y0020000D01*
X1021700Y0020000D01*
X1021700Y0032900D01*
X1021700Y0033000D02*
X1021720Y0033740D01*
X1021780Y0034470D01*
X1021870Y0035200D01*
X1022010Y0035920D01*
X1022180Y0036640D01*
X1022390Y0037340D01*
X1022630Y0038040D01*
X1022910Y0038710D01*
X1023230Y0039380D01*
X1023580Y0040030D01*
X1023970Y0040650D01*
X1024380Y0041260D01*
X1024830Y0041840D01*
X1025310Y0042400D01*
X1025820Y0042930D01*
X1026350Y0043440D01*
X1026910Y0043920D01*
X1027490Y0044370D01*
X1028100Y0044780D01*
X1028730Y0045170D01*
X1029370Y0045520D01*
X1030040Y0045840D01*
X1030710Y0046120D01*
X1031410Y0046360D01*
X1032110Y0046570D01*
X1032830Y0046740D01*
X1033550Y0046880D01*
X1034280Y0046970D01*
X1035010Y0047030D01*
X1035750Y0047050D01*
X1036490Y0047030D01*
X1037220Y0046970D01*
X1037950Y0046880D01*
X1038670Y0046740D01*
X1039390Y0046570D01*
X1040090Y0046360D01*
X1040790Y0046120D01*
X1041460Y0045840D01*
X1042130Y0045520D01*
X1042780Y0045170D01*
X1043400Y0044780D01*
X1044010Y0044370D01*
X1044590Y0043920D01*
X1045150Y0043440D01*
X1045680Y0042930D01*
X1046190Y0042400D01*
X1046670Y0041840D01*
X1047120Y0041260D01*
X1047530Y0040650D01*
X1047920Y0040030D01*
X1048270Y0039380D01*
X1048590Y0038710D01*
X1048870Y0038040D01*
X1049110Y0037340D01*
X1049320Y0036640D01*
X1049490Y0035920D01*
X1049630Y0035200D01*
X1049720Y0034470D01*
X1049780Y0033740D01*
X1049800Y0033000D01*
X1049800Y0020000D01*
X1117900Y0020000D01*
X1117900Y0242900D01*
X1049700Y0242900D01*
X1049700Y0229900D01*
X1049680Y0229160D01*
X1049630Y0228430D01*
X1049530Y0227700D01*
X1049400Y0226980D01*
X1049230Y0226260D01*
X1049030Y0225560D01*
X1048780Y0224860D01*
X1048510Y0224180D01*
X1048190Y0223520D01*
X1047840Y0222870D01*
X1047460Y0222240D01*
X1047050Y0221630D01*
X1046600Y0221050D01*
X1046120Y0220490D01*
X1045620Y0219950D01*
X1045090Y0219440D01*
X1044530Y0218960D01*
X1043950Y0218510D01*
X1043340Y0218090D01*
X1042720Y0217710D01*
X1042070Y0217350D01*
X1041410Y0217040D01*
X1040730Y0216750D01*
X1040040Y0216500D01*
X1039330Y0216290D01*
X1038620Y0216120D01*
X1037900Y0215980D01*
X1037170Y0215880D01*
X1036440Y0215820D01*
X1035700Y0215800D01*
X1034960Y0215820D01*
X1034230Y0215870D01*
X1033500Y0215970D01*
X1032780Y0216100D01*
X1032060Y0216270D01*
X1031360Y0216470D01*
X1030660Y0216720D01*
X1029980Y0216990D01*
X1029320Y0217310D01*
X1028670Y0217660D01*
X1028040Y0218040D01*
X1027430Y0218450D01*
X1026850Y0218900D01*
X1026290Y0219380D01*
X1025750Y0219880D01*
X1025240Y0220410D01*
X1024760Y0220970D01*
X1024310Y0221550D01*
X1023890Y0222160D01*
X1023510Y0222780D01*
X1023150Y0223430D01*
X1022840Y0224090D01*
X1022550Y0224770D01*
X1022300Y0225460D01*
X1022090Y0226170D01*
X1021920Y0226880D01*
X1021780Y0227600D01*
X1021680Y0228330D01*
X1021620Y0229060D01*
X1021600Y0229800D01*
X1021600Y0229900D02*
X1021600Y0242900D01*
X0889000Y0242900D01*
X0889000Y0229900D01*
X0888980Y0229160D01*
X0888920Y0228430D01*
X0888830Y0227690D01*
X0888690Y0226970D01*
X0888520Y0226250D01*
X0888310Y0225540D01*
X0888060Y0224850D01*
X0887780Y0224170D01*
X0887460Y0223500D01*
X0887110Y0222850D01*
X0886730Y0222220D01*
X0886310Y0221610D01*
X0885860Y0221030D01*
X0885380Y0220470D01*
X0884870Y0219930D01*
X0884330Y0219420D01*
X0883770Y0218940D01*
X0883190Y0218490D01*
X0882580Y0218070D01*
X0881950Y0217690D01*
X0881300Y0217340D01*
X0880630Y0217020D01*
X0879950Y0216740D01*
X0879260Y0216490D01*
X0878550Y0216280D01*
X0877830Y0216110D01*
X0877110Y0215970D01*
X0876370Y0215880D01*
X0875640Y0215820D01*
X0874900Y0215800D01*
X0874160Y0215820D01*
X0873430Y0215880D01*
X0872690Y0215970D01*
X0871970Y0216110D01*
X0871250Y0216280D01*
X0870540Y0216490D01*
X0869850Y0216740D01*
X0869170Y0217020D01*
X0868500Y0217340D01*
X0867850Y0217690D01*
X0867220Y0218070D01*
X0866610Y0218490D01*
X0866030Y0218940D01*
X0865470Y0219420D01*
X0864930Y0219930D01*
X0864420Y0220470D01*
X0863940Y0221030D01*
X0863490Y0221610D01*
X0863070Y0222220D01*
X0862690Y0222850D01*
X0862340Y0223500D01*
X0862020Y0224170D01*
X0861740Y0224850D01*
X0861490Y0225540D01*
X0861280Y0226250D01*
X0861110Y0226970D01*
X0860970Y0227690D01*
X0860880Y0228430D01*
X0860820Y0229160D01*
X0860800Y0229900D01*
X0860800Y0242900D01*
X0792500Y0242900D01*
X0792500Y0020000D01*
D588*
X0842300Y0076400D02*
X0842320Y0076900D01*
X0842380Y0077400D01*
X0842480Y0077900D01*
X0842610Y0078380D01*
X0842780Y0078860D01*
X0842990Y0079320D01*
X0843230Y0079760D01*
X0843510Y0080180D01*
X0843820Y0080580D01*
X0844160Y0080950D01*
X0844530Y0081300D01*
X0844920Y0081610D01*
X0845330Y0081900D01*
X0845770Y0082150D01*
X0846230Y0082370D01*
X0846700Y0082550D01*
X0847180Y0082690D01*
X0847670Y0082800D01*
X0848170Y0082870D01*
X0848670Y0082900D01*
X0849180Y0082890D01*
X0849680Y0082840D01*
X0850180Y0082750D01*
X0850660Y0082630D01*
X0851140Y0082460D01*
X0851600Y0082260D01*
X0852050Y0082030D01*
X0852480Y0081760D01*
X0852880Y0081460D01*
X0853260Y0081130D01*
X0853610Y0080770D01*
X0853940Y0080380D01*
X0854230Y0079970D01*
X0854490Y0079540D01*
X0854720Y0079090D01*
X0854910Y0078620D01*
X0855060Y0078140D01*
X0855180Y0077650D01*
X0855260Y0077150D01*
X0855300Y0076650D01*
X0855300Y0076150D01*
X0855260Y0075650D01*
X0855180Y0075150D01*
X0855060Y0074660D01*
X0854910Y0074180D01*
X0854720Y0073710D01*
X0854490Y0073260D01*
X0854230Y0072830D01*
X0853940Y0072420D01*
X0853610Y0072030D01*
X0853260Y0071670D01*
X0852880Y0071340D01*
X0852480Y0071040D01*
X0852050Y0070770D01*
X0851600Y0070540D01*
X0851140Y0070340D01*
X0850660Y0070170D01*
X0850180Y0070050D01*
X0849680Y0069960D01*
X0849180Y0069910D01*
X0848670Y0069900D01*
X0848170Y0069930D01*
X0847670Y0070000D01*
X0847180Y0070110D01*
X0846700Y0070250D01*
X0846230Y0070430D01*
X0845770Y0070650D01*
X0845330Y0070900D01*
X0844920Y0071190D01*
X0844530Y0071500D01*
X0844160Y0071850D01*
X0843820Y0072220D01*
X0843510Y0072620D01*
X0843230Y0073040D01*
X0842990Y0073480D01*
X0842780Y0073940D01*
X0842610Y0074420D01*
X0842480Y0074900D01*
X0842380Y0075400D01*
X0842320Y0075900D01*
X0842300Y0076400D01*
X0842400Y0186600D02*
X0842420Y0187100D01*
X0842480Y0187600D01*
X0842580Y0188100D01*
X0842710Y0188580D01*
X0842880Y0189060D01*
X0843090Y0189520D01*
X0843330Y0189960D01*
X0843610Y0190380D01*
X0843920Y0190780D01*
X0844260Y0191150D01*
X0844630Y0191500D01*
X0845020Y0191810D01*
X0845430Y0192100D01*
X0845870Y0192350D01*
X0846330Y0192570D01*
X0846800Y0192750D01*
X0847280Y0192890D01*
X0847770Y0193000D01*
X0848270Y0193070D01*
X0848770Y0193100D01*
X0849280Y0193090D01*
X0849780Y0193040D01*
X0850280Y0192950D01*
X0850760Y0192830D01*
X0851240Y0192660D01*
X0851700Y0192460D01*
X0852150Y0192230D01*
X0852580Y0191960D01*
X0852980Y0191660D01*
X0853360Y0191330D01*
X0853710Y0190970D01*
X0854040Y0190580D01*
X0854330Y0190170D01*
X0854590Y0189740D01*
X0854820Y0189290D01*
X0855010Y0188820D01*
X0855160Y0188340D01*
X0855280Y0187850D01*
X0855360Y0187350D01*
X0855400Y0186850D01*
X0855400Y0186350D01*
X0855360Y0185850D01*
X0855280Y0185350D01*
X0855160Y0184860D01*
X0855010Y0184380D01*
X0854820Y0183910D01*
X0854590Y0183460D01*
X0854330Y0183030D01*
X0854040Y0182620D01*
X0853710Y0182230D01*
X0853360Y0181870D01*
X0852980Y0181540D01*
X0852580Y0181240D01*
X0852150Y0180970D01*
X0851700Y0180740D01*
X0851240Y0180540D01*
X0850760Y0180370D01*
X0850280Y0180250D01*
X0849780Y0180160D01*
X0849280Y0180110D01*
X0848770Y0180100D01*
X0848270Y0180130D01*
X0847770Y0180200D01*
X0847280Y0180310D01*
X0846800Y0180450D01*
X0846330Y0180630D01*
X0845870Y0180850D01*
X0845430Y0181100D01*
X0845020Y0181390D01*
X0844630Y0181700D01*
X0844260Y0182050D01*
X0843920Y0182420D01*
X0843610Y0182820D01*
X0843330Y0183240D01*
X0843090Y0183680D01*
X0842880Y0184140D01*
X0842710Y0184620D01*
X0842580Y0185100D01*
X0842480Y0185600D01*
X0842420Y0186100D01*
X0842400Y0186600D01*
X1054900Y0186600D02*
X1054920Y0187100D01*
X1054980Y0187600D01*
X1055080Y0188100D01*
X1055210Y0188580D01*
X1055380Y0189060D01*
X1055590Y0189520D01*
X1055830Y0189960D01*
X1056110Y0190380D01*
X1056420Y0190780D01*
X1056760Y0191150D01*
X1057130Y0191500D01*
X1057520Y0191810D01*
X1057930Y0192100D01*
X1058370Y0192350D01*
X1058830Y0192570D01*
X1059300Y0192750D01*
X1059780Y0192890D01*
X1060270Y0193000D01*
X1060770Y0193070D01*
X1061270Y0193100D01*
X1061780Y0193090D01*
X1062280Y0193040D01*
X1062780Y0192950D01*
X1063260Y0192830D01*
X1063740Y0192660D01*
X1064200Y0192460D01*
X1064650Y0192230D01*
X1065080Y0191960D01*
X1065480Y0191660D01*
X1065860Y0191330D01*
X1066210Y0190970D01*
X1066540Y0190580D01*
X1066830Y0190170D01*
X1067090Y0189740D01*
X1067320Y0189290D01*
X1067510Y0188820D01*
X1067660Y0188340D01*
X1067780Y0187850D01*
X1067860Y0187350D01*
X1067900Y0186850D01*
X1067900Y0186350D01*
X1067860Y0185850D01*
X1067780Y0185350D01*
X1067660Y0184860D01*
X1067510Y0184380D01*
X1067320Y0183910D01*
X1067090Y0183460D01*
X1066830Y0183030D01*
X1066540Y0182620D01*
X1066210Y0182230D01*
X1065860Y0181870D01*
X1065480Y0181540D01*
X1065080Y0181240D01*
X1064650Y0180970D01*
X1064200Y0180740D01*
X1063740Y0180540D01*
X1063260Y0180370D01*
X1062780Y0180250D01*
X1062280Y0180160D01*
X1061780Y0180110D01*
X1061270Y0180100D01*
X1060770Y0180130D01*
X1060270Y0180200D01*
X1059780Y0180310D01*
X1059300Y0180450D01*
X1058830Y0180630D01*
X1058370Y0180850D01*
X1057930Y0181100D01*
X1057520Y0181390D01*
X1057130Y0181700D01*
X1056760Y0182050D01*
X1056420Y0182420D01*
X1056110Y0182820D01*
X1055830Y0183240D01*
X1055590Y0183680D01*
X1055380Y0184140D01*
X1055210Y0184620D01*
X1055080Y0185100D01*
X1054980Y0185600D01*
X1054920Y0186100D01*
X1054900Y0186600D01*
X1055000Y0076300D02*
X1055020Y0076800D01*
X1055080Y0077300D01*
X1055180Y0077800D01*
X1055310Y0078280D01*
X1055480Y0078760D01*
X1055690Y0079220D01*
X1055930Y0079660D01*
X1056210Y0080080D01*
X1056520Y0080480D01*
X1056860Y0080850D01*
X1057230Y0081200D01*
X1057620Y0081510D01*
X1058030Y0081800D01*
X1058470Y0082050D01*
X1058930Y0082270D01*
X1059400Y0082450D01*
X1059880Y0082590D01*
X1060370Y0082700D01*
X1060870Y0082770D01*
X1061370Y0082800D01*
X1061880Y0082790D01*
X1062380Y0082740D01*
X1062880Y0082650D01*
X1063360Y0082530D01*
X1063840Y0082360D01*
X1064300Y0082160D01*
X1064750Y0081930D01*
X1065180Y0081660D01*
X1065580Y0081360D01*
X1065960Y0081030D01*
X1066310Y0080670D01*
X1066640Y0080280D01*
X1066930Y0079870D01*
X1067190Y0079440D01*
X1067420Y0078990D01*
X1067610Y0078520D01*
X1067760Y0078040D01*
X1067880Y0077550D01*
X1067960Y0077050D01*
X1068000Y0076550D01*
X1068000Y0076050D01*
X1067960Y0075550D01*
X1067880Y0075050D01*
X1067760Y0074560D01*
X1067610Y0074080D01*
X1067420Y0073610D01*
X1067190Y0073160D01*
X1066930Y0072730D01*
X1066640Y0072320D01*
X1066310Y0071930D01*
X1065960Y0071570D01*
X1065580Y0071240D01*
X1065180Y0070940D01*
X1064750Y0070670D01*
X1064300Y0070440D01*
X1063840Y0070240D01*
X1063360Y0070070D01*
X1062880Y0069950D01*
X1062380Y0069860D01*
X1061880Y0069810D01*
X1061370Y0069800D01*
X1060870Y0069830D01*
X1060370Y0069900D01*
X1059880Y0070010D01*
X1059400Y0070150D01*
X1058930Y0070330D01*
X1058470Y0070550D01*
X1058030Y0070800D01*
X1057620Y0071090D01*
X1057230Y0071400D01*
X1056860Y0071750D01*
X1056520Y0072120D01*
X1056210Y0072520D01*
X1055930Y0072940D01*
X1055690Y0073380D01*
X1055480Y0073840D01*
X1055310Y0074320D01*
X1055180Y0074800D01*
X1055080Y0075300D01*
X1055020Y0075800D01*
X1055000Y0076300D01*
X0852500Y0255400D02*
G75*
%LPD*%
D1621*
X0852500Y0255400D02*
X0852500Y0835400D01*
X1142500Y0835400D01*
X1142500Y0255400D01*
X0852500Y0255400D01*
D2282*
X0872500Y0805400D02*
X1122500Y0805400D01*
X1122500Y0819400D02*
X0872500Y0819400D01*
D1611*
X1022070Y0341400D02*
X1135500Y0341400D01*
X1016890Y0335190D02*
X1016890Y0266620D01*
X0852500Y0847900D02*
G75*
%LPD*%
D770*
X0852500Y0847900D02*
X0852500Y1237900D01*
X1123500Y1237900D01*
X1123500Y1228900D01*
X1123520Y1228510D01*
X1123580Y1228120D01*
X1123670Y1227740D01*
X1123800Y1227370D01*
X1123970Y1227010D01*
X1124170Y1226680D01*
X1124410Y1226360D01*
X1124670Y1226070D01*
X1124960Y1225810D01*
X1125280Y1225570D01*
X1125610Y1225370D01*
X1125970Y1225200D01*
X1126340Y1225070D01*
X1126720Y1224980D01*
X1127110Y1224920D01*
X1127500Y1224900D01*
X1127890Y1224920D01*
X1128280Y1224980D01*
X1128660Y1225070D01*
X1129030Y1225200D01*
X1129390Y1225370D01*
X1129720Y1225570D01*
X1130040Y1225810D01*
X1130330Y1226070D01*
X1130590Y1226360D01*
X1130830Y1226680D01*
X1131030Y1227010D01*
X1131200Y1227370D01*
X1131330Y1227740D01*
X1131420Y1228120D01*
X1131480Y1228510D01*
X1131500Y1228900D01*
X1131500Y1237900D01*
X1157500Y1237900D01*
X1157500Y0847900D01*
X1131500Y0847900D01*
X1131500Y0857900D01*
X1131480Y0858290D01*
X1131420Y0858680D01*
X1131330Y0859060D01*
X1131200Y0859430D01*
X1131030Y0859790D01*
X1130830Y0860120D01*
X1130590Y0860440D01*
X1130330Y0860730D01*
X1130040Y0860990D01*
X1129720Y0861230D01*
X1129390Y0861430D01*
X1129030Y0861600D01*
X1128660Y0861730D01*
X1128280Y0861820D01*
X1127890Y0861880D01*
X1127500Y0861900D01*
X1127110Y0861880D01*
X1126720Y0861820D01*
X1126340Y0861730D01*
X1125970Y0861600D01*
X1125610Y0861430D01*
X1125280Y0861230D01*
X1124960Y0860990D01*
X1124670Y0860730D01*
X1124410Y0860440D01*
X1124170Y0860120D01*
X1123970Y0859790D01*
X1123800Y0859430D01*
X1123670Y0859060D01*
X1123580Y0858680D01*
X1123520Y0858290D01*
X1123500Y0857900D01*
X1123500Y0847900D01*
X0852500Y0847900D01*
M02*
