%
T01C0.019350
X19950Y3420
X14710Y9920
X14080Y14050
X14620Y14980
X11460Y14650
X10180Y15800
X9610Y19810
X9610Y21070
X8750Y21090
X8750Y19840
X8680Y23070
X8640Y24380
X9020Y25550
X8600Y26380
X9480Y26360
X9460Y27670
X8600Y27670
X9520Y24380
X9510Y23070
X12410Y31250
X11490Y34190
X13240Y34670
X15050Y35400
X8100Y34850
X7950Y35400
X7950Y41200
X6550Y41500
X4780Y17340
X3930Y16540
X3280Y12470
X4100Y9450
X5630Y9470
X6750Y10720
X7230Y11050
X6350Y12610
X7490Y6350
X9750Y5040
X11070Y3460
X11070Y2940
X17910Y16640
X42250Y48650
X30800Y58800
X26400Y57700
X25880Y58900
X24300Y58900
X23490Y58420
X22550Y59500
X22950Y60350
X21300Y59660
X20540Y61020
X21950Y62450
X22300Y63050
X23050Y63400
X23500Y63000
X25600Y62400
X23350Y65200
X21050Y66150
X20950Y66900
X20100Y67150
X22650Y67950
X23640Y68470
X20000Y64450
X14950Y67860
X14600Y66950
X13800Y67850
X12840Y65920
X14040Y65140
X14600Y65450
X14650Y63850
X9600Y60150
X14350Y57100
X16800Y54250
X17200Y54600
X17600Y55000
X16960Y52890
X17850Y51950
X17450Y51600
X17050Y51150
X18450Y48800
X20350Y52950
X21310Y55860
X20290Y56770
X23450Y54450
X23800Y54050
X24350Y54000
X25150Y55350
X24600Y55800
X26300Y54250
X26000Y49150
X13310Y50370
X12810Y51870
X28050Y66050
X29650Y63820
X29610Y68150
X20050Y73000
X20050Y74300
X19550Y74300
X17200Y75500
X16900Y75950
X16350Y73050
X13500Y73200
X13000Y73200
X13000Y72100
X13550Y72100
X13500Y71050
X12950Y71050
X10400Y68700
X16550Y69300
X18150Y70200
X18750Y70350
X12570Y75380
X12570Y76790
X12850Y78100
X9550Y75300
X20550Y77600
X29050Y77850
X42300Y78000
X41180Y25550
X47250Y31070
X31450Y32000
X42250Y89900
X30780Y98170
X30670Y99520
X30580Y100240
X29960Y99870
X29450Y101060
X28380Y99780
X27740Y100570
X26470Y100870
X26245Y100345
X26135Y99775
X26390Y99100
X26430Y98570
X27730Y98790
X21700Y101080
X22980Y105590
X25700Y108360
X25200Y108730
X27480Y107980
X18110Y110250
X17410Y111570
X17740Y111960
X17070Y111970
X13050Y94800
X18400Y92650
X20100Y91850
X20800Y91500
X22000Y91500
X23800Y91580
X23800Y89850
X18950Y90000
X42300Y119250
X49550Y42850
X65960Y61020
X65970Y61880
X64350Y63300
X61200Y62950
X67200Y68700
X67600Y69100
X68000Y69500
X68250Y66350
X68900Y66350
X69700Y66350
X72500Y64750
X72500Y64250
X73000Y64250
X73000Y64750
X73500Y64750
X73500Y64250
X74000Y64250
X74000Y64750
X74000Y63750
X74000Y63250
X74000Y62750
X74000Y62250
X74000Y61750
X74000Y61250
X73500Y61250
X73500Y61750
X73500Y62250
X73500Y62750
X73500Y63250
X73500Y63750
X73000Y63750
X73000Y63250
X73000Y62750
X73000Y62250
X73000Y61750
X73000Y61250
X72500Y61250
X72500Y61750
X72500Y62250
X72500Y62750
X72500Y63250
X72500Y63750
X74500Y61750
X74500Y61250
X75000Y61250
X75000Y61750
X75500Y61750
X75500Y61250
X76000Y61250
X76000Y61750
X76500Y61750
X76500Y61250
X77000Y61250
X77000Y61750
X77500Y61750
X77500Y61250
X78000Y61250
X78000Y61750
X78000Y62250
X78000Y62750
X78000Y63250
X78000Y63750
X77500Y63750
X77500Y63250
X77500Y62750
X77500Y62250
X78500Y62250
X78500Y61750
X78500Y61250
X78500Y62750
X78500Y63250
X78500Y63750
X78500Y64250
X78500Y64750
X78000Y64750
X78000Y64250
X77500Y64250
X77500Y64750
X77300Y66150
X77300Y66750
X77300Y67950
X76700Y67950
X76100Y67950
X76100Y68650
X76700Y68650
X77300Y68650
X77800Y68650
X77800Y67950
X77800Y69250
X77300Y69250
X76700Y69250
X76100Y69250
X76700Y71550
X76700Y72200
X78000Y74550
X78600Y74550
X78600Y75250
X78600Y75950
X74000Y73100
X74000Y72500
X74000Y71900
X72600Y71900
X72600Y72500
X72600Y73100
X74000Y70450
X75800Y66850
X75800Y66250
X73300Y66350
X67600Y73050
X67600Y73900
X66950Y73700
X66750Y73100
X69260Y73350
X69510Y75890
X64500Y71400
X63750Y71400
X63400Y73650
X64150Y73650
X61900Y73650
X60350Y73650
X58900Y73650
X57400Y73650
X55850Y73650
X53000Y75150
X52650Y72400
X50700Y72400
X49450Y74050
X75500Y52750
X75500Y45800
X74900Y45800
X74350Y45800
X74350Y45100
X74900Y45100
X75500Y45100
X75500Y44350
X74900Y44350
X74350Y44350
X73800Y44350
X73800Y45100
X73800Y45800
X78400Y42850
X51500Y113850
X52180Y113860
X52800Y112750
X51600Y111900
X49510Y113360
X54570Y111610
X57340Y109710
X55490Y107370
X53100Y106750
X52890Y107480
X52740Y104900
X54160Y102270
X53020Y100060
X52940Y98340
X51150Y100030
X55630Y98460
X55860Y96250
X58410Y96700
X59780Y96750
X60060Y95100
X61460Y93960
X61760Y94900
X62700Y95150
X64650Y94230
X64910Y94800
X65560Y93700
X66110Y90500
X60260Y90750
X58650Y93060
X58400Y94300
X63500Y97720
X61950Y99800
X62400Y100260
X60490Y101460
X60450Y102890
X64210Y105410
X64420Y103500
X65550Y101890
X65890Y97620
X59960Y107170
X62300Y109200
X62250Y109750
X61950Y110300
X62550Y108550
X64120Y107720
X59750Y112640
X63120Y113110
X63250Y117910
X56430Y117620
X54550Y117700
X70850Y115950
X71400Y115950
X74650Y111550
X75850Y111550
X78800Y97390
X61600Y96650
X60000Y102250
X58100Y104350
X64900Y102550
X70250Y107700
X74300Y104000
X74300Y103250
X74300Y102500
X75050Y102500
X75800Y102500
X75800Y103250
X75050Y103250
X75050Y104000
X75800Y104000
X76610Y104100
X77190Y104110
X77180Y103520
X76620Y103510
X76620Y102930
X77190Y102940
X77170Y102320
X76600Y102310
X76580Y101730
X77170Y101740
X77730Y102330
X77750Y102930
X78340Y102920
X78330Y102360
X78360Y103510
X77740Y103520
X77770Y104130
X78380Y104150
X75880Y101530
X75230Y101530
X74430Y101520
X63550Y113850
X52150Y115600
X49650Y115700
X86330Y6300
X89280Y9630
X89550Y10600
X87130Y11260
X89450Y12200
X90290Y12360
X88280Y13270
X86240Y14950
X87130Y16550
X97640Y19490
X98140Y19960
X101660Y6330
X98480Y6000
X96600Y6130
X95250Y34240
X99400Y38360
X99440Y39330
X99390Y40280
X99030Y40760
X98870Y41290
X100320Y40490
X100970Y39900
X102720Y38410
X103880Y39350
X103530Y42440
X102950Y43080
X102810Y42420
X102210Y42960
X101970Y44060
X101410Y44300
X100880Y45130
X98220Y43590
X97180Y44910
X98280Y46800
X98050Y48590
X97400Y48840
X94350Y46880
X92950Y48690
X91950Y48990
X89250Y49640
X88050Y47490
X88000Y46690
X97750Y39160
X99860Y36810
X105690Y44380
X106250Y45120
X108380Y46540
X110140Y44500
X113340Y44260
X113080Y43130
X109170Y40240
X109200Y39740
X106950Y41860
X103050Y48640
X102100Y48790
X105850Y28840
X105850Y27490
X102450Y75140
X101550Y75840
X97250Y76540
X91950Y76240
X90450Y77540
X90050Y77140
X106550Y75640
X110210Y77080
X110650Y77440
X112030Y75860
X108820Y91180
X110470Y90130
T02C0.025600
X17110Y16040
X15100Y19150
X13550Y21500
X11850Y21250
X11850Y24400
X13100Y24750
X11800Y27800
X13200Y28200
X15100Y29000
X15050Y32150
X12260Y31920
X11560Y31100
X9470Y30950
X8570Y30970
X8150Y31950
X8560Y32790
X8560Y34150
X9480Y34150
X9480Y32800
X10940Y35190
X11600Y37270
X10820Y38270
X9440Y39100
X8580Y39100
X8570Y40410
X9440Y40400
X9440Y37300
X9450Y35950
X8520Y35940
X8520Y37300
X7550Y38200
X6094Y39244
X7100Y41100
X6053Y36350
X7500Y34800
X6252Y33260
X7550Y31900
X7000Y29950
X7550Y28750
X8560Y29630
X9000Y28750
X9460Y29650
X7900Y25750
X8200Y25150
X7550Y25000
X5950Y25110
X5937Y22079
X6950Y19750
X6173Y18969
X7550Y22000
X9100Y22250
X7950Y19000
X6250Y15550
X5150Y14700
X5200Y14000
X5220Y13310
X5700Y12800
X4950Y15400
X7790Y14760
X8070Y14260
X7950Y13200
X8510Y12000
X10700Y7480
X9200Y3820
X8680Y6430
X8080Y6300
X6050Y5550
X6010Y6320
X13250Y16700
X15100Y22300
X15100Y25650
X19750Y18850
X19750Y18350
X20300Y18350
X20300Y18850
X20850Y18850
X20850Y18350
X21350Y18350
X21350Y18850
X20300Y22150
X20750Y22400
X13160Y37750
X13130Y40550
X13990Y41250
X15050Y38450
X11520Y40460
X6200Y30250
X5950Y28496
X27900Y77300
X27400Y77300
X26900Y77300
X26400Y77300
X25900Y77300
X25900Y76800
X26400Y76800
X26900Y76800
X27400Y76800
X27900Y76800
X27900Y76300
X27400Y76300
X26900Y76300
X26400Y76300
X25900Y76300
X25900Y75800
X26400Y75800
X26900Y75800
X27400Y75800
X27900Y75800
X27900Y75300
X27400Y75300
X26900Y75300
X26400Y75300
X25900Y75300
X25900Y74800
X26400Y74800
X26900Y74800
X27400Y74800
X27900Y74800
X27900Y74300
X27400Y74300
X26900Y74300
X26400Y74300
X25900Y74300
X25900Y73800
X26400Y73800
X26900Y73800
X27400Y73800
X27900Y73800
X27900Y73300
X27400Y73300
X26900Y73300
X26400Y73300
X25900Y73300
X25900Y72800
X26400Y72800
X26900Y72800
X27400Y72800
X27900Y72800
X27900Y72300
X27400Y72300
X26900Y72300
X26400Y72300
X25900Y72300
X25900Y71800
X26400Y71800
X26900Y71800
X27400Y71800
X27900Y71800
X27900Y71300
X27400Y71300
X26900Y71300
X26400Y71300
X25900Y71300
X25900Y70800
X26400Y70800
X26900Y70800
X27400Y70800
X27900Y70800
X27900Y70300
X27400Y70300
X26900Y70300
X26400Y70300
X25900Y70300
X25400Y70300
X24900Y70300
X24400Y70300
X23900Y70300
X23400Y70300
X23400Y70800
X23900Y70800
X24400Y70800
X24900Y70800
X25400Y70800
X25400Y71300
X24900Y71300
X24400Y71300
X23900Y71300
X23400Y71300
X22900Y71300
X22400Y71300
X21900Y71300
X21900Y70800
X22400Y70800
X22900Y70800
X22900Y70300
X22400Y70300
X21900Y70300
X20790Y70800
X18890Y71130
X18700Y71900
X18100Y68500
X17130Y68110
X12690Y68510
X11830Y68320
X11450Y66880
X6350Y67400
X12150Y59840
X10380Y57830
X8720Y55090
X12170Y54390
X12020Y51970
X12010Y51080
X11980Y49820
X9600Y48500
X7860Y50560
X19150Y58520
X19250Y59430
X23030Y57480
X26000Y63250
X27250Y65900
X26650Y68200
X25250Y68300
X25400Y71800
X24900Y71800
X24400Y71800
X24400Y72300
X24900Y72300
X25400Y72300
X25400Y72800
X24900Y72800
X24400Y72800
X24400Y73300
X24900Y73300
X25400Y73300
X25400Y73800
X24900Y73800
X24400Y73800
X24400Y74300
X24900Y74300
X25400Y74300
X25400Y74800
X24900Y74800
X24400Y74800
X23900Y74800
X23400Y74800
X23400Y74300
X23900Y74300
X23900Y75300
X24400Y75300
X24900Y75300
X25400Y75300
X25400Y75800
X24900Y75800
X24400Y75800
X23900Y75800
X23400Y75800
X23400Y76300
X23900Y76300
X24400Y76300
X24900Y76300
X25400Y76300
X25400Y76800
X24900Y76800
X24400Y76800
X23900Y76800
X23400Y76800
X23400Y77300
X23900Y77300
X24400Y77300
X24900Y77300
X25400Y77300
X23400Y75300
X22900Y75300
X22400Y75300
X21900Y75300
X21900Y74800
X22400Y74800
X22900Y74800
X22900Y74300
X22400Y74300
X21900Y74300
X21900Y75800
X22400Y75800
X22900Y75800
X22900Y76300
X22400Y76300
X21900Y76300
X21900Y76800
X22400Y76800
X22900Y76800
X22900Y77300
X22400Y77300
X21900Y77300
X17570Y76410
X10770Y77030
X10480Y75590
X14650Y62300
X30350Y11900
X31750Y13110
X30500Y8600
X36690Y14330
X36310Y17260
X35000Y18550
X35450Y22350
X35700Y22950
X33900Y23000
X33700Y23700
X31800Y22850
X31500Y21680
X31750Y18060
X28990Y25110
X28880Y26020
X28840Y26780
X28840Y28530
X29580Y31550
X28730Y33970
X28820Y34790
X29450Y36000
X29400Y36950
X32420Y36040
X33170Y33250
X33840Y33200
X33860Y32470
X33496Y31846
X34450Y31070
X33010Y30830
X32800Y29590
X32230Y28800
X31750Y26900
X33760Y26810
X35850Y26800
X36400Y26950
X37130Y27030
X38500Y25400
X39200Y25600
X38500Y24000
X39200Y23200
X38400Y22600
X38800Y20950
X40780Y22310
X42820Y25530
X41750Y28000
X41900Y29700
X41550Y30600
X43330Y32730
X43800Y31200
X45450Y30750
X45950Y29500
X46100Y27800
X45550Y27300
X46650Y26400
X49050Y27700
X48890Y29470
X48550Y31000
X49640Y32520
X50550Y33050
X51950Y33100
X50250Y30350
X52150Y28800
X48300Y23700
X48500Y20300
X47550Y20250
X50200Y18300
X51100Y18900
X49800Y16750
X50500Y16250
X49300Y14700
X48700Y13700
X48800Y12250
X53290Y12740
X53360Y14850
X41750Y18100
X39150Y17700
X38350Y29200
X37660Y29150
X38200Y30000
X38540Y30870
X40150Y33200
X40950Y35300
X36130Y36410
X46300Y33100
X55800Y16100
X58400Y16200
X59500Y19400
X59900Y20070
X63610Y21980
X65270Y20960
X66010Y21070
X66390Y22540
X67480Y20060
X66990Y19730
X66010Y18290
X65510Y18690
X64110Y18780
X68430Y20020
X70550Y20010
X68760Y17090
X68800Y14100
X71760Y12400
X71960Y16500
X77160Y26390
X75090Y33210
X73850Y34500
X71880Y34700
X70900Y35280
X70740Y37300
X69220Y37370
X68400Y34400
X68740Y32690
X69000Y31400
X68500Y29300
X68500Y28600
X70080Y26730
X71260Y30740
X71140Y32550
X70670Y40180
X77010Y34580
X77020Y34020
X77140Y40210
X63650Y34450
X63000Y37700
X62000Y40000
X55700Y39800
X61200Y29700
X62600Y27400
X63600Y29600
X60100Y25800
X59200Y26700
X57400Y25900
X55950Y23400
X55900Y24250
X61900Y11900
X60800Y8700
X59800Y11500
X63800Y8150
X64100Y10600
X65300Y11900
X65400Y8200
X62900Y5200
X65700Y2500
X66500Y4100
X32670Y110900
X32630Y110190
X32150Y109500
X31240Y110190
X32560Y111540
X31520Y113950
X29270Y112320
X26660Y111090
X24110Y111630
X23520Y110910
X22730Y109860
X22410Y109320
X20480Y109610
X19110Y109320
X16710Y109250
X16680Y109880
X15530Y112100
X14250Y110000
X13970Y109450
X13770Y108520
X12250Y110530
X12150Y111900
X10710Y110380
X9400Y110380
X9050Y111900
X8500Y111800
X10250Y111850
X13530Y114210
X13750Y116100
X13350Y116400
X13750Y116700
X13350Y117000
X13750Y117300
X13350Y117600
X13750Y117900
X13350Y118200
X13750Y118600
X12900Y118500
X12450Y118200
X12900Y117900
X12450Y117600
X12900Y117300
X12450Y117000
X12900Y116700
X12450Y116400
X12900Y116100
X12000Y116100
X12000Y116700
X12000Y117300
X12000Y117900
X12000Y118500
X15640Y116910
X16180Y116690
X15560Y116170
X15600Y115530
X16910Y114360
X17590Y114180
X17600Y114790
X19000Y114750
X19010Y114170
X18350Y116250
X18350Y116800
X18350Y117350
X18350Y117950
X18350Y118770
X19120Y118770
X20140Y118760
X20770Y118740
X21400Y118710
X21390Y118080
X21410Y117470
X20780Y117450
X20770Y118080
X20150Y117900
X20150Y117300
X20150Y116750
X20150Y116200
X20790Y116280
X20780Y116860
X21420Y116870
X21400Y116270
X22600Y116300
X22600Y116900
X22600Y117450
X22600Y118000
X23350Y117750
X23350Y117200
X23350Y116650
X24200Y116800
X24200Y116250
X24200Y117350
X24150Y118050
X25040Y119080
X27990Y116210
X23300Y114400
X22030Y113530
X19200Y116450
X19200Y117050
X19200Y117650
X17460Y119120
X9790Y108510
X9110Y106080
X10430Y104710
X9480Y104220
X11100Y102840
X12190Y103660
X13110Y102760
X14410Y104840
X16620Y102350
X16210Y101860
X16440Y100550
X17630Y100960
X18030Y99880
X19370Y99510
X20420Y99100
X21670Y98710
X22280Y98380
X23790Y97580
X24120Y96510
X24920Y96930
X24960Y95970
X24770Y95130
X23580Y95420
X22830Y95390
X19630Y93550
X18610Y91870
X16740Y90020
X14770Y91230
X14680Y92890
X12690Y92340
X12740Y91730
X10330Y91840
X9140Y91430
X10180Y90020
X11350Y94570
X10750Y94690
X9630Y94750
X10220Y95900
X11280Y96270
X10260Y96920
X9050Y96680
X7950Y97360
X7150Y97020
X9460Y98500
X10740Y98120
X11270Y98130
X12620Y98270
X14270Y98370
X14260Y97790
X15130Y97310
X15460Y96250
X16960Y97340
X17830Y97320
X17610Y96250
X18580Y96280
X19330Y96280
X23610Y100370
X24360Y100410
X24760Y101390
X24490Y101970
X23870Y102320
X23110Y102590
X22675Y103065
X22320Y104890
X21230Y104910
X20640Y104590
X19270Y103930
X17770Y102930
X20630Y101130
X24200Y104850
X21730Y105840
X26240Y108200
X26880Y108090
X28340Y108380
X29200Y108230
X29820Y106350
X29940Y105720
X32540Y108150
X30100Y103050
X29665Y102590
X27280Y103140
X26900Y102600
X26810Y105500
X32590Y100890
X32260Y100400
X32540Y99880
X35100Y99470
X36490Y96450
X35840Y94850
X37690Y95150
X39690Y91950
X38540Y99020
X38870Y99710
X31650Y97350
X30660Y95930
X29570Y96060
X29580Y95380
X28900Y94040
X28370Y93800
X28880Y93480
X29580Y93890
X30830Y92580
X31370Y92650
X31220Y94290
X27660Y92960
X26570Y94890
X26640Y96780
X23000Y89910
X21600Y89800
X13960Y96720
X13350Y100420
X10920Y101370
X9120Y101080
X9140Y100300
X78700Y44500
X72500Y55450
X71900Y55850
X70900Y55350
X68300Y58950
X68800Y60830
X69700Y60850
X70600Y60850
X65910Y66420
X64900Y66750
X64580Y66190
X65000Y67550
X64525Y68725
X63550Y68750
X62600Y71150
X61200Y70150
X59900Y69750
X59000Y68550
X58400Y68850
X58000Y69950
X57300Y69350
X55250Y68350
X55250Y67750
X54250Y67300
X54300Y65800
X54200Y65200
X55750Y64900
X56300Y65650
X55800Y66150
X56250Y66750
X56950Y66850
X58200Y66650
X58450Y64800
X57700Y64000
X56850Y64900
X60300Y65350
X60750Y64750
X60850Y64100
X63600Y61650
X64700Y61850
X64450Y64750
X60650Y67400
X66000Y70400
X66450Y69900
X70650Y68650
X70640Y67410
X71070Y72090
X69200Y74350
X66950Y74350
X66850Y75150
X64900Y74500
X64950Y76050
X63600Y77000
X54700Y75750
X54300Y73950
X53400Y71600
X50050Y75300
X50700Y75600
X51350Y75700
X48900Y76950
X52500Y65800
X52550Y63300
X50500Y61450
X61800Y54750
X63900Y55350
X64100Y54550
X64000Y56350
X69380Y101400
X68920Y100920
X69610Y102270
X67740Y96900
X66090Y95120
X65500Y95140
X66820Y93260
X63270Y98400
X63300Y99000
X62850Y99550
X59850Y96120
X58900Y97380
X58670Y98170
X63380Y103850
X63380Y105640
X64110Y107050
X63000Y107180
X63010Y107810
X65380Y108600
X65380Y110650
X62400Y113450
X61200Y114550
X60800Y114950
X60400Y114550
X60000Y114950
X59600Y114550
X59200Y114950
X58800Y114550
X58800Y115350
X59200Y115750
X59600Y115350
X60000Y115750
X60400Y115350
X60800Y115750
X61200Y115350
X61200Y116150
X60400Y116150
X59600Y116150
X58800Y116150
X56560Y112990
X55330Y112890
X53990Y110700
X53840Y109580
X54120Y109050
X51720Y105820
X57570Y106430
X61600Y111000
X58300Y112450
X53100Y118880
X53440Y120710
X48400Y118350
X67850Y117760
X73500Y114560
X73490Y114000
X73510Y113520
X75240Y111590
X75250Y110950
X74650Y110950
X74650Y110350
X74630Y109770
X75280Y109760
X75250Y110370
X75850Y110350
X75890Y109810
X75860Y110970
X72910Y110790
X72230Y108940
X73850Y117950
X61450Y91850
X60970Y91180
X88010Y16840
X90010Y16840
X79980Y2740
X83250Y9600
X84650Y10690
X87750Y10030
X90700Y9010
X90700Y8610
X90720Y8150
X92120Y7790
X96420Y7670
X97850Y6550
X97430Y5750
X99740Y7130
X100360Y7150
X100730Y8210
X100180Y8390
X102800Y8450
X104730Y7300
X104650Y6280
X102370Y6330
X99520Y3310
X98540Y3270
X90460Y3340
X97220Y10020
X97825Y10785
X98920Y11270
X99520Y11420
X98420Y12640
X96550Y12180
X92850Y12030
X91600Y11550
X91800Y13250
X88910Y16870
X92590Y17620
X96460Y17050
X97880Y15530
X97570Y14890
X99600Y16260
X100060Y15770
X101640Y15770
X102150Y16900
X102880Y17560
X104490Y18420
X102600Y20030
X99250Y20920
X97250Y20080
X97200Y22080
X96100Y23260
X91150Y20560
X99130Y17190
X100240Y17210
X102130Y13690
X102250Y13050
X102150Y12410
X102150Y11300
X101790Y10310
X104920Y11360
X106600Y9490
X109120Y6080
X111000Y2750
X104980Y13150
X105540Y16320
X110930Y23470
X80280Y12100
X79970Y23450
X85809Y26001
X85770Y30040
X85770Y30640
X85770Y31220
X86470Y32220
X88410Y34020
X86650Y34840
X90016Y38036
X89170Y40660
X89098Y41412
X86003Y42852
X86046Y44820
X88473Y45015
X89450Y47440
X92213Y45015
X93100Y47440
X98200Y47440
X98810Y43160
X98070Y42940
X97070Y42060
X95830Y41880
X94210Y41000
X94930Y38940
X95630Y39120
X97710Y40960
X99590Y43320
X103270Y40580
X103670Y41260
X104570Y40160
X102810Y37380
X102331Y35881
X100130Y35920
X99110Y36280
X97667Y36588
X97110Y36200
X96630Y34780
X95230Y33520
X99550Y34820
X103770Y29584
X103770Y28600
X105580Y29737
X107824Y29619
X108061Y27340
X108061Y26552
X104005Y26194
X99290Y26320
X98723Y25962
X99510Y28285
X99330Y29140
X97130Y28700
X104430Y35940
X104590Y37240
X108190Y35700
X111190Y35840
X109045Y32064
X113730Y32222
X113612Y26080
X113570Y40880
X112850Y40940
X112110Y41020
X111071Y41118
X110330Y41720
X109430Y41840
X108630Y41760
X108090Y41760
X108550Y44100
X108050Y47440
X107510Y49220
X106390Y50180
X104350Y47440
X104370Y46840
X113450Y44840
X113650Y43680
X113850Y45720
X111470Y67740
X112750Y75240
X112750Y76440
X113230Y77980
X111150Y78240
X109090Y77720
X109790Y75600
X107350Y75240
X105150Y77140
X105270Y77840
X105950Y78240
X104850Y75640
X100850Y78240
X100250Y77740
X100050Y77140
X100350Y75740
X96650Y73940
X94950Y75740
X95050Y77140
X95450Y77540
X95950Y78240
X91250Y74040
X89850Y75640
X90850Y78540
X85970Y85590
X91755Y94845
X91740Y97655
X92685Y97730
X90815Y98365
X91750Y101570
X93565Y102880
X93960Y101355
X95910Y100185
X99720Y102215
X101105Y102610
X101590Y101165
X105465Y104110
X106730Y106290
X107120Y106965
X106220Y107325
X106085Y107955
X106725Y109230
X106985Y109755
X108300Y111755
X108900Y110930
X109535Y110190
X109485Y109285
X109550Y108355
X109520Y107435
X109555Y106740
X109480Y106035
X108900Y104370
X109040Y100585
X107585Y99080
X108920Y98225
X105640Y99975
X102870Y106520
X101980Y108200
X102610Y109680
X103220Y110680
X103640Y109600
X104120Y109980
X102190Y111530
X101355Y111510
X100970Y110930
X101070Y109730
X99520Y109755
X98710Y109790
X97695Y111015
X96045Y109200
X93920Y107025
X93275Y106485
X91695Y110315
X92950Y110865
X91415Y113095
X91000Y114060
X90895Y115080
X91230Y115615
X92790Y114070
X93380Y113625
X92985Y116015
X91020Y119030
X91020Y119630
X91190Y122420
X92235Y122455
X96110Y122330
X96910Y122340
X96890Y120850
X96090Y120850
X98720Y120530
X98720Y119830
X99520Y119830
X99520Y120530
X99520Y121330
X100320Y121330
X100320Y120530
X100220Y119830
X101220Y120030
X101220Y120830
X101220Y121630
X101220Y122430
X102020Y122430
X102020Y121630
X102020Y120830
X102020Y120030
X102820Y120030
X102820Y120830
X102820Y121630
X102820Y122430
X103620Y122430
X103620Y121630
X103620Y120830
X103620Y120030
X104420Y120030
X104420Y120830
X104420Y121630
X104420Y122430
X105220Y122430
X105220Y121630
X105920Y121630
X105920Y122430
X106720Y122430
X106720Y121630
X106720Y120830
X106720Y120030
X105920Y120030
X105220Y120030
X105220Y120830
X105920Y120830
X105310Y118255
X103595Y116425
X103455Y115180
X102515Y115020
X101555Y116915
X102015Y117725
X102600Y118135
X100730Y116910
X100370Y115035
X100790Y112755
X101425Y112740
X99320Y112020
X98300Y117025
X98720Y121330
X98920Y122430
X99520Y122430
X100220Y122430
X106380Y114660
X108225Y116655
X110620Y117590
X112290Y117860
X110750Y114485
X110470Y112485
X112685Y114005
X114945Y110190
X114920Y109285
X115000Y108320
X114915Y107435
X114970Y106410
X114930Y105540
X114990Y104490
X112660Y102370
X112130Y102020
X114780Y97520
X114540Y92975
X113320Y90730
X113370Y89730
X113330Y86980
X115100Y85450
X111370Y86530
X110470Y89380
X109520Y89530
X108420Y88580
X111070Y91780
X99650Y93155
X99575Y106400
X104440Y113165
X106050Y112040
X108510Y121950
X114920Y123060
T03C0.033450
X72000Y10100
X74000Y10100
X109850Y7800
X109850Y6800
X107166Y15956
X107166Y15169
X107166Y14381
X108150Y14381
X108150Y15169
X108150Y15956
X108150Y13594
X108150Y12807
X108150Y12019
X108150Y11232
X108150Y10444
X107166Y10444
X107166Y11232
X107166Y12019
X107166Y12807
X107166Y13594
X109005Y30950
X109005Y29950
X109005Y28950
X109005Y27950
X109005Y26950
X114420Y119664
X114420Y117696
X108303Y101781
X107516Y101781
X106729Y101781
X105941Y101781
X105154Y101781
X104366Y101781
X103579Y101781
X102791Y101781
X102004Y101781
X101217Y101781
X101217Y93119
X102004Y93119
X102791Y93119
X103579Y93119
X104366Y93119
X105154Y93119
X105941Y93119
X106729Y93119
X107516Y93119
X108303Y93119
X113886Y99723
X113886Y100510
X113886Y101297
X114674Y101297
X114674Y100510
X114674Y99723
T04C0.037700
X77400Y52950
X83430Y14308
X82650Y14308
X82650Y15292
X83430Y15292
T05C0.041650
X21100Y5800
X21000Y4800
X21000Y6800
X9800Y8210
X9800Y9210
X9800Y10210
X9800Y11210
X8800Y11210
X8800Y10210
X8800Y9210
X8800Y8210
X8260Y3730
X8260Y2730
X7260Y2730
X7260Y3730
X6260Y3730
X6260Y2730
X5260Y2730
X5260Y3730
X3010Y5760
X2910Y4760
X2910Y6760
X3010Y7760
X2910Y8760
X26920Y51740
X26920Y49960
X29480Y49960
X29480Y51740
X24350Y49950
X23350Y50050
X22350Y49950
X21350Y50050
X20350Y49950
X31050Y63900
X31050Y64900
X31050Y65900
X31050Y66900
X47250Y35000
X48750Y35000
X51250Y34000
X52250Y35000
X51250Y36000
X51250Y32000
X52250Y31000
X51250Y30000
X51250Y28000
X52250Y27000
X51250Y26000
X51350Y23000
X52350Y22000
X51350Y21000
X52550Y19400
X52650Y18400
X52550Y17400
X52650Y16400
X52550Y15400
X46950Y22100
X46950Y23200
X48600Y28550
X47900Y31450
X49250Y31500
X44650Y35550
X44650Y36650
X42050Y36650
X42050Y35550
X40250Y22850
X74300Y7950
X74300Y6850
X75450Y13200
X76550Y13200
X76550Y16200
X75450Y16200
X75450Y19200
X76550Y19200
X76550Y22200
X75450Y22200
X73000Y26700
X73100Y27700
X73000Y28700
X75700Y27200
X76500Y32700
X75450Y34200
X75550Y35200
X75450Y36200
X75550Y37200
X73900Y39350
X72800Y39350
X57550Y35700
X57450Y34700
X57550Y33700
X57450Y32700
X57550Y31200
X57450Y30200
X57550Y29200
X57450Y28200
X57550Y24700
X57450Y23700
X57550Y22700
X57550Y21200
X57450Y20200
X57550Y19200
X59800Y10650
X59800Y9550
X59600Y7150
X59600Y6050
X59600Y4350
X59600Y3250
X64050Y14790
X65150Y14790
X19040Y95640
X18040Y95640
X17040Y95640
X16040Y95640
X15040Y95640
X15150Y93550
X14150Y93550
X13150Y93550
X12150Y93550
X11150Y93550
X11150Y90550
X12150Y90550
X13150Y90550
X14150Y90550
X15150Y90550
X15040Y98640
X16040Y98640
X17040Y98640
X18040Y98640
X19040Y98640
X27610Y90590
X28610Y90490
X29610Y90590
X30610Y90490
X31610Y90590
X32000Y92190
X33780Y92190
X35890Y91000
X36890Y90900
X37890Y91000
X38890Y90900
X33780Y94750
X32000Y94750
X77400Y51950
X77400Y50950
X77400Y49950
X77400Y48950
X77400Y47950
X50250Y62850
X50350Y63850
X50250Y64850
X50350Y65850
X50250Y66850
X54930Y85960
X54930Y87740
X57490Y87740
X57490Y85960
X58740Y89760
X59740Y89660
X60740Y89760
X61740Y89660
X62740Y89760
X54440Y95220
X53440Y95320
X52440Y95220
X51440Y95320
X93800Y15770
X93900Y14770
X93800Y13770
X93890Y12080
X93790Y11080
X93890Y10080
X93790Y9080
X93890Y7500
X93790Y6500
X93890Y5500
X93790Y4500
X93900Y16770
X93810Y18450
X93910Y19450
X93810Y20450
X93910Y21450
X109250Y36040
X110250Y36040
X110250Y37040
X110250Y38040
X110250Y39040
X109250Y39040
X109250Y38040
X109250Y37040
X107150Y37180
X107150Y36180
X106150Y36180
X106150Y37180
X106150Y38180
X106150Y39180
X107150Y39180
X107150Y38180
X112250Y38040
X112250Y39040
X113250Y39040
X113250Y38040
X113250Y37040
X113250Y36040
X112250Y36040
X112250Y37040
X86573Y37322
X86473Y36322
X86473Y38322
X86573Y39322
X86473Y40322
X114310Y91250
X114210Y90250
X114310Y89250
X114210Y88250
X95830Y111360
X95830Y112460
X95800Y113710
X95800Y114810
X95780Y116080
X95780Y117180
X114420Y116360
X114520Y115360
X114420Y114360
X114520Y113360
X114420Y112360
T06C0.047200
X19600Y26100
X19600Y27478
X19600Y28856
X19600Y30234
X19600Y31612
X19600Y32990
X19600Y34368
X19600Y35746
X18480Y93680
X18210Y90090
X9450Y90600
X9450Y92150
X25560Y115490
X32320Y118110
X113436Y117302
X113436Y120058
X114280Y102321
X114280Y98699
T07C0.053150
X65834Y107215
X67310Y107215
X68786Y107215
X68786Y113239
X68786Y115227
X68786Y117215
X65853Y117215
X65853Y115227
X65853Y113239
X106150Y4700
X107150Y4700
X108150Y4700
X110150Y4700
T08C0.061050
X16100Y13200
X16100Y9200
X16100Y3200
X14100Y3200
X12100Y3200
X12100Y11200
X7040Y68810
X7040Y70370
X7040Y71930
X5470Y71930
X5470Y70370
X5470Y68810
X3900Y68810
X3900Y70370
X3900Y71930
X3900Y78170
X3900Y79730
X3900Y81290
X5470Y81290
X5470Y79730
X5470Y78170
X7040Y78170
X7040Y79730
X7040Y81290
X7040Y63910
X7040Y62350
X7040Y60790
X7040Y59230
X7040Y57670
X5470Y57670
X5470Y59230
X5470Y60790
X5470Y62350
X5470Y63910
X3900Y63910
X3900Y62350
X3900Y60790
X3900Y59230
X3900Y57670
X3900Y51430
X3900Y49870
X3900Y48310
X3900Y46750
X3900Y45190
X5470Y45190
X5470Y46750
X5470Y48310
X5470Y49870
X5470Y51430
X7040Y51430
X7040Y49870
X7040Y48310
X7040Y46750
X7040Y45190
X7040Y100480
X7040Y102040
X7040Y103600
X7040Y105160
X5470Y105160
X5470Y103600
X5470Y102040
X5470Y100480
X5470Y98920
X7040Y98920
X3900Y98920
X3900Y100480
X3900Y102040
X3900Y103600
X3900Y105160
X3900Y110060
X3900Y111620
X3900Y113180
X5470Y113180
X5470Y111620
X5470Y110060
X7040Y110060
X7040Y111620
X7040Y113180
X7040Y119420
X7040Y120980
X7040Y122540
X5470Y122540
X5470Y120980
X5470Y119420
X3900Y119420
X3900Y120980
X3900Y122540
X3900Y92680
X3900Y91120
X3900Y89560
X3900Y88000
X3900Y86440
X5470Y86440
X5470Y88000
X5470Y89560
X5470Y91120
X5470Y92680
X7040Y92680
X7040Y91120
X7040Y89560
X7040Y88000
X7040Y86440
X18920Y105670
X15170Y105670
X13920Y105670
X12670Y105670
X10170Y105670
X10170Y100670
X18920Y100670
X50620Y77960
X49060Y77960
X47500Y77960
X45940Y77960
X45940Y79530
X45940Y81100
X47500Y81100
X47500Y79530
X49060Y79530
X50620Y79530
X50620Y81100
X49060Y81100
X52180Y81100
X52180Y79530
X52180Y77960
X58420Y77960
X59980Y77960
X61540Y77960
X63100Y77960
X64660Y77960
X64660Y79530
X64660Y81100
X63100Y81100
X63100Y79530
X61540Y79530
X59980Y79530
X59980Y81100
X61540Y81100
X58420Y81100
X58420Y79530
X69560Y79530
X69560Y81100
X71120Y81100
X71120Y79530
X72680Y79530
X72680Y81100
X72680Y77960
X71120Y77960
X69560Y77960
X78920Y77960
X80480Y77960
X82040Y77960
X82040Y79530
X82040Y81100
X80480Y81100
X80480Y79530
X78920Y79530
X78920Y81100
X64660Y119960
X63100Y119960
X61540Y119960
X59980Y119960
X58420Y119960
X58420Y121530
X59980Y121530
X61540Y121530
X63100Y121530
X64660Y121530
X64660Y123100
X63100Y123100
X61540Y123100
X59980Y123100
X58420Y123100
X52180Y123100
X50620Y123100
X49060Y123100
X47500Y123100
X45940Y123100
X45940Y121530
X47500Y121530
X49060Y121530
X50620Y121530
X52180Y121530
X52180Y119960
X50620Y119960
X49060Y119960
X47500Y119960
X45940Y119960
X69560Y119960
X71120Y119960
X72680Y119960
X72680Y121530
X71120Y121530
X69560Y121530
X69560Y123100
X71120Y123100
X72680Y123100
X78920Y123100
X80480Y123100
X82040Y123100
X82040Y121530
X80480Y121530
X78920Y121530
X78920Y119960
X80480Y119960
X82040Y119960
T09C0.088300
X70000Y28200
X70000Y32200
X70000Y36200
X62000Y36200
X62000Y33200
X62000Y31200
X81580Y12430
X81580Y17170
T10C0.110200
X21000Y3000
X3000Y3000
X3000Y41000
X21000Y41000
T11C0.128000
X20000Y15000
X20000Y12000
X20000Y9000
X57000Y4000
X76000Y4000
X76000Y39000
X57000Y39000
X84890Y18660
X84880Y7640
X106150Y7630
X106140Y18660
T12C0.140000
X5750Y54550
X5750Y75050
X5750Y95800
X5750Y116300
X75800Y79250
X55300Y79250
X75800Y121250
X55300Y121250
M30
