G75*
G70*
%OFA0B0*%
%FSLAX25Y25*%
%IPPOS*%
%LPD*%
%AMOC8*
5,1,8,0,0,1.08239X$1,22.5*
%
%ADD1046R,0.06740X0.06740*%
%ADD1048C,0.07400*%
%ADD1077R,0.02970X0.05520*%
%ADD1182C,0.06800*%
%ADD1186R,0.08200X0.08200*%
%ADD1246R,0.02530X0.05330*%
%ADD1256R,0.07100X0.12610*%
%ADD1289C,0.06350*%
%ADD1299C,0.07000*%
%ADD1363R,0.50800X0.07800*%
%ADD1441C,0.04760*%
%ADD1445C,0.07800*%
%ADD1471R,0.03280X0.05330*%
%ADD1499C,0.07920*%
%ADD1539OC8,0.08400*%
%ADD1542C,0.07300*%
%ADD1554R,0.04340X0.03950*%
%ADD1621C,0.01600*%
%ADD1622C,0.09660*%
%ADD1660R,0.04740X0.05130*%
%ADD1718R,0.05330X0.03280*%
%ADD1727OC8,0.06000*%
%ADD1777R,0.05520X0.04340*%
%ADD1808R,0.05800X0.03300*%
%ADD1843R,0.07100X0.07890*%
%ADD193C,0.08200*%
%ADD1957R,0.08800X0.08800*%
%ADD1973C,0.06400*%
%ADD1980R,0.09500X0.03200*%
%ADD2017R,0.08670X0.08670*%
%ADD2023C,0.14800*%
%ADD2166C,0.08480*%
%ADD2291C,0.11820*%
%ADD2366R,0.03950X0.05520*%
%ADD2437C,0.09000*%
%ADD2567R,0.06590X0.05800*%
%ADD2603R,0.05920X0.06710*%
%ADD2619R,0.06310X0.05130*%
%ADD2688C,0.08800*%
%ADD2706C,0.09070*%
%ADD2722C,0.17400*%
%ADD2739R,0.05520X0.03950*%
%ADD2745C,0.13800*%
%ADD2800R,0.07890X0.07100*%
%ADD2850R,0.05130X0.04740*%
%ADD2856R,0.06710X0.05920*%
%ADD2897R,0.08800X0.03400*%
%ADD3003R,0.07100X0.06310*%
%ADD3004C,0.07200*%
%ADD3107R,0.05330X0.02530*%
%ADD3171R,0.06350X0.06350*%
%ADD3366C,0.13460*%
%ADD3485R,0.07140X0.07140*%
%ADD3817R,0.05520X0.08670*%
%ADD472R,0.03950X0.04340*%
%ADD5132R,0.14190X0.18520*%
%ADD614R,0.05130X0.06310*%
%ADD616R,0.03200X0.09500*%
%ADD647C,0.10250*%
%ADD676C,0.06740*%
%ADD681C,0.07530*%
%ADD722OC8,0.08200*%
%ADD832R,0.23630X0.25210*%
%ADD905R,0.06310X0.07100*%
%ADD936R,0.04340X0.05520*%
X0020000Y0020000D02*
G75*
%LPD*%
D2291*
X0210000Y0030000D03*
X0030000Y0030000D03*
X0030000Y0410000D03*
X0210000Y0410000D03*
D5132*
X0151140Y0397450D03*
X0150850Y0366200D03*
X0151250Y0334740D03*
X0151260Y0302980D03*
X0151310Y0270200D03*
X0151710Y0237200D03*
X0152710Y0204600D03*
X0091690Y0204600D03*
X0090690Y0237200D03*
X0090290Y0270200D03*
X0090240Y0302980D03*
X0090220Y0334740D03*
X0089820Y0366200D03*
X0090110Y0397450D03*
D3004*
X0032300Y0087600D02*
X0025900Y0087600D01*
X0026900Y0077600D02*
X0033300Y0077600D01*
X0032300Y0067600D02*
X0025900Y0067600D01*
X0026900Y0057600D02*
X0033300Y0057600D01*
X0032300Y0047600D02*
X0025900Y0047600D01*
D2739*
X0041600Y0049160D03*
X0041600Y0056250D03*
X0151000Y0166460D03*
X0151000Y0173550D03*
D2603*
X0076440Y0157500D03*
X0069750Y0157500D03*
X0069350Y0124900D03*
X0076040Y0124900D03*
X0065340Y0208500D03*
X0058650Y0208500D03*
X0058650Y0239000D03*
X0065340Y0239000D03*
X0065340Y0272000D03*
X0058650Y0272000D03*
X0058150Y0312500D03*
X0064840Y0312500D03*
X0061650Y0343000D03*
X0068340Y0343000D03*
X0068340Y0373000D03*
X0061650Y0373000D03*
X0061150Y0401500D03*
X0067840Y0401500D03*
X0178450Y0034100D03*
X0185140Y0034100D03*
D1957*
X0196000Y0261000D03*
D2688*
X0196000Y0274780D03*
X0196000Y0288560D03*
X0196000Y0302340D03*
X0196000Y0316120D03*
X0196000Y0329900D03*
X0196000Y0343680D03*
X0196000Y0357460D03*
D1622*
X0161000Y0132000D03*
X0161000Y0092000D03*
X0161000Y0032000D03*
X0141000Y0032000D03*
X0121000Y0032000D03*
X0121000Y0112000D03*
D2366*
X0178350Y0173800D03*
X0185440Y0173800D03*
D2017*
X0140000Y0061880D03*
X0140000Y0046130D03*
X0121000Y0046130D03*
X0121000Y0061880D03*
D616*
X0158500Y0148700D03*
X0163500Y0148700D03*
X0168500Y0148700D03*
X0173500Y0148700D03*
X0173500Y0169300D03*
X0168500Y0169300D03*
X0163500Y0169300D03*
X0158500Y0169300D03*
D722*
X0098000Y0112100D03*
X0098000Y0102100D03*
X0098000Y0092100D03*
X0098000Y0082100D03*
X0088000Y0082100D03*
X0088000Y0092100D03*
X0088000Y0102100D03*
X0088000Y0112100D03*
X0082600Y0037300D03*
X0082600Y0027300D03*
X0072600Y0027300D03*
X0072600Y0037300D03*
X0062600Y0037300D03*
X0062600Y0027300D03*
X0052600Y0027300D03*
X0052600Y0037300D03*
D2619*
X0068000Y0055760D03*
X0068000Y0063640D03*
X0199900Y0057440D03*
X0199900Y0049560D03*
D1077*
X0067240Y0134380D03*
X0067240Y0144620D03*
X0063500Y0144620D03*
X0059760Y0144620D03*
X0059760Y0134380D03*
D2856*
X0052800Y0055150D03*
X0052800Y0048460D03*
D1256*
X0196520Y0217400D03*
X0214470Y0217400D03*
D832*
X0205500Y0189130D03*
D1186*
X0210000Y0048000D03*
D193*
X0211000Y0058000D03*
X0210000Y0068000D03*
D2722*
X0200000Y0090000D03*
X0200000Y0120000D03*
X0200000Y0150000D03*
X0020000Y0432500D02*
G75*
%LPD*%
D2856*
X0216000Y0576650D03*
X0216000Y0583350D03*
X0105000Y0693150D03*
X0105000Y0699850D03*
X0100100Y0767650D03*
X0100100Y0774350D03*
D2366*
X0217460Y0602500D03*
X0224540Y0602500D03*
X0280660Y0654300D03*
X0287740Y0654300D03*
D905*
X0286760Y0642200D03*
X0275740Y0642200D03*
D2739*
X0296400Y0654010D03*
X0296400Y0661090D03*
X0242500Y0602540D03*
X0242500Y0595460D03*
D2619*
X0255000Y0652560D03*
X0255000Y0660440D03*
X0264000Y0660440D03*
X0264000Y0652560D03*
D3003*
X0194800Y0577410D03*
X0194800Y0566390D03*
D3004*
X0213500Y0503700D02*
X0213500Y0497300D01*
X0223500Y0496300D02*
X0223500Y0502700D01*
X0233500Y0503700D02*
X0233500Y0497300D01*
X0243500Y0496300D02*
X0243500Y0502700D01*
X0203500Y0502700D02*
X0203500Y0496300D01*
D193*
X0294800Y0499600D03*
X0294800Y0517400D03*
X0269200Y0517400D03*
X0269200Y0499600D03*
X0310500Y0639000D03*
X0310500Y0649000D03*
X0310500Y0659000D03*
D1660*
X0225000Y0587350D03*
X0225000Y0580650D03*
D2023*
X0057500Y0545500D03*
X0057500Y0750500D03*
D647*
X0054700Y0719300D03*
X0054700Y0703700D03*
X0054700Y0688100D03*
X0070400Y0688100D03*
X0070400Y0703700D03*
X0070400Y0719300D03*
X0039000Y0719300D03*
X0039000Y0703700D03*
X0039000Y0688100D03*
X0039000Y0639100D03*
X0039000Y0623500D03*
X0039000Y0607900D03*
X0039000Y0592300D03*
X0039000Y0576700D03*
X0054700Y0576700D03*
X0054700Y0592300D03*
X0054700Y0607900D03*
X0054700Y0623500D03*
X0054700Y0639100D03*
X0070400Y0639100D03*
X0070400Y0623500D03*
X0070400Y0607900D03*
X0070400Y0592300D03*
X0070400Y0576700D03*
X0070400Y0514300D03*
X0070400Y0498700D03*
X0070400Y0483100D03*
X0070400Y0467500D03*
X0070400Y0451900D03*
X0054700Y0451900D03*
X0054700Y0467500D03*
X0054700Y0483100D03*
X0054700Y0498700D03*
X0054700Y0514300D03*
X0039000Y0514300D03*
X0039000Y0498700D03*
X0039000Y0483100D03*
X0039000Y0467500D03*
X0039000Y0451900D03*
X0039000Y0781700D03*
X0039000Y0797300D03*
X0039000Y0812900D03*
X0054700Y0812900D03*
X0054700Y0797300D03*
X0054700Y0781700D03*
X0070400Y0781700D03*
X0070400Y0797300D03*
X0070400Y0812900D03*
D1186*
X0310500Y0669000D03*
X0232500Y0020000D02*
G75*
%LPD*%
D3004*
X0513500Y0206800D02*
X0513500Y0213200D01*
X0523500Y0216800D02*
X0523500Y0223200D01*
X0513500Y0226800D02*
X0513500Y0233200D01*
X0512500Y0256800D02*
X0512500Y0263200D01*
X0522500Y0266800D02*
X0522500Y0273200D01*
X0512500Y0276800D02*
X0512500Y0283200D01*
X0512500Y0296800D02*
X0512500Y0303200D01*
X0522500Y0306800D02*
X0522500Y0313200D01*
X0512500Y0316800D02*
X0512500Y0323200D01*
X0512500Y0336800D02*
X0512500Y0343200D01*
X0522500Y0346800D02*
X0522500Y0353200D01*
X0512500Y0356800D02*
X0512500Y0363200D01*
X0522300Y0194000D02*
X0528700Y0194000D01*
X0529700Y0184000D02*
X0523300Y0184000D01*
X0522300Y0174000D02*
X0528700Y0174000D01*
X0529700Y0164000D02*
X0523300Y0164000D01*
X0522300Y0154000D02*
X0528700Y0154000D01*
D2603*
X0415350Y0172000D03*
X0408660Y0172000D03*
D2856*
X0391500Y0185160D03*
X0391500Y0191850D03*
D1186*
X0420500Y0355500D03*
X0446500Y0355500D03*
D193*
X0446500Y0366500D03*
X0420500Y0366500D03*
X0472500Y0350000D03*
X0487500Y0350000D03*
X0492500Y0315000D03*
X0479000Y0314500D03*
X0486000Y0285500D03*
X0469500Y0232000D03*
X0469500Y0221000D03*
X0402500Y0228500D03*
D1363*
X0258500Y0060000D03*
X0258500Y0070000D03*
X0258500Y0080000D03*
X0258500Y0090000D03*
X0258500Y0100000D03*
X0258500Y0110000D03*
X0258500Y0120000D03*
X0258500Y0130000D03*
X0258500Y0140000D03*
X0258500Y0150000D03*
X0258500Y0160000D03*
X0258500Y0170000D03*
X0258500Y0180000D03*
X0258500Y0190000D03*
X0258500Y0200000D03*
X0258500Y0210000D03*
X0258500Y0220000D03*
X0258500Y0230000D03*
X0258500Y0240000D03*
X0258500Y0250000D03*
X0258500Y0260000D03*
X0258500Y0270000D03*
X0258500Y0280000D03*
X0258500Y0290000D03*
X0258500Y0300000D03*
X0258500Y0310000D03*
X0258500Y0320000D03*
X0258500Y0330000D03*
X0258500Y0340000D03*
X0258500Y0350000D03*
X0258500Y0360000D03*
X0258500Y0370000D03*
D2366*
X0343460Y0271000D03*
X0350550Y0271000D03*
X0476960Y0274000D03*
X0484050Y0274000D03*
D2739*
X0355200Y0364460D03*
X0355200Y0371550D03*
D614*
X0507560Y0141000D03*
X0515440Y0141000D03*
X0515440Y0130000D03*
X0507560Y0130000D03*
D1980*
X0388700Y0345200D03*
X0388700Y0350200D03*
X0388700Y0355200D03*
X0388700Y0360200D03*
X0368100Y0360200D03*
X0368100Y0355200D03*
X0368100Y0350200D03*
X0368100Y0345200D03*
D2619*
X0356300Y0348770D03*
X0356300Y0356640D03*
X0550000Y0020000D02*
G75*
%LPD*%
D614*
X0600060Y0323000D03*
X0607940Y0323000D03*
X0731060Y0337000D03*
X0738940Y0337000D03*
D2897*
X0672100Y0294500D03*
X0672100Y0289500D03*
X0672100Y0284500D03*
X0672100Y0279500D03*
X0647900Y0279500D03*
X0647900Y0284500D03*
X0647900Y0289500D03*
X0647900Y0294500D03*
X0623100Y0294500D03*
X0623100Y0289500D03*
X0623100Y0284500D03*
X0623100Y0279500D03*
X0598900Y0279500D03*
X0598900Y0284500D03*
X0598900Y0289500D03*
X0598900Y0294500D03*
X0647400Y0345500D03*
X0647400Y0350500D03*
X0647400Y0355500D03*
X0647400Y0360500D03*
X0671600Y0360500D03*
X0671600Y0355500D03*
X0671600Y0350500D03*
X0671600Y0345500D03*
D2856*
X0750100Y0321940D03*
X0750100Y0314460D03*
X0652000Y0075740D03*
X0652000Y0068260D03*
D2619*
X0690000Y0300060D03*
X0690000Y0307940D03*
X0700000Y0307940D03*
X0700000Y0300060D03*
X0700000Y0338060D03*
X0700000Y0345940D03*
X0745000Y0353060D03*
X0745000Y0360940D03*
D1182*
X0733000Y0287000D02*
X0727000Y0287000D01*
X0728000Y0277000D02*
X0734000Y0277000D01*
X0733000Y0267000D02*
X0727000Y0267000D01*
D193*
X0757000Y0272000D03*
X0765500Y0222000D03*
X0754500Y0192000D03*
X0765500Y0162000D03*
X0765500Y0132000D03*
X0743000Y0079500D03*
X0651500Y0147900D03*
X0598000Y0106500D03*
X0596000Y0060500D03*
X0596000Y0032500D03*
X0575500Y0192000D03*
X0574500Y0202000D03*
X0575500Y0227000D03*
X0574500Y0237000D03*
X0575500Y0292000D03*
X0574500Y0302000D03*
X0575500Y0312000D03*
X0575500Y0337000D03*
X0574500Y0347000D03*
X0575500Y0357000D03*
X0739000Y0393500D03*
X0754500Y0362000D03*
X0755500Y0352000D03*
X0754500Y0342000D03*
X0765000Y0327000D03*
D1186*
X0755500Y0372000D03*
X0728000Y0393500D03*
X0754500Y0222000D03*
X0765500Y0192000D03*
X0754500Y0162000D03*
X0754500Y0132000D03*
X0743000Y0068500D03*
X0640500Y0147900D03*
X0598000Y0095500D03*
X0596000Y0071500D03*
X0596000Y0043500D03*
X0575500Y0212000D03*
X0575500Y0247000D03*
X0574500Y0282000D03*
X0574500Y0327000D03*
D1777*
X0647400Y0324360D03*
X0647400Y0319360D03*
X0672600Y0319360D03*
X0672600Y0324360D03*
D3366*
X0700000Y0322000D03*
X0700000Y0362000D03*
X0700000Y0282000D03*
X0620000Y0312000D03*
X0620000Y0332000D03*
X0620000Y0362000D03*
D2366*
X0645460Y0230300D03*
X0652550Y0230300D03*
D905*
X0654810Y0220000D03*
X0643790Y0220000D03*
D2745*
X0570000Y0040000D03*
X0760000Y0040000D03*
X0760000Y0390000D03*
X0570000Y0390000D03*
D2603*
X0596260Y0304000D03*
X0603740Y0304000D03*
X0612260Y0262000D03*
X0619740Y0262000D03*
D1727*
X0720000Y0101000D03*
X0740000Y0101000D03*
D2739*
X0589000Y0107460D03*
X0589000Y0114540D03*
D1441*
X0598000Y0115000D03*
X0608000Y0087000D03*
X0619000Y0119000D03*
X0641000Y0106000D03*
X0653000Y0119000D03*
X0654000Y0082000D03*
X0638000Y0081500D03*
X0629000Y0052000D03*
X0657000Y0025000D03*
X0665000Y0041000D03*
X0717600Y0124000D03*
X0719600Y0165000D03*
X0705500Y0200100D03*
X0684300Y0200200D03*
X0674800Y0200600D03*
X0669900Y0197300D03*
X0660100Y0210700D03*
X0652700Y0209600D03*
X0663900Y0225400D03*
X0655100Y0186900D03*
X0660100Y0182900D03*
X0641100Y0187800D03*
X0636100Y0219800D03*
X0599000Y0200700D03*
X0595000Y0194000D03*
X0584000Y0162000D03*
X0558000Y0161000D03*
X0559500Y0234000D03*
X0559000Y0242500D03*
X0574000Y0259000D03*
X0592000Y0267000D03*
X0601000Y0258000D03*
X0626000Y0274000D03*
X0636000Y0296000D03*
X0612000Y0297000D03*
X0636500Y0344500D03*
X0630000Y0377000D03*
X0620000Y0400000D03*
X0557000Y0398000D03*
X0684000Y0344000D03*
X0687400Y0326900D03*
X0690000Y0314000D03*
X0685000Y0293000D03*
X0685000Y0286000D03*
X0700800Y0267300D03*
X0712600Y0307400D03*
X0711400Y0325500D03*
X0718800Y0347000D03*
X0709000Y0352800D03*
X0707400Y0373000D03*
X0692200Y0373700D03*
X0706700Y0401800D03*
X0738500Y0345000D03*
X0750900Y0332100D03*
X0770200Y0340200D03*
X0770100Y0345800D03*
X0771400Y0402100D03*
X0771600Y0263900D03*
X0687600Y0170900D03*
X0688000Y0141000D03*
X0020000Y0845000D02*
G75*
%LPD*%
D905*
X0289610Y0973600D03*
X0278590Y0973600D03*
D2366*
X0280960Y1010100D03*
X0288040Y1010100D03*
X0370360Y0942500D03*
X0377440Y0942500D03*
X0285140Y0918000D03*
X0278060Y0918000D03*
X0223340Y0906400D03*
X0216260Y0906400D03*
X0183840Y0909800D03*
X0176760Y0909800D03*
X0141340Y0920800D03*
X0134260Y0920800D03*
X0121740Y0924000D03*
X0114660Y0924000D03*
X0114960Y0914500D03*
X0122040Y0914500D03*
D2739*
X0209000Y0906540D03*
X0209000Y0899460D03*
X0283500Y0985160D03*
X0283500Y0992240D03*
X0338800Y0979440D03*
X0338800Y0972360D03*
X0368900Y0927040D03*
X0368900Y0919960D03*
X0379900Y0919960D03*
X0379900Y0927040D03*
D2856*
X0299300Y0985550D03*
X0299300Y0992250D03*
D3004*
X0296100Y0909100D02*
X0296100Y0902700D01*
X0286100Y0901700D02*
X0286100Y0908100D01*
X0276100Y0909100D02*
X0276100Y0902700D01*
X0306100Y0901700D02*
X0306100Y0908100D01*
X0316100Y0909100D02*
X0316100Y0902700D01*
D193*
X0388900Y0909000D03*
X0378900Y0910000D03*
X0368900Y0909000D03*
X0337800Y0921900D03*
X0320000Y0921900D03*
X0320000Y0947500D03*
X0337800Y0947500D03*
D1660*
X0291100Y0985550D03*
X0291100Y0992250D03*
D2023*
X0057500Y0958000D03*
X0057500Y1163000D03*
D647*
X0054700Y1131800D03*
X0054700Y1116200D03*
X0054700Y1100600D03*
X0070400Y1100600D03*
X0070400Y1116200D03*
X0070400Y1131800D03*
X0039000Y1131800D03*
X0039000Y1116200D03*
X0039000Y1100600D03*
X0039000Y1051600D03*
X0039000Y1036000D03*
X0039000Y1020400D03*
X0039000Y1004800D03*
X0039000Y0989200D03*
X0054700Y0989200D03*
X0054700Y1004800D03*
X0054700Y1020400D03*
X0054700Y1036000D03*
X0054700Y1051600D03*
X0070400Y1051600D03*
X0070400Y1036000D03*
X0070400Y1020400D03*
X0070400Y1004800D03*
X0070400Y0989200D03*
X0070400Y0926800D03*
X0070400Y0911200D03*
X0070400Y0895600D03*
X0070400Y0880000D03*
X0070400Y0864400D03*
X0054700Y0864400D03*
X0054700Y0880000D03*
X0054700Y0895600D03*
X0054700Y0911200D03*
X0054700Y0926800D03*
X0039000Y0926800D03*
X0039000Y0911200D03*
X0039000Y0895600D03*
X0039000Y0880000D03*
X0039000Y0864400D03*
X0039000Y1194200D03*
X0039000Y1209800D03*
X0039000Y1225400D03*
X0054700Y1225400D03*
X0054700Y1209800D03*
X0054700Y1194200D03*
X0070400Y1194200D03*
X0070400Y1209800D03*
X0070400Y1225400D03*
D1539*
X0255600Y1154900D03*
X0323200Y1181100D03*
X0184800Y0936800D03*
X0182100Y0900900D03*
X0094500Y0906000D03*
X0094500Y0921500D03*
D2017*
X0161000Y0929270D03*
X0161000Y0913530D03*
D1554*
X0194170Y0903000D03*
X0202440Y0899260D03*
X0202440Y0906740D03*
X0100940Y0989160D03*
X0100940Y0996640D03*
X0092670Y0992900D03*
X0101540Y1016760D03*
X0101540Y1024240D03*
X0101640Y1031760D03*
X0101640Y1039240D03*
X0093370Y1035500D03*
X0093270Y1020500D03*
X0113170Y1020900D03*
X0121440Y1017160D03*
X0121440Y1024640D03*
X0133370Y1020900D03*
X0141640Y1017160D03*
X0141640Y1024640D03*
D3003*
X0176600Y0929810D03*
X0176600Y0918790D03*
D1186*
X0358900Y0910000D03*
D614*
X0171940Y1036200D03*
X0164060Y1036200D03*
X0065540Y1143400D03*
X0057660Y1143400D03*
D2619*
X0136500Y1045040D03*
X0136500Y1037160D03*
X0150700Y1024840D03*
X0150700Y1016960D03*
X0235800Y0996440D03*
X0243500Y0996440D03*
X0243500Y0988560D03*
X0235800Y0988560D03*
D681*
X0190400Y0986400D03*
X0180400Y0986400D03*
X0170400Y0986400D03*
X0160400Y0986400D03*
X0150400Y0986400D03*
X0150400Y0956400D03*
X0160400Y0956400D03*
X0170400Y0956400D03*
X0180400Y0956400D03*
X0190400Y0956400D03*
X0151500Y0935500D03*
X0141500Y0935500D03*
X0131500Y0935500D03*
X0121500Y0935500D03*
X0111500Y0935500D03*
X0111500Y0905500D03*
X0121500Y0905500D03*
X0131500Y0905500D03*
X0141500Y0905500D03*
X0151500Y0905500D03*
D3107*
X0127540Y0955430D03*
X0127540Y0958570D03*
X0120060Y0958570D03*
X0120060Y0955430D03*
X0119860Y0970530D03*
X0119860Y0973670D03*
X0127340Y0973670D03*
X0127340Y0970530D03*
X0212960Y1019030D03*
X0212960Y1022170D03*
X0220440Y1022170D03*
X0220440Y1019030D03*
D1718*
X0220440Y1015880D03*
X0212960Y1015880D03*
X0212960Y1025320D03*
X0220440Y1025320D03*
X0127340Y0976820D03*
X0119860Y0976820D03*
X0119860Y0967380D03*
X0120060Y0961720D03*
X0127540Y0961720D03*
X0127340Y0967380D03*
X0127540Y0952280D03*
X0120060Y0952280D03*
D1622*
X0101700Y1006700D03*
X0101700Y1056700D03*
X0126700Y1056700D03*
X0139200Y1056700D03*
X0151700Y1056700D03*
X0189200Y1056700D03*
X0189200Y1006700D03*
D1843*
X0177910Y1046500D03*
X0166890Y1046500D03*
D2800*
X0114600Y1045790D03*
X0114600Y1056810D03*
D3817*
X0161100Y1057900D03*
X0173700Y1057900D03*
D472*
X0151900Y1044630D03*
X0155640Y1036360D03*
X0148160Y1036360D03*
X0440000Y0422500D02*
G75*
%LPD*%
D2023*
X0553000Y0792500D03*
X0758000Y0792500D03*
D647*
X0726800Y0795300D03*
X0726800Y0811000D03*
X0711200Y0811000D03*
X0711200Y0795300D03*
X0695600Y0795300D03*
X0695600Y0811000D03*
X0695600Y0779600D03*
X0711200Y0779600D03*
X0726800Y0779600D03*
X0789200Y0779600D03*
X0804800Y0779600D03*
X0820400Y0779600D03*
X0820400Y0795300D03*
X0820400Y0811000D03*
X0804800Y0811000D03*
X0804800Y0795300D03*
X0789200Y0795300D03*
X0789200Y0811000D03*
X0646600Y0811000D03*
X0646600Y0795300D03*
X0631000Y0795300D03*
X0631000Y0811000D03*
X0615400Y0811000D03*
X0599800Y0811000D03*
X0599800Y0795300D03*
X0615400Y0795300D03*
X0615400Y0779600D03*
X0599800Y0779600D03*
X0584200Y0779600D03*
X0584200Y0795300D03*
X0584200Y0811000D03*
X0631000Y0779600D03*
X0646600Y0779600D03*
X0521800Y0779600D03*
X0506200Y0779600D03*
X0490600Y0779600D03*
X0475000Y0779600D03*
X0459400Y0779600D03*
X0459400Y0795300D03*
X0459400Y0811000D03*
X0475000Y0811000D03*
X0475000Y0795300D03*
X0490600Y0795300D03*
X0506200Y0795300D03*
X0506200Y0811000D03*
X0490600Y0811000D03*
X0521800Y0811000D03*
X0521800Y0795300D03*
D3004*
X0505700Y0628500D02*
X0499300Y0628500D01*
X0500300Y0638500D02*
X0506700Y0638500D01*
X0505700Y0648500D02*
X0499300Y0648500D01*
X0500300Y0658500D02*
X0506700Y0658500D01*
X0505700Y0668500D02*
X0499300Y0668500D01*
D2739*
X0517500Y0637540D03*
X0517500Y0630460D03*
X0726000Y0568540D03*
X0726000Y0561460D03*
D2603*
X0679050Y0606200D03*
X0672350Y0606200D03*
X0584350Y0658500D03*
X0577650Y0658500D03*
X0569850Y0640000D03*
X0563150Y0640000D03*
X0520350Y0696500D03*
X0513650Y0696500D03*
X0530850Y0704300D03*
X0537550Y0704300D03*
X0538350Y0729500D03*
X0531650Y0729500D03*
D3485*
X0774000Y0529500D03*
D1445*
X0774000Y0519500D03*
X0774000Y0509500D03*
X0774000Y0499500D03*
X0774000Y0489500D03*
X0774000Y0479500D03*
D1077*
X0520740Y0708380D03*
X0513260Y0708380D03*
X0513260Y0718620D03*
X0517000Y0718620D03*
X0520740Y0718620D03*
D2619*
X0521500Y0729560D03*
X0521500Y0737440D03*
X0738200Y0799860D03*
X0738200Y0807740D03*
D614*
X0520440Y0688000D03*
X0512560Y0688000D03*
D1843*
X0668090Y0616600D03*
X0679110Y0616600D03*
X0440000Y0842500D02*
G75*
%LPD*%
D1621*
X0583000Y1143500D02*
X0583000Y1186500D01*
X0585000Y1188500D01*
X0592000Y1188500D01*
X0595000Y1191500D01*
X0595000Y1201500D01*
X0597000Y1203500D01*
X0603000Y1203500D01*
X0605000Y1201500D01*
X0605000Y1191500D01*
X0608000Y1188500D01*
X0615000Y1188500D01*
X0617000Y1186500D01*
X0617000Y1144500D01*
X0614000Y1141500D01*
X0586000Y1141500D01*
X0583000Y1143500D01*
X0583030Y1143480D02*
X0615980Y1143480D01*
X0617000Y1145070D02*
X0583000Y1145070D01*
X0583000Y1146650D02*
X0617000Y1146650D01*
X0617000Y1148240D02*
X0583000Y1148240D01*
X0583000Y1149820D02*
X0617000Y1149820D01*
X0617000Y1151410D02*
X0583000Y1151410D01*
X0583000Y1152990D02*
X0617000Y1152990D01*
X0617000Y1154580D02*
X0583000Y1154580D01*
X0583000Y1156160D02*
X0617000Y1156160D01*
X0617000Y1157750D02*
X0583000Y1157750D01*
X0583000Y1159330D02*
X0617000Y1159330D01*
X0617000Y1160920D02*
X0583000Y1160920D01*
X0583000Y1162500D02*
X0617000Y1162500D01*
X0617000Y1164090D02*
X0583000Y1164090D01*
X0583000Y1165670D02*
X0617000Y1165670D01*
X0617000Y1167260D02*
X0583000Y1167260D01*
X0583000Y1168840D02*
X0617000Y1168840D01*
X0617000Y1170430D02*
X0583000Y1170430D01*
X0583000Y1172010D02*
X0617000Y1172010D01*
X0617000Y1173600D02*
X0583000Y1173600D01*
X0583000Y1175180D02*
X0617000Y1175180D01*
X0617000Y1176770D02*
X0583000Y1176770D01*
X0583000Y1178350D02*
X0617000Y1178350D01*
X0617000Y1179940D02*
X0583000Y1179940D01*
X0583000Y1181520D02*
X0617000Y1181520D01*
X0617000Y1183110D02*
X0583000Y1183110D01*
X0583000Y1184690D02*
X0617000Y1184690D01*
X0617000Y1186280D02*
X0583000Y1186280D01*
X0584360Y1187860D02*
X0615640Y1187860D01*
X0607050Y1189450D02*
X0592950Y1189450D01*
X0594530Y1191030D02*
X0605470Y1191030D01*
X0605000Y1192620D02*
X0595000Y1192620D01*
X0595000Y1194200D02*
X0605000Y1194200D01*
X0605000Y1195790D02*
X0595000Y1195790D01*
X0595000Y1197370D02*
X0605000Y1197370D01*
X0605000Y1198960D02*
X0595000Y1198960D01*
X0595000Y1200540D02*
X0605000Y1200540D01*
X0604370Y1202130D02*
X0595630Y1202130D01*
X0585410Y1141900D02*
X0614400Y1141900D01*
D3003*
X0545700Y0979110D03*
X0545700Y0968090D03*
D2739*
X0533200Y0968060D03*
X0533200Y0975140D03*
X0584000Y0956540D03*
X0584000Y0949460D03*
X0600300Y0944740D03*
X0600300Y0937660D03*
X0626800Y0957960D03*
X0626800Y0965040D03*
X0534500Y1114460D03*
X0534500Y1121540D03*
D905*
X0623090Y0939700D03*
X0634110Y0939700D03*
D2366*
X0610240Y0965900D03*
X0603160Y0965900D03*
X0595740Y0882600D03*
X0588660Y0882600D03*
X0608460Y0880800D03*
X0615540Y0880800D03*
X0710060Y1076500D03*
X0717140Y1076500D03*
X0534040Y1160500D03*
X0526960Y1160500D03*
X0508540Y1160500D03*
X0501460Y1160500D03*
D3004*
X0587400Y0900800D02*
X0587400Y0894400D01*
X0597400Y0893400D02*
X0597400Y0899800D01*
X0607400Y0900800D02*
X0607400Y0894400D01*
X0617400Y0893400D02*
X0617400Y0899800D01*
X0627400Y0900800D02*
X0627400Y0894400D01*
D193*
X0549300Y0859600D03*
X0549300Y0877400D03*
X0574900Y0877400D03*
X0574900Y0859600D03*
X0544400Y0952200D03*
X0534400Y0953200D03*
X0524400Y0952200D03*
D2850*
X0612850Y0958000D03*
X0619550Y0958000D03*
D2619*
X0739800Y1213360D03*
X0739800Y1221240D03*
D1186*
X0514400Y0953200D03*
D1808*
X0529400Y0991830D03*
X0529400Y0995370D03*
D2023*
X0553000Y1212500D03*
X0758000Y1212500D03*
D647*
X0726800Y1215300D03*
X0711200Y1215300D03*
X0695600Y1215300D03*
X0695600Y1199600D03*
X0711200Y1199600D03*
X0726800Y1199600D03*
X0726800Y1231000D03*
X0711200Y1231000D03*
X0695600Y1231000D03*
X0646600Y1231000D03*
X0631000Y1231000D03*
X0615400Y1231000D03*
X0599800Y1231000D03*
X0584200Y1231000D03*
X0584200Y1215300D03*
X0599800Y1215300D03*
X0615400Y1215300D03*
X0631000Y1215300D03*
X0646600Y1215300D03*
X0646600Y1199600D03*
X0631000Y1199600D03*
X0615400Y1199600D03*
X0599800Y1199600D03*
X0584200Y1199600D03*
X0521800Y1199600D03*
X0506200Y1199600D03*
X0490600Y1199600D03*
X0475000Y1199600D03*
X0459400Y1199600D03*
X0459400Y1215300D03*
X0475000Y1215300D03*
X0490600Y1215300D03*
X0506200Y1215300D03*
X0521800Y1215300D03*
X0521800Y1231000D03*
X0506200Y1231000D03*
X0490600Y1231000D03*
X0475000Y1231000D03*
X0459400Y1231000D03*
X0789200Y1231000D03*
X0804800Y1231000D03*
X0820400Y1231000D03*
X0820400Y1215300D03*
X0804800Y1215300D03*
X0789200Y1215300D03*
X0789200Y1199600D03*
X0804800Y1199600D03*
X0820400Y1199600D03*
D2706*
X0687860Y1172150D03*
X0687860Y1152270D03*
X0687860Y1132390D03*
X0658530Y1132390D03*
X0658530Y1152270D03*
X0658530Y1172150D03*
X0658340Y1072150D03*
X0673100Y1072150D03*
X0687860Y1072150D03*
D2567*
X0683000Y1081640D03*
X0683000Y1098560D03*
X0663300Y1098660D03*
X0663300Y1081740D03*
X0792500Y0020000D02*
G75*
%LPD*%
D1542*
X0880100Y0168400D03*
X0900100Y0168400D03*
D1048*
X0834300Y0152920D03*
X0826500Y0152920D03*
X0826500Y0143080D03*
X0834300Y0143080D03*
D2745*
X0848800Y0076400D03*
X0815800Y0124300D03*
X0815800Y0171700D03*
X0848900Y0186600D03*
X1061400Y0186600D03*
X1061500Y0076300D03*
D2366*
X1016950Y0130500D03*
X1009860Y0130500D03*
X0930550Y0148000D03*
X0923460Y0148000D03*
X0923460Y0157500D03*
X0930550Y0157500D03*
X0931050Y0194500D03*
X0923960Y0194500D03*
X0923960Y0204500D03*
X0931050Y0204500D03*
X0817450Y0143500D03*
X0810360Y0143500D03*
X0923460Y0111000D03*
X0930550Y0111000D03*
X0930750Y0100900D03*
X0923660Y0100900D03*
X0923460Y0065500D03*
X0930550Y0065500D03*
X0930650Y0055500D03*
X0923560Y0055500D03*
D2739*
X0900000Y0153760D03*
X0900000Y0160850D03*
X0880200Y0161150D03*
X0880200Y0154060D03*
D1186*
X0938000Y0137700D03*
X0938100Y0184500D03*
X0937900Y0090800D03*
X0937900Y0045000D03*
D193*
X0938900Y0055000D03*
X0937900Y0065000D03*
X0938900Y0075000D03*
X0938900Y0100800D03*
X0937900Y0110800D03*
X0938900Y0120800D03*
X0939000Y0147700D03*
X0938000Y0157700D03*
X0939000Y0167700D03*
X0939100Y0194500D03*
X0938100Y0204500D03*
X0939100Y0214500D03*
D1246*
X0999130Y0148840D03*
X1002280Y0148840D03*
X1002280Y0141360D03*
X0999130Y0141360D03*
X0997180Y0106840D03*
X0994030Y0106840D03*
X0994030Y0099360D03*
X0997180Y0099360D03*
X1000530Y0064540D03*
X1003680Y0064540D03*
X1003680Y0057060D03*
X1000530Y0057060D03*
D1471*
X0997380Y0057060D03*
X0997380Y0064540D03*
X1006830Y0064540D03*
X1006830Y0057060D03*
X1000330Y0099360D03*
X0990880Y0099360D03*
X0990880Y0106840D03*
X1000330Y0106840D03*
X0995980Y0141360D03*
X1005430Y0141360D03*
X1005430Y0148840D03*
X0995980Y0148840D03*
D3171*
X1081500Y0159560D03*
D1289*
X1081500Y0151690D03*
X1081500Y0143810D03*
X1071660Y0143810D03*
X1071660Y0151690D03*
X1071660Y0159560D03*
X1071660Y0135940D03*
X1071660Y0128070D03*
X1071660Y0120190D03*
X1071660Y0112320D03*
X1071660Y0104440D03*
X1081500Y0104440D03*
X1081500Y0112320D03*
X1081500Y0120190D03*
X1081500Y0128070D03*
X1081500Y0135940D03*
D2166*
X1081500Y0047000D03*
X1071500Y0047000D03*
X1061500Y0047000D03*
X1101500Y0047000D03*
D1973*
X1098500Y0068000D03*
X1098500Y0078000D03*
X0852500Y0255400D02*
G75*
%LPD*%
D1621*
X1001000Y0283400D02*
X1012000Y0283400D01*
X1012000Y0260400D01*
X1001500Y0260400D01*
X1001500Y0255400D01*
X1033000Y0255400D01*
X1033000Y0260400D01*
X1022000Y0260400D01*
X1022000Y0283400D01*
X1032000Y0283400D01*
X1032000Y0310400D01*
X1032140Y0312560D01*
X1032560Y0314670D01*
X1033250Y0316720D01*
X1034210Y0318650D01*
X1035400Y0320450D01*
X1036830Y0322070D01*
X1038450Y0323490D01*
X1040250Y0324690D01*
X1042180Y0325650D01*
X1044220Y0326340D01*
X1046340Y0326760D01*
X1048500Y0326900D01*
X1140000Y0326900D01*
X1140000Y0353400D01*
X1007500Y0353400D01*
X1006480Y0353320D01*
X1005490Y0353090D01*
X1004540Y0352700D01*
X1003670Y0352160D01*
X1002900Y0351500D01*
X1002240Y0350720D01*
X1001700Y0349850D01*
X1001310Y0348910D01*
X1001080Y0347920D01*
X1001000Y0346900D01*
X1001000Y0283400D01*
X1001000Y0284740D02*
X1032000Y0284740D01*
X1032000Y0286320D02*
X1001000Y0286320D01*
X1001000Y0287910D02*
X1032000Y0287910D01*
X1032000Y0289490D02*
X1001000Y0289490D01*
X1001000Y0291080D02*
X1032000Y0291080D01*
X1032000Y0292660D02*
X1001000Y0292660D01*
X1001000Y0294250D02*
X1032000Y0294250D01*
X1032000Y0295830D02*
X1001000Y0295830D01*
X1001000Y0297420D02*
X1032000Y0297420D01*
X1032000Y0299000D02*
X1001000Y0299000D01*
X1001000Y0300590D02*
X1032000Y0300590D01*
X1032000Y0302170D02*
X1001000Y0302170D01*
X1001000Y0303760D02*
X1032000Y0303760D01*
X1032000Y0305340D02*
X1001000Y0305340D01*
X1001000Y0306930D02*
X1032000Y0306930D01*
X1032000Y0308510D02*
X1001000Y0308510D01*
X1001000Y0310100D02*
X1032000Y0310100D01*
X1032080Y0311680D02*
X1001000Y0311680D01*
X1001000Y0313270D02*
X1032280Y0313270D01*
X1032620Y0314850D02*
X1001000Y0314850D01*
X1001000Y0316440D02*
X1033160Y0316440D01*
X1033900Y0318020D02*
X1001000Y0318020D01*
X1001000Y0319610D02*
X1034840Y0319610D01*
X1036060Y0321190D02*
X1001000Y0321190D01*
X1001000Y0322780D02*
X1037640Y0322780D01*
X1039750Y0324360D02*
X1001000Y0324360D01*
X1001000Y0325950D02*
X1043070Y0325950D01*
X1005020Y0352890D02*
X1140000Y0352890D01*
X1140000Y0351310D02*
X1002740Y0351310D01*
X1001650Y0349720D02*
X1140000Y0349720D01*
X1140000Y0348140D02*
X1001130Y0348140D01*
X1001000Y0346550D02*
X1140000Y0346550D01*
X1140000Y0344970D02*
X1001000Y0344970D01*
X1001000Y0343380D02*
X1140000Y0343380D01*
X1140000Y0341800D02*
X1001000Y0341800D01*
X1001000Y0340210D02*
X1140000Y0340210D01*
X1140000Y0338630D02*
X1001000Y0338630D01*
X1001000Y0337040D02*
X1140000Y0337040D01*
X1140000Y0335460D02*
X1001000Y0335460D01*
X1001000Y0333870D02*
X1140000Y0333870D01*
X1140000Y0332290D02*
X1001000Y0332290D01*
X1001000Y0330700D02*
X1140000Y0330700D01*
X1140000Y0329120D02*
X1001000Y0329120D01*
X1001000Y0327530D02*
X1140000Y0327530D01*
X1033000Y0259380D02*
X1001500Y0259380D01*
X1001500Y0257790D02*
X1033000Y0257790D01*
X1033000Y0256210D02*
X1001500Y0256210D01*
X1012000Y0260960D02*
X1022000Y0260960D01*
X1022000Y0262550D02*
X1012000Y0262550D01*
X1012000Y0264130D02*
X1022000Y0264130D01*
X1022000Y0265720D02*
X1012000Y0265720D01*
X1012000Y0267300D02*
X1022000Y0267300D01*
X1022000Y0268890D02*
X1012000Y0268890D01*
X1012000Y0270470D02*
X1022000Y0270470D01*
X1022000Y0272060D02*
X1012000Y0272060D01*
X1012000Y0273640D02*
X1022000Y0273640D01*
X1022000Y0275230D02*
X1012000Y0275230D01*
X1012000Y0276810D02*
X1022000Y0276810D01*
X1022000Y0278400D02*
X1012000Y0278400D01*
X1012000Y0279980D02*
X1022000Y0279980D01*
X1022000Y0281570D02*
X1012000Y0281570D01*
X1012000Y0283150D02*
X1022000Y0283150D01*
D2856*
X1131500Y0417860D03*
X1131500Y0424550D03*
X1074660Y0459790D03*
X1074660Y0466480D03*
X1029210Y0466120D03*
X1029210Y0459420D03*
X0975900Y0459260D03*
X0975900Y0465950D03*
X0930500Y0465750D03*
X0930500Y0459060D03*
X0906500Y0459060D03*
X0906500Y0465750D03*
D3004*
X0867930Y0363220D02*
X0861530Y0363220D01*
X0862530Y0373220D02*
X0868930Y0373220D01*
X0867930Y0383220D02*
X0861530Y0383220D01*
X0862530Y0393220D02*
X0868930Y0393220D01*
X0867930Y0403220D02*
X0861530Y0403220D01*
D2739*
X0877130Y0371360D03*
X0877130Y0364280D03*
X1077920Y0288420D03*
X1077920Y0281330D03*
D2603*
X1007080Y0383620D03*
X1000380Y0383620D03*
X1002710Y0414590D03*
X0996010Y0414590D03*
X1094950Y0410000D03*
X1101640Y0410000D03*
X1106150Y0762400D03*
X1112840Y0762400D03*
X1060840Y0763400D03*
X1054150Y0763400D03*
X1009840Y0765400D03*
X1003150Y0765400D03*
X0962840Y0764400D03*
X0956150Y0764400D03*
X0911840Y0763400D03*
X0905150Y0763400D03*
D2897*
X1004810Y0279230D03*
X1004810Y0274230D03*
X1004810Y0269230D03*
X1004810Y0264230D03*
X1029010Y0264230D03*
X1029010Y0269230D03*
X1029010Y0274230D03*
X1029010Y0279230D03*
D1843*
X1103160Y0311280D03*
X1114180Y0311280D03*
D2619*
X1103680Y0289090D03*
X1103680Y0281220D03*
X0988050Y0439120D03*
X0988050Y0447000D03*
X0957800Y0448000D03*
X0957800Y0440120D03*
X0951590Y0488180D03*
X0951590Y0496050D03*
X1004310Y0497550D03*
X1004310Y0489680D03*
X1053530Y0492680D03*
X1053530Y0500550D03*
X1112730Y0488630D03*
X1112730Y0480760D03*
X1057960Y0679620D03*
X1057960Y0687500D03*
X1096510Y0687820D03*
X1096510Y0695700D03*
X1099610Y0739960D03*
X1099610Y0747830D03*
X1058710Y0745180D03*
X1058710Y0753050D03*
X1010430Y0752050D03*
X1010430Y0744180D03*
X1009920Y0687500D03*
X1009920Y0679620D03*
X0957000Y0675970D03*
X0957000Y0683840D03*
X0909370Y0686000D03*
X0909370Y0678120D03*
X0899500Y0740470D03*
X0899500Y0748340D03*
X0955160Y0749050D03*
X0955160Y0741180D03*
X0897000Y0489840D03*
X0897000Y0481970D03*
X0895250Y0430000D03*
X0895250Y0422120D03*
D936*
X0895320Y0436930D03*
X0890320Y0436930D03*
X0890320Y0462130D03*
X0895320Y0462130D03*
X0945640Y0455530D03*
X0950640Y0455530D03*
X0950640Y0480730D03*
X0945640Y0480730D03*
X0998900Y0479770D03*
X1003900Y0479770D03*
X1003900Y0454580D03*
X0998900Y0454580D03*
X1040180Y0456080D03*
X1045180Y0456080D03*
X1045180Y0481270D03*
X1040180Y0481270D03*
X1107810Y0471730D03*
X1112810Y0471730D03*
X1112810Y0446530D03*
X1107810Y0446530D03*
X1096430Y0704680D03*
X1091430Y0704680D03*
X1091430Y0729870D03*
X1096430Y0729870D03*
X1058500Y0729770D03*
X1053500Y0729770D03*
X1053500Y0704580D03*
X1058500Y0704580D03*
X1010280Y0704580D03*
X1005280Y0704580D03*
X1005280Y0729770D03*
X1010280Y0729770D03*
X0957050Y0729770D03*
X0952050Y0729770D03*
X0952050Y0704580D03*
X0957050Y0704580D03*
X0904130Y0703810D03*
X0899130Y0703810D03*
X0899130Y0729000D03*
X0904130Y0729000D03*
D614*
X1086220Y0447840D03*
X1094090Y0447840D03*
X1006790Y0440990D03*
X0998920Y0440990D03*
D722*
X1061500Y0391800D03*
X1061500Y0381800D03*
X1071500Y0381800D03*
X1071500Y0391800D03*
X1071500Y0371800D03*
X1071500Y0361800D03*
X1061500Y0361800D03*
X1061500Y0371800D03*
X1092500Y0370400D03*
X1102500Y0370400D03*
X1102500Y0360400D03*
X1092500Y0360400D03*
X1092500Y0380400D03*
X1092500Y0390400D03*
X1102500Y0390400D03*
X1102500Y0380400D03*
X1122500Y0380400D03*
X1122500Y0390400D03*
X1132500Y0390400D03*
X1132500Y0380400D03*
X1132500Y0370400D03*
X1132500Y0360400D03*
X1122500Y0360400D03*
X1122500Y0370400D03*
D676*
X1090050Y0309500D03*
X1090050Y0299500D03*
X1090050Y0289500D03*
X1090050Y0279500D03*
D1046*
X1090050Y0269500D03*
D2366*
X1057770Y0263120D03*
X1050680Y0263120D03*
X0852500Y0847900D02*
G75*
%LPD*%
D3004*
X0955100Y1113600D02*
X0961500Y1113600D01*
X0961500Y1124600D02*
X0955100Y1124600D01*
X0954800Y1137100D02*
X0961200Y1137100D01*
X0961200Y1148100D02*
X0954800Y1148100D01*
X0954600Y1160800D02*
X0961000Y1160800D01*
X0961000Y1171800D02*
X0954600Y1171800D01*
X1141000Y1163600D02*
X1147400Y1163600D01*
X1148400Y1153600D02*
X1142000Y1153600D01*
X1141000Y1143600D02*
X1147400Y1143600D01*
X1148400Y1133600D02*
X1142000Y1133600D01*
X1141000Y1123600D02*
X1147400Y1123600D01*
D2739*
X1132850Y1124860D03*
X1132850Y1131940D03*
X1041200Y1111840D03*
X1041200Y1104760D03*
X1019700Y1093740D03*
X1019700Y1086660D03*
X1010800Y1085060D03*
X1010800Y1092140D03*
X0935500Y1143210D03*
X0935500Y1150290D03*
X0929600Y1165160D03*
X0929600Y1172240D03*
X0931100Y1123040D03*
X0931100Y1115960D03*
D905*
X1028490Y1088800D03*
X1039510Y1088800D03*
X1121190Y0921400D03*
X1132210Y0921400D03*
D2366*
X1131740Y0931500D03*
X1124660Y0931500D03*
X1022440Y1108300D03*
X1026660Y1115200D03*
X1033740Y1115200D03*
X1015360Y1108300D03*
X1123360Y1185400D03*
X1130440Y1185400D03*
D2603*
X1120150Y1124350D03*
X1113450Y1124350D03*
D2437*
X1134360Y1173020D03*
X1134360Y1200580D03*
D1299*
X1144200Y1196640D03*
X1144200Y1176960D03*
D1363*
X0878500Y0887900D03*
X0878500Y0897900D03*
X0878500Y0907900D03*
X0878500Y0917900D03*
X0878500Y0927900D03*
X0878500Y0937900D03*
X0878500Y0947900D03*
X0878500Y0957900D03*
X0878500Y0967900D03*
X0878500Y0977900D03*
X0878500Y0987900D03*
X0878500Y0997900D03*
X0878500Y1007900D03*
X0878500Y1017900D03*
X0878500Y1027900D03*
X0878500Y1037900D03*
X0878500Y1047900D03*
X0878500Y1057900D03*
X0878500Y1067900D03*
X0878500Y1077900D03*
X0878500Y1087900D03*
X0878500Y1097900D03*
X0878500Y1107900D03*
X0878500Y1117900D03*
X0878500Y1127900D03*
X0878500Y1137900D03*
X0878500Y1147900D03*
X0878500Y1157900D03*
X0878500Y1167900D03*
X0878500Y1177900D03*
X0878500Y1187900D03*
X0878500Y1197900D03*
D1289*
X1012170Y1017810D03*
X1020040Y1017810D03*
X1027910Y1017810D03*
X1035790Y1017810D03*
X1043660Y1017810D03*
X1051540Y1017810D03*
X1059410Y1017810D03*
X1067290Y1017810D03*
X1075160Y1017810D03*
X1083030Y1017810D03*
X1138860Y1012970D03*
X1138860Y1005100D03*
X1138860Y0997230D03*
X1146740Y0997230D03*
X1146740Y1005100D03*
X1146740Y1012970D03*
X1083030Y0931190D03*
X1075160Y0931190D03*
X1067290Y0931190D03*
X1059410Y0931190D03*
X1051540Y0931190D03*
X1043660Y0931190D03*
X1035790Y0931190D03*
X1027910Y0931190D03*
X1020040Y0931190D03*
X1012170Y0931190D03*
D1186*
X1142100Y0882500D03*
D193*
X1143100Y0892500D03*
X1142100Y0902500D03*
X1143100Y0912500D03*
D1499*
X1142800Y0986990D03*
X1142800Y1023210D03*
M02*
