G75*
%MOIN*%
%OFA0B0*%
%FSLAX24Y24*%
%IPPOS*%
%LPD*%
%AMOC8*
5,1,8,0,0,1.08239X$1,22.5*
%
%ADD10C,0.0000*%
D10*
X002760Y000180D02*
X002760Y026680D01*
X039760Y026680D01*
X039760Y000180D01*
X002760Y000180D01*
X004110Y002680D02*
X004112Y002730D01*
X004118Y002780D01*
X004128Y002830D01*
X004141Y002878D01*
X004158Y002926D01*
X004179Y002972D01*
X004203Y003016D01*
X004231Y003058D01*
X004262Y003098D01*
X004296Y003135D01*
X004333Y003170D01*
X004372Y003201D01*
X004413Y003230D01*
X004457Y003255D01*
X004503Y003277D01*
X004550Y003295D01*
X004598Y003309D01*
X004647Y003320D01*
X004697Y003327D01*
X004747Y003330D01*
X004798Y003329D01*
X004848Y003324D01*
X004898Y003315D01*
X004946Y003303D01*
X004994Y003286D01*
X005040Y003266D01*
X005085Y003243D01*
X005128Y003216D01*
X005168Y003186D01*
X005206Y003153D01*
X005241Y003117D01*
X005274Y003078D01*
X005303Y003037D01*
X005329Y002994D01*
X005352Y002949D01*
X005371Y002902D01*
X005386Y002854D01*
X005398Y002805D01*
X005406Y002755D01*
X005410Y002705D01*
X005410Y002655D01*
X005406Y002605D01*
X005398Y002555D01*
X005386Y002506D01*
X005371Y002458D01*
X005352Y002411D01*
X005329Y002366D01*
X005303Y002323D01*
X005274Y002282D01*
X005241Y002243D01*
X005206Y002207D01*
X005168Y002174D01*
X005128Y002144D01*
X005085Y002117D01*
X005040Y002094D01*
X004994Y002074D01*
X004946Y002057D01*
X004898Y002045D01*
X004848Y002036D01*
X004798Y002031D01*
X004747Y002030D01*
X004697Y002033D01*
X004647Y002040D01*
X004598Y002051D01*
X004550Y002065D01*
X004503Y002083D01*
X004457Y002105D01*
X004413Y002130D01*
X004372Y002159D01*
X004333Y002190D01*
X004296Y002225D01*
X004262Y002262D01*
X004231Y002302D01*
X004203Y002344D01*
X004179Y002388D01*
X004158Y002434D01*
X004141Y002482D01*
X004128Y002530D01*
X004118Y002580D01*
X004112Y002630D01*
X004110Y002680D01*
X004010Y024680D02*
X004012Y024730D01*
X004018Y024780D01*
X004028Y024830D01*
X004041Y024878D01*
X004058Y024926D01*
X004079Y024972D01*
X004103Y025016D01*
X004131Y025058D01*
X004162Y025098D01*
X004196Y025135D01*
X004233Y025170D01*
X004272Y025201D01*
X004313Y025230D01*
X004357Y025255D01*
X004403Y025277D01*
X004450Y025295D01*
X004498Y025309D01*
X004547Y025320D01*
X004597Y025327D01*
X004647Y025330D01*
X004698Y025329D01*
X004748Y025324D01*
X004798Y025315D01*
X004846Y025303D01*
X004894Y025286D01*
X004940Y025266D01*
X004985Y025243D01*
X005028Y025216D01*
X005068Y025186D01*
X005106Y025153D01*
X005141Y025117D01*
X005174Y025078D01*
X005203Y025037D01*
X005229Y024994D01*
X005252Y024949D01*
X005271Y024902D01*
X005286Y024854D01*
X005298Y024805D01*
X005306Y024755D01*
X005310Y024705D01*
X005310Y024655D01*
X005306Y024605D01*
X005298Y024555D01*
X005286Y024506D01*
X005271Y024458D01*
X005252Y024411D01*
X005229Y024366D01*
X005203Y024323D01*
X005174Y024282D01*
X005141Y024243D01*
X005106Y024207D01*
X005068Y024174D01*
X005028Y024144D01*
X004985Y024117D01*
X004940Y024094D01*
X004894Y024074D01*
X004846Y024057D01*
X004798Y024045D01*
X004748Y024036D01*
X004698Y024031D01*
X004647Y024030D01*
X004597Y024033D01*
X004547Y024040D01*
X004498Y024051D01*
X004450Y024065D01*
X004403Y024083D01*
X004357Y024105D01*
X004313Y024130D01*
X004272Y024159D01*
X004233Y024190D01*
X004196Y024225D01*
X004162Y024262D01*
X004131Y024302D01*
X004103Y024344D01*
X004079Y024388D01*
X004058Y024434D01*
X004041Y024482D01*
X004028Y024530D01*
X004018Y024580D01*
X004012Y024630D01*
X004010Y024680D01*
X036730Y002680D02*
X036732Y002730D01*
X036738Y002780D01*
X036748Y002830D01*
X036761Y002878D01*
X036778Y002926D01*
X036799Y002972D01*
X036823Y003016D01*
X036851Y003058D01*
X036882Y003098D01*
X036916Y003135D01*
X036953Y003170D01*
X036992Y003201D01*
X037033Y003230D01*
X037077Y003255D01*
X037123Y003277D01*
X037170Y003295D01*
X037218Y003309D01*
X037267Y003320D01*
X037317Y003327D01*
X037367Y003330D01*
X037418Y003329D01*
X037468Y003324D01*
X037518Y003315D01*
X037566Y003303D01*
X037614Y003286D01*
X037660Y003266D01*
X037705Y003243D01*
X037748Y003216D01*
X037788Y003186D01*
X037826Y003153D01*
X037861Y003117D01*
X037894Y003078D01*
X037923Y003037D01*
X037949Y002994D01*
X037972Y002949D01*
X037991Y002902D01*
X038006Y002854D01*
X038018Y002805D01*
X038026Y002755D01*
X038030Y002705D01*
X038030Y002655D01*
X038026Y002605D01*
X038018Y002555D01*
X038006Y002506D01*
X037991Y002458D01*
X037972Y002411D01*
X037949Y002366D01*
X037923Y002323D01*
X037894Y002282D01*
X037861Y002243D01*
X037826Y002207D01*
X037788Y002174D01*
X037748Y002144D01*
X037705Y002117D01*
X037660Y002094D01*
X037614Y002074D01*
X037566Y002057D01*
X037518Y002045D01*
X037468Y002036D01*
X037418Y002031D01*
X037367Y002030D01*
X037317Y002033D01*
X037267Y002040D01*
X037218Y002051D01*
X037170Y002065D01*
X037123Y002083D01*
X037077Y002105D01*
X037033Y002130D01*
X036992Y002159D01*
X036953Y002190D01*
X036916Y002225D01*
X036882Y002262D01*
X036851Y002302D01*
X036823Y002344D01*
X036799Y002388D01*
X036778Y002434D01*
X036761Y002482D01*
X036748Y002530D01*
X036738Y002580D01*
X036732Y002630D01*
X036730Y002680D01*
X037050Y024800D02*
X037052Y024850D01*
X037058Y024900D01*
X037068Y024950D01*
X037081Y024998D01*
X037098Y025046D01*
X037119Y025092D01*
X037143Y025136D01*
X037171Y025178D01*
X037202Y025218D01*
X037236Y025255D01*
X037273Y025290D01*
X037312Y025321D01*
X037353Y025350D01*
X037397Y025375D01*
X037443Y025397D01*
X037490Y025415D01*
X037538Y025429D01*
X037587Y025440D01*
X037637Y025447D01*
X037687Y025450D01*
X037738Y025449D01*
X037788Y025444D01*
X037838Y025435D01*
X037886Y025423D01*
X037934Y025406D01*
X037980Y025386D01*
X038025Y025363D01*
X038068Y025336D01*
X038108Y025306D01*
X038146Y025273D01*
X038181Y025237D01*
X038214Y025198D01*
X038243Y025157D01*
X038269Y025114D01*
X038292Y025069D01*
X038311Y025022D01*
X038326Y024974D01*
X038338Y024925D01*
X038346Y024875D01*
X038350Y024825D01*
X038350Y024775D01*
X038346Y024725D01*
X038338Y024675D01*
X038326Y024626D01*
X038311Y024578D01*
X038292Y024531D01*
X038269Y024486D01*
X038243Y024443D01*
X038214Y024402D01*
X038181Y024363D01*
X038146Y024327D01*
X038108Y024294D01*
X038068Y024264D01*
X038025Y024237D01*
X037980Y024214D01*
X037934Y024194D01*
X037886Y024177D01*
X037838Y024165D01*
X037788Y024156D01*
X037738Y024151D01*
X037687Y024150D01*
X037637Y024153D01*
X037587Y024160D01*
X037538Y024171D01*
X037490Y024185D01*
X037443Y024203D01*
X037397Y024225D01*
X037353Y024250D01*
X037312Y024279D01*
X037273Y024310D01*
X037236Y024345D01*
X037202Y024382D01*
X037171Y024422D01*
X037143Y024464D01*
X037119Y024508D01*
X037098Y024554D01*
X037081Y024602D01*
X037068Y024650D01*
X037058Y024700D01*
X037052Y024750D01*
X037050Y024800D01*
M02*
