G75*
%MOIN*%
%OFA0B0*%
%FSLAX24Y24*%
%IPPOS*%
%LPD*%
%AMOC8*
5,1,8,0,0,1.08239X$1,22.5*
%
%ADD10C,0.0500*%
%ADD11C,0.0680*%
%ADD12R,0.0552X0.0395*%
%ADD13R,0.0513X0.0631*%
%ADD14R,0.0592X0.0671*%
%ADD15R,0.0820X0.0820*%
%ADD16C,0.0820*%
%ADD17R,0.0671X0.0592*%
%ADD18R,0.0710X0.0828*%
%ADD19R,0.0395X0.0552*%
%ADD20C,0.0907*%
%ADD21R,0.0946X0.1025*%
%ADD22R,0.0631X0.0513*%
%ADD23R,0.0710X0.0631*%
%ADD24C,0.1380*%
%ADD25C,0.0907*%
%ADD26C,0.0476*%
%ADD27C,0.0437*%
D10*
X007270Y013990D02*
X007280Y013990D01*
X007760Y014470D01*
X007760Y018010D01*
X008090Y018340D01*
X009870Y018340D01*
X010590Y019060D01*
X010590Y021680D01*
X010860Y021950D01*
X008720Y020100D02*
X007280Y021540D01*
X006890Y021540D01*
X006280Y019120D02*
X006280Y016420D01*
X006340Y016360D01*
D11*
X037560Y019600D02*
X038160Y019600D01*
X038260Y018600D02*
X037660Y018600D01*
X037660Y020600D02*
X038260Y020600D01*
X038160Y021600D02*
X037560Y021600D01*
X037660Y022600D02*
X038260Y022600D01*
D12*
X036740Y022414D03*
X036740Y021706D03*
X030360Y003674D03*
X030360Y002966D03*
D13*
X034906Y011520D03*
X035693Y011520D03*
X035713Y012460D03*
X034926Y012460D03*
X037406Y013560D03*
X038193Y013560D03*
X038193Y014360D03*
X037406Y014360D03*
X016353Y003480D03*
X015566Y003480D03*
D14*
X023285Y006640D03*
X023954Y006640D03*
X031125Y015460D03*
X031794Y015460D03*
X033005Y018180D03*
X033674Y018180D03*
D15*
X037850Y015300D03*
X038250Y012480D03*
X038430Y007680D03*
X027520Y001730D03*
X025400Y001830D03*
X019650Y008620D03*
X033080Y025290D03*
X035590Y025320D03*
D16*
X034490Y025320D03*
X032080Y025390D03*
X031080Y025290D03*
X030080Y025390D03*
X037850Y017300D03*
X037950Y016300D03*
X038150Y011480D03*
X038250Y010480D03*
X038330Y006680D03*
X038430Y005680D03*
X038330Y004680D03*
X030520Y001630D03*
X029520Y001730D03*
X028520Y001630D03*
X024400Y001930D03*
X023400Y001830D03*
X022400Y001930D03*
X020750Y008620D03*
D17*
X034540Y013845D03*
X034540Y014515D03*
X035680Y005915D03*
X035680Y005245D03*
D18*
X034580Y004930D03*
X034580Y006230D03*
D19*
X024714Y004680D03*
X024005Y004680D03*
X018234Y007720D03*
X017525Y007720D03*
D20*
X017160Y012780D03*
X019260Y012780D03*
X022260Y012780D03*
X025060Y012880D03*
X028060Y012880D03*
X025060Y016880D03*
X025060Y019880D03*
X019260Y019780D03*
X019260Y016780D03*
X014160Y016780D03*
X014160Y019780D03*
X008960Y019780D03*
X008960Y016780D03*
X008960Y012780D03*
X011960Y012780D03*
X014160Y012780D03*
D21*
X014693Y014380D03*
X016626Y014380D03*
X019993Y014280D03*
X021926Y014280D03*
X025693Y014400D03*
X027626Y014400D03*
X011526Y014380D03*
X009593Y014380D03*
D22*
X037100Y012374D03*
X037100Y011586D03*
D23*
X029340Y004071D03*
X029340Y002969D03*
D24*
X004760Y002680D03*
X004660Y024680D03*
X037380Y002680D03*
X037700Y024800D03*
D25*
X027260Y022793D02*
X027260Y021967D01*
X025260Y021967D02*
X025260Y022793D01*
X021760Y022793D02*
X021760Y021967D01*
X019760Y021967D02*
X019760Y022793D01*
X016260Y022793D02*
X016260Y021967D01*
X014260Y021967D02*
X014260Y022793D01*
X011260Y022693D02*
X011260Y021867D01*
X009260Y021867D02*
X009260Y022693D01*
X006673Y021480D02*
X005846Y021480D01*
X005846Y019480D02*
X006673Y019480D01*
X006673Y015980D02*
X005846Y015980D01*
X005846Y013980D02*
X006673Y013980D01*
X006546Y009380D02*
X007373Y009380D01*
X007373Y007380D02*
X006546Y007380D01*
D26*
X011880Y009100D03*
X007420Y011800D03*
X008840Y015480D03*
X015700Y017120D03*
X018180Y015140D03*
X022140Y016380D03*
X027680Y017960D03*
X028360Y016700D03*
X028960Y016200D03*
X029380Y015600D03*
X029320Y014480D03*
X028800Y013600D03*
X030480Y012780D03*
X032540Y013320D03*
X035240Y013060D03*
X035640Y014200D03*
X036200Y016140D03*
X033040Y015500D03*
X032400Y015500D03*
X031360Y017040D03*
X031400Y017860D03*
X032440Y018220D03*
X034720Y019160D03*
X034580Y019680D03*
X029960Y019240D03*
X035780Y023080D03*
X028760Y025320D03*
X036600Y010480D03*
X027180Y007140D03*
X026640Y008200D03*
X025640Y007900D03*
X025540Y008480D03*
X023860Y009480D03*
X023220Y008980D03*
X022460Y009300D03*
X021740Y007580D03*
X022380Y006120D03*
X022140Y004800D03*
X019820Y005260D03*
X018980Y006460D03*
X016960Y006800D03*
X017920Y009360D03*
X023720Y007560D03*
X025640Y009980D03*
X026920Y002760D03*
X028130Y002530D03*
X029020Y002300D03*
X029990Y002350D03*
X018940Y001780D03*
X014560Y003380D03*
X009220Y001740D03*
X007620Y001740D03*
D27*
X020900Y001660D03*
X021480Y001320D03*
X021590Y003730D03*
X025540Y005260D03*
X026120Y005380D03*
X027740Y005280D03*
X027960Y005740D03*
X028720Y004750D03*
X029310Y005020D03*
X031120Y004980D03*
X028840Y003520D03*
X027640Y003740D03*
X026120Y007120D03*
X032510Y001300D03*
X034040Y017100D03*
X033900Y020020D03*
M02*
