G75*
%MOIN*%
%OFA0B0*%
%FSLAX24Y24*%
%IPPOS*%
%LPD*%
%AMOC8*
5,1,8,0,0,1.08239X$1,22.5*
%
%ADD10C,0.0160*%
%ADD11C,0.0080*%
%ADD12C,0.0100*%
%ADD13R,0.0256X0.0551*%
%ADD14C,0.0030*%
%ADD15R,0.0059X0.0118*%
%ADD16R,0.0118X0.0118*%
%ADD17C,0.0060*%
%ADD18C,0.0020*%
%ADD19C,0.0050*%
%ADD20R,0.0079X0.0079*%
%ADD21R,0.0551X0.0256*%
%ADD22C,0.0008*%
%ADD23C,0.0040*%
D10*
X036860Y021800D02*
X036960Y021860D01*
X037280Y022080D01*
X037080Y022220D01*
X036860Y022380D01*
X036860Y021800D01*
X036960Y022000D02*
X037000Y022000D01*
X037080Y022080D01*
X037060Y022080D01*
X036980Y022160D01*
X036920Y022240D02*
X036920Y022040D01*
X036960Y022000D01*
D11*
X006845Y004689D02*
X006845Y002366D01*
X008105Y002366D01*
X008814Y002366D02*
X010074Y002366D01*
X010074Y004689D01*
X009168Y005594D01*
X008814Y005594D01*
X008105Y005594D02*
X007751Y005594D01*
X006845Y004689D01*
X008766Y008093D02*
X009553Y008093D01*
X009160Y008093D02*
X009553Y008633D01*
X008766Y008633D01*
X009160Y008093D01*
X014966Y007865D02*
X014966Y008495D01*
X014972Y008513D01*
X014981Y008531D01*
X014993Y008546D01*
X015009Y008558D01*
X015026Y008567D01*
X015045Y008573D01*
X015064Y008575D01*
X015084Y008573D01*
X015635Y008573D02*
X015653Y008575D01*
X015670Y008574D01*
X015687Y008570D01*
X015703Y008563D01*
X015718Y008553D01*
X015730Y008541D01*
X015740Y008527D01*
X015748Y008511D01*
X015753Y008495D01*
X015753Y007865D01*
X015748Y007849D01*
X015740Y007833D01*
X015730Y007819D01*
X015718Y007807D01*
X015703Y007797D01*
X015687Y007790D01*
X015670Y007786D01*
X015653Y007785D01*
X015635Y007787D01*
X015084Y007787D02*
X015064Y007785D01*
X015045Y007787D01*
X015026Y007793D01*
X015009Y007802D01*
X014993Y007814D01*
X014981Y007829D01*
X014972Y007847D01*
X014966Y007865D01*
X016200Y008311D02*
X016200Y008649D01*
X016654Y008161D02*
X016865Y008161D01*
X017320Y008311D02*
X017320Y008649D01*
X022656Y008640D02*
X022656Y008562D01*
X022656Y008640D02*
X024624Y008640D01*
X024624Y008562D01*
X024624Y006318D02*
X024624Y006239D01*
X023876Y006239D01*
X023877Y006239D02*
X023875Y006266D01*
X023870Y006292D01*
X023861Y006317D01*
X023848Y006341D01*
X023833Y006363D01*
X023814Y006383D01*
X023794Y006400D01*
X023771Y006414D01*
X023746Y006425D01*
X023720Y006432D01*
X023693Y006436D01*
X023667Y006436D01*
X023640Y006432D01*
X023614Y006425D01*
X023589Y006414D01*
X023566Y006400D01*
X023546Y006383D01*
X023527Y006363D01*
X023512Y006341D01*
X023499Y006317D01*
X023490Y006292D01*
X023485Y006266D01*
X023483Y006239D01*
X022656Y006239D01*
X022656Y006318D01*
X028265Y005994D02*
X028894Y005994D01*
X028895Y005993D02*
X028911Y005988D01*
X028927Y005980D01*
X028941Y005970D01*
X028953Y005958D01*
X028963Y005943D01*
X028970Y005927D01*
X028974Y005910D01*
X028975Y005893D01*
X028973Y005875D01*
X028973Y005325D02*
X028975Y005307D01*
X028974Y005290D01*
X028970Y005273D01*
X028963Y005257D01*
X028953Y005242D01*
X028941Y005230D01*
X028927Y005220D01*
X028911Y005212D01*
X028895Y005207D01*
X028894Y005206D02*
X028265Y005206D01*
X028264Y005207D02*
X028248Y005212D01*
X028232Y005220D01*
X028218Y005230D01*
X028206Y005242D01*
X028196Y005257D01*
X028189Y005273D01*
X028185Y005290D01*
X028184Y005307D01*
X028186Y005325D01*
X028186Y005875D02*
X028184Y005893D01*
X028185Y005910D01*
X028189Y005927D01*
X028196Y005943D01*
X028206Y005958D01*
X028218Y005970D01*
X028232Y005980D01*
X028248Y005988D01*
X028264Y005993D01*
X034913Y012770D02*
X034915Y012785D01*
X034921Y012798D01*
X034930Y012810D01*
X034941Y012819D01*
X034955Y012825D01*
X034970Y012827D01*
X034985Y012825D01*
X034998Y012819D01*
X035010Y012810D01*
X035019Y012799D01*
X035025Y012785D01*
X035027Y012770D01*
X035025Y012755D01*
X035019Y012742D01*
X035010Y012730D01*
X034999Y012721D01*
X034985Y012715D01*
X034970Y012713D01*
X034955Y012715D01*
X034942Y012721D01*
X034930Y012730D01*
X034921Y012741D01*
X034915Y012755D01*
X034913Y012770D01*
X034112Y014890D02*
X030647Y014890D01*
X030490Y015048D01*
X030490Y018512D01*
X030647Y018670D01*
X034112Y018670D01*
X034269Y018512D01*
X034269Y015048D01*
X034112Y014890D01*
X037410Y018210D02*
X037520Y018100D01*
X037910Y018100D01*
X038300Y018100D01*
X038410Y018210D01*
X037910Y018200D02*
X037910Y018100D01*
X037910Y019000D02*
X037910Y019200D01*
X037910Y020000D02*
X037910Y020200D01*
X037910Y021000D02*
X037910Y021200D01*
X037910Y022000D02*
X037910Y022200D01*
X037910Y023000D02*
X037910Y023100D01*
X037520Y023100D01*
X037410Y022990D01*
X037910Y023100D02*
X038300Y023100D01*
X038410Y022990D01*
D12*
X038390Y023190D02*
X038257Y023190D01*
X038190Y023257D01*
X038324Y023390D02*
X038390Y023390D01*
X038457Y023323D01*
X038457Y023257D01*
X038390Y023190D01*
X038390Y023390D02*
X038457Y023457D01*
X038457Y023524D01*
X038390Y023590D01*
X038257Y023590D01*
X038190Y023524D01*
X037997Y023524D02*
X037997Y023390D01*
X037930Y023323D01*
X037730Y023323D01*
X037730Y023190D02*
X037730Y023590D01*
X037930Y023590D01*
X037997Y023524D01*
X037536Y023590D02*
X037403Y023590D01*
X037470Y023590D02*
X037470Y023257D01*
X037403Y023190D01*
X037336Y023190D01*
X037270Y023257D01*
X036097Y023764D02*
X035830Y023497D01*
X035830Y023430D01*
X035636Y023430D02*
X035503Y023563D01*
X035570Y023430D02*
X035436Y023430D01*
X035370Y023497D01*
X035370Y023764D01*
X035436Y023830D01*
X035570Y023830D01*
X035636Y023764D01*
X035636Y023497D01*
X035570Y023430D01*
X036097Y023764D02*
X036097Y023830D01*
X035830Y023830D01*
X032927Y023890D02*
X032793Y023824D01*
X032660Y023690D01*
X032860Y023690D01*
X032927Y023623D01*
X032927Y023557D01*
X032860Y023490D01*
X032727Y023490D01*
X032660Y023557D01*
X032660Y023690D01*
X032466Y023557D02*
X032400Y023490D01*
X032266Y023490D01*
X032200Y023557D01*
X032200Y023824D01*
X032266Y023890D01*
X032400Y023890D01*
X032466Y023824D01*
X032466Y023557D01*
X032466Y023490D02*
X032333Y023623D01*
X031387Y023557D02*
X031320Y023490D01*
X031187Y023490D01*
X031120Y023557D01*
X031120Y023690D02*
X031253Y023757D01*
X031320Y023757D01*
X031387Y023690D01*
X031387Y023557D01*
X031120Y023690D02*
X031120Y023890D01*
X031387Y023890D01*
X030926Y023824D02*
X030926Y023557D01*
X030860Y023490D01*
X030726Y023490D01*
X030660Y023557D01*
X030660Y023824D01*
X030726Y023890D01*
X030860Y023890D01*
X030926Y023824D01*
X030793Y023623D02*
X030926Y023490D01*
X029827Y023710D02*
X029560Y023710D01*
X029760Y023910D01*
X029760Y023510D01*
X029366Y023510D02*
X029233Y023643D01*
X029300Y023510D02*
X029166Y023510D01*
X029100Y023577D01*
X029100Y023844D01*
X029166Y023910D01*
X029300Y023910D01*
X029366Y023844D01*
X029366Y023577D01*
X029300Y023510D01*
X029841Y021296D02*
X029774Y021230D01*
X029774Y021096D01*
X029841Y021030D01*
X029841Y020836D02*
X029774Y020769D01*
X029774Y020636D01*
X029841Y020569D01*
X029841Y020376D02*
X029974Y020376D01*
X030041Y020309D01*
X030041Y020109D01*
X030041Y020242D02*
X030175Y020376D01*
X030324Y020310D02*
X030391Y020377D01*
X030524Y020377D01*
X030591Y020310D01*
X030591Y020110D01*
X030591Y020243D02*
X030725Y020377D01*
X030725Y020570D02*
X030458Y020837D01*
X030391Y020837D01*
X030324Y020771D01*
X030324Y020637D01*
X030391Y020570D01*
X030175Y020569D02*
X030175Y020836D01*
X030175Y021030D02*
X029908Y021296D01*
X029841Y021296D01*
X030175Y021296D02*
X030175Y021030D01*
X030324Y021164D02*
X030725Y021164D01*
X030725Y021031D02*
X030725Y021298D01*
X030458Y021031D02*
X030324Y021164D01*
X030725Y020837D02*
X030725Y020570D01*
X030725Y020110D02*
X030324Y020110D01*
X030324Y020310D01*
X030175Y020109D02*
X029774Y020109D01*
X029774Y020309D01*
X029841Y020376D01*
X030175Y020569D02*
X029908Y020836D01*
X029841Y020836D01*
X031494Y020769D02*
X031494Y020636D01*
X031561Y020569D01*
X031561Y020376D02*
X031694Y020376D01*
X031761Y020309D01*
X031761Y020109D01*
X031761Y020242D02*
X031895Y020376D01*
X032004Y020290D02*
X032071Y020357D01*
X032204Y020357D01*
X032271Y020290D01*
X032271Y020090D01*
X032271Y020223D02*
X032405Y020357D01*
X032405Y020550D02*
X032138Y020817D01*
X032071Y020817D01*
X032004Y020751D01*
X032004Y020617D01*
X032071Y020550D01*
X031895Y020569D02*
X031628Y020836D01*
X031561Y020836D01*
X031494Y020769D01*
X031694Y021030D02*
X031694Y021296D01*
X031494Y021230D02*
X031895Y021230D01*
X032004Y021211D02*
X032004Y021078D01*
X032071Y021011D01*
X032204Y021144D02*
X032204Y021211D01*
X032271Y021278D01*
X032338Y021278D01*
X032405Y021211D01*
X032405Y021078D01*
X032338Y021011D01*
X032405Y020817D02*
X032405Y020550D01*
X032405Y020090D02*
X032004Y020090D01*
X032004Y020290D01*
X031895Y020109D02*
X031494Y020109D01*
X031494Y020309D01*
X031561Y020376D01*
X031895Y020569D02*
X031895Y020836D01*
X031694Y021030D02*
X031494Y021230D01*
X032004Y021211D02*
X032071Y021278D01*
X032138Y021278D01*
X032204Y021211D01*
X033249Y021436D02*
X033316Y021303D01*
X033449Y021170D01*
X033449Y021370D01*
X033516Y021436D01*
X033583Y021436D01*
X033650Y021370D01*
X033650Y021236D01*
X033583Y021170D01*
X033449Y021170D01*
X033383Y020976D02*
X033316Y020976D01*
X033249Y020909D01*
X033249Y020776D01*
X033316Y020709D01*
X033316Y020516D02*
X033449Y020516D01*
X033516Y020449D01*
X033516Y020249D01*
X033516Y020382D02*
X033650Y020516D01*
X033824Y020510D02*
X033891Y020577D01*
X034024Y020577D01*
X034091Y020510D01*
X034091Y020310D01*
X034091Y020443D02*
X034225Y020577D01*
X034225Y020770D02*
X033958Y021037D01*
X033891Y021037D01*
X033824Y020971D01*
X033824Y020837D01*
X033891Y020770D01*
X033650Y020709D02*
X033383Y020976D01*
X033650Y020976D02*
X033650Y020709D01*
X033824Y020510D02*
X033824Y020310D01*
X034225Y020310D01*
X033650Y020249D02*
X033249Y020249D01*
X033249Y020449D01*
X033316Y020516D01*
X034225Y020770D02*
X034225Y021037D01*
X034158Y021231D02*
X034225Y021298D01*
X034225Y021431D01*
X034158Y021498D01*
X034024Y021498D01*
X033958Y021431D01*
X033958Y021364D01*
X034024Y021231D01*
X033824Y021231D01*
X033824Y021498D01*
X035004Y021311D02*
X035004Y021178D01*
X035071Y021111D01*
X035138Y021111D01*
X035204Y021178D01*
X035204Y021378D01*
X035071Y021378D02*
X035338Y021378D01*
X035405Y021311D01*
X035405Y021178D01*
X035338Y021111D01*
X035405Y020917D02*
X035405Y020650D01*
X035138Y020917D01*
X035071Y020917D01*
X035004Y020851D01*
X035004Y020717D01*
X035071Y020650D01*
X035071Y020457D02*
X035204Y020457D01*
X035271Y020390D01*
X035271Y020190D01*
X035271Y020323D02*
X035405Y020457D01*
X035604Y020410D02*
X035604Y020210D01*
X036005Y020210D01*
X035871Y020210D02*
X035871Y020410D01*
X035804Y020477D01*
X035671Y020477D01*
X035604Y020410D01*
X035671Y020670D02*
X035604Y020737D01*
X035604Y020871D01*
X035671Y020937D01*
X035738Y020937D01*
X036005Y020670D01*
X036005Y020937D01*
X035938Y021131D02*
X036005Y021198D01*
X036005Y021331D01*
X035938Y021398D01*
X035871Y021398D01*
X035804Y021331D01*
X035804Y021198D01*
X035738Y021131D01*
X035671Y021131D01*
X035604Y021198D01*
X035604Y021331D01*
X035671Y021398D01*
X035738Y021398D01*
X035804Y021331D01*
X035804Y021198D02*
X035871Y021131D01*
X035938Y021131D01*
X036229Y021231D02*
X036229Y021031D01*
X036630Y021031D01*
X036630Y021231D01*
X036563Y021298D01*
X036296Y021298D01*
X036229Y021231D01*
X036363Y021491D02*
X036229Y021625D01*
X036630Y021625D01*
X036630Y021758D02*
X036630Y021491D01*
X036630Y020837D02*
X036630Y020570D01*
X036229Y020570D01*
X036229Y020837D01*
X036429Y020704D02*
X036429Y020570D01*
X036630Y020377D02*
X036630Y020110D01*
X036229Y020110D01*
X035871Y020343D02*
X036005Y020477D01*
X035405Y020190D02*
X035004Y020190D01*
X035004Y020390D01*
X035071Y020457D01*
X035004Y021311D02*
X035071Y021378D01*
X035488Y019050D02*
X035689Y019050D01*
X035755Y018984D01*
X035755Y018850D01*
X035689Y018783D01*
X035488Y018783D01*
X035488Y018650D02*
X035488Y019050D01*
X035622Y018783D02*
X035755Y018650D01*
X035949Y018650D02*
X036216Y018650D01*
X036082Y018650D02*
X036082Y019050D01*
X035949Y018917D01*
X036409Y018984D02*
X036409Y018717D01*
X036676Y018984D01*
X036676Y018717D01*
X036609Y018650D01*
X036476Y018650D01*
X036409Y018717D01*
X036409Y018984D02*
X036476Y019050D01*
X036609Y019050D01*
X036676Y018984D01*
X030694Y015205D02*
X030696Y015225D01*
X030701Y015245D01*
X030711Y015263D01*
X030723Y015280D01*
X030738Y015294D01*
X030756Y015304D01*
X030775Y015312D01*
X030795Y015316D01*
X030815Y015316D01*
X030835Y015312D01*
X030854Y015304D01*
X030872Y015294D01*
X030887Y015280D01*
X030899Y015263D01*
X030909Y015245D01*
X030914Y015225D01*
X030916Y015205D01*
X030914Y015185D01*
X030909Y015165D01*
X030899Y015147D01*
X030887Y015130D01*
X030872Y015116D01*
X030854Y015106D01*
X030835Y015098D01*
X030815Y015094D01*
X030795Y015094D01*
X030775Y015098D01*
X030756Y015106D01*
X030738Y015116D01*
X030723Y015130D01*
X030711Y015147D01*
X030701Y015165D01*
X030696Y015185D01*
X030694Y015205D01*
X030356Y014804D02*
X030289Y014870D01*
X030156Y014870D01*
X030089Y014804D01*
X030089Y014737D01*
X030156Y014670D01*
X030289Y014670D01*
X030356Y014603D01*
X030356Y014537D01*
X030289Y014470D01*
X030156Y014470D01*
X030089Y014537D01*
X030089Y014603D01*
X030156Y014670D01*
X030289Y014670D02*
X030356Y014737D01*
X030356Y014804D01*
X029896Y014870D02*
X029896Y014537D01*
X029829Y014470D01*
X029695Y014470D01*
X029629Y014537D01*
X029629Y014870D01*
X033228Y014050D02*
X033228Y013650D01*
X033228Y013783D02*
X033429Y013783D01*
X033495Y013850D01*
X033495Y013984D01*
X033429Y014050D01*
X033228Y014050D01*
X033362Y013783D02*
X033495Y013650D01*
X033689Y013650D02*
X033956Y014050D01*
X034149Y013984D02*
X034216Y014050D01*
X034349Y014050D01*
X034416Y013984D01*
X034416Y013917D01*
X034349Y013850D01*
X034416Y013783D01*
X034416Y013717D01*
X034349Y013650D01*
X034216Y013650D01*
X034149Y013717D01*
X034283Y013850D02*
X034349Y013850D01*
X034377Y013490D02*
X034243Y013424D01*
X034110Y013290D01*
X034310Y013290D01*
X034377Y013223D01*
X034377Y013157D01*
X034310Y013090D01*
X034177Y013090D01*
X034110Y013157D01*
X034110Y013290D01*
X033916Y013157D02*
X033916Y013490D01*
X033956Y013650D02*
X033689Y014050D01*
X033650Y013490D02*
X033650Y013157D01*
X033716Y013090D01*
X033850Y013090D01*
X033916Y013157D01*
X036490Y014062D02*
X036556Y013995D01*
X036690Y013995D01*
X036756Y014062D01*
X036950Y013995D02*
X037217Y014262D01*
X037217Y014329D01*
X037150Y014395D01*
X037017Y014395D01*
X036950Y014329D01*
X036756Y014329D02*
X036690Y014395D01*
X036556Y014395D01*
X036490Y014329D01*
X036490Y014062D01*
X036950Y013995D02*
X037217Y013995D01*
X037410Y014062D02*
X037410Y014128D01*
X037477Y014195D01*
X037610Y014195D01*
X037677Y014128D01*
X037677Y014062D01*
X037610Y013995D01*
X037477Y013995D01*
X037410Y014062D01*
X037477Y014195D02*
X037410Y014262D01*
X037410Y014329D01*
X037477Y014395D01*
X037610Y014395D01*
X037677Y014329D01*
X037677Y014262D01*
X037610Y014195D01*
X034469Y010650D02*
X034336Y010650D01*
X034269Y010584D01*
X034403Y010450D02*
X034469Y010450D01*
X034536Y010383D01*
X034536Y010317D01*
X034469Y010250D01*
X034336Y010250D01*
X034269Y010317D01*
X034076Y010250D02*
X033809Y010650D01*
X033615Y010650D02*
X033348Y010650D01*
X033482Y010650D02*
X033482Y010250D01*
X033809Y010250D02*
X034076Y010650D01*
X034469Y010650D02*
X034536Y010584D01*
X034536Y010517D01*
X034469Y010450D01*
X032130Y009281D02*
X032063Y009347D01*
X031996Y009347D01*
X031929Y009281D01*
X031929Y009080D01*
X032063Y009080D01*
X032130Y009147D01*
X032130Y009281D01*
X031929Y009080D02*
X031796Y009214D01*
X031729Y009347D01*
X031796Y008887D02*
X031729Y008820D01*
X031729Y008687D01*
X031796Y008620D01*
X032063Y008620D01*
X032130Y008687D01*
X032130Y008820D01*
X032063Y008887D01*
X031330Y008391D02*
X031330Y008257D01*
X031263Y008190D01*
X031129Y008324D02*
X031129Y008391D01*
X031196Y008457D01*
X031263Y008457D01*
X031330Y008391D01*
X031129Y008391D02*
X031063Y008457D01*
X030996Y008457D01*
X030929Y008391D01*
X030929Y008257D01*
X030996Y008190D01*
X030996Y007997D02*
X031129Y007997D01*
X031196Y007930D01*
X031196Y007730D01*
X031196Y007863D02*
X031330Y007997D01*
X031330Y007730D02*
X030929Y007730D01*
X030929Y007930D01*
X030996Y007997D01*
X030849Y006857D02*
X031250Y006590D01*
X031250Y006396D02*
X031116Y006263D01*
X031116Y006329D02*
X031116Y006129D01*
X031250Y006129D02*
X030849Y006129D01*
X030849Y006329D01*
X030916Y006396D01*
X031049Y006396D01*
X031116Y006329D01*
X030849Y006590D02*
X031250Y006857D01*
X030336Y005690D02*
X030069Y005690D01*
X030069Y005490D01*
X030203Y005557D01*
X030269Y005557D01*
X030336Y005490D01*
X030336Y005357D01*
X030269Y005290D01*
X030136Y005290D01*
X030069Y005357D01*
X029876Y005290D02*
X029609Y005290D01*
X029742Y005290D02*
X029742Y005690D01*
X029609Y005557D01*
X029415Y005690D02*
X029415Y005357D01*
X029349Y005290D01*
X029215Y005290D01*
X029148Y005357D01*
X029148Y005690D01*
X029070Y006263D02*
X028669Y006263D01*
X028669Y006396D02*
X028669Y006129D01*
X028440Y006190D02*
X028173Y006190D01*
X028440Y006457D01*
X028440Y006524D01*
X028373Y006590D01*
X028240Y006590D01*
X028173Y006524D01*
X027979Y006590D02*
X027846Y006590D01*
X027913Y006590D02*
X027913Y006257D01*
X027846Y006190D01*
X027779Y006190D01*
X027712Y006257D01*
X027519Y006257D02*
X027452Y006190D01*
X027319Y006190D01*
X027252Y006257D01*
X027319Y006390D02*
X027452Y006390D01*
X027519Y006323D01*
X027519Y006257D01*
X027319Y006390D02*
X027252Y006457D01*
X027252Y006524D01*
X027319Y006590D01*
X027452Y006590D01*
X027519Y006524D01*
X028669Y006590D02*
X029070Y006857D01*
X029070Y006590D02*
X028669Y006857D01*
X028776Y007910D02*
X028776Y008110D01*
X028709Y008177D01*
X028576Y008177D01*
X028509Y008110D01*
X028509Y007910D01*
X028910Y007910D01*
X028776Y008043D02*
X028910Y008177D01*
X028910Y008370D02*
X028910Y008637D01*
X028910Y008504D02*
X028509Y008504D01*
X028643Y008370D01*
X028582Y010105D02*
X028582Y010505D01*
X028449Y010372D01*
X028255Y010439D02*
X028189Y010505D01*
X027988Y010505D01*
X027988Y010105D01*
X027988Y010238D02*
X028189Y010238D01*
X028255Y010305D01*
X028255Y010439D01*
X028122Y010238D02*
X028255Y010105D01*
X028449Y010105D02*
X028716Y010105D01*
X028909Y010172D02*
X028976Y010105D01*
X029109Y010105D01*
X029176Y010172D01*
X029176Y010439D01*
X029109Y010505D01*
X028976Y010505D01*
X028909Y010439D01*
X028909Y010372D01*
X028976Y010305D01*
X029176Y010305D01*
X030134Y010849D02*
X030134Y011049D01*
X030201Y011116D01*
X030334Y011116D01*
X030401Y011049D01*
X030401Y010849D01*
X030401Y010982D02*
X030535Y011116D01*
X030535Y011309D02*
X030268Y011576D01*
X030201Y011576D01*
X030134Y011509D01*
X030134Y011376D01*
X030201Y011309D01*
X030535Y011309D02*
X030535Y011576D01*
X030468Y011770D02*
X030201Y011770D01*
X030134Y011836D01*
X030134Y011970D01*
X030201Y012036D01*
X030468Y011770D01*
X030535Y011836D01*
X030535Y011970D01*
X030468Y012036D01*
X030201Y012036D01*
X030134Y010849D02*
X030535Y010849D01*
X027610Y011147D02*
X027543Y011080D01*
X027276Y011080D01*
X027209Y011147D01*
X027209Y011280D01*
X027276Y011347D01*
X027543Y011347D01*
X027610Y011280D01*
X027610Y011147D01*
X027476Y011213D02*
X027610Y011347D01*
X027543Y011540D02*
X027610Y011607D01*
X027610Y011741D01*
X027543Y011807D01*
X027476Y011807D01*
X027409Y011741D01*
X027409Y011674D01*
X027409Y011741D02*
X027343Y011807D01*
X027276Y011807D01*
X027209Y011741D01*
X027209Y011607D01*
X027276Y011540D01*
X024735Y011476D02*
X024735Y011209D01*
X024735Y011343D02*
X024334Y011343D01*
X024468Y011209D01*
X024534Y011016D02*
X024601Y010949D01*
X024601Y010749D01*
X024601Y010882D02*
X024735Y011016D01*
X024534Y011016D02*
X024401Y011016D01*
X024334Y010949D01*
X024334Y010749D01*
X024735Y010749D01*
X024668Y011670D02*
X024601Y011670D01*
X024534Y011736D01*
X024534Y011870D01*
X024601Y011936D01*
X024668Y011936D01*
X024735Y011870D01*
X024735Y011736D01*
X024668Y011670D01*
X024534Y011736D02*
X024468Y011670D01*
X024401Y011670D01*
X024334Y011736D01*
X024334Y011870D01*
X024401Y011936D01*
X024468Y011936D01*
X024534Y011870D01*
X024106Y012475D02*
X023706Y012475D01*
X023906Y012541D02*
X024106Y012741D01*
X024040Y012935D02*
X024106Y013002D01*
X024106Y013135D01*
X024040Y013202D01*
X023973Y013202D01*
X023906Y013135D01*
X023906Y013068D01*
X023906Y013135D02*
X023839Y013202D01*
X023773Y013202D01*
X023706Y013135D01*
X023706Y013002D01*
X023773Y012935D01*
X023706Y012741D02*
X023973Y012475D01*
X021810Y011807D02*
X021810Y011540D01*
X021810Y011674D02*
X021409Y011674D01*
X021543Y011540D01*
X021476Y011347D02*
X021743Y011347D01*
X021810Y011280D01*
X021810Y011147D01*
X021743Y011080D01*
X021476Y011080D01*
X021409Y011147D01*
X021409Y011280D01*
X021476Y011347D01*
X021676Y011213D02*
X021810Y011347D01*
X020681Y011333D02*
X020414Y011333D01*
X020548Y011333D02*
X020548Y011733D01*
X020414Y011600D01*
X020221Y011733D02*
X019954Y011467D01*
X020021Y011533D02*
X020221Y011333D01*
X019954Y011333D02*
X019954Y011733D01*
X019635Y011670D02*
X019635Y011936D01*
X019635Y011803D02*
X019234Y011803D01*
X019368Y011670D01*
X019368Y011476D02*
X019434Y011409D01*
X019501Y011476D01*
X019568Y011476D01*
X019635Y011409D01*
X019635Y011276D01*
X019568Y011209D01*
X019434Y011343D02*
X019434Y011409D01*
X019368Y011476D02*
X019301Y011476D01*
X019234Y011409D01*
X019234Y011276D01*
X019301Y011209D01*
X019301Y011016D02*
X019434Y011016D01*
X019501Y010949D01*
X019501Y010749D01*
X019501Y010882D02*
X019635Y011016D01*
X019635Y010749D02*
X019234Y010749D01*
X019234Y010949D01*
X019301Y011016D01*
X019948Y010445D02*
X020149Y010445D01*
X020215Y010379D01*
X020215Y010245D01*
X020149Y010178D01*
X019948Y010178D01*
X019948Y010045D02*
X019948Y010445D01*
X020082Y010178D02*
X020215Y010045D01*
X020409Y010112D02*
X020475Y010045D01*
X020609Y010045D01*
X020676Y010112D01*
X020676Y010178D01*
X020609Y010245D01*
X020542Y010245D01*
X020609Y010245D02*
X020676Y010312D01*
X020676Y010379D01*
X020609Y010445D01*
X020475Y010445D01*
X020409Y010379D01*
X020869Y010379D02*
X020869Y010112D01*
X021136Y010379D01*
X021136Y010112D01*
X021069Y010045D01*
X020936Y010045D01*
X020869Y010112D01*
X020869Y010379D02*
X020936Y010445D01*
X021069Y010445D01*
X021136Y010379D01*
X022328Y010405D02*
X022328Y010005D01*
X022328Y010138D02*
X022529Y010138D01*
X022595Y010205D01*
X022595Y010339D01*
X022529Y010405D01*
X022328Y010405D01*
X022462Y010138D02*
X022595Y010005D01*
X022789Y010005D02*
X023056Y010005D01*
X022922Y010005D02*
X022922Y010405D01*
X022789Y010272D01*
X023249Y010405D02*
X023516Y010405D01*
X023516Y010339D01*
X023249Y010072D01*
X023249Y010005D01*
X024330Y009210D02*
X024330Y008877D01*
X024396Y008810D01*
X024530Y008810D01*
X024596Y008877D01*
X024596Y009210D01*
X024790Y009144D02*
X024857Y009210D01*
X024990Y009210D01*
X025057Y009144D01*
X025057Y009077D01*
X024790Y008810D01*
X025057Y008810D01*
X021156Y006124D02*
X021156Y005857D01*
X021089Y005790D01*
X020956Y005790D01*
X020889Y005857D01*
X020956Y005990D02*
X021156Y005990D01*
X021156Y006124D02*
X021089Y006190D01*
X020956Y006190D01*
X020889Y006124D01*
X020889Y006057D01*
X020956Y005990D01*
X020696Y005857D02*
X020629Y005790D01*
X020429Y005790D01*
X020429Y006190D01*
X020629Y006190D01*
X020696Y006124D01*
X020696Y005857D01*
X021036Y005578D02*
X020969Y005511D01*
X020969Y005378D01*
X021036Y005311D01*
X021036Y005118D02*
X020969Y005051D01*
X020969Y004851D01*
X021370Y004851D01*
X021370Y005051D01*
X021303Y005118D01*
X021036Y005118D01*
X021370Y005311D02*
X021103Y005578D01*
X021036Y005578D01*
X021370Y005578D02*
X021370Y005311D01*
X021370Y004657D02*
X021370Y004390D01*
X020969Y004390D01*
X020969Y004657D01*
X021169Y004524D02*
X021169Y004390D01*
X021370Y004197D02*
X021370Y003930D01*
X020969Y003930D01*
X021136Y003518D02*
X021069Y003451D01*
X021069Y003318D01*
X021136Y003251D01*
X021136Y003518D02*
X021203Y003518D01*
X021470Y003251D01*
X021470Y003518D01*
X021470Y003057D02*
X021470Y002790D01*
X021470Y002924D02*
X021069Y002924D01*
X021203Y002790D01*
X021269Y002597D02*
X021136Y002597D01*
X021069Y002530D01*
X021069Y002330D01*
X021470Y002330D01*
X021336Y002330D02*
X021336Y002530D01*
X021269Y002597D01*
X021336Y002463D02*
X021470Y002597D01*
X022642Y003150D02*
X022642Y003550D01*
X022775Y003550D02*
X022508Y003550D01*
X022969Y003550D02*
X023236Y003150D01*
X023429Y003150D02*
X023696Y003150D01*
X023563Y003150D02*
X023563Y003550D01*
X023429Y003417D01*
X023236Y003550D02*
X022969Y003150D01*
X024130Y003130D02*
X024130Y003530D01*
X024330Y003530D01*
X024396Y003464D01*
X024396Y003330D01*
X024330Y003263D01*
X024130Y003263D01*
X024263Y003263D02*
X024396Y003130D01*
X024590Y003197D02*
X024657Y003130D01*
X024790Y003130D01*
X024857Y003197D01*
X024857Y003263D01*
X024790Y003330D01*
X024590Y003330D01*
X024590Y003197D01*
X024590Y003330D02*
X024723Y003464D01*
X024857Y003530D01*
X026249Y002638D02*
X026249Y002371D01*
X026449Y002371D01*
X026383Y002504D01*
X026383Y002571D01*
X026449Y002638D01*
X026583Y002638D01*
X026650Y002571D01*
X026650Y002438D01*
X026583Y002371D01*
X026583Y002177D02*
X026650Y002111D01*
X026650Y001977D01*
X026583Y001910D01*
X026449Y002044D02*
X026449Y002111D01*
X026516Y002177D01*
X026583Y002177D01*
X026449Y002111D02*
X026383Y002177D01*
X026316Y002177D01*
X026249Y002111D01*
X026249Y001977D01*
X026316Y001910D01*
X026316Y001717D02*
X026449Y001717D01*
X026516Y001650D01*
X026516Y001450D01*
X026516Y001583D02*
X026650Y001717D01*
X026650Y001450D02*
X026249Y001450D01*
X026249Y001650D01*
X026316Y001717D01*
X024970Y005330D02*
X025037Y005397D01*
X025037Y005664D01*
X024970Y005730D01*
X024837Y005730D01*
X024770Y005664D01*
X024770Y005597D01*
X024837Y005530D01*
X025037Y005530D01*
X024970Y005330D02*
X024837Y005330D01*
X024770Y005397D01*
X024576Y005330D02*
X024443Y005463D01*
X024510Y005463D02*
X024310Y005463D01*
X024310Y005330D02*
X024310Y005730D01*
X024510Y005730D01*
X024576Y005664D01*
X024576Y005530D01*
X024510Y005463D01*
X023656Y005250D02*
X023389Y005250D01*
X023523Y005250D02*
X023523Y005650D01*
X023389Y005517D01*
X023196Y005650D02*
X022929Y005250D01*
X022735Y005250D02*
X022602Y005383D01*
X022669Y005383D02*
X022468Y005383D01*
X022468Y005250D02*
X022468Y005650D01*
X022669Y005650D01*
X022735Y005584D01*
X022735Y005450D01*
X022669Y005383D01*
X022929Y005650D02*
X023196Y005250D01*
X020676Y006759D02*
X020409Y006492D01*
X020409Y006425D01*
X020216Y006425D02*
X019949Y006425D01*
X020216Y006692D01*
X020216Y006759D01*
X020149Y006825D01*
X020015Y006825D01*
X019949Y006759D01*
X019755Y006759D02*
X019755Y006625D01*
X019689Y006558D01*
X019488Y006558D01*
X019488Y006425D02*
X019488Y006825D01*
X019689Y006825D01*
X019755Y006759D01*
X019622Y006558D02*
X019755Y006425D01*
X019968Y006190D02*
X019968Y005790D01*
X020235Y005790D01*
X020102Y005990D02*
X019968Y005990D01*
X019968Y006190D02*
X020235Y006190D01*
X019775Y005790D02*
X019508Y005790D01*
X019508Y006190D01*
X019468Y007045D02*
X019468Y007445D01*
X019669Y007445D01*
X019735Y007379D01*
X019735Y007245D01*
X019669Y007178D01*
X019468Y007178D01*
X019602Y007178D02*
X019735Y007045D01*
X019929Y007045D02*
X020196Y007045D01*
X020062Y007045D02*
X020062Y007445D01*
X019929Y007312D01*
X020389Y007245D02*
X020656Y007245D01*
X020589Y007045D02*
X020589Y007445D01*
X020389Y007245D01*
X020409Y006825D02*
X020676Y006825D01*
X020676Y006759D01*
X016856Y007032D02*
X016789Y006965D01*
X016656Y006965D01*
X016589Y007032D01*
X016589Y007165D02*
X016723Y007232D01*
X016789Y007232D01*
X016856Y007165D01*
X016856Y007032D01*
X016589Y007165D02*
X016589Y007365D01*
X016856Y007365D01*
X016396Y006965D02*
X016129Y006965D01*
X016262Y006965D02*
X016262Y007365D01*
X016129Y007232D01*
X015935Y007299D02*
X015935Y007165D01*
X015869Y007098D01*
X015668Y007098D01*
X015668Y006965D02*
X015668Y007365D01*
X015869Y007365D01*
X015935Y007299D01*
X015802Y007098D02*
X015935Y006965D01*
X014610Y007939D02*
X014610Y008006D01*
X014543Y008073D01*
X014209Y008073D01*
X014209Y008139D02*
X014209Y008006D01*
X014209Y008333D02*
X014209Y008533D01*
X014276Y008600D01*
X014409Y008600D01*
X014476Y008533D01*
X014476Y008333D01*
X014610Y008333D02*
X014209Y008333D01*
X014610Y007939D02*
X014543Y007873D01*
X014543Y008793D02*
X014610Y008860D01*
X014610Y008993D01*
X014543Y009060D01*
X014476Y009060D01*
X014409Y008993D01*
X014409Y008793D01*
X014543Y008793D01*
X014409Y008793D02*
X014276Y008927D01*
X014209Y009060D01*
X013785Y009130D02*
X013384Y009130D01*
X013384Y009330D01*
X013451Y009397D01*
X013584Y009397D01*
X013651Y009330D01*
X013651Y009130D01*
X013651Y009263D02*
X013785Y009397D01*
X013785Y009590D02*
X013785Y009857D01*
X013785Y009724D02*
X013384Y009724D01*
X013518Y009590D01*
X013584Y010051D02*
X013584Y010251D01*
X013651Y010318D01*
X013718Y010318D01*
X013785Y010251D01*
X013785Y010118D01*
X013718Y010051D01*
X013584Y010051D01*
X013451Y010184D01*
X013384Y010318D01*
X012666Y010064D02*
X012599Y010130D01*
X012466Y010130D01*
X012399Y010064D01*
X012206Y010064D02*
X012206Y009797D01*
X012139Y009730D01*
X012005Y009730D01*
X011939Y009797D01*
X011939Y010064D01*
X012005Y010130D01*
X012139Y010130D01*
X012206Y010064D01*
X012072Y009863D02*
X012206Y009730D01*
X012399Y009730D02*
X012666Y009997D01*
X012666Y010064D01*
X012666Y009730D02*
X012399Y009730D01*
X012503Y008455D02*
X012503Y008055D01*
X012370Y008055D02*
X012637Y008055D01*
X012830Y008055D02*
X013097Y008055D01*
X012964Y008055D02*
X012964Y008455D01*
X012830Y008322D01*
X012503Y008455D02*
X012370Y008322D01*
X012176Y008389D02*
X012110Y008455D01*
X011976Y008455D01*
X011910Y008389D01*
X011910Y008122D01*
X011976Y008055D01*
X012110Y008055D01*
X012176Y008122D01*
X011316Y007006D02*
X011049Y007006D01*
X011049Y006806D01*
X011183Y006872D01*
X011249Y006872D01*
X011316Y006806D01*
X011316Y006672D01*
X011249Y006606D01*
X011116Y006606D01*
X011049Y006672D01*
X010856Y006672D02*
X010856Y007006D01*
X010589Y007006D02*
X010589Y006672D01*
X010655Y006606D01*
X010789Y006606D01*
X010856Y006672D01*
X009666Y006580D02*
X009399Y006580D01*
X009399Y006380D01*
X009533Y006447D01*
X009599Y006447D01*
X009666Y006380D01*
X009666Y006247D01*
X009599Y006180D01*
X009466Y006180D01*
X009399Y006247D01*
X009206Y006247D02*
X009206Y006514D01*
X009139Y006580D01*
X008939Y006580D01*
X008939Y006180D01*
X009139Y006180D01*
X009206Y006247D01*
X014860Y008847D02*
X014926Y008780D01*
X015060Y008780D01*
X015126Y008847D01*
X015126Y009180D01*
X015320Y009047D02*
X015453Y009180D01*
X015453Y008780D01*
X015320Y008780D02*
X015587Y008780D01*
X015780Y008847D02*
X015847Y008780D01*
X015980Y008780D01*
X016047Y008847D01*
X016047Y008913D01*
X015980Y008980D01*
X015914Y008980D01*
X015980Y008980D02*
X016047Y009047D01*
X016047Y009114D01*
X015980Y009180D01*
X015847Y009180D01*
X015780Y009114D01*
X015185Y009730D02*
X014784Y009730D01*
X014784Y009930D01*
X014851Y009997D01*
X014984Y009997D01*
X015051Y009930D01*
X015051Y009730D01*
X015051Y009863D02*
X015185Y009997D01*
X015185Y010190D02*
X015185Y010457D01*
X015185Y010324D02*
X014784Y010324D01*
X014918Y010190D01*
X014851Y010651D02*
X014784Y010718D01*
X014784Y010851D01*
X014851Y010918D01*
X014918Y010918D01*
X014984Y010851D01*
X015051Y010918D01*
X015118Y010918D01*
X015185Y010851D01*
X015185Y010718D01*
X015118Y010651D01*
X014984Y010784D02*
X014984Y010851D01*
X015354Y011533D02*
X015354Y011933D01*
X015421Y011733D02*
X015621Y011533D01*
X015814Y011733D02*
X016081Y011733D01*
X016015Y011533D02*
X016015Y011933D01*
X015814Y011733D01*
X015621Y011933D02*
X015354Y011667D01*
X017139Y010364D02*
X017205Y010430D01*
X017339Y010430D01*
X017406Y010364D01*
X017406Y010097D01*
X017339Y010030D01*
X017205Y010030D01*
X017139Y010097D01*
X017139Y010364D01*
X017272Y010163D02*
X017406Y010030D01*
X017599Y010097D02*
X017599Y010163D01*
X017666Y010230D01*
X017799Y010230D01*
X017866Y010163D01*
X017866Y010097D01*
X017799Y010030D01*
X017666Y010030D01*
X017599Y010097D01*
X017666Y010230D02*
X017599Y010297D01*
X017599Y010364D01*
X017666Y010430D01*
X017799Y010430D01*
X017866Y010364D01*
X017866Y010297D01*
X017799Y010230D01*
X014860Y009180D02*
X014860Y008847D01*
X009181Y011333D02*
X008914Y011333D01*
X009181Y011600D01*
X009181Y011667D01*
X009115Y011733D01*
X008981Y011733D01*
X008914Y011667D01*
X008721Y011733D02*
X008454Y011467D01*
X008521Y011533D02*
X008721Y011333D01*
X008454Y011333D02*
X008454Y011733D01*
X031449Y002350D02*
X031649Y002150D01*
X031649Y002417D01*
X031449Y002350D02*
X031850Y002350D01*
X032029Y002427D02*
X032029Y002160D01*
X032229Y002160D01*
X032163Y002293D01*
X032163Y002360D01*
X032229Y002427D01*
X032363Y002427D01*
X032430Y002360D01*
X032430Y002226D01*
X032363Y002160D01*
X032430Y001966D02*
X032296Y001833D01*
X032296Y001899D02*
X032296Y001699D01*
X032430Y001699D02*
X032029Y001699D01*
X032029Y001899D01*
X032096Y001966D01*
X032229Y001966D01*
X032296Y001899D01*
X031850Y001956D02*
X031716Y001823D01*
X031716Y001889D02*
X031716Y001689D01*
X031850Y001689D02*
X031449Y001689D01*
X031449Y001889D01*
X031516Y001956D01*
X031649Y001956D01*
X031716Y001889D01*
X032703Y003390D02*
X032703Y003790D01*
X032570Y003790D02*
X032836Y003790D01*
X033030Y003790D02*
X033297Y003390D01*
X033490Y003457D02*
X033557Y003390D01*
X033690Y003390D01*
X033757Y003457D01*
X033757Y003590D01*
X033690Y003657D01*
X033624Y003657D01*
X033490Y003590D01*
X033490Y003790D01*
X033757Y003790D01*
X033690Y004050D02*
X033557Y004050D01*
X033490Y004117D01*
X033490Y004250D02*
X033624Y004317D01*
X033690Y004317D01*
X033757Y004250D01*
X033757Y004117D01*
X033690Y004050D01*
X033490Y004250D02*
X033490Y004450D01*
X033757Y004450D01*
X033297Y004450D02*
X033030Y004050D01*
X032836Y004050D02*
X032703Y004183D01*
X032770Y004183D02*
X032570Y004183D01*
X032570Y004050D02*
X032570Y004450D01*
X032770Y004450D01*
X032836Y004384D01*
X032836Y004250D01*
X032770Y004183D01*
X033030Y004450D02*
X033297Y004050D01*
X033297Y003790D02*
X033030Y003390D01*
X033020Y007040D02*
X033086Y007107D01*
X033086Y007440D01*
X033280Y007307D02*
X033413Y007440D01*
X033413Y007040D01*
X033280Y007040D02*
X033547Y007040D01*
X033020Y007040D02*
X032886Y007040D01*
X032820Y007107D01*
X032820Y007440D01*
D13*
X024947Y004861D03*
X024367Y004861D03*
X024367Y004001D03*
X024947Y004001D03*
X035832Y019559D03*
X036412Y019559D03*
D14*
X036058Y021697D02*
X036058Y021944D01*
X035935Y021820D02*
X036181Y021820D01*
D15*
X036183Y022679D03*
X036656Y022679D03*
D16*
X036420Y022679D03*
D17*
X035420Y022760D02*
X034300Y022760D01*
X034300Y023280D01*
X035420Y023280D01*
X035420Y022760D01*
X034978Y022056D02*
X034741Y022056D01*
X034741Y021584D02*
X034978Y021584D01*
X034856Y020958D02*
X034856Y020722D01*
X034383Y020722D02*
X034383Y020958D01*
X033398Y021604D02*
X033161Y021604D01*
X033161Y022076D02*
X033398Y022076D01*
X033840Y022780D02*
X032720Y022780D01*
X032720Y023300D01*
X033840Y023300D01*
X033840Y022780D01*
X032340Y022780D02*
X031220Y022780D01*
X031220Y023300D01*
X032340Y023300D01*
X032340Y022780D01*
X031898Y022076D02*
X031661Y022076D01*
X031661Y021604D02*
X031898Y021604D01*
X031376Y020958D02*
X031376Y020722D01*
X030903Y020722D02*
X030903Y020958D01*
X030298Y021604D02*
X030061Y021604D01*
X030061Y022076D02*
X030298Y022076D01*
X030740Y022780D02*
X029620Y022780D01*
X029620Y023300D01*
X030740Y023300D01*
X030740Y022780D01*
X029596Y020958D02*
X029596Y020722D01*
X029123Y020722D02*
X029123Y020958D01*
X032563Y020858D02*
X032563Y020622D01*
X033036Y020622D02*
X033036Y020858D01*
X036841Y013756D02*
X037078Y013756D01*
X037078Y013284D02*
X036841Y013284D01*
X036069Y012990D02*
X034650Y012990D01*
X034650Y011130D02*
X036069Y011130D01*
X033800Y006680D02*
X032560Y006680D01*
X032537Y006678D01*
X032514Y006673D01*
X032492Y006664D01*
X032472Y006651D01*
X032454Y006636D01*
X032439Y006618D01*
X032426Y006598D01*
X032417Y006576D01*
X032412Y006553D01*
X032410Y006530D01*
X032410Y004830D01*
X032412Y004807D01*
X032417Y004784D01*
X032426Y004762D01*
X032439Y004742D01*
X032454Y004724D01*
X032472Y004709D01*
X032492Y004696D01*
X032514Y004687D01*
X032537Y004682D01*
X032560Y004680D01*
X033800Y004680D01*
X033823Y004682D01*
X033846Y004687D01*
X033868Y004696D01*
X033888Y004709D01*
X033906Y004724D01*
X033921Y004742D01*
X033934Y004762D01*
X033943Y004784D01*
X033948Y004807D01*
X033950Y004830D01*
X033950Y006530D01*
X033948Y006553D01*
X033943Y006576D01*
X033934Y006598D01*
X033921Y006618D01*
X033906Y006636D01*
X033888Y006651D01*
X033868Y006664D01*
X033846Y006673D01*
X033823Y006678D01*
X033800Y006680D01*
X033380Y006680D02*
X033378Y006653D01*
X033373Y006626D01*
X033363Y006600D01*
X033351Y006576D01*
X033335Y006554D01*
X033317Y006534D01*
X033295Y006517D01*
X033272Y006502D01*
X033247Y006492D01*
X033221Y006484D01*
X033194Y006480D01*
X033166Y006480D01*
X033139Y006484D01*
X033113Y006492D01*
X033088Y006502D01*
X033065Y006517D01*
X033043Y006534D01*
X033025Y006554D01*
X033009Y006576D01*
X032997Y006600D01*
X032987Y006626D01*
X032982Y006653D01*
X032980Y006680D01*
X030078Y010144D02*
X029841Y010144D01*
X029841Y010616D02*
X030078Y010616D01*
X029896Y011262D02*
X029896Y011498D01*
X029423Y011498D02*
X029423Y011262D01*
X028720Y010820D02*
X028200Y010820D01*
X028200Y011940D01*
X028720Y011940D01*
X028720Y010820D01*
X024378Y010516D02*
X024141Y010516D01*
X024141Y010044D02*
X024378Y010044D01*
X024096Y011262D02*
X024096Y011498D01*
X023623Y011498D02*
X023623Y011262D01*
X022920Y010820D02*
X022400Y010820D01*
X022400Y011940D01*
X022920Y011940D01*
X022920Y010820D01*
X019278Y010516D02*
X019041Y010516D01*
X019041Y010044D02*
X019278Y010044D01*
X018996Y011162D02*
X018996Y011398D01*
X018523Y011398D02*
X018523Y011162D01*
X017820Y010720D02*
X017300Y010720D01*
X017300Y011840D01*
X017820Y011840D01*
X017820Y010720D01*
X018141Y008816D02*
X018378Y008816D01*
X018378Y008344D02*
X018141Y008344D01*
X018141Y008116D02*
X018378Y008116D01*
X018378Y007644D02*
X018141Y007644D01*
X015078Y007416D02*
X014841Y007416D01*
X014841Y006944D02*
X015078Y006944D01*
X014596Y010162D02*
X014596Y010398D01*
X014123Y010398D02*
X014123Y010162D01*
X013896Y010862D02*
X013896Y011098D01*
X013423Y011098D02*
X013423Y010862D01*
X012720Y010420D02*
X012200Y010420D01*
X012200Y011540D01*
X012720Y011540D01*
X012720Y010420D01*
D18*
X032550Y006680D02*
X032550Y004680D01*
D19*
X031020Y002880D02*
X027020Y002880D01*
X027020Y000680D01*
X027520Y000680D01*
X027520Y001180D01*
X030520Y001180D01*
X030520Y000680D01*
X027520Y000680D01*
X025900Y000680D02*
X021900Y000680D01*
X021900Y002880D01*
X022400Y002880D01*
X022400Y002380D01*
X025400Y002380D01*
X025400Y002880D01*
X025900Y002880D01*
X025900Y000680D01*
X025400Y002880D02*
X022400Y002880D01*
X020029Y002278D02*
X020029Y004640D01*
X018770Y004640D01*
X018770Y002278D01*
X019006Y002041D01*
X019793Y002041D01*
X020029Y002278D01*
X018460Y002023D02*
X018460Y006480D01*
X010460Y006480D01*
X010460Y002023D01*
X010444Y001980D02*
X018460Y001980D01*
X018460Y002023D01*
X026308Y003845D02*
X026308Y004022D01*
X026308Y004258D01*
X026308Y004435D01*
X027371Y004435D01*
X027371Y003845D01*
X026308Y003845D01*
X026308Y004022D02*
X026328Y004024D01*
X026348Y004029D01*
X026367Y004038D01*
X026384Y004050D01*
X026398Y004064D01*
X026410Y004081D01*
X026419Y004100D01*
X026424Y004120D01*
X026426Y004140D01*
X026424Y004160D01*
X026419Y004180D01*
X026410Y004199D01*
X026398Y004216D01*
X026384Y004230D01*
X026367Y004242D01*
X026348Y004251D01*
X026328Y004256D01*
X026308Y004258D01*
X026484Y004042D02*
X026486Y004062D01*
X026492Y004080D01*
X026501Y004098D01*
X026513Y004113D01*
X026528Y004125D01*
X026546Y004134D01*
X026564Y004140D01*
X026584Y004142D01*
X026604Y004140D01*
X026622Y004134D01*
X026640Y004125D01*
X026655Y004113D01*
X026667Y004098D01*
X026676Y004080D01*
X026682Y004062D01*
X026684Y004042D01*
X026682Y004022D01*
X026676Y004004D01*
X026667Y003986D01*
X026655Y003971D01*
X026640Y003959D01*
X026622Y003950D01*
X026604Y003944D01*
X026584Y003942D01*
X026564Y003944D01*
X026546Y003950D01*
X026528Y003959D01*
X026513Y003971D01*
X026501Y003986D01*
X026492Y004004D01*
X026486Y004022D01*
X026484Y004042D01*
X028555Y003025D02*
X029885Y003025D01*
X029885Y005175D01*
X028555Y005175D01*
X028555Y003025D01*
X028700Y003040D02*
X028700Y005160D01*
X028820Y004970D02*
X028822Y004990D01*
X028828Y005008D01*
X028837Y005026D01*
X028849Y005041D01*
X028864Y005053D01*
X028882Y005062D01*
X028900Y005068D01*
X028920Y005070D01*
X028940Y005068D01*
X028958Y005062D01*
X028976Y005053D01*
X028991Y005041D01*
X029003Y005026D01*
X029012Y005008D01*
X029018Y004990D01*
X029020Y004970D01*
X029018Y004950D01*
X029012Y004932D01*
X029003Y004914D01*
X028991Y004899D01*
X028976Y004887D01*
X028958Y004878D01*
X028940Y004872D01*
X028920Y004870D01*
X028900Y004872D01*
X028882Y004878D01*
X028864Y004887D01*
X028849Y004899D01*
X028837Y004914D01*
X028828Y004932D01*
X028822Y004950D01*
X028820Y004970D01*
X031020Y002880D02*
X031020Y000680D01*
X030520Y000680D01*
X037380Y004180D02*
X037380Y004680D01*
X037880Y004680D01*
X037880Y007680D01*
X037380Y007680D01*
X037380Y008180D01*
X039580Y008180D01*
X039580Y004180D01*
X037380Y004180D01*
X037380Y004680D02*
X037380Y007680D01*
X037200Y009980D02*
X037200Y010480D01*
X037700Y010480D01*
X037700Y012480D01*
X037200Y012480D01*
X037200Y012980D01*
X039400Y012980D01*
X039400Y009980D01*
X037200Y009980D01*
X037200Y010480D02*
X037200Y012480D01*
X036700Y014800D02*
X036700Y017800D01*
X038900Y017800D01*
X038900Y017300D01*
X038400Y017300D01*
X038400Y015300D01*
X038900Y015300D01*
X038900Y014800D01*
X036700Y014800D01*
X038900Y015300D02*
X038900Y017300D01*
X036040Y024120D02*
X034040Y024120D01*
X034040Y026320D01*
X034540Y026320D01*
X034540Y025820D01*
X035540Y025820D01*
X035540Y026320D01*
X036040Y026320D01*
X036040Y024120D01*
X033580Y024140D02*
X029580Y024140D01*
X029580Y026340D01*
X030080Y026340D01*
X030080Y025840D01*
X033080Y025840D01*
X033080Y026340D01*
X033580Y026340D01*
X033580Y024140D01*
X033080Y026340D02*
X030080Y026340D01*
X028228Y026317D02*
X028228Y021593D01*
X027834Y021593D01*
X026653Y021593D02*
X025866Y021593D01*
X024685Y021593D02*
X024291Y021593D01*
X024291Y026317D01*
X028228Y026317D01*
X022728Y026317D02*
X022728Y021593D01*
X022334Y021593D01*
X021153Y021593D02*
X020366Y021593D01*
X019185Y021593D02*
X018791Y021593D01*
X018791Y026317D01*
X022728Y026317D01*
X017228Y026317D02*
X017228Y021593D01*
X016834Y021593D01*
X015653Y021593D02*
X014866Y021593D01*
X013685Y021593D02*
X013291Y021593D01*
X013291Y026317D01*
X017228Y026317D01*
X012228Y026217D02*
X012228Y021493D01*
X011834Y021493D01*
X010653Y021493D02*
X009866Y021493D01*
X008685Y021493D02*
X008291Y021493D01*
X008291Y026217D01*
X012228Y026217D01*
X007047Y022449D02*
X007047Y022055D01*
X007047Y022449D02*
X002323Y022449D01*
X002323Y018511D01*
X007047Y018511D01*
X007047Y018905D01*
X007047Y020086D02*
X007047Y020874D01*
X008294Y020414D02*
X012625Y020414D01*
X012625Y012146D01*
X008294Y012146D01*
X008294Y020414D01*
X007047Y016949D02*
X007047Y016555D01*
X007047Y016949D02*
X002323Y016949D01*
X002323Y013011D01*
X007047Y013011D01*
X007047Y013405D01*
X007047Y014586D02*
X007047Y015374D01*
X013494Y012146D02*
X017825Y012146D01*
X017825Y020414D01*
X013494Y020414D01*
X013494Y012146D01*
X018594Y012146D02*
X022925Y012146D01*
X022925Y020414D01*
X018594Y020414D01*
X018594Y012146D01*
X019200Y009820D02*
X021200Y009820D01*
X021200Y007620D01*
X020700Y007620D01*
X020700Y008120D01*
X019700Y008120D01*
X019700Y007620D01*
X019200Y007620D01*
X019200Y009820D01*
X019700Y007620D02*
X020700Y007620D01*
X024394Y012246D02*
X028725Y012246D01*
X028725Y020514D01*
X024394Y020514D01*
X024394Y012246D01*
X007747Y010349D02*
X007747Y009955D01*
X007747Y010349D02*
X003023Y010349D01*
X003023Y006411D01*
X007747Y006411D01*
X007747Y006805D01*
X007747Y007986D02*
X007747Y008774D01*
X034540Y026320D02*
X035540Y026320D01*
D20*
X035220Y013620D03*
X035480Y010460D03*
X030400Y006481D03*
X029500Y006481D03*
X031600Y004300D03*
X031580Y003540D03*
X023140Y004000D03*
X023120Y004860D03*
X020560Y004499D03*
X018120Y007180D03*
D21*
X020580Y003192D03*
X020580Y002612D03*
X025859Y003968D03*
X025859Y004548D03*
X029499Y007828D03*
X029499Y008408D03*
X030399Y008408D03*
X030399Y007828D03*
X032960Y002692D03*
X032960Y002112D03*
X033840Y002092D03*
X033840Y002672D03*
D22*
X008826Y002430D02*
X008810Y002500D01*
X008884Y002519D01*
X008958Y002543D01*
X009030Y002570D01*
X009100Y002600D01*
X009169Y002634D01*
X009236Y002672D01*
X009301Y002713D01*
X009364Y002757D01*
X009424Y002804D01*
X009483Y002854D01*
X009538Y002907D01*
X009591Y002963D01*
X009641Y003021D01*
X009688Y003082D01*
X009732Y003145D01*
X009772Y003211D01*
X009809Y003278D01*
X009843Y003347D01*
X009873Y003417D01*
X009900Y003490D01*
X009923Y003563D01*
X009942Y003637D01*
X009957Y003713D01*
X009969Y003788D01*
X009977Y003865D01*
X009981Y003942D01*
X009981Y004018D01*
X009977Y004095D01*
X009969Y004172D01*
X009957Y004247D01*
X009942Y004323D01*
X009923Y004397D01*
X009900Y004470D01*
X009873Y004543D01*
X009843Y004613D01*
X009809Y004682D01*
X009772Y004749D01*
X009732Y004815D01*
X009688Y004878D01*
X009641Y004939D01*
X009591Y004997D01*
X009538Y005053D01*
X009483Y005106D01*
X009424Y005156D01*
X009364Y005203D01*
X009301Y005247D01*
X009236Y005288D01*
X009169Y005326D01*
X009100Y005360D01*
X009030Y005390D01*
X008958Y005417D01*
X008884Y005441D01*
X008810Y005460D01*
X008826Y005530D01*
X008827Y005530D01*
X008903Y005510D01*
X008978Y005486D01*
X009052Y005459D01*
X009125Y005428D01*
X009196Y005393D01*
X009265Y005355D01*
X009332Y005313D01*
X009397Y005268D01*
X009460Y005220D01*
X009520Y005169D01*
X009578Y005115D01*
X009632Y005058D01*
X009684Y004999D01*
X009733Y004937D01*
X009779Y004873D01*
X009822Y004806D01*
X009861Y004738D01*
X009897Y004667D01*
X009929Y004595D01*
X009958Y004522D01*
X009983Y004447D01*
X010004Y004371D01*
X010022Y004294D01*
X010035Y004216D01*
X010045Y004138D01*
X010051Y004059D01*
X010053Y003980D01*
X010051Y003901D01*
X010045Y003822D01*
X010035Y003744D01*
X010022Y003666D01*
X010004Y003589D01*
X009983Y003513D01*
X009958Y003438D01*
X009929Y003365D01*
X009897Y003293D01*
X009861Y003222D01*
X009822Y003154D01*
X009779Y003087D01*
X009733Y003023D01*
X009684Y002961D01*
X009632Y002902D01*
X009578Y002845D01*
X009520Y002791D01*
X009460Y002740D01*
X009397Y002692D01*
X009332Y002647D01*
X009265Y002605D01*
X009196Y002567D01*
X009125Y002532D01*
X009052Y002501D01*
X008978Y002474D01*
X008903Y002450D01*
X008827Y002430D01*
X008825Y002437D01*
X008901Y002457D01*
X008976Y002480D01*
X009050Y002508D01*
X009122Y002539D01*
X009192Y002573D01*
X009261Y002611D01*
X009328Y002653D01*
X009393Y002697D01*
X009455Y002745D01*
X009515Y002796D01*
X009573Y002850D01*
X009627Y002906D01*
X009679Y002965D01*
X009728Y003027D01*
X009773Y003091D01*
X009816Y003157D01*
X009855Y003225D01*
X009891Y003296D01*
X009923Y003367D01*
X009951Y003441D01*
X009976Y003515D01*
X009998Y003591D01*
X010015Y003668D01*
X010028Y003745D01*
X010038Y003823D01*
X010044Y003901D01*
X010046Y003980D01*
X010044Y004059D01*
X010038Y004137D01*
X010028Y004215D01*
X010015Y004292D01*
X009998Y004369D01*
X009976Y004445D01*
X009951Y004519D01*
X009923Y004593D01*
X009891Y004664D01*
X009855Y004735D01*
X009816Y004803D01*
X009773Y004869D01*
X009728Y004933D01*
X009679Y004995D01*
X009627Y005054D01*
X009573Y005110D01*
X009515Y005164D01*
X009455Y005215D01*
X009393Y005263D01*
X009328Y005307D01*
X009261Y005349D01*
X009192Y005387D01*
X009122Y005421D01*
X009050Y005452D01*
X008976Y005480D01*
X008901Y005503D01*
X008825Y005523D01*
X008823Y005517D01*
X008899Y005497D01*
X008974Y005473D01*
X009047Y005446D01*
X009119Y005415D01*
X009189Y005381D01*
X009258Y005343D01*
X009324Y005301D01*
X009389Y005257D01*
X009451Y005209D01*
X009511Y005159D01*
X009568Y005105D01*
X009622Y005049D01*
X009674Y004990D01*
X009722Y004929D01*
X009768Y004865D01*
X009810Y004799D01*
X009849Y004731D01*
X009884Y004661D01*
X009916Y004590D01*
X009945Y004517D01*
X009970Y004443D01*
X009991Y004367D01*
X010008Y004291D01*
X010022Y004214D01*
X010031Y004136D01*
X010037Y004058D01*
X010039Y003980D01*
X010037Y003902D01*
X010031Y003824D01*
X010022Y003746D01*
X010008Y003669D01*
X009991Y003593D01*
X009970Y003517D01*
X009945Y003443D01*
X009916Y003370D01*
X009884Y003299D01*
X009849Y003229D01*
X009810Y003161D01*
X009768Y003095D01*
X009722Y003031D01*
X009674Y002970D01*
X009622Y002911D01*
X009568Y002855D01*
X009511Y002801D01*
X009451Y002751D01*
X009389Y002703D01*
X009324Y002659D01*
X009258Y002617D01*
X009189Y002579D01*
X009119Y002545D01*
X009047Y002514D01*
X008974Y002487D01*
X008899Y002463D01*
X008823Y002443D01*
X008822Y002450D01*
X008897Y002470D01*
X008971Y002494D01*
X009044Y002521D01*
X009116Y002551D01*
X009186Y002586D01*
X009254Y002623D01*
X009320Y002664D01*
X009385Y002709D01*
X009446Y002756D01*
X009506Y002806D01*
X009563Y002860D01*
X009617Y002916D01*
X009668Y002974D01*
X009717Y003036D01*
X009762Y003099D01*
X009804Y003165D01*
X009843Y003232D01*
X009878Y003302D01*
X009910Y003373D01*
X009938Y003445D01*
X009963Y003519D01*
X009984Y003594D01*
X010001Y003670D01*
X010015Y003747D01*
X010024Y003824D01*
X010030Y003902D01*
X010032Y003980D01*
X010030Y004058D01*
X010024Y004136D01*
X010015Y004213D01*
X010001Y004290D01*
X009984Y004366D01*
X009963Y004441D01*
X009938Y004515D01*
X009910Y004587D01*
X009878Y004658D01*
X009843Y004728D01*
X009804Y004795D01*
X009762Y004861D01*
X009717Y004924D01*
X009668Y004986D01*
X009617Y005044D01*
X009563Y005100D01*
X009506Y005154D01*
X009446Y005204D01*
X009385Y005251D01*
X009320Y005296D01*
X009254Y005337D01*
X009186Y005374D01*
X009116Y005409D01*
X009044Y005439D01*
X008971Y005466D01*
X008897Y005490D01*
X008822Y005510D01*
X008820Y005503D01*
X008895Y005483D01*
X008969Y005460D01*
X009042Y005433D01*
X009113Y005402D01*
X009183Y005368D01*
X009251Y005331D01*
X009317Y005290D01*
X009381Y005246D01*
X009442Y005198D01*
X009501Y005148D01*
X009558Y005095D01*
X009612Y005039D01*
X009663Y004981D01*
X009711Y004920D01*
X009756Y004857D01*
X009798Y004792D01*
X009837Y004724D01*
X009872Y004655D01*
X009904Y004585D01*
X009932Y004512D01*
X009956Y004439D01*
X009977Y004364D01*
X009994Y004288D01*
X010008Y004212D01*
X010017Y004135D01*
X010023Y004058D01*
X010025Y003980D01*
X010023Y003902D01*
X010017Y003825D01*
X010008Y003748D01*
X009994Y003672D01*
X009977Y003596D01*
X009956Y003521D01*
X009932Y003448D01*
X009904Y003375D01*
X009872Y003305D01*
X009837Y003236D01*
X009798Y003168D01*
X009756Y003103D01*
X009711Y003040D01*
X009663Y002979D01*
X009612Y002921D01*
X009558Y002865D01*
X009501Y002812D01*
X009442Y002762D01*
X009381Y002714D01*
X009317Y002670D01*
X009251Y002629D01*
X009183Y002592D01*
X009113Y002558D01*
X009042Y002527D01*
X008969Y002500D01*
X008895Y002477D01*
X008820Y002457D01*
X008819Y002464D01*
X008893Y002483D01*
X008967Y002507D01*
X009039Y002534D01*
X009110Y002564D01*
X009180Y002598D01*
X009247Y002635D01*
X009313Y002676D01*
X009376Y002720D01*
X009438Y002767D01*
X009497Y002817D01*
X009553Y002870D01*
X009607Y002925D01*
X009658Y002983D01*
X009705Y003044D01*
X009750Y003107D01*
X009792Y003172D01*
X009830Y003239D01*
X009865Y003308D01*
X009897Y003378D01*
X009925Y003450D01*
X009950Y003523D01*
X009970Y003598D01*
X009987Y003673D01*
X010001Y003749D01*
X010010Y003826D01*
X010016Y003903D01*
X010018Y003980D01*
X010016Y004057D01*
X010010Y004134D01*
X010001Y004211D01*
X009987Y004287D01*
X009970Y004362D01*
X009950Y004437D01*
X009925Y004510D01*
X009897Y004582D01*
X009865Y004652D01*
X009830Y004721D01*
X009792Y004788D01*
X009750Y004853D01*
X009705Y004916D01*
X009658Y004977D01*
X009607Y005035D01*
X009553Y005090D01*
X009497Y005143D01*
X009438Y005193D01*
X009376Y005240D01*
X009313Y005284D01*
X009247Y005325D01*
X009180Y005362D01*
X009110Y005396D01*
X009039Y005426D01*
X008967Y005453D01*
X008893Y005477D01*
X008819Y005496D01*
X008817Y005489D01*
X008893Y005469D01*
X008967Y005446D01*
X009041Y005418D01*
X009113Y005387D01*
X009183Y005352D01*
X009251Y005314D01*
X009318Y005272D01*
X009382Y005227D01*
X009443Y005179D01*
X009503Y005128D01*
X009559Y005074D01*
X009613Y005017D01*
X009664Y004958D01*
X009712Y004896D01*
X009757Y004831D01*
X009798Y004765D01*
X009836Y004696D01*
X009870Y004626D01*
X009901Y004554D01*
X009928Y004480D01*
X009952Y004405D01*
X009971Y004330D01*
X009987Y004253D01*
X009999Y004175D01*
X010007Y004097D01*
X010011Y004019D01*
X010011Y003941D01*
X010007Y003863D01*
X009999Y003785D01*
X009987Y003707D01*
X009971Y003630D01*
X009952Y003555D01*
X009928Y003480D01*
X009901Y003406D01*
X009870Y003334D01*
X009836Y003264D01*
X009798Y003195D01*
X009757Y003129D01*
X009712Y003064D01*
X009664Y003002D01*
X009613Y002943D01*
X009559Y002886D01*
X009503Y002832D01*
X009443Y002781D01*
X009382Y002733D01*
X009318Y002688D01*
X009251Y002646D01*
X009183Y002608D01*
X009113Y002573D01*
X009041Y002542D01*
X008967Y002514D01*
X008893Y002491D01*
X008817Y002471D01*
X008815Y002477D01*
X008891Y002497D01*
X008965Y002521D01*
X009038Y002548D01*
X009110Y002579D01*
X009180Y002614D01*
X009248Y002652D01*
X009314Y002693D01*
X009378Y002738D01*
X009439Y002786D01*
X009498Y002837D01*
X009554Y002891D01*
X009608Y002948D01*
X009659Y003007D01*
X009706Y003069D01*
X009751Y003133D01*
X009792Y003199D01*
X009830Y003267D01*
X009864Y003337D01*
X009895Y003409D01*
X009922Y003482D01*
X009945Y003557D01*
X009964Y003632D01*
X009980Y003708D01*
X009992Y003786D01*
X010000Y003863D01*
X010004Y003941D01*
X010004Y004019D01*
X010000Y004097D01*
X009992Y004174D01*
X009980Y004252D01*
X009964Y004328D01*
X009945Y004403D01*
X009922Y004478D01*
X009895Y004551D01*
X009864Y004623D01*
X009830Y004693D01*
X009792Y004761D01*
X009751Y004827D01*
X009706Y004891D01*
X009659Y004953D01*
X009608Y005012D01*
X009554Y005069D01*
X009498Y005123D01*
X009439Y005174D01*
X009378Y005222D01*
X009314Y005267D01*
X009248Y005308D01*
X009180Y005346D01*
X009110Y005381D01*
X009038Y005412D01*
X008965Y005439D01*
X008891Y005463D01*
X008815Y005483D01*
X008814Y005476D01*
X008889Y005456D01*
X008963Y005432D01*
X009035Y005405D01*
X009107Y005374D01*
X009176Y005340D01*
X009244Y005302D01*
X009310Y005261D01*
X009373Y005216D01*
X009435Y005168D01*
X009493Y005118D01*
X009550Y005064D01*
X009603Y005008D01*
X009653Y004949D01*
X009701Y004887D01*
X009745Y004823D01*
X009786Y004757D01*
X009823Y004690D01*
X009857Y004620D01*
X009888Y004548D01*
X009915Y004476D01*
X009938Y004402D01*
X009957Y004326D01*
X009973Y004250D01*
X009985Y004174D01*
X009993Y004096D01*
X009997Y004019D01*
X009997Y003941D01*
X009993Y003864D01*
X009985Y003786D01*
X009973Y003710D01*
X009957Y003634D01*
X009938Y003558D01*
X009915Y003484D01*
X009888Y003412D01*
X009857Y003340D01*
X009823Y003270D01*
X009786Y003203D01*
X009745Y003137D01*
X009701Y003073D01*
X009653Y003011D01*
X009603Y002952D01*
X009550Y002896D01*
X009493Y002842D01*
X009435Y002792D01*
X009373Y002744D01*
X009310Y002699D01*
X009244Y002658D01*
X009176Y002620D01*
X009107Y002586D01*
X009035Y002555D01*
X008963Y002528D01*
X008889Y002504D01*
X008814Y002484D01*
X008812Y002491D01*
X008887Y002511D01*
X008961Y002534D01*
X009033Y002561D01*
X009104Y002592D01*
X009173Y002626D01*
X009240Y002664D01*
X009306Y002705D01*
X009369Y002749D01*
X009430Y002797D01*
X009489Y002847D01*
X009545Y002901D01*
X009598Y002957D01*
X009648Y003016D01*
X009695Y003077D01*
X009739Y003140D01*
X009780Y003206D01*
X009817Y003274D01*
X009851Y003343D01*
X009882Y003414D01*
X009908Y003487D01*
X009931Y003560D01*
X009951Y003635D01*
X009966Y003711D01*
X009978Y003787D01*
X009986Y003864D01*
X009990Y003941D01*
X009990Y004019D01*
X009986Y004096D01*
X009978Y004173D01*
X009966Y004249D01*
X009951Y004325D01*
X009931Y004400D01*
X009908Y004473D01*
X009882Y004546D01*
X009851Y004617D01*
X009817Y004686D01*
X009780Y004754D01*
X009739Y004820D01*
X009695Y004883D01*
X009648Y004944D01*
X009598Y005003D01*
X009545Y005059D01*
X009489Y005113D01*
X009430Y005163D01*
X009369Y005211D01*
X009306Y005255D01*
X009240Y005296D01*
X009173Y005334D01*
X009104Y005368D01*
X009033Y005399D01*
X008961Y005426D01*
X008887Y005449D01*
X008812Y005469D01*
X008811Y005462D01*
X008885Y005443D01*
X008958Y005419D01*
X009030Y005392D01*
X009101Y005362D01*
X009170Y005327D01*
X009237Y005290D01*
X009302Y005249D01*
X009365Y005205D01*
X009426Y005158D01*
X009484Y005107D01*
X009540Y005054D01*
X009592Y004998D01*
X009642Y004940D01*
X009689Y004879D01*
X009733Y004816D01*
X009774Y004750D01*
X009811Y004683D01*
X009845Y004614D01*
X009875Y004543D01*
X009902Y004471D01*
X009925Y004398D01*
X009944Y004323D01*
X009959Y004248D01*
X009971Y004172D01*
X009979Y004095D01*
X009983Y004018D01*
X009983Y003942D01*
X009979Y003865D01*
X009971Y003788D01*
X009959Y003712D01*
X009944Y003637D01*
X009925Y003562D01*
X009902Y003489D01*
X009875Y003417D01*
X009845Y003346D01*
X009811Y003277D01*
X009774Y003210D01*
X009733Y003144D01*
X009689Y003081D01*
X009642Y003020D01*
X009592Y002962D01*
X009540Y002906D01*
X009484Y002853D01*
X009426Y002802D01*
X009365Y002755D01*
X009302Y002711D01*
X009237Y002670D01*
X009170Y002633D01*
X009101Y002598D01*
X009030Y002568D01*
X008958Y002541D01*
X008885Y002517D01*
X008811Y002498D01*
X008094Y005530D02*
X008110Y005460D01*
X008036Y005441D01*
X007962Y005417D01*
X007890Y005390D01*
X007820Y005360D01*
X007751Y005326D01*
X007684Y005288D01*
X007619Y005247D01*
X007556Y005203D01*
X007496Y005156D01*
X007437Y005106D01*
X007382Y005053D01*
X007329Y004997D01*
X007279Y004939D01*
X007232Y004878D01*
X007188Y004815D01*
X007148Y004749D01*
X007111Y004682D01*
X007077Y004613D01*
X007047Y004543D01*
X007020Y004470D01*
X006997Y004397D01*
X006978Y004323D01*
X006963Y004247D01*
X006951Y004172D01*
X006943Y004095D01*
X006939Y004018D01*
X006939Y003942D01*
X006943Y003865D01*
X006951Y003788D01*
X006963Y003713D01*
X006978Y003637D01*
X006997Y003563D01*
X007020Y003490D01*
X007047Y003417D01*
X007077Y003347D01*
X007111Y003278D01*
X007148Y003211D01*
X007188Y003145D01*
X007232Y003082D01*
X007279Y003021D01*
X007329Y002963D01*
X007382Y002907D01*
X007437Y002854D01*
X007496Y002804D01*
X007556Y002757D01*
X007619Y002713D01*
X007684Y002672D01*
X007751Y002634D01*
X007820Y002600D01*
X007890Y002570D01*
X007962Y002543D01*
X008036Y002519D01*
X008110Y002500D01*
X008094Y002430D01*
X008093Y002430D01*
X008017Y002450D01*
X007942Y002474D01*
X007868Y002501D01*
X007795Y002532D01*
X007724Y002567D01*
X007655Y002605D01*
X007588Y002647D01*
X007523Y002692D01*
X007460Y002740D01*
X007400Y002791D01*
X007342Y002845D01*
X007288Y002902D01*
X007236Y002961D01*
X007187Y003023D01*
X007141Y003087D01*
X007098Y003154D01*
X007059Y003222D01*
X007023Y003293D01*
X006991Y003365D01*
X006962Y003438D01*
X006937Y003513D01*
X006916Y003589D01*
X006898Y003666D01*
X006885Y003744D01*
X006875Y003822D01*
X006869Y003901D01*
X006867Y003980D01*
X006869Y004059D01*
X006875Y004138D01*
X006885Y004216D01*
X006898Y004294D01*
X006916Y004371D01*
X006937Y004447D01*
X006962Y004522D01*
X006991Y004595D01*
X007023Y004667D01*
X007059Y004738D01*
X007098Y004806D01*
X007141Y004873D01*
X007187Y004937D01*
X007236Y004999D01*
X007288Y005058D01*
X007342Y005115D01*
X007400Y005169D01*
X007460Y005220D01*
X007523Y005268D01*
X007588Y005313D01*
X007655Y005355D01*
X007724Y005393D01*
X007795Y005428D01*
X007868Y005459D01*
X007942Y005486D01*
X008017Y005510D01*
X008093Y005530D01*
X008095Y005523D01*
X008019Y005503D01*
X007944Y005480D01*
X007870Y005452D01*
X007798Y005421D01*
X007728Y005387D01*
X007659Y005349D01*
X007592Y005307D01*
X007527Y005263D01*
X007465Y005215D01*
X007405Y005164D01*
X007347Y005110D01*
X007293Y005054D01*
X007241Y004995D01*
X007192Y004933D01*
X007147Y004869D01*
X007104Y004803D01*
X007065Y004735D01*
X007029Y004664D01*
X006997Y004593D01*
X006969Y004519D01*
X006944Y004445D01*
X006922Y004369D01*
X006905Y004292D01*
X006892Y004215D01*
X006882Y004137D01*
X006876Y004059D01*
X006874Y003980D01*
X006876Y003901D01*
X006882Y003823D01*
X006892Y003745D01*
X006905Y003668D01*
X006922Y003591D01*
X006944Y003515D01*
X006969Y003441D01*
X006997Y003367D01*
X007029Y003296D01*
X007065Y003225D01*
X007104Y003157D01*
X007147Y003091D01*
X007192Y003027D01*
X007241Y002965D01*
X007293Y002906D01*
X007347Y002850D01*
X007405Y002796D01*
X007465Y002745D01*
X007527Y002697D01*
X007592Y002653D01*
X007659Y002611D01*
X007728Y002573D01*
X007798Y002539D01*
X007870Y002508D01*
X007944Y002480D01*
X008019Y002457D01*
X008095Y002437D01*
X008097Y002443D01*
X008021Y002463D01*
X007946Y002487D01*
X007873Y002514D01*
X007801Y002545D01*
X007731Y002579D01*
X007662Y002617D01*
X007596Y002659D01*
X007531Y002703D01*
X007469Y002751D01*
X007409Y002801D01*
X007352Y002855D01*
X007298Y002911D01*
X007246Y002970D01*
X007198Y003031D01*
X007152Y003095D01*
X007110Y003161D01*
X007071Y003229D01*
X007036Y003299D01*
X007004Y003370D01*
X006975Y003443D01*
X006950Y003517D01*
X006929Y003593D01*
X006912Y003669D01*
X006898Y003746D01*
X006889Y003824D01*
X006883Y003902D01*
X006881Y003980D01*
X006883Y004058D01*
X006889Y004136D01*
X006898Y004214D01*
X006912Y004291D01*
X006929Y004367D01*
X006950Y004443D01*
X006975Y004517D01*
X007004Y004590D01*
X007036Y004661D01*
X007071Y004731D01*
X007110Y004799D01*
X007152Y004865D01*
X007198Y004929D01*
X007246Y004990D01*
X007298Y005049D01*
X007352Y005105D01*
X007409Y005159D01*
X007469Y005209D01*
X007531Y005257D01*
X007596Y005301D01*
X007662Y005343D01*
X007731Y005381D01*
X007801Y005415D01*
X007873Y005446D01*
X007946Y005473D01*
X008021Y005497D01*
X008097Y005517D01*
X008098Y005510D01*
X008023Y005490D01*
X007949Y005466D01*
X007876Y005439D01*
X007804Y005409D01*
X007734Y005374D01*
X007666Y005337D01*
X007600Y005296D01*
X007535Y005251D01*
X007474Y005204D01*
X007414Y005154D01*
X007357Y005100D01*
X007303Y005044D01*
X007252Y004986D01*
X007203Y004924D01*
X007158Y004861D01*
X007116Y004795D01*
X007077Y004728D01*
X007042Y004658D01*
X007010Y004587D01*
X006982Y004515D01*
X006957Y004441D01*
X006936Y004366D01*
X006919Y004290D01*
X006905Y004213D01*
X006896Y004136D01*
X006890Y004058D01*
X006888Y003980D01*
X006890Y003902D01*
X006896Y003824D01*
X006905Y003747D01*
X006919Y003670D01*
X006936Y003594D01*
X006957Y003519D01*
X006982Y003445D01*
X007010Y003373D01*
X007042Y003302D01*
X007077Y003232D01*
X007116Y003165D01*
X007158Y003099D01*
X007203Y003036D01*
X007252Y002974D01*
X007303Y002916D01*
X007357Y002860D01*
X007414Y002806D01*
X007474Y002756D01*
X007535Y002709D01*
X007600Y002664D01*
X007666Y002623D01*
X007734Y002586D01*
X007804Y002551D01*
X007876Y002521D01*
X007949Y002494D01*
X008023Y002470D01*
X008098Y002450D01*
X008100Y002457D01*
X008025Y002477D01*
X007951Y002500D01*
X007878Y002527D01*
X007807Y002558D01*
X007737Y002592D01*
X007669Y002629D01*
X007603Y002670D01*
X007539Y002714D01*
X007478Y002762D01*
X007419Y002812D01*
X007362Y002865D01*
X007308Y002921D01*
X007257Y002979D01*
X007209Y003040D01*
X007164Y003103D01*
X007122Y003168D01*
X007083Y003236D01*
X007048Y003305D01*
X007016Y003375D01*
X006988Y003448D01*
X006964Y003521D01*
X006943Y003596D01*
X006926Y003672D01*
X006912Y003748D01*
X006903Y003825D01*
X006897Y003902D01*
X006895Y003980D01*
X006897Y004058D01*
X006903Y004135D01*
X006912Y004212D01*
X006926Y004288D01*
X006943Y004364D01*
X006964Y004439D01*
X006988Y004512D01*
X007016Y004585D01*
X007048Y004655D01*
X007083Y004724D01*
X007122Y004792D01*
X007164Y004857D01*
X007209Y004920D01*
X007257Y004981D01*
X007308Y005039D01*
X007362Y005095D01*
X007419Y005148D01*
X007478Y005198D01*
X007539Y005246D01*
X007603Y005290D01*
X007669Y005331D01*
X007737Y005368D01*
X007807Y005402D01*
X007878Y005433D01*
X007951Y005460D01*
X008025Y005483D01*
X008100Y005503D01*
X008101Y005496D01*
X008027Y005477D01*
X007953Y005453D01*
X007881Y005426D01*
X007810Y005396D01*
X007740Y005362D01*
X007673Y005325D01*
X007607Y005284D01*
X007544Y005240D01*
X007482Y005193D01*
X007423Y005143D01*
X007367Y005090D01*
X007313Y005035D01*
X007262Y004977D01*
X007215Y004916D01*
X007170Y004853D01*
X007128Y004788D01*
X007090Y004721D01*
X007055Y004652D01*
X007023Y004582D01*
X006995Y004510D01*
X006970Y004437D01*
X006950Y004362D01*
X006933Y004287D01*
X006919Y004211D01*
X006910Y004134D01*
X006904Y004057D01*
X006902Y003980D01*
X006904Y003903D01*
X006910Y003826D01*
X006919Y003749D01*
X006933Y003673D01*
X006950Y003598D01*
X006970Y003523D01*
X006995Y003450D01*
X007023Y003378D01*
X007055Y003308D01*
X007090Y003239D01*
X007128Y003172D01*
X007170Y003107D01*
X007215Y003044D01*
X007262Y002983D01*
X007313Y002925D01*
X007367Y002870D01*
X007423Y002817D01*
X007482Y002767D01*
X007544Y002720D01*
X007607Y002676D01*
X007673Y002635D01*
X007740Y002598D01*
X007810Y002564D01*
X007881Y002534D01*
X007953Y002507D01*
X008027Y002483D01*
X008101Y002464D01*
X008103Y002471D01*
X008027Y002491D01*
X007953Y002514D01*
X007879Y002542D01*
X007807Y002573D01*
X007737Y002608D01*
X007669Y002646D01*
X007602Y002688D01*
X007538Y002733D01*
X007477Y002781D01*
X007417Y002832D01*
X007361Y002886D01*
X007307Y002943D01*
X007256Y003002D01*
X007208Y003064D01*
X007163Y003129D01*
X007122Y003195D01*
X007084Y003264D01*
X007050Y003334D01*
X007019Y003406D01*
X006992Y003480D01*
X006968Y003555D01*
X006949Y003630D01*
X006933Y003707D01*
X006921Y003785D01*
X006913Y003863D01*
X006909Y003941D01*
X006909Y004019D01*
X006913Y004097D01*
X006921Y004175D01*
X006933Y004253D01*
X006949Y004330D01*
X006968Y004405D01*
X006992Y004480D01*
X007019Y004554D01*
X007050Y004626D01*
X007084Y004696D01*
X007122Y004765D01*
X007163Y004831D01*
X007208Y004896D01*
X007256Y004958D01*
X007307Y005017D01*
X007361Y005074D01*
X007417Y005128D01*
X007477Y005179D01*
X007538Y005227D01*
X007602Y005272D01*
X007669Y005314D01*
X007737Y005352D01*
X007807Y005387D01*
X007879Y005418D01*
X007953Y005446D01*
X008027Y005469D01*
X008103Y005489D01*
X008105Y005483D01*
X008029Y005463D01*
X007955Y005439D01*
X007882Y005412D01*
X007810Y005381D01*
X007740Y005346D01*
X007672Y005308D01*
X007606Y005267D01*
X007542Y005222D01*
X007481Y005174D01*
X007422Y005123D01*
X007366Y005069D01*
X007312Y005012D01*
X007261Y004953D01*
X007214Y004891D01*
X007169Y004827D01*
X007128Y004761D01*
X007090Y004693D01*
X007056Y004623D01*
X007025Y004551D01*
X006998Y004478D01*
X006975Y004403D01*
X006956Y004328D01*
X006940Y004252D01*
X006928Y004174D01*
X006920Y004097D01*
X006916Y004019D01*
X006916Y003941D01*
X006920Y003863D01*
X006928Y003786D01*
X006940Y003708D01*
X006956Y003632D01*
X006975Y003557D01*
X006998Y003482D01*
X007025Y003409D01*
X007056Y003337D01*
X007090Y003267D01*
X007128Y003199D01*
X007169Y003133D01*
X007214Y003069D01*
X007261Y003007D01*
X007312Y002948D01*
X007366Y002891D01*
X007422Y002837D01*
X007481Y002786D01*
X007542Y002738D01*
X007606Y002693D01*
X007672Y002652D01*
X007740Y002614D01*
X007810Y002579D01*
X007882Y002548D01*
X007955Y002521D01*
X008029Y002497D01*
X008105Y002477D01*
X008106Y002484D01*
X008031Y002504D01*
X007957Y002528D01*
X007885Y002555D01*
X007813Y002586D01*
X007744Y002620D01*
X007676Y002658D01*
X007610Y002699D01*
X007547Y002744D01*
X007485Y002792D01*
X007427Y002842D01*
X007370Y002896D01*
X007317Y002952D01*
X007267Y003011D01*
X007219Y003073D01*
X007175Y003137D01*
X007134Y003203D01*
X007097Y003270D01*
X007063Y003340D01*
X007032Y003412D01*
X007005Y003484D01*
X006982Y003558D01*
X006963Y003634D01*
X006947Y003710D01*
X006935Y003786D01*
X006927Y003864D01*
X006923Y003941D01*
X006923Y004019D01*
X006927Y004096D01*
X006935Y004174D01*
X006947Y004250D01*
X006963Y004326D01*
X006982Y004402D01*
X007005Y004476D01*
X007032Y004548D01*
X007063Y004620D01*
X007097Y004690D01*
X007134Y004757D01*
X007175Y004823D01*
X007219Y004887D01*
X007267Y004949D01*
X007317Y005008D01*
X007370Y005064D01*
X007427Y005118D01*
X007485Y005168D01*
X007547Y005216D01*
X007610Y005261D01*
X007676Y005302D01*
X007744Y005340D01*
X007813Y005374D01*
X007885Y005405D01*
X007957Y005432D01*
X008031Y005456D01*
X008106Y005476D01*
X008108Y005469D01*
X008033Y005449D01*
X007959Y005426D01*
X007887Y005399D01*
X007816Y005368D01*
X007747Y005334D01*
X007680Y005296D01*
X007614Y005255D01*
X007551Y005211D01*
X007490Y005163D01*
X007431Y005113D01*
X007375Y005059D01*
X007322Y005003D01*
X007272Y004944D01*
X007225Y004883D01*
X007181Y004820D01*
X007140Y004754D01*
X007103Y004686D01*
X007069Y004617D01*
X007038Y004546D01*
X007012Y004473D01*
X006989Y004400D01*
X006969Y004325D01*
X006954Y004249D01*
X006942Y004173D01*
X006934Y004096D01*
X006930Y004019D01*
X006930Y003941D01*
X006934Y003864D01*
X006942Y003787D01*
X006954Y003711D01*
X006969Y003635D01*
X006989Y003560D01*
X007012Y003487D01*
X007038Y003414D01*
X007069Y003343D01*
X007103Y003274D01*
X007140Y003206D01*
X007181Y003140D01*
X007225Y003077D01*
X007272Y003016D01*
X007322Y002957D01*
X007375Y002901D01*
X007431Y002847D01*
X007490Y002797D01*
X007551Y002749D01*
X007614Y002705D01*
X007680Y002664D01*
X007747Y002626D01*
X007816Y002592D01*
X007887Y002561D01*
X007959Y002534D01*
X008033Y002511D01*
X008108Y002491D01*
X008109Y002498D01*
X008035Y002517D01*
X007962Y002541D01*
X007890Y002568D01*
X007819Y002598D01*
X007750Y002633D01*
X007683Y002670D01*
X007618Y002711D01*
X007555Y002755D01*
X007494Y002802D01*
X007436Y002853D01*
X007380Y002906D01*
X007328Y002962D01*
X007278Y003020D01*
X007231Y003081D01*
X007187Y003144D01*
X007146Y003210D01*
X007109Y003277D01*
X007075Y003346D01*
X007045Y003417D01*
X007018Y003489D01*
X006995Y003562D01*
X006976Y003637D01*
X006961Y003712D01*
X006949Y003788D01*
X006941Y003865D01*
X006937Y003942D01*
X006937Y004018D01*
X006941Y004095D01*
X006949Y004172D01*
X006961Y004248D01*
X006976Y004323D01*
X006995Y004398D01*
X007018Y004471D01*
X007045Y004543D01*
X007075Y004614D01*
X007109Y004683D01*
X007146Y004750D01*
X007187Y004816D01*
X007231Y004879D01*
X007278Y004940D01*
X007328Y004998D01*
X007380Y005054D01*
X007436Y005107D01*
X007494Y005158D01*
X007555Y005205D01*
X007618Y005249D01*
X007683Y005290D01*
X007750Y005327D01*
X007819Y005362D01*
X007890Y005392D01*
X007962Y005419D01*
X008035Y005443D01*
X008109Y005462D01*
D23*
X005758Y006825D02*
X005758Y007132D01*
X005758Y006979D02*
X005298Y006979D01*
X005451Y006825D01*
X008410Y007490D02*
X008410Y009270D01*
X009910Y009270D02*
X009910Y007490D01*
X005058Y013425D02*
X005058Y013732D01*
X005058Y013579D02*
X004598Y013579D01*
X004751Y013425D01*
X004751Y018925D02*
X004598Y019079D01*
X005058Y019079D01*
X005058Y019232D02*
X005058Y018925D01*
X008705Y023481D02*
X009012Y023481D01*
X008858Y023481D02*
X008858Y023941D01*
X008705Y023788D01*
X013705Y023888D02*
X013858Y024041D01*
X013858Y023581D01*
X013705Y023581D02*
X014012Y023581D01*
X019205Y023581D02*
X019512Y023581D01*
X019358Y023581D02*
X019358Y024041D01*
X019205Y023888D01*
X024705Y023888D02*
X024858Y024041D01*
X024858Y023581D01*
X024705Y023581D02*
X025012Y023581D01*
M02*
