G75*
%MOIN*%
%OFA0B0*%
%FSLAX24Y24*%
%IPPOS*%
%LPD*%
%AMOC8*
5,1,8,0,0,1.08239X$1,22.5*
%
%ADD10R,0.0277X0.0671*%
%ADD11R,0.0671X0.0277*%
%ADD12C,0.0680*%
%ADD13R,0.0513X0.0631*%
%ADD14R,0.0552X0.0552*%
%ADD15R,0.0880X0.0340*%
%ADD16R,0.0820X0.0820*%
%ADD17C,0.0820*%
%ADD18R,0.0631X0.0513*%
%ADD19R,0.0710X0.0237*%
%ADD20R,0.0671X0.0592*%
%ADD21R,0.0761X0.1041*%
%ADD22R,0.1041X0.0761*%
%ADD23R,0.0631X0.1576*%
%ADD24R,0.1025X0.0671*%
%ADD25R,0.0710X0.0789*%
%ADD26R,0.0552X0.0395*%
%ADD27R,0.0395X0.0552*%
%ADD28R,0.0631X0.0474*%
%ADD29R,0.0297X0.0552*%
%ADD30R,0.0580X0.0330*%
%ADD31C,0.0907*%
%ADD32R,0.0474X0.0631*%
%ADD33R,0.0950X0.0320*%
%ADD34R,0.0198X0.0710*%
%ADD35R,0.0530X0.0245*%
%ADD36R,0.0330X0.0580*%
%ADD37C,0.1380*%
%ADD38C,0.0907*%
%ADD39R,0.1025X0.0946*%
%ADD40C,0.0476*%
%ADD41C,0.0437*%
D10*
X030805Y014497D03*
X031120Y014497D03*
X031435Y014497D03*
X031750Y014497D03*
X032065Y014497D03*
X032380Y014497D03*
X032694Y014497D03*
X033009Y014497D03*
X033324Y014497D03*
X033639Y014497D03*
X033954Y014497D03*
X033954Y019063D03*
X033639Y019063D03*
X033324Y019063D03*
X033009Y019063D03*
X032694Y019063D03*
X032380Y019063D03*
X032065Y019063D03*
X031750Y019063D03*
X031435Y019063D03*
X031120Y019063D03*
X030805Y019063D03*
D11*
X030096Y018355D03*
X030096Y018040D03*
X030096Y017725D03*
X030096Y017410D03*
X030096Y017095D03*
X030096Y016780D03*
X030096Y016465D03*
X030096Y016150D03*
X030096Y015835D03*
X030096Y015520D03*
X030096Y015205D03*
X034663Y015205D03*
X034663Y015520D03*
X034663Y015835D03*
X034663Y016150D03*
X034663Y016465D03*
X034663Y016780D03*
X034663Y017095D03*
X034663Y017410D03*
X034663Y017725D03*
X034663Y018040D03*
X034663Y018355D03*
D12*
X037660Y018600D02*
X038260Y018600D01*
X038160Y019600D02*
X037560Y019600D01*
X037660Y020600D02*
X038260Y020600D01*
X038160Y021600D02*
X037560Y021600D01*
X037660Y022600D02*
X038260Y022600D01*
D13*
X036513Y019560D03*
X035726Y019560D03*
X025053Y004860D03*
X024266Y004860D03*
X024266Y004000D03*
X025053Y004000D03*
D14*
X023593Y004000D03*
X022766Y004000D03*
X022746Y004860D03*
X023573Y004860D03*
X020560Y004873D03*
X020560Y004047D03*
X018573Y007180D03*
X017746Y007180D03*
X029500Y006933D03*
X029500Y006107D03*
X030400Y006107D03*
X030400Y006933D03*
X031226Y004300D03*
X031206Y003540D03*
X032033Y003540D03*
X032053Y004300D03*
X035106Y010460D03*
X035933Y010460D03*
X035673Y013620D03*
X034846Y013620D03*
X036420Y022207D03*
X036420Y023033D03*
D15*
X034390Y006430D03*
X034390Y005930D03*
X034390Y005430D03*
X034390Y004930D03*
X031970Y004930D03*
X031970Y005430D03*
X031970Y005930D03*
X031970Y006430D03*
D16*
X038430Y007680D03*
X038250Y012480D03*
X037850Y015300D03*
X035590Y025320D03*
X033080Y025290D03*
X019650Y008620D03*
X025400Y001830D03*
X027520Y001730D03*
D17*
X028520Y001630D03*
X029520Y001730D03*
X030520Y001630D03*
X024400Y001930D03*
X023400Y001830D03*
X022400Y001930D03*
X020750Y008620D03*
X037850Y017300D03*
X037950Y016300D03*
X038150Y011480D03*
X038250Y010480D03*
X038330Y006680D03*
X038430Y005680D03*
X038330Y004680D03*
X034490Y025320D03*
X032080Y025390D03*
X031080Y025290D03*
X030080Y025390D03*
D18*
X030400Y008514D03*
X030400Y007726D03*
X029500Y007726D03*
X029500Y008514D03*
X025860Y004654D03*
X025860Y003866D03*
X020580Y003294D03*
X020580Y002506D03*
X032960Y002794D03*
X033840Y002774D03*
X033840Y001986D03*
X032960Y002006D03*
D19*
X024802Y006544D03*
X024802Y006800D03*
X024802Y007056D03*
X024802Y007312D03*
X024802Y007568D03*
X024802Y007824D03*
X024802Y008079D03*
X024802Y008335D03*
X022479Y008335D03*
X022479Y008079D03*
X022479Y007824D03*
X022479Y007568D03*
X022479Y007312D03*
X022479Y007056D03*
X022479Y006800D03*
X022479Y006544D03*
D20*
X031960Y007265D03*
X031960Y007935D03*
D21*
X017956Y005882D03*
D22*
X017840Y002480D03*
X016160Y002480D03*
X014560Y002480D03*
X012979Y002480D03*
X011060Y005980D03*
D23*
X008460Y005161D03*
X008460Y002799D03*
D24*
X019400Y002474D03*
X019400Y004286D03*
D25*
X013111Y007480D03*
X012008Y007480D03*
D26*
X014360Y009926D03*
X014360Y010634D03*
X013660Y010626D03*
X013660Y011334D03*
X018760Y011634D03*
X018760Y010926D03*
X023860Y011026D03*
X023860Y011734D03*
X029660Y011734D03*
X029660Y011026D03*
X029360Y020486D03*
X029360Y021194D03*
X031140Y021194D03*
X031140Y020486D03*
X032800Y020386D03*
X032800Y021094D03*
X034620Y021194D03*
X034620Y020486D03*
D27*
X034505Y021820D03*
X035214Y021820D03*
X033634Y021840D03*
X032925Y021840D03*
X032134Y021840D03*
X031425Y021840D03*
X030534Y021840D03*
X029825Y021840D03*
X036605Y013520D03*
X037314Y013520D03*
X030314Y010380D03*
X029605Y010380D03*
X024614Y010280D03*
X023905Y010280D03*
X019514Y010280D03*
X018805Y010280D03*
X018614Y008580D03*
X018614Y007880D03*
X017905Y007880D03*
X017905Y008580D03*
X015314Y007180D03*
X014605Y007180D03*
D28*
X012893Y010606D03*
X012026Y010980D03*
X012893Y011354D03*
X017126Y011280D03*
X017993Y010906D03*
X017993Y011654D03*
X022226Y011380D03*
X023093Y011006D03*
X023093Y011754D03*
X028026Y011380D03*
X028893Y011006D03*
X028893Y011754D03*
D29*
X017134Y008992D03*
X016760Y008992D03*
X016385Y008992D03*
X016385Y007968D03*
X017134Y007968D03*
D30*
X015360Y008003D03*
X015360Y008357D03*
D31*
X014160Y012780D03*
X011960Y012780D03*
X008960Y012780D03*
X008960Y016780D03*
X008960Y019780D03*
X014160Y019780D03*
X014160Y016780D03*
X017160Y012780D03*
X019260Y012780D03*
X022260Y012780D03*
X025060Y012880D03*
X028060Y012880D03*
X025060Y016880D03*
X025060Y019880D03*
X019260Y019780D03*
X019260Y016780D03*
D32*
X029805Y022607D03*
X030554Y022607D03*
X031405Y022607D03*
X032154Y022607D03*
X032905Y022607D03*
X033654Y022607D03*
X034485Y022587D03*
X035234Y022587D03*
X034860Y023453D03*
X033280Y023473D03*
X031780Y023473D03*
X030180Y023473D03*
D33*
X034330Y012810D03*
X034330Y012310D03*
X034330Y011810D03*
X034330Y011310D03*
X036390Y011310D03*
X036390Y011810D03*
X036390Y012310D03*
X036390Y012810D03*
D34*
X027221Y004805D03*
X026967Y004809D03*
X026710Y004809D03*
X026454Y004813D03*
X026454Y003471D03*
X026710Y003471D03*
X026969Y003471D03*
X027225Y003471D03*
D35*
X028180Y003475D03*
X028180Y003225D03*
X028180Y003725D03*
X028180Y003975D03*
X028180Y004225D03*
X028180Y004475D03*
X028180Y004725D03*
X028180Y004975D03*
X030260Y004975D03*
X030260Y004725D03*
X030260Y004475D03*
X030260Y004225D03*
X030260Y003975D03*
X030260Y003725D03*
X030260Y003475D03*
X030260Y003225D03*
D36*
X028757Y005600D03*
X028402Y005600D03*
D37*
X004760Y002680D03*
X004660Y024680D03*
X037380Y002680D03*
X037700Y024800D03*
D38*
X027260Y022793D02*
X027260Y021967D01*
X025260Y021967D02*
X025260Y022793D01*
X021760Y022793D02*
X021760Y021967D01*
X019760Y021967D02*
X019760Y022793D01*
X016260Y022793D02*
X016260Y021967D01*
X014260Y021967D02*
X014260Y022793D01*
X011260Y022693D02*
X011260Y021867D01*
X009260Y021867D02*
X009260Y022693D01*
X006673Y021480D02*
X005846Y021480D01*
X005846Y019480D02*
X006673Y019480D01*
X006673Y015980D02*
X005846Y015980D01*
X005846Y013980D02*
X006673Y013980D01*
X006546Y009380D02*
X007373Y009380D01*
X007373Y007380D02*
X006546Y007380D01*
D39*
X009160Y007414D03*
X009160Y009346D03*
D40*
X011880Y009100D03*
X007420Y011800D03*
X008840Y015480D03*
X015700Y017120D03*
X018180Y015140D03*
X022140Y016380D03*
X027680Y017960D03*
X028360Y016700D03*
X028960Y016200D03*
X029380Y015600D03*
X029320Y014480D03*
X028800Y013600D03*
X030480Y012780D03*
X032540Y013320D03*
X035240Y013060D03*
X035640Y014200D03*
X036200Y016140D03*
X033040Y015500D03*
X032400Y015500D03*
X031360Y017040D03*
X031400Y017860D03*
X032440Y018220D03*
X034720Y019160D03*
X034580Y019680D03*
X029960Y019240D03*
X035780Y023080D03*
X028760Y025320D03*
X036600Y010480D03*
X027180Y007140D03*
X026640Y008200D03*
X025640Y007900D03*
X025540Y008480D03*
X023860Y009480D03*
X023220Y008980D03*
X022460Y009300D03*
X021740Y007580D03*
X022380Y006120D03*
X022140Y004800D03*
X019820Y005260D03*
X018980Y006460D03*
X016960Y006800D03*
X017920Y009360D03*
X023720Y007560D03*
X025640Y009980D03*
X026920Y002760D03*
X028130Y002530D03*
X029020Y002300D03*
X029990Y002350D03*
X018940Y001780D03*
X014560Y003380D03*
X009220Y001740D03*
X007620Y001740D03*
D41*
X020900Y001660D03*
X021480Y001320D03*
X021590Y003730D03*
X025540Y005260D03*
X026120Y005380D03*
X027740Y005280D03*
X027960Y005740D03*
X028720Y004750D03*
X029310Y005020D03*
X031120Y004980D03*
X028840Y003520D03*
X027640Y003740D03*
X026120Y007120D03*
X032510Y001300D03*
X034040Y017100D03*
X033900Y020020D03*
M02*
