%
M48
M72
T01C0.0197
T02C0.0236
T03C0.0400
T04C0.0551
T05C0.1300
%
T01
X20900Y1660
X21480Y1320
X21590Y3730
X25540Y5260
X26120Y5380
X27740Y5280
X27960Y5740
X28720Y4750
X29310Y5020
X31120Y4980
X28840Y3520
X27640Y3740
X26120Y7120
X32510Y1300
X34040Y17100
X33900Y20020
T02
X34580Y19680
X34720Y19160
X32440Y18220
X31400Y17860
X31360Y17040
X32400Y15500
X33040Y15500
X35640Y14200
X35240Y13060
X32540Y13320
X30480Y12780
X28800Y13600
X29320Y14480
X29380Y15600
X28960Y16200
X28360Y16700
X27680Y17960
X29960Y19240
X35780Y23080
X28760Y25320
X22140Y16380
X18180Y15140
X15700Y17120
X8840Y15480
X7420Y11800
X11880Y9100
X16960Y6800
X18980Y6460
X19820Y5260
X22140Y4800
X22380Y6120
X21740Y7580
X23220Y8980
X23860Y9480
X22460Y9300
X23720Y7560
X25540Y8480
X25640Y7900
X26640Y8200
X27180Y7140
X25640Y9980
X17920Y9360
X14560Y3380
X18940Y1780
X26920Y2760
X28130Y2530
X29020Y2300
X29990Y2350
X36600Y10480
X36200Y16140
X9220Y1740
X7620Y1740
T03
X19650Y8620
X20750Y8620
X22400Y1930
X23400Y1830
X24400Y1930
X25400Y1830
X27520Y1730
X28520Y1630
X29520Y1730
X30520Y1630
X38330Y4680
X38430Y5680
X38330Y6680
X38430Y7680
X38250Y10480
X38150Y11480
X38250Y12480
X37850Y15300
X37950Y16300
X37850Y17300
X37960Y18600
X37860Y19600
X37960Y20600
X37860Y21600
X37960Y22600
X35590Y25320
X34490Y25320
X33080Y25290
X32080Y25390
X31080Y25290
X30080Y25390
T04
X27260Y22380
X25260Y22380
X25060Y19880
X21760Y22380
X19760Y22380
X19260Y19780
X16260Y22380
X14260Y22380
X11260Y22280
X9260Y22280
X8960Y19780
X6260Y19480
X6260Y21480
X8960Y16780
X6260Y15980
X6260Y13980
X8960Y12780
X11960Y12780
X14160Y12780
X17160Y12780
X19260Y12780
X22260Y12780
X25060Y12880
X28060Y12880
X25060Y16880
X19260Y16780
X14160Y16780
X14160Y19780
X6960Y9380
X6960Y7380
T05
X4760Y2680
X4660Y24680
X37380Y2680
X37700Y24800
M30
