G75*
%MOIN*%
%OFA0B0*%
%FSLAX24Y24*%
%IPPOS*%
%LPD*%
%AMOC8*
5,1,8,0,0,1.08239X$1,22.5*
%
%ADD10R,0.0197X0.0591*%
%ADD11R,0.0591X0.0197*%
%ADD12C,0.0600*%
%ADD13R,0.0433X0.0551*%
%ADD14R,0.0472X0.0472*%
%ADD15R,0.0800X0.0260*%
%ADD16R,0.0740X0.0740*%
%ADD17C,0.0740*%
%ADD18R,0.0551X0.0433*%
%ADD19R,0.0630X0.0157*%
%ADD20R,0.0591X0.0512*%
%ADD21R,0.0681X0.0961*%
%ADD22R,0.0961X0.0681*%
%ADD23R,0.0551X0.1496*%
%ADD24R,0.0945X0.0591*%
%ADD25R,0.0630X0.0709*%
%ADD26R,0.0472X0.0315*%
%ADD27R,0.0315X0.0472*%
%ADD28R,0.0551X0.0394*%
%ADD29R,0.0217X0.0472*%
%ADD30R,0.0500X0.0250*%
%ADD31C,0.0827*%
%ADD32R,0.0394X0.0551*%
%ADD33R,0.0870X0.0240*%
%ADD34R,0.0118X0.0630*%
%ADD35R,0.0450X0.0165*%
%ADD36R,0.0250X0.0500*%
%ADD37C,0.0827*%
%ADD38R,0.0945X0.0866*%
%ADD39C,0.0160*%
%ADD40C,0.0396*%
%ADD41C,0.0357*%
%ADD42C,0.0100*%
%ADD43C,0.0120*%
%ADD44C,0.0240*%
%ADD45C,0.0080*%
%ADD46C,0.0860*%
%ADD47C,0.0760*%
%ADD48C,0.0560*%
%ADD49C,0.0320*%
%ADD50C,0.1500*%
D10*
X030805Y014497D03*
X031120Y014497D03*
X031435Y014497D03*
X031750Y014497D03*
X032065Y014497D03*
X032380Y014497D03*
X032694Y014497D03*
X033009Y014497D03*
X033324Y014497D03*
X033639Y014497D03*
X033954Y014497D03*
X033954Y019063D03*
X033639Y019063D03*
X033324Y019063D03*
X033009Y019063D03*
X032694Y019063D03*
X032380Y019063D03*
X032065Y019063D03*
X031750Y019063D03*
X031435Y019063D03*
X031120Y019063D03*
X030805Y019063D03*
D11*
X030096Y018355D03*
X030096Y018040D03*
X030096Y017725D03*
X030096Y017410D03*
X030096Y017095D03*
X030096Y016780D03*
X030096Y016465D03*
X030096Y016150D03*
X030096Y015835D03*
X030096Y015520D03*
X030096Y015205D03*
X034663Y015205D03*
X034663Y015520D03*
X034663Y015835D03*
X034663Y016150D03*
X034663Y016465D03*
X034663Y016780D03*
X034663Y017095D03*
X034663Y017410D03*
X034663Y017725D03*
X034663Y018040D03*
X034663Y018355D03*
D12*
X037660Y018600D02*
X038260Y018600D01*
X038160Y019600D02*
X037560Y019600D01*
X037660Y020600D02*
X038260Y020600D01*
X038160Y021600D02*
X037560Y021600D01*
X037660Y022600D02*
X038260Y022600D01*
D13*
X036513Y019560D03*
X035726Y019560D03*
X025053Y004860D03*
X024266Y004860D03*
X024266Y004000D03*
X025053Y004000D03*
D14*
X023593Y004000D03*
X022766Y004000D03*
X022746Y004860D03*
X023573Y004860D03*
X020560Y004873D03*
X020560Y004047D03*
X018573Y007180D03*
X017746Y007180D03*
X029500Y006933D03*
X029500Y006107D03*
X030400Y006107D03*
X030400Y006933D03*
X031226Y004300D03*
X031206Y003540D03*
X032033Y003540D03*
X032053Y004300D03*
X035106Y010460D03*
X035933Y010460D03*
X035673Y013620D03*
X034846Y013620D03*
X036420Y022207D03*
X036420Y023033D03*
D15*
X034390Y006430D03*
X034390Y005930D03*
X034390Y005430D03*
X034390Y004930D03*
X031970Y004930D03*
X031970Y005430D03*
X031970Y005930D03*
X031970Y006430D03*
D16*
X038430Y007680D03*
X038250Y012480D03*
X037850Y015300D03*
X035590Y025320D03*
X033080Y025290D03*
X019650Y008620D03*
X025400Y001830D03*
X027520Y001730D03*
D17*
X028520Y001630D03*
X029520Y001730D03*
X030520Y001630D03*
X024400Y001930D03*
X023400Y001830D03*
X022400Y001930D03*
X020750Y008620D03*
X037850Y017300D03*
X037950Y016300D03*
X038150Y011480D03*
X038250Y010480D03*
X038330Y006680D03*
X038430Y005680D03*
X038330Y004680D03*
X034490Y025320D03*
X032080Y025390D03*
X031080Y025290D03*
X030080Y025390D03*
D18*
X030400Y008514D03*
X030400Y007726D03*
X029500Y007726D03*
X029500Y008514D03*
X025860Y004654D03*
X025860Y003866D03*
X020580Y003294D03*
X020580Y002506D03*
X032960Y002794D03*
X033840Y002774D03*
X033840Y001986D03*
X032960Y002006D03*
D19*
X024802Y006544D03*
X024802Y006800D03*
X024802Y007056D03*
X024802Y007312D03*
X024802Y007568D03*
X024802Y007824D03*
X024802Y008079D03*
X024802Y008335D03*
X022479Y008335D03*
X022479Y008079D03*
X022479Y007824D03*
X022479Y007568D03*
X022479Y007312D03*
X022479Y007056D03*
X022479Y006800D03*
X022479Y006544D03*
D20*
X031960Y007265D03*
X031960Y007935D03*
D21*
X017956Y005882D03*
D22*
X017840Y002480D03*
X016160Y002480D03*
X014560Y002480D03*
X012979Y002480D03*
X011060Y005980D03*
D23*
X008460Y005161D03*
X008460Y002799D03*
D24*
X019400Y002474D03*
X019400Y004286D03*
D25*
X013111Y007480D03*
X012008Y007480D03*
D26*
X014360Y009926D03*
X014360Y010634D03*
X013660Y010626D03*
X013660Y011334D03*
X018760Y011634D03*
X018760Y010926D03*
X023860Y011026D03*
X023860Y011734D03*
X029660Y011734D03*
X029660Y011026D03*
X029360Y020486D03*
X029360Y021194D03*
X031140Y021194D03*
X031140Y020486D03*
X032800Y020386D03*
X032800Y021094D03*
X034620Y021194D03*
X034620Y020486D03*
D27*
X034505Y021820D03*
X035214Y021820D03*
X033634Y021840D03*
X032925Y021840D03*
X032134Y021840D03*
X031425Y021840D03*
X030534Y021840D03*
X029825Y021840D03*
X036605Y013520D03*
X037314Y013520D03*
X030314Y010380D03*
X029605Y010380D03*
X024614Y010280D03*
X023905Y010280D03*
X019514Y010280D03*
X018805Y010280D03*
X018614Y008580D03*
X018614Y007880D03*
X017905Y007880D03*
X017905Y008580D03*
X015314Y007180D03*
X014605Y007180D03*
D28*
X012893Y010606D03*
X012026Y010980D03*
X012893Y011354D03*
X017126Y011280D03*
X017993Y010906D03*
X017993Y011654D03*
X022226Y011380D03*
X023093Y011006D03*
X023093Y011754D03*
X028026Y011380D03*
X028893Y011006D03*
X028893Y011754D03*
D29*
X017134Y008992D03*
X016760Y008992D03*
X016385Y008992D03*
X016385Y007968D03*
X017134Y007968D03*
D30*
X015360Y008003D03*
X015360Y008357D03*
D31*
X014160Y012780D03*
X011960Y012780D03*
X008960Y012780D03*
X008960Y016780D03*
X008960Y019780D03*
X014160Y019780D03*
X014160Y016780D03*
X017160Y012780D03*
X019260Y012780D03*
X022260Y012780D03*
X025060Y012880D03*
X028060Y012880D03*
X025060Y016880D03*
X025060Y019880D03*
X019260Y019780D03*
X019260Y016780D03*
D32*
X029805Y022607D03*
X030554Y022607D03*
X031405Y022607D03*
X032154Y022607D03*
X032905Y022607D03*
X033654Y022607D03*
X034485Y022587D03*
X035234Y022587D03*
X034860Y023453D03*
X033280Y023473D03*
X031780Y023473D03*
X030180Y023473D03*
D33*
X034330Y012810D03*
X034330Y012310D03*
X034330Y011810D03*
X034330Y011310D03*
X036390Y011310D03*
X036390Y011810D03*
X036390Y012310D03*
X036390Y012810D03*
D34*
X027221Y004805D03*
X026967Y004809D03*
X026710Y004809D03*
X026454Y004813D03*
X026454Y003471D03*
X026710Y003471D03*
X026969Y003471D03*
X027225Y003471D03*
D35*
X028180Y003475D03*
X028180Y003225D03*
X028180Y003725D03*
X028180Y003975D03*
X028180Y004225D03*
X028180Y004475D03*
X028180Y004725D03*
X028180Y004975D03*
X030260Y004975D03*
X030260Y004725D03*
X030260Y004475D03*
X030260Y004225D03*
X030260Y003975D03*
X030260Y003725D03*
X030260Y003475D03*
X030260Y003225D03*
D36*
X028757Y005600D03*
X028402Y005600D03*
D37*
X007373Y007380D02*
X006546Y007380D01*
X006546Y009380D02*
X007373Y009380D01*
X006673Y013980D02*
X005846Y013980D01*
X005846Y015980D02*
X006673Y015980D01*
X006673Y019480D02*
X005846Y019480D01*
X005846Y021480D02*
X006673Y021480D01*
X009260Y021867D02*
X009260Y022693D01*
X011260Y022693D02*
X011260Y021867D01*
X014260Y021967D02*
X014260Y022793D01*
X016260Y022793D02*
X016260Y021967D01*
X019760Y021967D02*
X019760Y022793D01*
X021760Y022793D02*
X021760Y021967D01*
X025260Y021967D02*
X025260Y022793D01*
X027260Y022793D02*
X027260Y021967D01*
D38*
X009160Y009346D03*
X009160Y007414D03*
D39*
X003240Y000660D02*
X003240Y026200D01*
X039280Y026200D01*
X039280Y009780D01*
X035526Y009769D01*
X035626Y009870D01*
X035750Y009993D01*
X035750Y010064D01*
X036235Y010064D01*
X036329Y010158D01*
X036329Y010244D01*
X036397Y010176D01*
X036528Y010122D01*
X036671Y010122D01*
X036802Y010176D01*
X036903Y010277D01*
X036958Y010409D01*
X036958Y010551D01*
X036903Y010683D01*
X036802Y010784D01*
X036671Y010838D01*
X036528Y010838D01*
X036397Y010784D01*
X036329Y010716D01*
X036329Y010762D01*
X036235Y010856D01*
X035750Y010856D01*
X035750Y011767D01*
X035610Y011907D01*
X035486Y012030D01*
X034891Y012030D01*
X034861Y012060D01*
X034925Y012124D01*
X034925Y012496D01*
X034861Y012560D01*
X034925Y012624D01*
X034925Y012885D01*
X034936Y012857D01*
X035037Y012756D01*
X035168Y012702D01*
X035258Y012702D01*
X035354Y012607D01*
X035442Y012570D01*
X035848Y012570D01*
X035858Y012560D01*
X035795Y012496D01*
X035795Y012124D01*
X035858Y012060D01*
X035795Y011996D01*
X035795Y011624D01*
X035844Y011574D01*
X035810Y011541D01*
X035787Y011499D01*
X035775Y011454D01*
X035775Y011310D01*
X035775Y011166D01*
X035787Y011121D01*
X035810Y011079D01*
X035844Y011046D01*
X035885Y011022D01*
X035931Y011010D01*
X036390Y011010D01*
X036848Y011010D01*
X036894Y011022D01*
X036935Y011046D01*
X036969Y011079D01*
X036992Y011121D01*
X037005Y011166D01*
X037005Y011310D01*
X037005Y011454D01*
X036992Y011499D01*
X036969Y011541D01*
X036935Y011574D01*
X036935Y011574D01*
X036961Y011600D01*
X037626Y011600D01*
X037620Y011585D01*
X037620Y011375D01*
X037700Y011180D01*
X037849Y011031D01*
X037998Y010969D01*
X037961Y010950D01*
X037891Y010900D01*
X037830Y010838D01*
X037779Y010768D01*
X037740Y010691D01*
X037713Y010609D01*
X037700Y010523D01*
X037700Y010500D01*
X038230Y010500D01*
X038230Y010460D01*
X038270Y010460D01*
X038270Y010500D01*
X038800Y010500D01*
X038800Y010523D01*
X038786Y010609D01*
X038759Y010691D01*
X038720Y010768D01*
X038669Y010838D01*
X038608Y010900D01*
X038538Y010950D01*
X038461Y010990D01*
X038399Y011010D01*
X038450Y011031D01*
X038599Y011180D01*
X038680Y011375D01*
X038680Y011585D01*
X038599Y011780D01*
X038450Y011929D01*
X038400Y011950D01*
X038686Y011950D01*
X038780Y012044D01*
X038780Y012916D01*
X038686Y013010D01*
X037813Y013010D01*
X037720Y012916D01*
X037720Y012520D01*
X036961Y012520D01*
X036921Y012560D01*
X036985Y012624D01*
X036985Y012996D01*
X036891Y013090D01*
X036845Y013090D01*
X036845Y013140D01*
X036923Y013218D01*
X036923Y013822D01*
X036829Y013916D01*
X036381Y013916D01*
X036288Y013822D01*
X036288Y013218D01*
X036365Y013140D01*
X036365Y013125D01*
X036330Y013090D01*
X035888Y013090D01*
X035848Y013050D01*
X035598Y013050D01*
X035598Y013131D01*
X035559Y013224D01*
X035975Y013224D01*
X036069Y013318D01*
X036069Y013922D01*
X035975Y014016D01*
X035951Y014016D01*
X035998Y014129D01*
X035998Y014271D01*
X035943Y014403D01*
X035866Y014480D01*
X037662Y014480D01*
X037698Y014463D01*
X037746Y014480D01*
X037796Y014480D01*
X037825Y014508D01*
X037862Y014521D01*
X037884Y014567D01*
X037920Y014603D01*
X037920Y014643D01*
X037974Y014757D01*
X037986Y014770D01*
X038286Y014770D01*
X038380Y014864D01*
X038380Y015736D01*
X038286Y015830D01*
X038200Y015830D01*
X038250Y015851D01*
X038399Y016000D01*
X038480Y016195D01*
X038480Y016405D01*
X038399Y016600D01*
X038250Y016749D01*
X038101Y016811D01*
X038138Y016830D01*
X038208Y016880D01*
X038269Y016942D01*
X038320Y017012D01*
X038359Y017089D01*
X038386Y017171D01*
X038400Y017257D01*
X038400Y017280D01*
X037870Y017280D01*
X037870Y017320D01*
X038400Y017320D01*
X038400Y017343D01*
X038386Y017429D01*
X038359Y017511D01*
X038320Y017588D01*
X038269Y017658D01*
X038208Y017720D01*
X038138Y017770D01*
X038061Y017810D01*
X037978Y017836D01*
X037893Y017850D01*
X037870Y017850D01*
X037870Y017320D01*
X037830Y017320D01*
X037830Y017850D01*
X037806Y017850D01*
X037721Y017836D01*
X037638Y017810D01*
X037561Y017770D01*
X037491Y017720D01*
X037430Y017658D01*
X037379Y017588D01*
X037340Y017511D01*
X037313Y017429D01*
X037300Y017343D01*
X037300Y017320D01*
X037830Y017320D01*
X037830Y017280D01*
X037300Y017280D01*
X037300Y017257D01*
X037313Y017171D01*
X037340Y017089D01*
X037379Y017012D01*
X037430Y016942D01*
X037491Y016880D01*
X037561Y016830D01*
X037638Y016790D01*
X037700Y016770D01*
X037649Y016749D01*
X037500Y016600D01*
X037463Y016510D01*
X037153Y016510D01*
X037030Y016387D01*
X036770Y016127D01*
X036770Y015130D01*
X035118Y015130D01*
X035118Y016255D01*
X035372Y016255D01*
X036006Y016890D01*
X036130Y017013D01*
X036130Y018313D01*
X036206Y018390D01*
X037249Y018390D01*
X037270Y018339D01*
X037399Y018210D01*
X037568Y018140D01*
X038351Y018140D01*
X038520Y018210D01*
X038649Y018339D01*
X038720Y018508D01*
X038720Y018691D01*
X038649Y018861D01*
X038520Y018990D01*
X038351Y019060D01*
X037616Y019060D01*
X037696Y019140D01*
X038251Y019140D01*
X038420Y019210D01*
X038549Y019339D01*
X038620Y019508D01*
X038620Y019691D01*
X038549Y019861D01*
X038420Y019990D01*
X038251Y020060D01*
X037468Y020060D01*
X037299Y019990D01*
X037170Y019861D01*
X037100Y019691D01*
X037100Y019508D01*
X037170Y019339D01*
X037236Y019273D01*
X037153Y019190D01*
X036862Y019190D01*
X036890Y019218D01*
X036890Y019902D01*
X036796Y019996D01*
X036733Y019996D01*
X036733Y021822D01*
X036816Y021904D01*
X036816Y022509D01*
X036722Y022603D01*
X036117Y022603D01*
X036023Y022509D01*
X036023Y021904D01*
X036117Y021810D01*
X036293Y021810D01*
X036293Y019996D01*
X036230Y019996D01*
X036137Y019902D01*
X036137Y019218D01*
X036165Y019190D01*
X036074Y019190D01*
X036102Y019218D01*
X036102Y019902D01*
X036009Y019996D01*
X035443Y019996D01*
X035349Y019902D01*
X035349Y019770D01*
X035293Y019770D01*
X035170Y019647D01*
X035050Y019527D01*
X035050Y019299D01*
X035023Y019363D01*
X034922Y019464D01*
X034884Y019479D01*
X034938Y019609D01*
X034938Y019751D01*
X034883Y019883D01*
X034782Y019984D01*
X034651Y020038D01*
X034508Y020038D01*
X034377Y019984D01*
X034276Y019883D01*
X034254Y019830D01*
X033673Y019830D01*
X033550Y019707D01*
X033429Y019587D01*
X033429Y019519D01*
X032246Y019519D01*
X032232Y019526D01*
X032187Y019539D01*
X032065Y019539D01*
X032065Y019063D01*
X032065Y018588D01*
X032140Y018588D01*
X032140Y018426D01*
X032136Y018423D01*
X032081Y018291D01*
X032081Y018149D01*
X032136Y018017D01*
X032237Y017916D01*
X032368Y017862D01*
X032511Y017862D01*
X032642Y017916D01*
X032743Y018017D01*
X032798Y018149D01*
X032798Y018291D01*
X032743Y018423D01*
X032642Y018524D01*
X032620Y018533D01*
X032620Y018608D01*
X034119Y018608D01*
X034213Y018702D01*
X034213Y018853D01*
X034524Y018853D01*
X034648Y018802D01*
X034791Y018802D01*
X034922Y018856D01*
X035023Y018957D01*
X035050Y019021D01*
X035050Y018588D01*
X035025Y018613D01*
X034301Y018613D01*
X034208Y018520D01*
X034208Y017397D01*
X034107Y017438D01*
X033972Y017438D01*
X033848Y017387D01*
X033753Y017292D01*
X033701Y017167D01*
X033701Y017033D01*
X033753Y016908D01*
X033848Y016813D01*
X033972Y016762D01*
X034107Y016762D01*
X034208Y016803D01*
X034208Y016389D01*
X034010Y016587D01*
X033886Y016710D01*
X031570Y016710D01*
X031570Y016744D01*
X031663Y016837D01*
X031718Y016969D01*
X031718Y017111D01*
X031663Y017243D01*
X031562Y017344D01*
X031431Y017398D01*
X031288Y017398D01*
X031157Y017344D01*
X031056Y017243D01*
X031010Y017131D01*
X031010Y017307D01*
X030886Y017430D01*
X030697Y017620D01*
X030551Y017620D01*
X030551Y018520D01*
X030458Y018613D01*
X029734Y018613D01*
X029641Y018520D01*
X029641Y018280D01*
X029591Y018280D01*
X029380Y018491D01*
X029380Y020168D01*
X029662Y020168D01*
X029756Y020262D01*
X029756Y020709D01*
X029662Y020803D01*
X029057Y020803D01*
X028963Y020709D01*
X028963Y020535D01*
X028940Y020511D01*
X028940Y018309D01*
X029280Y017969D01*
X029318Y017930D01*
X028313Y017930D01*
X025513Y015130D01*
X018538Y015130D01*
X018538Y015211D01*
X018483Y015343D01*
X018382Y015444D01*
X018251Y015498D01*
X018108Y015498D01*
X017977Y015444D01*
X017876Y015343D01*
X017821Y015211D01*
X017821Y015069D01*
X017876Y014937D01*
X017893Y014920D01*
X009486Y014920D01*
X009287Y014838D01*
X009136Y014686D01*
X008502Y014052D01*
X008420Y013854D01*
X008420Y012975D01*
X008386Y012894D01*
X008386Y012666D01*
X008420Y012585D01*
X008420Y011173D01*
X008502Y010974D01*
X008702Y010774D01*
X008854Y010622D01*
X009052Y010540D01*
X009836Y010540D01*
X010020Y010356D01*
X010020Y009682D01*
X009931Y009895D01*
X009675Y010151D01*
X009341Y010290D01*
X006779Y010290D01*
X006444Y010151D01*
X006188Y009895D01*
X006144Y009789D01*
X006060Y009705D01*
X005973Y009494D01*
X005973Y009266D01*
X006060Y009055D01*
X006144Y008971D01*
X006188Y008865D01*
X006444Y008609D01*
X006779Y008470D01*
X008897Y008470D01*
X008979Y008436D01*
X009341Y008436D01*
X009675Y008575D01*
X009931Y008831D01*
X010020Y009044D01*
X010020Y008020D01*
X008712Y008020D01*
X008680Y008007D01*
X008621Y008007D01*
X008527Y007913D01*
X008527Y007887D01*
X008124Y007483D01*
X008056Y007416D01*
X008020Y007328D01*
X008020Y006379D01*
X007724Y006083D01*
X007656Y006016D01*
X007620Y005928D01*
X007620Y004579D01*
X007556Y004516D01*
X007520Y004428D01*
X007520Y004332D01*
X007556Y004244D01*
X007624Y004177D01*
X007712Y004140D01*
X012307Y004140D01*
X012395Y004177D01*
X012463Y004244D01*
X012500Y004332D01*
X012500Y007828D01*
X012483Y007867D01*
X012483Y007901D01*
X012390Y007994D01*
X012369Y007994D01*
X012307Y008020D01*
X011100Y008020D01*
X011100Y010687D01*
X011017Y010886D01*
X010865Y011038D01*
X010365Y011538D01*
X010167Y011620D01*
X009500Y011620D01*
X009500Y012585D01*
X009533Y012666D01*
X009533Y012894D01*
X009500Y012975D01*
X009500Y013522D01*
X009817Y013840D01*
X013620Y013840D01*
X013620Y012975D01*
X013586Y012894D01*
X013586Y012666D01*
X013673Y012455D01*
X013835Y012294D01*
X014045Y012207D01*
X014274Y012207D01*
X014484Y012294D01*
X014646Y012455D01*
X014733Y012666D01*
X014733Y012894D01*
X014700Y012975D01*
X014700Y013840D01*
X018720Y013840D01*
X018720Y012975D01*
X018686Y012894D01*
X018686Y012666D01*
X018773Y012455D01*
X018935Y012294D01*
X019145Y012207D01*
X019374Y012207D01*
X019584Y012294D01*
X019746Y012455D01*
X019833Y012666D01*
X019833Y012894D01*
X019800Y012975D01*
X019800Y013840D01*
X021103Y013840D01*
X020633Y013370D01*
X020510Y013247D01*
X020510Y010707D01*
X020233Y010430D01*
X019831Y010430D01*
X019831Y010582D01*
X019738Y010676D01*
X019290Y010676D01*
X019196Y010582D01*
X019196Y009978D01*
X019290Y009884D01*
X019738Y009884D01*
X019831Y009978D01*
X019831Y010010D01*
X020406Y010010D01*
X020530Y010133D01*
X020930Y010533D01*
X020930Y013073D01*
X021306Y013450D01*
X023073Y013450D01*
X023150Y013373D01*
X023150Y012293D01*
X023273Y012170D01*
X023312Y012131D01*
X023111Y012131D01*
X023111Y011772D01*
X023074Y011772D01*
X023074Y011736D01*
X022637Y011736D01*
X022637Y011668D01*
X022580Y011726D01*
X022580Y012292D01*
X022584Y012294D01*
X022746Y012455D01*
X022833Y012666D01*
X022833Y012894D01*
X022746Y013105D01*
X022584Y013266D01*
X022374Y013353D01*
X022145Y013353D01*
X021935Y013266D01*
X021773Y013105D01*
X021686Y012894D01*
X021686Y012666D01*
X021773Y012455D01*
X021935Y012294D01*
X021940Y012292D01*
X021940Y011737D01*
X021885Y011737D01*
X021791Y011643D01*
X021791Y011117D01*
X021885Y011023D01*
X022568Y011023D01*
X022657Y011112D01*
X022657Y010743D01*
X022751Y010649D01*
X023434Y010649D01*
X023525Y010740D01*
X023557Y010708D01*
X023620Y010708D01*
X023620Y010614D01*
X023588Y010582D01*
X023588Y009978D01*
X023681Y009884D01*
X024090Y009884D01*
X024090Y009756D01*
X024062Y009784D01*
X023931Y009838D01*
X023788Y009838D01*
X023657Y009784D01*
X023556Y009683D01*
X023501Y009551D01*
X023501Y009499D01*
X023470Y009467D01*
X023470Y009236D01*
X023422Y009284D01*
X023291Y009338D01*
X023148Y009338D01*
X023017Y009284D01*
X022916Y009183D01*
X022861Y009051D01*
X022861Y008909D01*
X022916Y008777D01*
X022930Y008764D01*
X022930Y008545D01*
X022889Y008545D01*
X022860Y008574D01*
X022097Y008574D01*
X022004Y008480D01*
X022004Y007822D01*
X021942Y007884D01*
X021811Y007938D01*
X021668Y007938D01*
X021537Y007884D01*
X021436Y007783D01*
X021381Y007651D01*
X021381Y007509D01*
X021436Y007377D01*
X021537Y007276D01*
X021668Y007222D01*
X021804Y007222D01*
X021754Y007171D01*
X021696Y007114D01*
X021696Y007114D01*
X021590Y007007D01*
X021590Y004068D01*
X021522Y004068D01*
X021398Y004017D01*
X021303Y003922D01*
X021251Y003797D01*
X021251Y003663D01*
X021260Y003642D01*
X021260Y001579D01*
X021193Y001512D01*
X021141Y001387D01*
X021141Y001253D01*
X021193Y001128D01*
X021288Y001033D01*
X021412Y000982D01*
X021547Y000982D01*
X021671Y001033D01*
X021766Y001128D01*
X021818Y001253D01*
X021818Y001387D01*
X021766Y001512D01*
X021700Y001579D01*
X021700Y003409D01*
X021781Y003443D01*
X021876Y003538D01*
X021928Y003663D01*
X021928Y003790D01*
X022370Y003790D01*
X022370Y003698D01*
X022464Y003604D01*
X022556Y003604D01*
X022556Y003026D01*
X023210Y002373D01*
X023210Y002325D01*
X023099Y002279D01*
X022950Y002130D01*
X022929Y002080D01*
X022909Y002141D01*
X022870Y002218D01*
X022819Y002288D01*
X022758Y002350D01*
X022688Y002400D01*
X022611Y002440D01*
X022528Y002466D01*
X022443Y002480D01*
X022420Y002480D01*
X022420Y001950D01*
X022380Y001950D01*
X022380Y002480D01*
X022356Y002480D01*
X022271Y002466D01*
X022188Y002440D01*
X022111Y002400D01*
X022041Y002350D01*
X021980Y002288D01*
X021929Y002218D01*
X021890Y002141D01*
X021863Y002059D01*
X021850Y001973D01*
X021850Y001950D01*
X022380Y001950D01*
X022380Y001910D01*
X022420Y001910D01*
X022420Y001380D01*
X022443Y001380D01*
X022528Y001394D01*
X022611Y001420D01*
X022688Y001460D01*
X022758Y001510D01*
X022819Y001572D01*
X022870Y001642D01*
X022889Y001678D01*
X022950Y001530D01*
X023099Y001381D01*
X023294Y001300D01*
X023505Y001300D01*
X023700Y001381D01*
X023849Y001530D01*
X023920Y001702D01*
X023950Y001630D01*
X024099Y001481D01*
X024294Y001400D01*
X024505Y001400D01*
X024700Y001481D01*
X024849Y001630D01*
X024870Y001680D01*
X024870Y001394D01*
X024963Y001300D01*
X025836Y001300D01*
X025930Y001394D01*
X025930Y002266D01*
X025836Y002360D01*
X025696Y002360D01*
X025699Y003092D01*
X025700Y003092D01*
X025700Y003139D01*
X025700Y003153D01*
X025702Y003191D01*
X025700Y003199D01*
X025700Y003208D01*
X025684Y003244D01*
X025672Y003282D01*
X025666Y003288D01*
X025663Y003296D01*
X025635Y003324D01*
X025384Y003612D01*
X025424Y003652D01*
X025424Y003583D01*
X025518Y003490D01*
X026201Y003490D01*
X026215Y003503D01*
X026215Y003471D01*
X026454Y003471D01*
X026454Y002976D01*
X026536Y002976D01*
X026582Y002988D01*
X026596Y002996D01*
X026835Y002996D01*
X026840Y003000D01*
X026844Y002996D01*
X027083Y002996D01*
X027097Y002988D01*
X027143Y002976D01*
X027225Y002976D01*
X027225Y003471D01*
X027225Y003471D01*
X027225Y002976D01*
X027308Y002976D01*
X027354Y002988D01*
X027395Y003012D01*
X027428Y003045D01*
X027452Y003086D01*
X027464Y003132D01*
X027464Y003446D01*
X027570Y003403D01*
X027570Y002627D01*
X027513Y002570D01*
X026893Y002570D01*
X026770Y002447D01*
X026673Y002350D01*
X026673Y002350D01*
X026550Y002227D01*
X026550Y001180D01*
X026535Y001158D01*
X026550Y001096D01*
X026550Y001033D01*
X026568Y001014D01*
X026574Y000988D01*
X026628Y000955D01*
X026673Y000910D01*
X026699Y000910D01*
X026788Y000855D01*
X026833Y000810D01*
X026859Y000810D01*
X026882Y000796D01*
X026943Y000810D01*
X031326Y000810D01*
X031506Y000990D01*
X031630Y001113D01*
X031630Y001259D01*
X031640Y001269D01*
X031640Y002701D01*
X031410Y002931D01*
X031410Y003144D01*
X031509Y003144D01*
X031602Y003238D01*
X031602Y003842D01*
X031535Y003910D01*
X031622Y003998D01*
X031622Y004602D01*
X031605Y004620D01*
X031674Y004620D01*
X031657Y004602D01*
X031657Y003998D01*
X031724Y003930D01*
X031637Y003842D01*
X031637Y003238D01*
X031730Y003144D01*
X032280Y003144D01*
X032280Y001549D01*
X032223Y001492D01*
X032171Y001367D01*
X032171Y001233D01*
X032223Y001108D01*
X032280Y001051D01*
X032280Y000660D01*
X003240Y000660D01*
X003240Y000680D02*
X032280Y000680D01*
X032280Y000839D02*
X031355Y000839D01*
X031513Y000997D02*
X032280Y000997D01*
X032203Y001156D02*
X031630Y001156D01*
X031640Y001314D02*
X032171Y001314D01*
X032215Y001473D02*
X031640Y001473D01*
X031640Y001631D02*
X032280Y001631D01*
X032280Y001790D02*
X031640Y001790D01*
X031640Y001948D02*
X032280Y001948D01*
X032280Y002107D02*
X031640Y002107D01*
X031640Y002265D02*
X032280Y002265D01*
X032280Y002424D02*
X031640Y002424D01*
X031640Y002582D02*
X032280Y002582D01*
X032280Y002741D02*
X031600Y002741D01*
X031442Y002899D02*
X032280Y002899D01*
X032280Y003058D02*
X031410Y003058D01*
X031581Y003216D02*
X031658Y003216D01*
X031637Y003375D02*
X031602Y003375D01*
X031602Y003533D02*
X031637Y003533D01*
X031637Y003692D02*
X031602Y003692D01*
X031595Y003850D02*
X031644Y003850D01*
X031657Y004009D02*
X031622Y004009D01*
X031622Y004167D02*
X031657Y004167D01*
X031657Y004326D02*
X031622Y004326D01*
X031622Y004484D02*
X031657Y004484D01*
X031422Y004696D02*
X030924Y004696D01*
X030872Y004645D01*
X030831Y004685D01*
X030645Y004685D01*
X030645Y005124D01*
X030551Y005217D01*
X030328Y005217D01*
X030326Y005220D01*
X029951Y005220D01*
X029951Y005220D01*
X031423Y005220D01*
X031449Y005194D01*
X031425Y005171D01*
X031402Y005129D01*
X031390Y005084D01*
X031390Y004930D01*
X031390Y004776D01*
X031402Y004731D01*
X031422Y004696D01*
X031390Y004801D02*
X030645Y004801D01*
X030645Y004960D02*
X031390Y004960D01*
X031390Y004930D02*
X031970Y004930D01*
X031390Y004930D01*
X031399Y005118D02*
X030645Y005118D01*
X029875Y004780D02*
X029875Y004390D01*
X029867Y004377D01*
X029855Y004331D01*
X029855Y004225D01*
X030260Y004225D01*
X030665Y004225D01*
X030665Y004258D01*
X030730Y004193D01*
X030830Y004093D01*
X030830Y004051D01*
X030801Y004080D01*
X030686Y004195D01*
X030665Y004195D01*
X030665Y004225D01*
X030260Y004225D01*
X030260Y004225D01*
X029855Y004225D01*
X029855Y004119D01*
X029867Y004073D01*
X029875Y004060D01*
X029875Y003945D01*
X029460Y003945D01*
X029460Y004431D01*
X029320Y004571D01*
X029191Y004700D01*
X029058Y004700D01*
X029058Y004817D01*
X029006Y004942D01*
X028911Y005037D01*
X028787Y005088D01*
X028652Y005088D01*
X028565Y005052D01*
X028565Y005124D01*
X028518Y005170D01*
X028551Y005170D01*
X028597Y005182D01*
X028610Y005190D01*
X028948Y005190D01*
X029042Y005284D01*
X029042Y005380D01*
X029168Y005380D01*
X029640Y004909D01*
X029768Y004780D01*
X029875Y004780D01*
X029747Y004801D02*
X029058Y004801D01*
X028989Y004960D02*
X029589Y004960D01*
X029430Y005118D02*
X028565Y005118D01*
X028155Y005217D02*
X028133Y005239D01*
X028110Y005281D01*
X028097Y005326D01*
X028097Y005600D01*
X028402Y005600D01*
X028402Y005600D01*
X028097Y005600D01*
X028097Y005874D01*
X028103Y005897D01*
X027300Y005897D01*
X027306Y005890D01*
X027430Y005767D01*
X027430Y005416D01*
X027453Y005472D01*
X027548Y005567D01*
X027672Y005618D01*
X027807Y005618D01*
X027931Y005567D01*
X028026Y005472D01*
X028078Y005347D01*
X028078Y005217D01*
X028155Y005217D01*
X028112Y005277D02*
X028078Y005277D01*
X028097Y005435D02*
X028042Y005435D01*
X028097Y005594D02*
X027867Y005594D01*
X027612Y005594D02*
X027430Y005594D01*
X027430Y005752D02*
X028097Y005752D01*
X027437Y005435D02*
X027430Y005435D01*
X029034Y005277D02*
X029272Y005277D01*
X029248Y004643D02*
X029875Y004643D01*
X029875Y004484D02*
X029407Y004484D01*
X029460Y004326D02*
X029855Y004326D01*
X029855Y004167D02*
X029460Y004167D01*
X029460Y004009D02*
X029875Y004009D01*
X030260Y004225D02*
X030260Y004225D01*
X030714Y004167D02*
X030756Y004167D01*
X029875Y003505D02*
X029875Y003410D01*
X029533Y003410D01*
X029410Y003287D01*
X029310Y003187D01*
X029310Y002217D01*
X029219Y002179D01*
X029070Y002030D01*
X028999Y001858D01*
X028969Y001930D01*
X028820Y002079D01*
X028730Y002117D01*
X028730Y002972D01*
X028565Y003137D01*
X028565Y003810D01*
X028572Y003823D01*
X028585Y003869D01*
X028585Y003975D01*
X028585Y004081D01*
X028572Y004127D01*
X028565Y004140D01*
X028565Y004260D01*
X029008Y004260D01*
X029020Y004249D01*
X029020Y003709D01*
X029148Y003580D01*
X029223Y003505D01*
X029875Y003505D01*
X029497Y003375D02*
X028565Y003375D01*
X028565Y003533D02*
X029195Y003533D01*
X029037Y003692D02*
X028565Y003692D01*
X028579Y003850D02*
X029020Y003850D01*
X029020Y004009D02*
X028585Y004009D01*
X028585Y003975D02*
X028180Y003975D01*
X028180Y003975D01*
X028585Y003975D01*
X028565Y004167D02*
X029020Y004167D01*
X029339Y003216D02*
X028565Y003216D01*
X028644Y003058D02*
X029310Y003058D01*
X029310Y002899D02*
X028730Y002899D01*
X028730Y002741D02*
X029310Y002741D01*
X029310Y002582D02*
X028730Y002582D01*
X028730Y002424D02*
X029310Y002424D01*
X029310Y002265D02*
X028730Y002265D01*
X028754Y002107D02*
X029146Y002107D01*
X029036Y001948D02*
X028951Y001948D01*
X028310Y002117D02*
X028219Y002079D01*
X028070Y001930D01*
X028070Y001929D01*
X028070Y002124D01*
X028057Y002169D01*
X028034Y002211D01*
X028000Y002244D01*
X027959Y002268D01*
X027913Y002280D01*
X027816Y002280D01*
X027990Y002453D01*
X027990Y002983D01*
X028125Y002983D01*
X028310Y002798D01*
X028310Y002117D01*
X028285Y002107D02*
X028070Y002107D01*
X028070Y001948D02*
X028088Y001948D01*
X027964Y002265D02*
X028310Y002265D01*
X028310Y002424D02*
X027960Y002424D01*
X027990Y002582D02*
X028310Y002582D01*
X028310Y002741D02*
X027990Y002741D01*
X027990Y002899D02*
X028209Y002899D01*
X027570Y002899D02*
X025698Y002899D01*
X025698Y002741D02*
X027570Y002741D01*
X027525Y002582D02*
X025697Y002582D01*
X025696Y002424D02*
X026746Y002424D01*
X026770Y002447D02*
X026770Y002447D01*
X026588Y002265D02*
X025930Y002265D01*
X025930Y002107D02*
X026550Y002107D01*
X026550Y001948D02*
X025930Y001948D01*
X025930Y001790D02*
X026550Y001790D01*
X026550Y001631D02*
X025930Y001631D01*
X025930Y001473D02*
X026550Y001473D01*
X026550Y001314D02*
X025850Y001314D01*
X025400Y001830D02*
X025453Y001884D01*
X025460Y003140D01*
X025460Y003160D01*
X025053Y003626D01*
X025053Y004000D01*
X025453Y003533D02*
X025474Y003533D01*
X025591Y003375D02*
X026215Y003375D01*
X026215Y003471D02*
X026215Y003132D01*
X026227Y003086D01*
X026251Y003045D01*
X026284Y003012D01*
X026325Y002988D01*
X026371Y002976D01*
X026454Y002976D01*
X026454Y003471D01*
X026454Y003471D01*
X026454Y003471D01*
X026215Y003471D01*
X026215Y003216D02*
X025696Y003216D01*
X025699Y003058D02*
X026244Y003058D01*
X026454Y003058D02*
X026454Y003058D01*
X026454Y003216D02*
X026454Y003216D01*
X026454Y003375D02*
X026454Y003375D01*
X027225Y003375D02*
X027225Y003375D01*
X027225Y003216D02*
X027225Y003216D01*
X027225Y003058D02*
X027225Y003058D01*
X027436Y003058D02*
X027570Y003058D01*
X027570Y003216D02*
X027464Y003216D01*
X027464Y003375D02*
X027570Y003375D01*
X026970Y002053D02*
X026970Y001750D01*
X027500Y001750D01*
X027500Y001710D01*
X026970Y001710D01*
X026970Y001336D01*
X026982Y001291D01*
X027005Y001249D01*
X027025Y001230D01*
X026980Y001230D01*
X026970Y001236D01*
X026970Y002053D01*
X026970Y002053D01*
X026970Y001948D02*
X026970Y001948D01*
X026970Y001790D02*
X026970Y001790D01*
X026970Y001631D02*
X026970Y001631D01*
X026970Y001473D02*
X026970Y001473D01*
X026970Y001314D02*
X026975Y001314D01*
X026536Y001156D02*
X021778Y001156D01*
X021818Y001314D02*
X023260Y001314D01*
X023539Y001314D02*
X024949Y001314D01*
X024870Y001473D02*
X024680Y001473D01*
X024849Y001631D02*
X024870Y001631D01*
X024119Y001473D02*
X023792Y001473D01*
X023891Y001631D02*
X023950Y001631D01*
X023007Y001473D02*
X022706Y001473D01*
X022862Y001631D02*
X022908Y001631D01*
X022420Y001631D02*
X022380Y001631D01*
X022380Y001473D02*
X022420Y001473D01*
X022380Y001380D02*
X022356Y001380D01*
X022271Y001394D01*
X022188Y001420D01*
X022111Y001460D01*
X022041Y001510D01*
X021980Y001572D01*
X021929Y001642D01*
X021890Y001719D01*
X021863Y001801D01*
X021850Y001887D01*
X021850Y001910D01*
X022380Y001910D01*
X022380Y001380D01*
X022093Y001473D02*
X021783Y001473D01*
X021700Y001631D02*
X021937Y001631D01*
X021867Y001790D02*
X021700Y001790D01*
X021700Y001948D02*
X022380Y001948D01*
X022380Y001790D02*
X022420Y001790D01*
X022420Y002107D02*
X022380Y002107D01*
X022380Y002265D02*
X022420Y002265D01*
X022420Y002424D02*
X022380Y002424D01*
X022157Y002424D02*
X021700Y002424D01*
X021700Y002582D02*
X023001Y002582D01*
X023159Y002424D02*
X022642Y002424D01*
X022836Y002265D02*
X023085Y002265D01*
X022940Y002107D02*
X022920Y002107D01*
X022842Y002741D02*
X021700Y002741D01*
X021700Y002899D02*
X022684Y002899D01*
X022556Y003058D02*
X021700Y003058D01*
X021700Y003216D02*
X022556Y003216D01*
X022556Y003375D02*
X021700Y003375D01*
X021871Y003533D02*
X022556Y003533D01*
X022376Y003692D02*
X021928Y003692D01*
X021389Y004009D02*
X020956Y004009D01*
X020956Y004167D02*
X021590Y004167D01*
X021590Y004326D02*
X020956Y004326D01*
X020956Y004349D02*
X020862Y004443D01*
X020257Y004443D01*
X020163Y004349D01*
X020163Y003744D01*
X020237Y003670D01*
X020144Y003577D01*
X020144Y003293D01*
X020086Y003350D01*
X017120Y003350D01*
X017120Y006479D01*
X017162Y006496D01*
X017263Y006597D01*
X017318Y006729D01*
X017318Y006847D01*
X017343Y006873D01*
X017366Y006833D01*
X017399Y006800D01*
X017440Y006776D01*
X017486Y006764D01*
X017708Y006764D01*
X017708Y007142D01*
X017784Y007142D01*
X017784Y006764D01*
X018006Y006764D01*
X018052Y006776D01*
X018093Y006800D01*
X018126Y006833D01*
X018150Y006874D01*
X018162Y006920D01*
X018162Y007142D01*
X017784Y007142D01*
X017784Y007218D01*
X018162Y007218D01*
X018162Y007440D01*
X018150Y007486D01*
X018143Y007498D01*
X018223Y007578D01*
X018223Y008182D01*
X018175Y008230D01*
X018223Y008278D01*
X018223Y008882D01*
X018130Y008976D01*
X018130Y009064D01*
X018223Y009157D01*
X018278Y009289D01*
X018278Y009431D01*
X018223Y009563D01*
X018122Y009664D01*
X017991Y009718D01*
X017848Y009718D01*
X017717Y009664D01*
X017616Y009563D01*
X017561Y009431D01*
X017561Y009289D01*
X017616Y009157D01*
X017710Y009064D01*
X017710Y008976D01*
X017681Y008976D01*
X017588Y008882D01*
X017588Y008820D01*
X017402Y008820D01*
X017402Y009294D01*
X017308Y009388D01*
X016959Y009388D01*
X016947Y009376D01*
X016934Y009388D01*
X016585Y009388D01*
X016582Y009385D01*
X016563Y009396D01*
X016517Y009408D01*
X016386Y009408D01*
X016386Y008992D01*
X016385Y008992D01*
X016385Y008992D01*
X016097Y008992D01*
X016097Y009252D01*
X016109Y009298D01*
X016133Y009339D01*
X016167Y009372D01*
X016208Y009396D01*
X016254Y009408D01*
X016385Y009408D01*
X016385Y008992D01*
X016097Y008992D01*
X016097Y008732D01*
X016109Y008686D01*
X016133Y008645D01*
X016158Y008620D01*
X015698Y008620D01*
X015676Y008642D01*
X015043Y008642D01*
X014998Y008597D01*
X014782Y008597D01*
X014700Y008679D01*
X014700Y009646D01*
X014756Y009702D01*
X014756Y010149D01*
X014662Y010243D01*
X014057Y010243D01*
X013963Y010149D01*
X013963Y009702D01*
X014057Y009608D01*
X014220Y009608D01*
X014220Y008532D01*
X014256Y008444D01*
X014324Y008377D01*
X014546Y008154D01*
X014635Y008117D01*
X014950Y008117D01*
X014950Y007812D01*
X015043Y007718D01*
X015074Y007718D01*
X015074Y007560D01*
X014996Y007482D01*
X014996Y006878D01*
X015090Y006784D01*
X015538Y006784D01*
X015631Y006878D01*
X015631Y006940D01*
X016607Y006940D01*
X016635Y006951D01*
X016601Y006871D01*
X016601Y006729D01*
X016656Y006597D01*
X016680Y006574D01*
X016680Y003350D01*
X015660Y003350D01*
X015595Y003363D01*
X015576Y003350D01*
X015553Y003350D01*
X015506Y003303D01*
X015456Y003270D01*
X015433Y003270D01*
X015386Y003223D01*
X015331Y003186D01*
X015326Y003164D01*
X015310Y003147D01*
X015310Y003081D01*
X015297Y003016D01*
X015310Y002996D01*
X015310Y001573D01*
X015433Y001450D01*
X015593Y001290D01*
X020126Y001290D01*
X020250Y001413D01*
X020390Y001553D01*
X020390Y002130D01*
X020921Y002130D01*
X021015Y002223D01*
X021015Y002789D01*
X020921Y002883D01*
X020390Y002883D01*
X020390Y002917D01*
X020921Y002917D01*
X021015Y003011D01*
X021015Y003577D01*
X020921Y003670D01*
X020882Y003670D01*
X020956Y003744D01*
X020956Y004349D01*
X020890Y004484D02*
X021590Y004484D01*
X021590Y004643D02*
X020976Y004643D01*
X020976Y004613D02*
X020976Y004835D01*
X020598Y004835D01*
X020598Y004911D01*
X020976Y004911D01*
X020976Y005133D01*
X020963Y005179D01*
X020940Y005220D01*
X020906Y005254D01*
X020865Y005277D01*
X020819Y005290D01*
X020598Y005290D01*
X020598Y004912D01*
X020521Y004912D01*
X020521Y005290D01*
X020300Y005290D01*
X020254Y005277D01*
X020213Y005254D01*
X020179Y005220D01*
X020156Y005179D01*
X020143Y005133D01*
X020143Y004911D01*
X020521Y004911D01*
X020521Y004835D01*
X020143Y004835D01*
X020143Y004613D01*
X020156Y004568D01*
X020179Y004527D01*
X020213Y004493D01*
X020254Y004469D01*
X020300Y004457D01*
X020521Y004457D01*
X020521Y004835D01*
X020598Y004835D01*
X020598Y004457D01*
X020819Y004457D01*
X020865Y004469D01*
X020906Y004493D01*
X020940Y004527D01*
X020963Y004568D01*
X020976Y004613D01*
X020976Y004801D02*
X021590Y004801D01*
X021590Y004960D02*
X020976Y004960D01*
X020976Y005118D02*
X021590Y005118D01*
X021590Y005277D02*
X020867Y005277D01*
X020598Y005277D02*
X020521Y005277D01*
X020521Y005118D02*
X020598Y005118D01*
X020598Y004960D02*
X020521Y004960D01*
X020521Y004801D02*
X020598Y004801D01*
X020598Y004643D02*
X020521Y004643D01*
X020521Y004484D02*
X020598Y004484D01*
X020229Y004484D02*
X020052Y004484D01*
X020052Y004604D02*
X020040Y004650D01*
X020016Y004691D01*
X019982Y004725D01*
X019941Y004749D01*
X019896Y004761D01*
X019467Y004761D01*
X019467Y004353D01*
X019332Y004353D01*
X019332Y004218D01*
X019467Y004218D01*
X019467Y003810D01*
X019896Y003810D01*
X019941Y003823D01*
X019982Y003846D01*
X020016Y003880D01*
X020040Y003921D01*
X020052Y003967D01*
X020052Y004218D01*
X019467Y004218D01*
X019467Y004353D01*
X020052Y004353D01*
X020052Y004604D01*
X020042Y004643D02*
X020143Y004643D01*
X020143Y004801D02*
X017120Y004801D01*
X017120Y004643D02*
X018757Y004643D01*
X018759Y004650D02*
X018747Y004604D01*
X018747Y004353D01*
X019332Y004353D01*
X019332Y004761D01*
X018903Y004761D01*
X018858Y004749D01*
X018817Y004725D01*
X018783Y004691D01*
X018759Y004650D01*
X018747Y004484D02*
X017120Y004484D01*
X017120Y004326D02*
X019332Y004326D01*
X019332Y004218D02*
X018747Y004218D01*
X018747Y003967D01*
X018759Y003921D01*
X018783Y003880D01*
X018817Y003846D01*
X018858Y003823D01*
X018903Y003810D01*
X019332Y003810D01*
X019332Y004218D01*
X019332Y004167D02*
X019467Y004167D01*
X019467Y004009D02*
X019332Y004009D01*
X019332Y003850D02*
X019467Y003850D01*
X019467Y004326D02*
X020163Y004326D01*
X020163Y004167D02*
X020052Y004167D01*
X020052Y004009D02*
X020163Y004009D01*
X020163Y003850D02*
X019986Y003850D01*
X020216Y003692D02*
X017120Y003692D01*
X017120Y003850D02*
X018813Y003850D01*
X018747Y004009D02*
X017120Y004009D01*
X017120Y004167D02*
X018747Y004167D01*
X019332Y004484D02*
X019467Y004484D01*
X019467Y004643D02*
X019332Y004643D01*
X020143Y004960D02*
X017120Y004960D01*
X017120Y005118D02*
X020143Y005118D01*
X020252Y005277D02*
X018426Y005277D01*
X018440Y005291D02*
X018464Y005332D01*
X018476Y005378D01*
X018476Y005802D01*
X018036Y005802D01*
X018036Y005962D01*
X017876Y005962D01*
X017876Y006542D01*
X017591Y006542D01*
X017546Y006530D01*
X017505Y006506D01*
X017471Y006472D01*
X017447Y006431D01*
X017435Y006386D01*
X017120Y006386D01*
X017120Y006228D02*
X017435Y006228D01*
X017435Y006386D02*
X017435Y005962D01*
X017876Y005962D01*
X017876Y005802D01*
X018036Y005802D01*
X018036Y005221D01*
X018320Y005221D01*
X018366Y005234D01*
X018407Y005257D01*
X018440Y005291D01*
X018476Y005435D02*
X021590Y005435D01*
X021590Y005594D02*
X018476Y005594D01*
X018476Y005752D02*
X021590Y005752D01*
X021590Y005911D02*
X018036Y005911D01*
X018036Y005962D02*
X018476Y005962D01*
X018476Y006386D01*
X021590Y006386D01*
X021590Y006228D02*
X018476Y006228D01*
X018476Y006386D02*
X018464Y006431D01*
X018440Y006472D01*
X018407Y006506D01*
X018366Y006530D01*
X018320Y006542D01*
X018036Y006542D01*
X018036Y005962D01*
X018036Y006069D02*
X017876Y006069D01*
X017876Y005911D02*
X017120Y005911D01*
X017120Y006069D02*
X017435Y006069D01*
X017435Y005802D02*
X017435Y005378D01*
X017447Y005332D01*
X017471Y005291D01*
X017505Y005257D01*
X017546Y005234D01*
X017591Y005221D01*
X017876Y005221D01*
X017876Y005802D01*
X017435Y005802D01*
X017435Y005752D02*
X017120Y005752D01*
X017120Y005594D02*
X017435Y005594D01*
X017435Y005435D02*
X017120Y005435D01*
X017120Y005277D02*
X017485Y005277D01*
X017876Y005277D02*
X018036Y005277D01*
X018036Y005435D02*
X017876Y005435D01*
X017876Y005594D02*
X018036Y005594D01*
X018036Y005752D02*
X017876Y005752D01*
X017876Y006228D02*
X018036Y006228D01*
X018036Y006386D02*
X017876Y006386D01*
X017784Y006862D02*
X017708Y006862D01*
X017708Y007020D02*
X017784Y007020D01*
X017784Y007179D02*
X018177Y007179D01*
X018162Y007337D02*
X018177Y007337D01*
X018177Y007482D02*
X018177Y006878D01*
X018270Y006784D01*
X018875Y006784D01*
X018969Y006878D01*
X018969Y007482D01*
X018903Y007549D01*
X018931Y007578D01*
X018931Y008182D01*
X018884Y008230D01*
X018931Y008278D01*
X018931Y008340D01*
X019120Y008340D01*
X019120Y008184D01*
X019213Y008090D01*
X020086Y008090D01*
X020180Y008184D01*
X020180Y009056D01*
X020086Y009150D01*
X019213Y009150D01*
X019120Y009056D01*
X019120Y008820D01*
X018931Y008820D01*
X018931Y008882D01*
X018838Y008976D01*
X018390Y008976D01*
X018296Y008882D01*
X018296Y008278D01*
X018344Y008230D01*
X018296Y008182D01*
X018296Y007578D01*
X018298Y007576D01*
X018270Y007576D01*
X018177Y007482D01*
X018190Y007496D02*
X018144Y007496D01*
X018223Y007654D02*
X018296Y007654D01*
X018296Y007813D02*
X018223Y007813D01*
X018223Y007971D02*
X018296Y007971D01*
X018296Y008130D02*
X018223Y008130D01*
X018223Y008288D02*
X018296Y008288D01*
X018296Y008447D02*
X018223Y008447D01*
X018223Y008605D02*
X018296Y008605D01*
X018296Y008764D02*
X018223Y008764D01*
X018183Y008922D02*
X018336Y008922D01*
X018146Y009081D02*
X019144Y009081D01*
X019120Y008922D02*
X018892Y008922D01*
X018614Y008580D02*
X019610Y008580D01*
X019650Y008620D01*
X020180Y008605D02*
X020730Y008605D01*
X020730Y008600D02*
X020200Y008600D01*
X020200Y008577D01*
X020213Y008491D01*
X020240Y008409D01*
X020279Y008332D01*
X020330Y008262D01*
X020391Y008200D01*
X020461Y008150D01*
X020538Y008110D01*
X020621Y008084D01*
X020706Y008070D01*
X020730Y008070D01*
X020730Y008600D01*
X020770Y008600D01*
X020770Y008640D01*
X021300Y008640D01*
X021300Y008663D01*
X021286Y008749D01*
X021259Y008831D01*
X021220Y008908D01*
X021169Y008978D01*
X021108Y009040D01*
X021038Y009090D01*
X020961Y009130D01*
X020878Y009156D01*
X020793Y009170D01*
X020770Y009170D01*
X020770Y008640D01*
X020730Y008640D01*
X020730Y009170D01*
X020706Y009170D01*
X020621Y009156D01*
X020538Y009130D01*
X020461Y009090D01*
X020391Y009040D01*
X020330Y008978D01*
X020279Y008908D01*
X020240Y008831D01*
X020213Y008749D01*
X020200Y008663D01*
X020200Y008640D01*
X020730Y008640D01*
X020730Y008600D01*
X020770Y008600D02*
X020770Y008070D01*
X020793Y008070D01*
X020878Y008084D01*
X020961Y008110D01*
X021038Y008150D01*
X021108Y008200D01*
X021169Y008262D01*
X021220Y008332D01*
X021259Y008409D01*
X021286Y008491D01*
X021300Y008577D01*
X021300Y008600D01*
X020770Y008600D01*
X020770Y008605D02*
X022930Y008605D01*
X022930Y008764D02*
X021281Y008764D01*
X021210Y008922D02*
X022861Y008922D01*
X022874Y009081D02*
X021051Y009081D01*
X020770Y009081D02*
X020730Y009081D01*
X020730Y008922D02*
X020770Y008922D01*
X020770Y008764D02*
X020730Y008764D01*
X020730Y008447D02*
X020770Y008447D01*
X020770Y008288D02*
X020730Y008288D01*
X020730Y008130D02*
X020770Y008130D01*
X020998Y008130D02*
X022004Y008130D01*
X022004Y008288D02*
X021188Y008288D01*
X021271Y008447D02*
X022004Y008447D01*
X022004Y007971D02*
X018931Y007971D01*
X018931Y007813D02*
X021466Y007813D01*
X021383Y007654D02*
X018931Y007654D01*
X018956Y007496D02*
X021387Y007496D01*
X021476Y007337D02*
X018969Y007337D01*
X018969Y007179D02*
X021761Y007179D01*
X021603Y007020D02*
X018969Y007020D01*
X018953Y006862D02*
X021590Y006862D01*
X021590Y006703D02*
X017307Y006703D01*
X017332Y006862D02*
X017350Y006862D01*
X017210Y006545D02*
X021590Y006545D01*
X021590Y006069D02*
X018476Y006069D01*
X018193Y006862D02*
X018143Y006862D01*
X018162Y007020D02*
X018177Y007020D01*
X018573Y007180D02*
X018573Y007839D01*
X018614Y007880D01*
X018931Y008130D02*
X019174Y008130D01*
X019120Y008288D02*
X018931Y008288D01*
X017905Y008580D02*
X017905Y007880D01*
X017905Y008580D02*
X016760Y008580D01*
X016760Y007380D01*
X016560Y007180D01*
X015314Y007180D01*
X015314Y007957D01*
X015360Y008003D01*
X015360Y008357D02*
X014682Y008357D01*
X014460Y008580D01*
X014460Y009826D01*
X014360Y009926D01*
X014756Y009873D02*
X024090Y009873D01*
X023905Y010280D02*
X023860Y010326D01*
X023860Y011026D01*
X023840Y011006D01*
X023093Y011006D01*
X022657Y010983D02*
X020930Y010983D01*
X020930Y011141D02*
X021791Y011141D01*
X021791Y011300D02*
X020930Y011300D01*
X020930Y011458D02*
X021791Y011458D01*
X021791Y011617D02*
X020930Y011617D01*
X020930Y011775D02*
X021940Y011775D01*
X021940Y011934D02*
X020930Y011934D01*
X020930Y012092D02*
X021940Y012092D01*
X021940Y012251D02*
X020930Y012251D01*
X020930Y012409D02*
X021820Y012409D01*
X021727Y012568D02*
X020930Y012568D01*
X020930Y012726D02*
X021686Y012726D01*
X021686Y012885D02*
X020930Y012885D01*
X020930Y013043D02*
X021748Y013043D01*
X021870Y013202D02*
X021058Y013202D01*
X021217Y013360D02*
X023150Y013360D01*
X023150Y013202D02*
X022649Y013202D01*
X022771Y013043D02*
X023150Y013043D01*
X023150Y012885D02*
X022833Y012885D01*
X022833Y012726D02*
X023150Y012726D01*
X023150Y012568D02*
X022792Y012568D01*
X022699Y012409D02*
X023150Y012409D01*
X023192Y012251D02*
X022580Y012251D01*
X022580Y012092D02*
X022704Y012092D01*
X022706Y012095D02*
X022673Y012061D01*
X022649Y012020D01*
X022637Y011975D01*
X022637Y011772D01*
X023074Y011772D01*
X023074Y012131D01*
X022793Y012131D01*
X022748Y012119D01*
X022706Y012095D01*
X022637Y011934D02*
X022580Y011934D01*
X022580Y011775D02*
X022637Y011775D01*
X022662Y011466D02*
X022673Y011447D01*
X022706Y011413D01*
X022748Y011389D01*
X022793Y011377D01*
X023074Y011377D01*
X023074Y011736D01*
X023111Y011736D01*
X023111Y011377D01*
X023392Y011377D01*
X023438Y011389D01*
X023479Y011413D01*
X023506Y011440D01*
X023513Y011433D01*
X023554Y011409D01*
X023600Y011397D01*
X023860Y011397D01*
X024119Y011397D01*
X024165Y011409D01*
X024206Y011433D01*
X024240Y011466D01*
X024263Y011507D01*
X024276Y011553D01*
X024276Y011734D01*
X023860Y011734D01*
X023860Y011734D01*
X023860Y011397D01*
X023860Y011734D01*
X023860Y011734D01*
X024276Y011734D01*
X024276Y011916D01*
X024263Y011961D01*
X024247Y011990D01*
X025646Y011990D01*
X025770Y012113D01*
X025810Y012153D01*
X025810Y011787D01*
X025513Y011490D01*
X024613Y011490D01*
X024256Y011133D01*
X024256Y011249D01*
X024162Y011343D01*
X023557Y011343D01*
X023506Y011292D01*
X023434Y011363D01*
X022751Y011363D01*
X022662Y011274D01*
X022662Y011466D01*
X022662Y011458D02*
X022666Y011458D01*
X022662Y011300D02*
X022687Y011300D01*
X023074Y011458D02*
X023111Y011458D01*
X023111Y011617D02*
X023074Y011617D01*
X023074Y011775D02*
X023111Y011775D01*
X023111Y011934D02*
X023074Y011934D01*
X023074Y012092D02*
X023111Y012092D01*
X023860Y011617D02*
X023860Y011617D01*
X023860Y011458D02*
X023860Y011458D01*
X024231Y011458D02*
X024581Y011458D01*
X024422Y011300D02*
X024206Y011300D01*
X024256Y011141D02*
X024264Y011141D01*
X024276Y011617D02*
X025639Y011617D01*
X025798Y011775D02*
X024276Y011775D01*
X024271Y011934D02*
X025810Y011934D01*
X025810Y012092D02*
X025749Y012092D01*
X026730Y012092D02*
X027740Y012092D01*
X027740Y011934D02*
X026730Y011934D01*
X026730Y011775D02*
X027740Y011775D01*
X027740Y011737D02*
X027685Y011737D01*
X027591Y011643D01*
X027591Y011117D01*
X027685Y011023D01*
X028368Y011023D01*
X028457Y011112D01*
X028457Y010743D01*
X028551Y010649D01*
X029234Y010649D01*
X029325Y010740D01*
X029335Y010730D01*
X029288Y010682D01*
X029288Y010078D01*
X029381Y009984D01*
X029829Y009984D01*
X029923Y010078D01*
X029923Y010682D01*
X029900Y010706D01*
X029900Y010708D01*
X029962Y010708D01*
X030056Y010802D01*
X030056Y011249D01*
X029962Y011343D01*
X029357Y011343D01*
X029306Y011292D01*
X029234Y011363D01*
X028551Y011363D01*
X028462Y011274D01*
X028462Y011466D01*
X028473Y011447D01*
X028506Y011413D01*
X028548Y011389D01*
X028593Y011377D01*
X028874Y011377D01*
X028874Y011736D01*
X028437Y011736D01*
X028437Y011668D01*
X028380Y011726D01*
X028380Y012392D01*
X028384Y012394D01*
X028546Y012555D01*
X028633Y012766D01*
X028633Y012994D01*
X028546Y013205D01*
X028384Y013366D01*
X028174Y013453D01*
X027945Y013453D01*
X027885Y013428D01*
X028286Y013830D01*
X028523Y013830D01*
X028496Y013803D01*
X028441Y013671D01*
X028441Y013529D01*
X028496Y013397D01*
X028597Y013296D01*
X028728Y013242D01*
X028871Y013242D01*
X029002Y013296D01*
X029103Y013397D01*
X029133Y013470D01*
X029390Y013470D01*
X029390Y012813D01*
X029513Y012690D01*
X030104Y012099D01*
X030104Y010776D01*
X030090Y010776D01*
X029996Y010682D01*
X029996Y010078D01*
X030090Y009984D01*
X030538Y009984D01*
X030631Y010078D01*
X030631Y010682D01*
X030538Y010776D01*
X030524Y010776D01*
X030524Y012273D01*
X029810Y012987D01*
X029810Y013647D01*
X029690Y013767D01*
X029606Y013850D01*
X029710Y013953D01*
X030043Y014287D01*
X030546Y014287D01*
X030546Y014135D01*
X030640Y014041D01*
X030910Y014041D01*
X030910Y014013D01*
X031310Y013613D01*
X031310Y011593D01*
X031930Y010973D01*
X032053Y010850D01*
X033513Y010850D01*
X033630Y010733D01*
X033630Y010073D01*
X033850Y009853D01*
X033938Y009765D01*
X032280Y009760D01*
X032280Y008370D01*
X032278Y008371D01*
X032007Y008371D01*
X032007Y007983D01*
X031912Y007983D01*
X031912Y008371D01*
X031641Y008371D01*
X031595Y008358D01*
X031554Y008335D01*
X031520Y008301D01*
X031497Y008260D01*
X031484Y008214D01*
X031484Y007983D01*
X031912Y007983D01*
X031912Y007887D01*
X031484Y007887D01*
X031484Y007655D01*
X031497Y007609D01*
X031507Y007591D01*
X031504Y007588D01*
X031504Y006943D01*
X031598Y006849D01*
X031720Y006849D01*
X031720Y006720D01*
X031503Y006720D01*
X031461Y006678D01*
X031440Y006699D01*
X031440Y008388D01*
X031403Y008476D01*
X031335Y008543D01*
X031162Y008717D01*
X031074Y008754D01*
X030835Y008754D01*
X030835Y008797D01*
X030741Y008890D01*
X030058Y008890D01*
X029964Y008797D01*
X029964Y008754D01*
X029935Y008754D01*
X029935Y008797D01*
X029841Y008890D01*
X029158Y008890D01*
X029064Y008797D01*
X029064Y008754D01*
X026905Y008754D01*
X026817Y008717D01*
X026658Y008558D01*
X026568Y008558D01*
X026437Y008504D01*
X026336Y008403D01*
X026281Y008271D01*
X026281Y008129D01*
X026336Y007997D01*
X026437Y007896D01*
X026568Y007842D01*
X026711Y007842D01*
X026842Y007896D01*
X026943Y007997D01*
X026998Y008129D01*
X026998Y008219D01*
X027053Y008274D01*
X029064Y008274D01*
X029064Y008231D01*
X029158Y008137D01*
X029841Y008137D01*
X029935Y008231D01*
X029935Y008274D01*
X029964Y008274D01*
X029964Y008231D01*
X030058Y008137D01*
X030741Y008137D01*
X030835Y008231D01*
X030835Y008274D01*
X030926Y008274D01*
X030960Y008241D01*
X030960Y006552D01*
X030996Y006464D01*
X031176Y006284D01*
X031244Y006217D01*
X031332Y006180D01*
X031463Y006180D01*
X031413Y006130D01*
X030796Y006130D01*
X030796Y006409D01*
X030702Y006503D01*
X030610Y006503D01*
X030610Y006527D01*
X030599Y006537D01*
X030702Y006537D01*
X030796Y006631D01*
X030796Y007236D01*
X030702Y007330D01*
X030610Y007330D01*
X030610Y007350D01*
X030741Y007350D01*
X030835Y007443D01*
X030835Y008009D01*
X030741Y008103D01*
X030058Y008103D01*
X029964Y008009D01*
X029964Y007443D01*
X030058Y007350D01*
X030190Y007350D01*
X030190Y007330D01*
X030097Y007330D01*
X030003Y007236D01*
X030003Y006754D01*
X029896Y006754D01*
X029896Y007236D01*
X029802Y007330D01*
X029710Y007330D01*
X029710Y007350D01*
X029841Y007350D01*
X029935Y007443D01*
X029935Y008009D01*
X029841Y008103D01*
X029158Y008103D01*
X029064Y008009D01*
X029064Y007443D01*
X029158Y007350D01*
X029290Y007350D01*
X029290Y007330D01*
X029197Y007330D01*
X029103Y007236D01*
X029103Y006754D01*
X026191Y006754D01*
X026240Y006804D01*
X026311Y006833D01*
X026406Y006928D01*
X026458Y007053D01*
X026458Y007187D01*
X026406Y007312D01*
X026311Y007407D01*
X026187Y007458D01*
X026052Y007458D01*
X025928Y007407D01*
X025833Y007312D01*
X025781Y007187D01*
X025781Y007053D01*
X025799Y007010D01*
X025277Y007010D01*
X025277Y007350D01*
X025566Y007350D01*
X025690Y007473D01*
X025697Y007481D01*
X025697Y007481D01*
X025759Y007542D01*
X025792Y007576D01*
X025842Y007596D01*
X025943Y007697D01*
X025998Y007829D01*
X025998Y007971D01*
X026362Y007971D01*
X026281Y008130D02*
X025916Y008130D01*
X025943Y008103D02*
X025842Y008204D01*
X025711Y008258D01*
X025568Y008258D01*
X025437Y008204D01*
X025336Y008103D01*
X025297Y008008D01*
X025297Y008079D01*
X025151Y008079D01*
X025151Y008079D01*
X025297Y008079D01*
X025297Y008182D01*
X025290Y008207D01*
X025297Y008233D01*
X025297Y008335D01*
X025151Y008335D01*
X025151Y008335D01*
X025297Y008335D01*
X025297Y008438D01*
X025284Y008484D01*
X025261Y008525D01*
X025227Y008558D01*
X025186Y008582D01*
X025140Y008594D01*
X024802Y008594D01*
X024802Y008335D01*
X024802Y008079D01*
X024802Y008077D01*
X024802Y007824D01*
X024802Y007824D01*
X024802Y008079D01*
X024802Y008079D01*
X024802Y008079D01*
X024802Y008335D01*
X024802Y008335D01*
X024802Y008335D01*
X024802Y008594D01*
X024631Y008594D01*
X024671Y008635D01*
X024740Y008704D01*
X024740Y008729D01*
X024752Y008757D01*
X024770Y008774D01*
X024770Y009413D01*
X025057Y009701D01*
X025112Y009756D01*
X025180Y009824D01*
X025180Y009849D01*
X025192Y009877D01*
X025210Y009894D01*
X025210Y010493D01*
X025286Y010570D01*
X025846Y010570D01*
X025970Y010693D01*
X026577Y011301D01*
X026634Y011358D01*
X026700Y011424D01*
X026700Y011449D01*
X026712Y011477D01*
X026730Y011494D01*
X026730Y013030D01*
X027486Y013030D01*
X027511Y013055D01*
X027486Y012994D01*
X027486Y012766D01*
X027573Y012555D01*
X027735Y012394D01*
X027740Y012392D01*
X027740Y011737D01*
X027591Y011617D02*
X026730Y011617D01*
X026704Y011458D02*
X027591Y011458D01*
X027591Y011300D02*
X026576Y011300D01*
X026577Y011301D02*
X026577Y011301D01*
X026418Y011141D02*
X027591Y011141D01*
X028457Y010983D02*
X026259Y010983D01*
X026101Y010824D02*
X028457Y010824D01*
X028534Y010666D02*
X025942Y010666D01*
X025224Y010507D02*
X029288Y010507D01*
X029288Y010349D02*
X025210Y010349D01*
X025210Y010190D02*
X029288Y010190D01*
X029334Y010032D02*
X025210Y010032D01*
X025190Y009873D02*
X033830Y009873D01*
X033671Y010032D02*
X030585Y010032D01*
X030631Y010190D02*
X033630Y010190D01*
X033630Y010349D02*
X030631Y010349D01*
X030631Y010507D02*
X033630Y010507D01*
X033630Y010666D02*
X030631Y010666D01*
X030524Y010824D02*
X033539Y010824D01*
X031920Y010983D02*
X030524Y010983D01*
X030524Y011141D02*
X031762Y011141D01*
X031603Y011300D02*
X030524Y011300D01*
X030524Y011458D02*
X031445Y011458D01*
X031310Y011617D02*
X030524Y011617D01*
X030524Y011775D02*
X031310Y011775D01*
X031310Y011934D02*
X030524Y011934D01*
X030524Y012092D02*
X031310Y012092D01*
X031310Y012251D02*
X030524Y012251D01*
X030387Y012409D02*
X031310Y012409D01*
X031310Y012568D02*
X030229Y012568D01*
X030070Y012726D02*
X031310Y012726D01*
X031310Y012885D02*
X029912Y012885D01*
X029810Y013043D02*
X031310Y013043D01*
X031310Y013202D02*
X029810Y013202D01*
X029810Y013360D02*
X031310Y013360D01*
X031310Y013519D02*
X029810Y013519D01*
X029779Y013677D02*
X031246Y013677D01*
X031087Y013836D02*
X029621Y013836D01*
X029751Y013994D02*
X030929Y013994D01*
X030546Y014153D02*
X029909Y014153D01*
X029390Y013360D02*
X029066Y013360D01*
X029390Y013202D02*
X028547Y013202D01*
X028533Y013360D02*
X028390Y013360D01*
X028446Y013519D02*
X027975Y013519D01*
X028134Y013677D02*
X028444Y013677D01*
X028613Y013043D02*
X029390Y013043D01*
X029390Y012885D02*
X028633Y012885D01*
X028616Y012726D02*
X029477Y012726D01*
X029635Y012568D02*
X028551Y012568D01*
X028399Y012409D02*
X029794Y012409D01*
X029952Y012251D02*
X028380Y012251D01*
X028380Y012092D02*
X028504Y012092D01*
X028506Y012095D02*
X028473Y012061D01*
X028449Y012020D01*
X028437Y011975D01*
X028437Y011772D01*
X028874Y011772D01*
X028874Y011736D01*
X028911Y011736D01*
X028911Y011377D01*
X029192Y011377D01*
X029238Y011389D01*
X029279Y011413D01*
X029306Y011440D01*
X029313Y011433D01*
X029354Y011409D01*
X029400Y011397D01*
X029660Y011397D01*
X029919Y011397D01*
X029965Y011409D01*
X030006Y011433D01*
X030040Y011466D01*
X030063Y011507D01*
X030076Y011553D01*
X030076Y011734D01*
X029660Y011734D01*
X029660Y011734D01*
X029660Y011397D01*
X029660Y011734D01*
X029660Y011734D01*
X030076Y011734D01*
X030076Y011916D01*
X030063Y011961D01*
X030040Y012002D01*
X030006Y012036D01*
X029965Y012060D01*
X029919Y012072D01*
X029660Y012072D01*
X029660Y011734D01*
X029660Y011734D01*
X029660Y012072D01*
X029400Y012072D01*
X029354Y012060D01*
X029323Y012042D01*
X029312Y012061D01*
X029279Y012095D01*
X029238Y012119D01*
X029192Y012131D01*
X028911Y012131D01*
X028911Y011772D01*
X028874Y011772D01*
X028874Y012131D01*
X028593Y012131D01*
X028548Y012119D01*
X028506Y012095D01*
X028437Y011934D02*
X028380Y011934D01*
X028380Y011775D02*
X028437Y011775D01*
X028462Y011458D02*
X028466Y011458D01*
X028462Y011300D02*
X028487Y011300D01*
X028874Y011458D02*
X028911Y011458D01*
X028911Y011617D02*
X028874Y011617D01*
X028874Y011775D02*
X028911Y011775D01*
X028911Y011934D02*
X028874Y011934D01*
X028874Y012092D02*
X028911Y012092D01*
X029282Y012092D02*
X030104Y012092D01*
X030104Y011934D02*
X030071Y011934D01*
X030076Y011775D02*
X030104Y011775D01*
X030104Y011617D02*
X030076Y011617D01*
X030104Y011458D02*
X030031Y011458D01*
X030006Y011300D02*
X030104Y011300D01*
X030104Y011141D02*
X030056Y011141D01*
X030056Y010983D02*
X030104Y010983D01*
X030104Y010824D02*
X030056Y010824D01*
X029996Y010666D02*
X029923Y010666D01*
X029923Y010507D02*
X029996Y010507D01*
X029996Y010349D02*
X029923Y010349D01*
X029923Y010190D02*
X029996Y010190D01*
X030042Y010032D02*
X029877Y010032D01*
X029605Y010380D02*
X029660Y010434D01*
X029660Y011026D01*
X029640Y011006D01*
X028893Y011006D01*
X029251Y010666D02*
X029288Y010666D01*
X029298Y011300D02*
X029313Y011300D01*
X029660Y011458D02*
X029660Y011458D01*
X029660Y011617D02*
X029660Y011617D01*
X029660Y011775D02*
X029660Y011775D01*
X029660Y011934D02*
X029660Y011934D01*
X027740Y012251D02*
X026730Y012251D01*
X026730Y012409D02*
X027720Y012409D01*
X027568Y012568D02*
X026730Y012568D01*
X026730Y012726D02*
X027503Y012726D01*
X027486Y012885D02*
X026730Y012885D01*
X027500Y013043D02*
X027506Y013043D01*
X025645Y015262D02*
X018517Y015262D01*
X018405Y015421D02*
X025803Y015421D01*
X025962Y015579D02*
X007083Y015579D01*
X007159Y015655D02*
X007246Y015866D01*
X007246Y016094D01*
X007159Y016305D01*
X006998Y016466D01*
X006787Y016553D01*
X005732Y016553D01*
X005521Y016466D01*
X005360Y016305D01*
X005273Y016094D01*
X005273Y015866D01*
X005360Y015655D01*
X005521Y015494D01*
X005732Y015407D01*
X006787Y015407D01*
X006998Y015494D01*
X007159Y015655D01*
X007193Y015738D02*
X026120Y015738D01*
X026279Y015896D02*
X019503Y015896D01*
X019441Y015870D02*
X019775Y016009D01*
X020031Y016265D01*
X020170Y016599D01*
X020170Y016961D01*
X020031Y017295D01*
X018770Y018557D01*
X018770Y019465D01*
X018773Y019455D01*
X018935Y019294D01*
X019145Y019207D01*
X019374Y019207D01*
X019584Y019294D01*
X019746Y019455D01*
X019833Y019666D01*
X019833Y019894D01*
X019746Y020105D01*
X019584Y020266D01*
X019374Y020353D01*
X019145Y020353D01*
X018935Y020266D01*
X018773Y020105D01*
X018770Y020095D01*
X018770Y021470D01*
X019460Y021470D01*
X019645Y021393D01*
X019874Y021393D01*
X020084Y021481D01*
X020168Y021564D01*
X020275Y021609D01*
X020531Y021865D01*
X020670Y022199D01*
X020670Y022561D01*
X020531Y022895D01*
X020275Y023151D01*
X020168Y023196D01*
X020084Y023279D01*
X019874Y023367D01*
X019645Y023367D01*
X019460Y023290D01*
X018179Y023290D01*
X017844Y023151D01*
X017344Y022651D01*
X017088Y022395D01*
X016950Y022061D01*
X016950Y017999D01*
X017088Y017665D01*
X018744Y016009D01*
X019079Y015870D01*
X019441Y015870D01*
X019821Y016055D02*
X024674Y016055D01*
X024544Y016109D02*
X024879Y015970D01*
X025241Y015970D01*
X025575Y016109D01*
X025831Y016365D01*
X025970Y016699D01*
X025970Y017061D01*
X025831Y017395D01*
X024470Y018757D01*
X024470Y021203D01*
X024736Y021470D01*
X024960Y021470D01*
X025145Y021393D01*
X025374Y021393D01*
X025584Y021481D01*
X025668Y021564D01*
X025775Y021609D01*
X026031Y021865D01*
X026170Y022199D01*
X026170Y022561D01*
X026031Y022895D01*
X025775Y023151D01*
X025668Y023196D01*
X025584Y023279D01*
X025374Y023367D01*
X025145Y023367D01*
X024960Y023290D01*
X024179Y023290D01*
X023844Y023151D01*
X023044Y022351D01*
X022788Y022095D01*
X022650Y021761D01*
X022650Y018199D01*
X022788Y017865D01*
X024544Y016109D01*
X024440Y016213D02*
X019979Y016213D01*
X020075Y016372D02*
X024281Y016372D01*
X024123Y016530D02*
X020141Y016530D01*
X020170Y016689D02*
X023964Y016689D01*
X023806Y016847D02*
X020170Y016847D01*
X020151Y017006D02*
X023647Y017006D01*
X023489Y017164D02*
X020085Y017164D01*
X020004Y017323D02*
X023330Y017323D01*
X023172Y017481D02*
X019845Y017481D01*
X019687Y017640D02*
X023013Y017640D01*
X022855Y017798D02*
X019528Y017798D01*
X019370Y017957D02*
X022750Y017957D01*
X022684Y018115D02*
X019211Y018115D01*
X019053Y018274D02*
X022650Y018274D01*
X022650Y018432D02*
X018894Y018432D01*
X018770Y018591D02*
X022650Y018591D01*
X022650Y018749D02*
X018770Y018749D01*
X018770Y018908D02*
X022650Y018908D01*
X022650Y019066D02*
X018770Y019066D01*
X018770Y019225D02*
X019102Y019225D01*
X018846Y019383D02*
X018770Y019383D01*
X019417Y019225D02*
X022650Y019225D01*
X022650Y019383D02*
X019673Y019383D01*
X019781Y019542D02*
X022650Y019542D01*
X022650Y019700D02*
X019833Y019700D01*
X019833Y019859D02*
X022650Y019859D01*
X022650Y020017D02*
X019782Y020017D01*
X019675Y020176D02*
X022650Y020176D01*
X022650Y020334D02*
X019420Y020334D01*
X019099Y020334D02*
X018770Y020334D01*
X018770Y020176D02*
X018844Y020176D01*
X018770Y020493D02*
X022650Y020493D01*
X022650Y020651D02*
X018770Y020651D01*
X018770Y020810D02*
X022650Y020810D01*
X022650Y020968D02*
X018770Y020968D01*
X018770Y021127D02*
X022650Y021127D01*
X022650Y021285D02*
X018770Y021285D01*
X018770Y021444D02*
X019524Y021444D01*
X019995Y021444D02*
X021479Y021444D01*
X021449Y021459D02*
X021532Y021417D01*
X021621Y021388D01*
X021702Y021375D01*
X021702Y022322D01*
X021817Y022322D01*
X021817Y021375D01*
X021898Y021388D01*
X021987Y021417D01*
X022071Y021459D01*
X022146Y021514D01*
X022212Y021580D01*
X022267Y021656D01*
X022309Y021739D01*
X022338Y021828D01*
X022353Y021920D01*
X022353Y022322D01*
X021817Y022322D01*
X021817Y022438D01*
X021702Y022438D01*
X021702Y023385D01*
X021621Y023372D01*
X021532Y023343D01*
X021449Y023301D01*
X021373Y023246D01*
X021307Y023180D01*
X021252Y023104D01*
X021210Y023021D01*
X021181Y022932D01*
X021166Y022840D01*
X021166Y022438D01*
X021702Y022438D01*
X021702Y022322D01*
X021166Y022322D01*
X021166Y021920D01*
X021181Y021828D01*
X021210Y021739D01*
X021252Y021656D01*
X021307Y021580D01*
X021373Y021514D01*
X021449Y021459D01*
X021291Y021602D02*
X020259Y021602D01*
X020427Y021761D02*
X021203Y021761D01*
X021166Y021919D02*
X020554Y021919D01*
X020619Y022078D02*
X021166Y022078D01*
X021166Y022236D02*
X020670Y022236D01*
X020670Y022395D02*
X021702Y022395D01*
X021817Y022395D02*
X023087Y022395D01*
X023246Y022553D02*
X022353Y022553D01*
X022353Y022438D02*
X022353Y022840D01*
X022338Y022932D01*
X022309Y023021D01*
X022267Y023104D01*
X022212Y023180D01*
X022146Y023246D01*
X022071Y023301D01*
X021987Y023343D01*
X021898Y023372D01*
X021817Y023385D01*
X021817Y022438D01*
X022353Y022438D01*
X022353Y022236D02*
X022929Y022236D01*
X022781Y022078D02*
X022353Y022078D01*
X022353Y021919D02*
X022715Y021919D01*
X022650Y021761D02*
X022316Y021761D01*
X022228Y021602D02*
X022650Y021602D01*
X022650Y021444D02*
X022040Y021444D01*
X021817Y021444D02*
X021702Y021444D01*
X021702Y021602D02*
X021817Y021602D01*
X021817Y021761D02*
X021702Y021761D01*
X021702Y021919D02*
X021817Y021919D01*
X021817Y022078D02*
X021702Y022078D01*
X021702Y022236D02*
X021817Y022236D01*
X021817Y022553D02*
X021702Y022553D01*
X021702Y022712D02*
X021817Y022712D01*
X021817Y022870D02*
X021702Y022870D01*
X021702Y023029D02*
X021817Y023029D01*
X021817Y023187D02*
X021702Y023187D01*
X021702Y023346D02*
X021817Y023346D01*
X021980Y023346D02*
X025094Y023346D01*
X025425Y023346D02*
X027039Y023346D01*
X027032Y023343D02*
X026949Y023301D01*
X026873Y023246D01*
X026807Y023180D01*
X026752Y023104D01*
X026710Y023021D01*
X026681Y022932D01*
X026666Y022840D01*
X026666Y022438D01*
X027202Y022438D01*
X027202Y023385D01*
X027121Y023372D01*
X027032Y023343D01*
X027202Y023346D02*
X027317Y023346D01*
X027317Y023385D02*
X027317Y022438D01*
X027202Y022438D01*
X027202Y022322D01*
X027317Y022322D01*
X027317Y021375D01*
X027398Y021388D01*
X027487Y021417D01*
X027571Y021459D01*
X027646Y021514D01*
X027712Y021580D01*
X027767Y021656D01*
X027809Y021739D01*
X027838Y021828D01*
X027853Y021920D01*
X027853Y022322D01*
X027317Y022322D01*
X027317Y022438D01*
X027853Y022438D01*
X027853Y022840D01*
X027838Y022932D01*
X027809Y023021D01*
X027767Y023104D01*
X027712Y023180D01*
X027646Y023246D01*
X027571Y023301D01*
X027487Y023343D01*
X027398Y023372D01*
X027317Y023385D01*
X027480Y023346D02*
X029823Y023346D01*
X029823Y023504D02*
X003240Y023504D01*
X003240Y023346D02*
X014094Y023346D01*
X014145Y023367D02*
X013960Y023290D01*
X012979Y023290D01*
X012644Y023151D01*
X012388Y022895D01*
X012088Y022595D01*
X011950Y022261D01*
X011950Y017699D01*
X012088Y017365D01*
X012344Y017109D01*
X013444Y016009D01*
X013779Y015870D01*
X014341Y015870D01*
X014675Y016009D01*
X014931Y016265D01*
X015070Y016599D01*
X015070Y016961D01*
X014931Y017295D01*
X014675Y017551D01*
X014341Y017690D01*
X014336Y017690D01*
X013770Y018257D01*
X013770Y019359D01*
X013835Y019294D01*
X014045Y019207D01*
X014274Y019207D01*
X014484Y019294D01*
X014646Y019455D01*
X014733Y019666D01*
X014733Y019894D01*
X014646Y020105D01*
X014484Y020266D01*
X014274Y020353D01*
X014045Y020353D01*
X013835Y020266D01*
X013770Y020201D01*
X013770Y021470D01*
X013960Y021470D01*
X014145Y021393D01*
X014374Y021393D01*
X014584Y021481D01*
X014668Y021564D01*
X014775Y021609D01*
X015031Y021865D01*
X015170Y022199D01*
X015170Y022561D01*
X015031Y022895D01*
X014775Y023151D01*
X014668Y023196D01*
X014584Y023279D01*
X014374Y023367D01*
X014145Y023367D01*
X014425Y023346D02*
X016039Y023346D01*
X016032Y023343D02*
X015949Y023301D01*
X015873Y023246D01*
X015807Y023180D01*
X015752Y023104D01*
X015710Y023021D01*
X015681Y022932D01*
X015666Y022840D01*
X015666Y022438D01*
X016202Y022438D01*
X016202Y023385D01*
X016121Y023372D01*
X016032Y023343D01*
X016202Y023346D02*
X016317Y023346D01*
X016317Y023385D02*
X016317Y022438D01*
X016202Y022438D01*
X016202Y022322D01*
X016317Y022322D01*
X016317Y021375D01*
X016398Y021388D01*
X016487Y021417D01*
X016571Y021459D01*
X016646Y021514D01*
X016712Y021580D01*
X016767Y021656D01*
X016809Y021739D01*
X016838Y021828D01*
X016853Y021920D01*
X016853Y022322D01*
X016317Y022322D01*
X016317Y022438D01*
X016853Y022438D01*
X016853Y022840D01*
X016838Y022932D01*
X016809Y023021D01*
X016767Y023104D01*
X016712Y023180D01*
X016646Y023246D01*
X016571Y023301D01*
X016487Y023343D01*
X016398Y023372D01*
X016317Y023385D01*
X016480Y023346D02*
X019594Y023346D01*
X019925Y023346D02*
X021539Y023346D01*
X021314Y023187D02*
X020189Y023187D01*
X020398Y023029D02*
X021213Y023029D01*
X021171Y022870D02*
X020542Y022870D01*
X020607Y022712D02*
X021166Y022712D01*
X021166Y022553D02*
X020670Y022553D01*
X022205Y023187D02*
X023930Y023187D01*
X023721Y023029D02*
X022306Y023029D01*
X022348Y022870D02*
X023563Y022870D01*
X023404Y022712D02*
X022353Y022712D01*
X024551Y021285D02*
X028963Y021285D01*
X028963Y021418D02*
X028963Y020971D01*
X029057Y020877D01*
X029662Y020877D01*
X029756Y020971D01*
X029756Y021418D01*
X029730Y021444D01*
X030049Y021444D01*
X030143Y021538D01*
X030143Y022142D01*
X030091Y022194D01*
X030162Y022265D01*
X030162Y022949D01*
X030074Y023037D01*
X030265Y023037D01*
X030246Y023027D01*
X030213Y022993D01*
X030189Y022952D01*
X030177Y022906D01*
X030177Y022625D01*
X030535Y022625D01*
X030535Y022589D01*
X030177Y022589D01*
X030177Y022308D01*
X030189Y022262D01*
X030213Y022221D01*
X030240Y022194D01*
X030232Y022187D01*
X030209Y022146D01*
X030196Y022100D01*
X030196Y021840D01*
X030534Y021840D01*
X030871Y021840D01*
X030871Y022100D01*
X030859Y022146D01*
X030842Y022176D01*
X030861Y022187D01*
X030894Y022221D01*
X030918Y022262D01*
X030930Y022308D01*
X030930Y022589D01*
X030572Y022589D01*
X030572Y022625D01*
X030930Y022625D01*
X030930Y022906D01*
X030918Y022952D01*
X030894Y022993D01*
X030861Y023027D01*
X030820Y023050D01*
X030774Y023063D01*
X030572Y023063D01*
X030572Y022625D01*
X030535Y022625D01*
X030535Y023063D01*
X030468Y023063D01*
X030536Y023131D01*
X030536Y023434D01*
X031317Y024214D01*
X031360Y024317D01*
X031360Y024832D01*
X031380Y024841D01*
X031529Y024990D01*
X031600Y025162D01*
X031630Y025090D01*
X031779Y024941D01*
X031800Y024932D01*
X031800Y023909D01*
X031516Y023909D01*
X031423Y023815D01*
X031423Y023131D01*
X031511Y023043D01*
X031142Y023043D01*
X031049Y022949D01*
X031049Y022265D01*
X031139Y022174D01*
X031108Y022142D01*
X031108Y022062D01*
X031064Y022043D01*
X030984Y021963D01*
X030916Y021896D01*
X030880Y021808D01*
X030880Y021512D01*
X030846Y021512D01*
X030859Y021534D01*
X030871Y021580D01*
X030871Y021840D01*
X030534Y021840D01*
X030534Y021840D01*
X030534Y021424D01*
X030715Y021424D01*
X030761Y021436D01*
X030762Y021437D01*
X030743Y021418D01*
X030743Y020971D01*
X030837Y020877D01*
X031442Y020877D01*
X031536Y020971D01*
X031536Y021418D01*
X031510Y021444D01*
X031649Y021444D01*
X031743Y021538D01*
X031743Y022142D01*
X031691Y022194D01*
X031762Y022265D01*
X031762Y022949D01*
X031674Y023037D01*
X031865Y023037D01*
X031846Y023027D01*
X031813Y022993D01*
X031789Y022952D01*
X031777Y022906D01*
X031777Y022625D01*
X032135Y022625D01*
X032135Y022589D01*
X031777Y022589D01*
X031777Y022308D01*
X031789Y022262D01*
X031813Y022221D01*
X031840Y022194D01*
X031832Y022187D01*
X031809Y022146D01*
X031796Y022100D01*
X031796Y021840D01*
X032134Y021840D01*
X032471Y021840D01*
X032471Y022100D01*
X032459Y022146D01*
X032442Y022176D01*
X032461Y022187D01*
X032494Y022221D01*
X032518Y022262D01*
X032530Y022308D01*
X032530Y022589D01*
X032172Y022589D01*
X032172Y022625D01*
X032530Y022625D01*
X032530Y022906D01*
X032518Y022952D01*
X032494Y022993D01*
X032461Y023027D01*
X032420Y023050D01*
X032374Y023063D01*
X032172Y023063D01*
X032172Y022625D01*
X032135Y022625D01*
X032135Y023063D01*
X032068Y023063D01*
X032136Y023131D01*
X032136Y023434D01*
X032317Y023614D01*
X032360Y023717D01*
X032360Y024932D01*
X032380Y024941D01*
X032529Y025090D01*
X032550Y025140D01*
X032550Y024854D01*
X032643Y024760D01*
X032800Y024760D01*
X032800Y023617D01*
X032842Y023514D01*
X032923Y023434D01*
X032923Y023131D01*
X033011Y023043D01*
X032642Y023043D01*
X032549Y022949D01*
X032549Y022265D01*
X032639Y022174D01*
X032608Y022142D01*
X032608Y021808D01*
X032576Y021776D01*
X032540Y021688D01*
X032540Y021412D01*
X032497Y021412D01*
X032403Y021318D01*
X032403Y020871D01*
X032497Y020777D01*
X033102Y020777D01*
X033196Y020871D01*
X033196Y021318D01*
X033102Y021412D01*
X033020Y021412D01*
X033020Y021444D01*
X033149Y021444D01*
X033243Y021538D01*
X033243Y022142D01*
X033191Y022194D01*
X033262Y022265D01*
X033262Y022949D01*
X033174Y023037D01*
X033365Y023037D01*
X033346Y023027D01*
X033313Y022993D01*
X033289Y022952D01*
X033277Y022906D01*
X033277Y022625D01*
X033635Y022625D01*
X033635Y022589D01*
X033277Y022589D01*
X033277Y022308D01*
X033289Y022262D01*
X033313Y022221D01*
X033340Y022194D01*
X033332Y022187D01*
X033309Y022146D01*
X033296Y022100D01*
X033296Y021840D01*
X033634Y021840D01*
X033971Y021840D01*
X033971Y022100D01*
X033959Y022146D01*
X033942Y022176D01*
X033961Y022187D01*
X033994Y022221D01*
X034018Y022262D01*
X034030Y022308D01*
X034030Y022589D01*
X033672Y022589D01*
X033672Y022625D01*
X034030Y022625D01*
X034030Y022906D01*
X034018Y022952D01*
X033994Y022993D01*
X033961Y023027D01*
X033920Y023050D01*
X033874Y023063D01*
X033672Y023063D01*
X033672Y022625D01*
X033635Y022625D01*
X033635Y023063D01*
X033568Y023063D01*
X033636Y023131D01*
X033636Y023815D01*
X033543Y023909D01*
X033360Y023909D01*
X033360Y024760D01*
X033516Y024760D01*
X033610Y024854D01*
X033610Y025726D01*
X033516Y025820D01*
X032643Y025820D01*
X032550Y025726D01*
X032550Y025640D01*
X032529Y025690D01*
X032380Y025839D01*
X032185Y025920D01*
X031974Y025920D01*
X031779Y025839D01*
X031630Y025690D01*
X031559Y025518D01*
X031529Y025590D01*
X031380Y025739D01*
X031185Y025820D01*
X030974Y025820D01*
X030779Y025739D01*
X030630Y025590D01*
X030600Y025518D01*
X030529Y025690D01*
X030380Y025839D01*
X030185Y025920D01*
X029974Y025920D01*
X029779Y025839D01*
X029630Y025690D01*
X029550Y025495D01*
X029550Y025285D01*
X029630Y025090D01*
X029779Y024941D01*
X029974Y024860D01*
X030185Y024860D01*
X030380Y024941D01*
X030529Y025090D01*
X030559Y025162D01*
X030630Y024990D01*
X030779Y024841D01*
X030800Y024832D01*
X030800Y024489D01*
X030219Y023909D01*
X029916Y023909D01*
X029823Y023815D01*
X029823Y023131D01*
X029911Y023043D01*
X029542Y023043D01*
X029449Y022949D01*
X029449Y022265D01*
X029539Y022174D01*
X029508Y022142D01*
X029508Y022080D01*
X029452Y022080D01*
X029364Y022043D01*
X029224Y021903D01*
X029156Y021836D01*
X029120Y021748D01*
X029120Y021512D01*
X029057Y021512D01*
X028963Y021418D01*
X028989Y021444D02*
X027540Y021444D01*
X027317Y021444D02*
X027202Y021444D01*
X027202Y021375D02*
X027202Y022322D01*
X026666Y022322D01*
X026666Y021920D01*
X026681Y021828D01*
X026710Y021739D01*
X026752Y021656D01*
X026807Y021580D01*
X026873Y021514D01*
X026949Y021459D01*
X027032Y021417D01*
X027121Y021388D01*
X027202Y021375D01*
X027202Y021602D02*
X027317Y021602D01*
X027317Y021761D02*
X027202Y021761D01*
X027202Y021919D02*
X027317Y021919D01*
X027317Y022078D02*
X027202Y022078D01*
X027202Y022236D02*
X027317Y022236D01*
X027317Y022395D02*
X029449Y022395D01*
X029449Y022553D02*
X027853Y022553D01*
X027853Y022712D02*
X029449Y022712D01*
X029449Y022870D02*
X027848Y022870D01*
X027806Y023029D02*
X029528Y023029D01*
X029823Y023187D02*
X027705Y023187D01*
X027317Y023187D02*
X027202Y023187D01*
X027202Y023029D02*
X027317Y023029D01*
X027317Y022870D02*
X027202Y022870D01*
X027202Y022712D02*
X027317Y022712D01*
X027317Y022553D02*
X027202Y022553D01*
X027202Y022395D02*
X026170Y022395D01*
X026170Y022553D02*
X026666Y022553D01*
X026666Y022712D02*
X026107Y022712D01*
X026042Y022870D02*
X026671Y022870D01*
X026713Y023029D02*
X025898Y023029D01*
X025689Y023187D02*
X026814Y023187D01*
X026666Y022236D02*
X026170Y022236D01*
X026119Y022078D02*
X026666Y022078D01*
X026666Y021919D02*
X026054Y021919D01*
X025927Y021761D02*
X026703Y021761D01*
X026791Y021602D02*
X025759Y021602D01*
X025495Y021444D02*
X026979Y021444D01*
X027728Y021602D02*
X029120Y021602D01*
X029125Y021761D02*
X027816Y021761D01*
X027853Y021919D02*
X029239Y021919D01*
X029360Y021700D02*
X029500Y021840D01*
X029825Y021840D01*
X029805Y021860D01*
X029805Y022607D01*
X030162Y022553D02*
X030177Y022553D01*
X030162Y022395D02*
X030177Y022395D01*
X030204Y022236D02*
X030133Y022236D01*
X030143Y022078D02*
X030196Y022078D01*
X030196Y021919D02*
X030143Y021919D01*
X030196Y021840D02*
X030196Y021580D01*
X030209Y021534D01*
X030232Y021493D01*
X030266Y021460D01*
X030307Y021436D01*
X030353Y021424D01*
X030534Y021424D01*
X030534Y021840D01*
X030534Y021840D01*
X030196Y021840D01*
X030196Y021761D02*
X030143Y021761D01*
X030143Y021602D02*
X030196Y021602D01*
X030294Y021444D02*
X029730Y021444D01*
X029756Y021285D02*
X030743Y021285D01*
X030743Y021127D02*
X029756Y021127D01*
X029753Y020968D02*
X030746Y020968D01*
X030837Y020803D02*
X030743Y020709D01*
X030743Y020262D01*
X030837Y020168D01*
X030920Y020168D01*
X030920Y019519D01*
X030640Y019519D01*
X030546Y019425D01*
X030546Y018702D01*
X030640Y018608D01*
X031883Y018608D01*
X031897Y018600D01*
X031942Y018588D01*
X032065Y018588D01*
X032065Y019063D01*
X032065Y019063D01*
X032065Y019063D01*
X032065Y019539D01*
X031980Y019539D01*
X031980Y019549D01*
X032111Y019680D01*
X033431Y019680D01*
X033560Y019809D01*
X033620Y019869D01*
X033620Y020129D01*
X033756Y020266D01*
X034223Y020266D01*
X034223Y020262D01*
X034317Y020168D01*
X034922Y020168D01*
X035016Y020262D01*
X035016Y020709D01*
X034922Y020803D01*
X034317Y020803D01*
X034223Y020709D01*
X034223Y020706D01*
X033574Y020706D01*
X033308Y020440D01*
X033196Y020327D01*
X033196Y020609D01*
X033102Y020703D01*
X032497Y020703D01*
X032403Y020609D01*
X032403Y020606D01*
X031794Y020606D01*
X031536Y020347D01*
X031536Y020709D01*
X031442Y020803D01*
X030837Y020803D01*
X030743Y020651D02*
X029756Y020651D01*
X029756Y020493D02*
X030743Y020493D01*
X030743Y020334D02*
X029756Y020334D01*
X029669Y020176D02*
X030830Y020176D01*
X030920Y020017D02*
X029380Y020017D01*
X029380Y019859D02*
X030920Y019859D01*
X030920Y019700D02*
X029380Y019700D01*
X029380Y019542D02*
X030920Y019542D01*
X030546Y019383D02*
X029380Y019383D01*
X029380Y019225D02*
X030546Y019225D01*
X030546Y019066D02*
X029380Y019066D01*
X029380Y018908D02*
X030546Y018908D01*
X030546Y018749D02*
X029380Y018749D01*
X029380Y018591D02*
X029712Y018591D01*
X029641Y018432D02*
X029439Y018432D01*
X029133Y018115D02*
X025111Y018115D01*
X024953Y018274D02*
X028975Y018274D01*
X028940Y018432D02*
X024794Y018432D01*
X024636Y018591D02*
X028940Y018591D01*
X028940Y018749D02*
X024477Y018749D01*
X024470Y018908D02*
X028940Y018908D01*
X028940Y019066D02*
X024470Y019066D01*
X024470Y019225D02*
X028940Y019225D01*
X028940Y019383D02*
X025358Y019383D01*
X025384Y019394D02*
X025546Y019555D01*
X025633Y019766D01*
X025633Y019994D01*
X025546Y020205D01*
X025384Y020366D01*
X025174Y020453D01*
X024945Y020453D01*
X024735Y020366D01*
X024573Y020205D01*
X024486Y019994D01*
X024486Y019766D01*
X024573Y019555D01*
X024735Y019394D01*
X024945Y019307D01*
X025174Y019307D01*
X025384Y019394D01*
X025532Y019542D02*
X028940Y019542D01*
X028940Y019700D02*
X025606Y019700D01*
X025633Y019859D02*
X028940Y019859D01*
X028940Y020017D02*
X025623Y020017D01*
X025558Y020176D02*
X028940Y020176D01*
X028940Y020334D02*
X025416Y020334D01*
X024703Y020334D02*
X024470Y020334D01*
X024470Y020176D02*
X024561Y020176D01*
X024496Y020017D02*
X024470Y020017D01*
X024470Y019859D02*
X024486Y019859D01*
X024470Y019700D02*
X024513Y019700D01*
X024470Y019542D02*
X024587Y019542D01*
X024470Y019383D02*
X024761Y019383D01*
X024470Y020493D02*
X028940Y020493D01*
X028963Y020651D02*
X024470Y020651D01*
X024470Y020810D02*
X032464Y020810D01*
X032445Y020651D02*
X031536Y020651D01*
X031536Y020493D02*
X031681Y020493D01*
X031533Y020968D02*
X032403Y020968D01*
X032403Y021127D02*
X031536Y021127D01*
X031536Y021285D02*
X032403Y021285D01*
X032361Y021436D02*
X032402Y021460D01*
X032435Y021493D01*
X032459Y021534D01*
X032471Y021580D01*
X032471Y021840D01*
X032134Y021840D01*
X032134Y021840D01*
X032134Y021424D01*
X032315Y021424D01*
X032361Y021436D01*
X032374Y021444D02*
X032540Y021444D01*
X032540Y021602D02*
X032471Y021602D01*
X032471Y021761D02*
X032570Y021761D01*
X032608Y021919D02*
X032471Y021919D01*
X032471Y022078D02*
X032608Y022078D01*
X032578Y022236D02*
X032503Y022236D01*
X032530Y022395D02*
X032549Y022395D01*
X032549Y022553D02*
X032530Y022553D01*
X032530Y022712D02*
X032549Y022712D01*
X032549Y022870D02*
X032530Y022870D01*
X032457Y023029D02*
X032628Y023029D01*
X032923Y023187D02*
X032136Y023187D01*
X032135Y023029D02*
X032172Y023029D01*
X032172Y022870D02*
X032135Y022870D01*
X032135Y022712D02*
X032172Y022712D01*
X031777Y022712D02*
X031762Y022712D01*
X031762Y022870D02*
X031777Y022870D01*
X031850Y023029D02*
X031683Y023029D01*
X031423Y023187D02*
X030536Y023187D01*
X030535Y023029D02*
X030572Y023029D01*
X030572Y022870D02*
X030535Y022870D01*
X030535Y022712D02*
X030572Y022712D01*
X030930Y022712D02*
X031049Y022712D01*
X031049Y022870D02*
X030930Y022870D01*
X030857Y023029D02*
X031128Y023029D01*
X031423Y023346D02*
X030536Y023346D01*
X030606Y023504D02*
X031423Y023504D01*
X031423Y023663D02*
X030765Y023663D01*
X030923Y023821D02*
X031429Y023821D01*
X031240Y024138D02*
X031800Y024138D01*
X031800Y023980D02*
X031082Y023980D01*
X031351Y024297D02*
X031800Y024297D01*
X031800Y024455D02*
X031360Y024455D01*
X031360Y024614D02*
X031800Y024614D01*
X031800Y024772D02*
X031360Y024772D01*
X031470Y024931D02*
X031800Y024931D01*
X031631Y025089D02*
X031570Y025089D01*
X031578Y025565D02*
X031539Y025565D01*
X031663Y025723D02*
X031396Y025723D01*
X031881Y025882D02*
X030278Y025882D01*
X030496Y025723D02*
X030763Y025723D01*
X030620Y025565D02*
X030581Y025565D01*
X030589Y025089D02*
X030528Y025089D01*
X030689Y024931D02*
X030355Y024931D01*
X030800Y024772D02*
X005790Y024772D01*
X005790Y024829D02*
X005713Y025116D01*
X005564Y025374D01*
X005353Y025584D01*
X005096Y025733D01*
X004808Y025810D01*
X004511Y025810D01*
X004223Y025733D01*
X003966Y025584D01*
X003755Y025374D01*
X003607Y025116D01*
X003530Y024829D01*
X003530Y024531D01*
X003607Y024244D01*
X003755Y023986D01*
X003966Y023776D01*
X004223Y023627D01*
X004511Y023550D01*
X004808Y023550D01*
X005096Y023627D01*
X005353Y023776D01*
X005564Y023986D01*
X005713Y024244D01*
X005790Y024531D01*
X005790Y024829D01*
X005762Y024931D02*
X029804Y024931D01*
X029631Y025089D02*
X005720Y025089D01*
X005637Y025248D02*
X029565Y025248D01*
X029550Y025406D02*
X005532Y025406D01*
X005373Y025565D02*
X029578Y025565D01*
X029663Y025723D02*
X005113Y025723D01*
X004206Y025723D02*
X003240Y025723D01*
X003240Y025565D02*
X003946Y025565D01*
X003787Y025406D02*
X003240Y025406D01*
X003240Y025248D02*
X003682Y025248D01*
X003599Y025089D02*
X003240Y025089D01*
X003240Y024931D02*
X003557Y024931D01*
X003530Y024772D02*
X003240Y024772D01*
X003240Y024614D02*
X003530Y024614D01*
X003550Y024455D02*
X003240Y024455D01*
X003240Y024297D02*
X003592Y024297D01*
X003668Y024138D02*
X003240Y024138D01*
X003240Y023980D02*
X003762Y023980D01*
X003920Y023821D02*
X003240Y023821D01*
X003240Y023663D02*
X004162Y023663D01*
X005157Y023663D02*
X029823Y023663D01*
X029829Y023821D02*
X005399Y023821D01*
X005557Y023980D02*
X030290Y023980D01*
X030449Y024138D02*
X005651Y024138D01*
X005727Y024297D02*
X030607Y024297D01*
X030766Y024455D02*
X005769Y024455D01*
X005790Y024614D02*
X030800Y024614D01*
X032337Y023663D02*
X032800Y023663D01*
X032800Y023821D02*
X032360Y023821D01*
X032360Y023980D02*
X032800Y023980D01*
X032800Y024138D02*
X032360Y024138D01*
X032360Y024297D02*
X032800Y024297D01*
X032800Y024455D02*
X032360Y024455D01*
X032360Y024614D02*
X032800Y024614D01*
X032631Y024772D02*
X032360Y024772D01*
X032360Y024931D02*
X032550Y024931D01*
X032550Y025089D02*
X032528Y025089D01*
X032496Y025723D02*
X032550Y025723D01*
X032278Y025882D02*
X037370Y025882D01*
X037263Y025853D02*
X037006Y025704D01*
X036795Y025494D01*
X036647Y025236D01*
X036570Y024949D01*
X036570Y024651D01*
X036647Y024364D01*
X036795Y024106D01*
X037006Y023896D01*
X037263Y023747D01*
X037551Y023670D01*
X037848Y023670D01*
X038136Y023747D01*
X038393Y023896D01*
X038604Y024106D01*
X038753Y024364D01*
X038830Y024651D01*
X038830Y024949D01*
X038753Y025236D01*
X038604Y025494D01*
X038393Y025704D01*
X038136Y025853D01*
X037848Y025930D01*
X037551Y025930D01*
X037263Y025853D01*
X037038Y025723D02*
X036120Y025723D01*
X036120Y025756D02*
X036026Y025850D01*
X035153Y025850D01*
X035060Y025756D01*
X035060Y024884D01*
X035153Y024790D01*
X035270Y024790D01*
X035270Y024316D01*
X034843Y023889D01*
X034596Y023889D01*
X034503Y023795D01*
X034503Y023111D01*
X034591Y023023D01*
X034222Y023023D01*
X034129Y022929D01*
X034129Y022245D01*
X034219Y022154D01*
X034188Y022122D01*
X034188Y021518D01*
X034255Y021450D01*
X034223Y021418D01*
X034223Y020971D01*
X034317Y020877D01*
X034922Y020877D01*
X035016Y020971D01*
X035016Y021408D01*
X035033Y021404D01*
X035214Y021404D01*
X035395Y021404D01*
X035441Y021416D01*
X035482Y021440D01*
X035515Y021473D01*
X035539Y021514D01*
X035551Y021560D01*
X035551Y021820D01*
X035551Y022080D01*
X035539Y022126D01*
X035522Y022156D01*
X035541Y022167D01*
X035574Y022201D01*
X035598Y022242D01*
X035610Y022288D01*
X035610Y022569D01*
X035252Y022569D01*
X035252Y022605D01*
X035610Y022605D01*
X035610Y022886D01*
X035598Y022932D01*
X035574Y022973D01*
X035541Y023007D01*
X035500Y023030D01*
X035454Y023043D01*
X035252Y023043D01*
X035252Y022605D01*
X035215Y022605D01*
X035215Y022569D01*
X034857Y022569D01*
X034857Y022288D01*
X034869Y022242D01*
X034893Y022201D01*
X034920Y022174D01*
X034912Y022167D01*
X034889Y022126D01*
X034876Y022080D01*
X034876Y021820D01*
X035214Y021820D01*
X035551Y021820D01*
X035214Y021820D01*
X035214Y021820D01*
X035214Y021404D01*
X035214Y021820D01*
X035214Y021820D01*
X034876Y021820D01*
X034876Y021560D01*
X034889Y021514D01*
X034890Y021512D01*
X034817Y021512D01*
X034823Y021518D01*
X034823Y022122D01*
X034771Y022174D01*
X034842Y022245D01*
X034842Y022929D01*
X034754Y023017D01*
X034945Y023017D01*
X034926Y023007D01*
X034893Y022973D01*
X034869Y022932D01*
X034857Y022886D01*
X034857Y022605D01*
X035215Y022605D01*
X035215Y023043D01*
X035148Y023043D01*
X035216Y023111D01*
X035216Y023357D01*
X035861Y024002D01*
X035910Y024119D01*
X035910Y024790D01*
X036026Y024790D01*
X036120Y024884D01*
X036120Y025756D01*
X036120Y025565D02*
X036866Y025565D01*
X036745Y025406D02*
X036120Y025406D01*
X036120Y025248D02*
X036653Y025248D01*
X036607Y025089D02*
X036120Y025089D01*
X036120Y024931D02*
X036570Y024931D01*
X036570Y024772D02*
X035910Y024772D01*
X035910Y024614D02*
X036580Y024614D01*
X036622Y024455D02*
X035910Y024455D01*
X035910Y024297D02*
X036685Y024297D01*
X036777Y024138D02*
X035910Y024138D01*
X035839Y023980D02*
X036922Y023980D01*
X037135Y023821D02*
X035680Y023821D01*
X035522Y023663D02*
X039280Y023663D01*
X039280Y023821D02*
X038264Y023821D01*
X038477Y023980D02*
X039280Y023980D01*
X039280Y024138D02*
X038622Y024138D01*
X038714Y024297D02*
X039280Y024297D01*
X039280Y024455D02*
X038777Y024455D01*
X038819Y024614D02*
X039280Y024614D01*
X039280Y024772D02*
X038830Y024772D01*
X038830Y024931D02*
X039280Y024931D01*
X039280Y025089D02*
X038792Y025089D01*
X038746Y025248D02*
X039280Y025248D01*
X039280Y025406D02*
X038654Y025406D01*
X038533Y025565D02*
X039280Y025565D01*
X039280Y025723D02*
X038361Y025723D01*
X038029Y025882D02*
X039280Y025882D01*
X039280Y026040D02*
X003240Y026040D01*
X003240Y025882D02*
X029881Y025882D01*
X032206Y023504D02*
X032853Y023504D01*
X032923Y023346D02*
X032136Y023346D01*
X031777Y022553D02*
X031762Y022553D01*
X031762Y022395D02*
X031777Y022395D01*
X031804Y022236D02*
X031733Y022236D01*
X031743Y022078D02*
X031796Y022078D01*
X031796Y021919D02*
X031743Y021919D01*
X031796Y021840D02*
X031796Y021580D01*
X031809Y021534D01*
X031832Y021493D01*
X031866Y021460D01*
X031907Y021436D01*
X031953Y021424D01*
X032134Y021424D01*
X032134Y021840D01*
X032134Y021840D01*
X031796Y021840D01*
X031796Y021761D02*
X031743Y021761D01*
X031743Y021602D02*
X031796Y021602D01*
X031894Y021444D02*
X031510Y021444D01*
X031140Y021194D02*
X031120Y021214D01*
X031120Y021760D01*
X031200Y021840D01*
X031425Y021840D01*
X031405Y021860D01*
X031405Y022607D01*
X031049Y022553D02*
X030930Y022553D01*
X030930Y022395D02*
X031049Y022395D01*
X031078Y022236D02*
X030903Y022236D01*
X030871Y022078D02*
X031108Y022078D01*
X030939Y021919D02*
X030871Y021919D01*
X030871Y021761D02*
X030880Y021761D01*
X030871Y021602D02*
X030880Y021602D01*
X030534Y021602D02*
X030534Y021602D01*
X030534Y021444D02*
X030534Y021444D01*
X030534Y021761D02*
X030534Y021761D01*
X030534Y021840D02*
X030534Y021840D01*
X030177Y022712D02*
X030162Y022712D01*
X030162Y022870D02*
X030177Y022870D01*
X030250Y023029D02*
X030083Y023029D01*
X029478Y022236D02*
X027853Y022236D01*
X027853Y022078D02*
X029446Y022078D01*
X029360Y021700D02*
X029360Y021194D01*
X028963Y021127D02*
X024470Y021127D01*
X024470Y020968D02*
X028966Y020968D01*
X030480Y018591D02*
X031934Y018591D01*
X032065Y018591D02*
X032065Y018591D01*
X032065Y018749D02*
X032065Y018749D01*
X032065Y018908D02*
X032065Y018908D01*
X032065Y019066D02*
X032065Y019066D01*
X032065Y019225D02*
X032065Y019225D01*
X032065Y019383D02*
X032065Y019383D01*
X031980Y019542D02*
X033429Y019542D01*
X033451Y019700D02*
X033543Y019700D01*
X033609Y019859D02*
X034266Y019859D01*
X034457Y020017D02*
X033620Y020017D01*
X033666Y020176D02*
X034310Y020176D01*
X034702Y020017D02*
X036293Y020017D01*
X036293Y020176D02*
X034929Y020176D01*
X035016Y020334D02*
X036293Y020334D01*
X036293Y020493D02*
X035016Y020493D01*
X035016Y020651D02*
X036293Y020651D01*
X036293Y020810D02*
X033135Y020810D01*
X033154Y020651D02*
X033519Y020651D01*
X033361Y020493D02*
X033196Y020493D01*
X033196Y020334D02*
X033202Y020334D01*
X033196Y020968D02*
X034226Y020968D01*
X034223Y021127D02*
X033196Y021127D01*
X033196Y021285D02*
X034223Y021285D01*
X034249Y021444D02*
X033874Y021444D01*
X033861Y021436D02*
X033902Y021460D01*
X033935Y021493D01*
X033959Y021534D01*
X033971Y021580D01*
X033971Y021840D01*
X033634Y021840D01*
X033634Y021840D01*
X033634Y021424D01*
X033815Y021424D01*
X033861Y021436D01*
X033971Y021602D02*
X034188Y021602D01*
X034188Y021761D02*
X033971Y021761D01*
X033971Y021919D02*
X034188Y021919D01*
X034188Y022078D02*
X033971Y022078D01*
X034003Y022236D02*
X034138Y022236D01*
X034129Y022395D02*
X034030Y022395D01*
X034030Y022553D02*
X034129Y022553D01*
X034129Y022712D02*
X034030Y022712D01*
X034030Y022870D02*
X034129Y022870D01*
X033957Y023029D02*
X034585Y023029D01*
X034503Y023187D02*
X033636Y023187D01*
X033635Y023029D02*
X033672Y023029D01*
X033672Y022870D02*
X033635Y022870D01*
X033635Y022712D02*
X033672Y022712D01*
X033277Y022712D02*
X033262Y022712D01*
X033262Y022870D02*
X033277Y022870D01*
X033350Y023029D02*
X033183Y023029D01*
X033636Y023346D02*
X034503Y023346D01*
X034503Y023504D02*
X033636Y023504D01*
X033636Y023663D02*
X034503Y023663D01*
X034529Y023821D02*
X033630Y023821D01*
X033360Y023980D02*
X034933Y023980D01*
X035092Y024138D02*
X033360Y024138D01*
X033360Y024297D02*
X035250Y024297D01*
X035270Y024455D02*
X033360Y024455D01*
X033360Y024614D02*
X035270Y024614D01*
X035270Y024772D02*
X033528Y024772D01*
X033610Y024931D02*
X034129Y024931D01*
X034189Y024871D02*
X034384Y024790D01*
X034595Y024790D01*
X034790Y024871D01*
X034939Y025020D01*
X035020Y025215D01*
X035020Y025425D01*
X034939Y025620D01*
X034790Y025769D01*
X034595Y025850D01*
X034384Y025850D01*
X034189Y025769D01*
X034040Y025620D01*
X033960Y025425D01*
X033960Y025215D01*
X034040Y025020D01*
X034189Y024871D01*
X034012Y025089D02*
X033610Y025089D01*
X033610Y025248D02*
X033960Y025248D01*
X033960Y025406D02*
X033610Y025406D01*
X033610Y025565D02*
X034017Y025565D01*
X034143Y025723D02*
X033610Y025723D01*
X034836Y025723D02*
X035060Y025723D01*
X035060Y025565D02*
X034962Y025565D01*
X035020Y025406D02*
X035060Y025406D01*
X035060Y025248D02*
X035020Y025248D01*
X035060Y025089D02*
X034968Y025089D01*
X035060Y024931D02*
X034850Y024931D01*
X035363Y023504D02*
X039280Y023504D01*
X039280Y023346D02*
X036820Y023346D01*
X036823Y023339D02*
X036800Y023380D01*
X036766Y023414D01*
X036725Y023437D01*
X036679Y023450D01*
X036458Y023450D01*
X036458Y023072D01*
X036381Y023072D01*
X036381Y023450D01*
X036160Y023450D01*
X036114Y023437D01*
X036073Y023414D01*
X036039Y023380D01*
X036016Y023339D01*
X036003Y023293D01*
X036003Y023071D01*
X036381Y023071D01*
X036381Y022995D01*
X036003Y022995D01*
X036003Y022773D01*
X036016Y022728D01*
X036039Y022687D01*
X036073Y022653D01*
X036114Y022629D01*
X036160Y022617D01*
X036381Y022617D01*
X036381Y022995D01*
X036458Y022995D01*
X036458Y023071D01*
X036836Y023071D01*
X036836Y023293D01*
X036823Y023339D01*
X036836Y023187D02*
X039280Y023187D01*
X039280Y023029D02*
X038427Y023029D01*
X038351Y023060D02*
X038520Y022990D01*
X038649Y022861D01*
X038720Y022691D01*
X038720Y022508D01*
X038649Y022339D01*
X038520Y022210D01*
X038351Y022140D01*
X037568Y022140D01*
X037399Y022210D01*
X037270Y022339D01*
X037200Y022508D01*
X037200Y022691D01*
X037270Y022861D01*
X037399Y022990D01*
X037568Y023060D01*
X038351Y023060D01*
X038640Y022870D02*
X039280Y022870D01*
X039280Y022712D02*
X038711Y022712D01*
X038720Y022553D02*
X039280Y022553D01*
X039280Y022395D02*
X038672Y022395D01*
X038546Y022236D02*
X039280Y022236D01*
X039280Y022078D02*
X036816Y022078D01*
X036816Y022236D02*
X037373Y022236D01*
X037468Y022060D02*
X037299Y021990D01*
X037170Y021861D01*
X037100Y021691D01*
X037100Y021508D01*
X037170Y021339D01*
X037299Y021210D01*
X037468Y021140D01*
X038251Y021140D01*
X038420Y021210D01*
X038549Y021339D01*
X038620Y021508D01*
X038620Y021691D01*
X038549Y021861D01*
X038420Y021990D01*
X038251Y022060D01*
X037468Y022060D01*
X037228Y021919D02*
X036816Y021919D01*
X036733Y021761D02*
X037128Y021761D01*
X037100Y021602D02*
X036733Y021602D01*
X036733Y021444D02*
X037126Y021444D01*
X037224Y021285D02*
X036733Y021285D01*
X036733Y021127D02*
X039280Y021127D01*
X039280Y021285D02*
X038495Y021285D01*
X038593Y021444D02*
X039280Y021444D01*
X039280Y021602D02*
X038620Y021602D01*
X038591Y021761D02*
X039280Y021761D01*
X039280Y021919D02*
X038491Y021919D01*
X038372Y021068D02*
X038297Y021080D01*
X037980Y021080D01*
X037980Y020620D01*
X038740Y020620D01*
X038740Y020638D01*
X038728Y020712D01*
X038704Y020784D01*
X038670Y020852D01*
X038626Y020913D01*
X038572Y020966D01*
X038511Y021011D01*
X038444Y021045D01*
X038372Y021068D01*
X038570Y020968D02*
X039280Y020968D01*
X039280Y020810D02*
X038691Y020810D01*
X038737Y020651D02*
X039280Y020651D01*
X039280Y020493D02*
X038728Y020493D01*
X038728Y020488D02*
X038740Y020562D01*
X038740Y020580D01*
X037980Y020580D01*
X037980Y020620D01*
X037940Y020620D01*
X037940Y021080D01*
X037622Y021080D01*
X037547Y021068D01*
X037475Y021045D01*
X037408Y021011D01*
X037347Y020966D01*
X037293Y020913D01*
X037249Y020852D01*
X037215Y020784D01*
X037191Y020712D01*
X037180Y020638D01*
X037180Y020620D01*
X037940Y020620D01*
X037940Y020580D01*
X037980Y020580D01*
X037980Y020120D01*
X038297Y020120D01*
X038372Y020132D01*
X038444Y020155D01*
X038511Y020189D01*
X038572Y020234D01*
X038626Y020287D01*
X038670Y020348D01*
X038704Y020416D01*
X038728Y020488D01*
X038660Y020334D02*
X039280Y020334D01*
X039280Y020176D02*
X038484Y020176D01*
X038355Y020017D02*
X039280Y020017D01*
X039280Y019859D02*
X038550Y019859D01*
X038616Y019700D02*
X039280Y019700D01*
X039280Y019542D02*
X038620Y019542D01*
X038568Y019383D02*
X039280Y019383D01*
X039280Y019225D02*
X038435Y019225D01*
X038603Y018908D02*
X039280Y018908D01*
X039280Y019066D02*
X037623Y019066D01*
X037187Y019225D02*
X036890Y019225D01*
X036890Y019383D02*
X037151Y019383D01*
X037100Y019542D02*
X036890Y019542D01*
X036890Y019700D02*
X037103Y019700D01*
X037169Y019859D02*
X036890Y019859D01*
X036733Y020017D02*
X037364Y020017D01*
X037435Y020176D02*
X036733Y020176D01*
X036733Y020334D02*
X037259Y020334D01*
X037249Y020348D02*
X037293Y020287D01*
X037347Y020234D01*
X037408Y020189D01*
X037475Y020155D01*
X037547Y020132D01*
X037622Y020120D01*
X037940Y020120D01*
X037940Y020580D01*
X037180Y020580D01*
X037180Y020562D01*
X037191Y020488D01*
X037215Y020416D01*
X037249Y020348D01*
X037191Y020493D02*
X036733Y020493D01*
X036733Y020651D02*
X037182Y020651D01*
X037228Y020810D02*
X036733Y020810D01*
X036733Y020968D02*
X037349Y020968D01*
X037940Y020968D02*
X037980Y020968D01*
X037980Y020810D02*
X037940Y020810D01*
X037940Y020651D02*
X037980Y020651D01*
X037980Y020493D02*
X037940Y020493D01*
X037940Y020334D02*
X037980Y020334D01*
X037980Y020176D02*
X037940Y020176D01*
X036293Y020968D02*
X035013Y020968D01*
X035016Y021127D02*
X036293Y021127D01*
X036293Y021285D02*
X035016Y021285D01*
X035214Y021444D02*
X035214Y021444D01*
X035214Y021602D02*
X035214Y021602D01*
X035214Y021761D02*
X035214Y021761D01*
X035214Y021820D02*
X035214Y021820D01*
X035551Y021761D02*
X036293Y021761D01*
X036293Y021602D02*
X035551Y021602D01*
X035486Y021444D02*
X036293Y021444D01*
X036023Y021919D02*
X035551Y021919D01*
X035551Y022078D02*
X036023Y022078D01*
X036023Y022236D02*
X035595Y022236D01*
X035610Y022395D02*
X036023Y022395D01*
X036067Y022553D02*
X035610Y022553D01*
X035610Y022712D02*
X036025Y022712D01*
X036003Y022870D02*
X035610Y022870D01*
X035503Y023029D02*
X036381Y023029D01*
X036458Y023029D02*
X037492Y023029D01*
X037279Y022870D02*
X036836Y022870D01*
X036836Y022773D02*
X036836Y022995D01*
X036458Y022995D01*
X036458Y022617D01*
X036679Y022617D01*
X036725Y022629D01*
X036766Y022653D01*
X036800Y022687D01*
X036823Y022728D01*
X036836Y022773D01*
X036814Y022712D02*
X037208Y022712D01*
X037200Y022553D02*
X036772Y022553D01*
X036816Y022395D02*
X037247Y022395D01*
X036458Y022712D02*
X036381Y022712D01*
X036381Y022870D02*
X036458Y022870D01*
X036458Y023187D02*
X036381Y023187D01*
X036381Y023346D02*
X036458Y023346D01*
X036019Y023346D02*
X035216Y023346D01*
X035216Y023187D02*
X036003Y023187D01*
X035252Y023029D02*
X035215Y023029D01*
X035215Y022870D02*
X035252Y022870D01*
X035252Y022712D02*
X035215Y022712D01*
X034857Y022712D02*
X034842Y022712D01*
X034842Y022870D02*
X034857Y022870D01*
X034842Y022553D02*
X034857Y022553D01*
X034842Y022395D02*
X034857Y022395D01*
X034872Y022236D02*
X034833Y022236D01*
X034823Y022078D02*
X034876Y022078D01*
X034876Y021919D02*
X034823Y021919D01*
X034823Y021761D02*
X034876Y021761D01*
X034876Y021602D02*
X034823Y021602D01*
X034505Y021820D02*
X034505Y021309D01*
X034620Y021194D01*
X034505Y021820D02*
X034485Y021840D01*
X034485Y022587D01*
X033634Y021840D02*
X033634Y021840D01*
X033634Y021424D01*
X033453Y021424D01*
X033407Y021436D01*
X033366Y021460D01*
X033332Y021493D01*
X033309Y021534D01*
X033296Y021580D01*
X033296Y021840D01*
X033634Y021840D01*
X033634Y021840D01*
X033634Y021761D02*
X033634Y021761D01*
X033634Y021602D02*
X033634Y021602D01*
X033634Y021444D02*
X033634Y021444D01*
X033394Y021444D02*
X033020Y021444D01*
X033243Y021602D02*
X033296Y021602D01*
X033296Y021761D02*
X033243Y021761D01*
X033243Y021919D02*
X033296Y021919D01*
X033296Y022078D02*
X033243Y022078D01*
X033233Y022236D02*
X033304Y022236D01*
X033277Y022395D02*
X033262Y022395D01*
X033262Y022553D02*
X033277Y022553D01*
X032905Y022607D02*
X032905Y021860D01*
X032925Y021840D01*
X032925Y021786D01*
X032780Y021640D01*
X032780Y021114D01*
X032800Y021094D01*
X032134Y021444D02*
X032134Y021444D01*
X032134Y021602D02*
X032134Y021602D01*
X032134Y021761D02*
X032134Y021761D01*
X032134Y021840D02*
X032134Y021840D01*
X034893Y019859D02*
X035349Y019859D01*
X035223Y019700D02*
X034938Y019700D01*
X034910Y019542D02*
X035064Y019542D01*
X035050Y019383D02*
X035003Y019383D01*
X034973Y018908D02*
X035050Y018908D01*
X035050Y018749D02*
X034213Y018749D01*
X034279Y018591D02*
X032620Y018591D01*
X032734Y018432D02*
X034208Y018432D01*
X034208Y018274D02*
X032798Y018274D01*
X032784Y018115D02*
X034208Y018115D01*
X034208Y017957D02*
X032682Y017957D01*
X032440Y018220D02*
X032380Y018280D01*
X032380Y019063D01*
X032140Y018432D02*
X030551Y018432D01*
X030551Y018274D02*
X032081Y018274D01*
X032095Y018115D02*
X030551Y018115D01*
X030551Y017957D02*
X032197Y017957D01*
X031583Y017323D02*
X033783Y017323D01*
X033701Y017164D02*
X031696Y017164D01*
X031718Y017006D02*
X033712Y017006D01*
X033814Y016847D02*
X031667Y016847D01*
X031136Y017323D02*
X030994Y017323D01*
X031010Y017164D02*
X031023Y017164D01*
X030835Y017481D02*
X034208Y017481D01*
X034208Y017640D02*
X030551Y017640D01*
X030551Y017798D02*
X034208Y017798D01*
X035047Y018591D02*
X035050Y018591D01*
X036130Y018274D02*
X037335Y018274D01*
X037615Y017798D02*
X036130Y017798D01*
X036130Y017640D02*
X037416Y017640D01*
X037330Y017481D02*
X036130Y017481D01*
X036130Y017323D02*
X037300Y017323D01*
X037315Y017164D02*
X036130Y017164D01*
X036122Y017006D02*
X037384Y017006D01*
X037537Y016847D02*
X035964Y016847D01*
X035805Y016689D02*
X037589Y016689D01*
X037471Y016530D02*
X035647Y016530D01*
X035488Y016372D02*
X037014Y016372D01*
X036856Y016213D02*
X035118Y016213D01*
X035118Y016055D02*
X036770Y016055D01*
X036770Y015896D02*
X035118Y015896D01*
X035118Y015738D02*
X036770Y015738D01*
X036770Y015579D02*
X035118Y015579D01*
X035118Y015421D02*
X036770Y015421D01*
X036770Y015262D02*
X035118Y015262D01*
X035876Y014470D02*
X037684Y014470D01*
X037717Y014470D02*
X039280Y014470D01*
X039280Y014628D02*
X037920Y014628D01*
X038302Y014787D02*
X039280Y014787D01*
X039280Y014945D02*
X038380Y014945D01*
X038380Y015104D02*
X039280Y015104D01*
X039280Y015262D02*
X038380Y015262D01*
X038380Y015421D02*
X039280Y015421D01*
X039280Y015579D02*
X038380Y015579D01*
X038378Y015738D02*
X039280Y015738D01*
X039280Y015896D02*
X038295Y015896D01*
X038422Y016055D02*
X039280Y016055D01*
X039280Y016213D02*
X038480Y016213D01*
X038480Y016372D02*
X039280Y016372D01*
X039280Y016530D02*
X038428Y016530D01*
X038311Y016689D02*
X039280Y016689D01*
X039280Y016847D02*
X038162Y016847D01*
X038315Y017006D02*
X039280Y017006D01*
X039280Y017164D02*
X038384Y017164D01*
X038400Y017323D02*
X039280Y017323D01*
X039280Y017481D02*
X038369Y017481D01*
X038283Y017640D02*
X039280Y017640D01*
X039280Y017798D02*
X038084Y017798D01*
X037870Y017798D02*
X037830Y017798D01*
X037830Y017640D02*
X037870Y017640D01*
X037870Y017481D02*
X037830Y017481D01*
X037830Y017323D02*
X037870Y017323D01*
X038584Y018274D02*
X039280Y018274D01*
X039280Y018432D02*
X038688Y018432D01*
X038720Y018591D02*
X039280Y018591D01*
X039280Y018749D02*
X038696Y018749D01*
X039280Y018115D02*
X036130Y018115D01*
X036130Y017957D02*
X039280Y017957D01*
X036137Y019225D02*
X036102Y019225D01*
X036102Y019383D02*
X036137Y019383D01*
X036137Y019542D02*
X036102Y019542D01*
X036102Y019700D02*
X036137Y019700D01*
X036137Y019859D02*
X036102Y019859D01*
X034208Y016689D02*
X033908Y016689D01*
X034066Y016530D02*
X034208Y016530D01*
X032400Y015500D02*
X032400Y015240D01*
X032694Y014945D01*
X032694Y014497D01*
X032694Y014025D01*
X032860Y013860D01*
X034220Y013860D01*
X034480Y014120D01*
X035060Y014120D01*
X035260Y013920D01*
X035260Y013080D01*
X035240Y013060D01*
X035490Y012810D01*
X036390Y012810D01*
X036605Y013026D01*
X036605Y013520D01*
X036288Y013519D02*
X036069Y013519D01*
X036069Y013677D02*
X036288Y013677D01*
X036301Y013836D02*
X036069Y013836D01*
X035998Y013994D02*
X039280Y013994D01*
X039280Y013836D02*
X037633Y013836D01*
X037639Y013826D02*
X037615Y013867D01*
X037582Y013900D01*
X037541Y013924D01*
X037495Y013936D01*
X037314Y013936D01*
X037314Y013520D01*
X037651Y013520D01*
X037651Y013780D01*
X037639Y013826D01*
X037651Y013677D02*
X039280Y013677D01*
X039280Y013519D02*
X037651Y013519D01*
X037651Y013520D02*
X037314Y013520D01*
X037314Y013520D01*
X037314Y013104D01*
X037495Y013104D01*
X037541Y013116D01*
X037582Y013140D01*
X037615Y013173D01*
X037639Y013214D01*
X037651Y013260D01*
X037651Y013520D01*
X037651Y013360D02*
X039280Y013360D01*
X039280Y013202D02*
X037632Y013202D01*
X037314Y013202D02*
X037314Y013202D01*
X037314Y013104D02*
X037314Y013520D01*
X037314Y013520D01*
X037314Y013520D01*
X037314Y013936D01*
X037133Y013936D01*
X037087Y013924D01*
X037046Y013900D01*
X037012Y013867D01*
X036989Y013826D01*
X036976Y013780D01*
X036976Y013520D01*
X037314Y013520D01*
X036976Y013520D01*
X036976Y013260D01*
X036989Y013214D01*
X037012Y013173D01*
X037046Y013140D01*
X037087Y013116D01*
X037133Y013104D01*
X037314Y013104D01*
X037314Y013360D02*
X037314Y013360D01*
X037314Y013519D02*
X037314Y013519D01*
X037314Y013520D02*
X037314Y013520D01*
X037314Y013677D02*
X037314Y013677D01*
X037314Y013836D02*
X037314Y013836D01*
X036994Y013836D02*
X036910Y013836D01*
X036923Y013677D02*
X036976Y013677D01*
X036976Y013519D02*
X036923Y013519D01*
X036923Y013360D02*
X036976Y013360D01*
X036996Y013202D02*
X036907Y013202D01*
X036938Y013043D02*
X039280Y013043D01*
X039280Y012885D02*
X038780Y012885D01*
X038780Y012726D02*
X039280Y012726D01*
X039280Y012568D02*
X038780Y012568D01*
X038780Y012409D02*
X039280Y012409D01*
X039280Y012251D02*
X038780Y012251D01*
X038780Y012092D02*
X039280Y012092D01*
X039280Y011934D02*
X038440Y011934D01*
X038601Y011775D02*
X039280Y011775D01*
X039280Y011617D02*
X038667Y011617D01*
X038680Y011458D02*
X039280Y011458D01*
X039280Y011300D02*
X038648Y011300D01*
X038560Y011141D02*
X039280Y011141D01*
X039280Y010983D02*
X038475Y010983D01*
X038679Y010824D02*
X039280Y010824D01*
X039280Y010666D02*
X038768Y010666D01*
X038800Y010507D02*
X039280Y010507D01*
X039280Y010349D02*
X038785Y010349D01*
X038786Y010351D02*
X038800Y010437D01*
X038800Y010460D01*
X038270Y010460D01*
X038270Y009930D01*
X038293Y009930D01*
X038378Y009944D01*
X038461Y009970D01*
X038538Y010010D01*
X038608Y010060D01*
X038669Y010122D01*
X038720Y010192D01*
X038759Y010269D01*
X038786Y010351D01*
X038719Y010190D02*
X039280Y010190D01*
X039280Y010032D02*
X038568Y010032D01*
X038270Y010032D02*
X038230Y010032D01*
X038230Y009930D02*
X038230Y010460D01*
X037700Y010460D01*
X037700Y010437D01*
X037713Y010351D01*
X037740Y010269D01*
X037779Y010192D01*
X037830Y010122D01*
X037891Y010060D01*
X037961Y010010D01*
X038038Y009970D01*
X038121Y009944D01*
X038206Y009930D01*
X038230Y009930D01*
X038230Y010190D02*
X038270Y010190D01*
X038270Y010349D02*
X038230Y010349D01*
X037931Y010032D02*
X035750Y010032D01*
X035630Y009873D02*
X039280Y009873D01*
X037966Y010983D02*
X035750Y010983D01*
X035750Y011141D02*
X035781Y011141D01*
X035775Y011300D02*
X035750Y011300D01*
X035775Y011310D02*
X036390Y011310D01*
X037005Y011310D01*
X036390Y011310D01*
X036390Y011310D01*
X036390Y011010D01*
X036390Y011310D01*
X036390Y011310D01*
X036390Y011310D01*
X035775Y011310D01*
X035776Y011458D02*
X035750Y011458D01*
X035844Y011574D02*
X035844Y011574D01*
X035802Y011617D02*
X035750Y011617D01*
X035741Y011775D02*
X035795Y011775D01*
X035795Y011934D02*
X035583Y011934D01*
X035826Y012092D02*
X034893Y012092D01*
X034925Y012251D02*
X035795Y012251D01*
X035795Y012409D02*
X034925Y012409D01*
X034868Y012568D02*
X035851Y012568D01*
X035569Y013202D02*
X036304Y013202D01*
X036288Y013360D02*
X036069Y013360D01*
X035998Y014153D02*
X039280Y014153D01*
X039280Y014311D02*
X035981Y014311D01*
X036985Y012885D02*
X037720Y012885D01*
X037720Y012726D02*
X036985Y012726D01*
X036928Y012568D02*
X037720Y012568D01*
X037620Y011458D02*
X037003Y011458D01*
X037005Y011300D02*
X037651Y011300D01*
X037739Y011141D02*
X036998Y011141D01*
X036705Y010824D02*
X037820Y010824D01*
X037731Y010666D02*
X036910Y010666D01*
X036958Y010507D02*
X037700Y010507D01*
X037714Y010349D02*
X036933Y010349D01*
X036816Y010190D02*
X037780Y010190D01*
X036383Y010190D02*
X036329Y010190D01*
X036268Y010824D02*
X036494Y010824D01*
X036390Y011141D02*
X036390Y011141D01*
X036390Y011300D02*
X036390Y011300D01*
X035110Y012726D02*
X034925Y012726D01*
X034925Y012885D02*
X034925Y012885D01*
X033970Y013090D02*
X033828Y013090D01*
X033748Y013010D01*
X032446Y013010D01*
X032275Y013182D01*
X032275Y014021D01*
X032380Y014021D01*
X032454Y014021D01*
X032454Y013977D01*
X032491Y013889D01*
X032656Y013724D01*
X032724Y013657D01*
X032812Y013620D01*
X034181Y013620D01*
X034101Y013550D01*
X034093Y013550D01*
X034036Y013493D01*
X033976Y013441D01*
X033975Y013433D01*
X033970Y013427D01*
X033970Y013347D01*
X033964Y013267D01*
X033970Y013261D01*
X033970Y013090D01*
X033970Y013202D02*
X032275Y013202D01*
X032275Y013360D02*
X033970Y013360D01*
X034061Y013519D02*
X032275Y013519D01*
X032275Y013677D02*
X032703Y013677D01*
X032545Y013836D02*
X032275Y013836D01*
X032275Y013994D02*
X032454Y013994D01*
X032380Y014021D02*
X032380Y014497D01*
X032380Y014497D01*
X032380Y014021D01*
X032380Y014153D02*
X032380Y014153D01*
X032380Y014311D02*
X032380Y014311D01*
X032380Y014470D02*
X032380Y014470D01*
X032413Y013043D02*
X033781Y013043D01*
X032280Y009715D02*
X025071Y009715D01*
X025057Y009701D02*
X025057Y009701D01*
X024913Y009556D02*
X032280Y009556D01*
X032280Y009398D02*
X024770Y009398D01*
X024770Y009239D02*
X032280Y009239D01*
X032280Y009081D02*
X024770Y009081D01*
X024770Y008922D02*
X032280Y008922D01*
X032280Y008764D02*
X030835Y008764D01*
X031026Y008514D02*
X030400Y008514D01*
X029500Y008514D01*
X026953Y008514D01*
X026640Y008200D01*
X026380Y008447D02*
X025294Y008447D01*
X025297Y008288D02*
X026288Y008288D01*
X025943Y008103D02*
X025998Y007971D01*
X025991Y007813D02*
X029064Y007813D01*
X029064Y007971D02*
X026917Y007971D01*
X026998Y008130D02*
X030960Y008130D01*
X030960Y007971D02*
X030835Y007971D01*
X030835Y007813D02*
X030960Y007813D01*
X030960Y007654D02*
X030835Y007654D01*
X030835Y007496D02*
X030960Y007496D01*
X030960Y007337D02*
X030610Y007337D01*
X030796Y007179D02*
X030960Y007179D01*
X030960Y007020D02*
X030796Y007020D01*
X030796Y006862D02*
X030960Y006862D01*
X030960Y006703D02*
X030796Y006703D01*
X030709Y006545D02*
X030963Y006545D01*
X031074Y006386D02*
X030796Y006386D01*
X030796Y006228D02*
X031233Y006228D01*
X031380Y006420D02*
X031960Y006420D01*
X031970Y006430D01*
X031960Y006440D01*
X031960Y007265D01*
X031504Y007337D02*
X031440Y007337D01*
X031440Y007179D02*
X031504Y007179D01*
X031504Y007020D02*
X031440Y007020D01*
X031440Y006862D02*
X031586Y006862D01*
X031486Y006703D02*
X031440Y006703D01*
X031200Y006600D02*
X031380Y006420D01*
X031200Y006600D02*
X031200Y008340D01*
X031026Y008514D01*
X031274Y008605D02*
X032280Y008605D01*
X032280Y008447D02*
X031415Y008447D01*
X031440Y008288D02*
X031513Y008288D01*
X031484Y008130D02*
X031440Y008130D01*
X031440Y007971D02*
X031912Y007971D01*
X031912Y008130D02*
X032007Y008130D01*
X032007Y008288D02*
X031912Y008288D01*
X031484Y007813D02*
X031440Y007813D01*
X031440Y007654D02*
X031485Y007654D01*
X031504Y007496D02*
X031440Y007496D01*
X030190Y007337D02*
X029710Y007337D01*
X029896Y007179D02*
X030003Y007179D01*
X030003Y007020D02*
X029896Y007020D01*
X029896Y006862D02*
X030003Y006862D01*
X029964Y007496D02*
X029935Y007496D01*
X029935Y007654D02*
X029964Y007654D01*
X029964Y007813D02*
X029935Y007813D01*
X029935Y007971D02*
X029964Y007971D01*
X029290Y007337D02*
X026381Y007337D01*
X026458Y007179D02*
X029103Y007179D01*
X029103Y007020D02*
X026444Y007020D01*
X026340Y006862D02*
X029103Y006862D01*
X029064Y007496D02*
X025712Y007496D01*
X025690Y007473D02*
X025690Y007473D01*
X025858Y007337D02*
X025277Y007337D01*
X025277Y007179D02*
X025781Y007179D01*
X025795Y007020D02*
X025277Y007020D01*
X025900Y007654D02*
X029064Y007654D01*
X029064Y008764D02*
X024759Y008764D01*
X024642Y008605D02*
X026705Y008605D01*
X025363Y008130D02*
X025297Y008130D01*
X025151Y008079D02*
X025151Y008079D01*
X024802Y008130D02*
X024802Y008130D01*
X024802Y008288D02*
X024802Y008288D01*
X024802Y008447D02*
X024802Y008447D01*
X024802Y007971D02*
X024802Y007971D01*
X023470Y009239D02*
X023467Y009239D01*
X023470Y009398D02*
X018278Y009398D01*
X018257Y009239D02*
X022972Y009239D01*
X023503Y009556D02*
X018226Y009556D01*
X017999Y009715D02*
X023588Y009715D01*
X023588Y010032D02*
X020428Y010032D01*
X020587Y010190D02*
X023588Y010190D01*
X023588Y010349D02*
X020745Y010349D01*
X020904Y010507D02*
X023588Y010507D01*
X023620Y010666D02*
X023451Y010666D01*
X023498Y011300D02*
X023513Y011300D01*
X022657Y010824D02*
X020930Y010824D01*
X020930Y010666D02*
X022734Y010666D01*
X020510Y010824D02*
X019156Y010824D01*
X019156Y010702D02*
X019156Y011149D01*
X019062Y011243D01*
X018457Y011243D01*
X018406Y011192D01*
X018334Y011263D01*
X017651Y011263D01*
X017562Y011174D01*
X017562Y011366D01*
X017573Y011347D01*
X017606Y011313D01*
X017648Y011289D01*
X017693Y011277D01*
X017974Y011277D01*
X017974Y011636D01*
X017537Y011636D01*
X017537Y011568D01*
X017480Y011626D01*
X017480Y012292D01*
X017484Y012294D01*
X017646Y012455D01*
X017733Y012666D01*
X017733Y012894D01*
X017646Y013105D01*
X017484Y013266D01*
X017274Y013353D01*
X017045Y013353D01*
X016835Y013266D01*
X016673Y013105D01*
X016586Y012894D01*
X016586Y012666D01*
X016673Y012455D01*
X016835Y012294D01*
X016840Y012292D01*
X016840Y011637D01*
X016785Y011637D01*
X016691Y011543D01*
X016691Y011017D01*
X016785Y010923D01*
X017468Y010923D01*
X017557Y011012D01*
X017557Y010643D01*
X017651Y010549D01*
X018334Y010549D01*
X018425Y010640D01*
X018457Y010608D01*
X018513Y010608D01*
X018488Y010582D01*
X018488Y009978D01*
X018581Y009884D01*
X019029Y009884D01*
X019123Y009978D01*
X019123Y010582D01*
X019079Y010626D01*
X019156Y010702D01*
X019119Y010666D02*
X019279Y010666D01*
X019196Y010507D02*
X019123Y010507D01*
X019123Y010349D02*
X019196Y010349D01*
X019196Y010190D02*
X019123Y010190D01*
X019123Y010032D02*
X019196Y010032D01*
X018805Y010280D02*
X018760Y010326D01*
X018760Y010926D01*
X018740Y010906D01*
X017993Y010906D01*
X018011Y011277D02*
X018292Y011277D01*
X018338Y011289D01*
X018379Y011313D01*
X018406Y011340D01*
X018413Y011333D01*
X018454Y011309D01*
X018500Y011297D01*
X018760Y011297D01*
X019019Y011297D01*
X019065Y011309D01*
X019106Y011333D01*
X019140Y011366D01*
X019163Y011407D01*
X019176Y011453D01*
X019176Y011634D01*
X018760Y011634D01*
X018760Y011634D01*
X018760Y011297D01*
X018760Y011634D01*
X018760Y011634D01*
X019176Y011634D01*
X019176Y011816D01*
X019163Y011861D01*
X019140Y011902D01*
X019106Y011936D01*
X019065Y011960D01*
X019019Y011972D01*
X018760Y011972D01*
X018760Y011634D01*
X018760Y011634D01*
X018760Y011972D01*
X018500Y011972D01*
X018454Y011960D01*
X018423Y011942D01*
X018412Y011961D01*
X018379Y011995D01*
X018338Y012019D01*
X018292Y012031D01*
X018011Y012031D01*
X018011Y011672D01*
X017974Y011672D01*
X017974Y011636D01*
X018011Y011636D01*
X018011Y011277D01*
X018011Y011300D02*
X017974Y011300D01*
X017974Y011458D02*
X018011Y011458D01*
X018011Y011617D02*
X017974Y011617D01*
X017974Y011672D02*
X017537Y011672D01*
X017537Y011875D01*
X017549Y011920D01*
X017573Y011961D01*
X017606Y011995D01*
X017648Y012019D01*
X017693Y012031D01*
X017974Y012031D01*
X017974Y011672D01*
X017974Y011775D02*
X018011Y011775D01*
X018011Y011934D02*
X017974Y011934D01*
X017599Y012409D02*
X018820Y012409D01*
X018727Y012568D02*
X017692Y012568D01*
X017733Y012726D02*
X018686Y012726D01*
X018686Y012885D02*
X017733Y012885D01*
X017671Y013043D02*
X018720Y013043D01*
X018720Y013202D02*
X017549Y013202D01*
X016770Y013202D02*
X014700Y013202D01*
X014700Y013360D02*
X018720Y013360D01*
X018720Y013519D02*
X014700Y013519D01*
X014700Y013677D02*
X018720Y013677D01*
X018720Y013836D02*
X014700Y013836D01*
X013620Y013836D02*
X009813Y013836D01*
X009654Y013677D02*
X013620Y013677D01*
X013620Y013519D02*
X009500Y013519D01*
X009500Y013360D02*
X013620Y013360D01*
X013620Y013202D02*
X012349Y013202D01*
X012284Y013266D02*
X012074Y013353D01*
X011845Y013353D01*
X011635Y013266D01*
X011473Y013105D01*
X011386Y012894D01*
X011386Y012666D01*
X011473Y012455D01*
X011635Y012294D01*
X011706Y012264D01*
X011706Y011337D01*
X011685Y011337D01*
X011591Y011243D01*
X011591Y010717D01*
X011685Y010623D01*
X012368Y010623D01*
X012457Y010712D01*
X012457Y010343D01*
X012551Y010249D01*
X013234Y010249D01*
X013325Y010340D01*
X013357Y010308D01*
X013962Y010308D01*
X014014Y010360D01*
X014057Y010317D01*
X014662Y010317D01*
X014756Y010411D01*
X014756Y010858D01*
X014662Y010952D01*
X014057Y010952D01*
X014005Y010900D01*
X013962Y010943D01*
X013357Y010943D01*
X013306Y010892D01*
X013234Y010963D01*
X012551Y010963D01*
X012462Y010874D01*
X012462Y011066D01*
X012473Y011047D01*
X012506Y011013D01*
X012548Y010989D01*
X012593Y010977D01*
X012874Y010977D01*
X012874Y011336D01*
X012437Y011336D01*
X012437Y011268D01*
X012368Y011337D01*
X012346Y011337D01*
X012346Y012356D01*
X012446Y012455D01*
X012533Y012666D01*
X012533Y012894D01*
X012446Y013105D01*
X012284Y013266D01*
X012471Y013043D02*
X013620Y013043D01*
X013586Y012885D02*
X012533Y012885D01*
X012533Y012726D02*
X013586Y012726D01*
X013627Y012568D02*
X012492Y012568D01*
X012399Y012409D02*
X013720Y012409D01*
X013939Y012251D02*
X012346Y012251D01*
X012346Y012092D02*
X016840Y012092D01*
X016840Y011934D02*
X012346Y011934D01*
X012346Y011775D02*
X016840Y011775D01*
X016764Y011617D02*
X014026Y011617D01*
X014040Y011602D02*
X014006Y011636D01*
X013965Y011660D01*
X013919Y011672D01*
X013660Y011672D01*
X013660Y011334D01*
X013660Y011334D01*
X014076Y011334D01*
X014076Y011153D01*
X014063Y011107D01*
X014040Y011066D01*
X014006Y011033D01*
X013965Y011009D01*
X013919Y010997D01*
X013660Y010997D01*
X013660Y011334D01*
X013660Y011334D01*
X014076Y011334D01*
X014076Y011516D01*
X014063Y011561D01*
X014040Y011602D01*
X014076Y011458D02*
X016691Y011458D01*
X016691Y011300D02*
X014076Y011300D01*
X014072Y011141D02*
X016691Y011141D01*
X016725Y010983D02*
X013212Y010983D01*
X013192Y010977D02*
X013238Y010989D01*
X013279Y011013D01*
X013306Y011040D01*
X013313Y011033D01*
X013354Y011009D01*
X013400Y010997D01*
X013660Y010997D01*
X013660Y011334D01*
X013660Y011334D01*
X013660Y011672D01*
X013400Y011672D01*
X013354Y011660D01*
X013323Y011642D01*
X013312Y011661D01*
X013279Y011695D01*
X013238Y011719D01*
X013192Y011731D01*
X012911Y011731D01*
X012911Y011372D01*
X012874Y011372D01*
X012874Y011336D01*
X012911Y011336D01*
X012911Y010977D01*
X013192Y010977D01*
X012911Y010983D02*
X012874Y010983D01*
X012874Y011141D02*
X012911Y011141D01*
X012911Y011300D02*
X012874Y011300D01*
X012874Y011372D02*
X012437Y011372D01*
X012437Y011575D01*
X012449Y011620D01*
X012473Y011661D01*
X012506Y011695D01*
X012548Y011719D01*
X012593Y011731D01*
X012874Y011731D01*
X012874Y011372D01*
X012874Y011458D02*
X012911Y011458D01*
X012911Y011617D02*
X012874Y011617D01*
X012448Y011617D02*
X012346Y011617D01*
X012346Y011458D02*
X012437Y011458D01*
X012437Y011300D02*
X012406Y011300D01*
X012462Y010983D02*
X012573Y010983D01*
X012457Y010666D02*
X012411Y010666D01*
X012457Y010507D02*
X011100Y010507D01*
X011100Y010349D02*
X012457Y010349D01*
X012893Y010606D02*
X013660Y010606D01*
X013660Y010626D01*
X014360Y010626D01*
X014360Y010634D01*
X014756Y010666D02*
X017557Y010666D01*
X017557Y010824D02*
X014756Y010824D01*
X014756Y010507D02*
X018488Y010507D01*
X018488Y010349D02*
X014694Y010349D01*
X014715Y010190D02*
X018488Y010190D01*
X018488Y010032D02*
X014756Y010032D01*
X014756Y009715D02*
X017840Y009715D01*
X017613Y009556D02*
X014700Y009556D01*
X014700Y009398D02*
X016214Y009398D01*
X016385Y009398D02*
X016386Y009398D01*
X016385Y009239D02*
X016386Y009239D01*
X016385Y009081D02*
X016386Y009081D01*
X016097Y009081D02*
X014700Y009081D01*
X014700Y009239D02*
X016097Y009239D01*
X016097Y008922D02*
X014700Y008922D01*
X014700Y008764D02*
X016097Y008764D01*
X016760Y008580D02*
X016760Y008992D01*
X016557Y009398D02*
X017561Y009398D01*
X017582Y009239D02*
X017402Y009239D01*
X017402Y009081D02*
X017693Y009081D01*
X017627Y008922D02*
X017402Y008922D01*
X016385Y008254D02*
X016260Y008380D01*
X015382Y008380D01*
X015360Y008357D01*
X015006Y008605D02*
X014774Y008605D01*
X014412Y008288D02*
X011100Y008288D01*
X011100Y008130D02*
X014605Y008130D01*
X014950Y007971D02*
X013544Y007971D01*
X013536Y007978D02*
X013495Y008002D01*
X013449Y008014D01*
X013188Y008014D01*
X013188Y007557D01*
X013606Y007557D01*
X013606Y007858D01*
X013593Y007904D01*
X013570Y007945D01*
X013536Y007978D01*
X013606Y007813D02*
X014950Y007813D01*
X015074Y007654D02*
X013606Y007654D01*
X013606Y007403D02*
X013188Y007403D01*
X013188Y007557D01*
X013033Y007557D01*
X013033Y007403D01*
X012616Y007403D01*
X012616Y007102D01*
X012628Y007056D01*
X012652Y007015D01*
X012685Y006982D01*
X012726Y006958D01*
X012772Y006946D01*
X013033Y006946D01*
X013033Y007403D01*
X013188Y007403D01*
X013188Y006946D01*
X013449Y006946D01*
X013495Y006958D01*
X013536Y006982D01*
X013570Y007015D01*
X013593Y007056D01*
X013606Y007102D01*
X013606Y007403D01*
X013606Y007337D02*
X014268Y007337D01*
X014268Y007440D02*
X014268Y007180D01*
X014268Y006920D01*
X014280Y006874D01*
X014304Y006833D01*
X014337Y006800D01*
X014378Y006776D01*
X014424Y006764D01*
X014605Y006764D01*
X014605Y007180D01*
X014268Y007180D01*
X014605Y007180D01*
X014605Y007180D01*
X014605Y007180D01*
X014605Y007596D01*
X014424Y007596D01*
X014378Y007584D01*
X014337Y007560D01*
X014304Y007527D01*
X014280Y007486D01*
X014268Y007440D01*
X014286Y007496D02*
X013188Y007496D01*
X013033Y007496D02*
X012500Y007496D01*
X012616Y007557D02*
X013033Y007557D01*
X013033Y008014D01*
X012772Y008014D01*
X012726Y008002D01*
X012685Y007978D01*
X012652Y007945D01*
X012628Y007904D01*
X012616Y007858D01*
X012616Y007557D01*
X012616Y007654D02*
X012500Y007654D01*
X012500Y007813D02*
X012616Y007813D01*
X012678Y007971D02*
X012413Y007971D01*
X013033Y007971D02*
X013188Y007971D01*
X013188Y007813D02*
X013033Y007813D01*
X013033Y007654D02*
X013188Y007654D01*
X013188Y007337D02*
X013033Y007337D01*
X013033Y007179D02*
X013188Y007179D01*
X013188Y007020D02*
X013033Y007020D01*
X012649Y007020D02*
X012500Y007020D01*
X012500Y006862D02*
X014287Y006862D01*
X014268Y007020D02*
X013572Y007020D01*
X013606Y007179D02*
X014268Y007179D01*
X014605Y007179D02*
X014605Y007179D01*
X014605Y007180D02*
X014605Y006764D01*
X014786Y006764D01*
X014832Y006776D01*
X014873Y006800D01*
X014907Y006833D01*
X014930Y006874D01*
X014943Y006920D01*
X014943Y007180D01*
X014943Y007440D01*
X014930Y007486D01*
X014907Y007527D01*
X014873Y007560D01*
X014832Y007584D01*
X014786Y007596D01*
X014605Y007596D01*
X014605Y007180D01*
X014605Y007180D01*
X014943Y007180D01*
X014605Y007180D01*
X014605Y007180D01*
X014605Y007337D02*
X014605Y007337D01*
X014605Y007496D02*
X014605Y007496D01*
X014925Y007496D02*
X015009Y007496D01*
X014996Y007337D02*
X014943Y007337D01*
X014943Y007179D02*
X014996Y007179D01*
X014996Y007020D02*
X014943Y007020D01*
X014923Y006862D02*
X015012Y006862D01*
X014605Y006862D02*
X014605Y006862D01*
X014605Y007020D02*
X014605Y007020D01*
X015615Y006862D02*
X016601Y006862D01*
X016612Y006703D02*
X012500Y006703D01*
X012500Y006545D02*
X016680Y006545D01*
X016680Y006386D02*
X012500Y006386D01*
X012500Y006228D02*
X016680Y006228D01*
X016680Y006069D02*
X012500Y006069D01*
X012500Y005911D02*
X016680Y005911D01*
X016680Y005752D02*
X012500Y005752D01*
X012500Y005594D02*
X016680Y005594D01*
X016680Y005435D02*
X012500Y005435D01*
X012500Y005277D02*
X016680Y005277D01*
X016680Y005118D02*
X012500Y005118D01*
X012500Y004960D02*
X016680Y004960D01*
X016680Y004801D02*
X012500Y004801D01*
X012500Y004643D02*
X016680Y004643D01*
X016680Y004484D02*
X012500Y004484D01*
X012497Y004326D02*
X016680Y004326D01*
X016680Y004167D02*
X012372Y004167D01*
X012260Y004380D02*
X008913Y004380D01*
X008915Y004389D01*
X008915Y005103D01*
X008517Y005103D01*
X008517Y005219D01*
X008402Y005219D01*
X008402Y006089D01*
X008160Y006089D01*
X008114Y006077D01*
X008073Y006053D01*
X008040Y006020D01*
X008016Y005979D01*
X008004Y005933D01*
X008004Y005219D01*
X008402Y005219D01*
X008402Y005103D01*
X008004Y005103D01*
X008004Y004389D01*
X008006Y004380D01*
X007760Y004380D01*
X007860Y004480D01*
X007860Y005880D01*
X008260Y006280D01*
X008260Y007280D01*
X008507Y007528D01*
X008507Y007494D01*
X009080Y007494D01*
X009080Y007334D01*
X009240Y007334D01*
X009240Y007494D01*
X009812Y007494D01*
X009812Y007780D01*
X011513Y007780D01*
X011513Y007557D01*
X011931Y007557D01*
X011931Y007403D01*
X011513Y007403D01*
X011513Y007102D01*
X011526Y007056D01*
X011549Y007015D01*
X011583Y006982D01*
X011624Y006958D01*
X011670Y006946D01*
X011931Y006946D01*
X011931Y007403D01*
X012086Y007403D01*
X012086Y006946D01*
X012260Y006946D01*
X012260Y004380D01*
X012260Y004484D02*
X008915Y004484D01*
X008915Y004643D02*
X012260Y004643D01*
X012260Y004801D02*
X008915Y004801D01*
X008915Y004960D02*
X012260Y004960D01*
X012260Y005118D02*
X008517Y005118D01*
X008517Y005219D02*
X008915Y005219D01*
X008915Y005933D01*
X008903Y005979D01*
X008879Y006020D01*
X008846Y006053D01*
X008805Y006077D01*
X008759Y006089D01*
X008517Y006089D01*
X008517Y005219D01*
X008517Y005277D02*
X008402Y005277D01*
X008402Y005435D02*
X008517Y005435D01*
X008517Y005594D02*
X008402Y005594D01*
X008402Y005752D02*
X008517Y005752D01*
X008517Y005911D02*
X008402Y005911D01*
X008402Y006069D02*
X008517Y006069D01*
X008818Y006069D02*
X010399Y006069D01*
X010399Y006060D02*
X010980Y006060D01*
X010980Y006501D01*
X010556Y006501D01*
X010510Y006488D01*
X010469Y006465D01*
X010435Y006431D01*
X010411Y006390D01*
X010399Y006344D01*
X010399Y006060D01*
X010399Y005900D02*
X010399Y005616D01*
X010411Y005570D01*
X010435Y005529D01*
X010469Y005495D01*
X010510Y005472D01*
X010556Y005459D01*
X010980Y005459D01*
X010980Y005900D01*
X011140Y005900D01*
X011140Y006060D01*
X011720Y006060D01*
X011720Y006344D01*
X011708Y006390D01*
X011684Y006431D01*
X011650Y006465D01*
X011609Y006488D01*
X011564Y006501D01*
X011140Y006501D01*
X011140Y006060D01*
X010980Y006060D01*
X010980Y005900D01*
X010399Y005900D01*
X010399Y005752D02*
X008915Y005752D01*
X008915Y005594D02*
X010405Y005594D01*
X010980Y005594D02*
X011140Y005594D01*
X011140Y005459D02*
X011564Y005459D01*
X011609Y005472D01*
X011650Y005495D01*
X011684Y005529D01*
X011708Y005570D01*
X011720Y005616D01*
X011720Y005900D01*
X011140Y005900D01*
X011140Y005459D01*
X011140Y005752D02*
X010980Y005752D01*
X010980Y005911D02*
X008915Y005911D01*
X008915Y005435D02*
X012260Y005435D01*
X012260Y005277D02*
X008915Y005277D01*
X008402Y005118D02*
X007860Y005118D01*
X007860Y004960D02*
X008004Y004960D01*
X008004Y004801D02*
X007860Y004801D01*
X007860Y004643D02*
X008004Y004643D01*
X008004Y004484D02*
X007860Y004484D01*
X007620Y004643D02*
X003240Y004643D01*
X003240Y004801D02*
X007620Y004801D01*
X007620Y004960D02*
X003240Y004960D01*
X003240Y005118D02*
X007620Y005118D01*
X007620Y005277D02*
X003240Y005277D01*
X003240Y005435D02*
X007620Y005435D01*
X007620Y005594D02*
X003240Y005594D01*
X003240Y005752D02*
X007620Y005752D01*
X007620Y005911D02*
X003240Y005911D01*
X003240Y006069D02*
X007709Y006069D01*
X007868Y006228D02*
X003240Y006228D01*
X003240Y006386D02*
X008020Y006386D01*
X008020Y006545D02*
X003240Y006545D01*
X003240Y006703D02*
X008020Y006703D01*
X008020Y006862D02*
X007662Y006862D01*
X007684Y006872D02*
X007759Y006927D01*
X007826Y006993D01*
X007880Y007069D01*
X007923Y007152D01*
X007952Y007241D01*
X007965Y007322D01*
X007017Y007322D01*
X007017Y006787D01*
X007420Y006787D01*
X007512Y006801D01*
X007601Y006830D01*
X007684Y006872D01*
X007845Y007020D02*
X008020Y007020D01*
X008020Y007179D02*
X007931Y007179D01*
X008023Y007337D02*
X007017Y007337D01*
X007017Y007322D02*
X007017Y007438D01*
X006902Y007438D01*
X006902Y007973D01*
X006499Y007973D01*
X006407Y007959D01*
X006318Y007930D01*
X006235Y007888D01*
X006160Y007833D01*
X006094Y007767D01*
X006039Y007691D01*
X005996Y007608D01*
X005967Y007519D01*
X005954Y007438D01*
X006902Y007438D01*
X006902Y007322D01*
X007017Y007322D01*
X006902Y007322D02*
X006902Y006787D01*
X006499Y006787D01*
X006407Y006801D01*
X006318Y006830D01*
X006235Y006872D01*
X006160Y006927D01*
X006094Y006993D01*
X006039Y007069D01*
X005996Y007152D01*
X005967Y007241D01*
X005954Y007322D01*
X006902Y007322D01*
X006902Y007337D02*
X003240Y007337D01*
X003240Y007179D02*
X005988Y007179D01*
X006074Y007020D02*
X003240Y007020D01*
X003240Y006862D02*
X006257Y006862D01*
X006902Y006862D02*
X007017Y006862D01*
X007017Y007020D02*
X006902Y007020D01*
X006902Y007179D02*
X007017Y007179D01*
X007017Y007438D02*
X007965Y007438D01*
X007952Y007519D01*
X007923Y007608D01*
X007880Y007691D01*
X007826Y007767D01*
X007759Y007833D01*
X007684Y007888D01*
X007601Y007930D01*
X007512Y007959D01*
X007420Y007973D01*
X007017Y007973D01*
X007017Y007438D01*
X007017Y007496D02*
X006902Y007496D01*
X006902Y007654D02*
X007017Y007654D01*
X007017Y007813D02*
X006902Y007813D01*
X006902Y007971D02*
X007017Y007971D01*
X007435Y007971D02*
X008585Y007971D01*
X008453Y007813D02*
X007780Y007813D01*
X007899Y007654D02*
X008294Y007654D01*
X008136Y007496D02*
X007955Y007496D01*
X008317Y007337D02*
X009080Y007337D01*
X009080Y007334D02*
X008507Y007334D01*
X008507Y006957D01*
X008519Y006911D01*
X008543Y006870D01*
X008577Y006837D01*
X008618Y006813D01*
X008663Y006801D01*
X009080Y006801D01*
X009080Y007334D01*
X009080Y007179D02*
X009240Y007179D01*
X009240Y007334D02*
X009240Y006801D01*
X009656Y006801D01*
X009701Y006813D01*
X009742Y006837D01*
X009776Y006870D01*
X009800Y006911D01*
X009812Y006957D01*
X009812Y007334D01*
X009240Y007334D01*
X009240Y007337D02*
X011513Y007337D01*
X011513Y007179D02*
X009812Y007179D01*
X009812Y007020D02*
X011547Y007020D01*
X011931Y007020D02*
X012086Y007020D01*
X012086Y007179D02*
X011931Y007179D01*
X011931Y007337D02*
X012086Y007337D01*
X011931Y007496D02*
X009812Y007496D01*
X009812Y007654D02*
X011513Y007654D01*
X011100Y008447D02*
X014255Y008447D01*
X014220Y008605D02*
X011100Y008605D01*
X011100Y008764D02*
X014220Y008764D01*
X014220Y008922D02*
X011100Y008922D01*
X011100Y009081D02*
X014220Y009081D01*
X014220Y009239D02*
X011100Y009239D01*
X011100Y009398D02*
X014220Y009398D01*
X014220Y009556D02*
X011100Y009556D01*
X011100Y009715D02*
X013963Y009715D01*
X013963Y009873D02*
X011100Y009873D01*
X011100Y010032D02*
X013963Y010032D01*
X014004Y010190D02*
X011100Y010190D01*
X011100Y010666D02*
X011642Y010666D01*
X011591Y010824D02*
X011043Y010824D01*
X010921Y010983D02*
X011591Y010983D01*
X011591Y011141D02*
X010762Y011141D01*
X010604Y011300D02*
X011647Y011300D01*
X011706Y011458D02*
X010445Y011458D01*
X010175Y011617D02*
X011706Y011617D01*
X011706Y011775D02*
X009500Y011775D01*
X009500Y011934D02*
X011706Y011934D01*
X011706Y012092D02*
X009500Y012092D01*
X009500Y012251D02*
X011706Y012251D01*
X011520Y012409D02*
X009500Y012409D01*
X009500Y012568D02*
X011427Y012568D01*
X011386Y012726D02*
X009533Y012726D01*
X009533Y012885D02*
X011386Y012885D01*
X011448Y013043D02*
X009500Y013043D01*
X009500Y013202D02*
X011570Y013202D01*
X009236Y014787D02*
X003240Y014787D01*
X003240Y014945D02*
X017873Y014945D01*
X017821Y015104D02*
X003240Y015104D01*
X003240Y015262D02*
X017842Y015262D01*
X017954Y015421D02*
X006821Y015421D01*
X007246Y015896D02*
X013716Y015896D01*
X013398Y016055D02*
X007246Y016055D01*
X007197Y016213D02*
X008830Y016213D01*
X008845Y016207D02*
X009074Y016207D01*
X009284Y016294D01*
X009446Y016455D01*
X009533Y016666D01*
X009533Y016894D01*
X009446Y017105D01*
X009284Y017266D01*
X009074Y017353D01*
X008845Y017353D01*
X008635Y017266D01*
X008473Y017105D01*
X008386Y016894D01*
X008386Y016666D01*
X008473Y016455D01*
X008635Y016294D01*
X008845Y016207D01*
X009089Y016213D02*
X013240Y016213D01*
X013081Y016372D02*
X009362Y016372D01*
X009477Y016530D02*
X012923Y016530D01*
X012764Y016689D02*
X009533Y016689D01*
X009533Y016847D02*
X012606Y016847D01*
X012447Y017006D02*
X009487Y017006D01*
X009386Y017164D02*
X012289Y017164D01*
X012130Y017323D02*
X009148Y017323D01*
X008771Y017323D02*
X003240Y017323D01*
X003240Y017481D02*
X012040Y017481D01*
X011974Y017640D02*
X003240Y017640D01*
X003240Y017798D02*
X011950Y017798D01*
X011950Y017957D02*
X003240Y017957D01*
X003240Y018115D02*
X011950Y018115D01*
X011950Y018274D02*
X003240Y018274D01*
X003240Y018432D02*
X011950Y018432D01*
X011950Y018591D02*
X003240Y018591D01*
X003240Y018749D02*
X011950Y018749D01*
X011950Y018908D02*
X006789Y018908D01*
X006787Y018907D02*
X006998Y018994D01*
X007159Y019155D01*
X007246Y019366D01*
X007246Y019594D01*
X007159Y019805D01*
X006998Y019966D01*
X006787Y020053D01*
X005732Y020053D01*
X005521Y019966D01*
X005360Y019805D01*
X005273Y019594D01*
X005273Y019366D01*
X005360Y019155D01*
X005521Y018994D01*
X005732Y018907D01*
X006787Y018907D01*
X007070Y019066D02*
X011950Y019066D01*
X011950Y019225D02*
X009117Y019225D01*
X009074Y019207D02*
X009284Y019294D01*
X009446Y019455D01*
X009533Y019666D01*
X009533Y019894D01*
X009446Y020105D01*
X009284Y020266D01*
X009074Y020353D01*
X008845Y020353D01*
X008635Y020266D01*
X008473Y020105D01*
X008386Y019894D01*
X008386Y019666D01*
X008473Y019455D01*
X008635Y019294D01*
X008845Y019207D01*
X009074Y019207D01*
X008802Y019225D02*
X007188Y019225D01*
X007246Y019383D02*
X008546Y019383D01*
X008438Y019542D02*
X007246Y019542D01*
X007202Y019700D02*
X008386Y019700D01*
X008386Y019859D02*
X007105Y019859D01*
X006875Y020017D02*
X008437Y020017D01*
X008544Y020176D02*
X003240Y020176D01*
X003240Y020334D02*
X008799Y020334D01*
X009120Y020334D02*
X011950Y020334D01*
X011950Y020176D02*
X009375Y020176D01*
X009482Y020017D02*
X011950Y020017D01*
X011950Y019859D02*
X009533Y019859D01*
X009533Y019700D02*
X011950Y019700D01*
X011950Y019542D02*
X009481Y019542D01*
X009373Y019383D02*
X011950Y019383D01*
X011950Y020493D02*
X003240Y020493D01*
X003240Y020651D02*
X011950Y020651D01*
X011950Y020810D02*
X003240Y020810D01*
X003240Y020968D02*
X005584Y020968D01*
X005521Y020994D02*
X005732Y020907D01*
X006787Y020907D01*
X006998Y020994D01*
X007159Y021155D01*
X007246Y021366D01*
X007246Y021594D01*
X007159Y021805D01*
X006998Y021966D01*
X006787Y022053D01*
X005732Y022053D01*
X005521Y021966D01*
X005360Y021805D01*
X005273Y021594D01*
X005273Y021366D01*
X005360Y021155D01*
X005521Y020994D01*
X005389Y021127D02*
X003240Y021127D01*
X003240Y021285D02*
X005306Y021285D01*
X005273Y021444D02*
X003240Y021444D01*
X003240Y021602D02*
X005276Y021602D01*
X005342Y021761D02*
X003240Y021761D01*
X003240Y021919D02*
X005474Y021919D01*
X007045Y021919D02*
X008666Y021919D01*
X008666Y021820D02*
X008681Y021728D01*
X008710Y021639D01*
X008752Y021556D01*
X008807Y021480D01*
X008873Y021414D01*
X008949Y021359D01*
X009032Y021317D01*
X009121Y021288D01*
X009202Y021275D01*
X009202Y022222D01*
X009317Y022222D01*
X009317Y021275D01*
X009398Y021288D01*
X009487Y021317D01*
X009571Y021359D01*
X009646Y021414D01*
X009712Y021480D01*
X009767Y021556D01*
X009809Y021639D01*
X009838Y021728D01*
X009853Y021820D01*
X009853Y022222D01*
X009317Y022222D01*
X009317Y022338D01*
X009202Y022338D01*
X009202Y023285D01*
X009121Y023272D01*
X009032Y023243D01*
X008949Y023201D01*
X008873Y023146D01*
X008807Y023080D01*
X008752Y023004D01*
X008710Y022921D01*
X008681Y022832D01*
X008666Y022740D01*
X008666Y022338D01*
X009202Y022338D01*
X009202Y022222D01*
X008666Y022222D01*
X008666Y021820D01*
X008676Y021761D02*
X007177Y021761D01*
X007243Y021602D02*
X008728Y021602D01*
X008843Y021444D02*
X007246Y021444D01*
X007213Y021285D02*
X009138Y021285D01*
X009202Y021285D02*
X009317Y021285D01*
X009381Y021285D02*
X011950Y021285D01*
X011950Y021127D02*
X007130Y021127D01*
X006935Y020968D02*
X011950Y020968D01*
X011950Y021444D02*
X011647Y021444D01*
X011584Y021381D02*
X011746Y021542D01*
X011833Y021753D01*
X011833Y022807D01*
X011746Y023018D01*
X011584Y023179D01*
X011374Y023267D01*
X011145Y023267D01*
X010935Y023179D01*
X010773Y023018D01*
X010686Y022807D01*
X010686Y021753D01*
X010773Y021542D01*
X010935Y021381D01*
X011145Y021293D01*
X011374Y021293D01*
X011584Y021381D01*
X011771Y021602D02*
X011950Y021602D01*
X011950Y021761D02*
X011833Y021761D01*
X011833Y021919D02*
X011950Y021919D01*
X011950Y022078D02*
X011833Y022078D01*
X011833Y022236D02*
X011950Y022236D01*
X012005Y022395D02*
X011833Y022395D01*
X011833Y022553D02*
X012070Y022553D01*
X012204Y022712D02*
X011833Y022712D01*
X011807Y022870D02*
X012363Y022870D01*
X012521Y023029D02*
X011735Y023029D01*
X011566Y023187D02*
X012730Y023187D01*
X010953Y023187D02*
X009590Y023187D01*
X009571Y023201D02*
X009646Y023146D01*
X009712Y023080D01*
X009767Y023004D01*
X009809Y022921D01*
X009838Y022832D01*
X009853Y022740D01*
X009853Y022338D01*
X009317Y022338D01*
X009317Y023285D01*
X009398Y023272D01*
X009487Y023243D01*
X009571Y023201D01*
X009749Y023029D02*
X010784Y023029D01*
X010712Y022870D02*
X009826Y022870D01*
X009853Y022712D02*
X010686Y022712D01*
X010686Y022553D02*
X009853Y022553D01*
X009853Y022395D02*
X010686Y022395D01*
X010686Y022236D02*
X009317Y022236D01*
X009202Y022236D02*
X003240Y022236D01*
X003240Y022078D02*
X008666Y022078D01*
X008666Y022395D02*
X003240Y022395D01*
X003240Y022553D02*
X008666Y022553D01*
X008666Y022712D02*
X003240Y022712D01*
X003240Y022870D02*
X008693Y022870D01*
X008770Y023029D02*
X003240Y023029D01*
X003240Y023187D02*
X008929Y023187D01*
X009202Y023187D02*
X009317Y023187D01*
X009317Y023029D02*
X009202Y023029D01*
X009202Y022870D02*
X009317Y022870D01*
X009317Y022712D02*
X009202Y022712D01*
X009202Y022553D02*
X009317Y022553D01*
X009317Y022395D02*
X009202Y022395D01*
X009202Y022078D02*
X009317Y022078D01*
X009317Y021919D02*
X009202Y021919D01*
X009202Y021761D02*
X009317Y021761D01*
X009317Y021602D02*
X009202Y021602D01*
X009202Y021444D02*
X009317Y021444D01*
X009676Y021444D02*
X010872Y021444D01*
X010748Y021602D02*
X009791Y021602D01*
X009843Y021761D02*
X010686Y021761D01*
X010686Y021919D02*
X009853Y021919D01*
X009853Y022078D02*
X010686Y022078D01*
X013770Y021444D02*
X014024Y021444D01*
X013770Y021285D02*
X016950Y021285D01*
X016950Y021127D02*
X013770Y021127D01*
X013770Y020968D02*
X016950Y020968D01*
X016950Y020810D02*
X013770Y020810D01*
X013770Y020651D02*
X016950Y020651D01*
X016950Y020493D02*
X013770Y020493D01*
X013770Y020334D02*
X013999Y020334D01*
X014320Y020334D02*
X016950Y020334D01*
X016950Y020176D02*
X014575Y020176D01*
X014682Y020017D02*
X016950Y020017D01*
X016950Y019859D02*
X014733Y019859D01*
X014733Y019700D02*
X016950Y019700D01*
X016950Y019542D02*
X014681Y019542D01*
X014573Y019383D02*
X016950Y019383D01*
X016950Y019225D02*
X014317Y019225D01*
X014002Y019225D02*
X013770Y019225D01*
X013770Y019066D02*
X016950Y019066D01*
X016950Y018908D02*
X013770Y018908D01*
X013770Y018749D02*
X016950Y018749D01*
X016950Y018591D02*
X013770Y018591D01*
X013770Y018432D02*
X016950Y018432D01*
X016950Y018274D02*
X013770Y018274D01*
X013911Y018115D02*
X016950Y018115D01*
X016967Y017957D02*
X014070Y017957D01*
X014228Y017798D02*
X017033Y017798D01*
X017113Y017640D02*
X014462Y017640D01*
X014745Y017481D02*
X017272Y017481D01*
X017430Y017323D02*
X014904Y017323D01*
X014985Y017164D02*
X017589Y017164D01*
X017747Y017006D02*
X015051Y017006D01*
X015070Y016847D02*
X017906Y016847D01*
X018064Y016689D02*
X015070Y016689D01*
X015041Y016530D02*
X018223Y016530D01*
X018381Y016372D02*
X014975Y016372D01*
X014879Y016213D02*
X018540Y016213D01*
X018698Y016055D02*
X014721Y016055D01*
X014403Y015896D02*
X019016Y015896D01*
X019800Y013836D02*
X021098Y013836D01*
X020940Y013677D02*
X019800Y013677D01*
X019800Y013519D02*
X020781Y013519D01*
X020623Y013360D02*
X019800Y013360D01*
X019800Y013202D02*
X020510Y013202D01*
X020510Y013043D02*
X019800Y013043D01*
X019833Y012885D02*
X020510Y012885D01*
X020510Y012726D02*
X019833Y012726D01*
X019792Y012568D02*
X020510Y012568D01*
X020510Y012409D02*
X019699Y012409D01*
X019480Y012251D02*
X020510Y012251D01*
X020510Y012092D02*
X017480Y012092D01*
X017480Y011934D02*
X017557Y011934D01*
X017537Y011775D02*
X017480Y011775D01*
X017489Y011617D02*
X017537Y011617D01*
X017562Y011300D02*
X017630Y011300D01*
X017557Y010983D02*
X017528Y010983D01*
X018355Y011300D02*
X018490Y011300D01*
X018760Y011300D02*
X018760Y011300D01*
X018760Y011458D02*
X018760Y011458D01*
X018760Y011617D02*
X018760Y011617D01*
X018760Y011775D02*
X018760Y011775D01*
X018760Y011934D02*
X018760Y011934D01*
X019109Y011934D02*
X020510Y011934D01*
X020510Y011775D02*
X019176Y011775D01*
X019176Y011617D02*
X020510Y011617D01*
X020510Y011458D02*
X019176Y011458D01*
X019029Y011300D02*
X020510Y011300D01*
X020510Y011141D02*
X019156Y011141D01*
X019156Y010983D02*
X020510Y010983D01*
X020468Y010666D02*
X019748Y010666D01*
X019831Y010507D02*
X020310Y010507D01*
X020448Y009081D02*
X020155Y009081D01*
X020180Y008922D02*
X020289Y008922D01*
X020218Y008764D02*
X020180Y008764D01*
X020180Y008447D02*
X020228Y008447D01*
X020180Y008288D02*
X020311Y008288D01*
X020125Y008130D02*
X020501Y008130D01*
X016385Y008254D02*
X016385Y007968D01*
X014025Y010349D02*
X014002Y010349D01*
X013660Y011141D02*
X013660Y011141D01*
X013660Y011300D02*
X013660Y011300D01*
X013660Y011458D02*
X013660Y011458D01*
X013660Y011617D02*
X013660Y011617D01*
X014380Y012251D02*
X016840Y012251D01*
X016720Y012409D02*
X014599Y012409D01*
X014692Y012568D02*
X016627Y012568D01*
X016586Y012726D02*
X014733Y012726D01*
X014733Y012885D02*
X016586Y012885D01*
X016648Y013043D02*
X014700Y013043D01*
X017480Y012251D02*
X019039Y012251D01*
X025445Y016055D02*
X026437Y016055D01*
X026596Y016213D02*
X025679Y016213D01*
X025834Y016372D02*
X026754Y016372D01*
X026913Y016530D02*
X025900Y016530D01*
X025965Y016689D02*
X027071Y016689D01*
X027230Y016847D02*
X025970Y016847D01*
X025970Y017006D02*
X027388Y017006D01*
X027547Y017164D02*
X025927Y017164D01*
X025861Y017323D02*
X027705Y017323D01*
X027864Y017481D02*
X025745Y017481D01*
X025587Y017640D02*
X028022Y017640D01*
X028181Y017798D02*
X025428Y017798D01*
X025270Y017957D02*
X029292Y017957D01*
X025024Y021444D02*
X024710Y021444D01*
X017930Y023187D02*
X016705Y023187D01*
X016806Y023029D02*
X017721Y023029D01*
X017563Y022870D02*
X016848Y022870D01*
X016853Y022712D02*
X017404Y022712D01*
X017246Y022553D02*
X016853Y022553D01*
X017088Y022395D02*
X016317Y022395D01*
X016202Y022395D02*
X015170Y022395D01*
X015170Y022553D02*
X015666Y022553D01*
X015666Y022712D02*
X015107Y022712D01*
X015042Y022870D02*
X015671Y022870D01*
X015713Y023029D02*
X014898Y023029D01*
X014689Y023187D02*
X015814Y023187D01*
X016202Y023187D02*
X016317Y023187D01*
X016317Y023029D02*
X016202Y023029D01*
X016202Y022870D02*
X016317Y022870D01*
X016317Y022712D02*
X016202Y022712D01*
X016202Y022553D02*
X016317Y022553D01*
X016202Y022322D02*
X015666Y022322D01*
X015666Y021920D01*
X015681Y021828D01*
X015710Y021739D01*
X015752Y021656D01*
X015807Y021580D01*
X015873Y021514D01*
X015949Y021459D01*
X016032Y021417D01*
X016121Y021388D01*
X016202Y021375D01*
X016202Y022322D01*
X016202Y022236D02*
X016317Y022236D01*
X016317Y022078D02*
X016202Y022078D01*
X016202Y021919D02*
X016317Y021919D01*
X016317Y021761D02*
X016202Y021761D01*
X016202Y021602D02*
X016317Y021602D01*
X016317Y021444D02*
X016202Y021444D01*
X015979Y021444D02*
X014495Y021444D01*
X014759Y021602D02*
X015791Y021602D01*
X015703Y021761D02*
X014927Y021761D01*
X015054Y021919D02*
X015666Y021919D01*
X015666Y022078D02*
X015119Y022078D01*
X015170Y022236D02*
X015666Y022236D01*
X016728Y021602D02*
X016950Y021602D01*
X016950Y021444D02*
X016540Y021444D01*
X016816Y021761D02*
X016950Y021761D01*
X016950Y021919D02*
X016853Y021919D01*
X016853Y022078D02*
X016956Y022078D01*
X017022Y022236D02*
X016853Y022236D01*
X008533Y017164D02*
X003240Y017164D01*
X003240Y017006D02*
X008432Y017006D01*
X008386Y016847D02*
X003240Y016847D01*
X003240Y016689D02*
X008386Y016689D01*
X008442Y016530D02*
X006843Y016530D01*
X007092Y016372D02*
X008557Y016372D01*
X009078Y014628D02*
X003240Y014628D01*
X003240Y014470D02*
X005530Y014470D01*
X005521Y014466D02*
X005360Y014305D01*
X005273Y014094D01*
X005273Y013866D01*
X005360Y013655D01*
X005521Y013494D01*
X005732Y013407D01*
X006787Y013407D01*
X006998Y013494D01*
X007159Y013655D01*
X007246Y013866D01*
X007246Y014094D01*
X007159Y014305D01*
X006998Y014466D01*
X006787Y014553D01*
X005732Y014553D01*
X005521Y014466D01*
X005366Y014311D02*
X003240Y014311D01*
X003240Y014153D02*
X005297Y014153D01*
X005273Y013994D02*
X003240Y013994D01*
X003240Y013836D02*
X005285Y013836D01*
X005351Y013677D02*
X003240Y013677D01*
X003240Y013519D02*
X005497Y013519D01*
X007022Y013519D02*
X008420Y013519D01*
X008420Y013677D02*
X007168Y013677D01*
X007234Y013836D02*
X008420Y013836D01*
X008478Y013994D02*
X007246Y013994D01*
X007222Y014153D02*
X008602Y014153D01*
X008761Y014311D02*
X007153Y014311D01*
X006989Y014470D02*
X008919Y014470D01*
X008420Y013360D02*
X003240Y013360D01*
X003240Y013202D02*
X008420Y013202D01*
X008420Y013043D02*
X003240Y013043D01*
X003240Y012885D02*
X008386Y012885D01*
X008386Y012726D02*
X003240Y012726D01*
X003240Y012568D02*
X008420Y012568D01*
X008420Y012409D02*
X003240Y012409D01*
X003240Y012251D02*
X008420Y012251D01*
X008420Y012092D02*
X003240Y012092D01*
X003240Y011934D02*
X008420Y011934D01*
X008420Y011775D02*
X003240Y011775D01*
X003240Y011617D02*
X008420Y011617D01*
X008420Y011458D02*
X003240Y011458D01*
X003240Y011300D02*
X008420Y011300D01*
X008433Y011141D02*
X003240Y011141D01*
X003240Y010983D02*
X008498Y010983D01*
X008652Y010824D02*
X003240Y010824D01*
X003240Y010666D02*
X008810Y010666D01*
X009582Y010190D02*
X010020Y010190D01*
X010020Y010032D02*
X009795Y010032D01*
X009940Y009873D02*
X010020Y009873D01*
X010006Y009715D02*
X010020Y009715D01*
X010020Y010349D02*
X003240Y010349D01*
X003240Y010507D02*
X009869Y010507D01*
X009969Y008922D02*
X010020Y008922D01*
X010020Y008764D02*
X009864Y008764D01*
X010020Y008605D02*
X009705Y008605D01*
X010020Y008447D02*
X009366Y008447D01*
X008953Y008447D02*
X003240Y008447D01*
X003240Y008605D02*
X006453Y008605D01*
X006289Y008764D02*
X003240Y008764D01*
X003240Y008922D02*
X006164Y008922D01*
X006050Y009081D02*
X003240Y009081D01*
X003240Y009239D02*
X005984Y009239D01*
X005973Y009398D02*
X003240Y009398D01*
X003240Y009556D02*
X005998Y009556D01*
X006070Y009715D02*
X003240Y009715D01*
X003240Y009873D02*
X006179Y009873D01*
X006324Y010032D02*
X003240Y010032D01*
X003240Y010190D02*
X006537Y010190D01*
X006484Y007971D02*
X003240Y007971D01*
X003240Y007813D02*
X006139Y007813D01*
X006020Y007654D02*
X003240Y007654D01*
X003240Y007496D02*
X005964Y007496D01*
X007890Y005911D02*
X008004Y005911D01*
X008004Y005752D02*
X007860Y005752D01*
X007860Y005594D02*
X008004Y005594D01*
X008004Y005435D02*
X007860Y005435D01*
X007860Y005277D02*
X008004Y005277D01*
X008049Y006069D02*
X008101Y006069D01*
X008207Y006228D02*
X010399Y006228D01*
X010410Y006386D02*
X008260Y006386D01*
X008260Y006545D02*
X012260Y006545D01*
X012260Y006703D02*
X008260Y006703D01*
X008260Y006862D02*
X008552Y006862D01*
X008507Y007020D02*
X008260Y007020D01*
X008260Y007179D02*
X008507Y007179D01*
X008507Y007496D02*
X008475Y007496D01*
X009080Y007020D02*
X009240Y007020D01*
X009240Y006862D02*
X009080Y006862D01*
X009767Y006862D02*
X012260Y006862D01*
X012500Y007179D02*
X012616Y007179D01*
X012616Y007337D02*
X012500Y007337D01*
X012260Y006386D02*
X011709Y006386D01*
X011720Y006228D02*
X012260Y006228D01*
X012260Y006069D02*
X011720Y006069D01*
X011720Y005752D02*
X012260Y005752D01*
X012260Y005594D02*
X011714Y005594D01*
X012260Y005911D02*
X011140Y005911D01*
X011140Y006069D02*
X010980Y006069D01*
X010980Y006228D02*
X011140Y006228D01*
X011140Y006386D02*
X010980Y006386D01*
X010020Y008130D02*
X003240Y008130D01*
X003240Y008288D02*
X010020Y008288D01*
X007543Y004484D02*
X003240Y004484D01*
X003240Y004326D02*
X007522Y004326D01*
X007647Y004167D02*
X003240Y004167D01*
X003240Y004009D02*
X016680Y004009D01*
X016680Y003850D02*
X003240Y003850D01*
X003240Y003692D02*
X004251Y003692D01*
X004323Y003733D02*
X004066Y003584D01*
X003855Y003374D01*
X003707Y003116D01*
X003630Y002829D01*
X003630Y002531D01*
X003707Y002244D01*
X003855Y001986D01*
X004066Y001776D01*
X004323Y001627D01*
X004611Y001550D01*
X004908Y001550D01*
X005196Y001627D01*
X005453Y001776D01*
X005664Y001986D01*
X005813Y002244D01*
X005890Y002531D01*
X005890Y002829D01*
X005813Y003116D01*
X005664Y003374D01*
X005453Y003584D01*
X005196Y003733D01*
X004908Y003810D01*
X004611Y003810D01*
X004323Y003733D01*
X004014Y003533D02*
X003240Y003533D01*
X003240Y003375D02*
X003856Y003375D01*
X003764Y003216D02*
X003240Y003216D01*
X003240Y003058D02*
X003691Y003058D01*
X003648Y002899D02*
X003240Y002899D01*
X003240Y002741D02*
X003630Y002741D01*
X003630Y002582D02*
X003240Y002582D01*
X003240Y002424D02*
X003658Y002424D01*
X003701Y002265D02*
X003240Y002265D01*
X003240Y002107D02*
X003786Y002107D01*
X003893Y001948D02*
X003240Y001948D01*
X003240Y001790D02*
X004052Y001790D01*
X004316Y001631D02*
X003240Y001631D01*
X003240Y001473D02*
X015410Y001473D01*
X015310Y001631D02*
X005203Y001631D01*
X005467Y001790D02*
X015310Y001790D01*
X015310Y001948D02*
X008884Y001948D01*
X008879Y001940D02*
X008903Y001981D01*
X008915Y002027D01*
X008915Y002741D01*
X008517Y002741D01*
X008517Y001871D01*
X008759Y001871D01*
X008805Y001883D01*
X008846Y001907D01*
X008879Y001940D01*
X008915Y002107D02*
X012321Y002107D01*
X012319Y002116D02*
X012331Y002070D01*
X012355Y002029D01*
X012388Y001995D01*
X012429Y001972D01*
X012475Y001959D01*
X012899Y001959D01*
X012899Y002400D01*
X012319Y002400D01*
X012319Y002116D01*
X012319Y002265D02*
X008915Y002265D01*
X008915Y002424D02*
X012899Y002424D01*
X012899Y002400D02*
X012899Y002560D01*
X012319Y002560D01*
X012319Y002844D01*
X012331Y002890D01*
X012355Y002931D01*
X012388Y002965D01*
X012429Y002988D01*
X012475Y003001D01*
X012899Y003001D01*
X012899Y002560D01*
X013059Y002560D01*
X013059Y003001D01*
X013483Y003001D01*
X013529Y002988D01*
X013570Y002965D01*
X013604Y002931D01*
X013627Y002890D01*
X013640Y002844D01*
X013640Y002560D01*
X013059Y002560D01*
X013059Y002400D01*
X013059Y001959D01*
X013483Y001959D01*
X013529Y001972D01*
X013570Y001995D01*
X013604Y002029D01*
X013627Y002070D01*
X013640Y002116D01*
X013640Y002400D01*
X013059Y002400D01*
X012899Y002400D01*
X012899Y002265D02*
X013059Y002265D01*
X013059Y002107D02*
X012899Y002107D01*
X013059Y002424D02*
X013919Y002424D01*
X013919Y002582D02*
X013640Y002582D01*
X013640Y002741D02*
X013919Y002741D01*
X013919Y002887D02*
X013919Y002073D01*
X014013Y001979D01*
X015106Y001979D01*
X015200Y002073D01*
X015200Y002887D01*
X015106Y002981D01*
X014800Y002981D01*
X014800Y003114D01*
X014863Y003177D01*
X014918Y003309D01*
X014918Y003451D01*
X014863Y003583D01*
X014762Y003684D01*
X014631Y003738D01*
X014488Y003738D01*
X014357Y003684D01*
X014256Y003583D01*
X014201Y003451D01*
X014201Y003309D01*
X014256Y003177D01*
X014320Y003114D01*
X014320Y002981D01*
X014013Y002981D01*
X013919Y002887D01*
X013931Y002899D02*
X013622Y002899D01*
X014320Y003058D02*
X008915Y003058D01*
X008915Y003216D02*
X014240Y003216D01*
X014201Y003375D02*
X008915Y003375D01*
X008915Y003533D02*
X014235Y003533D01*
X014376Y003692D02*
X008845Y003692D01*
X008846Y003691D02*
X008805Y003715D01*
X008759Y003727D01*
X008517Y003727D01*
X008517Y002857D01*
X008402Y002857D01*
X008402Y003727D01*
X008160Y003727D01*
X008114Y003715D01*
X008073Y003691D01*
X008040Y003657D01*
X008016Y003616D01*
X008004Y003571D01*
X008004Y002857D01*
X008402Y002857D01*
X008402Y002741D01*
X008517Y002741D01*
X008517Y002857D01*
X008915Y002857D01*
X008915Y003571D01*
X008903Y003616D01*
X008879Y003657D01*
X008846Y003691D01*
X008517Y003692D02*
X008402Y003692D01*
X008402Y003533D02*
X008517Y003533D01*
X008517Y003375D02*
X008402Y003375D01*
X008402Y003216D02*
X008517Y003216D01*
X008517Y003058D02*
X008402Y003058D01*
X008402Y002899D02*
X008517Y002899D01*
X008517Y002741D02*
X008402Y002741D01*
X008402Y001871D01*
X008160Y001871D01*
X008114Y001883D01*
X008073Y001907D01*
X008040Y001940D01*
X008016Y001981D01*
X008004Y002027D01*
X008004Y002741D01*
X008402Y002741D01*
X008402Y002582D02*
X008517Y002582D01*
X008517Y002424D02*
X008402Y002424D01*
X008402Y002265D02*
X008517Y002265D01*
X008517Y002107D02*
X008402Y002107D01*
X008402Y001948D02*
X008517Y001948D01*
X008035Y001948D02*
X005626Y001948D01*
X005733Y002107D02*
X008004Y002107D01*
X008004Y002265D02*
X005818Y002265D01*
X005861Y002424D02*
X008004Y002424D01*
X008004Y002582D02*
X005890Y002582D01*
X005890Y002741D02*
X008004Y002741D01*
X008004Y002899D02*
X005871Y002899D01*
X005828Y003058D02*
X008004Y003058D01*
X008004Y003216D02*
X005755Y003216D01*
X005663Y003375D02*
X008004Y003375D01*
X008004Y003533D02*
X005505Y003533D01*
X005268Y003692D02*
X008074Y003692D01*
X008915Y002899D02*
X012336Y002899D01*
X012319Y002741D02*
X008915Y002741D01*
X008915Y002582D02*
X012319Y002582D01*
X012899Y002582D02*
X013059Y002582D01*
X013059Y002741D02*
X012899Y002741D01*
X012899Y002899D02*
X013059Y002899D01*
X013640Y002265D02*
X013919Y002265D01*
X013919Y002107D02*
X013637Y002107D01*
X014560Y002480D02*
X014560Y003380D01*
X014918Y003375D02*
X016680Y003375D01*
X016680Y003533D02*
X014884Y003533D01*
X014743Y003692D02*
X016680Y003692D01*
X017120Y003533D02*
X020144Y003533D01*
X020144Y003375D02*
X017120Y003375D01*
X015375Y003216D02*
X014879Y003216D01*
X014800Y003058D02*
X015305Y003058D01*
X015310Y002899D02*
X015188Y002899D01*
X015200Y002741D02*
X015310Y002741D01*
X015310Y002582D02*
X015200Y002582D01*
X015200Y002424D02*
X015310Y002424D01*
X015310Y002265D02*
X015200Y002265D01*
X015200Y002107D02*
X015310Y002107D01*
X015569Y001314D02*
X003240Y001314D01*
X003240Y001156D02*
X021181Y001156D01*
X021141Y001314D02*
X020150Y001314D01*
X020309Y001473D02*
X021176Y001473D01*
X021260Y001631D02*
X020390Y001631D01*
X020390Y001790D02*
X021260Y001790D01*
X021260Y001948D02*
X020390Y001948D01*
X020390Y002107D02*
X021260Y002107D01*
X021260Y002265D02*
X021015Y002265D01*
X021015Y002424D02*
X021260Y002424D01*
X021260Y002582D02*
X021015Y002582D01*
X021015Y002741D02*
X021260Y002741D01*
X021260Y002899D02*
X020390Y002899D01*
X021015Y003058D02*
X021260Y003058D01*
X021260Y003216D02*
X021015Y003216D01*
X021015Y003375D02*
X021260Y003375D01*
X021260Y003533D02*
X021015Y003533D01*
X020903Y003692D02*
X021251Y003692D01*
X021273Y003850D02*
X020956Y003850D01*
X021700Y002265D02*
X021963Y002265D01*
X021879Y002107D02*
X021700Y002107D01*
X021584Y000997D02*
X026572Y000997D01*
X026804Y000839D02*
X003240Y000839D01*
X003240Y000997D02*
X021375Y000997D01*
X029730Y002217D02*
X029730Y002990D01*
X029961Y002990D01*
X029968Y002983D01*
X030490Y002983D01*
X030490Y002160D01*
X030414Y002160D01*
X030219Y002079D01*
X030070Y001930D01*
X030040Y001858D01*
X029969Y002030D01*
X029820Y002179D01*
X029730Y002217D01*
X029730Y002265D02*
X030490Y002265D01*
X030490Y002424D02*
X029730Y002424D01*
X029730Y002582D02*
X030490Y002582D01*
X030490Y002741D02*
X029730Y002741D01*
X029730Y002899D02*
X030490Y002899D01*
X030285Y002107D02*
X029893Y002107D01*
X030003Y001948D02*
X030088Y001948D01*
X031970Y004930D02*
X031970Y004930D01*
X034390Y006430D02*
X035090Y006430D01*
X035440Y006780D01*
X035440Y007220D01*
X035820Y007600D01*
X037350Y007600D01*
X038430Y007680D01*
X029964Y008764D02*
X029935Y008764D01*
X039280Y026199D02*
X003240Y026199D01*
X003240Y020017D02*
X005644Y020017D01*
X005414Y019859D02*
X003240Y019859D01*
X003240Y019700D02*
X005317Y019700D01*
X005273Y019542D02*
X003240Y019542D01*
X003240Y019383D02*
X005273Y019383D01*
X005331Y019225D02*
X003240Y019225D01*
X003240Y019066D02*
X005449Y019066D01*
X005730Y018908D02*
X003240Y018908D01*
X003240Y016530D02*
X005676Y016530D01*
X005427Y016372D02*
X003240Y016372D01*
X003240Y016213D02*
X005322Y016213D01*
X005273Y016055D02*
X003240Y016055D01*
X003240Y015896D02*
X005273Y015896D01*
X005326Y015738D02*
X003240Y015738D01*
X003240Y015579D02*
X005436Y015579D01*
X005698Y015421D02*
X003240Y015421D01*
D40*
X007420Y011800D03*
X011880Y009100D03*
X016960Y006800D03*
X018980Y006460D03*
X019820Y005260D03*
X022140Y004800D03*
X022380Y006120D03*
X021740Y007580D03*
X023220Y008980D03*
X023860Y009480D03*
X022460Y009300D03*
X023720Y007560D03*
X025540Y008480D03*
X025640Y007900D03*
X026640Y008200D03*
X027180Y007140D03*
X025640Y009980D03*
X028800Y013600D03*
X029320Y014480D03*
X029380Y015600D03*
X028960Y016200D03*
X028360Y016700D03*
X027680Y017960D03*
X029960Y019240D03*
X031400Y017860D03*
X031360Y017040D03*
X032440Y018220D03*
X034720Y019160D03*
X034580Y019680D03*
X035780Y023080D03*
X028760Y025320D03*
X022140Y016380D03*
X018180Y015140D03*
X015700Y017120D03*
X008840Y015480D03*
X017920Y009360D03*
X014560Y003380D03*
X018940Y001780D03*
X026920Y002760D03*
X028130Y002530D03*
X029020Y002300D03*
X029990Y002350D03*
X036600Y010480D03*
X035240Y013060D03*
X035640Y014200D03*
X036200Y016140D03*
X033040Y015500D03*
X032400Y015500D03*
X032540Y013320D03*
X030480Y012780D03*
X009220Y001740D03*
X007620Y001740D03*
D41*
X020900Y001660D03*
X021480Y001320D03*
X021590Y003730D03*
X025540Y005260D03*
X026120Y005380D03*
X027740Y005280D03*
X027960Y005740D03*
X028720Y004750D03*
X029310Y005020D03*
X031120Y004980D03*
X028840Y003520D03*
X027640Y003740D03*
X026120Y007120D03*
X032510Y001300D03*
X034040Y017100D03*
X033900Y020020D03*
D42*
X033760Y019620D02*
X034520Y019620D01*
X034580Y019680D01*
X034720Y019160D02*
X034623Y019063D01*
X033954Y019063D01*
X033639Y019063D02*
X033639Y019500D01*
X033760Y019620D01*
X035260Y019440D02*
X035260Y018500D01*
X035114Y018355D01*
X034663Y018355D01*
X035620Y018620D02*
X035980Y018980D01*
X037240Y018980D01*
X037860Y019600D01*
X037960Y018600D02*
X036120Y018600D01*
X035920Y018400D01*
X035920Y017100D01*
X035285Y016465D01*
X034663Y016465D01*
X034663Y016780D02*
X035260Y016780D01*
X035620Y017140D01*
X035620Y018620D01*
X035260Y019440D02*
X035380Y019560D01*
X035726Y019560D01*
X034658Y017100D02*
X034040Y017100D01*
X034658Y017100D02*
X034663Y017095D01*
X033800Y016500D02*
X031440Y016500D01*
X031360Y016580D01*
X031360Y017040D01*
X030800Y017220D02*
X030800Y016440D01*
X031020Y016220D01*
X033620Y016220D01*
X033920Y015920D01*
X033920Y015360D01*
X033620Y015400D02*
X033620Y015920D01*
X033520Y016020D01*
X030740Y016020D01*
X030555Y015835D01*
X030096Y015835D01*
X030096Y015520D02*
X030096Y015520D01*
X029460Y015520D01*
X029380Y015600D01*
X028960Y015860D02*
X027120Y014020D01*
X026280Y014020D01*
X025760Y013500D01*
X025760Y012400D01*
X025560Y012200D01*
X023540Y012200D01*
X023360Y012380D01*
X023360Y013460D01*
X023160Y013660D01*
X021220Y013660D01*
X020720Y013160D01*
X020720Y010620D01*
X020320Y010220D01*
X019574Y010220D01*
X019514Y010280D01*
X017920Y009360D02*
X017920Y008594D01*
X017905Y008580D01*
X021740Y007580D02*
X022449Y007580D01*
X022460Y007579D01*
X022470Y007574D01*
X022479Y007568D01*
X022487Y007320D02*
X022479Y007312D01*
X022490Y007300D01*
X022487Y007320D02*
X023020Y007320D01*
X023160Y007460D01*
X023160Y007780D01*
X024300Y008920D01*
X024300Y010880D01*
X024700Y011280D01*
X025600Y011280D01*
X026020Y011700D01*
X026020Y013440D01*
X026340Y013740D01*
X027200Y013740D01*
X028625Y015205D01*
X030096Y015205D01*
X029320Y014480D02*
X029260Y014540D01*
X028340Y014540D01*
X027260Y013460D01*
X026480Y013460D01*
X026280Y013260D01*
X026280Y011640D01*
X025640Y011000D01*
X024840Y011000D01*
X024614Y010774D01*
X024614Y010280D01*
X025000Y009981D02*
X024998Y009961D01*
X024992Y009943D01*
X024983Y009925D01*
X024971Y009910D01*
X024970Y009911D02*
X024560Y009500D01*
X024560Y008861D01*
X024530Y008791D02*
X024180Y008440D01*
X024180Y007241D01*
X024209Y007171D02*
X024320Y007060D01*
X024791Y007060D01*
X024796Y007059D01*
X024801Y007056D01*
X024802Y006800D02*
X025940Y006800D01*
X026120Y006980D01*
X026120Y007120D01*
X025610Y007691D02*
X025480Y007560D01*
X024820Y007560D01*
X024813Y007561D01*
X024807Y007563D01*
X024802Y007568D01*
X025611Y007690D02*
X025623Y007705D01*
X025632Y007723D01*
X025638Y007741D01*
X025640Y007761D01*
X025640Y007900D01*
X024531Y008790D02*
X024543Y008805D01*
X024552Y008823D01*
X024558Y008841D01*
X024560Y008861D01*
X023680Y008640D02*
X023680Y009380D01*
X023780Y009480D01*
X023860Y009480D01*
X023220Y008980D02*
X023140Y008900D01*
X023140Y008440D01*
X023035Y008335D01*
X022479Y008335D01*
X022499Y008100D02*
X022479Y008079D01*
X022479Y008080D01*
X023120Y008080D01*
X023680Y008640D01*
X023720Y007560D02*
X023720Y006761D01*
X023749Y006691D02*
X024304Y006136D01*
X024374Y006107D02*
X029500Y006107D01*
X029500Y005680D01*
X029720Y005459D01*
X029791Y005430D02*
X031970Y005430D01*
X031945Y005920D02*
X030600Y005920D01*
X030422Y006097D01*
X030400Y006107D02*
X030400Y006440D01*
X030325Y006515D01*
X030254Y006544D02*
X024802Y006544D01*
X024374Y006107D02*
X024354Y006109D01*
X024336Y006115D01*
X024318Y006124D01*
X024303Y006136D01*
X024220Y005820D02*
X027080Y005820D01*
X027220Y005680D01*
X027220Y005067D01*
X027221Y004805D01*
X026967Y004809D02*
X026967Y005512D01*
X026900Y005580D01*
X026240Y005580D01*
X026120Y005460D01*
X026120Y005380D01*
X026710Y005010D02*
X026720Y005000D01*
X026710Y005010D02*
X026710Y004809D01*
X026710Y004290D01*
X026520Y004100D01*
X026093Y004100D01*
X025860Y003866D01*
X025053Y004000D02*
X025053Y004860D01*
X025540Y004974D02*
X025860Y004654D01*
X026019Y004813D01*
X026454Y004813D01*
X026454Y004754D01*
X025894Y004754D01*
X025820Y004680D01*
X025540Y004974D02*
X025540Y005260D01*
X026454Y004813D02*
X026454Y004806D01*
X026460Y004800D01*
X026454Y004754D02*
X026440Y004740D01*
X026985Y004225D02*
X026700Y003940D01*
X026700Y003481D01*
X026710Y003471D01*
X026969Y003471D02*
X026969Y003850D01*
X027120Y004000D01*
X027560Y004000D01*
X027640Y003900D01*
X027640Y003740D01*
X027895Y003475D02*
X027780Y003360D01*
X027780Y002540D01*
X027600Y002360D01*
X026980Y002360D01*
X026760Y002140D01*
X026760Y001120D01*
X026920Y001020D01*
X031240Y001020D01*
X031420Y001200D01*
X031420Y001360D01*
X032960Y002006D02*
X032980Y001986D01*
X033840Y001986D01*
X033840Y002774D02*
X032313Y004300D01*
X032053Y004300D01*
X032033Y003540D02*
X032700Y003540D01*
X032960Y003280D01*
X032960Y002794D01*
X031226Y004300D02*
X031206Y004280D01*
X030940Y004280D01*
X030745Y004475D01*
X030260Y004475D01*
X030320Y004000D02*
X030295Y003975D01*
X030260Y003975D01*
X030265Y003480D02*
X030260Y003475D01*
X030260Y003225D02*
X030235Y003200D01*
X029620Y003200D01*
X029520Y003100D01*
X029520Y001730D01*
X028520Y001630D02*
X028520Y002885D01*
X028180Y003225D01*
X028180Y003475D02*
X027895Y003475D01*
X028175Y004220D02*
X028180Y004225D01*
X026985Y004225D01*
X028175Y004480D02*
X028180Y004475D01*
X029720Y005459D02*
X029735Y005447D01*
X029753Y005438D01*
X029771Y005432D01*
X029791Y005430D01*
X030400Y006106D02*
X030408Y006105D01*
X030416Y006102D01*
X030423Y006097D01*
X030325Y006515D02*
X030310Y006527D01*
X030292Y006536D01*
X030274Y006542D01*
X030254Y006544D01*
X030400Y006933D02*
X030400Y007726D01*
X029500Y007726D02*
X029500Y006933D01*
X031945Y005920D02*
X031954Y005921D01*
X031962Y005925D01*
X031969Y005930D01*
X034390Y005930D02*
X036010Y005930D01*
X036760Y006680D01*
X038330Y006680D01*
X038430Y005680D02*
X038180Y005430D01*
X034390Y005430D01*
X034060Y009940D02*
X035400Y009940D01*
X035540Y010080D01*
X035540Y011680D01*
X035400Y011820D01*
X034340Y011820D01*
X034330Y011810D01*
X034330Y012310D01*
X034320Y012800D02*
X034330Y012810D01*
X034180Y012960D01*
X034180Y013340D01*
X034500Y013620D01*
X034846Y013620D01*
X035640Y013553D02*
X035640Y014200D01*
X035673Y013620D02*
X035640Y013553D01*
X036390Y012310D02*
X038080Y012310D01*
X038250Y012480D01*
X037820Y011810D02*
X038150Y011480D01*
X037820Y011810D02*
X036390Y011810D01*
X036600Y010480D02*
X035953Y010480D01*
X035933Y010460D01*
X035106Y010460D02*
X034360Y010460D01*
X034280Y010540D01*
X034280Y011260D01*
X034330Y011310D01*
X034320Y011320D01*
X032220Y011320D01*
X031750Y011790D01*
X031750Y014497D01*
X032065Y014497D02*
X032065Y013095D01*
X032360Y012800D01*
X034320Y012800D01*
X033954Y014497D02*
X033940Y014511D01*
X033940Y014820D01*
X033640Y015120D01*
X033120Y015120D01*
X033040Y015200D01*
X033040Y015500D01*
X034160Y015920D02*
X034160Y016140D01*
X033800Y016500D01*
X034160Y015920D02*
X034244Y015835D01*
X034464Y015835D01*
X034460Y015840D01*
X034464Y015835D02*
X034663Y015835D01*
X034380Y014920D02*
X036860Y014920D01*
X036980Y015020D01*
X036980Y016040D01*
X037240Y016300D01*
X037950Y016300D01*
X037850Y015300D02*
X037800Y015250D01*
X037800Y014880D01*
X037710Y014690D01*
X034330Y014690D01*
X031520Y013700D02*
X031520Y011680D01*
X032140Y011060D01*
X033600Y011060D01*
X033840Y010820D01*
X033840Y010160D01*
X034060Y009940D01*
X030314Y010380D02*
X030314Y012186D01*
X029600Y012900D01*
X029600Y013560D01*
X029480Y013680D01*
X028880Y013680D01*
X028800Y013600D01*
X028241Y014040D02*
X028221Y014038D01*
X028203Y014032D01*
X028185Y014023D01*
X028170Y014011D01*
X027400Y013240D01*
X026661Y013240D01*
X026590Y013211D02*
X026520Y013140D01*
X026520Y011581D01*
X026490Y011511D02*
X025760Y010780D01*
X025241Y010780D01*
X025170Y010751D02*
X025000Y010580D01*
X025000Y009981D01*
X025170Y010751D02*
X025185Y010763D01*
X025203Y010772D01*
X025221Y010778D01*
X025241Y010780D01*
X026491Y011510D02*
X026503Y011525D01*
X026512Y011543D01*
X026518Y011561D01*
X026520Y011581D01*
X026590Y013211D02*
X026605Y013223D01*
X026623Y013232D01*
X026641Y013238D01*
X026661Y013240D01*
X028241Y014040D02*
X029500Y014040D01*
X029927Y014467D01*
X029997Y014497D02*
X030805Y014497D01*
X031120Y014497D02*
X031120Y014100D01*
X031520Y013700D01*
X029997Y014497D02*
X029977Y014495D01*
X029959Y014489D01*
X029941Y014480D01*
X029926Y014468D01*
X028960Y015860D02*
X028960Y016200D01*
X030096Y017410D02*
X030610Y017410D01*
X030800Y017220D01*
X030096Y017725D02*
X029584Y017725D01*
X029580Y017720D01*
X028400Y017720D01*
X025600Y014920D01*
X018400Y014920D01*
X018180Y015140D01*
X022478Y008080D02*
X022479Y008079D01*
X022479Y007056D02*
X021977Y007056D01*
X021906Y007027D02*
X021800Y006920D01*
X021800Y004080D01*
X021880Y004000D01*
X022766Y004000D01*
X022766Y003113D01*
X023420Y002460D01*
X023420Y001850D01*
X023400Y001830D01*
X023640Y002680D02*
X024200Y002680D01*
X024420Y002460D01*
X024420Y001950D01*
X024400Y001930D01*
X023640Y002680D02*
X023180Y003140D01*
X023180Y004780D01*
X023100Y004860D01*
X022746Y004860D01*
X022341Y004860D01*
X022270Y004831D02*
X022140Y004800D01*
X022270Y004831D02*
X022285Y004843D01*
X022303Y004852D01*
X022321Y004858D01*
X022341Y004860D01*
X023573Y004860D02*
X024266Y004860D01*
X024266Y004000D02*
X023593Y004000D01*
X024220Y005820D02*
X023269Y006771D01*
X023198Y006800D02*
X022479Y006800D01*
X022479Y006544D02*
X022479Y006261D01*
X022449Y006190D02*
X022380Y006120D01*
X022450Y006190D02*
X022462Y006205D01*
X022471Y006223D01*
X022477Y006241D01*
X022479Y006261D01*
X023198Y006800D02*
X023218Y006798D01*
X023236Y006792D01*
X023254Y006783D01*
X023269Y006771D01*
X023720Y006761D02*
X023722Y006741D01*
X023728Y006723D01*
X023737Y006705D01*
X023749Y006690D01*
X024209Y007170D02*
X024197Y007185D01*
X024188Y007203D01*
X024182Y007221D01*
X024180Y007241D01*
X021977Y007056D02*
X021957Y007054D01*
X021939Y007048D01*
X021921Y007039D01*
X021906Y007027D01*
X020560Y004047D02*
X020560Y003314D01*
X020580Y003294D01*
X020180Y002960D02*
X020180Y002807D01*
X020164Y002781D01*
X020154Y002743D01*
X020154Y002556D01*
X020180Y002556D01*
X020180Y002456D01*
X020154Y002456D01*
X020154Y002270D01*
X020164Y002232D01*
X020180Y002205D01*
X020180Y001640D01*
X020040Y001500D01*
X015680Y001500D01*
X015520Y001660D01*
X015520Y003060D01*
X015640Y003140D01*
X020000Y003140D01*
X020180Y002960D01*
X020180Y002946D02*
X018404Y002946D01*
X018412Y002941D02*
X018378Y002960D01*
X018340Y002971D01*
X017890Y002971D01*
X017890Y002530D01*
X018470Y002530D01*
X018470Y002840D01*
X018460Y002878D01*
X018440Y002913D01*
X018412Y002941D01*
X018468Y002847D02*
X018798Y002847D01*
X018807Y002862D02*
X018787Y002828D01*
X018777Y002790D01*
X018777Y002524D01*
X019350Y002524D01*
X019350Y002424D01*
X019450Y002424D01*
X019450Y002524D01*
X020022Y002524D01*
X020022Y002790D01*
X020012Y002828D01*
X019992Y002862D01*
X019964Y002890D01*
X019930Y002910D01*
X019892Y002920D01*
X019450Y002920D01*
X019450Y002524D01*
X019350Y002524D01*
X019350Y002920D01*
X018907Y002920D01*
X018869Y002910D01*
X018835Y002890D01*
X018807Y002862D01*
X018777Y002749D02*
X018470Y002749D01*
X018470Y002650D02*
X018777Y002650D01*
X018777Y002552D02*
X018470Y002552D01*
X018470Y002430D02*
X017890Y002430D01*
X017890Y002530D01*
X017790Y002530D01*
X017790Y002971D01*
X017340Y002971D01*
X017302Y002960D01*
X017267Y002941D01*
X017239Y002913D01*
X017220Y002878D01*
X017210Y002840D01*
X017210Y002530D01*
X017790Y002530D01*
X017790Y002430D01*
X017890Y002430D01*
X017890Y001989D01*
X018340Y001989D01*
X018378Y002000D01*
X018412Y002019D01*
X018440Y002047D01*
X018460Y002082D01*
X018470Y002120D01*
X018470Y002430D01*
X018470Y002355D02*
X018777Y002355D01*
X018777Y002424D02*
X018777Y002159D01*
X018787Y002121D01*
X018807Y002087D01*
X018835Y002059D01*
X018869Y002039D01*
X018907Y002029D01*
X019350Y002029D01*
X019350Y002424D01*
X018777Y002424D01*
X018777Y002256D02*
X018470Y002256D01*
X018470Y002158D02*
X018778Y002158D01*
X018835Y002059D02*
X018447Y002059D01*
X017890Y002059D02*
X017790Y002059D01*
X017790Y001989D02*
X017340Y001989D01*
X017302Y002000D01*
X017267Y002019D01*
X017239Y002047D01*
X017220Y002082D01*
X017210Y002120D01*
X017210Y002430D01*
X017790Y002430D01*
X017790Y001989D01*
X017790Y002158D02*
X017890Y002158D01*
X017890Y002256D02*
X017790Y002256D01*
X017790Y002355D02*
X017890Y002355D01*
X017890Y002453D02*
X019350Y002453D01*
X019350Y002355D02*
X019450Y002355D01*
X019450Y002424D02*
X019450Y002029D01*
X019892Y002029D01*
X019930Y002039D01*
X019964Y002059D01*
X019992Y002087D01*
X020012Y002121D01*
X020022Y002159D01*
X020022Y002424D01*
X019450Y002424D01*
X019450Y002453D02*
X020154Y002453D01*
X020166Y002506D02*
X020100Y002440D01*
X020166Y002506D02*
X020580Y002506D01*
X020180Y002552D02*
X020022Y002552D01*
X020022Y002650D02*
X020154Y002650D01*
X020156Y002749D02*
X020022Y002749D01*
X020001Y002847D02*
X020180Y002847D01*
X020096Y003044D02*
X015520Y003044D01*
X015520Y002946D02*
X015596Y002946D01*
X015587Y002941D02*
X015559Y002913D01*
X015539Y002878D01*
X015529Y002840D01*
X015529Y002530D01*
X016110Y002530D01*
X016110Y002971D01*
X015659Y002971D01*
X015621Y002960D01*
X015587Y002941D01*
X015531Y002847D02*
X015520Y002847D01*
X015520Y002749D02*
X015529Y002749D01*
X015520Y002650D02*
X015529Y002650D01*
X015520Y002552D02*
X015529Y002552D01*
X015520Y002453D02*
X016110Y002453D01*
X016110Y002430D02*
X015529Y002430D01*
X015529Y002120D01*
X015539Y002082D01*
X015559Y002047D01*
X015587Y002019D01*
X015621Y002000D01*
X015659Y001989D01*
X016110Y001989D01*
X016110Y002430D01*
X016210Y002430D01*
X016210Y002530D01*
X016790Y002530D01*
X016790Y002840D01*
X016780Y002878D01*
X016760Y002913D01*
X016732Y002941D01*
X016698Y002960D01*
X016660Y002971D01*
X016210Y002971D01*
X016210Y002530D01*
X016110Y002530D01*
X016110Y002430D01*
X016110Y002355D02*
X016210Y002355D01*
X016210Y002430D02*
X016210Y001989D01*
X016660Y001989D01*
X016698Y002000D01*
X016732Y002019D01*
X016760Y002047D01*
X016780Y002082D01*
X016790Y002120D01*
X016790Y002430D01*
X016210Y002430D01*
X016210Y002453D02*
X017790Y002453D01*
X017790Y002552D02*
X017890Y002552D01*
X017890Y002650D02*
X017790Y002650D01*
X017790Y002749D02*
X017890Y002749D01*
X017890Y002847D02*
X017790Y002847D01*
X017790Y002946D02*
X017890Y002946D01*
X017276Y002946D02*
X016723Y002946D01*
X016788Y002847D02*
X017211Y002847D01*
X017210Y002749D02*
X016790Y002749D01*
X016790Y002650D02*
X017210Y002650D01*
X017210Y002552D02*
X016790Y002552D01*
X016790Y002355D02*
X017210Y002355D01*
X017210Y002256D02*
X016790Y002256D01*
X016790Y002158D02*
X017210Y002158D01*
X017233Y002059D02*
X016767Y002059D01*
X016210Y002059D02*
X016110Y002059D01*
X016110Y002158D02*
X016210Y002158D01*
X016210Y002256D02*
X016110Y002256D01*
X016110Y002552D02*
X016210Y002552D01*
X016210Y002650D02*
X016110Y002650D01*
X016110Y002749D02*
X016210Y002749D01*
X016210Y002847D02*
X016110Y002847D01*
X016110Y002946D02*
X016210Y002946D01*
X015529Y002355D02*
X015520Y002355D01*
X015520Y002256D02*
X015529Y002256D01*
X015520Y002158D02*
X015529Y002158D01*
X015520Y002059D02*
X015552Y002059D01*
X015520Y001961D02*
X020180Y001961D01*
X020180Y002059D02*
X019964Y002059D01*
X020021Y002158D02*
X020180Y002158D01*
X020158Y002256D02*
X020022Y002256D01*
X020022Y002355D02*
X020154Y002355D01*
X020180Y001862D02*
X015520Y001862D01*
X015520Y001764D02*
X020180Y001764D01*
X020180Y001665D02*
X015520Y001665D01*
X015613Y001567D02*
X020106Y001567D01*
X019450Y002059D02*
X019350Y002059D01*
X019350Y002158D02*
X019450Y002158D01*
X019450Y002256D02*
X019350Y002256D01*
X019350Y002552D02*
X019450Y002552D01*
X019450Y002650D02*
X019350Y002650D01*
X019350Y002749D02*
X019450Y002749D01*
X019450Y002847D02*
X019350Y002847D01*
D43*
X017840Y003020D02*
X017840Y002480D01*
X017840Y003020D02*
X017740Y003120D01*
X016920Y003120D01*
X016900Y003140D01*
X016900Y006740D01*
X016960Y006800D01*
X017134Y006974D01*
X017134Y007968D01*
X021480Y003620D02*
X021590Y003730D01*
X021480Y003620D02*
X021480Y001320D01*
X027740Y005020D02*
X027740Y005280D01*
X027740Y005320D01*
X027740Y005020D02*
X027785Y004975D01*
X028180Y004975D01*
X028720Y004750D02*
X028770Y004670D01*
X028770Y004500D01*
X028750Y004480D01*
X028175Y004480D01*
X028180Y004475D02*
X028185Y004480D01*
X029100Y004480D01*
X029240Y004340D01*
X029240Y003800D01*
X029315Y003725D01*
X030260Y003725D01*
X030260Y003475D01*
X030260Y003975D02*
X030595Y003975D01*
X030710Y003860D01*
X030710Y001820D01*
X030520Y001630D01*
X031420Y001360D02*
X031420Y002610D01*
X031190Y002840D01*
X031190Y003523D01*
X031206Y003540D01*
X030260Y004975D02*
X030235Y005000D01*
X029860Y005000D01*
X029260Y005600D01*
X028757Y005600D01*
X032960Y002006D02*
X032960Y001750D01*
X032510Y001300D01*
X034390Y004930D02*
X038080Y004930D01*
X038330Y004680D01*
X030096Y018040D02*
X030076Y018060D01*
X029500Y018060D01*
X029160Y018400D01*
X029160Y020420D01*
X029225Y020486D01*
X029360Y020486D01*
X031140Y020486D02*
X031140Y019083D01*
X031120Y019063D01*
X031435Y019063D02*
X031440Y019068D01*
X031440Y019940D01*
X031885Y020386D01*
X032800Y020386D01*
X033400Y020220D02*
X033400Y019960D01*
X033340Y019900D01*
X032020Y019900D01*
X031760Y019640D01*
X031760Y019073D01*
X031750Y019063D01*
X033400Y020220D02*
X033665Y020486D01*
X034620Y020486D01*
X036513Y019560D02*
X036513Y022060D01*
X036420Y022207D01*
D44*
X033280Y023473D02*
X033080Y023673D01*
X033080Y025290D01*
X032080Y025390D02*
X032080Y023773D01*
X031780Y023473D01*
X031080Y024373D02*
X030180Y023473D01*
X031080Y024373D02*
X031080Y025290D01*
X018940Y001780D02*
X018881Y001780D01*
X018810Y001751D02*
X018780Y001720D01*
X018810Y001751D02*
X018825Y001763D01*
X018843Y001772D01*
X018861Y001778D01*
X018881Y001780D01*
D45*
X033620Y015400D02*
X034330Y014690D01*
X034380Y014920D02*
X033920Y015360D01*
D46*
X024960Y013880D02*
X024960Y012980D01*
X025060Y012880D01*
X024960Y013880D02*
X024410Y014330D01*
X024760Y014080D01*
D47*
X024410Y014330D02*
X024160Y014380D01*
X019260Y014380D01*
X019260Y012780D01*
X019260Y014380D02*
X014360Y014380D01*
X014160Y014180D01*
X014160Y012780D01*
X014360Y014380D02*
X009593Y014380D01*
X008960Y013746D01*
X008960Y012780D01*
X008960Y011280D01*
X009160Y011080D01*
X010060Y011080D01*
X010560Y010580D01*
X010560Y007480D01*
X010660Y007380D01*
D48*
X024760Y014080D02*
X024960Y014280D01*
X025940Y014280D01*
X028360Y016700D01*
D49*
X028060Y012880D02*
X028060Y011413D01*
X028026Y011380D01*
X022260Y011413D02*
X022226Y011380D01*
X022260Y011413D02*
X022260Y012780D01*
X017160Y012780D02*
X017160Y011313D01*
X017126Y011280D01*
X012026Y010980D02*
X012026Y012780D01*
X011960Y012780D01*
X034860Y023453D02*
X035590Y024183D01*
X035590Y025320D01*
D50*
X025260Y022380D02*
X024360Y022380D01*
X023560Y021580D01*
X023560Y018380D01*
X025060Y016880D01*
X019260Y016780D02*
X017860Y018180D01*
X017860Y021880D01*
X018360Y022380D01*
X019760Y022380D01*
X014260Y022380D02*
X013160Y022380D01*
X012860Y022080D01*
X012860Y017880D01*
X013960Y016780D01*
X014160Y016780D01*
X009160Y009380D02*
X006960Y009380D01*
X009160Y009380D02*
X009160Y009346D01*
M02*
