G75*
%MOIN*%
%OFA0B0*%
%FSLAX24Y24*%
%IPPOS*%
%LPD*%
%AMOC8*
5,1,8,0,0,1.08239X$1,22.5*
%
%ADD10C,0.0600*%
%ADD11R,0.0472X0.0315*%
%ADD12R,0.0433X0.0551*%
%ADD13R,0.0512X0.0591*%
%ADD14R,0.0740X0.0740*%
%ADD15C,0.0740*%
%ADD16R,0.0591X0.0512*%
%ADD17R,0.0630X0.0748*%
%ADD18R,0.0315X0.0472*%
%ADD19C,0.0827*%
%ADD20R,0.0866X0.0945*%
%ADD21R,0.0551X0.0433*%
%ADD22R,0.0630X0.0551*%
%ADD23C,0.0827*%
%ADD24C,0.0160*%
%ADD25C,0.0396*%
%ADD26C,0.0357*%
%ADD27C,0.0120*%
%ADD28C,0.0100*%
%ADD29C,0.0240*%
%ADD30C,0.0320*%
%ADD31C,0.0560*%
%ADD32C,0.0860*%
%ADD33C,0.1000*%
%ADD34C,0.1500*%
D10*
X037660Y018600D02*
X038260Y018600D01*
X038160Y019600D02*
X037560Y019600D01*
X037660Y020600D02*
X038260Y020600D01*
X038160Y021600D02*
X037560Y021600D01*
X037660Y022600D02*
X038260Y022600D01*
D11*
X036740Y022414D03*
X036740Y021706D03*
X030360Y003674D03*
X030360Y002966D03*
D12*
X034906Y011520D03*
X035693Y011520D03*
X035713Y012460D03*
X034926Y012460D03*
X037406Y013560D03*
X038193Y013560D03*
X038193Y014360D03*
X037406Y014360D03*
X016353Y003480D03*
X015566Y003480D03*
D13*
X023285Y006640D03*
X023954Y006640D03*
X031125Y015460D03*
X031794Y015460D03*
X033005Y018180D03*
X033674Y018180D03*
D14*
X037850Y015300D03*
X038250Y012480D03*
X038430Y007680D03*
X027520Y001730D03*
X025400Y001830D03*
X019650Y008620D03*
X033080Y025290D03*
X035590Y025320D03*
D15*
X034490Y025320D03*
X032080Y025390D03*
X031080Y025290D03*
X030080Y025390D03*
X037850Y017300D03*
X037950Y016300D03*
X038150Y011480D03*
X038250Y010480D03*
X038330Y006680D03*
X038430Y005680D03*
X038330Y004680D03*
X030520Y001630D03*
X029520Y001730D03*
X028520Y001630D03*
X024400Y001930D03*
X023400Y001830D03*
X022400Y001930D03*
X020750Y008620D03*
D16*
X034540Y013845D03*
X034540Y014515D03*
X035680Y005915D03*
X035680Y005245D03*
D17*
X034580Y004930D03*
X034580Y006230D03*
D18*
X024714Y004680D03*
X024005Y004680D03*
X018234Y007720D03*
X017525Y007720D03*
D19*
X017160Y012780D03*
X019260Y012780D03*
X022260Y012780D03*
X025060Y012880D03*
X028060Y012880D03*
X025060Y016880D03*
X025060Y019880D03*
X019260Y019780D03*
X019260Y016780D03*
X014160Y016780D03*
X014160Y019780D03*
X008960Y019780D03*
X008960Y016780D03*
X008960Y012780D03*
X011960Y012780D03*
X014160Y012780D03*
D20*
X014693Y014380D03*
X016626Y014380D03*
X019993Y014280D03*
X021926Y014280D03*
X025693Y014400D03*
X027626Y014400D03*
X011526Y014380D03*
X009593Y014380D03*
D21*
X037100Y012374D03*
X037100Y011586D03*
D22*
X029340Y004071D03*
X029340Y002969D03*
D23*
X007373Y007380D02*
X006546Y007380D01*
X006546Y009380D02*
X007373Y009380D01*
X006673Y013980D02*
X005846Y013980D01*
X005846Y015980D02*
X006673Y015980D01*
X006673Y019480D02*
X005846Y019480D01*
X005846Y021480D02*
X006673Y021480D01*
X009260Y021867D02*
X009260Y022693D01*
X011260Y022693D02*
X011260Y021867D01*
X014260Y021967D02*
X014260Y022793D01*
X016260Y022793D02*
X016260Y021967D01*
X019760Y021967D02*
X019760Y022793D01*
X021760Y022793D02*
X021760Y021967D01*
X025260Y021967D02*
X025260Y022793D01*
X027260Y022793D02*
X027260Y021967D01*
D24*
X003240Y026200D02*
X003240Y000660D01*
X032280Y000660D01*
X032280Y001051D01*
X032251Y001080D01*
X032181Y001080D01*
X032030Y000929D01*
X031901Y000800D01*
X021688Y000800D01*
X021507Y000982D01*
X021412Y000982D01*
X021288Y001033D01*
X021193Y001128D01*
X021141Y001253D01*
X021141Y001387D01*
X021193Y001512D01*
X021288Y001607D01*
X021412Y001658D01*
X021547Y001658D01*
X021671Y001607D01*
X021766Y001512D01*
X021818Y001387D01*
X021818Y001293D01*
X021871Y001240D01*
X027015Y001240D01*
X027005Y001249D01*
X026982Y001291D01*
X026970Y001336D01*
X026970Y001710D01*
X027500Y001710D01*
X027500Y001750D01*
X027500Y002280D01*
X027126Y002280D01*
X027080Y002268D01*
X027039Y002244D01*
X027005Y002211D01*
X026982Y002169D01*
X026970Y002124D01*
X026970Y001750D01*
X027500Y001750D01*
X027540Y001750D01*
X027540Y002280D01*
X027913Y002280D01*
X027959Y002268D01*
X028000Y002244D01*
X028034Y002211D01*
X028057Y002169D01*
X028070Y002124D01*
X028070Y001929D01*
X028070Y001930D01*
X028219Y002079D01*
X028414Y002160D01*
X028625Y002160D01*
X028820Y002079D01*
X028969Y001930D01*
X028999Y001858D01*
X029070Y002030D01*
X029219Y002179D01*
X029414Y002260D01*
X029625Y002260D01*
X029820Y002179D01*
X029969Y002030D01*
X030040Y001858D01*
X030070Y001930D01*
X030219Y002079D01*
X030220Y002079D01*
X030220Y002604D01*
X030175Y002648D01*
X030057Y002648D01*
X030016Y002689D01*
X029814Y002689D01*
X029814Y002627D01*
X029721Y002533D01*
X028958Y002533D01*
X028865Y002627D01*
X028865Y003311D01*
X028958Y003404D01*
X029721Y003404D01*
X029814Y003311D01*
X029814Y003249D01*
X030023Y003249D01*
X030057Y003283D01*
X030662Y003283D01*
X030756Y003189D01*
X030756Y002833D01*
X030780Y002776D01*
X030780Y002096D01*
X030820Y002079D01*
X030890Y002010D01*
X030890Y004169D01*
X030608Y004450D01*
X029803Y004450D01*
X029822Y004416D01*
X029834Y004370D01*
X029834Y004129D01*
X029397Y004129D01*
X029397Y004013D01*
X029397Y003616D01*
X029678Y003616D01*
X029724Y003628D01*
X029765Y003652D01*
X029799Y003685D01*
X029822Y003726D01*
X029834Y003772D01*
X029834Y004013D01*
X029397Y004013D01*
X029282Y004013D01*
X029282Y003616D01*
X029001Y003616D01*
X028955Y003628D01*
X028914Y003652D01*
X028881Y003685D01*
X028857Y003726D01*
X028845Y003772D01*
X028845Y004013D01*
X029282Y004013D01*
X029282Y004129D01*
X028845Y004129D01*
X028845Y004370D01*
X028857Y004416D01*
X028875Y004448D01*
X028787Y004412D01*
X028652Y004412D01*
X028528Y004463D01*
X028433Y004558D01*
X028381Y004683D01*
X028381Y004817D01*
X028433Y004942D01*
X028528Y005037D01*
X028652Y005088D01*
X028787Y005088D01*
X028911Y005037D01*
X029006Y004942D01*
X029028Y004890D01*
X030791Y004890D01*
X031201Y004480D01*
X031330Y004351D01*
X031330Y001951D01*
X031521Y001760D01*
X032280Y001760D01*
X032280Y009520D01*
X028905Y009520D01*
X027763Y008378D01*
X027763Y008378D01*
X027695Y008310D01*
X027607Y008274D01*
X027053Y008274D01*
X026998Y008219D01*
X026998Y008129D01*
X026943Y007997D01*
X026880Y007934D01*
X026880Y003952D01*
X026843Y003864D01*
X026083Y003104D01*
X026015Y003037D01*
X025927Y003000D01*
X025640Y003000D01*
X025640Y002360D01*
X025836Y002360D01*
X025930Y002266D01*
X025930Y001394D01*
X025836Y001300D01*
X024963Y001300D01*
X024870Y001394D01*
X024870Y001680D01*
X024849Y001630D01*
X024700Y001481D01*
X024505Y001400D01*
X024294Y001400D01*
X024099Y001481D01*
X023950Y001630D01*
X023920Y001702D01*
X023849Y001530D01*
X023700Y001381D01*
X023505Y001300D01*
X023294Y001300D01*
X023099Y001381D01*
X022950Y001530D01*
X022889Y001678D01*
X022870Y001642D01*
X022819Y001572D01*
X022758Y001510D01*
X022688Y001460D01*
X022611Y001420D01*
X022528Y001394D01*
X022443Y001380D01*
X022420Y001380D01*
X022420Y001910D01*
X022380Y001910D01*
X022380Y001380D01*
X022356Y001380D01*
X022271Y001394D01*
X022188Y001420D01*
X022111Y001460D01*
X022041Y001510D01*
X021980Y001572D01*
X021929Y001642D01*
X021890Y001719D01*
X021863Y001801D01*
X021850Y001887D01*
X021850Y001910D01*
X022380Y001910D01*
X022380Y001950D01*
X022380Y002480D01*
X022356Y002480D01*
X022271Y002466D01*
X022188Y002440D01*
X022111Y002400D01*
X022041Y002350D01*
X021980Y002288D01*
X021929Y002218D01*
X021890Y002141D01*
X021863Y002059D01*
X021850Y001973D01*
X021850Y001950D01*
X022380Y001950D01*
X022420Y001950D01*
X022420Y002480D01*
X022443Y002480D01*
X022528Y002466D01*
X022611Y002440D01*
X022688Y002400D01*
X022758Y002350D01*
X022819Y002288D01*
X022870Y002218D01*
X022909Y002141D01*
X022929Y002080D01*
X022950Y002130D01*
X023099Y002279D01*
X023294Y002360D01*
X023505Y002360D01*
X023700Y002279D01*
X023849Y002130D01*
X023879Y002058D01*
X023950Y002230D01*
X024099Y002379D01*
X024294Y002460D01*
X024505Y002460D01*
X024700Y002379D01*
X024849Y002230D01*
X024870Y002180D01*
X024870Y002266D01*
X024963Y002360D01*
X025160Y002360D01*
X025160Y003000D01*
X020399Y003000D01*
X020203Y002804D01*
X020135Y002737D01*
X020047Y002700D01*
X019520Y002700D01*
X019520Y002046D01*
X019462Y001906D01*
X019462Y001906D01*
X019448Y001892D01*
X019448Y001892D01*
X019404Y001849D01*
X019369Y001813D01*
X019369Y001813D01*
X019298Y001742D01*
X019298Y001709D01*
X019243Y001577D01*
X019142Y001476D01*
X019011Y001422D01*
X018868Y001422D01*
X018737Y001476D01*
X018636Y001577D01*
X018581Y001709D01*
X018581Y001851D01*
X018636Y001983D01*
X018737Y002084D01*
X018868Y002138D01*
X018902Y002138D01*
X018960Y002196D01*
X018960Y005856D01*
X019002Y005959D01*
X019081Y006037D01*
X019081Y006037D01*
X019293Y006249D01*
X019293Y006249D01*
X019331Y006288D01*
X019372Y006328D01*
X019372Y006328D01*
X019386Y006342D01*
X019386Y006342D01*
X019525Y006400D01*
X022153Y006400D01*
X022177Y006424D01*
X022308Y006478D01*
X022342Y006478D01*
X022633Y006769D01*
X022633Y006769D01*
X022669Y006806D01*
X022712Y006848D01*
X022712Y006848D01*
X022726Y006862D01*
X022726Y006862D01*
X022865Y006920D01*
X022869Y006920D01*
X022869Y007002D01*
X022963Y007095D01*
X023607Y007095D01*
X023610Y007092D01*
X023629Y007103D01*
X023675Y007115D01*
X023906Y007115D01*
X023906Y006688D01*
X024002Y006688D01*
X024002Y007115D01*
X024234Y007115D01*
X024280Y007103D01*
X024321Y007079D01*
X024354Y007046D01*
X024378Y007005D01*
X024390Y006959D01*
X024390Y006688D01*
X024002Y006688D01*
X024002Y006592D01*
X024002Y006165D01*
X024234Y006165D01*
X024280Y006177D01*
X024321Y006201D01*
X024354Y006234D01*
X024378Y006275D01*
X024390Y006321D01*
X024390Y006592D01*
X024002Y006592D01*
X023906Y006592D01*
X023906Y006165D01*
X023675Y006165D01*
X023629Y006177D01*
X023610Y006188D01*
X023607Y006185D01*
X022963Y006185D01*
X022901Y006246D01*
X022738Y006082D01*
X022738Y006049D01*
X022683Y005917D01*
X022616Y005850D01*
X025390Y005850D01*
X025390Y007644D01*
X025336Y007697D01*
X025281Y007829D01*
X025281Y007971D01*
X018571Y007971D01*
X018571Y007980D02*
X018559Y008026D01*
X018535Y008067D01*
X018502Y008100D01*
X018461Y008124D01*
X018415Y008136D01*
X018234Y008136D01*
X018234Y007720D01*
X018571Y007720D01*
X018571Y007980D01*
X018571Y007813D02*
X021466Y007813D01*
X021436Y007783D02*
X021381Y007651D01*
X021381Y007509D01*
X021436Y007377D01*
X021537Y007276D01*
X021668Y007222D01*
X021811Y007222D01*
X021942Y007276D01*
X022016Y007350D01*
X023423Y007350D01*
X023517Y007256D01*
X023648Y007202D01*
X023791Y007202D01*
X023922Y007256D01*
X024023Y007357D01*
X024078Y007489D01*
X024078Y007631D01*
X024023Y007763D01*
X023922Y007864D01*
X023791Y007918D01*
X023648Y007918D01*
X023517Y007864D01*
X023423Y007770D01*
X022048Y007770D01*
X022043Y007783D01*
X021942Y007884D01*
X021811Y007938D01*
X021668Y007938D01*
X021537Y007884D01*
X021436Y007783D01*
X021383Y007654D02*
X018571Y007654D01*
X018571Y007720D02*
X018234Y007720D01*
X018234Y007720D01*
X018234Y007304D01*
X018415Y007304D01*
X018461Y007316D01*
X018502Y007340D01*
X018535Y007373D01*
X018559Y007414D01*
X018571Y007460D01*
X018571Y007720D01*
X018571Y007496D02*
X021387Y007496D01*
X021476Y007337D02*
X018497Y007337D01*
X018234Y007337D02*
X018234Y007337D01*
X018234Y007304D02*
X018234Y007720D01*
X018234Y007720D01*
X018234Y007720D01*
X018234Y008136D01*
X018053Y008136D01*
X018007Y008124D01*
X017966Y008100D01*
X017932Y008067D01*
X017909Y008026D01*
X017896Y007980D01*
X017896Y007720D01*
X018234Y007720D01*
X017896Y007720D01*
X017896Y007460D01*
X017909Y007414D01*
X017932Y007373D01*
X017966Y007340D01*
X018007Y007316D01*
X018053Y007304D01*
X018234Y007304D01*
X018234Y007496D02*
X018234Y007496D01*
X018234Y007654D02*
X018234Y007654D01*
X018234Y007720D02*
X018234Y007720D01*
X018234Y007813D02*
X018234Y007813D01*
X018234Y007971D02*
X018234Y007971D01*
X018234Y008130D02*
X018234Y008130D01*
X018440Y008130D02*
X019174Y008130D01*
X019213Y008090D02*
X020086Y008090D01*
X020180Y008184D01*
X020180Y009056D01*
X020086Y009150D01*
X019213Y009150D01*
X019120Y009056D01*
X019120Y008184D01*
X019213Y008090D01*
X019120Y008288D02*
X003240Y008288D01*
X003240Y008130D02*
X018028Y008130D01*
X017896Y007971D02*
X017843Y007971D01*
X017843Y008022D02*
X017749Y008116D01*
X017301Y008116D01*
X017208Y008022D01*
X017208Y007880D01*
X017148Y007880D01*
X017020Y007751D01*
X016740Y007471D01*
X016740Y007086D01*
X016656Y007003D01*
X016601Y006871D01*
X016601Y006729D01*
X016656Y006597D01*
X016757Y006496D01*
X016888Y006442D01*
X017031Y006442D01*
X017162Y006496D01*
X017263Y006597D01*
X017318Y006729D01*
X017318Y006871D01*
X017263Y007003D01*
X017180Y007086D01*
X017180Y007289D01*
X017258Y007367D01*
X017301Y007324D01*
X017749Y007324D01*
X017843Y007418D01*
X017843Y007546D01*
X017865Y007569D01*
X017865Y007608D01*
X017883Y007643D01*
X017865Y007696D01*
X017865Y007751D01*
X017843Y007774D01*
X017843Y008022D01*
X017843Y007813D02*
X017896Y007813D01*
X017879Y007654D02*
X017896Y007654D01*
X017896Y007496D02*
X017843Y007496D01*
X017762Y007337D02*
X017971Y007337D01*
X017288Y007337D02*
X017228Y007337D01*
X017180Y007179D02*
X025390Y007179D01*
X025390Y007337D02*
X024003Y007337D01*
X024078Y007496D02*
X025390Y007496D01*
X025379Y007654D02*
X024068Y007654D01*
X023973Y007813D02*
X025288Y007813D01*
X025281Y007971D02*
X025336Y008103D01*
X025437Y008204D01*
X025568Y008258D01*
X025711Y008258D01*
X025842Y008204D01*
X025943Y008103D01*
X025998Y007971D01*
X026362Y007971D01*
X026336Y007997D02*
X026400Y007934D01*
X026400Y007319D01*
X026311Y007407D01*
X026187Y007458D01*
X026052Y007458D01*
X025928Y007407D01*
X025833Y007312D01*
X025810Y007256D01*
X025810Y007583D01*
X025842Y007596D01*
X025943Y007697D01*
X025998Y007829D01*
X025998Y007971D01*
X025991Y007813D02*
X026400Y007813D01*
X026400Y007654D02*
X025900Y007654D01*
X025810Y007496D02*
X026400Y007496D01*
X026400Y007337D02*
X026381Y007337D01*
X026880Y007337D02*
X032280Y007337D01*
X032280Y007179D02*
X026880Y007179D01*
X026880Y007020D02*
X032280Y007020D01*
X032280Y006862D02*
X026880Y006862D01*
X026880Y006703D02*
X032280Y006703D01*
X032280Y006545D02*
X026880Y006545D01*
X026880Y006386D02*
X032280Y006386D01*
X032280Y006228D02*
X026880Y006228D01*
X026880Y006069D02*
X032280Y006069D01*
X032280Y005911D02*
X026880Y005911D01*
X026880Y005752D02*
X032280Y005752D01*
X032280Y005594D02*
X027867Y005594D01*
X027807Y005618D02*
X027672Y005618D01*
X027548Y005567D01*
X027453Y005472D01*
X027401Y005347D01*
X027401Y005213D01*
X027430Y005144D01*
X027430Y004009D01*
X027353Y003932D01*
X027301Y003807D01*
X027301Y003673D01*
X027353Y003548D01*
X027448Y003453D01*
X027572Y003402D01*
X027707Y003402D01*
X027831Y003453D01*
X027926Y003548D01*
X027978Y003673D01*
X027978Y003807D01*
X027926Y003932D01*
X027850Y004009D01*
X028845Y004009D01*
X028845Y004167D02*
X027850Y004167D01*
X027850Y004009D02*
X027850Y004959D01*
X027850Y004960D02*
X028450Y004960D01*
X028381Y004801D02*
X027850Y004801D01*
X027850Y004959D02*
X027931Y004993D01*
X028026Y005088D01*
X028078Y005213D01*
X028078Y005347D01*
X028026Y005472D01*
X027931Y005567D01*
X027807Y005618D01*
X027612Y005594D02*
X026880Y005594D01*
X026880Y005435D02*
X027437Y005435D01*
X027401Y005277D02*
X026880Y005277D01*
X026880Y005118D02*
X027430Y005118D01*
X027430Y004960D02*
X026880Y004960D01*
X026880Y004801D02*
X027430Y004801D01*
X027430Y004643D02*
X026880Y004643D01*
X026880Y004484D02*
X027430Y004484D01*
X027430Y004326D02*
X026880Y004326D01*
X026880Y004167D02*
X027430Y004167D01*
X027429Y004009D02*
X026880Y004009D01*
X026829Y003850D02*
X027319Y003850D01*
X027301Y003692D02*
X026670Y003692D01*
X026512Y003533D02*
X027368Y003533D01*
X027911Y003533D02*
X029943Y003533D01*
X029943Y003493D02*
X029956Y003447D01*
X029979Y003406D01*
X030013Y003373D01*
X030054Y003349D01*
X030100Y003337D01*
X030360Y003337D01*
X030619Y003337D01*
X030665Y003349D01*
X030706Y003373D01*
X030740Y003406D01*
X030763Y003447D01*
X030776Y003493D01*
X030776Y003674D01*
X030360Y003674D01*
X030360Y003674D01*
X030360Y003337D01*
X030360Y003674D01*
X030360Y003674D01*
X030776Y003674D01*
X030776Y003856D01*
X030763Y003901D01*
X030740Y003942D01*
X030706Y003976D01*
X030665Y004000D01*
X030619Y004012D01*
X030360Y004012D01*
X030360Y003674D01*
X030360Y003674D01*
X029943Y003674D01*
X029943Y003493D01*
X030011Y003375D02*
X029751Y003375D01*
X029802Y003692D02*
X029943Y003692D01*
X029943Y003674D02*
X029943Y003856D01*
X029956Y003901D01*
X029979Y003942D01*
X030013Y003976D01*
X030054Y004000D01*
X030100Y004012D01*
X030360Y004012D01*
X030360Y003674D01*
X030360Y003674D01*
X029943Y003674D01*
X029943Y003850D02*
X029834Y003850D01*
X029834Y004009D02*
X030087Y004009D01*
X030360Y004009D02*
X030360Y004009D01*
X030360Y003850D02*
X030360Y003850D01*
X030360Y003692D02*
X030360Y003692D01*
X030360Y003533D02*
X030360Y003533D01*
X030360Y003375D02*
X030360Y003375D01*
X030708Y003375D02*
X030890Y003375D01*
X030890Y003533D02*
X030776Y003533D01*
X030776Y003692D02*
X030890Y003692D01*
X030890Y003850D02*
X030776Y003850D01*
X030890Y004009D02*
X030632Y004009D01*
X030890Y004167D02*
X029834Y004167D01*
X029834Y004326D02*
X030733Y004326D01*
X031038Y004643D02*
X032280Y004643D01*
X032280Y004801D02*
X030880Y004801D01*
X031197Y004484D02*
X032280Y004484D01*
X032280Y004326D02*
X031330Y004326D01*
X031330Y004167D02*
X032280Y004167D01*
X032280Y004009D02*
X031330Y004009D01*
X031330Y003850D02*
X032280Y003850D01*
X032280Y003692D02*
X031330Y003692D01*
X031330Y003533D02*
X032280Y003533D01*
X032280Y003375D02*
X031330Y003375D01*
X031330Y003216D02*
X032280Y003216D01*
X032280Y003058D02*
X031330Y003058D01*
X031330Y002899D02*
X032280Y002899D01*
X032280Y002741D02*
X031330Y002741D01*
X031330Y002582D02*
X032280Y002582D01*
X032280Y002424D02*
X031330Y002424D01*
X031330Y002265D02*
X032280Y002265D01*
X032280Y002107D02*
X031330Y002107D01*
X031333Y001948D02*
X032280Y001948D01*
X032280Y001790D02*
X031491Y001790D01*
X030890Y002107D02*
X030780Y002107D01*
X030780Y002265D02*
X030890Y002265D01*
X030890Y002424D02*
X030780Y002424D01*
X030780Y002582D02*
X030890Y002582D01*
X030890Y002741D02*
X030780Y002741D01*
X030756Y002899D02*
X030890Y002899D01*
X030890Y003058D02*
X030756Y003058D01*
X030729Y003216D02*
X030890Y003216D01*
X030220Y002582D02*
X029770Y002582D01*
X030220Y002424D02*
X025640Y002424D01*
X025640Y002582D02*
X028910Y002582D01*
X028865Y002741D02*
X025640Y002741D01*
X025640Y002899D02*
X028865Y002899D01*
X028865Y003058D02*
X026036Y003058D01*
X026195Y003216D02*
X028865Y003216D01*
X028928Y003375D02*
X026353Y003375D01*
X025880Y003240D02*
X025400Y003240D01*
X025400Y001830D01*
X025930Y001790D02*
X026970Y001790D01*
X026970Y001948D02*
X025930Y001948D01*
X025930Y002107D02*
X026970Y002107D01*
X027075Y002265D02*
X025930Y002265D01*
X025930Y001631D02*
X026970Y001631D01*
X026970Y001473D02*
X025930Y001473D01*
X025850Y001314D02*
X026975Y001314D01*
X027500Y001790D02*
X027540Y001790D01*
X027540Y001948D02*
X027500Y001948D01*
X027500Y002107D02*
X027540Y002107D01*
X027540Y002265D02*
X027500Y002265D01*
X027964Y002265D02*
X030220Y002265D01*
X030220Y002107D02*
X029893Y002107D01*
X030003Y001948D02*
X030088Y001948D01*
X029146Y002107D02*
X028754Y002107D01*
X028951Y001948D02*
X029036Y001948D01*
X028285Y002107D02*
X028070Y002107D01*
X028070Y001948D02*
X028088Y001948D01*
X027978Y003692D02*
X028877Y003692D01*
X028845Y003850D02*
X027960Y003850D01*
X027850Y004326D02*
X028845Y004326D01*
X028507Y004484D02*
X027850Y004484D01*
X027850Y004643D02*
X028398Y004643D01*
X028039Y005118D02*
X032280Y005118D01*
X032280Y004960D02*
X028989Y004960D01*
X028078Y005277D02*
X032280Y005277D01*
X032280Y005435D02*
X028042Y005435D01*
X029282Y004009D02*
X029397Y004009D01*
X029397Y003850D02*
X029282Y003850D01*
X029282Y003692D02*
X029397Y003692D01*
X026640Y004000D02*
X025880Y003240D01*
X025400Y003240D02*
X020300Y003240D01*
X020000Y002940D01*
X019300Y002940D01*
X019240Y003000D01*
X018960Y003058D02*
X016675Y003058D01*
X016680Y003060D02*
X016714Y003094D01*
X016737Y003135D01*
X016750Y003181D01*
X016750Y003452D01*
X016381Y003452D01*
X016381Y003024D01*
X016593Y003024D01*
X016639Y003037D01*
X016680Y003060D01*
X016750Y003216D02*
X018960Y003216D01*
X018960Y003375D02*
X016750Y003375D01*
X016750Y003508D02*
X016750Y003779D01*
X016737Y003825D01*
X016714Y003866D01*
X016680Y003900D01*
X016639Y003923D01*
X016593Y003936D01*
X016381Y003936D01*
X016381Y003508D01*
X016325Y003508D01*
X016325Y003452D01*
X015957Y003452D01*
X015957Y003181D01*
X015969Y003135D01*
X015993Y003094D01*
X016026Y003060D01*
X016067Y003037D01*
X016113Y003024D01*
X016325Y003024D01*
X016325Y003452D01*
X016381Y003452D01*
X016381Y003508D01*
X016750Y003508D01*
X016750Y003533D02*
X018960Y003533D01*
X018960Y003692D02*
X016750Y003692D01*
X016723Y003850D02*
X018960Y003850D01*
X018960Y004009D02*
X003240Y004009D01*
X003240Y004167D02*
X018960Y004167D01*
X018960Y004326D02*
X003240Y004326D01*
X003240Y004484D02*
X018960Y004484D01*
X018960Y004643D02*
X003240Y004643D01*
X003240Y004801D02*
X018960Y004801D01*
X018960Y004960D02*
X003240Y004960D01*
X003240Y005118D02*
X018960Y005118D01*
X018960Y005277D02*
X003240Y005277D01*
X003240Y005435D02*
X018960Y005435D01*
X018960Y005594D02*
X003240Y005594D01*
X003240Y005752D02*
X018960Y005752D01*
X018982Y005911D02*
X003240Y005911D01*
X003240Y006069D02*
X019113Y006069D01*
X019271Y006228D02*
X003240Y006228D01*
X003240Y006386D02*
X019492Y006386D01*
X019675Y005840D02*
X022153Y005840D01*
X022177Y005816D01*
X022235Y005792D01*
X022053Y005610D01*
X021930Y005487D01*
X021930Y005096D01*
X021836Y005003D01*
X021781Y004871D01*
X021781Y004729D01*
X021836Y004597D01*
X021937Y004496D01*
X022068Y004442D01*
X022211Y004442D01*
X022342Y004496D01*
X022443Y004597D01*
X022498Y004729D01*
X022498Y004871D01*
X022443Y005003D01*
X022350Y005096D01*
X022350Y005313D01*
X022466Y005430D01*
X025244Y005430D01*
X025201Y005327D01*
X025201Y005193D01*
X025253Y005068D01*
X025280Y005041D01*
X025280Y004969D01*
X025290Y004959D01*
X025290Y004907D01*
X025273Y004890D01*
X025031Y004890D01*
X025031Y004982D01*
X024938Y005076D01*
X024490Y005076D01*
X024396Y004982D01*
X024396Y004378D01*
X024490Y004284D01*
X024938Y004284D01*
X025031Y004378D01*
X025031Y004470D01*
X025360Y004470D01*
X025360Y004061D01*
X025248Y003950D01*
X021848Y003950D01*
X021781Y004017D01*
X021657Y004068D01*
X021522Y004068D01*
X021398Y004017D01*
X021303Y003922D01*
X021251Y003797D01*
X021251Y003663D01*
X021303Y003538D01*
X021361Y003480D01*
X020252Y003480D01*
X020164Y003443D01*
X019900Y003180D01*
X019520Y003180D01*
X019520Y005684D01*
X019675Y005840D01*
X019588Y005752D02*
X022195Y005752D01*
X022036Y005594D02*
X019520Y005594D01*
X019520Y005435D02*
X021930Y005435D01*
X021930Y005277D02*
X019520Y005277D01*
X019520Y005118D02*
X021930Y005118D01*
X021818Y004960D02*
X019520Y004960D01*
X019520Y004801D02*
X021781Y004801D01*
X021817Y004643D02*
X019520Y004643D01*
X019520Y004484D02*
X021967Y004484D01*
X022312Y004484D02*
X023668Y004484D01*
X023668Y004420D02*
X023680Y004374D01*
X023704Y004333D01*
X023737Y004300D01*
X023778Y004276D01*
X023824Y004264D01*
X024005Y004264D01*
X024005Y004680D01*
X023668Y004680D01*
X023668Y004420D01*
X023711Y004326D02*
X019520Y004326D01*
X019520Y004167D02*
X025360Y004167D01*
X025360Y004326D02*
X024979Y004326D01*
X025307Y004009D02*
X021790Y004009D01*
X021389Y004009D02*
X019520Y004009D01*
X019520Y003850D02*
X021273Y003850D01*
X021251Y003692D02*
X019520Y003692D01*
X019520Y003533D02*
X021308Y003533D01*
X020298Y002899D02*
X025160Y002899D01*
X025160Y002741D02*
X020139Y002741D01*
X019936Y003216D02*
X019520Y003216D01*
X019520Y003375D02*
X020095Y003375D01*
X019520Y002582D02*
X025160Y002582D01*
X025160Y002424D02*
X024593Y002424D01*
X024814Y002265D02*
X024870Y002265D01*
X024849Y001631D02*
X024870Y001631D01*
X024870Y001473D02*
X024680Y001473D01*
X024949Y001314D02*
X023539Y001314D01*
X023260Y001314D02*
X021818Y001314D01*
X021783Y001473D02*
X022093Y001473D01*
X021937Y001631D02*
X021613Y001631D01*
X021346Y001631D02*
X019265Y001631D01*
X019345Y001790D02*
X021867Y001790D01*
X021879Y002107D02*
X019520Y002107D01*
X019520Y002265D02*
X021963Y002265D01*
X022157Y002424D02*
X019520Y002424D01*
X018960Y002424D02*
X005861Y002424D01*
X005890Y002531D02*
X005813Y002244D01*
X005664Y001986D01*
X005453Y001776D01*
X005196Y001627D01*
X004908Y001550D01*
X004611Y001550D01*
X004323Y001627D01*
X004066Y001776D01*
X003855Y001986D01*
X003707Y002244D01*
X003630Y002531D01*
X003630Y002829D01*
X003707Y003116D01*
X003855Y003374D01*
X004066Y003584D01*
X004323Y003733D01*
X004611Y003810D01*
X004908Y003810D01*
X005196Y003733D01*
X005453Y003584D01*
X005664Y003374D01*
X005813Y003116D01*
X005890Y002829D01*
X005890Y002531D01*
X005890Y002582D02*
X018960Y002582D01*
X018960Y002741D02*
X005890Y002741D01*
X005871Y002899D02*
X018960Y002899D01*
X018960Y002265D02*
X005818Y002265D01*
X005733Y002107D02*
X018792Y002107D01*
X018621Y001948D02*
X005626Y001948D01*
X005467Y001790D02*
X018581Y001790D01*
X018614Y001631D02*
X005203Y001631D01*
X004316Y001631D02*
X003240Y001631D01*
X003240Y001473D02*
X018746Y001473D01*
X019133Y001473D02*
X021176Y001473D01*
X021141Y001314D02*
X003240Y001314D01*
X003240Y001156D02*
X021181Y001156D01*
X021375Y000997D02*
X003240Y000997D01*
X003240Y000839D02*
X021650Y000839D01*
X022380Y001473D02*
X022420Y001473D01*
X022420Y001631D02*
X022380Y001631D01*
X022380Y001790D02*
X022420Y001790D01*
X022380Y001948D02*
X019479Y001948D01*
X016381Y003058D02*
X016325Y003058D01*
X016325Y003216D02*
X016381Y003216D01*
X016381Y003375D02*
X016325Y003375D01*
X016325Y003508D02*
X015957Y003508D01*
X015957Y003779D01*
X015969Y003825D01*
X015993Y003866D01*
X016026Y003900D01*
X016067Y003923D01*
X016113Y003936D01*
X016325Y003936D01*
X016325Y003508D01*
X016325Y003533D02*
X016381Y003533D01*
X016381Y003692D02*
X016325Y003692D01*
X016325Y003850D02*
X016381Y003850D01*
X015983Y003850D02*
X015914Y003850D01*
X015942Y003822D02*
X015849Y003916D01*
X015283Y003916D01*
X015189Y003822D01*
X015189Y003720D01*
X014674Y003720D01*
X014631Y003738D01*
X014488Y003738D01*
X014357Y003684D01*
X014256Y003583D01*
X014201Y003451D01*
X014201Y003309D01*
X014256Y003177D01*
X014357Y003076D01*
X014488Y003022D01*
X014631Y003022D01*
X014762Y003076D01*
X014863Y003177D01*
X014889Y003240D01*
X015189Y003240D01*
X015189Y003138D01*
X015283Y003044D01*
X015849Y003044D01*
X015942Y003138D01*
X015942Y003822D01*
X015942Y003692D02*
X015957Y003692D01*
X015942Y003533D02*
X015957Y003533D01*
X015942Y003375D02*
X015957Y003375D01*
X015942Y003216D02*
X015957Y003216D01*
X016031Y003058D02*
X015862Y003058D01*
X015566Y003480D02*
X014660Y003480D01*
X014560Y003380D01*
X014717Y003058D02*
X015270Y003058D01*
X015189Y003216D02*
X014879Y003216D01*
X014402Y003058D02*
X005828Y003058D01*
X005755Y003216D02*
X014240Y003216D01*
X014201Y003375D02*
X005663Y003375D01*
X005505Y003533D02*
X014235Y003533D01*
X014376Y003692D02*
X005268Y003692D01*
X004251Y003692D02*
X003240Y003692D01*
X003240Y003850D02*
X015217Y003850D01*
X016709Y006545D02*
X003240Y006545D01*
X003240Y006703D02*
X016612Y006703D01*
X016601Y006862D02*
X007662Y006862D01*
X007684Y006872D02*
X007759Y006927D01*
X007826Y006993D01*
X007880Y007069D01*
X007923Y007152D01*
X007952Y007241D01*
X007965Y007322D01*
X007017Y007322D01*
X007017Y006787D01*
X007420Y006787D01*
X007512Y006801D01*
X007601Y006830D01*
X007684Y006872D01*
X007845Y007020D02*
X016673Y007020D01*
X016740Y007179D02*
X007931Y007179D01*
X007965Y007438D02*
X007952Y007519D01*
X007923Y007608D01*
X007880Y007691D01*
X007826Y007767D01*
X007759Y007833D01*
X007684Y007888D01*
X007601Y007930D01*
X007512Y007959D01*
X007420Y007973D01*
X007017Y007973D01*
X007017Y007438D01*
X006902Y007438D01*
X006902Y007973D01*
X006499Y007973D01*
X006407Y007959D01*
X006318Y007930D01*
X006235Y007888D01*
X006160Y007833D01*
X006094Y007767D01*
X006039Y007691D01*
X005996Y007608D01*
X005967Y007519D01*
X005954Y007438D01*
X006902Y007438D01*
X006902Y007322D01*
X007017Y007322D01*
X007017Y007438D01*
X007965Y007438D01*
X007955Y007496D02*
X016764Y007496D01*
X016740Y007337D02*
X007017Y007337D01*
X006902Y007337D02*
X003240Y007337D01*
X003240Y007179D02*
X005988Y007179D01*
X005996Y007152D02*
X005967Y007241D01*
X005954Y007322D01*
X006902Y007322D01*
X006902Y006787D01*
X006499Y006787D01*
X006407Y006801D01*
X006318Y006830D01*
X006235Y006872D01*
X006160Y006927D01*
X006094Y006993D01*
X006039Y007069D01*
X005996Y007152D01*
X006074Y007020D02*
X003240Y007020D01*
X003240Y006862D02*
X006257Y006862D01*
X006902Y006862D02*
X007017Y006862D01*
X007017Y007020D02*
X006902Y007020D01*
X006902Y007179D02*
X007017Y007179D01*
X007017Y007496D02*
X006902Y007496D01*
X006902Y007654D02*
X007017Y007654D01*
X007017Y007813D02*
X006902Y007813D01*
X006902Y007971D02*
X007017Y007971D01*
X007435Y007971D02*
X017208Y007971D01*
X017081Y007813D02*
X007780Y007813D01*
X007899Y007654D02*
X016922Y007654D01*
X017246Y007020D02*
X022887Y007020D01*
X022725Y006862D02*
X017318Y006862D01*
X017307Y006703D02*
X022567Y006703D01*
X022408Y006545D02*
X017210Y006545D01*
X019120Y008447D02*
X003240Y008447D01*
X003240Y008605D02*
X019120Y008605D01*
X019120Y008764D02*
X003240Y008764D01*
X003240Y008922D02*
X006193Y008922D01*
X006221Y008894D02*
X006432Y008807D01*
X007487Y008807D01*
X007698Y008894D01*
X007859Y009055D01*
X007946Y009266D01*
X007946Y009494D01*
X007859Y009705D01*
X007698Y009866D01*
X007487Y009953D01*
X006432Y009953D01*
X006221Y009866D01*
X006060Y009705D01*
X005973Y009494D01*
X005973Y009266D01*
X006060Y009055D01*
X006221Y008894D01*
X006050Y009081D02*
X003240Y009081D01*
X003240Y009239D02*
X005984Y009239D01*
X005973Y009398D02*
X003240Y009398D01*
X003240Y009556D02*
X005998Y009556D01*
X006070Y009715D02*
X003240Y009715D01*
X003240Y009873D02*
X006238Y009873D01*
X007681Y009873D02*
X017970Y009873D01*
X017970Y009718D02*
X017848Y009718D01*
X017717Y009664D01*
X017616Y009563D01*
X017561Y009431D01*
X017561Y009289D01*
X017616Y009157D01*
X017717Y009056D01*
X017848Y009002D01*
X017991Y009002D01*
X018122Y009056D01*
X018223Y009157D01*
X018278Y009289D01*
X018278Y009421D01*
X018390Y009533D01*
X018390Y014844D01*
X018483Y014937D01*
X018538Y015069D01*
X018538Y015211D01*
X018483Y015343D01*
X018382Y015444D01*
X018251Y015498D01*
X018108Y015498D01*
X017977Y015444D01*
X017876Y015343D01*
X017821Y015211D01*
X017821Y015069D01*
X017876Y014937D01*
X017970Y014844D01*
X017970Y009718D01*
X017840Y009715D02*
X007849Y009715D01*
X007921Y009556D02*
X017613Y009556D01*
X017561Y009398D02*
X007946Y009398D01*
X007935Y009239D02*
X017582Y009239D01*
X017693Y009081D02*
X007869Y009081D01*
X007726Y008922D02*
X019120Y008922D01*
X019144Y009081D02*
X018146Y009081D01*
X018257Y009239D02*
X022972Y009239D01*
X023017Y009284D02*
X022916Y009183D01*
X022861Y009051D01*
X022861Y008909D01*
X022916Y008777D01*
X023017Y008676D01*
X023148Y008622D01*
X023291Y008622D01*
X023422Y008676D01*
X023516Y008770D01*
X027426Y008770D01*
X028446Y009790D01*
X028496Y009790D01*
X027460Y008754D01*
X026905Y008754D01*
X026817Y008717D01*
X026658Y008558D01*
X026568Y008558D01*
X026437Y008504D01*
X026336Y008403D01*
X026281Y008271D01*
X026281Y008129D01*
X026336Y007997D01*
X026281Y008130D02*
X025916Y008130D01*
X026288Y008288D02*
X021188Y008288D01*
X021169Y008262D02*
X021220Y008332D01*
X021259Y008409D01*
X021286Y008491D01*
X021300Y008577D01*
X021300Y008600D01*
X020770Y008600D01*
X020770Y008640D01*
X021300Y008640D01*
X021300Y008663D01*
X021286Y008749D01*
X021259Y008831D01*
X021220Y008908D01*
X021169Y008978D01*
X021108Y009040D01*
X021038Y009090D01*
X020961Y009130D01*
X020878Y009156D01*
X020793Y009170D01*
X020770Y009170D01*
X020770Y008640D01*
X020730Y008640D01*
X020730Y009170D01*
X020706Y009170D01*
X020621Y009156D01*
X020538Y009130D01*
X020461Y009090D01*
X020391Y009040D01*
X020330Y008978D01*
X020279Y008908D01*
X020240Y008831D01*
X020213Y008749D01*
X020200Y008663D01*
X020200Y008640D01*
X020730Y008640D01*
X020730Y008600D01*
X020770Y008600D01*
X020770Y008070D01*
X020793Y008070D01*
X020878Y008084D01*
X020961Y008110D01*
X021038Y008150D01*
X021108Y008200D01*
X021169Y008262D01*
X021271Y008447D02*
X026380Y008447D01*
X026640Y008200D02*
X026953Y008514D01*
X027560Y008514D01*
X028806Y009760D01*
X034560Y009760D01*
X034906Y010106D01*
X034906Y011520D01*
X035282Y011458D02*
X035317Y011458D01*
X035317Y011300D02*
X035282Y011300D01*
X035282Y011178D02*
X035282Y011790D01*
X035317Y011790D01*
X035317Y011178D01*
X035410Y011084D01*
X035483Y011084D01*
X035483Y010613D01*
X035723Y010373D01*
X035846Y010250D01*
X036323Y010250D01*
X036397Y010176D01*
X036528Y010122D01*
X036671Y010122D01*
X036802Y010176D01*
X036903Y010277D01*
X036958Y010409D01*
X036958Y010551D01*
X036903Y010683D01*
X036802Y010784D01*
X036671Y010838D01*
X036528Y010838D01*
X036397Y010784D01*
X036296Y010683D01*
X036291Y010670D01*
X036020Y010670D01*
X035903Y010787D01*
X035903Y011084D01*
X035976Y011084D01*
X036070Y011178D01*
X036070Y011790D01*
X036406Y011790D01*
X036526Y011910D01*
X036650Y012033D01*
X036650Y012673D01*
X036826Y012850D01*
X037720Y012850D01*
X037720Y012584D01*
X037535Y012584D01*
X037535Y012657D01*
X037441Y012750D01*
X036758Y012750D01*
X036664Y012657D01*
X036664Y012091D01*
X036758Y011997D01*
X037441Y011997D01*
X037535Y012091D01*
X037535Y012164D01*
X037720Y012164D01*
X037720Y012044D01*
X037813Y011950D01*
X037899Y011950D01*
X037849Y011929D01*
X037716Y011796D01*
X037535Y011796D01*
X037535Y011869D01*
X037441Y011963D01*
X036758Y011963D01*
X036664Y011869D01*
X036664Y011303D01*
X036758Y011210D01*
X037441Y011210D01*
X037535Y011303D01*
X037535Y011376D01*
X037620Y011376D01*
X037620Y011375D01*
X037700Y011180D01*
X037849Y011031D01*
X037998Y010969D01*
X037961Y010950D01*
X037891Y010900D01*
X037830Y010838D01*
X037779Y010768D01*
X037740Y010691D01*
X037713Y010609D01*
X037700Y010523D01*
X037700Y010500D01*
X038230Y010500D01*
X038230Y010460D01*
X038270Y010460D01*
X038270Y010500D01*
X038800Y010500D01*
X038800Y010523D01*
X038786Y010609D01*
X038759Y010691D01*
X038720Y010768D01*
X038669Y010838D01*
X038608Y010900D01*
X038538Y010950D01*
X038461Y010990D01*
X038399Y011010D01*
X038450Y011031D01*
X038599Y011180D01*
X038680Y011375D01*
X038680Y011585D01*
X038599Y011780D01*
X038450Y011929D01*
X038400Y011950D01*
X038686Y011950D01*
X038780Y012044D01*
X038780Y012916D01*
X038686Y013010D01*
X038286Y013010D01*
X038390Y013113D01*
X038390Y013124D01*
X038476Y013124D01*
X038570Y013218D01*
X038570Y013902D01*
X038512Y013960D01*
X038570Y014018D01*
X038570Y014702D01*
X038476Y014796D01*
X038311Y014796D01*
X038380Y014864D01*
X038380Y015736D01*
X038286Y015830D01*
X038200Y015830D01*
X038250Y015851D01*
X038399Y016000D01*
X038480Y016195D01*
X038480Y016405D01*
X038399Y016600D01*
X038250Y016749D01*
X038101Y016811D01*
X038138Y016830D01*
X038208Y016880D01*
X038269Y016942D01*
X038320Y017012D01*
X038359Y017089D01*
X038386Y017171D01*
X038400Y017257D01*
X038400Y017280D01*
X037870Y017280D01*
X037870Y017320D01*
X038400Y017320D01*
X038400Y017343D01*
X038386Y017429D01*
X038359Y017511D01*
X038320Y017588D01*
X038269Y017658D01*
X038208Y017720D01*
X038138Y017770D01*
X038061Y017810D01*
X037978Y017836D01*
X037893Y017850D01*
X037870Y017850D01*
X037870Y017320D01*
X037830Y017320D01*
X037830Y017850D01*
X037806Y017850D01*
X037721Y017836D01*
X037638Y017810D01*
X037561Y017770D01*
X037491Y017720D01*
X037430Y017658D01*
X037379Y017588D01*
X037340Y017511D01*
X037313Y017429D01*
X037300Y017343D01*
X037300Y017320D01*
X037830Y017320D01*
X037830Y017280D01*
X037300Y017280D01*
X037300Y017257D01*
X037313Y017171D01*
X037340Y017089D01*
X037379Y017012D01*
X037430Y016942D01*
X037491Y016880D01*
X037561Y016830D01*
X037638Y016790D01*
X037700Y016770D01*
X037649Y016749D01*
X037500Y016600D01*
X037463Y016510D01*
X037093Y016510D01*
X036970Y016387D01*
X036770Y016187D01*
X036770Y014393D01*
X036893Y014270D01*
X037013Y014150D01*
X037029Y014150D01*
X037029Y014018D01*
X037087Y013960D01*
X037029Y013902D01*
X037029Y013270D01*
X036653Y013270D01*
X036530Y013147D01*
X036230Y012847D01*
X036230Y012210D01*
X036090Y012210D01*
X036090Y012802D01*
X035996Y012896D01*
X035923Y012896D01*
X035923Y013977D01*
X035943Y013997D01*
X035998Y014129D01*
X035998Y014271D01*
X035943Y014403D01*
X035842Y014504D01*
X035711Y014558D01*
X035568Y014558D01*
X035437Y014504D01*
X035336Y014403D01*
X035281Y014271D01*
X035281Y014129D01*
X035336Y013997D01*
X035437Y013896D01*
X035503Y013869D01*
X035503Y013303D01*
X035442Y013364D01*
X035311Y013418D01*
X035168Y013418D01*
X035037Y013364D01*
X034973Y013300D01*
X034799Y013300D01*
X034780Y013319D01*
X034780Y013429D01*
X034901Y013429D01*
X034995Y013523D01*
X034995Y014168D01*
X034992Y014171D01*
X035003Y014189D01*
X035015Y014235D01*
X035015Y014467D01*
X034587Y014467D01*
X034587Y014563D01*
X034492Y014563D01*
X034492Y014951D01*
X034221Y014951D01*
X034175Y014938D01*
X034134Y014915D01*
X034100Y014881D01*
X034077Y014840D01*
X034064Y014794D01*
X034064Y014563D01*
X034492Y014563D01*
X034492Y014467D01*
X034064Y014467D01*
X034064Y014235D01*
X034077Y014189D01*
X034087Y014171D01*
X034084Y014168D01*
X034084Y013523D01*
X034178Y013429D01*
X034300Y013429D01*
X034300Y013172D01*
X034336Y013084D01*
X034496Y012924D01*
X034564Y012857D01*
X034592Y012845D01*
X034549Y012802D01*
X034549Y012118D01*
X034643Y012024D01*
X034690Y012024D01*
X034690Y011956D01*
X034623Y011956D01*
X034529Y011862D01*
X034529Y011178D01*
X034623Y011084D01*
X034666Y011084D01*
X034666Y010206D01*
X034460Y010000D01*
X033276Y010000D01*
X033850Y010573D01*
X033850Y016812D01*
X033972Y016762D01*
X034107Y016762D01*
X034231Y016813D01*
X034326Y016908D01*
X034327Y016910D01*
X035606Y016910D01*
X035730Y017033D01*
X036110Y017413D01*
X036110Y020733D01*
X036286Y020910D01*
X037291Y020910D01*
X037249Y020852D01*
X037215Y020784D01*
X037191Y020712D01*
X037180Y020638D01*
X037180Y020620D01*
X037940Y020620D01*
X037940Y020580D01*
X037980Y020580D01*
X037980Y020620D01*
X038740Y020620D01*
X038740Y020638D01*
X038728Y020712D01*
X038704Y020784D01*
X038670Y020852D01*
X038628Y020910D01*
X038646Y020910D01*
X038770Y021033D01*
X038950Y021213D01*
X038950Y022527D01*
X038826Y022650D01*
X038673Y022803D01*
X038649Y022861D01*
X038520Y022990D01*
X038351Y023060D01*
X037568Y023060D01*
X037399Y022990D01*
X037270Y022861D01*
X037200Y022691D01*
X037200Y022634D01*
X037136Y022634D01*
X037136Y022638D01*
X037042Y022732D01*
X036437Y022732D01*
X036343Y022638D01*
X036343Y022191D01*
X036437Y022097D01*
X037042Y022097D01*
X037136Y022191D01*
X037136Y022194D01*
X037437Y022194D01*
X037568Y022140D01*
X038351Y022140D01*
X038520Y022210D01*
X038530Y022219D01*
X038530Y021881D01*
X038420Y021990D01*
X038251Y022060D01*
X037468Y022060D01*
X037299Y021990D01*
X037235Y021926D01*
X037136Y021926D01*
X037136Y021929D01*
X037042Y022023D01*
X036437Y022023D01*
X036364Y021950D01*
X033453Y021950D01*
X033330Y021827D01*
X032895Y021392D01*
X032895Y018635D01*
X032683Y018635D01*
X032592Y018544D01*
X032511Y018578D01*
X032368Y018578D01*
X032237Y018524D01*
X032136Y018423D01*
X032081Y018291D01*
X032081Y018149D01*
X032136Y018017D01*
X032237Y017916D01*
X032368Y017862D01*
X032511Y017862D01*
X032589Y017894D01*
X032589Y017818D01*
X032683Y017725D01*
X032900Y017725D01*
X032900Y017688D01*
X032893Y017679D01*
X032900Y017641D01*
X032900Y017299D01*
X032820Y017220D01*
X032172Y017220D01*
X032084Y017183D01*
X032016Y017116D01*
X031591Y016691D01*
X031570Y016639D01*
X031570Y016744D01*
X031663Y016837D01*
X031718Y016969D01*
X031718Y017111D01*
X031663Y017243D01*
X031562Y017344D01*
X031431Y017398D01*
X031288Y017398D01*
X031157Y017344D01*
X031056Y017243D01*
X031001Y017111D01*
X031001Y016969D01*
X031056Y016837D01*
X031083Y016810D01*
X029273Y016810D01*
X029021Y016558D01*
X028888Y016558D01*
X028806Y016524D01*
X029133Y016851D01*
X029200Y017012D01*
X029200Y023758D01*
X029342Y023900D01*
X034327Y023900D01*
X034489Y023967D01*
X034749Y024227D01*
X034873Y024351D01*
X034940Y024512D01*
X034940Y025021D01*
X035020Y025215D01*
X035020Y025425D01*
X034939Y025620D01*
X034790Y025769D01*
X034595Y025850D01*
X034384Y025850D01*
X034189Y025769D01*
X034040Y025620D01*
X033960Y025425D01*
X033960Y025215D01*
X034040Y025020D01*
X034060Y025000D01*
X034060Y024782D01*
X034057Y024780D01*
X033536Y024780D01*
X033610Y024854D01*
X033610Y025726D01*
X033516Y025820D01*
X032643Y025820D01*
X032550Y025726D01*
X032550Y025640D01*
X032529Y025690D01*
X032380Y025839D01*
X032185Y025920D01*
X031974Y025920D01*
X031779Y025839D01*
X031630Y025690D01*
X031559Y025518D01*
X031529Y025590D01*
X031380Y025739D01*
X031185Y025820D01*
X030974Y025820D01*
X030779Y025739D01*
X030630Y025590D01*
X030600Y025518D01*
X030529Y025690D01*
X030380Y025839D01*
X030185Y025920D01*
X029974Y025920D01*
X029779Y025839D01*
X029630Y025690D01*
X029550Y025495D01*
X029550Y025285D01*
X029630Y025090D01*
X029640Y025080D01*
X029640Y024780D01*
X029072Y024780D01*
X028910Y024713D01*
X028786Y024589D01*
X028386Y024189D01*
X028320Y024028D01*
X028320Y017282D01*
X027986Y016949D01*
X027920Y016788D01*
X027920Y016612D01*
X027986Y016451D01*
X028110Y016327D01*
X028272Y016260D01*
X028447Y016260D01*
X028609Y016327D01*
X028636Y016354D01*
X028601Y016271D01*
X028601Y016129D01*
X028656Y015997D01*
X028757Y015896D01*
X028888Y015842D01*
X029031Y015842D01*
X029162Y015896D01*
X029263Y015997D01*
X029318Y016129D01*
X029318Y016261D01*
X029446Y016390D01*
X031366Y016390D01*
X031490Y016513D01*
X031554Y016578D01*
X031554Y015915D01*
X031472Y015915D01*
X031469Y015912D01*
X031450Y015923D01*
X031404Y015935D01*
X031173Y015935D01*
X031173Y015508D01*
X031077Y015508D01*
X031077Y015935D01*
X030845Y015935D01*
X030799Y015923D01*
X030758Y015899D01*
X030725Y015866D01*
X030701Y015825D01*
X030689Y015779D01*
X030689Y015508D01*
X031077Y015508D01*
X031077Y015412D01*
X031173Y015412D01*
X031173Y014985D01*
X031404Y014985D01*
X031450Y014997D01*
X031469Y015008D01*
X031472Y015005D01*
X032116Y015005D01*
X032210Y015098D01*
X032210Y015191D01*
X032328Y015142D01*
X032471Y015142D01*
X032602Y015196D01*
X032703Y015297D01*
X032720Y015337D01*
X032736Y015297D01*
X032750Y015284D01*
X032750Y014690D01*
X029616Y014690D01*
X029522Y014784D01*
X029391Y014838D01*
X029248Y014838D01*
X029117Y014784D01*
X029016Y014683D01*
X029010Y014667D01*
X029010Y015206D01*
X029059Y015250D01*
X029289Y015250D01*
X029308Y015242D01*
X029451Y015242D01*
X029582Y015296D01*
X029683Y015397D01*
X029738Y015529D01*
X029738Y015671D01*
X029683Y015803D01*
X029582Y015904D01*
X029451Y015958D01*
X029308Y015958D01*
X029177Y015904D01*
X029076Y015803D01*
X029021Y015671D01*
X029021Y015670D01*
X028986Y015670D01*
X028905Y015675D01*
X028900Y015670D01*
X028893Y015670D01*
X028835Y015613D01*
X028720Y015510D01*
X028713Y015510D01*
X028655Y015453D01*
X028595Y015399D01*
X028595Y015392D01*
X028590Y015387D01*
X028590Y015306D01*
X028585Y015225D01*
X028590Y015220D01*
X028590Y013896D01*
X028496Y013803D01*
X028441Y013671D01*
X028441Y013529D01*
X028496Y013397D01*
X028597Y013296D01*
X028728Y013242D01*
X028871Y013242D01*
X029002Y013296D01*
X029103Y013397D01*
X029158Y013529D01*
X029158Y013671D01*
X029103Y013803D01*
X029010Y013896D01*
X029010Y014293D01*
X029016Y014277D01*
X029117Y014176D01*
X029248Y014122D01*
X029391Y014122D01*
X029522Y014176D01*
X029616Y014270D01*
X032946Y014270D01*
X033046Y014370D01*
X033170Y014493D01*
X033170Y015166D01*
X033210Y015183D01*
X033210Y010807D01*
X032813Y010410D01*
X028173Y010410D01*
X027173Y009410D01*
X024226Y009410D01*
X024218Y009419D01*
X024218Y009551D01*
X024163Y009683D01*
X024062Y009784D01*
X023931Y009838D01*
X023788Y009838D01*
X023657Y009784D01*
X023556Y009683D01*
X023501Y009551D01*
X023501Y009409D01*
X023556Y009277D01*
X023643Y009190D01*
X023516Y009190D01*
X023422Y009284D01*
X023291Y009338D01*
X023148Y009338D01*
X023017Y009284D01*
X022874Y009081D02*
X021051Y009081D01*
X021210Y008922D02*
X022861Y008922D01*
X022930Y008764D02*
X021281Y008764D01*
X020770Y008764D02*
X020730Y008764D01*
X020730Y008922D02*
X020770Y008922D01*
X020770Y009081D02*
X020730Y009081D01*
X020448Y009081D02*
X020155Y009081D01*
X020180Y008922D02*
X020289Y008922D01*
X020218Y008764D02*
X020180Y008764D01*
X020180Y008605D02*
X020730Y008605D01*
X020730Y008600D02*
X020200Y008600D01*
X020200Y008577D01*
X020213Y008491D01*
X020240Y008409D01*
X020279Y008332D01*
X020330Y008262D01*
X020391Y008200D01*
X020461Y008150D01*
X020538Y008110D01*
X020621Y008084D01*
X020706Y008070D01*
X020730Y008070D01*
X020730Y008600D01*
X020770Y008605D02*
X026705Y008605D01*
X026640Y008200D02*
X026640Y004000D01*
X025289Y004960D02*
X025031Y004960D01*
X025232Y005118D02*
X022350Y005118D01*
X022350Y005277D02*
X025201Y005277D01*
X025390Y005911D02*
X022676Y005911D01*
X022738Y006069D02*
X025390Y006069D01*
X025390Y006228D02*
X024347Y006228D01*
X024390Y006386D02*
X025390Y006386D01*
X025390Y006545D02*
X024390Y006545D01*
X024390Y006703D02*
X025390Y006703D01*
X025390Y006862D02*
X024390Y006862D01*
X024369Y007020D02*
X025390Y007020D01*
X025810Y007337D02*
X025858Y007337D01*
X025363Y008130D02*
X020998Y008130D01*
X020770Y008130D02*
X020730Y008130D01*
X020730Y008288D02*
X020770Y008288D01*
X020770Y008447D02*
X020730Y008447D01*
X020501Y008130D02*
X020125Y008130D01*
X020180Y008288D02*
X020311Y008288D01*
X020228Y008447D02*
X020180Y008447D01*
X018390Y009556D02*
X023503Y009556D01*
X023506Y009398D02*
X018278Y009398D01*
X018390Y009715D02*
X023588Y009715D01*
X024131Y009715D02*
X027477Y009715D01*
X027636Y009873D02*
X018390Y009873D01*
X018390Y010032D02*
X027794Y010032D01*
X027953Y010190D02*
X018390Y010190D01*
X018390Y010349D02*
X028111Y010349D01*
X028371Y009715D02*
X028421Y009715D01*
X028262Y009556D02*
X028213Y009556D01*
X028104Y009398D02*
X028054Y009398D01*
X027945Y009239D02*
X027896Y009239D01*
X027787Y009081D02*
X027737Y009081D01*
X027628Y008922D02*
X027579Y008922D01*
X027470Y008764D02*
X023509Y008764D01*
X023467Y009239D02*
X023594Y009239D01*
X024216Y009556D02*
X027319Y009556D01*
X028149Y008764D02*
X032280Y008764D01*
X032280Y008922D02*
X028307Y008922D01*
X028466Y009081D02*
X032280Y009081D01*
X032280Y009239D02*
X028624Y009239D01*
X028783Y009398D02*
X032280Y009398D01*
X032280Y008605D02*
X027990Y008605D01*
X027832Y008447D02*
X032280Y008447D01*
X032280Y008288D02*
X027642Y008288D01*
X026998Y008130D02*
X032280Y008130D01*
X032280Y007971D02*
X026917Y007971D01*
X026880Y007813D02*
X032280Y007813D01*
X032280Y007654D02*
X026880Y007654D01*
X026880Y007496D02*
X032280Y007496D01*
X034906Y009767D02*
X035109Y009970D01*
X035146Y010059D01*
X035146Y011084D01*
X035189Y011084D01*
X035282Y011178D01*
X035245Y011141D02*
X035354Y011141D01*
X035483Y010983D02*
X035146Y010983D01*
X035146Y010824D02*
X035483Y010824D01*
X035483Y010666D02*
X035146Y010666D01*
X035146Y010507D02*
X035589Y010507D01*
X035747Y010349D02*
X035146Y010349D01*
X035146Y010190D02*
X036383Y010190D01*
X036816Y010190D02*
X037780Y010190D01*
X037779Y010192D02*
X037830Y010122D01*
X037891Y010060D01*
X037961Y010010D01*
X038038Y009970D01*
X038121Y009944D01*
X038206Y009930D01*
X038230Y009930D01*
X038230Y010460D01*
X037700Y010460D01*
X037700Y010437D01*
X037713Y010351D01*
X037740Y010269D01*
X037779Y010192D01*
X037714Y010349D02*
X036933Y010349D01*
X036958Y010507D02*
X037700Y010507D01*
X037731Y010666D02*
X036910Y010666D01*
X036705Y010824D02*
X037820Y010824D01*
X037966Y010983D02*
X035903Y010983D01*
X035903Y010824D02*
X036494Y010824D01*
X036668Y011300D02*
X036070Y011300D01*
X036070Y011458D02*
X036664Y011458D01*
X036664Y011617D02*
X036070Y011617D01*
X036070Y011775D02*
X036664Y011775D01*
X036728Y011934D02*
X036550Y011934D01*
X036650Y012092D02*
X036664Y012092D01*
X036650Y012251D02*
X036664Y012251D01*
X036650Y012409D02*
X036664Y012409D01*
X036650Y012568D02*
X036664Y012568D01*
X036703Y012726D02*
X036733Y012726D01*
X036426Y013043D02*
X035923Y013043D01*
X035923Y013202D02*
X036584Y013202D01*
X036267Y012885D02*
X036007Y012885D01*
X036090Y012726D02*
X036230Y012726D01*
X036230Y012568D02*
X036090Y012568D01*
X036090Y012409D02*
X036230Y012409D01*
X036230Y012251D02*
X036090Y012251D01*
X035317Y011775D02*
X035282Y011775D01*
X035282Y011617D02*
X035317Y011617D01*
X034601Y011934D02*
X033850Y011934D01*
X033850Y012092D02*
X034575Y012092D01*
X034549Y012251D02*
X033850Y012251D01*
X033850Y012409D02*
X034549Y012409D01*
X034549Y012568D02*
X033850Y012568D01*
X033850Y012726D02*
X034549Y012726D01*
X034536Y012885D02*
X033850Y012885D01*
X033850Y013043D02*
X034377Y013043D01*
X034300Y013202D02*
X033850Y013202D01*
X033850Y013360D02*
X034300Y013360D01*
X034089Y013519D02*
X033850Y013519D01*
X033850Y013677D02*
X034084Y013677D01*
X034084Y013836D02*
X033850Y013836D01*
X033850Y013994D02*
X034084Y013994D01*
X034084Y014153D02*
X033850Y014153D01*
X033850Y014311D02*
X034064Y014311D01*
X033850Y014470D02*
X034492Y014470D01*
X034587Y014470D02*
X035403Y014470D01*
X035298Y014311D02*
X035015Y014311D01*
X034995Y014153D02*
X035281Y014153D01*
X035339Y013994D02*
X034995Y013994D01*
X034995Y013836D02*
X035503Y013836D01*
X035503Y013677D02*
X034995Y013677D01*
X034990Y013519D02*
X035503Y013519D01*
X035503Y013360D02*
X035446Y013360D01*
X035240Y013060D02*
X035020Y013060D01*
X034880Y012920D01*
X034880Y012506D01*
X034926Y012460D01*
X034529Y011775D02*
X033850Y011775D01*
X033850Y011617D02*
X034529Y011617D01*
X034529Y011458D02*
X033850Y011458D01*
X033850Y011300D02*
X034529Y011300D01*
X034566Y011141D02*
X033850Y011141D01*
X033850Y010983D02*
X034666Y010983D01*
X034666Y010824D02*
X033850Y010824D01*
X033850Y010666D02*
X034666Y010666D01*
X034666Y010507D02*
X033784Y010507D01*
X033625Y010349D02*
X034666Y010349D01*
X034650Y010190D02*
X033467Y010190D01*
X033308Y010032D02*
X034492Y010032D01*
X034906Y009767D02*
X039280Y009780D01*
X039280Y026200D01*
X003240Y026200D01*
X003240Y026199D02*
X039280Y026199D01*
X039280Y026040D02*
X003240Y026040D01*
X003240Y025882D02*
X029881Y025882D01*
X029663Y025723D02*
X005113Y025723D01*
X005096Y025733D02*
X004808Y025810D01*
X004511Y025810D01*
X004223Y025733D01*
X003966Y025584D01*
X003755Y025374D01*
X003607Y025116D01*
X003530Y024829D01*
X003530Y024531D01*
X003607Y024244D01*
X003755Y023986D01*
X003966Y023776D01*
X004223Y023627D01*
X004511Y023550D01*
X004808Y023550D01*
X005096Y023627D01*
X005353Y023776D01*
X005564Y023986D01*
X005713Y024244D01*
X005790Y024531D01*
X005790Y024829D01*
X005713Y025116D01*
X005564Y025374D01*
X005353Y025584D01*
X005096Y025733D01*
X005373Y025565D02*
X029578Y025565D01*
X029550Y025406D02*
X005532Y025406D01*
X005637Y025248D02*
X029565Y025248D01*
X029631Y025089D02*
X005720Y025089D01*
X005762Y024931D02*
X029640Y024931D01*
X029053Y024772D02*
X005790Y024772D01*
X005790Y024614D02*
X028811Y024614D01*
X028652Y024455D02*
X005769Y024455D01*
X005727Y024297D02*
X028494Y024297D01*
X028365Y024138D02*
X005651Y024138D01*
X005557Y023980D02*
X028320Y023980D01*
X028320Y023821D02*
X005399Y023821D01*
X005157Y023663D02*
X028320Y023663D01*
X028320Y023504D02*
X003240Y023504D01*
X003240Y023346D02*
X014094Y023346D01*
X014145Y023367D02*
X013935Y023279D01*
X013773Y023118D01*
X013686Y022907D01*
X013686Y021853D01*
X013773Y021642D01*
X013935Y021481D01*
X014145Y021393D01*
X014374Y021393D01*
X014584Y021481D01*
X014746Y021642D01*
X014833Y021853D01*
X014833Y022907D01*
X014746Y023118D01*
X014584Y023279D01*
X014374Y023367D01*
X014145Y023367D01*
X014425Y023346D02*
X016039Y023346D01*
X016032Y023343D02*
X015949Y023301D01*
X015873Y023246D01*
X015807Y023180D01*
X015752Y023104D01*
X015710Y023021D01*
X015681Y022932D01*
X015666Y022840D01*
X015666Y022438D01*
X016202Y022438D01*
X016202Y023385D01*
X016121Y023372D01*
X016032Y023343D01*
X016202Y023346D02*
X016317Y023346D01*
X016317Y023385D02*
X016317Y022438D01*
X016202Y022438D01*
X016202Y022322D01*
X016317Y022322D01*
X016317Y021375D01*
X016398Y021388D01*
X016487Y021417D01*
X016571Y021459D01*
X016646Y021514D01*
X016712Y021580D01*
X016767Y021656D01*
X016809Y021739D01*
X016838Y021828D01*
X016853Y021920D01*
X016853Y022322D01*
X016317Y022322D01*
X016317Y022438D01*
X016853Y022438D01*
X016853Y022840D01*
X016838Y022932D01*
X016809Y023021D01*
X016767Y023104D01*
X016712Y023180D01*
X016646Y023246D01*
X016571Y023301D01*
X016487Y023343D01*
X016398Y023372D01*
X016317Y023385D01*
X016480Y023346D02*
X019594Y023346D01*
X019645Y023367D02*
X019435Y023279D01*
X019273Y023118D01*
X019186Y022907D01*
X019186Y021853D01*
X019273Y021642D01*
X019435Y021481D01*
X019645Y021393D01*
X019874Y021393D01*
X020084Y021481D01*
X020246Y021642D01*
X020333Y021853D01*
X020333Y022907D01*
X020246Y023118D01*
X020084Y023279D01*
X019874Y023367D01*
X019645Y023367D01*
X019925Y023346D02*
X021539Y023346D01*
X021532Y023343D02*
X021449Y023301D01*
X021373Y023246D01*
X021307Y023180D01*
X021252Y023104D01*
X021210Y023021D01*
X021181Y022932D01*
X021166Y022840D01*
X021166Y022438D01*
X021702Y022438D01*
X021702Y023385D01*
X021621Y023372D01*
X021532Y023343D01*
X021702Y023346D02*
X021817Y023346D01*
X021817Y023385D02*
X021817Y022438D01*
X021702Y022438D01*
X021702Y022322D01*
X021817Y022322D01*
X021817Y021375D01*
X021898Y021388D01*
X021987Y021417D01*
X022071Y021459D01*
X022146Y021514D01*
X022212Y021580D01*
X022267Y021656D01*
X022309Y021739D01*
X022338Y021828D01*
X022353Y021920D01*
X022353Y022322D01*
X021817Y022322D01*
X021817Y022438D01*
X022353Y022438D01*
X022353Y022840D01*
X022338Y022932D01*
X022309Y023021D01*
X022267Y023104D01*
X022212Y023180D01*
X022146Y023246D01*
X022071Y023301D01*
X021987Y023343D01*
X021898Y023372D01*
X021817Y023385D01*
X021980Y023346D02*
X025094Y023346D01*
X025145Y023367D02*
X024935Y023279D01*
X024773Y023118D01*
X024686Y022907D01*
X024686Y021853D01*
X024773Y021642D01*
X024935Y021481D01*
X025145Y021393D01*
X025374Y021393D01*
X025584Y021481D01*
X025746Y021642D01*
X025833Y021853D01*
X025833Y022907D01*
X025746Y023118D01*
X025584Y023279D01*
X025374Y023367D01*
X025145Y023367D01*
X025425Y023346D02*
X027039Y023346D01*
X027032Y023343D02*
X026949Y023301D01*
X026873Y023246D01*
X026807Y023180D01*
X026752Y023104D01*
X026710Y023021D01*
X026681Y022932D01*
X026666Y022840D01*
X026666Y022438D01*
X027202Y022438D01*
X027202Y023385D01*
X027121Y023372D01*
X027032Y023343D01*
X027202Y023346D02*
X027317Y023346D01*
X027317Y023385D02*
X027317Y022438D01*
X027202Y022438D01*
X027202Y022322D01*
X027317Y022322D01*
X027317Y021375D01*
X027398Y021388D01*
X027487Y021417D01*
X027571Y021459D01*
X027646Y021514D01*
X027712Y021580D01*
X027767Y021656D01*
X027809Y021739D01*
X027838Y021828D01*
X027853Y021920D01*
X027853Y022322D01*
X027317Y022322D01*
X027317Y022438D01*
X027853Y022438D01*
X027853Y022840D01*
X027838Y022932D01*
X027809Y023021D01*
X027767Y023104D01*
X027712Y023180D01*
X027646Y023246D01*
X027571Y023301D01*
X027487Y023343D01*
X027398Y023372D01*
X027317Y023385D01*
X027480Y023346D02*
X028320Y023346D01*
X028320Y023187D02*
X027705Y023187D01*
X027806Y023029D02*
X028320Y023029D01*
X028320Y022870D02*
X027848Y022870D01*
X027853Y022712D02*
X028320Y022712D01*
X028320Y022553D02*
X027853Y022553D01*
X027853Y022236D02*
X028320Y022236D01*
X028320Y022078D02*
X027853Y022078D01*
X027853Y021919D02*
X028320Y021919D01*
X028320Y021761D02*
X027816Y021761D01*
X027728Y021602D02*
X028320Y021602D01*
X028320Y021444D02*
X027540Y021444D01*
X027317Y021444D02*
X027202Y021444D01*
X027202Y021375D02*
X027202Y022322D01*
X026666Y022322D01*
X026666Y021920D01*
X026681Y021828D01*
X026710Y021739D01*
X026752Y021656D01*
X026807Y021580D01*
X026873Y021514D01*
X026949Y021459D01*
X027032Y021417D01*
X027121Y021388D01*
X027202Y021375D01*
X027202Y021602D02*
X027317Y021602D01*
X027317Y021761D02*
X027202Y021761D01*
X027202Y021919D02*
X027317Y021919D01*
X027317Y022078D02*
X027202Y022078D01*
X027202Y022236D02*
X027317Y022236D01*
X027317Y022395D02*
X028320Y022395D01*
X027317Y022553D02*
X027202Y022553D01*
X027202Y022395D02*
X025833Y022395D01*
X025833Y022553D02*
X026666Y022553D01*
X026666Y022712D02*
X025833Y022712D01*
X025833Y022870D02*
X026671Y022870D01*
X026713Y023029D02*
X025783Y023029D01*
X025677Y023187D02*
X026814Y023187D01*
X027202Y023187D02*
X027317Y023187D01*
X027317Y023029D02*
X027202Y023029D01*
X027202Y022870D02*
X027317Y022870D01*
X027317Y022712D02*
X027202Y022712D01*
X026666Y022236D02*
X025833Y022236D01*
X025833Y022078D02*
X026666Y022078D01*
X026666Y021919D02*
X025833Y021919D01*
X025795Y021761D02*
X026703Y021761D01*
X026791Y021602D02*
X025706Y021602D01*
X025495Y021444D02*
X026979Y021444D01*
X028320Y021285D02*
X011150Y021285D01*
X011150Y021293D02*
X011374Y021293D01*
X011584Y021381D01*
X011746Y021542D01*
X011833Y021753D01*
X011833Y022123D01*
X011850Y022163D01*
X011850Y022397D01*
X011833Y022437D01*
X011833Y022807D01*
X011746Y023018D01*
X011584Y023179D01*
X011374Y023267D01*
X011145Y023267D01*
X010935Y023179D01*
X010773Y023018D01*
X010686Y022807D01*
X010686Y022541D01*
X010059Y021914D01*
X009970Y021697D01*
X009970Y019324D01*
X009615Y018970D01*
X007942Y018970D01*
X007725Y018880D01*
X007559Y018714D01*
X007259Y018414D01*
X007170Y018197D01*
X007170Y016279D01*
X007159Y016305D01*
X006998Y016466D01*
X006850Y016527D01*
X006850Y018933D01*
X006998Y018994D01*
X007159Y019155D01*
X007246Y019366D01*
X007246Y019594D01*
X007159Y019805D01*
X006998Y019966D01*
X006787Y020053D01*
X006417Y020053D01*
X006377Y020070D01*
X006142Y020070D01*
X006102Y020053D01*
X005732Y020053D01*
X005521Y019966D01*
X005360Y019805D01*
X005273Y019594D01*
X005273Y019366D01*
X005360Y019155D01*
X005521Y018994D01*
X005670Y018933D01*
X005670Y016527D01*
X005521Y016466D01*
X005360Y016305D01*
X005273Y016094D01*
X005273Y015866D01*
X005360Y015655D01*
X005521Y015494D01*
X005732Y015407D01*
X006102Y015407D01*
X006142Y015390D01*
X006377Y015390D01*
X006417Y015407D01*
X006787Y015407D01*
X006998Y015494D01*
X007159Y015655D01*
X007170Y015681D01*
X007170Y014724D01*
X007015Y014570D01*
X006142Y014570D01*
X006102Y014553D01*
X005732Y014553D01*
X005521Y014466D01*
X005360Y014305D01*
X005273Y014094D01*
X005273Y013866D01*
X005360Y013655D01*
X005521Y013494D01*
X005732Y013407D01*
X006102Y013407D01*
X006142Y013390D01*
X007377Y013390D01*
X007594Y013480D01*
X008094Y013980D01*
X008260Y014146D01*
X008350Y014363D01*
X008350Y016528D01*
X008400Y016406D01*
X008586Y016220D01*
X008828Y016120D01*
X008833Y016120D01*
X008944Y016009D01*
X009279Y015870D01*
X011641Y015870D01*
X011975Y016009D01*
X013431Y017465D01*
X013570Y017799D01*
X013570Y018803D01*
X013636Y018870D01*
X025141Y018870D01*
X025475Y019009D01*
X025831Y019365D01*
X025970Y019699D01*
X025970Y020061D01*
X025831Y020395D01*
X025575Y020651D01*
X028320Y020651D01*
X028320Y020493D02*
X025734Y020493D01*
X025856Y020334D02*
X028320Y020334D01*
X028320Y020176D02*
X025922Y020176D01*
X025970Y020017D02*
X028320Y020017D01*
X028320Y019859D02*
X025970Y019859D01*
X025970Y019700D02*
X028320Y019700D01*
X028320Y019542D02*
X025904Y019542D01*
X025839Y019383D02*
X028320Y019383D01*
X028320Y019225D02*
X025691Y019225D01*
X025532Y019066D02*
X028320Y019066D01*
X028320Y018908D02*
X025231Y018908D01*
X025174Y017453D02*
X024945Y017453D01*
X024735Y017366D01*
X024573Y017205D01*
X024486Y016994D01*
X024486Y016766D01*
X024573Y016555D01*
X024735Y016394D01*
X024945Y016307D01*
X025174Y016307D01*
X025384Y016394D01*
X025546Y016555D01*
X025633Y016766D01*
X025633Y016994D01*
X025546Y017205D01*
X025384Y017366D01*
X025174Y017453D01*
X025428Y017323D02*
X028320Y017323D01*
X028320Y017481D02*
X013438Y017481D01*
X013503Y017640D02*
X028320Y017640D01*
X028320Y017798D02*
X013569Y017798D01*
X013570Y017957D02*
X028320Y017957D01*
X028320Y018115D02*
X013570Y018115D01*
X013570Y018274D02*
X028320Y018274D01*
X028320Y018432D02*
X013570Y018432D01*
X013570Y018591D02*
X028320Y018591D01*
X028320Y018749D02*
X013570Y018749D01*
X011750Y018749D02*
X011061Y018749D01*
X011060Y018746D02*
X011150Y018963D01*
X011150Y021293D01*
X011150Y021127D02*
X028320Y021127D01*
X028320Y020968D02*
X011150Y020968D01*
X011150Y020810D02*
X028320Y020810D01*
X029200Y020810D02*
X032895Y020810D01*
X032895Y020968D02*
X029200Y020968D01*
X029200Y021127D02*
X032895Y021127D01*
X032895Y021285D02*
X029200Y021285D01*
X029200Y021444D02*
X032946Y021444D01*
X033105Y021602D02*
X029200Y021602D01*
X029200Y021761D02*
X033263Y021761D01*
X033422Y021919D02*
X029200Y021919D01*
X029200Y022078D02*
X038530Y022078D01*
X038530Y021919D02*
X038491Y021919D01*
X038950Y021919D02*
X039280Y021919D01*
X039280Y021761D02*
X038950Y021761D01*
X038950Y021602D02*
X039280Y021602D01*
X039280Y021444D02*
X038950Y021444D01*
X038950Y021285D02*
X039280Y021285D01*
X039280Y021127D02*
X038863Y021127D01*
X038705Y020968D02*
X039280Y020968D01*
X039280Y020810D02*
X038691Y020810D01*
X038737Y020651D02*
X039280Y020651D01*
X039280Y020493D02*
X038728Y020493D01*
X038728Y020488D02*
X038740Y020562D01*
X038740Y020580D01*
X037980Y020580D01*
X037980Y020120D01*
X038297Y020120D01*
X038372Y020132D01*
X038444Y020155D01*
X038511Y020189D01*
X038572Y020234D01*
X038626Y020287D01*
X038670Y020348D01*
X038704Y020416D01*
X038728Y020488D01*
X038660Y020334D02*
X039280Y020334D01*
X039280Y020176D02*
X038484Y020176D01*
X038420Y019990D02*
X038251Y020060D01*
X037468Y020060D01*
X037299Y019990D01*
X037170Y019861D01*
X037100Y019691D01*
X037100Y019508D01*
X037170Y019339D01*
X037299Y019210D01*
X037468Y019140D01*
X038251Y019140D01*
X038420Y019210D01*
X038549Y019339D01*
X038620Y019508D01*
X038620Y019691D01*
X038549Y019861D01*
X038420Y019990D01*
X038355Y020017D02*
X039280Y020017D01*
X039280Y019859D02*
X038550Y019859D01*
X038616Y019700D02*
X039280Y019700D01*
X039280Y019542D02*
X038620Y019542D01*
X038568Y019383D02*
X039280Y019383D01*
X039280Y019225D02*
X038435Y019225D01*
X038351Y019060D02*
X038520Y018990D01*
X038649Y018861D01*
X038720Y018691D01*
X038720Y018508D01*
X038649Y018339D01*
X038520Y018210D01*
X038351Y018140D01*
X037568Y018140D01*
X037399Y018210D01*
X037270Y018339D01*
X037200Y018508D01*
X037200Y018691D01*
X037270Y018861D01*
X037399Y018990D01*
X037568Y019060D01*
X038351Y019060D01*
X038603Y018908D02*
X039280Y018908D01*
X039280Y019066D02*
X036110Y019066D01*
X036110Y018908D02*
X037317Y018908D01*
X037223Y018749D02*
X036110Y018749D01*
X036110Y018591D02*
X037200Y018591D01*
X037231Y018432D02*
X036110Y018432D01*
X036110Y018274D02*
X037335Y018274D01*
X037615Y017798D02*
X036110Y017798D01*
X036110Y017640D02*
X037416Y017640D01*
X037330Y017481D02*
X036110Y017481D01*
X036019Y017323D02*
X037300Y017323D01*
X037315Y017164D02*
X035861Y017164D01*
X035702Y017006D02*
X037384Y017006D01*
X037537Y016847D02*
X034265Y016847D01*
X033850Y016689D02*
X037589Y016689D01*
X037471Y016530D02*
X033850Y016530D01*
X033850Y016372D02*
X036954Y016372D01*
X036796Y016213D02*
X033850Y016213D01*
X033850Y016055D02*
X036770Y016055D01*
X036770Y015896D02*
X033850Y015896D01*
X033850Y015738D02*
X036770Y015738D01*
X036770Y015579D02*
X033850Y015579D01*
X033850Y015421D02*
X036770Y015421D01*
X036770Y015262D02*
X033850Y015262D01*
X033850Y015104D02*
X036770Y015104D01*
X036770Y014945D02*
X034879Y014945D01*
X034858Y014951D02*
X034587Y014951D01*
X034587Y014563D01*
X035015Y014563D01*
X035015Y014794D01*
X035003Y014840D01*
X034979Y014881D01*
X034945Y014915D01*
X034904Y014938D01*
X034858Y014951D01*
X035015Y014787D02*
X036770Y014787D01*
X036770Y014628D02*
X035015Y014628D01*
X034587Y014628D02*
X034492Y014628D01*
X034492Y014787D02*
X034587Y014787D01*
X034587Y014945D02*
X034492Y014945D01*
X034200Y014945D02*
X033850Y014945D01*
X033850Y014787D02*
X034064Y014787D01*
X034064Y014628D02*
X033850Y014628D01*
X033210Y014628D02*
X033170Y014628D01*
X033170Y014787D02*
X033210Y014787D01*
X033210Y014945D02*
X033170Y014945D01*
X033170Y015104D02*
X033210Y015104D01*
X032750Y015104D02*
X032210Y015104D01*
X032400Y015500D02*
X031834Y015500D01*
X031794Y015460D01*
X031794Y016555D01*
X032220Y016980D01*
X032920Y016980D01*
X033140Y017200D01*
X033140Y017540D01*
X033140Y018185D01*
X033005Y018180D01*
X033105Y018220D01*
X032440Y018220D01*
X032197Y017957D02*
X029200Y017957D01*
X029200Y018115D02*
X032095Y018115D01*
X032081Y018274D02*
X029200Y018274D01*
X029200Y018432D02*
X032145Y018432D01*
X032638Y018591D02*
X029200Y018591D01*
X029200Y018749D02*
X032895Y018749D01*
X032895Y018908D02*
X029200Y018908D01*
X029200Y019066D02*
X032895Y019066D01*
X032895Y019225D02*
X029200Y019225D01*
X029200Y019383D02*
X032895Y019383D01*
X032895Y019542D02*
X029200Y019542D01*
X029200Y019700D02*
X032895Y019700D01*
X032895Y019859D02*
X029200Y019859D01*
X029200Y020017D02*
X032895Y020017D01*
X032895Y020176D02*
X029200Y020176D01*
X029200Y020334D02*
X032895Y020334D01*
X032895Y020493D02*
X029200Y020493D01*
X029200Y020651D02*
X032895Y020651D01*
X033315Y020651D02*
X035690Y020651D01*
X035690Y020493D02*
X033315Y020493D01*
X033315Y020334D02*
X035690Y020334D01*
X035690Y020176D02*
X033315Y020176D01*
X033315Y020017D02*
X034457Y020017D01*
X034508Y020038D02*
X034377Y019984D01*
X034283Y019890D01*
X034253Y019890D01*
X034133Y019770D01*
X034010Y019647D01*
X034010Y018637D01*
X034000Y018643D01*
X033954Y018655D01*
X033722Y018655D01*
X033722Y018228D01*
X033626Y018228D01*
X033626Y018655D01*
X033395Y018655D01*
X033349Y018643D01*
X033330Y018632D01*
X033327Y018635D01*
X033315Y018635D01*
X033315Y021218D01*
X033626Y021530D01*
X036343Y021530D01*
X036343Y021482D01*
X036437Y021388D01*
X037042Y021388D01*
X037118Y021464D01*
X037170Y021339D01*
X037179Y021330D01*
X036113Y021330D01*
X035813Y021030D01*
X035690Y020907D01*
X035690Y017587D01*
X035433Y017330D01*
X034306Y017330D01*
X034350Y017373D01*
X034630Y017653D01*
X034630Y017827D01*
X034630Y018810D01*
X034648Y018802D01*
X034791Y018802D01*
X034922Y018856D01*
X035023Y018957D01*
X035078Y019089D01*
X035078Y019231D01*
X035023Y019363D01*
X034922Y019464D01*
X034884Y019479D01*
X034938Y019609D01*
X034938Y019751D01*
X034883Y019883D01*
X034782Y019984D01*
X034651Y020038D01*
X034508Y020038D01*
X034702Y020017D02*
X035690Y020017D01*
X035690Y019859D02*
X034893Y019859D01*
X034938Y019700D02*
X035690Y019700D01*
X035690Y019542D02*
X034910Y019542D01*
X035003Y019383D02*
X035690Y019383D01*
X035690Y019225D02*
X035078Y019225D01*
X035068Y019066D02*
X035690Y019066D01*
X035690Y018908D02*
X034973Y018908D01*
X034630Y018749D02*
X035690Y018749D01*
X035690Y018591D02*
X034630Y018591D01*
X034630Y018432D02*
X035690Y018432D01*
X035690Y018274D02*
X034630Y018274D01*
X034630Y018115D02*
X035690Y018115D01*
X035690Y017957D02*
X034630Y017957D01*
X034630Y017798D02*
X035690Y017798D01*
X035690Y017640D02*
X034616Y017640D01*
X034458Y017481D02*
X035584Y017481D01*
X036110Y017957D02*
X039280Y017957D01*
X039280Y018115D02*
X036110Y018115D01*
X036110Y019225D02*
X037284Y019225D01*
X037151Y019383D02*
X036110Y019383D01*
X036110Y019542D02*
X037100Y019542D01*
X037103Y019700D02*
X036110Y019700D01*
X036110Y019859D02*
X037169Y019859D01*
X037364Y020017D02*
X036110Y020017D01*
X036110Y020176D02*
X037435Y020176D01*
X037408Y020189D02*
X037475Y020155D01*
X037547Y020132D01*
X037622Y020120D01*
X037940Y020120D01*
X037940Y020580D01*
X037180Y020580D01*
X037180Y020562D01*
X037191Y020488D01*
X037215Y020416D01*
X037249Y020348D01*
X037293Y020287D01*
X037347Y020234D01*
X037408Y020189D01*
X037259Y020334D02*
X036110Y020334D01*
X036110Y020493D02*
X037191Y020493D01*
X037182Y020651D02*
X036110Y020651D01*
X036186Y020810D02*
X037228Y020810D01*
X037940Y020493D02*
X037980Y020493D01*
X037980Y020334D02*
X037940Y020334D01*
X037940Y020176D02*
X037980Y020176D01*
X037126Y021444D02*
X037097Y021444D01*
X036382Y021444D02*
X033540Y021444D01*
X033382Y021285D02*
X036068Y021285D01*
X035909Y021127D02*
X033315Y021127D01*
X033315Y020968D02*
X035751Y020968D01*
X035690Y020810D02*
X033315Y020810D01*
X033315Y019859D02*
X034221Y019859D01*
X034063Y019700D02*
X033315Y019700D01*
X033315Y019542D02*
X034010Y019542D01*
X034010Y019383D02*
X033315Y019383D01*
X033315Y019225D02*
X034010Y019225D01*
X034010Y019066D02*
X033315Y019066D01*
X033315Y018908D02*
X034010Y018908D01*
X034010Y018749D02*
X033315Y018749D01*
X033626Y018591D02*
X033722Y018591D01*
X033722Y018432D02*
X033626Y018432D01*
X033626Y018274D02*
X033722Y018274D01*
X032900Y017640D02*
X029200Y017640D01*
X029200Y017798D02*
X032609Y017798D01*
X032900Y017481D02*
X029200Y017481D01*
X029200Y017323D02*
X031136Y017323D01*
X031023Y017164D02*
X029200Y017164D01*
X029197Y017006D02*
X031001Y017006D01*
X031052Y016847D02*
X029129Y016847D01*
X029151Y016689D02*
X028970Y016689D01*
X028820Y016530D02*
X028812Y016530D01*
X028601Y016213D02*
X019389Y016213D01*
X019374Y016207D02*
X019584Y016294D01*
X019746Y016455D01*
X019833Y016666D01*
X019833Y016894D01*
X019746Y017105D01*
X019584Y017266D01*
X019374Y017353D01*
X019145Y017353D01*
X018935Y017266D01*
X018773Y017105D01*
X018686Y016894D01*
X018686Y016666D01*
X018773Y016455D01*
X018935Y016294D01*
X019145Y016207D01*
X019374Y016207D01*
X019130Y016213D02*
X014289Y016213D01*
X014274Y016207D02*
X014484Y016294D01*
X014646Y016455D01*
X014733Y016666D01*
X014733Y016894D01*
X014646Y017105D01*
X014484Y017266D01*
X014274Y017353D01*
X014045Y017353D01*
X013835Y017266D01*
X013673Y017105D01*
X013586Y016894D01*
X013586Y016666D01*
X013673Y016455D01*
X013835Y016294D01*
X014045Y016207D01*
X014274Y016207D01*
X014030Y016213D02*
X012179Y016213D01*
X012021Y016055D02*
X028632Y016055D01*
X028758Y015896D02*
X011703Y015896D01*
X012338Y016372D02*
X013757Y016372D01*
X013642Y016530D02*
X012496Y016530D01*
X012655Y016689D02*
X013586Y016689D01*
X013586Y016847D02*
X012813Y016847D01*
X012972Y017006D02*
X013632Y017006D01*
X013733Y017164D02*
X013130Y017164D01*
X013289Y017323D02*
X013971Y017323D01*
X014348Y017323D02*
X019071Y017323D01*
X018833Y017164D02*
X014586Y017164D01*
X014687Y017006D02*
X018732Y017006D01*
X018686Y016847D02*
X014733Y016847D01*
X014733Y016689D02*
X018686Y016689D01*
X018742Y016530D02*
X014677Y016530D01*
X014562Y016372D02*
X018857Y016372D01*
X019662Y016372D02*
X024789Y016372D01*
X024599Y016530D02*
X019777Y016530D01*
X019833Y016689D02*
X024518Y016689D01*
X024486Y016847D02*
X019833Y016847D01*
X019787Y017006D02*
X024491Y017006D01*
X024557Y017164D02*
X019686Y017164D01*
X019448Y017323D02*
X024691Y017323D01*
X025562Y017164D02*
X028201Y017164D01*
X028043Y017006D02*
X025628Y017006D01*
X025633Y016847D02*
X027944Y016847D01*
X027920Y016689D02*
X025601Y016689D01*
X025520Y016530D02*
X027954Y016530D01*
X028066Y016372D02*
X025330Y016372D01*
X025194Y015032D02*
X025100Y014939D01*
X025100Y013861D01*
X025194Y013768D01*
X025253Y013768D01*
X025253Y013696D01*
X025011Y013453D01*
X024945Y013453D01*
X024735Y013366D01*
X024573Y013205D01*
X024486Y012994D01*
X024486Y012766D01*
X024573Y012555D01*
X024735Y012394D01*
X024945Y012307D01*
X025174Y012307D01*
X025384Y012394D01*
X025546Y012555D01*
X025633Y012766D01*
X025633Y012831D01*
X026066Y013265D01*
X026133Y013426D01*
X026133Y013768D01*
X026193Y013768D01*
X026286Y013861D01*
X026286Y014939D01*
X026193Y015032D01*
X025194Y015032D01*
X025107Y014945D02*
X018486Y014945D01*
X018538Y015104D02*
X028590Y015104D01*
X028587Y015262D02*
X018517Y015262D01*
X018405Y015421D02*
X028619Y015421D01*
X028797Y015579D02*
X008350Y015579D01*
X008350Y015421D02*
X017954Y015421D01*
X017842Y015262D02*
X008350Y015262D01*
X008350Y015104D02*
X017821Y015104D01*
X017873Y014945D02*
X017192Y014945D01*
X017219Y014919D02*
X017125Y015012D01*
X016126Y015012D01*
X016033Y014919D01*
X016033Y013841D01*
X016126Y013748D01*
X016186Y013748D01*
X016186Y013226D01*
X016253Y013065D01*
X016586Y012731D01*
X016586Y012666D01*
X016673Y012455D01*
X016835Y012294D01*
X017045Y012207D01*
X017274Y012207D01*
X017484Y012294D01*
X017646Y012455D01*
X017733Y012666D01*
X017733Y012894D01*
X017646Y013105D01*
X017484Y013266D01*
X017274Y013353D01*
X017208Y013353D01*
X017066Y013496D01*
X017066Y013748D01*
X017125Y013748D01*
X017219Y013841D01*
X017219Y014919D01*
X017219Y014787D02*
X017970Y014787D01*
X017970Y014628D02*
X017219Y014628D01*
X017219Y014470D02*
X017970Y014470D01*
X017970Y014311D02*
X017219Y014311D01*
X017219Y014153D02*
X017970Y014153D01*
X017970Y013994D02*
X017219Y013994D01*
X017213Y013836D02*
X017970Y013836D01*
X017970Y013677D02*
X017066Y013677D01*
X017066Y013519D02*
X017970Y013519D01*
X017970Y013360D02*
X017202Y013360D01*
X017549Y013202D02*
X017970Y013202D01*
X017970Y013043D02*
X017671Y013043D01*
X017733Y012885D02*
X017970Y012885D01*
X017970Y012726D02*
X017733Y012726D01*
X017692Y012568D02*
X017970Y012568D01*
X017970Y012409D02*
X017599Y012409D01*
X017380Y012251D02*
X017970Y012251D01*
X017970Y012092D02*
X003240Y012092D01*
X003240Y011934D02*
X017970Y011934D01*
X017970Y011775D02*
X003240Y011775D01*
X003240Y011617D02*
X017970Y011617D01*
X017970Y011458D02*
X003240Y011458D01*
X003240Y011300D02*
X017970Y011300D01*
X017970Y011141D02*
X003240Y011141D01*
X003240Y010983D02*
X017970Y010983D01*
X017970Y010824D02*
X003240Y010824D01*
X003240Y010666D02*
X017970Y010666D01*
X017970Y010507D02*
X003240Y010507D01*
X003240Y010349D02*
X017970Y010349D01*
X017970Y010190D02*
X003240Y010190D01*
X003240Y010032D02*
X017970Y010032D01*
X018390Y010507D02*
X032910Y010507D01*
X033068Y010666D02*
X018390Y010666D01*
X018390Y010824D02*
X033210Y010824D01*
X033210Y010983D02*
X018390Y010983D01*
X018390Y011141D02*
X033210Y011141D01*
X033210Y011300D02*
X018390Y011300D01*
X018390Y011458D02*
X033210Y011458D01*
X033210Y011617D02*
X018390Y011617D01*
X018390Y011775D02*
X033210Y011775D01*
X033210Y011934D02*
X018390Y011934D01*
X018390Y012092D02*
X033210Y012092D01*
X033210Y012251D02*
X022480Y012251D01*
X022584Y012294D02*
X022746Y012455D01*
X022833Y012666D01*
X022833Y012894D01*
X022746Y013105D01*
X022584Y013266D01*
X022374Y013353D01*
X022366Y013353D01*
X022366Y013648D01*
X022425Y013648D01*
X022519Y013741D01*
X022519Y014819D01*
X022425Y014912D01*
X021426Y014912D01*
X021333Y014819D01*
X021333Y013741D01*
X021426Y013648D01*
X021486Y013648D01*
X021486Y013026D01*
X021553Y012865D01*
X021686Y012731D01*
X021686Y012666D01*
X021773Y012455D01*
X021935Y012294D01*
X022145Y012207D01*
X022374Y012207D01*
X022584Y012294D01*
X022699Y012409D02*
X024720Y012409D01*
X024568Y012568D02*
X022792Y012568D01*
X022833Y012726D02*
X024503Y012726D01*
X024486Y012885D02*
X022833Y012885D01*
X022771Y013043D02*
X024506Y013043D01*
X024572Y013202D02*
X022649Y013202D01*
X022366Y013360D02*
X024729Y013360D01*
X025076Y013519D02*
X022366Y013519D01*
X022454Y013677D02*
X025234Y013677D01*
X025126Y013836D02*
X022519Y013836D01*
X022519Y013994D02*
X025100Y013994D01*
X025100Y014153D02*
X022519Y014153D01*
X022519Y014311D02*
X025100Y014311D01*
X025100Y014470D02*
X022519Y014470D01*
X022519Y014628D02*
X025100Y014628D01*
X025100Y014787D02*
X022519Y014787D01*
X021333Y014787D02*
X020586Y014787D01*
X020586Y014819D02*
X020493Y014912D01*
X019494Y014912D01*
X019400Y014819D01*
X019400Y013741D01*
X019494Y013648D01*
X019505Y013648D01*
X019211Y013353D01*
X019145Y013353D01*
X018935Y013266D01*
X018773Y013105D01*
X018686Y012894D01*
X018686Y012666D01*
X018773Y012455D01*
X018935Y012294D01*
X019145Y012207D01*
X019374Y012207D01*
X019584Y012294D01*
X019746Y012455D01*
X019833Y012666D01*
X019833Y012731D01*
X020366Y013265D01*
X020433Y013426D01*
X020433Y013648D01*
X020493Y013648D01*
X020586Y013741D01*
X020586Y014819D01*
X020586Y014628D02*
X021333Y014628D01*
X021333Y014470D02*
X020586Y014470D01*
X020586Y014311D02*
X021333Y014311D01*
X021333Y014153D02*
X020586Y014153D01*
X020586Y013994D02*
X021333Y013994D01*
X021333Y013836D02*
X020586Y013836D01*
X020522Y013677D02*
X021397Y013677D01*
X021486Y013519D02*
X020433Y013519D01*
X020406Y013360D02*
X021486Y013360D01*
X021486Y013202D02*
X020303Y013202D01*
X020145Y013043D02*
X021486Y013043D01*
X021544Y012885D02*
X019986Y012885D01*
X019833Y012726D02*
X021686Y012726D01*
X021727Y012568D02*
X019792Y012568D01*
X019699Y012409D02*
X021820Y012409D01*
X022039Y012251D02*
X019480Y012251D01*
X019039Y012251D02*
X018390Y012251D01*
X018390Y012409D02*
X018820Y012409D01*
X018727Y012568D02*
X018390Y012568D01*
X018390Y012726D02*
X018686Y012726D01*
X018686Y012885D02*
X018390Y012885D01*
X018390Y013043D02*
X018748Y013043D01*
X018870Y013202D02*
X018390Y013202D01*
X018390Y013360D02*
X019217Y013360D01*
X019376Y013519D02*
X018390Y013519D01*
X018390Y013677D02*
X019465Y013677D01*
X019400Y013836D02*
X018390Y013836D01*
X018390Y013994D02*
X019400Y013994D01*
X019400Y014153D02*
X018390Y014153D01*
X018390Y014311D02*
X019400Y014311D01*
X019400Y014470D02*
X018390Y014470D01*
X018390Y014628D02*
X019400Y014628D01*
X019400Y014787D02*
X018390Y014787D01*
X016059Y014945D02*
X015260Y014945D01*
X015286Y014919D02*
X015193Y015012D01*
X014194Y015012D01*
X014100Y014919D01*
X014100Y013841D01*
X014194Y013748D01*
X014253Y013748D01*
X014253Y013496D01*
X014111Y013353D01*
X014045Y013353D01*
X013835Y013266D01*
X013673Y013105D01*
X013586Y012894D01*
X013586Y012666D01*
X013673Y012455D01*
X013835Y012294D01*
X014045Y012207D01*
X014274Y012207D01*
X014484Y012294D01*
X014646Y012455D01*
X014733Y012666D01*
X014733Y012731D01*
X015066Y013065D01*
X015133Y013226D01*
X015133Y013748D01*
X015193Y013748D01*
X015286Y013841D01*
X015286Y014919D01*
X015286Y014787D02*
X016033Y014787D01*
X016033Y014628D02*
X015286Y014628D01*
X015286Y014470D02*
X016033Y014470D01*
X016033Y014311D02*
X015286Y014311D01*
X015286Y014153D02*
X016033Y014153D01*
X016033Y013994D02*
X015286Y013994D01*
X015281Y013836D02*
X016038Y013836D01*
X016186Y013677D02*
X015133Y013677D01*
X015133Y013519D02*
X016186Y013519D01*
X016186Y013360D02*
X015133Y013360D01*
X015123Y013202D02*
X016196Y013202D01*
X016274Y013043D02*
X015045Y013043D01*
X014886Y012885D02*
X016433Y012885D01*
X016586Y012726D02*
X014733Y012726D01*
X014692Y012568D02*
X016627Y012568D01*
X016720Y012409D02*
X014599Y012409D01*
X014380Y012251D02*
X016939Y012251D01*
X014253Y013519D02*
X011966Y013519D01*
X011966Y013396D02*
X011966Y013748D01*
X012025Y013748D01*
X012119Y013841D01*
X012119Y014919D01*
X012025Y015012D01*
X011026Y015012D01*
X010933Y014919D01*
X010933Y013841D01*
X011026Y013748D01*
X011086Y013748D01*
X011086Y013126D01*
X011153Y012965D01*
X011386Y012731D01*
X011386Y012666D01*
X011473Y012455D01*
X011635Y012294D01*
X011845Y012207D01*
X012074Y012207D01*
X012284Y012294D01*
X012446Y012455D01*
X012533Y012666D01*
X012533Y012894D01*
X012446Y013105D01*
X012284Y013266D01*
X012074Y013353D01*
X012008Y013353D01*
X011966Y013396D01*
X012002Y013360D02*
X014117Y013360D01*
X014253Y013677D02*
X011966Y013677D01*
X012113Y013836D02*
X014106Y013836D01*
X014100Y013994D02*
X012119Y013994D01*
X012119Y014153D02*
X014100Y014153D01*
X014100Y014311D02*
X012119Y014311D01*
X012119Y014470D02*
X014100Y014470D01*
X014100Y014628D02*
X012119Y014628D01*
X012119Y014787D02*
X014100Y014787D01*
X014127Y014945D02*
X012092Y014945D01*
X010959Y014945D02*
X010160Y014945D01*
X010186Y014919D02*
X010093Y015012D01*
X009094Y015012D01*
X009000Y014919D01*
X009000Y013841D01*
X009094Y013748D01*
X009153Y013748D01*
X009153Y013696D01*
X008786Y013329D01*
X008635Y013266D01*
X008473Y013105D01*
X008411Y012953D01*
X008386Y012929D01*
X008320Y012768D01*
X008320Y012592D01*
X008386Y012431D01*
X008510Y012307D01*
X008672Y012240D01*
X008765Y012240D01*
X008845Y012207D01*
X009074Y012207D01*
X009284Y012294D01*
X009446Y012455D01*
X009533Y012666D01*
X009533Y012831D01*
X009966Y013265D01*
X010033Y013426D01*
X010033Y013748D01*
X010093Y013748D01*
X010186Y013841D01*
X010186Y014919D01*
X010186Y014787D02*
X010933Y014787D01*
X010933Y014628D02*
X010186Y014628D01*
X010186Y014470D02*
X010933Y014470D01*
X010933Y014311D02*
X010186Y014311D01*
X010186Y014153D02*
X010933Y014153D01*
X010933Y013994D02*
X010186Y013994D01*
X010181Y013836D02*
X010938Y013836D01*
X011086Y013677D02*
X010033Y013677D01*
X010033Y013519D02*
X011086Y013519D01*
X011086Y013360D02*
X010006Y013360D01*
X009903Y013202D02*
X011086Y013202D01*
X011120Y013043D02*
X009745Y013043D01*
X009586Y012885D02*
X011233Y012885D01*
X011386Y012726D02*
X009533Y012726D01*
X009492Y012568D02*
X011427Y012568D01*
X011520Y012409D02*
X009399Y012409D01*
X009180Y012251D02*
X011739Y012251D01*
X012180Y012251D02*
X013939Y012251D01*
X013720Y012409D02*
X012399Y012409D01*
X012492Y012568D02*
X013627Y012568D01*
X013586Y012726D02*
X012533Y012726D01*
X012533Y012885D02*
X013586Y012885D01*
X013648Y013043D02*
X012471Y013043D01*
X012349Y013202D02*
X013770Y013202D01*
X009216Y015896D02*
X008350Y015896D01*
X008350Y015738D02*
X029049Y015738D01*
X029161Y015896D02*
X029169Y015896D01*
X029287Y016055D02*
X031554Y016055D01*
X031554Y016213D02*
X029318Y016213D01*
X029428Y016372D02*
X031554Y016372D01*
X031554Y016530D02*
X031507Y016530D01*
X031570Y016689D02*
X031590Y016689D01*
X031667Y016847D02*
X031747Y016847D01*
X031718Y017006D02*
X031906Y017006D01*
X032064Y017164D02*
X031696Y017164D01*
X031583Y017323D02*
X032900Y017323D01*
X031173Y015896D02*
X031077Y015896D01*
X031077Y015738D02*
X031173Y015738D01*
X031173Y015579D02*
X031077Y015579D01*
X031077Y015421D02*
X029693Y015421D01*
X029738Y015579D02*
X030689Y015579D01*
X030689Y015738D02*
X029710Y015738D01*
X029590Y015896D02*
X030755Y015896D01*
X030689Y015412D02*
X030689Y015141D01*
X030701Y015095D01*
X030725Y015054D01*
X030758Y015021D01*
X030799Y014997D01*
X030845Y014985D01*
X031077Y014985D01*
X031077Y015412D01*
X030689Y015412D01*
X030689Y015262D02*
X029499Y015262D01*
X029010Y015104D02*
X030699Y015104D01*
X031077Y015104D02*
X031173Y015104D01*
X031173Y015262D02*
X031077Y015262D01*
X032668Y015262D02*
X032750Y015262D01*
X032750Y014945D02*
X029010Y014945D01*
X029010Y014787D02*
X029124Y014787D01*
X029515Y014787D02*
X032750Y014787D01*
X033146Y014470D02*
X033210Y014470D01*
X033210Y014311D02*
X032988Y014311D01*
X033210Y014153D02*
X029465Y014153D01*
X029174Y014153D02*
X029010Y014153D01*
X029010Y013994D02*
X033210Y013994D01*
X033210Y013836D02*
X029070Y013836D01*
X029155Y013677D02*
X033210Y013677D01*
X033210Y013519D02*
X029153Y013519D01*
X029066Y013360D02*
X033210Y013360D01*
X033210Y013202D02*
X028547Y013202D01*
X028546Y013205D02*
X028384Y013366D01*
X028174Y013453D01*
X028108Y013453D01*
X028066Y013496D01*
X028066Y013768D01*
X028125Y013768D01*
X028219Y013861D01*
X028219Y014939D01*
X028125Y015032D01*
X027126Y015032D01*
X027033Y014939D01*
X027033Y013861D01*
X027126Y013768D01*
X027186Y013768D01*
X027186Y013226D01*
X027253Y013065D01*
X027486Y012831D01*
X027486Y012766D01*
X027573Y012555D01*
X027735Y012394D01*
X027945Y012307D01*
X028174Y012307D01*
X028384Y012394D01*
X028546Y012555D01*
X028633Y012766D01*
X028633Y012994D01*
X028546Y013205D01*
X028533Y013360D02*
X028390Y013360D01*
X028446Y013519D02*
X028066Y013519D01*
X028066Y013677D02*
X028444Y013677D01*
X028529Y013836D02*
X028193Y013836D01*
X028219Y013994D02*
X028590Y013994D01*
X028590Y014153D02*
X028219Y014153D01*
X028219Y014311D02*
X028590Y014311D01*
X028590Y014470D02*
X028219Y014470D01*
X028219Y014628D02*
X028590Y014628D01*
X028590Y014787D02*
X028219Y014787D01*
X028212Y014945D02*
X028590Y014945D01*
X027039Y014945D02*
X026280Y014945D01*
X026286Y014787D02*
X027033Y014787D01*
X027033Y014628D02*
X026286Y014628D01*
X026286Y014470D02*
X027033Y014470D01*
X027033Y014311D02*
X026286Y014311D01*
X026286Y014153D02*
X027033Y014153D01*
X027033Y013994D02*
X026286Y013994D01*
X026261Y013836D02*
X027058Y013836D01*
X027186Y013677D02*
X026133Y013677D01*
X026133Y013519D02*
X027186Y013519D01*
X027186Y013360D02*
X026106Y013360D01*
X026003Y013202D02*
X027196Y013202D01*
X027274Y013043D02*
X025845Y013043D01*
X025686Y012885D02*
X027433Y012885D01*
X027503Y012726D02*
X025616Y012726D01*
X025551Y012568D02*
X027568Y012568D01*
X027720Y012409D02*
X025399Y012409D01*
X028399Y012409D02*
X033210Y012409D01*
X033210Y012568D02*
X028551Y012568D01*
X028616Y012726D02*
X033210Y012726D01*
X033210Y012885D02*
X028633Y012885D01*
X028613Y013043D02*
X033210Y013043D01*
X034540Y013220D02*
X034540Y013845D01*
X034780Y013360D02*
X035033Y013360D01*
X035240Y013060D02*
X034700Y013060D01*
X034540Y013220D01*
X035923Y013360D02*
X037029Y013360D01*
X037029Y013519D02*
X035923Y013519D01*
X035923Y013677D02*
X037029Y013677D01*
X037029Y013836D02*
X035923Y013836D01*
X035940Y013994D02*
X037053Y013994D01*
X037010Y014153D02*
X035998Y014153D01*
X035981Y014311D02*
X036852Y014311D01*
X036770Y014470D02*
X035876Y014470D01*
X037466Y012726D02*
X037720Y012726D01*
X038320Y013043D02*
X039280Y013043D01*
X039280Y012885D02*
X038780Y012885D01*
X038780Y012726D02*
X039280Y012726D01*
X039280Y012568D02*
X038780Y012568D01*
X038780Y012409D02*
X039280Y012409D01*
X039280Y012251D02*
X038780Y012251D01*
X038780Y012092D02*
X039280Y012092D01*
X039280Y011934D02*
X038440Y011934D01*
X038601Y011775D02*
X039280Y011775D01*
X039280Y011617D02*
X038667Y011617D01*
X038680Y011458D02*
X039280Y011458D01*
X039280Y011300D02*
X038648Y011300D01*
X038560Y011141D02*
X039280Y011141D01*
X039280Y010983D02*
X038475Y010983D01*
X038679Y010824D02*
X039280Y010824D01*
X039280Y010666D02*
X038768Y010666D01*
X038800Y010507D02*
X039280Y010507D01*
X039280Y010349D02*
X038785Y010349D01*
X038786Y010351D02*
X038800Y010437D01*
X038800Y010460D01*
X038270Y010460D01*
X038270Y009930D01*
X038293Y009930D01*
X038378Y009944D01*
X038461Y009970D01*
X038538Y010010D01*
X038608Y010060D01*
X038669Y010122D01*
X038720Y010192D01*
X038759Y010269D01*
X038786Y010351D01*
X038719Y010190D02*
X039280Y010190D01*
X039280Y010032D02*
X038568Y010032D01*
X038270Y010032D02*
X038230Y010032D01*
X038230Y010190D02*
X038270Y010190D01*
X038270Y010349D02*
X038230Y010349D01*
X037931Y010032D02*
X035135Y010032D01*
X035012Y009873D02*
X039280Y009873D01*
X037739Y011141D02*
X036033Y011141D01*
X037531Y011300D02*
X037651Y011300D01*
X037471Y011934D02*
X037859Y011934D01*
X037720Y012092D02*
X037535Y012092D01*
X038553Y013202D02*
X039280Y013202D01*
X039280Y013360D02*
X038570Y013360D01*
X038570Y013519D02*
X039280Y013519D01*
X039280Y013677D02*
X038570Y013677D01*
X038570Y013836D02*
X039280Y013836D01*
X039280Y013994D02*
X038546Y013994D01*
X038570Y014153D02*
X039280Y014153D01*
X039280Y014311D02*
X038570Y014311D01*
X038570Y014470D02*
X039280Y014470D01*
X039280Y014628D02*
X038570Y014628D01*
X038485Y014787D02*
X039280Y014787D01*
X039280Y014945D02*
X038380Y014945D01*
X038380Y015104D02*
X039280Y015104D01*
X039280Y015262D02*
X038380Y015262D01*
X038380Y015421D02*
X039280Y015421D01*
X039280Y015579D02*
X038380Y015579D01*
X038378Y015738D02*
X039280Y015738D01*
X039280Y015896D02*
X038295Y015896D01*
X038422Y016055D02*
X039280Y016055D01*
X039280Y016213D02*
X038480Y016213D01*
X038480Y016372D02*
X039280Y016372D01*
X039280Y016530D02*
X038428Y016530D01*
X038311Y016689D02*
X039280Y016689D01*
X039280Y016847D02*
X038162Y016847D01*
X038315Y017006D02*
X039280Y017006D01*
X039280Y017164D02*
X038384Y017164D01*
X038400Y017323D02*
X039280Y017323D01*
X039280Y017481D02*
X038369Y017481D01*
X038283Y017640D02*
X039280Y017640D01*
X039280Y017798D02*
X038084Y017798D01*
X037870Y017798D02*
X037830Y017798D01*
X037830Y017640D02*
X037870Y017640D01*
X037870Y017481D02*
X037830Y017481D01*
X037830Y017323D02*
X037870Y017323D01*
X038584Y018274D02*
X039280Y018274D01*
X039280Y018432D02*
X038688Y018432D01*
X038720Y018591D02*
X039280Y018591D01*
X039280Y018749D02*
X038696Y018749D01*
X038950Y022078D02*
X039280Y022078D01*
X039280Y022236D02*
X038950Y022236D01*
X038950Y022395D02*
X039280Y022395D01*
X039280Y022553D02*
X038923Y022553D01*
X038765Y022712D02*
X039280Y022712D01*
X039280Y022870D02*
X038640Y022870D01*
X038427Y023029D02*
X039280Y023029D01*
X039280Y023187D02*
X029200Y023187D01*
X029200Y023029D02*
X037492Y023029D01*
X037279Y022870D02*
X029200Y022870D01*
X029200Y022712D02*
X036417Y022712D01*
X036343Y022553D02*
X029200Y022553D01*
X029200Y022395D02*
X036343Y022395D01*
X036343Y022236D02*
X029200Y022236D01*
X029200Y023346D02*
X039280Y023346D01*
X039280Y023504D02*
X029200Y023504D01*
X029200Y023663D02*
X039280Y023663D01*
X039280Y023821D02*
X038264Y023821D01*
X038136Y023747D02*
X037848Y023670D01*
X037551Y023670D01*
X037263Y023747D01*
X037006Y023896D01*
X036795Y024106D01*
X036647Y024364D01*
X036570Y024651D01*
X036570Y024949D01*
X036647Y025236D01*
X036795Y025494D01*
X037006Y025704D01*
X037263Y025853D01*
X037551Y025930D01*
X037848Y025930D01*
X038136Y025853D01*
X038393Y025704D01*
X038604Y025494D01*
X038753Y025236D01*
X038830Y024949D01*
X038830Y024651D01*
X038753Y024364D01*
X038604Y024106D01*
X038393Y023896D01*
X038136Y023747D01*
X038477Y023980D02*
X039280Y023980D01*
X039280Y024138D02*
X038622Y024138D01*
X038714Y024297D02*
X039280Y024297D01*
X039280Y024455D02*
X038777Y024455D01*
X038819Y024614D02*
X039280Y024614D01*
X039280Y024772D02*
X038830Y024772D01*
X038830Y024931D02*
X039280Y024931D01*
X039280Y025089D02*
X038792Y025089D01*
X038746Y025248D02*
X039280Y025248D01*
X039280Y025406D02*
X038654Y025406D01*
X038533Y025565D02*
X039280Y025565D01*
X039280Y025723D02*
X038361Y025723D01*
X038029Y025882D02*
X039280Y025882D01*
X037370Y025882D02*
X032278Y025882D01*
X032496Y025723D02*
X032550Y025723D01*
X031881Y025882D02*
X030278Y025882D01*
X030496Y025723D02*
X030763Y025723D01*
X030620Y025565D02*
X030581Y025565D01*
X031396Y025723D02*
X031663Y025723D01*
X031578Y025565D02*
X031539Y025565D01*
X033610Y025565D02*
X034017Y025565D01*
X033960Y025406D02*
X033610Y025406D01*
X033610Y025248D02*
X033960Y025248D01*
X034012Y025089D02*
X033610Y025089D01*
X033610Y024931D02*
X034060Y024931D01*
X034940Y024931D02*
X035060Y024931D01*
X035060Y024884D02*
X035153Y024790D01*
X036026Y024790D01*
X036120Y024884D01*
X036120Y025756D01*
X036026Y025850D01*
X035153Y025850D01*
X035060Y025756D01*
X035060Y024884D01*
X034940Y024772D02*
X036570Y024772D01*
X036570Y024931D02*
X036120Y024931D01*
X036120Y025089D02*
X036607Y025089D01*
X036653Y025248D02*
X036120Y025248D01*
X036120Y025406D02*
X036745Y025406D01*
X036866Y025565D02*
X036120Y025565D01*
X036120Y025723D02*
X037038Y025723D01*
X036580Y024614D02*
X034940Y024614D01*
X034916Y024455D02*
X036622Y024455D01*
X036685Y024297D02*
X034818Y024297D01*
X034660Y024138D02*
X036777Y024138D01*
X036922Y023980D02*
X034501Y023980D01*
X034968Y025089D02*
X035060Y025089D01*
X035060Y025248D02*
X035020Y025248D01*
X035020Y025406D02*
X035060Y025406D01*
X035060Y025565D02*
X034962Y025565D01*
X035060Y025723D02*
X034836Y025723D01*
X034143Y025723D02*
X033610Y025723D01*
X037135Y023821D02*
X029263Y023821D01*
X024842Y023187D02*
X022205Y023187D01*
X022306Y023029D02*
X024736Y023029D01*
X024686Y022870D02*
X022348Y022870D01*
X022353Y022712D02*
X024686Y022712D01*
X024686Y022553D02*
X022353Y022553D01*
X022353Y022236D02*
X024686Y022236D01*
X024686Y022078D02*
X022353Y022078D01*
X022353Y021919D02*
X024686Y021919D01*
X024724Y021761D02*
X022316Y021761D01*
X022228Y021602D02*
X024813Y021602D01*
X025024Y021444D02*
X022040Y021444D01*
X021817Y021444D02*
X021702Y021444D01*
X021702Y021375D02*
X021702Y022322D01*
X021166Y022322D01*
X021166Y021920D01*
X021181Y021828D01*
X021210Y021739D01*
X021252Y021656D01*
X021307Y021580D01*
X021373Y021514D01*
X021449Y021459D01*
X021532Y021417D01*
X021621Y021388D01*
X021702Y021375D01*
X021702Y021602D02*
X021817Y021602D01*
X021817Y021761D02*
X021702Y021761D01*
X021702Y021919D02*
X021817Y021919D01*
X021817Y022078D02*
X021702Y022078D01*
X021702Y022236D02*
X021817Y022236D01*
X021817Y022395D02*
X024686Y022395D01*
X024879Y020790D02*
X024637Y020690D01*
X013079Y020690D01*
X012744Y020551D01*
X012488Y020295D01*
X011888Y019695D01*
X011750Y019361D01*
X011750Y018357D01*
X011083Y017690D01*
X009279Y017690D01*
X008944Y017551D01*
X008833Y017440D01*
X008828Y017440D01*
X008586Y017340D01*
X008400Y017154D01*
X008350Y017032D01*
X008350Y017790D01*
X009977Y017790D01*
X010194Y017880D01*
X010894Y018580D01*
X011060Y018746D01*
X011127Y018908D02*
X011750Y018908D01*
X011750Y019066D02*
X011150Y019066D01*
X011150Y019225D02*
X011750Y019225D01*
X011759Y019383D02*
X011150Y019383D01*
X011150Y019542D02*
X011824Y019542D01*
X011893Y019700D02*
X011150Y019700D01*
X011150Y019859D02*
X012051Y019859D01*
X012210Y020017D02*
X011150Y020017D01*
X011150Y020176D02*
X012368Y020176D01*
X012488Y020295D02*
X012488Y020295D01*
X012527Y020334D02*
X011150Y020334D01*
X011150Y020493D02*
X012685Y020493D01*
X012984Y020651D02*
X011150Y020651D01*
X011647Y021444D02*
X014024Y021444D01*
X013813Y021602D02*
X011771Y021602D01*
X011833Y021761D02*
X013724Y021761D01*
X013686Y021919D02*
X011833Y021919D01*
X011833Y022078D02*
X013686Y022078D01*
X013686Y022236D02*
X011850Y022236D01*
X011850Y022395D02*
X013686Y022395D01*
X013686Y022553D02*
X011833Y022553D01*
X011833Y022712D02*
X013686Y022712D01*
X013686Y022870D02*
X011807Y022870D01*
X011735Y023029D02*
X013736Y023029D01*
X013842Y023187D02*
X011566Y023187D01*
X010953Y023187D02*
X009590Y023187D01*
X009571Y023201D02*
X009646Y023146D01*
X009712Y023080D01*
X009767Y023004D01*
X009809Y022921D01*
X009838Y022832D01*
X009853Y022740D01*
X009853Y022338D01*
X009317Y022338D01*
X009202Y022338D01*
X009202Y023285D01*
X009121Y023272D01*
X009032Y023243D01*
X008949Y023201D01*
X008873Y023146D01*
X008807Y023080D01*
X008752Y023004D01*
X008710Y022921D01*
X008681Y022832D01*
X008666Y022740D01*
X008666Y022338D01*
X009202Y022338D01*
X009202Y022222D01*
X009317Y022222D01*
X009317Y021275D01*
X009398Y021288D01*
X009487Y021317D01*
X009571Y021359D01*
X009646Y021414D01*
X009712Y021480D01*
X009767Y021556D01*
X009809Y021639D01*
X009838Y021728D01*
X009853Y021820D01*
X009853Y022222D01*
X009317Y022222D01*
X009317Y022338D01*
X009317Y023285D01*
X009398Y023272D01*
X009487Y023243D01*
X009571Y023201D01*
X009749Y023029D02*
X010784Y023029D01*
X010712Y022870D02*
X009826Y022870D01*
X009853Y022712D02*
X010686Y022712D01*
X010686Y022553D02*
X009853Y022553D01*
X009853Y022395D02*
X010540Y022395D01*
X010381Y022236D02*
X009317Y022236D01*
X009202Y022236D02*
X003240Y022236D01*
X003240Y022078D02*
X008666Y022078D01*
X008666Y022222D02*
X008666Y021820D01*
X008681Y021728D01*
X008710Y021639D01*
X008752Y021556D01*
X008807Y021480D01*
X008873Y021414D01*
X008949Y021359D01*
X009032Y021317D01*
X009121Y021288D01*
X009202Y021275D01*
X009202Y022222D01*
X008666Y022222D01*
X008666Y022395D02*
X003240Y022395D01*
X003240Y022553D02*
X008666Y022553D01*
X008666Y022712D02*
X003240Y022712D01*
X003240Y022870D02*
X008693Y022870D01*
X008770Y023029D02*
X003240Y023029D01*
X003240Y023187D02*
X008929Y023187D01*
X009202Y023187D02*
X009317Y023187D01*
X009317Y023029D02*
X009202Y023029D01*
X009202Y022870D02*
X009317Y022870D01*
X009317Y022712D02*
X009202Y022712D01*
X009202Y022553D02*
X009317Y022553D01*
X009317Y022395D02*
X009202Y022395D01*
X009202Y022078D02*
X009317Y022078D01*
X009317Y021919D02*
X009202Y021919D01*
X009202Y021761D02*
X009317Y021761D01*
X009317Y021602D02*
X009202Y021602D01*
X009202Y021444D02*
X009317Y021444D01*
X009317Y021285D02*
X009202Y021285D01*
X009138Y021285D02*
X008389Y021285D01*
X008547Y021127D02*
X009970Y021127D01*
X009970Y021285D02*
X009381Y021285D01*
X009676Y021444D02*
X009970Y021444D01*
X009970Y021602D02*
X009791Y021602D01*
X009843Y021761D02*
X009996Y021761D01*
X010064Y021919D02*
X009853Y021919D01*
X009853Y022078D02*
X010223Y022078D01*
X008843Y021444D02*
X008230Y021444D01*
X008072Y021602D02*
X008728Y021602D01*
X008676Y021761D02*
X007913Y021761D01*
X007860Y021814D02*
X007694Y021980D01*
X007477Y022070D01*
X006142Y022070D01*
X006102Y022053D01*
X005732Y022053D01*
X005521Y021966D01*
X005360Y021805D01*
X005273Y021594D01*
X005273Y021366D01*
X005360Y021155D01*
X005521Y020994D01*
X005732Y020907D01*
X006102Y020907D01*
X006142Y020890D01*
X007115Y020890D01*
X008389Y019617D01*
X008459Y019446D01*
X008625Y019280D01*
X008842Y019190D01*
X009077Y019190D01*
X009294Y019280D01*
X009460Y019446D01*
X009550Y019663D01*
X009550Y019997D01*
X009460Y020214D01*
X007860Y021814D01*
X007755Y021919D02*
X008666Y021919D01*
X008706Y020968D02*
X009970Y020968D01*
X009970Y020810D02*
X008864Y020810D01*
X009023Y020651D02*
X009970Y020651D01*
X009970Y020493D02*
X009181Y020493D01*
X009340Y020334D02*
X009970Y020334D01*
X009970Y020176D02*
X009476Y020176D01*
X009541Y020017D02*
X009970Y020017D01*
X009970Y019859D02*
X009550Y019859D01*
X009550Y019700D02*
X009970Y019700D01*
X009970Y019542D02*
X009499Y019542D01*
X009397Y019383D02*
X009970Y019383D01*
X009870Y019225D02*
X009160Y019225D01*
X008759Y019225D02*
X007188Y019225D01*
X007246Y019383D02*
X008522Y019383D01*
X008420Y019542D02*
X007246Y019542D01*
X007202Y019700D02*
X008305Y019700D01*
X008147Y019859D02*
X007105Y019859D01*
X006875Y020017D02*
X007988Y020017D01*
X007830Y020176D02*
X003240Y020176D01*
X003240Y020334D02*
X007671Y020334D01*
X007513Y020493D02*
X003240Y020493D01*
X003240Y020651D02*
X007354Y020651D01*
X007196Y020810D02*
X003240Y020810D01*
X003240Y020968D02*
X005584Y020968D01*
X005389Y021127D02*
X003240Y021127D01*
X003240Y021285D02*
X005306Y021285D01*
X005273Y021444D02*
X003240Y021444D01*
X003240Y021602D02*
X005276Y021602D01*
X005342Y021761D02*
X003240Y021761D01*
X003240Y021919D02*
X005474Y021919D01*
X004162Y023663D02*
X003240Y023663D01*
X003240Y023821D02*
X003920Y023821D01*
X003762Y023980D02*
X003240Y023980D01*
X003240Y024138D02*
X003668Y024138D01*
X003592Y024297D02*
X003240Y024297D01*
X003240Y024455D02*
X003550Y024455D01*
X003530Y024614D02*
X003240Y024614D01*
X003240Y024772D02*
X003530Y024772D01*
X003557Y024931D02*
X003240Y024931D01*
X003240Y025089D02*
X003599Y025089D01*
X003682Y025248D02*
X003240Y025248D01*
X003240Y025406D02*
X003787Y025406D01*
X003946Y025565D02*
X003240Y025565D01*
X003240Y025723D02*
X004206Y025723D01*
X003240Y020017D02*
X005644Y020017D01*
X005414Y019859D02*
X003240Y019859D01*
X003240Y019700D02*
X005317Y019700D01*
X005273Y019542D02*
X003240Y019542D01*
X003240Y019383D02*
X005273Y019383D01*
X005331Y019225D02*
X003240Y019225D01*
X003240Y019066D02*
X005449Y019066D01*
X005670Y018908D02*
X003240Y018908D01*
X003240Y018749D02*
X005670Y018749D01*
X005670Y018591D02*
X003240Y018591D01*
X003240Y018432D02*
X005670Y018432D01*
X005670Y018274D02*
X003240Y018274D01*
X003240Y018115D02*
X005670Y018115D01*
X005670Y017957D02*
X003240Y017957D01*
X003240Y017798D02*
X005670Y017798D01*
X005670Y017640D02*
X003240Y017640D01*
X003240Y017481D02*
X005670Y017481D01*
X005670Y017323D02*
X003240Y017323D01*
X003240Y017164D02*
X005670Y017164D01*
X005670Y017006D02*
X003240Y017006D01*
X003240Y016847D02*
X005670Y016847D01*
X005670Y016689D02*
X003240Y016689D01*
X003240Y016530D02*
X005670Y016530D01*
X005427Y016372D02*
X003240Y016372D01*
X003240Y016213D02*
X005322Y016213D01*
X005273Y016055D02*
X003240Y016055D01*
X003240Y015896D02*
X005273Y015896D01*
X005326Y015738D02*
X003240Y015738D01*
X003240Y015579D02*
X005436Y015579D01*
X005698Y015421D02*
X003240Y015421D01*
X003240Y015262D02*
X007170Y015262D01*
X007170Y015104D02*
X003240Y015104D01*
X003240Y014945D02*
X007170Y014945D01*
X007170Y014787D02*
X003240Y014787D01*
X003240Y014628D02*
X007073Y014628D01*
X007170Y015421D02*
X006821Y015421D01*
X007083Y015579D02*
X007170Y015579D01*
X007170Y016372D02*
X007092Y016372D01*
X007170Y016530D02*
X006850Y016530D01*
X006850Y016689D02*
X007170Y016689D01*
X007170Y016847D02*
X006850Y016847D01*
X006850Y017006D02*
X007170Y017006D01*
X007170Y017164D02*
X006850Y017164D01*
X006850Y017323D02*
X007170Y017323D01*
X007170Y017481D02*
X006850Y017481D01*
X006850Y017640D02*
X007170Y017640D01*
X007170Y017798D02*
X006850Y017798D01*
X006850Y017957D02*
X007170Y017957D01*
X007170Y018115D02*
X006850Y018115D01*
X006850Y018274D02*
X007201Y018274D01*
X007277Y018432D02*
X006850Y018432D01*
X006850Y018591D02*
X007436Y018591D01*
X007594Y018749D02*
X006850Y018749D01*
X006850Y018908D02*
X007791Y018908D01*
X007070Y019066D02*
X009711Y019066D01*
X010746Y018432D02*
X011750Y018432D01*
X011750Y018591D02*
X010904Y018591D01*
X010587Y018274D02*
X011666Y018274D01*
X011508Y018115D02*
X010429Y018115D01*
X010270Y017957D02*
X011349Y017957D01*
X011191Y017798D02*
X009996Y017798D01*
X009157Y017640D02*
X008350Y017640D01*
X008350Y017481D02*
X008874Y017481D01*
X008569Y017323D02*
X008350Y017323D01*
X008350Y017164D02*
X008410Y017164D01*
X008435Y016372D02*
X008350Y016372D01*
X008350Y016213D02*
X008604Y016213D01*
X008350Y016055D02*
X008898Y016055D01*
X009027Y014945D02*
X008350Y014945D01*
X008350Y014787D02*
X009000Y014787D01*
X009000Y014628D02*
X008350Y014628D01*
X008350Y014470D02*
X009000Y014470D01*
X009000Y014311D02*
X008328Y014311D01*
X008262Y014153D02*
X009000Y014153D01*
X009000Y013994D02*
X008108Y013994D01*
X007949Y013836D02*
X009006Y013836D01*
X009134Y013677D02*
X007791Y013677D01*
X007632Y013519D02*
X008976Y013519D01*
X008817Y013360D02*
X003240Y013360D01*
X003240Y013202D02*
X008570Y013202D01*
X008448Y013043D02*
X003240Y013043D01*
X003240Y012885D02*
X008368Y012885D01*
X008320Y012726D02*
X003240Y012726D01*
X003240Y012568D02*
X008330Y012568D01*
X008408Y012409D02*
X003240Y012409D01*
X003240Y012251D02*
X008647Y012251D01*
X005497Y013519D02*
X003240Y013519D01*
X003240Y013677D02*
X005351Y013677D01*
X005285Y013836D02*
X003240Y013836D01*
X003240Y013994D02*
X005273Y013994D01*
X005297Y014153D02*
X003240Y014153D01*
X003240Y014311D02*
X005366Y014311D01*
X005530Y014470D02*
X003240Y014470D01*
X003240Y007971D02*
X006484Y007971D01*
X006139Y007813D02*
X003240Y007813D01*
X003240Y007654D02*
X006020Y007654D01*
X005964Y007496D02*
X003240Y007496D01*
X003240Y003533D02*
X004014Y003533D01*
X003856Y003375D02*
X003240Y003375D01*
X003240Y003216D02*
X003764Y003216D01*
X003691Y003058D02*
X003240Y003058D01*
X003240Y002899D02*
X003648Y002899D01*
X003630Y002741D02*
X003240Y002741D01*
X003240Y002582D02*
X003630Y002582D01*
X003658Y002424D02*
X003240Y002424D01*
X003240Y002265D02*
X003701Y002265D01*
X003786Y002107D02*
X003240Y002107D01*
X003240Y001948D02*
X003893Y001948D01*
X004052Y001790D02*
X003240Y001790D01*
X003240Y000680D02*
X032280Y000680D01*
X032280Y000839D02*
X031939Y000839D01*
X032098Y000997D02*
X032280Y000997D01*
X024448Y004326D02*
X024299Y004326D01*
X024307Y004333D02*
X024330Y004374D01*
X024343Y004420D01*
X024343Y004680D01*
X024343Y004940D01*
X024330Y004986D01*
X024307Y005027D01*
X024273Y005060D01*
X024232Y005084D01*
X024186Y005096D01*
X024005Y005096D01*
X023824Y005096D01*
X023778Y005084D01*
X023737Y005060D01*
X023704Y005027D01*
X023680Y004986D01*
X023668Y004940D01*
X023668Y004680D01*
X024005Y004680D01*
X024005Y004680D01*
X024005Y005096D01*
X024005Y004680D01*
X024005Y004680D01*
X024005Y004680D01*
X024005Y004264D01*
X024186Y004264D01*
X024232Y004276D01*
X024273Y004300D01*
X024307Y004333D01*
X024343Y004484D02*
X024396Y004484D01*
X024396Y004643D02*
X024343Y004643D01*
X024343Y004680D02*
X024005Y004680D01*
X024343Y004680D01*
X024343Y004801D02*
X024396Y004801D01*
X024396Y004960D02*
X024337Y004960D01*
X024005Y004960D02*
X024005Y004960D01*
X024005Y004801D02*
X024005Y004801D01*
X024005Y004680D02*
X024005Y004680D01*
X024005Y004643D02*
X024005Y004643D01*
X024005Y004484D02*
X024005Y004484D01*
X024005Y004326D02*
X024005Y004326D01*
X023668Y004643D02*
X022462Y004643D01*
X022498Y004801D02*
X023668Y004801D01*
X023673Y004960D02*
X022461Y004960D01*
X022883Y006228D02*
X022920Y006228D01*
X023906Y006228D02*
X024002Y006228D01*
X024002Y006386D02*
X023906Y006386D01*
X023906Y006545D02*
X024002Y006545D01*
X024002Y006703D02*
X023906Y006703D01*
X023906Y006862D02*
X024002Y006862D01*
X024002Y007020D02*
X023906Y007020D01*
X023436Y007337D02*
X022003Y007337D01*
X022013Y007813D02*
X023466Y007813D01*
X024206Y002424D02*
X022642Y002424D01*
X022420Y002424D02*
X022380Y002424D01*
X022380Y002265D02*
X022420Y002265D01*
X022420Y002107D02*
X022380Y002107D01*
X022836Y002265D02*
X023085Y002265D01*
X022940Y002107D02*
X022920Y002107D01*
X022908Y001631D02*
X022862Y001631D01*
X023007Y001473D02*
X022706Y001473D01*
X023792Y001473D02*
X024119Y001473D01*
X023950Y001631D02*
X023891Y001631D01*
X023899Y002107D02*
X023859Y002107D01*
X023985Y002265D02*
X023714Y002265D01*
X025575Y020651D02*
X025241Y020790D01*
X024879Y020790D01*
X021817Y022553D02*
X021702Y022553D01*
X021702Y022395D02*
X020333Y022395D01*
X020333Y022553D02*
X021166Y022553D01*
X021166Y022712D02*
X020333Y022712D01*
X020333Y022870D02*
X021171Y022870D01*
X021213Y023029D02*
X020283Y023029D01*
X020177Y023187D02*
X021314Y023187D01*
X021702Y023187D02*
X021817Y023187D01*
X021817Y023029D02*
X021702Y023029D01*
X021702Y022870D02*
X021817Y022870D01*
X021817Y022712D02*
X021702Y022712D01*
X021166Y022236D02*
X020333Y022236D01*
X020333Y022078D02*
X021166Y022078D01*
X021166Y021919D02*
X020333Y021919D01*
X020295Y021761D02*
X021203Y021761D01*
X021291Y021602D02*
X020206Y021602D01*
X019995Y021444D02*
X021479Y021444D01*
X019524Y021444D02*
X016540Y021444D01*
X016317Y021444D02*
X016202Y021444D01*
X016202Y021375D02*
X016202Y022322D01*
X015666Y022322D01*
X015666Y021920D01*
X015681Y021828D01*
X015710Y021739D01*
X015752Y021656D01*
X015807Y021580D01*
X015873Y021514D01*
X015949Y021459D01*
X016032Y021417D01*
X016121Y021388D01*
X016202Y021375D01*
X016202Y021602D02*
X016317Y021602D01*
X016317Y021761D02*
X016202Y021761D01*
X016202Y021919D02*
X016317Y021919D01*
X016317Y022078D02*
X016202Y022078D01*
X016202Y022236D02*
X016317Y022236D01*
X016317Y022395D02*
X019186Y022395D01*
X019186Y022553D02*
X016853Y022553D01*
X016853Y022712D02*
X019186Y022712D01*
X019186Y022870D02*
X016848Y022870D01*
X016806Y023029D02*
X019236Y023029D01*
X019342Y023187D02*
X016705Y023187D01*
X016317Y023187D02*
X016202Y023187D01*
X016202Y023029D02*
X016317Y023029D01*
X016317Y022870D02*
X016202Y022870D01*
X016202Y022712D02*
X016317Y022712D01*
X016317Y022553D02*
X016202Y022553D01*
X016202Y022395D02*
X014833Y022395D01*
X014833Y022553D02*
X015666Y022553D01*
X015666Y022712D02*
X014833Y022712D01*
X014833Y022870D02*
X015671Y022870D01*
X015713Y023029D02*
X014783Y023029D01*
X014677Y023187D02*
X015814Y023187D01*
X015666Y022236D02*
X014833Y022236D01*
X014833Y022078D02*
X015666Y022078D01*
X015666Y021919D02*
X014833Y021919D01*
X014795Y021761D02*
X015703Y021761D01*
X015791Y021602D02*
X014706Y021602D01*
X014495Y021444D02*
X015979Y021444D01*
X016728Y021602D02*
X019313Y021602D01*
X019224Y021761D02*
X016816Y021761D01*
X016853Y021919D02*
X019186Y021919D01*
X019186Y022078D02*
X016853Y022078D01*
X016853Y022236D02*
X019186Y022236D01*
X037062Y022712D02*
X037208Y022712D01*
D25*
X035780Y023080D03*
X034580Y019680D03*
X034720Y019160D03*
X032440Y018220D03*
X031400Y017860D03*
X031360Y017040D03*
X032400Y015500D03*
X033040Y015500D03*
X035640Y014200D03*
X035240Y013060D03*
X032540Y013320D03*
X030480Y012780D03*
X028800Y013600D03*
X029320Y014480D03*
X029380Y015600D03*
X028960Y016200D03*
X028360Y016700D03*
X027680Y017960D03*
X029960Y019240D03*
X036200Y016140D03*
X036600Y010480D03*
X027180Y007140D03*
X026640Y008200D03*
X025640Y007900D03*
X025540Y008480D03*
X023860Y009480D03*
X023220Y008980D03*
X022460Y009300D03*
X021740Y007580D03*
X022380Y006120D03*
X022140Y004800D03*
X019820Y005260D03*
X018980Y006460D03*
X016960Y006800D03*
X017920Y009360D03*
X011880Y009100D03*
X007420Y011800D03*
X008840Y015480D03*
X015700Y017120D03*
X018180Y015140D03*
X022140Y016380D03*
X025640Y009980D03*
X023720Y007560D03*
X026920Y002760D03*
X028130Y002530D03*
X029020Y002300D03*
X029990Y002350D03*
X018940Y001780D03*
X014560Y003380D03*
X009220Y001740D03*
X007620Y001740D03*
X028760Y025320D03*
D26*
X033900Y020020D03*
X034040Y017100D03*
X026120Y007120D03*
X027960Y005740D03*
X027740Y005280D03*
X028720Y004750D03*
X029310Y005020D03*
X031120Y004980D03*
X028840Y003520D03*
X027640Y003740D03*
X026120Y005380D03*
X025540Y005260D03*
X021590Y003730D03*
X020900Y001660D03*
X021480Y001320D03*
X032510Y001300D03*
D27*
X032270Y001540D01*
X031430Y001540D01*
X031110Y001860D01*
X031110Y004260D01*
X030700Y004670D01*
X028800Y004670D01*
X028720Y004750D01*
X028680Y004790D01*
X025580Y004980D02*
X025580Y003970D01*
X025340Y003730D01*
X021590Y003730D01*
X021480Y001320D02*
X021780Y001020D01*
X031810Y001020D01*
X032090Y001300D01*
X032510Y001300D01*
X025580Y004980D02*
X025500Y005060D01*
X017645Y007660D02*
X017525Y007720D01*
X017645Y007660D02*
X017240Y007660D01*
X016960Y007380D01*
X016960Y006800D01*
X033140Y017540D02*
X033125Y017626D01*
X036740Y021706D02*
X037754Y021706D01*
X037860Y021600D01*
X037774Y022414D02*
X036740Y022414D01*
X037774Y022414D02*
X037960Y022600D01*
D28*
X038580Y022600D01*
X038740Y022440D01*
X038740Y021300D01*
X038560Y021120D01*
X036200Y021120D01*
X035900Y020820D01*
X035900Y017500D01*
X035520Y017120D01*
X034120Y017120D01*
X034040Y017100D01*
X033740Y017460D02*
X033640Y017360D01*
X033640Y010660D01*
X032980Y010000D01*
X028360Y010000D01*
X027340Y008980D01*
X023220Y008980D01*
X023860Y009480D02*
X024140Y009200D01*
X027260Y009200D01*
X028260Y010200D01*
X032900Y010200D01*
X033420Y010720D01*
X033420Y017540D01*
X033540Y017660D01*
X034020Y017660D01*
X034220Y017860D01*
X034220Y019560D01*
X034340Y019680D01*
X034580Y019680D01*
X034720Y019160D02*
X034620Y019060D01*
X034500Y019060D01*
X034420Y018980D01*
X034420Y017740D01*
X034140Y017460D01*
X033740Y017460D01*
X033105Y018220D02*
X033105Y021305D01*
X033540Y021740D01*
X036705Y021740D01*
X036740Y021706D01*
X031360Y017040D02*
X031360Y016680D01*
X031280Y016600D01*
X029360Y016600D01*
X028960Y016200D01*
X029380Y015600D02*
X029240Y015460D01*
X028980Y015460D01*
X028800Y015300D01*
X028800Y013600D01*
X029320Y014480D02*
X032860Y014480D01*
X032960Y014580D01*
X032960Y015420D01*
X033040Y015500D01*
X035640Y014200D02*
X035713Y014126D01*
X035713Y012460D01*
X036320Y012000D02*
X036440Y012120D01*
X036440Y012760D01*
X036740Y013060D01*
X038040Y013060D01*
X038180Y013200D01*
X038180Y013426D01*
X038193Y013560D01*
X038193Y014360D01*
X037820Y015020D02*
X037800Y015020D01*
X037800Y013640D01*
X037720Y013560D01*
X037406Y013560D01*
X037406Y014360D02*
X037100Y014360D01*
X036980Y014480D01*
X036980Y016100D01*
X037180Y016300D01*
X037950Y016300D01*
X037850Y015300D02*
X037850Y015050D01*
X037820Y015020D01*
X038250Y012480D02*
X038143Y012374D01*
X037100Y012374D01*
X036320Y012000D02*
X034940Y012000D01*
X034900Y012040D01*
X034900Y012220D01*
X034900Y012040D02*
X034900Y011960D01*
X034906Y011954D01*
X034906Y011520D01*
X034926Y011540D01*
X034926Y012460D01*
X035693Y011520D02*
X035693Y010700D01*
X035933Y010460D01*
X036580Y010460D01*
X036600Y010480D01*
X037100Y011586D02*
X038043Y011586D01*
X038150Y011480D01*
X034580Y004930D02*
X034580Y004860D01*
X034760Y004680D01*
X027740Y005280D02*
X027640Y005180D01*
X027640Y003740D01*
X026120Y005380D02*
X026120Y007120D01*
X025600Y007819D02*
X025602Y007839D01*
X025608Y007857D01*
X025617Y007875D01*
X025629Y007890D01*
X025629Y007889D02*
X025640Y007900D01*
X025600Y007819D02*
X025600Y005700D01*
X025569Y005669D01*
X025498Y005640D02*
X022380Y005640D01*
X022140Y005400D01*
X022140Y004800D01*
X024714Y004680D02*
X025360Y004680D01*
X025500Y004820D01*
X025500Y005060D01*
X025500Y005220D01*
X025540Y005260D01*
X025498Y005640D02*
X025518Y005642D01*
X025536Y005648D01*
X025554Y005657D01*
X025569Y005669D01*
X023720Y007560D02*
X021788Y007560D01*
X021775Y007561D01*
X021762Y007565D01*
X021750Y007571D01*
X021740Y007580D01*
X018180Y009620D02*
X017920Y009360D01*
X018180Y009620D02*
X018180Y015140D01*
D29*
X022870Y006611D02*
X022380Y006120D01*
X019601Y006120D01*
X019530Y006091D02*
X019240Y005800D01*
X019240Y003000D01*
X019240Y002121D01*
X019210Y002051D02*
X018940Y001780D01*
X019211Y002050D02*
X019223Y002065D01*
X019232Y002083D01*
X019238Y002101D01*
X019240Y002121D01*
X019530Y006091D02*
X019545Y006103D01*
X019563Y006112D01*
X019581Y006118D01*
X019601Y006120D01*
X022870Y006611D02*
X022885Y006623D01*
X022903Y006632D01*
X022921Y006638D01*
X022941Y006640D01*
X023285Y006640D01*
X029340Y002969D02*
X030356Y002969D01*
X030360Y002966D01*
X030360Y002860D01*
X030500Y002720D01*
X030500Y001650D01*
X030520Y001630D01*
D30*
X034580Y004930D02*
X035365Y004930D01*
X035680Y005245D01*
X035680Y005220D01*
X036100Y004800D01*
X037210Y004800D01*
X038330Y004680D01*
X035680Y005915D02*
X035680Y006180D01*
X035520Y006340D01*
X035640Y006460D01*
X035640Y007420D01*
X035900Y007680D01*
X038430Y007680D01*
X035520Y006340D02*
X035409Y006230D01*
X034580Y006230D01*
D31*
X028060Y012880D02*
X027626Y013314D01*
X027626Y014400D01*
X025693Y014400D02*
X025693Y013514D01*
X025060Y012880D01*
X022260Y012780D02*
X021926Y013114D01*
X021926Y014280D01*
X019993Y014280D02*
X019993Y013514D01*
X019260Y012780D01*
X017160Y012780D02*
X016626Y013314D01*
X016626Y014380D01*
X014693Y014380D02*
X014693Y013314D01*
X014160Y012780D01*
X011960Y012780D02*
X011526Y013214D01*
X011526Y014380D01*
X009593Y014380D02*
X009593Y013514D01*
X008960Y012880D01*
X008960Y012780D01*
X008960Y012880D02*
X008760Y012680D01*
X028360Y016700D02*
X028760Y017100D01*
X028760Y023940D01*
X029160Y024340D01*
X030100Y024340D01*
X030080Y024360D01*
X030080Y025390D01*
X030100Y024340D02*
X034240Y024340D01*
X034500Y024600D01*
X034500Y025310D01*
X034490Y025320D01*
D32*
X011260Y022280D02*
X010560Y021580D01*
X010560Y019080D01*
X009860Y018380D01*
X008060Y018380D01*
X007760Y018080D01*
X007760Y014480D01*
X007260Y013980D01*
X006260Y013980D01*
X006260Y015980D02*
X006260Y019480D01*
X006260Y021480D02*
X007360Y021480D01*
X008960Y019880D01*
X008960Y019780D01*
D33*
X008960Y016780D02*
X009460Y016780D01*
D34*
X011460Y016780D01*
X012660Y017980D01*
X012660Y019180D01*
X013260Y019780D01*
X014160Y019780D01*
X019260Y019780D01*
X024960Y019780D01*
X025060Y019880D01*
M02*
