G75*
%MOIN*%
%OFA0B0*%
%FSLAX24Y24*%
%IPPOS*%
%LPD*%
%AMOC8*
5,1,8,0,0,1.08239X$1,22.5*
%
%ADD10C,0.0100*%
D10*
X000500Y000180D02*
X000500Y039180D01*
X027600Y039180D01*
X027600Y038280D01*
X027602Y038241D01*
X027608Y038202D01*
X027617Y038164D01*
X027630Y038127D01*
X027647Y038091D01*
X027667Y038058D01*
X027691Y038026D01*
X027717Y037997D01*
X027746Y037971D01*
X027778Y037947D01*
X027811Y037927D01*
X027847Y037910D01*
X027884Y037897D01*
X027922Y037888D01*
X027961Y037882D01*
X028000Y037880D01*
X028039Y037882D01*
X028078Y037888D01*
X028116Y037897D01*
X028153Y037910D01*
X028189Y037927D01*
X028222Y037947D01*
X028254Y037971D01*
X028283Y037997D01*
X028309Y038026D01*
X028333Y038058D01*
X028353Y038091D01*
X028370Y038127D01*
X028383Y038164D01*
X028392Y038202D01*
X028398Y038241D01*
X028400Y038280D01*
X028400Y039180D01*
X031000Y039180D01*
X031000Y000180D01*
X028400Y000180D01*
X028400Y001180D01*
X028398Y001219D01*
X028392Y001258D01*
X028383Y001296D01*
X028370Y001333D01*
X028353Y001369D01*
X028333Y001402D01*
X028309Y001434D01*
X028283Y001463D01*
X028254Y001489D01*
X028222Y001513D01*
X028189Y001533D01*
X028153Y001550D01*
X028116Y001563D01*
X028078Y001572D01*
X028039Y001578D01*
X028000Y001580D01*
X027961Y001578D01*
X027922Y001572D01*
X027884Y001563D01*
X027847Y001550D01*
X027811Y001533D01*
X027778Y001513D01*
X027746Y001489D01*
X027717Y001463D01*
X027691Y001434D01*
X027667Y001402D01*
X027647Y001369D01*
X027630Y001333D01*
X027617Y001296D01*
X027608Y001258D01*
X027602Y001219D01*
X027600Y001180D01*
X027600Y000180D01*
X000500Y000180D01*
X015672Y016409D02*
X015908Y016409D01*
X015908Y016881D02*
X015672Y016881D01*
X015674Y017110D02*
X015808Y017110D01*
X015875Y017177D01*
X015875Y017243D01*
X015808Y017310D01*
X015674Y017310D01*
X015608Y017243D01*
X015608Y017177D01*
X015674Y017110D01*
X015674Y017310D02*
X015608Y017377D01*
X015608Y017444D01*
X015674Y017510D01*
X015808Y017510D01*
X015875Y017444D01*
X015875Y017377D01*
X015808Y017310D01*
X016068Y017177D02*
X016135Y017110D01*
X016268Y017110D01*
X016335Y017177D01*
X016335Y017444D01*
X016268Y017510D01*
X016135Y017510D01*
X016068Y017444D01*
X019300Y012717D02*
X019300Y012450D01*
X019300Y012583D02*
X019700Y012583D01*
X019567Y012450D01*
X019634Y012256D02*
X019367Y012256D01*
X019300Y012189D01*
X019300Y012056D01*
X019367Y011989D01*
X019634Y011989D01*
X019700Y012056D01*
X019700Y012189D01*
X019634Y012256D01*
X019433Y012123D02*
X019300Y012256D01*
X019285Y011695D02*
X019285Y010575D01*
X019805Y010575D01*
X019805Y011695D01*
X019285Y011695D01*
X018571Y011233D02*
X018571Y010997D01*
X018099Y010997D02*
X018099Y011233D01*
X017845Y011221D02*
X017845Y011355D01*
X017779Y011422D01*
X017712Y011422D01*
X017645Y011355D01*
X017578Y011422D01*
X017512Y011422D01*
X017445Y011355D01*
X017445Y011221D01*
X017512Y011155D01*
X017645Y011288D02*
X017645Y011355D01*
X017779Y011155D02*
X017845Y011221D01*
X017779Y010961D02*
X017645Y010961D01*
X017578Y010894D01*
X017578Y010694D01*
X017445Y010694D02*
X017845Y010694D01*
X017845Y010894D01*
X017779Y010961D01*
X017578Y010828D02*
X017445Y010961D01*
X017765Y009762D02*
X017765Y009495D01*
X017965Y009695D01*
X017565Y009695D01*
X017565Y009301D02*
X017698Y009168D01*
X017698Y009234D02*
X017698Y009034D01*
X017565Y009034D02*
X017965Y009034D01*
X017965Y009234D01*
X017899Y009301D01*
X017765Y009301D01*
X017698Y009234D01*
X018149Y009337D02*
X018149Y009573D01*
X018621Y009573D02*
X018621Y009337D01*
X019285Y008910D02*
X019285Y010030D01*
X019805Y010030D01*
X019805Y008910D01*
X019285Y008910D01*
X019380Y008712D02*
X019380Y008445D01*
X019647Y008712D01*
X019714Y008712D01*
X019780Y008646D01*
X019780Y008512D01*
X019714Y008445D01*
X019714Y008252D02*
X019447Y008252D01*
X019380Y008185D01*
X019380Y008052D01*
X019447Y007985D01*
X019714Y007985D01*
X019780Y008052D01*
X019780Y008185D01*
X019714Y008252D01*
X019513Y008118D02*
X019380Y008252D01*
X020673Y008590D02*
X020940Y008590D01*
X020807Y008590D02*
X020807Y008990D01*
X020940Y008857D01*
X021134Y008924D02*
X021134Y008790D01*
X021201Y008723D01*
X021401Y008723D01*
X021401Y008590D02*
X021401Y008990D01*
X021201Y008990D01*
X021134Y008924D01*
X021267Y008723D02*
X021134Y008590D01*
X021213Y009224D02*
X020977Y009224D01*
X020977Y009696D02*
X021213Y009696D01*
X022069Y009732D02*
X022069Y009968D01*
X022541Y009968D02*
X022541Y009732D01*
X022805Y009651D02*
X022938Y009517D01*
X022938Y009584D02*
X022938Y009384D01*
X022805Y009384D02*
X023205Y009384D01*
X023205Y009584D01*
X023139Y009651D01*
X023005Y009651D01*
X022938Y009584D01*
X022805Y009844D02*
X022805Y010111D01*
X022805Y009978D02*
X023205Y009978D01*
X023072Y009844D01*
X023005Y010305D02*
X022872Y010305D01*
X022805Y010371D01*
X022805Y010505D01*
X022872Y010571D01*
X022938Y010571D01*
X023005Y010505D01*
X023005Y010305D01*
X023139Y010438D01*
X023205Y010571D01*
X023567Y008867D02*
X023500Y008801D01*
X023500Y008667D01*
X023567Y008600D01*
X023700Y008734D02*
X023700Y008801D01*
X023633Y008867D01*
X023567Y008867D01*
X023700Y008801D02*
X023767Y008867D01*
X023834Y008867D01*
X023900Y008801D01*
X023900Y008667D01*
X023834Y008600D01*
X023834Y008407D02*
X023567Y008407D01*
X023500Y008340D01*
X023500Y008207D01*
X023567Y008140D01*
X023834Y008140D01*
X023900Y008207D01*
X023900Y008340D01*
X023834Y008407D01*
X023633Y008273D02*
X023500Y008407D01*
X023265Y008485D02*
X022145Y008485D01*
X022145Y007965D01*
X023265Y007965D01*
X023265Y008485D01*
X025125Y007405D02*
X025392Y007405D01*
X025258Y007405D02*
X025258Y007805D01*
X025392Y007672D01*
X025585Y007805D02*
X025719Y007805D01*
X025652Y007805D02*
X025652Y007472D01*
X025719Y007405D01*
X025785Y007405D01*
X025852Y007472D01*
X026046Y007472D02*
X026112Y007405D01*
X026246Y007405D01*
X026312Y007472D01*
X026246Y007605D02*
X026112Y007605D01*
X026046Y007538D01*
X026046Y007472D01*
X026246Y007605D02*
X026312Y007672D01*
X026312Y007739D01*
X026246Y007805D01*
X026112Y007805D01*
X026046Y007739D01*
X026204Y007175D02*
X026204Y006545D01*
X026203Y006545D02*
X026198Y006529D01*
X026190Y006513D01*
X026180Y006499D01*
X026168Y006487D01*
X026153Y006477D01*
X026137Y006470D01*
X026120Y006466D01*
X026103Y006465D01*
X026085Y006467D01*
X025535Y006467D02*
X025517Y006465D01*
X025500Y006466D01*
X025483Y006470D01*
X025467Y006477D01*
X025452Y006487D01*
X025440Y006499D01*
X025430Y006513D01*
X025422Y006529D01*
X025417Y006545D01*
X025416Y006545D02*
X025416Y007175D01*
X025417Y007175D02*
X025423Y007193D01*
X025432Y007211D01*
X025444Y007226D01*
X025460Y007238D01*
X025477Y007247D01*
X025496Y007253D01*
X025515Y007255D01*
X025535Y007253D01*
X026085Y007253D02*
X026105Y007255D01*
X026124Y007253D01*
X026143Y007247D01*
X026160Y007238D01*
X026176Y007226D01*
X026188Y007211D01*
X026197Y007193D01*
X026203Y007175D01*
X027715Y006246D02*
X027715Y006112D01*
X027782Y006045D01*
X027848Y006045D01*
X027915Y006112D01*
X027915Y006246D01*
X027848Y006312D01*
X027782Y006312D01*
X027715Y006246D01*
X027915Y006246D02*
X027982Y006312D01*
X028049Y006312D01*
X028115Y006246D01*
X028115Y006112D01*
X028049Y006045D01*
X027982Y006045D01*
X027915Y006112D01*
X027915Y005852D02*
X027848Y005785D01*
X027848Y005585D01*
X027715Y005585D02*
X028115Y005585D01*
X028115Y005785D01*
X028049Y005852D01*
X027915Y005852D01*
X027848Y005718D02*
X027715Y005852D01*
X028414Y005892D02*
X028414Y006128D01*
X028886Y006128D02*
X028886Y005892D01*
X021486Y011700D02*
X021486Y012100D01*
X021286Y012100D01*
X021219Y012034D01*
X021219Y011900D01*
X021286Y011833D01*
X021486Y011833D01*
X021352Y011833D02*
X021219Y011700D01*
X021025Y011700D02*
X020758Y011967D01*
X020758Y012034D01*
X020825Y012100D01*
X020959Y012100D01*
X021025Y012034D01*
X021025Y011700D02*
X020758Y011700D01*
X020907Y011376D02*
X021143Y011376D01*
X021143Y010904D02*
X020907Y010904D01*
X022742Y017025D02*
X022675Y017092D01*
X022675Y017225D01*
X022742Y017292D01*
X022742Y017485D02*
X022675Y017485D01*
X022742Y017485D02*
X023009Y017752D01*
X023075Y017752D01*
X023075Y017485D01*
X023009Y017292D02*
X023075Y017225D01*
X023075Y017092D01*
X023009Y017025D01*
X022742Y017025D01*
X022476Y017157D02*
X022476Y017393D01*
X022004Y017393D02*
X022004Y017157D01*
X023864Y017182D02*
X023864Y017418D01*
X024336Y017418D02*
X024336Y017182D01*
X024535Y017117D02*
X024535Y017250D01*
X024602Y017317D01*
X024602Y017510D02*
X024535Y017577D01*
X024535Y017711D01*
X024602Y017777D01*
X024668Y017777D01*
X024735Y017711D01*
X024735Y017510D01*
X024602Y017510D01*
X024735Y017510D02*
X024869Y017644D01*
X024935Y017777D01*
X024869Y017317D02*
X024935Y017250D01*
X024935Y017117D01*
X024869Y017050D01*
X024602Y017050D01*
X024535Y017117D01*
X025302Y024179D02*
X025235Y024246D01*
X025235Y024379D01*
X025302Y024446D01*
X025302Y024639D02*
X025235Y024706D01*
X025235Y024839D01*
X025302Y024906D01*
X025368Y024906D01*
X025435Y024839D01*
X025435Y024773D01*
X025435Y024839D02*
X025502Y024906D01*
X025569Y024906D01*
X025635Y024839D01*
X025635Y024706D01*
X025569Y024639D01*
X025569Y024446D02*
X025635Y024379D01*
X025635Y024246D01*
X025569Y024179D01*
X025302Y024179D01*
X024956Y024727D02*
X024956Y024963D01*
X025235Y025166D02*
X025235Y025300D01*
X025302Y025366D01*
X025569Y025366D01*
X025635Y025300D01*
X025635Y025166D01*
X025569Y025100D01*
X025502Y025100D01*
X025435Y025166D01*
X025435Y025366D01*
X025235Y025166D02*
X025302Y025100D01*
X026149Y024983D02*
X026149Y024747D01*
X026621Y024747D02*
X026621Y024983D01*
X026810Y024999D02*
X026810Y024866D01*
X026877Y024799D01*
X027010Y024933D02*
X027010Y024999D01*
X026943Y025066D01*
X026877Y025066D01*
X026810Y024999D01*
X027010Y024999D02*
X027077Y025066D01*
X027144Y025066D01*
X027210Y024999D01*
X027210Y024866D01*
X027144Y024799D01*
X027144Y024606D02*
X027210Y024539D01*
X027210Y024406D01*
X027144Y024339D01*
X026877Y024339D01*
X026810Y024406D01*
X026810Y024539D01*
X026877Y024606D01*
X026877Y025260D02*
X026810Y025260D01*
X026877Y025260D02*
X027144Y025526D01*
X027210Y025526D01*
X027210Y025260D01*
X029310Y025239D02*
X029710Y025239D01*
X029510Y025039D01*
X029510Y025306D01*
X029510Y025500D02*
X029510Y025766D01*
X029310Y025700D02*
X029710Y025700D01*
X029510Y025500D01*
X030075Y025623D02*
X030142Y025556D01*
X030075Y025623D02*
X030075Y025756D01*
X030142Y025823D01*
X030208Y025823D01*
X030275Y025756D01*
X030275Y025689D01*
X030275Y025756D02*
X030342Y025823D01*
X030409Y025823D01*
X030475Y025756D01*
X030475Y025623D01*
X030409Y025556D01*
X030275Y025362D02*
X030275Y025095D01*
X030475Y025296D01*
X030075Y025296D01*
X030075Y024902D02*
X030208Y024768D01*
X030208Y024835D02*
X030208Y024635D01*
X030075Y024635D02*
X030475Y024635D01*
X030475Y024835D01*
X030409Y024902D01*
X030275Y024902D01*
X030208Y024835D01*
X029710Y024779D02*
X029710Y024579D01*
X029310Y024579D01*
X029443Y024579D02*
X029443Y024779D01*
X029510Y024846D01*
X029644Y024846D01*
X029710Y024779D01*
X029443Y024712D02*
X029310Y024846D01*
X029314Y026417D02*
X029314Y026653D01*
X029786Y026653D02*
X029786Y026417D01*
X029969Y026482D02*
X029969Y026718D01*
X030441Y026718D02*
X030441Y026482D01*
X029622Y028838D02*
X024425Y028838D01*
X024425Y030767D01*
X024425Y031830D02*
X024425Y033011D01*
X024425Y034074D02*
X024425Y034350D01*
X029189Y034350D01*
X029779Y033720D02*
X029779Y030413D01*
X029782Y030375D01*
X029788Y030337D01*
X029798Y030300D01*
X029812Y030264D01*
X029828Y030229D01*
X029848Y030197D01*
X029871Y030166D01*
X029897Y030137D01*
X029926Y030111D01*
X029957Y030088D01*
X029989Y030068D01*
X030024Y030052D01*
X030060Y030038D01*
X030097Y030028D01*
X030135Y030022D01*
X030173Y030019D01*
X030205Y030020D01*
X030236Y030016D01*
X030267Y030009D01*
X030297Y029998D01*
X030325Y029984D01*
X030351Y029966D01*
X030375Y029945D01*
X030396Y029921D01*
X030414Y029895D01*
X030428Y029867D01*
X030439Y029837D01*
X030446Y029806D01*
X030450Y029775D01*
X030449Y029743D01*
X030449Y029744D02*
X030449Y029429D01*
X024825Y034847D02*
X024758Y034780D01*
X024625Y034780D01*
X024558Y034847D01*
X024558Y035180D01*
X024365Y035180D02*
X024098Y035180D01*
X024098Y035114D01*
X024365Y034847D01*
X024365Y034780D01*
X024825Y034847D02*
X024825Y035180D01*
X021298Y030240D02*
X021165Y030240D01*
X021098Y030174D01*
X020905Y030107D02*
X020771Y030240D01*
X020771Y029840D01*
X020638Y029840D02*
X020905Y029840D01*
X021098Y029907D02*
X021165Y029840D01*
X021298Y029840D01*
X021365Y029907D01*
X021365Y030174D01*
X021298Y030240D01*
X020444Y030174D02*
X020444Y030107D01*
X020377Y030040D01*
X020177Y030040D01*
X020177Y029907D02*
X020177Y030174D01*
X020244Y030240D01*
X020377Y030240D01*
X020444Y030174D01*
X020444Y029907D02*
X020377Y029840D01*
X020244Y029840D01*
X020177Y029907D01*
X019981Y030492D02*
X019981Y030728D01*
X019509Y030728D02*
X019509Y030492D01*
X019100Y030469D02*
X019100Y030336D01*
X019034Y030269D01*
X019034Y030076D02*
X019100Y030009D01*
X019100Y029876D01*
X019034Y029809D01*
X018767Y029809D01*
X018700Y029876D01*
X018700Y030009D01*
X018767Y030076D01*
X018700Y030269D02*
X018967Y030536D01*
X019034Y030536D01*
X019100Y030469D01*
X018900Y030730D02*
X018900Y030930D01*
X018833Y030996D01*
X018767Y030996D01*
X018700Y030930D01*
X018700Y030796D01*
X018767Y030730D01*
X018900Y030730D01*
X019034Y030863D01*
X019100Y030996D01*
X018700Y030536D02*
X018700Y030269D01*
X018466Y030382D02*
X018466Y030618D01*
X017994Y030618D02*
X017994Y030382D01*
X018557Y031754D02*
X018490Y031821D01*
X018490Y031954D01*
X018557Y032021D01*
X018490Y032214D02*
X018757Y032481D01*
X018824Y032481D01*
X018890Y032414D01*
X018890Y032281D01*
X018824Y032214D01*
X018824Y032021D02*
X018890Y031954D01*
X018890Y031821D01*
X018824Y031754D01*
X018557Y031754D01*
X018490Y032214D02*
X018490Y032481D01*
X018690Y032675D02*
X018690Y032941D01*
X018490Y032875D02*
X018890Y032875D01*
X018690Y032675D01*
X019114Y032443D02*
X019114Y032207D01*
X019586Y032207D02*
X019586Y032443D01*
X019580Y033330D02*
X019513Y033397D01*
X019580Y033330D02*
X019713Y033330D01*
X019780Y033397D01*
X019780Y033664D01*
X019713Y033730D01*
X019580Y033730D01*
X019513Y033664D01*
X019320Y033664D02*
X019253Y033730D01*
X019119Y033730D01*
X019053Y033664D01*
X019053Y033597D01*
X019320Y033330D01*
X019053Y033330D01*
X018859Y033397D02*
X018792Y033330D01*
X018659Y033330D01*
X018592Y033397D01*
X018592Y033463D01*
X018659Y033530D01*
X018726Y033530D01*
X018659Y033530D02*
X018592Y033597D01*
X018592Y033664D01*
X018659Y033730D01*
X018792Y033730D01*
X018859Y033664D01*
X020302Y033736D02*
X020538Y033736D01*
X020538Y033264D02*
X020302Y033264D01*
X019993Y029016D02*
X019757Y029016D01*
X019757Y028544D02*
X019993Y028544D01*
X020517Y028642D02*
X020584Y028575D01*
X020717Y028575D01*
X020784Y028642D01*
X020784Y028775D02*
X020651Y028842D01*
X020584Y028842D01*
X020517Y028775D01*
X020517Y028642D01*
X020784Y028775D02*
X020784Y028975D01*
X020517Y028975D01*
X020978Y028909D02*
X021044Y028975D01*
X021178Y028975D01*
X021245Y028909D01*
X021438Y028909D02*
X021505Y028975D01*
X021638Y028975D01*
X021705Y028909D01*
X021705Y028642D01*
X021638Y028575D01*
X021505Y028575D01*
X021438Y028642D01*
X021245Y028575D02*
X020978Y028842D01*
X020978Y028909D01*
X020978Y028575D02*
X021245Y028575D01*
X023129Y026729D02*
X023129Y026662D01*
X023195Y026595D01*
X023129Y026528D01*
X023129Y026462D01*
X023195Y026395D01*
X023329Y026395D01*
X023395Y026462D01*
X023262Y026595D02*
X023195Y026595D01*
X023129Y026729D02*
X023195Y026795D01*
X023329Y026795D01*
X023395Y026729D01*
X023589Y026729D02*
X023589Y026662D01*
X023656Y026595D01*
X023589Y026528D01*
X023589Y026462D01*
X023656Y026395D01*
X023789Y026395D01*
X023856Y026462D01*
X023722Y026595D02*
X023656Y026595D01*
X023589Y026729D02*
X023656Y026795D01*
X023789Y026795D01*
X023856Y026729D01*
X024049Y026729D02*
X024049Y026595D01*
X024116Y026528D01*
X024316Y026528D01*
X024316Y026395D02*
X024316Y026795D01*
X024116Y026795D01*
X024049Y026729D01*
X024183Y026528D02*
X024049Y026395D01*
X023783Y026216D02*
X023547Y026216D01*
X023547Y025744D02*
X023783Y025744D01*
X024484Y024963D02*
X024484Y024727D01*
X008995Y028009D02*
X008662Y028009D01*
X008595Y028076D01*
X008595Y028209D01*
X008662Y028276D01*
X008995Y028276D01*
X008862Y028469D02*
X008995Y028603D01*
X008595Y028603D01*
X008595Y028736D02*
X008595Y028469D01*
X008595Y028930D02*
X008595Y029196D01*
X008595Y029063D02*
X008995Y029063D01*
X008862Y028930D01*
X008345Y029210D02*
X008345Y027790D01*
X008068Y028110D02*
X008070Y028125D01*
X008076Y028138D01*
X008085Y028150D01*
X008096Y028159D01*
X008110Y028165D01*
X008125Y028167D01*
X008140Y028165D01*
X008153Y028159D01*
X008165Y028150D01*
X008174Y028139D01*
X008180Y028125D01*
X008182Y028110D01*
X008180Y028095D01*
X008174Y028082D01*
X008165Y028070D01*
X008154Y028061D01*
X008140Y028055D01*
X008125Y028053D01*
X008110Y028055D01*
X008097Y028061D01*
X008085Y028070D01*
X008076Y028081D01*
X008070Y028095D01*
X008068Y028110D01*
X006485Y027790D02*
X006485Y029210D01*
X007894Y030652D02*
X007894Y030888D01*
X008366Y030888D02*
X008366Y030652D01*
X008645Y030605D02*
X008645Y030472D01*
X008712Y030405D01*
X008979Y030405D01*
X009045Y030472D01*
X009045Y030605D01*
X008979Y030672D01*
X009045Y030865D02*
X008845Y030865D01*
X008912Y030999D01*
X008912Y031066D01*
X008845Y031132D01*
X008712Y031132D01*
X008645Y031066D01*
X008645Y030932D01*
X008712Y030865D01*
X008712Y030672D02*
X008645Y030605D01*
X009045Y030865D02*
X009045Y031132D01*
X009068Y020745D02*
X009135Y020679D01*
X009135Y020412D01*
X009068Y020345D01*
X008935Y020345D01*
X008868Y020412D01*
X008675Y020412D02*
X008608Y020345D01*
X008474Y020345D01*
X008408Y020412D01*
X008408Y020679D01*
X008474Y020745D01*
X008608Y020745D01*
X008675Y020679D01*
X008675Y020612D01*
X008608Y020545D01*
X008408Y020545D01*
X008707Y020086D02*
X008943Y020086D01*
X008943Y019614D02*
X008707Y019614D01*
X008868Y020679D02*
X008935Y020745D01*
X009068Y020745D01*
M02*
