G75*
%MOIN*%
%OFA0B0*%
%FSLAX24Y24*%
%IPPOS*%
%LPD*%
%AMOC8*
5,1,8,0,0,1.08239X$1,22.5*
%
%ADD10R,0.0631X0.0474*%
%ADD11R,0.0395X0.0552*%
%ADD12R,0.0552X0.0395*%
%ADD13R,0.0580X0.0330*%
%ADD14R,0.0631X0.0789*%
%ADD15R,0.0828X0.0631*%
%ADD16R,0.0671X0.0395*%
%ADD17R,0.0820X0.0820*%
%ADD18OC8,0.0820*%
%ADD19C,0.0820*%
%ADD20C,0.0680*%
%ADD21C,0.0900*%
%ADD22C,0.0700*%
%ADD23R,0.0474X0.0631*%
%ADD24R,0.1680X0.0680*%
%ADD25R,0.5080X0.0780*%
%ADD26R,0.0320X0.0950*%
%ADD27C,0.0476*%
%ADD28R,0.0476X0.0476*%
%ADD29C,0.0437*%
D10*
X019112Y009096D03*
X019112Y009844D03*
X019112Y010761D03*
X019112Y011509D03*
X019978Y011135D03*
X019978Y009470D03*
D11*
X020741Y009460D03*
X021449Y009460D03*
X021379Y011140D03*
X020671Y011140D03*
X016144Y016645D03*
X015436Y016645D03*
X009179Y019850D03*
X008471Y019850D03*
X019521Y028780D03*
X020229Y028780D03*
X023311Y025980D03*
X024019Y025980D03*
X020774Y033500D03*
X020066Y033500D03*
D12*
X019350Y032679D03*
X019350Y031971D03*
X019745Y030964D03*
X019745Y030256D03*
X018230Y030146D03*
X018230Y030854D03*
X024720Y025199D03*
X024720Y024491D03*
X026385Y024511D03*
X026385Y025219D03*
X029550Y026181D03*
X030205Y026246D03*
X030205Y026954D03*
X029550Y026889D03*
X024100Y017654D03*
X024100Y016946D03*
X022240Y016921D03*
X022240Y017629D03*
X018335Y011469D03*
X018335Y010761D03*
X018385Y009809D03*
X018385Y009101D03*
X022305Y009496D03*
X022305Y010204D03*
X028650Y006364D03*
X028650Y005656D03*
X008130Y030416D03*
X008130Y031124D03*
D13*
X025810Y007037D03*
X025810Y006683D03*
D14*
X024582Y031299D03*
X024582Y033543D03*
D15*
X029760Y034173D03*
X030153Y028996D03*
D16*
X028638Y030830D03*
X028480Y031263D03*
X028638Y031696D03*
X028716Y032130D03*
X028638Y032563D03*
X028716Y032996D03*
X028638Y033429D03*
X028638Y033862D03*
D17*
X021605Y027495D03*
D18*
X021605Y026495D03*
X021605Y025495D03*
X022605Y025495D03*
X022605Y026495D03*
X022605Y027495D03*
D19*
X018440Y029130D03*
X017440Y029130D03*
X016440Y029130D03*
X029875Y004240D03*
X029875Y003100D03*
D20*
X030070Y005460D02*
X029470Y005460D01*
X029570Y006460D02*
X030170Y006460D01*
X030070Y007460D02*
X029470Y007460D01*
X029570Y008460D02*
X030170Y008460D01*
X030070Y009460D02*
X029470Y009460D01*
X027115Y019445D02*
X026515Y019445D01*
X026415Y020445D02*
X027015Y020445D01*
X027115Y021445D02*
X026515Y021445D01*
X029095Y021220D02*
X029095Y021820D01*
X030095Y022220D02*
X030095Y022820D01*
X029095Y023220D02*
X029095Y023820D01*
D21*
X029021Y020118D03*
X029021Y017362D03*
D22*
X030005Y017756D03*
X030005Y019724D03*
D23*
X023079Y008658D03*
X022331Y008658D03*
X022705Y007792D03*
D24*
X029985Y014120D03*
X029985Y016120D03*
D25*
X003100Y016180D03*
X003100Y015180D03*
X003100Y014180D03*
X003100Y013180D03*
X003100Y012180D03*
X003100Y011180D03*
X003100Y010180D03*
X003100Y009180D03*
X003100Y008180D03*
X003100Y007180D03*
X003100Y006180D03*
X003100Y005180D03*
X003100Y004180D03*
X003100Y017180D03*
X003100Y018180D03*
X003100Y019180D03*
X003100Y020180D03*
X003100Y021180D03*
X003100Y022180D03*
X003100Y023180D03*
X003100Y024180D03*
X003100Y025180D03*
X003100Y026180D03*
X003100Y027180D03*
X003100Y028180D03*
X003100Y029180D03*
X003100Y030180D03*
X003100Y031180D03*
X003100Y032180D03*
X003100Y033180D03*
X003100Y034180D03*
X003100Y035180D03*
D26*
X006665Y029530D03*
X007165Y029530D03*
X007665Y029530D03*
X008165Y029530D03*
X008165Y027470D03*
X007665Y027470D03*
X007165Y027470D03*
X006665Y027470D03*
D27*
X001570Y003040D03*
X002595Y003010D03*
X003655Y003005D03*
X006390Y003630D03*
X007680Y003020D03*
X009005Y002745D03*
X011075Y003185D03*
X012370Y003145D03*
X011120Y005585D03*
X012245Y006150D03*
X012705Y007150D03*
X017190Y006450D03*
X019205Y003440D03*
X022770Y006600D03*
X020595Y010165D03*
X017520Y011930D03*
X019985Y015760D03*
X021505Y016695D03*
X021520Y017365D03*
X022115Y016310D03*
X022655Y016080D03*
X022400Y015235D03*
X023125Y015255D03*
X024530Y016465D03*
X023650Y018205D03*
X022170Y020955D03*
X019305Y018980D03*
X017095Y019010D03*
X016130Y019740D03*
X014995Y019850D03*
X014005Y020270D03*
X013135Y020625D03*
X012205Y022430D03*
X009075Y019010D03*
X007460Y020445D03*
X005995Y025975D03*
X009820Y027880D03*
X010280Y027420D03*
X010715Y027930D03*
X010280Y028395D03*
X010715Y028910D03*
X011185Y028375D03*
X011590Y027905D03*
X011150Y027390D03*
X012355Y027410D03*
X012895Y027935D03*
X012915Y028515D03*
X012340Y028185D03*
X012350Y028960D03*
X011590Y028920D03*
X009830Y028905D03*
X012410Y031990D03*
X013590Y028585D03*
X013575Y027990D03*
X013650Y027380D03*
X015505Y027880D03*
X017290Y030950D03*
X017160Y033265D03*
X018300Y033560D03*
X018570Y035690D03*
X020350Y031785D03*
X020380Y031255D03*
X021210Y030635D03*
X020910Y029395D03*
X019465Y029460D03*
X024350Y027965D03*
X019040Y022285D03*
X017660Y022155D03*
X012160Y015665D03*
X007505Y012060D03*
X006950Y012290D03*
X006995Y013625D03*
X006610Y005640D03*
X025020Y014520D03*
X028645Y012940D03*
X026610Y006320D03*
X027370Y004835D03*
X025240Y021145D03*
X014255Y036610D03*
X014580Y037145D03*
X006015Y033290D03*
X005205Y032145D03*
X004515Y033070D03*
X005995Y030980D03*
D28*
X029575Y016090D03*
X029565Y014030D03*
D29*
X028520Y014645D03*
X028280Y014165D03*
X027740Y014165D03*
X027200Y014165D03*
X026720Y014165D03*
X026720Y013625D03*
X025880Y013625D03*
X025880Y014165D03*
X025940Y014705D03*
X026300Y015065D03*
X026720Y015305D03*
X028520Y015425D03*
X029000Y011705D03*
X024440Y015965D03*
X024320Y018185D03*
X027870Y021690D03*
X027200Y023755D03*
X025740Y024775D03*
X025140Y025675D03*
X024540Y025865D03*
X024665Y026825D03*
X025315Y026810D03*
X026390Y025845D03*
X027300Y027420D03*
X028770Y026720D03*
X029540Y027605D03*
X030080Y027605D03*
X027910Y029005D03*
X027680Y030695D03*
X028040Y032215D03*
X026250Y033410D03*
X024440Y030600D03*
X023930Y029510D03*
X023540Y028715D03*
X022680Y028730D03*
X022710Y029540D03*
X021840Y029245D03*
X021950Y030800D03*
X022210Y031315D03*
X022610Y030795D03*
X021580Y032155D03*
X021470Y032885D03*
X020990Y032815D03*
X022145Y032505D03*
X021810Y033975D03*
X023710Y033990D03*
X020450Y030590D03*
X019700Y027995D03*
X020890Y027665D03*
X021110Y025995D03*
X021680Y024005D03*
X021240Y023515D03*
X020820Y023115D03*
X019505Y022740D03*
X018355Y022180D03*
X017275Y022700D03*
X016990Y022345D03*
X015645Y022750D03*
X013510Y022105D03*
X010900Y021395D03*
X007330Y024310D03*
X013370Y016810D03*
X011290Y014375D03*
X010870Y014135D03*
X010430Y013925D03*
X009935Y012845D03*
X009300Y015735D03*
X009310Y015745D03*
X016760Y016685D03*
X018530Y014635D03*
X018890Y014275D03*
X018590Y013925D03*
X019820Y020345D03*
X020180Y021025D03*
X020550Y020710D03*
X020520Y021705D03*
X024420Y023055D03*
X024380Y023555D03*
X024980Y023165D03*
X025340Y023505D03*
X023430Y027465D03*
X025550Y029200D03*
X026080Y029115D03*
X029990Y033290D03*
X015410Y032365D03*
X006020Y035185D03*
X005710Y037550D03*
X012850Y006515D03*
M02*
