%
M48
M72
T01C0.0197
T02C0.0236
T03C0.0315
T04C0.0400
T05C0.0472
%
T01
X9935Y12845
X10430Y13925
X10870Y14135
X11290Y14375
X9310Y15745
X9300Y15735
X13370Y16810
X16760Y16685
X18530Y14635
X18890Y14275
X18590Y13925
X19820Y20345
X20180Y21025
X20550Y20710
X20520Y21705
X19505Y22740
X18355Y22180
X17275Y22700
X16990Y22345
X15645Y22750
X13510Y22105
X10900Y21395
X7330Y24310
X15410Y32365
X19700Y27995
X20890Y27665
X21110Y25995
X21680Y24005
X21240Y23515
X20820Y23115
X24380Y23555
X24420Y23055
X24980Y23165
X25340Y23505
X25740Y24775
X25140Y25675
X24540Y25865
X24665Y26825
X25315Y26810
X26390Y25845
X27300Y27420
X28770Y26720
X29540Y27605
X30080Y27605
X27910Y29005
X27680Y30695
X28040Y32215
X26250Y33410
X24440Y30600
X23930Y29510
X23540Y28715
X22680Y28730
X22710Y29540
X21840Y29245
X21950Y30800
X22210Y31315
X22610Y30795
X21580Y32155
X21470Y32885
X20990Y32815
X22145Y32505
X21810Y33975
X23710Y33990
X20450Y30590
X23430Y27465
X25550Y29200
X26080Y29115
X29990Y33290
X27200Y23755
X27870Y21690
X24320Y18185
X24440Y15965
X25940Y14705
X26300Y15065
X26720Y15305
X26720Y14165
X26720Y13625
X27200Y14165
X27740Y14165
X28280Y14165
X28520Y14645
X28520Y15425
X25880Y14165
X25880Y13625
X29000Y11705
X12850Y6515
X6020Y35185
X5710Y37550
T02
X1570Y3040
X2595Y3010
X3655Y3005
X6390Y3630
X7680Y3020
X9005Y2745
X11075Y3185
X12370Y3145
X11120Y5585
X12245Y6150
X12705Y7150
X17190Y6450
X19205Y3440
X22770Y6600
X20595Y10165
X17520Y11930
X19985Y15760
X21505Y16695
X21520Y17365
X22115Y16310
X22655Y16080
X22400Y15235
X23125Y15255
X24530Y16465
X23650Y18205
X22170Y20955
X19305Y18980
X17095Y19010
X16130Y19740
X14995Y19850
X14005Y20270
X13135Y20625
X12205Y22430
X9075Y19010
X7460Y20445
X5995Y25975
X9820Y27880
X10280Y27420
X10715Y27930
X10280Y28395
X10715Y28910
X11185Y28375
X11590Y27905
X11150Y27390
X12355Y27410
X12895Y27935
X12915Y28515
X12340Y28185
X12350Y28960
X11590Y28920
X9830Y28905
X12410Y31990
X13590Y28585
X13575Y27990
X13650Y27380
X15505Y27880
X17290Y30950
X17160Y33265
X18300Y33560
X18570Y35690
X20350Y31785
X20380Y31255
X21210Y30635
X20910Y29395
X19465Y29460
X24350Y27965
X19040Y22285
X17660Y22155
X12160Y15665
X7505Y12060
X6950Y12290
X6995Y13625
X6610Y5640
X25020Y14520
X28645Y12940
X29565Y14030
X29575Y16090
X25240Y21145
X26610Y6320
X27370Y4835
X5995Y30980
X5205Y32145
X4515Y33070
X6015Y33290
X14255Y36610
X14580Y37145
T03
X30005Y19724
X30005Y17756
T04
X26815Y19445
X26715Y20445
X26815Y21445
X29095Y21520
X30095Y22520
X29095Y23520
X22605Y25495
X22605Y26495
X22605Y27495
X21605Y27495
X21605Y26495
X21605Y25495
X18440Y29130
X17440Y29130
X16440Y29130
X29770Y9460
X29870Y8460
X29770Y7460
X29870Y6460
X29770Y5460
X29875Y4240
X29875Y3100
T05
X29021Y17362
X29021Y20118
M30
