%
T01C0.021650
X9120Y11905
X11920Y12255
X14370Y13905
X13600Y16305
X17020Y11905
X19180Y12265
X19490Y12725
X21260Y10185
X21320Y9005
X18720Y8905
X14760Y8045
X14840Y6685
X11080Y4805
X10600Y5525
X10920Y7005
X6480Y16185
X23520Y15245
X20080Y7805
X23220Y10605
X20820Y12505
X20620Y13605
X21500Y15205
X19920Y15905
X19460Y15465
X16720Y16405
X14620Y16405
X12520Y13785
X12910Y13305
X12050Y13215
X13260Y11865
X14540Y11875
X11770Y11705
X10890Y9535
X11350Y8135
X13070Y7105
X16560Y8195
X14370Y3355
X13620Y3405
X12770Y3355
X12020Y3405
X8520Y7005
X8520Y8355
X4920Y8355
X4920Y7005
X35680Y34500
X36080Y34100
X35680Y33700
X36080Y33300
X35680Y32900
X36480Y32900
X36880Y33300
X36480Y33700
X36880Y34100
X36480Y34500
X37280Y34500
X37280Y33700
X37280Y32900
X38380Y33200
X38380Y32400
X39180Y32400
X39180Y33200
X39180Y34000
X39980Y34000
X39980Y33200
X39980Y32400
X40780Y32400
X40780Y33200
X40780Y34000
X41730Y32650
X42710Y31400
X43430Y28100
X42380Y27300
X39530Y28750
X37180Y29400
X34380Y26550
X33230Y24900
X31980Y23550
X32680Y28150
X32730Y28950
X33030Y29650
X31880Y29200
X37380Y25400
X38530Y23700
X38380Y34000
X37830Y37450
X36780Y37450
X44930Y35900
X48830Y28100
X33320Y11760
X34620Y10500
X34080Y9960
X32140Y13200
X35940Y13300
X40580Y15740
X41180Y15100
X42040Y17900
X41800Y18640
X41610Y22920
X41460Y24260
X41860Y24560
X42260Y24120
X42740Y24400
X40840Y24300
X39970Y24220
X39780Y25300
X39530Y25800
X42800Y26580
X44400Y25980
X47640Y26300
X48200Y25940
X48640Y25640
X49140Y25360
X49930Y24900
X50020Y23180
X49830Y22000
X49480Y21150
X48060Y22700
X46440Y22060
X52380Y24720
X54160Y22700
X50820Y29220
X49300Y33840
X49600Y34240
X49600Y35080
X49080Y35180
X48180Y36650
X50380Y36800
X48700Y33840
X48140Y33840
X45540Y31720
X52940Y15280
X53500Y14380
X31480Y22200
X31180Y36180
X31180Y37120
X9120Y32920
X11920Y33270
X14370Y34920
X13600Y37320
X17020Y32920
X19180Y33280
X19490Y33740
X21260Y31200
X21320Y30020
X18720Y29920
X14760Y29060
X14840Y27700
X11080Y25820
X10600Y26540
X10920Y28020
X6480Y37200
X23520Y36260
X20080Y28820
X23220Y31620
X20820Y33520
X20620Y34620
X21500Y36220
X19920Y36920
X19460Y36480
X16720Y37420
X14620Y37420
X12520Y34800
X12910Y34320
X12050Y34230
X13260Y32880
X14540Y32890
X11770Y32720
X10890Y30550
X11350Y29150
X13070Y28120
X16560Y29210
X14370Y24370
X13620Y24420
X12770Y24370
X12020Y24420
X8520Y28020
X8520Y29370
X4920Y29370
X4920Y28020
X14200Y44630
X13800Y44630
X13400Y44630
X13000Y44630
X13000Y45180
X14200Y45180
X14200Y46380
X14200Y46930
X13800Y46930
X13400Y46930
X13000Y46930
X13000Y46380
X11600Y44630
X11200Y44630
X10800Y44630
X10400Y44630
X10400Y45180
X11600Y45180
X11600Y46380
X11600Y46930
X11200Y46930
X10800Y46930
X10400Y46930
X10400Y46380
X14200Y48330
X13800Y48330
X13400Y48330
X13000Y48330
X13000Y48880
X14200Y48880
X14200Y50080
X14200Y50630
X13800Y50630
X13400Y50630
X13000Y50630
X13000Y50080
X9000Y44630
X8600Y44630
X8200Y44630
X7800Y44630
X7800Y45180
X9000Y45180
X9000Y46380
X9000Y46930
X8600Y46930
X8200Y46930
X7800Y46930
X7800Y46380
X11600Y48330
X11200Y48330
X10800Y48330
X10400Y48330
X10400Y48880
X11600Y48880
X11600Y50080
X11600Y50630
X11200Y50630
X10800Y50630
X10400Y50630
X10400Y50080
X6400Y44630
X6000Y44630
X5600Y44630
X5200Y44630
X5200Y45180
X6400Y45180
X6400Y46380
X6400Y46930
X6000Y46930
X5600Y46930
X5200Y46930
X5200Y46380
X9000Y48330
X8600Y48330
X8200Y48330
X7800Y48330
X7800Y48880
X9000Y48880
X9000Y50080
X9000Y50630
X8600Y50630
X8200Y50630
X7800Y50630
X7800Y50080
X6400Y48330
X6000Y48330
X5600Y48330
X5200Y48330
X5200Y48880
X6400Y48880
X6400Y50080
X6400Y50630
X6000Y50630
X5600Y50630
X5200Y50630
X5200Y50080
X3800Y44630
X3400Y44630
X3000Y44630
X2600Y44630
X2600Y45180
X3800Y45180
X3800Y46380
X3800Y46930
X3400Y46930
X3000Y46930
X2600Y46930
X2600Y46380
X3800Y48330
X3400Y48330
X3000Y48330
X2600Y48330
X2600Y48880
X3800Y48880
X3800Y50080
X3800Y50630
X3400Y50630
X3000Y50630
X2600Y50630
X2600Y50080
X14200Y52030
X13800Y52030
X13400Y52030
X13000Y52030
X13000Y52580
X14200Y52580
X14200Y53780
X14200Y54330
X13800Y54330
X13400Y54330
X13000Y54330
X13000Y53780
X11600Y52030
X11200Y52030
X10800Y52030
X10400Y52030
X10400Y52580
X11600Y52580
X11600Y53780
X11600Y54330
X11200Y54330
X10800Y54330
X10400Y54330
X10400Y53780
X14200Y55730
X13800Y55730
X13400Y55730
X13000Y55730
X13000Y56280
X14200Y56280
X14200Y57480
X14200Y58030
X13800Y58030
X13400Y58030
X13000Y58030
X13000Y57480
X9000Y52030
X8600Y52030
X8200Y52030
X7800Y52030
X7800Y52580
X9000Y52580
X9000Y53780
X9000Y54330
X8600Y54330
X8200Y54330
X7800Y54330
X7800Y53780
X11600Y55730
X11200Y55730
X10800Y55730
X10400Y55730
X10400Y56280
X11600Y56280
X11600Y57480
X11600Y58030
X11200Y58030
X10800Y58030
X10400Y58030
X10400Y57480
X6400Y52030
X6000Y52030
X5600Y52030
X5200Y52030
X5200Y52580
X6400Y52580
X6400Y53780
X6400Y54330
X6000Y54330
X5600Y54330
X5200Y54330
X5200Y53780
X9000Y55730
X8600Y55730
X8200Y55730
X7800Y55730
X7800Y56280
X9000Y56280
X9000Y57480
X9000Y58030
X8600Y58030
X8200Y58030
X7800Y58030
X7800Y57480
X6400Y55730
X6000Y55730
X5600Y55730
X5200Y55730
X5200Y56280
X6400Y56280
X6400Y57480
X6400Y58030
X6000Y58030
X5600Y58030
X5200Y58030
X5200Y57480
X3800Y52030
X3400Y52030
X3000Y52030
X2600Y52030
X2600Y52580
X3800Y52580
X3800Y53780
X3800Y54330
X3400Y54330
X3000Y54330
X2600Y54330
X2600Y53780
X3800Y55730
X3400Y55730
X3000Y55730
X2600Y55730
X2600Y56280
X3800Y56280
X3800Y57480
X3800Y58030
X3400Y58030
X3000Y58030
X2600Y58030
X2600Y57480
X27200Y44630
X26800Y44630
X26400Y44630
X26000Y44630
X26000Y45180
X27200Y45180
X27200Y46380
X27200Y46930
X26800Y46930
X26400Y46930
X26000Y46930
X26000Y46380
X24600Y44630
X24200Y44630
X23800Y44630
X23400Y44630
X23400Y45180
X24600Y45180
X24600Y46380
X24600Y46930
X24200Y46930
X23800Y46930
X23400Y46930
X23400Y46380
X27200Y48330
X26800Y48330
X26400Y48330
X26000Y48330
X26000Y48880
X27200Y48880
X27200Y50080
X27200Y50630
X26800Y50630
X26400Y50630
X26000Y50630
X26000Y50080
X22000Y44630
X21600Y44630
X21200Y44630
X20800Y44630
X20800Y45180
X22000Y45180
X22000Y46380
X22000Y46930
X21600Y46930
X21200Y46930
X20800Y46930
X20800Y46380
X24600Y48330
X24200Y48330
X23800Y48330
X23400Y48330
X23400Y48880
X24600Y48880
X24600Y50080
X24600Y50630
X24200Y50630
X23800Y50630
X23400Y50630
X23400Y50080
X19400Y44630
X19000Y44630
X18600Y44630
X18200Y44630
X18200Y45180
X19400Y45180
X19400Y46380
X19400Y46930
X19000Y46930
X18600Y46930
X18200Y46930
X18200Y46380
X22000Y48330
X21600Y48330
X21200Y48330
X20800Y48330
X20800Y48880
X22000Y48880
X22000Y50080
X22000Y50630
X21600Y50630
X21200Y50630
X20800Y50630
X20800Y50080
X19400Y48330
X19000Y48330
X18600Y48330
X18200Y48330
X18200Y48880
X19400Y48880
X19400Y50080
X19400Y50630
X19000Y50630
X18600Y50630
X18200Y50630
X18200Y50080
X16800Y44630
X16400Y44630
X16000Y44630
X15600Y44630
X15600Y45180
X16800Y45180
X16800Y46380
X16800Y46930
X16400Y46930
X16000Y46930
X15600Y46930
X15600Y46380
X16800Y48330
X16400Y48330
X16000Y48330
X15600Y48330
X15600Y48880
X16800Y48880
X16800Y50080
X16800Y50630
X16400Y50630
X16000Y50630
X15600Y50630
X15600Y50080
X27200Y52030
X26800Y52030
X26400Y52030
X26000Y52030
X26000Y52580
X27200Y52580
X27200Y53780
X27200Y54330
X26800Y54330
X26400Y54330
X26000Y54330
X26000Y53780
X24600Y52030
X24200Y52030
X23800Y52030
X23400Y52030
X23400Y52580
X24600Y52580
X24600Y53780
X24600Y54330
X24200Y54330
X23800Y54330
X23400Y54330
X23400Y53780
X27200Y55730
X26800Y55730
X26400Y55730
X26000Y55730
X26000Y56280
X27200Y56280
X27200Y57480
X27200Y58030
X26800Y58030
X26400Y58030
X26000Y58030
X26000Y57480
X22000Y52030
X21600Y52030
X21200Y52030
X20800Y52030
X20800Y52580
X22000Y52580
X22000Y53780
X22000Y54330
X21600Y54330
X21200Y54330
X20800Y54330
X20800Y53780
X24600Y55730
X24200Y55730
X23800Y55730
X23400Y55730
X23400Y56280
X24600Y56280
X24600Y57480
X24600Y58030
X24200Y58030
X23800Y58030
X23400Y58030
X23400Y57480
X19400Y52030
X19000Y52030
X18600Y52030
X18200Y52030
X18200Y52580
X19400Y52580
X19400Y53780
X19400Y54330
X19000Y54330
X18600Y54330
X18200Y54330
X18200Y53780
X22000Y55730
X21600Y55730
X21200Y55730
X20800Y55730
X20800Y56280
X22000Y56280
X22000Y57480
X22000Y58030
X21600Y58030
X21200Y58030
X20800Y58030
X20800Y57480
X19400Y55730
X19000Y55730
X18600Y55730
X18200Y55730
X18200Y56280
X19400Y56280
X19400Y57480
X19400Y58030
X19000Y58030
X18600Y58030
X18200Y58030
X18200Y57480
X16800Y52030
X16400Y52030
X16000Y52030
X15600Y52030
X15600Y52580
X16800Y52580
X16800Y53780
X16800Y54330
X16400Y54330
X16000Y54330
X15600Y54330
X15600Y53780
X16800Y55730
X16400Y55730
X16000Y55730
X15600Y55730
X15600Y56280
X16800Y56280
X16800Y57480
X16800Y58030
X16400Y58030
X16000Y58030
X15600Y58030
X15600Y57480
X14200Y59430
X13800Y59430
X13400Y59430
X13000Y59430
X13000Y59980
X14200Y59980
X14200Y61180
X14200Y61730
X13800Y61730
X13400Y61730
X13000Y61730
X13000Y61180
X11600Y59430
X11200Y59430
X10800Y59430
X10400Y59430
X10400Y59980
X11600Y59980
X11600Y61180
X11600Y61730
X11200Y61730
X10800Y61730
X10400Y61730
X10400Y61180
X14200Y63130
X13800Y63130
X13400Y63130
X13000Y63130
X13000Y63680
X14200Y63680
X14200Y64880
X14200Y65430
X13800Y65430
X13400Y65430
X13000Y65430
X13000Y64880
X9000Y59430
X8600Y59430
X8200Y59430
X7800Y59430
X7800Y59980
X9000Y59980
X9000Y61180
X9000Y61730
X8600Y61730
X8200Y61730
X7800Y61730
X7800Y61180
X11600Y63130
X11200Y63130
X10800Y63130
X10400Y63130
X10400Y63680
X11600Y63680
X11600Y64880
X11600Y65430
X11200Y65430
X10800Y65430
X10400Y65430
X10400Y64880
X6400Y59430
X6000Y59430
X5600Y59430
X5200Y59430
X5200Y59980
X6400Y59980
X6400Y61180
X6400Y61730
X6000Y61730
X5600Y61730
X5200Y61730
X5200Y61180
X9000Y63130
X8600Y63130
X8200Y63130
X7800Y63130
X7800Y63680
X9000Y63680
X9000Y64880
X9000Y65430
X8600Y65430
X8200Y65430
X7800Y65430
X7800Y64880
X6400Y63130
X6000Y63130
X5600Y63130
X5200Y63130
X5200Y63680
X6400Y63680
X6400Y64880
X6400Y65430
X6000Y65430
X5600Y65430
X5200Y65430
X5200Y64880
X3800Y59430
X3400Y59430
X3000Y59430
X2600Y59430
X2600Y59980
X3800Y59980
X3800Y61180
X3800Y61730
X3400Y61730
X3000Y61730
X2600Y61730
X2600Y61180
X3800Y63130
X3400Y63130
X3000Y63130
X2600Y63130
X2600Y63680
X3800Y63680
X3800Y64880
X3800Y65430
X3400Y65430
X3000Y65430
X2600Y65430
X2600Y64880
X27200Y59430
X26800Y59430
X26400Y59430
X26000Y59430
X26000Y59980
X27200Y59980
X27200Y61180
X27200Y61730
X26800Y61730
X26400Y61730
X26000Y61730
X26000Y61180
X24600Y59430
X24200Y59430
X23800Y59430
X23400Y59430
X23400Y59980
X24600Y59980
X24600Y61180
X24600Y61730
X24200Y61730
X23800Y61730
X23400Y61730
X23400Y61180
X27200Y63130
X26800Y63130
X26400Y63130
X26000Y63130
X26000Y63680
X27200Y63680
X27200Y64880
X27200Y65430
X26800Y65430
X26400Y65430
X26000Y65430
X26000Y64880
X22000Y59430
X21600Y59430
X21200Y59430
X20800Y59430
X20800Y59980
X22000Y59980
X22000Y61180
X22000Y61730
X21600Y61730
X21200Y61730
X20800Y61730
X20800Y61180
X24600Y63130
X24200Y63130
X23800Y63130
X23400Y63130
X23400Y63680
X24600Y63680
X24600Y64880
X24600Y65430
X24200Y65430
X23800Y65430
X23400Y65430
X23400Y64880
X19400Y59430
X19000Y59430
X18600Y59430
X18200Y59430
X18200Y59980
X19400Y59980
X19400Y61180
X19400Y61730
X19000Y61730
X18600Y61730
X18200Y61730
X18200Y61180
X22000Y63130
X21600Y63130
X21200Y63130
X20800Y63130
X20800Y63680
X22000Y63680
X22000Y64880
X22000Y65430
X21600Y65430
X21200Y65430
X20800Y65430
X20800Y64880
X19400Y63130
X19000Y63130
X18600Y63130
X18200Y63130
X18200Y63680
X19400Y63680
X19400Y64880
X19400Y65430
X19000Y65430
X18600Y65430
X18200Y65430
X18200Y64880
X16800Y59430
X16400Y59430
X16000Y59430
X15600Y59430
X15600Y59980
X16800Y59980
X16800Y61180
X16800Y61730
X16400Y61730
X16000Y61730
X15600Y61730
X15600Y61180
X16800Y63130
X16400Y63130
X16000Y63130
X15600Y63130
X15600Y63680
X16800Y63680
X16800Y64880
X16800Y65430
X16400Y65430
X16000Y65430
X15600Y65430
X15600Y64880
X14200Y66830
X13800Y66830
X13400Y66830
X13000Y66830
X13000Y67380
X14200Y67380
X14200Y68580
X14200Y69130
X13800Y69130
X13400Y69130
X13000Y69130
X13000Y68580
X11600Y66830
X11200Y66830
X10800Y66830
X10400Y66830
X10400Y67380
X11600Y67380
X11600Y68580
X11600Y69130
X11200Y69130
X10800Y69130
X10400Y69130
X10400Y68580
X14200Y70530
X13800Y70530
X13400Y70530
X13000Y70530
X13000Y71080
X14200Y71080
X14200Y72280
X14200Y72830
X13800Y72830
X13400Y72830
X13000Y72830
X13000Y72280
X9000Y66830
X8600Y66830
X8200Y66830
X7800Y66830
X7800Y67380
X9000Y67380
X9000Y68580
X9000Y69130
X8600Y69130
X8200Y69130
X7800Y69130
X7800Y68580
X11600Y70530
X11200Y70530
X10800Y70530
X10400Y70530
X10400Y71080
X11600Y71080
X11600Y72280
X11600Y72830
X11200Y72830
X10800Y72830
X10400Y72830
X10400Y72280
X6400Y66830
X6000Y66830
X5600Y66830
X5200Y66830
X5200Y67380
X6400Y67380
X6400Y68580
X6400Y69130
X6000Y69130
X5600Y69130
X5200Y69130
X5200Y68580
X9000Y70530
X8600Y70530
X8200Y70530
X7800Y70530
X7800Y71080
X9000Y71080
X9000Y72280
X9000Y72830
X8600Y72830
X8200Y72830
X7800Y72830
X7800Y72280
X6400Y70530
X6000Y70530
X5600Y70530
X5200Y70530
X5200Y71080
X6400Y71080
X6400Y72280
X6400Y72830
X6000Y72830
X5600Y72830
X5200Y72830
X5200Y72280
X3800Y66830
X3400Y66830
X3000Y66830
X2600Y66830
X2600Y67380
X3800Y67380
X3800Y68580
X3800Y69130
X3400Y69130
X3000Y69130
X2600Y69130
X2600Y68580
X3800Y70530
X3400Y70530
X3000Y70530
X2600Y70530
X2600Y71080
X3800Y71080
X3800Y72280
X3800Y72830
X3400Y72830
X3000Y72830
X2600Y72830
X2600Y72280
X27200Y66830
X26800Y66830
X26400Y66830
X26000Y66830
X26000Y67380
X27200Y67380
X27200Y68580
X27200Y69130
X26800Y69130
X26400Y69130
X26000Y69130
X26000Y68580
X24600Y66830
X24200Y66830
X23800Y66830
X23400Y66830
X23400Y67380
X24600Y67380
X24600Y68580
X24600Y69130
X24200Y69130
X23800Y69130
X23400Y69130
X23400Y68580
X27200Y70530
X26800Y70530
X26400Y70530
X26000Y70530
X26000Y71080
X27200Y71080
X27200Y72280
X27200Y72830
X26800Y72830
X26400Y72830
X26000Y72830
X26000Y72280
X22000Y66830
X21600Y66830
X21200Y66830
X20800Y66830
X20800Y67380
X22000Y67380
X22000Y68580
X22000Y69130
X21600Y69130
X21200Y69130
X20800Y69130
X20800Y68580
X24600Y70530
X24200Y70530
X23800Y70530
X23400Y70530
X23400Y71080
X24600Y71080
X24600Y72280
X24600Y72830
X24200Y72830
X23800Y72830
X23400Y72830
X23400Y72280
X19400Y66830
X19000Y66830
X18600Y66830
X18200Y66830
X18200Y67380
X19400Y67380
X19400Y68580
X19400Y69130
X19000Y69130
X18600Y69130
X18200Y69130
X18200Y68580
X22000Y70530
X21600Y70530
X21200Y70530
X20800Y70530
X20800Y71080
X22000Y71080
X22000Y72280
X22000Y72830
X21600Y72830
X21200Y72830
X20800Y72830
X20800Y72280
X19400Y70530
X19000Y70530
X18600Y70530
X18200Y70530
X18200Y71080
X19400Y71080
X19400Y72280
X19400Y72830
X19000Y72830
X18600Y72830
X18200Y72830
X18200Y72280
X16800Y66830
X16400Y66830
X16000Y66830
X15600Y66830
X15600Y67380
X16800Y67380
X16800Y68580
X16800Y69130
X16400Y69130
X16000Y69130
X15600Y69130
X15600Y68580
X16800Y70530
X16400Y70530
X16000Y70530
X15600Y70530
X15600Y71080
X16800Y71080
X16800Y72280
X16800Y72830
X16400Y72830
X16000Y72830
X15600Y72830
X15600Y72280
X14200Y74230
X13800Y74230
X13400Y74230
X13000Y74230
X13000Y74780
X14200Y74780
X14200Y75980
X14200Y76530
X13800Y76530
X13400Y76530
X13000Y76530
X13000Y75980
X11600Y74230
X11200Y74230
X10800Y74230
X10400Y74230
X10400Y74780
X11600Y74780
X11600Y75980
X11600Y76530
X11200Y76530
X10800Y76530
X10400Y76530
X10400Y75980
X14200Y77930
X13800Y77930
X13400Y77930
X13000Y77930
X13000Y78480
X14200Y78480
X14200Y79680
X14200Y80230
X13800Y80230
X13400Y80230
X13000Y80230
X13000Y79680
X9000Y74230
X8600Y74230
X8200Y74230
X7800Y74230
X7800Y74780
X9000Y74780
X9000Y75980
X9000Y76530
X8600Y76530
X8200Y76530
X7800Y76530
X7800Y75980
X11600Y77930
X11200Y77930
X10800Y77930
X10400Y77930
X10400Y78480
X11600Y78480
X11600Y79680
X11600Y80230
X11200Y80230
X10800Y80230
X10400Y80230
X10400Y79680
X6400Y74230
X6000Y74230
X5600Y74230
X5200Y74230
X5200Y74780
X6400Y74780
X6400Y75980
X6400Y76530
X6000Y76530
X5600Y76530
X5200Y76530
X5200Y75980
X9000Y77930
X8600Y77930
X8200Y77930
X7800Y77930
X7800Y78480
X9000Y78480
X9000Y79680
X9000Y80230
X8600Y80230
X8200Y80230
X7800Y80230
X7800Y79680
X6400Y77930
X6000Y77930
X5600Y77930
X5200Y77930
X5200Y78480
X6400Y78480
X6400Y79680
X6400Y80230
X6000Y80230
X5600Y80230
X5200Y80230
X5200Y79680
X3800Y74230
X3400Y74230
X3000Y74230
X2600Y74230
X2600Y74780
X3800Y74780
X3800Y75980
X3800Y76530
X3400Y76530
X3000Y76530
X2600Y76530
X2600Y75980
X3800Y77930
X3400Y77930
X3000Y77930
X2600Y77930
X2600Y78480
X3800Y78480
X3800Y79680
X3800Y80230
X3400Y80230
X3000Y80230
X2600Y80230
X2600Y79680
X27200Y74230
X26800Y74230
X26400Y74230
X26000Y74230
X26000Y74780
X27200Y74780
X27200Y75980
X27200Y76530
X26800Y76530
X26400Y76530
X26000Y76530
X26000Y75980
X24600Y74230
X24200Y74230
X23800Y74230
X23400Y74230
X23400Y74780
X24600Y74780
X24600Y75980
X24600Y76530
X24200Y76530
X23800Y76530
X23400Y76530
X23400Y75980
X27200Y77930
X26800Y77930
X26400Y77930
X26000Y77930
X26000Y78480
X27200Y78480
X27200Y79680
X27200Y80230
X26800Y80230
X26400Y80230
X26000Y80230
X26000Y79680
X22000Y74230
X21600Y74230
X21200Y74230
X20800Y74230
X20800Y74780
X22000Y74780
X22000Y75980
X22000Y76530
X21600Y76530
X21200Y76530
X20800Y76530
X20800Y75980
X24600Y77930
X24200Y77930
X23800Y77930
X23400Y77930
X23400Y78480
X24600Y78480
X24600Y79680
X24600Y80230
X24200Y80230
X23800Y80230
X23400Y80230
X23400Y79680
X19400Y74230
X19000Y74230
X18600Y74230
X18200Y74230
X18200Y74780
X19400Y74780
X19400Y75980
X19400Y76530
X19000Y76530
X18600Y76530
X18200Y76530
X18200Y75980
X22000Y77930
X21600Y77930
X21200Y77930
X20800Y77930
X20800Y78480
X22000Y78480
X22000Y79680
X22000Y80230
X21600Y80230
X21200Y80230
X20800Y80230
X20800Y79680
X19400Y77930
X19000Y77930
X18600Y77930
X18200Y77930
X18200Y78480
X19400Y78480
X19400Y79680
X19400Y80230
X19000Y80230
X18600Y80230
X18200Y80230
X18200Y79680
X16800Y74230
X16400Y74230
X16000Y74230
X15600Y74230
X15600Y74780
X16800Y74780
X16800Y75980
X16800Y76530
X16400Y76530
X16000Y76530
X15600Y76530
X15600Y75980
X16800Y77930
X16400Y77930
X16000Y77930
X15600Y77930
X15600Y78480
X16800Y78480
X16800Y79680
X16800Y80230
X16400Y80230
X16000Y80230
X15600Y80230
X15600Y79680
X36050Y74070
X36570Y74210
X37510Y71930
X37870Y70890
X38690Y70850
X40230Y71890
X40230Y72530
X41530Y75130
X42670Y74730
X42410Y72030
X42950Y69970
X42130Y68290
X41250Y68810
X40130Y68870
X39530Y68450
X39030Y67850
X37770Y67170
X36490Y69450
X32650Y75270
X30410Y68250
X39350Y61630
X40590Y57670
X38610Y55190
X40250Y48330
X43930Y46910
X46630Y51370
X48930Y56450
X49270Y58470
X50470Y59310
X50930Y61630
X49610Y61870
X48150Y61230
X46750Y62710
X46250Y63350
X46430Y61950
X48170Y63210
X47250Y65030
X47830Y65130
X47530Y66130
X48590Y66670
X45750Y65130
X46370Y57410
X52350Y54050
X53950Y58430
X52970Y66410
X53200Y67620
X53430Y68510
X53380Y69480
X45250Y76090
X39590Y75690
X53990Y48710
X53990Y47110
X54070Y60390
X54410Y60970
X52000Y61080
X50470Y65030
X50350Y65610
X50450Y67230
X49990Y67450
X50980Y68210
X50710Y68800
X50750Y70610
X52210Y68330
X51990Y67130
X48610Y65610
X54430Y72000
X38630Y73530
X35710Y73390
T02C0.031500
X54880Y29716
X54880Y31684
X49023Y16031
X48236Y16031
X47449Y16031
X46661Y16031
X45874Y16031
X45086Y16031
X44299Y16031
X43511Y16031
X42724Y16031
X41937Y16031
X41937Y7369
X42724Y7369
X43511Y7369
X44299Y7369
X45086Y7369
X45874Y7369
X46661Y7369
X47449Y7369
X48236Y7369
X49023Y7369
X54086Y13913
X54086Y14700
X54086Y15487
X54874Y15487
X54874Y14700
X54874Y13913
T03C0.040000
X19720Y3755
X18720Y3855
X17720Y3755
X16720Y3855
X15720Y3755
X7020Y11505
X6020Y11505
X5020Y11505
X4020Y11505
X4020Y12505
X5020Y12505
X6020Y12505
X7020Y12505
X3870Y9705
X3770Y8705
X3870Y7705
X3770Y6705
X3520Y14705
X3520Y15705
X3520Y16705
X8670Y20815
X9810Y20815
X32400Y7890
X33400Y7790
X34400Y7890
X35400Y7790
X35780Y24300
X35780Y25400
X35780Y27350
X35780Y28450
X54630Y26500
X54730Y27500
X54730Y25500
X54630Y24500
X54730Y23500
X19720Y24770
X18720Y24870
X17720Y24770
X16720Y24870
X15720Y24770
X7020Y32520
X6020Y32520
X5020Y32520
X4020Y32520
X4020Y33520
X5020Y33520
X6020Y33520
X7020Y33520
X3870Y30720
X3770Y29720
X3870Y28720
X3770Y27720
X3520Y35720
X3520Y36720
X3520Y37720
X8670Y41830
X9810Y41830
X47110Y59140
X47110Y60240
X53800Y61890
X53900Y62890
X53800Y63890
X53900Y64890
X54000Y67010
X54100Y68010
X54000Y69010
X54100Y70010
X51050Y77820
X50050Y77920
X49050Y77820
X48050Y77920
X45250Y77740
X44250Y77640
X43250Y77740
X40430Y77340
X39430Y77440
X38430Y77340
X37130Y77450
X36130Y77350
X35130Y77450
X34130Y77350
X33130Y77450
X30410Y75080
X30410Y73980
X30440Y72570
X30340Y71570
X30440Y70570
X30340Y69570
T04C0.047200
X53896Y29322
X53896Y32078
X54480Y16511
X54480Y12889
T05C0.053150
X35530Y19066
X35530Y21034
X33350Y66750
X33350Y64750
X35850Y64550
X33350Y61250
X33350Y59250
X35950Y58750
X33350Y55750
X33350Y53750
X33450Y50750
X33450Y48750
X35950Y48450
X36250Y45750
X34250Y45750
X38950Y48450
X39750Y45750
X41750Y45750
X42950Y48450
X42950Y51450
X42950Y53650
X42950Y56650
X42950Y58750
X42950Y61750
X42850Y64550
X42850Y67550
X38850Y64550
X38950Y58750
X38950Y53650
X35950Y53650
X46350Y46450
X48350Y46450
T06C0.061050
X51680Y34600
X50676Y35604
X50676Y33596
X52684Y33596
X52684Y35604
T07C0.130000
X53050Y44250
X31050Y44150
X53050Y76870
X30930Y77190
M30
