G75*
%MOIN*%
%OFA0B0*%
%FSLAX24Y24*%
%IPPOS*%
%LPD*%
%AMOC8*
5,1,8,0,0,1.08239X$1,22.5*
%
%ADD10R,0.0552X0.0395*%
%ADD11R,0.0710X0.0631*%
%ADD12R,0.0513X0.0474*%
%ADD13R,0.1025X0.1025*%
%ADD14C,0.0966*%
%ADD15R,0.0395X0.0552*%
%ADD16C,0.0552*%
%ADD17R,0.0474X0.0631*%
%ADD18C,0.0900*%
%ADD19C,0.0700*%
%ADD20C,0.0680*%
%ADD21C,0.1780*%
%ADD22C,0.0740*%
%ADD23OC8,0.0740*%
%ADD24C,0.0730*%
%ADD25C,0.1380*%
%ADD26C,0.0820*%
%ADD27OC8,0.0600*%
%ADD28C,0.0437*%
%ADD29C,0.0476*%
D10*
X008836Y020549D03*
X008836Y021258D03*
X031996Y017978D03*
X031996Y017269D03*
X032646Y017269D03*
X032646Y017978D03*
X033296Y017978D03*
X033296Y017269D03*
D11*
X010056Y020552D03*
X010056Y021654D03*
D12*
X011192Y020553D03*
X011861Y020553D03*
D13*
X009492Y014389D03*
X009492Y016397D03*
X011500Y016397D03*
X011500Y014389D03*
D14*
X010496Y015393D03*
D15*
X016897Y028253D03*
X017606Y028253D03*
X019487Y028163D03*
X020196Y028163D03*
X017201Y032023D03*
X016492Y032023D03*
X019412Y050273D03*
X019412Y050923D03*
X020121Y050923D03*
X020121Y050273D03*
D16*
X018496Y016779D03*
X018496Y014023D03*
D17*
X008635Y024915D03*
X008261Y025781D03*
X007887Y024915D03*
D18*
X027618Y015178D03*
X030374Y015178D03*
D19*
X029980Y014193D03*
X028012Y014193D03*
D20*
X022386Y032323D02*
X022386Y032923D01*
X021386Y032823D02*
X021386Y032223D01*
X020386Y032323D02*
X020386Y032923D01*
X019386Y032823D02*
X019386Y032223D01*
X018386Y032323D02*
X018386Y032923D01*
D21*
X028956Y054150D03*
X028956Y056512D03*
X027106Y055331D03*
D22*
X033146Y015775D03*
X034346Y015775D03*
X034846Y015012D03*
D23*
X033746Y015012D03*
D24*
X024980Y014893D03*
X023996Y014893D03*
X023012Y014893D03*
X023012Y017354D03*
X024980Y017354D03*
D25*
X035496Y018393D03*
X035496Y055393D03*
X006496Y055393D03*
X006496Y018393D03*
D26*
X016426Y026783D03*
X017426Y026883D03*
X018426Y026783D03*
X005496Y039393D03*
X005496Y047393D03*
X036496Y047393D03*
X036486Y039403D03*
D27*
X021796Y043393D03*
X018796Y043393D03*
D28*
X017816Y054043D03*
X017816Y054463D03*
X017826Y054913D03*
X018396Y054733D03*
X018386Y054233D03*
X018866Y054233D03*
X019336Y054233D03*
X019336Y054733D03*
X018866Y054743D03*
X018526Y056193D03*
X018906Y056493D03*
X020016Y054483D03*
X020016Y054043D03*
X029496Y025393D03*
X029496Y024893D03*
X029496Y024393D03*
X029496Y023893D03*
X029496Y023393D03*
X029996Y023393D03*
X029996Y023893D03*
X029996Y024393D03*
X029996Y024893D03*
X029996Y025393D03*
X030496Y025393D03*
X030496Y024893D03*
X030496Y024393D03*
X030496Y023893D03*
X030496Y023393D03*
X015096Y021793D03*
X015096Y021293D03*
X015096Y020793D03*
X015096Y020293D03*
X015096Y019793D03*
X015096Y019293D03*
X015096Y018793D03*
X014796Y018493D03*
X014296Y018293D03*
X014296Y017793D03*
X014296Y017293D03*
X014296Y016793D03*
X014096Y016293D03*
X014096Y015793D03*
X013796Y015393D03*
X013396Y014993D03*
X012896Y014993D03*
X012396Y014993D03*
X012396Y015993D03*
X012896Y016993D03*
X012896Y017493D03*
X012896Y018093D03*
X013496Y019393D03*
X013896Y019293D03*
X014196Y019693D03*
X014196Y020193D03*
X014196Y020693D03*
X014196Y021193D03*
X013596Y021393D03*
X013296Y021793D03*
X013296Y022293D03*
X013296Y022793D03*
X013596Y023193D03*
X014096Y023193D03*
X014596Y023193D03*
X014996Y022793D03*
X014996Y022293D03*
D29*
X016576Y022863D03*
X016386Y019033D03*
X019431Y019198D03*
X021501Y022093D03*
X021861Y021373D03*
X020541Y022858D03*
X023166Y025183D03*
X023676Y025168D03*
X023181Y025723D03*
X022911Y028948D03*
X022761Y030658D03*
X020766Y031183D03*
X020031Y030298D03*
X019641Y029878D03*
X019446Y029398D03*
X020631Y028993D03*
X018366Y028268D03*
X015831Y029533D03*
X017811Y031723D03*
X015456Y033893D03*
X011361Y032443D03*
X010461Y031438D03*
X009746Y030018D03*
X010461Y027263D03*
X011361Y025088D03*
X008241Y026788D03*
X008886Y019443D03*
X019786Y036023D03*
X020116Y036623D03*
X019996Y034893D03*
X023976Y035353D03*
X023796Y036533D03*
X025496Y033893D03*
X027996Y033893D03*
X027996Y033393D03*
X027996Y032893D03*
X027996Y032393D03*
X027996Y031893D03*
X027996Y031393D03*
X028496Y031393D03*
X028496Y031893D03*
X028496Y032393D03*
X028496Y032893D03*
X028496Y033393D03*
X028496Y033893D03*
X028496Y034393D03*
X027996Y034393D03*
X028996Y034393D03*
X028996Y033893D03*
X028996Y033393D03*
X029496Y033393D03*
X029996Y033393D03*
X029996Y033893D03*
X029496Y033893D03*
X029496Y034393D03*
X029996Y034393D03*
X030496Y034393D03*
X030496Y033893D03*
X030496Y033393D03*
X030996Y033393D03*
X031496Y033393D03*
X031496Y032893D03*
X031496Y032393D03*
X031496Y031893D03*
X031496Y031393D03*
X031996Y031393D03*
X031996Y031893D03*
X031996Y032393D03*
X031996Y032893D03*
X031996Y033393D03*
X031996Y033893D03*
X031496Y033893D03*
X030996Y033893D03*
X030996Y034393D03*
X031496Y034393D03*
X031996Y034393D03*
X029721Y027373D03*
X033401Y019318D03*
X031019Y017211D03*
X020541Y014533D03*
X018836Y050273D03*
X018826Y050993D03*
X017066Y054813D03*
X019846Y056383D03*
M02*
