G75*
%MOIN*%
%OFA0B0*%
%FSLAX24Y24*%
%IPPOS*%
%LPD*%
%AMOC8*
5,1,8,0,0,1.08239X$1,22.5*
%
%ADD10C,0.0100*%
%ADD11R,0.0340X0.0300*%
%ADD12R,0.0256X0.0551*%
%ADD13C,0.0240*%
%ADD14C,0.0160*%
%ADD15C,0.0150*%
D10*
X004496Y013393D02*
X037496Y013393D01*
X037496Y058393D01*
X004496Y058393D01*
X006150Y048564D02*
X006283Y048564D01*
X006216Y048564D02*
X006216Y048230D01*
X006150Y048163D01*
X006083Y048163D01*
X006016Y048230D01*
X005746Y047893D02*
X005246Y047893D01*
X004996Y047643D01*
X004996Y047143D01*
X005246Y046893D01*
X005746Y046893D01*
X005996Y047143D01*
X005996Y047643D01*
X005746Y047893D01*
X006477Y048163D02*
X006477Y048564D01*
X006677Y048564D01*
X006743Y048497D01*
X006743Y048363D01*
X006677Y048297D01*
X006477Y048297D01*
X006937Y048163D02*
X007204Y048430D01*
X007204Y048497D01*
X007137Y048564D01*
X007004Y048564D01*
X006937Y048497D01*
X006937Y048163D02*
X007204Y048163D01*
X007137Y040564D02*
X007204Y040497D01*
X007204Y040430D01*
X007137Y040363D01*
X007204Y040297D01*
X007204Y040230D01*
X007137Y040163D01*
X007004Y040163D01*
X006937Y040230D01*
X007070Y040363D02*
X007137Y040363D01*
X007137Y040564D02*
X007004Y040564D01*
X006937Y040497D01*
X006743Y040497D02*
X006743Y040363D01*
X006677Y040297D01*
X006477Y040297D01*
X006477Y040163D02*
X006477Y040564D01*
X006677Y040564D01*
X006743Y040497D01*
X006283Y040564D02*
X006150Y040564D01*
X006216Y040564D02*
X006216Y040230D01*
X006150Y040163D01*
X006083Y040163D01*
X006016Y040230D01*
X005746Y039893D02*
X005246Y039893D01*
X004996Y039643D01*
X004996Y039143D01*
X005246Y038893D01*
X005746Y038893D01*
X005996Y039143D01*
X005996Y039643D01*
X005746Y039893D01*
X006726Y034569D02*
X014167Y034569D01*
X014167Y020553D01*
X006726Y020553D01*
X006726Y034569D01*
X005786Y022484D02*
X005786Y022217D01*
X005786Y022350D02*
X005386Y022350D01*
X005519Y022217D01*
X005386Y022023D02*
X005386Y021890D01*
X005386Y021956D02*
X005719Y021956D01*
X005786Y021890D01*
X005786Y021823D01*
X005719Y021756D01*
X005719Y021563D02*
X005786Y021496D01*
X005786Y021363D01*
X005719Y021296D01*
X005586Y021363D02*
X005586Y021496D01*
X005653Y021563D01*
X005719Y021563D01*
X005586Y021363D02*
X005519Y021296D01*
X005453Y021296D01*
X005386Y021363D01*
X005386Y021496D01*
X005453Y021563D01*
X005311Y021007D02*
X005291Y021009D01*
X005272Y021007D01*
X005253Y021001D01*
X005236Y020992D01*
X005220Y020980D01*
X005208Y020965D01*
X005199Y020947D01*
X005193Y020929D01*
X005192Y020928D02*
X005192Y020298D01*
X005193Y020298D02*
X005198Y020282D01*
X005206Y020266D01*
X005216Y020252D01*
X005228Y020240D01*
X005243Y020230D01*
X005259Y020223D01*
X005276Y020219D01*
X005293Y020218D01*
X005311Y020220D01*
X005861Y020220D02*
X005879Y020218D01*
X005896Y020219D01*
X005913Y020223D01*
X005929Y020230D01*
X005944Y020240D01*
X005956Y020252D01*
X005966Y020266D01*
X005974Y020282D01*
X005979Y020298D01*
X005980Y020298D02*
X005980Y020928D01*
X005979Y020929D02*
X005973Y020947D01*
X005964Y020965D01*
X005952Y020980D01*
X005936Y020992D01*
X005919Y021001D01*
X005900Y021007D01*
X005881Y021009D01*
X005861Y021007D01*
X007727Y019790D02*
X007727Y019457D01*
X007794Y019390D01*
X007928Y019390D01*
X007994Y019457D01*
X007994Y019790D01*
X008188Y019657D02*
X008321Y019790D01*
X008321Y019390D01*
X008188Y019390D02*
X008455Y019390D01*
X009773Y017735D02*
X009639Y017602D01*
X009639Y017335D01*
X009639Y017535D02*
X009906Y017535D01*
X009906Y017602D02*
X009906Y017335D01*
X010100Y017335D02*
X010100Y017735D01*
X010367Y017335D01*
X010367Y017735D01*
X010560Y017735D02*
X010827Y017735D01*
X010694Y017735D02*
X010694Y017335D01*
X011021Y017335D02*
X011287Y017335D01*
X011154Y017335D02*
X011154Y017735D01*
X011021Y017602D01*
X011802Y018598D02*
X011936Y018598D01*
X012002Y018665D01*
X012196Y018665D02*
X012263Y018598D01*
X012396Y018598D01*
X012463Y018665D01*
X012463Y018732D01*
X012396Y018798D01*
X012329Y018798D01*
X012396Y018798D02*
X012463Y018865D01*
X012463Y018932D01*
X012396Y018999D01*
X012263Y018999D01*
X012196Y018932D01*
X012002Y018932D02*
X011936Y018999D01*
X011802Y018999D01*
X011735Y018932D01*
X011735Y018665D01*
X011802Y018598D01*
X012150Y017047D02*
X012150Y013740D01*
X008843Y013740D01*
X008843Y017047D01*
X012150Y017047D01*
X013118Y016640D02*
X013354Y016640D01*
X013354Y016167D02*
X013118Y016167D01*
X013202Y017266D02*
X013202Y017581D01*
X013990Y017581D02*
X013990Y017266D01*
X014732Y016529D02*
X014665Y016462D01*
X014665Y016195D01*
X014732Y016128D01*
X014866Y016128D01*
X014932Y016195D01*
X015126Y016128D02*
X015393Y016395D01*
X015393Y016462D01*
X015326Y016529D01*
X015193Y016529D01*
X015126Y016462D01*
X014932Y016462D02*
X014866Y016529D01*
X014732Y016529D01*
X015126Y016128D02*
X015393Y016128D01*
X015436Y017263D02*
X015436Y017664D01*
X015303Y017530D01*
X015303Y017263D02*
X015570Y017263D01*
X015109Y017263D02*
X014842Y017263D01*
X014842Y017664D01*
X013364Y018547D02*
X013128Y018547D01*
X013128Y019020D02*
X013364Y019020D01*
X015601Y021210D02*
X015668Y021143D01*
X015934Y021143D01*
X016001Y021210D01*
X016001Y021343D01*
X015934Y021410D01*
X016001Y021604D02*
X016001Y021871D01*
X016001Y021737D02*
X015601Y021737D01*
X015734Y021604D01*
X015668Y021410D02*
X015601Y021343D01*
X015601Y021210D01*
X015830Y020601D02*
X015830Y020365D01*
X016302Y020365D02*
X016302Y020601D01*
X016550Y020606D02*
X016550Y020370D01*
X016608Y021162D02*
X016541Y021229D01*
X016541Y021362D01*
X016608Y021429D01*
X016674Y021623D02*
X016541Y021756D01*
X016941Y021756D01*
X016941Y021623D02*
X016941Y021889D01*
X016874Y022083D02*
X016608Y022350D01*
X016874Y022350D01*
X016941Y022283D01*
X016941Y022150D01*
X016874Y022083D01*
X016608Y022083D01*
X016541Y022150D01*
X016541Y022283D01*
X016608Y022350D01*
X016874Y021429D02*
X016941Y021362D01*
X016941Y021229D01*
X016874Y021162D01*
X016608Y021162D01*
X017022Y020606D02*
X017022Y020370D01*
X017260Y020360D02*
X017260Y020596D01*
X017326Y021158D02*
X017326Y021358D01*
X017393Y021424D01*
X017526Y021424D01*
X017593Y021358D01*
X017593Y021158D01*
X017593Y021291D02*
X017726Y021424D01*
X017659Y021618D02*
X017726Y021685D01*
X017726Y021818D01*
X017659Y021885D01*
X017393Y021885D01*
X017326Y021818D01*
X017326Y021685D01*
X017393Y021618D01*
X017459Y021618D01*
X017526Y021685D01*
X017526Y021885D01*
X017946Y022213D02*
X019366Y022213D01*
X019443Y021885D02*
X019679Y021885D01*
X019679Y021412D02*
X019443Y021412D01*
X019495Y021264D02*
X019362Y021264D01*
X019295Y021197D01*
X019295Y020930D01*
X019362Y020863D01*
X019495Y020863D01*
X019562Y020930D01*
X019755Y020863D02*
X020022Y020863D01*
X019889Y020863D02*
X019889Y021264D01*
X019755Y021130D01*
X019562Y021197D02*
X019495Y021264D01*
X018931Y021275D02*
X018931Y021409D01*
X018864Y021476D01*
X018798Y021476D01*
X018731Y021409D01*
X018731Y021275D01*
X018664Y021209D01*
X018598Y021209D01*
X018531Y021275D01*
X018531Y021409D01*
X018598Y021476D01*
X018664Y021476D01*
X018731Y021409D01*
X018731Y021275D02*
X018798Y021209D01*
X018864Y021209D01*
X018931Y021275D01*
X018931Y021015D02*
X018798Y020882D01*
X018798Y020948D02*
X018798Y020748D01*
X018931Y020748D02*
X018531Y020748D01*
X018531Y020948D01*
X018598Y021015D01*
X018731Y021015D01*
X018798Y020948D01*
X018392Y021060D02*
X018392Y021296D01*
X017920Y021296D02*
X017920Y021060D01*
X017726Y021158D02*
X017326Y021158D01*
X017732Y020596D02*
X017732Y020360D01*
X017738Y019760D02*
X017974Y019760D01*
X018378Y019972D02*
X018614Y019972D01*
X018614Y020445D02*
X018378Y020445D01*
X017974Y019287D02*
X017738Y019287D01*
X017686Y019089D02*
X017752Y019022D01*
X017686Y019089D02*
X017552Y019089D01*
X017485Y019022D01*
X017485Y018755D01*
X017552Y018688D01*
X017686Y018688D01*
X017752Y018755D01*
X017946Y018755D02*
X017946Y018822D01*
X018013Y018888D01*
X018146Y018888D01*
X018213Y018822D01*
X018213Y018755D01*
X018146Y018688D01*
X018013Y018688D01*
X017946Y018755D01*
X018013Y018888D02*
X017946Y018955D01*
X017946Y019022D01*
X018013Y019089D01*
X018146Y019089D01*
X018213Y019022D01*
X018213Y018955D01*
X018146Y018888D01*
X017197Y018196D02*
X017197Y017724D01*
X017197Y018196D02*
X019795Y018196D01*
X019795Y017527D02*
X019795Y013590D01*
X020171Y014815D02*
X020801Y014815D01*
X020819Y014821D01*
X020837Y014830D01*
X020852Y014842D01*
X020864Y014858D01*
X020873Y014875D01*
X020879Y014894D01*
X020881Y014913D01*
X020879Y014933D01*
X020879Y015484D02*
X020881Y015504D01*
X020879Y015523D01*
X020873Y015542D01*
X020864Y015559D01*
X020852Y015575D01*
X020837Y015587D01*
X020819Y015596D01*
X020801Y015602D01*
X020171Y015602D01*
X020155Y015597D01*
X020139Y015589D01*
X020125Y015579D01*
X020113Y015567D01*
X020103Y015552D01*
X020096Y015536D01*
X020092Y015519D01*
X020091Y015502D01*
X020093Y015484D01*
X020245Y015758D02*
X020179Y015825D01*
X020245Y015758D02*
X020379Y015758D01*
X020446Y015825D01*
X020446Y015892D01*
X020379Y015958D01*
X020245Y015958D01*
X020179Y016025D01*
X020179Y016092D01*
X020245Y016159D01*
X020379Y016159D01*
X020446Y016092D01*
X020639Y015825D02*
X020706Y015758D01*
X020773Y015758D01*
X020839Y015825D01*
X020839Y016159D01*
X020773Y016159D02*
X020906Y016159D01*
X021099Y016092D02*
X021166Y016159D01*
X021300Y016159D01*
X021366Y016092D01*
X021366Y016025D01*
X021099Y015758D01*
X021366Y015758D01*
X020093Y014933D02*
X020091Y014915D01*
X020092Y014898D01*
X020096Y014881D01*
X020103Y014865D01*
X020113Y014850D01*
X020125Y014838D01*
X020139Y014828D01*
X020155Y014820D01*
X020171Y014815D01*
X022028Y012925D02*
X025965Y012925D01*
X025965Y018338D01*
X022028Y018338D01*
X022028Y012925D01*
X026341Y017601D02*
X026875Y017601D01*
X026808Y017534D02*
X026808Y017668D01*
X026742Y017734D01*
X026675Y017734D01*
X026608Y017668D01*
X026608Y017534D01*
X026541Y017467D01*
X026475Y017467D01*
X026408Y017534D01*
X026408Y017668D01*
X026475Y017734D01*
X026475Y017928D02*
X026408Y017995D01*
X026408Y018128D01*
X026475Y018195D01*
X026541Y018195D01*
X026808Y017928D01*
X026808Y018195D01*
X026808Y017534D02*
X026742Y017467D01*
X026742Y017274D02*
X026408Y017274D01*
X026408Y017007D02*
X026742Y017007D01*
X026808Y017074D01*
X026808Y017207D01*
X026742Y017274D01*
X028336Y015997D02*
X028336Y015930D01*
X028403Y015863D01*
X028536Y015863D01*
X028603Y015797D01*
X028603Y015730D01*
X028536Y015663D01*
X028403Y015663D01*
X028336Y015730D01*
X028336Y015997D02*
X028403Y016064D01*
X028536Y016064D01*
X028603Y015997D01*
X028797Y015930D02*
X028930Y016064D01*
X028930Y015663D01*
X028797Y015663D02*
X029063Y015663D01*
X029784Y014981D02*
X028209Y014981D01*
X027559Y014587D02*
X027559Y013406D01*
X030433Y013406D01*
X030433Y014587D01*
X030104Y017067D02*
X029868Y017067D01*
X029868Y017540D02*
X030104Y017540D01*
X030077Y017738D02*
X030343Y017738D01*
X030210Y017738D02*
X030210Y018139D01*
X030077Y018005D01*
X029883Y017938D02*
X029816Y017872D01*
X029616Y017872D01*
X029750Y017872D02*
X029883Y017738D01*
X029883Y017938D02*
X029883Y018072D01*
X029816Y018139D01*
X029616Y018139D01*
X029616Y017738D01*
X030537Y017805D02*
X030604Y017738D01*
X030737Y017738D01*
X030804Y017805D01*
X030804Y017938D01*
X030737Y018005D01*
X030670Y018005D01*
X030537Y017938D01*
X030537Y018139D01*
X030804Y018139D01*
X032996Y016143D02*
X032996Y014643D01*
X033396Y014643D02*
X033396Y015393D01*
X034096Y015393D01*
X034096Y014643D01*
X033396Y014643D01*
X033012Y015393D02*
X033014Y015455D01*
X033020Y015518D01*
X033030Y015579D01*
X033044Y015640D01*
X033061Y015700D01*
X033082Y015759D01*
X033108Y015816D01*
X033136Y015871D01*
X033168Y015925D01*
X033204Y015976D01*
X033242Y016026D01*
X033284Y016072D01*
X033328Y016116D01*
X033376Y016157D01*
X033425Y016195D01*
X033477Y016229D01*
X033531Y016260D01*
X033587Y016288D01*
X033645Y016312D01*
X033704Y016333D01*
X033764Y016349D01*
X033825Y016362D01*
X033887Y016371D01*
X033949Y016376D01*
X034012Y016377D01*
X034074Y016374D01*
X034136Y016367D01*
X034198Y016356D01*
X034258Y016341D01*
X034318Y016323D01*
X034376Y016301D01*
X034433Y016275D01*
X034488Y016245D01*
X034541Y016212D01*
X034592Y016176D01*
X034640Y016137D01*
X034686Y016094D01*
X034729Y016049D01*
X034769Y016001D01*
X034806Y015951D01*
X034840Y015898D01*
X034871Y015844D01*
X034897Y015788D01*
X034921Y015730D01*
X034940Y015670D01*
X034956Y015610D01*
X034968Y015548D01*
X034976Y015487D01*
X034980Y015424D01*
X034980Y015362D01*
X034976Y015299D01*
X034968Y015238D01*
X034956Y015176D01*
X034940Y015116D01*
X034921Y015056D01*
X034897Y014998D01*
X034871Y014942D01*
X034840Y014888D01*
X034806Y014835D01*
X034769Y014785D01*
X034729Y014737D01*
X034686Y014692D01*
X034640Y014649D01*
X034592Y014610D01*
X034541Y014574D01*
X034488Y014541D01*
X034433Y014511D01*
X034376Y014485D01*
X034318Y014463D01*
X034258Y014445D01*
X034198Y014430D01*
X034136Y014419D01*
X034074Y014412D01*
X034012Y014409D01*
X033949Y014410D01*
X033887Y014415D01*
X033825Y014424D01*
X033764Y014437D01*
X033704Y014453D01*
X033645Y014474D01*
X033587Y014498D01*
X033531Y014526D01*
X033477Y014557D01*
X033425Y014591D01*
X033376Y014629D01*
X033328Y014670D01*
X033284Y014714D01*
X033242Y014760D01*
X033204Y014810D01*
X033168Y014861D01*
X033136Y014915D01*
X033108Y014970D01*
X033082Y015027D01*
X033061Y015086D01*
X033044Y015146D01*
X033030Y015207D01*
X033020Y015268D01*
X033014Y015331D01*
X033012Y015393D01*
X032996Y014643D02*
X033039Y014589D01*
X033085Y014537D01*
X033134Y014488D01*
X033186Y014441D01*
X033240Y014398D01*
X033296Y014357D01*
X033355Y014320D01*
X033415Y014286D01*
X033478Y014256D01*
X033541Y014229D01*
X033607Y014205D01*
X033673Y014185D01*
X033741Y014169D01*
X033809Y014157D01*
X033878Y014149D01*
X033947Y014144D01*
X034017Y014143D01*
X034086Y014146D01*
X034155Y014153D01*
X034223Y014164D01*
X034291Y014178D01*
X034358Y014197D01*
X034424Y014219D01*
X034489Y014244D01*
X034552Y014273D01*
X034613Y014306D01*
X034672Y014342D01*
X034729Y014381D01*
X034785Y014423D01*
X034837Y014468D01*
X034887Y014516D01*
X034934Y014567D01*
X034979Y014621D01*
X035020Y014676D01*
X035058Y014734D01*
X035093Y014794D01*
X035125Y014856D01*
X035153Y014919D01*
X035177Y014984D01*
X035198Y015050D01*
X035215Y015118D01*
X035229Y015186D01*
X035238Y015255D01*
X035244Y015324D01*
X035246Y015393D01*
X035244Y015462D01*
X035238Y015531D01*
X035229Y015600D01*
X035215Y015668D01*
X035198Y015736D01*
X035177Y015802D01*
X035153Y015867D01*
X035125Y015930D01*
X035093Y015992D01*
X035058Y016052D01*
X035020Y016110D01*
X034979Y016165D01*
X034934Y016219D01*
X034887Y016270D01*
X034837Y016318D01*
X034785Y016363D01*
X034729Y016405D01*
X034672Y016444D01*
X034613Y016480D01*
X034552Y016513D01*
X034489Y016542D01*
X034424Y016567D01*
X034358Y016589D01*
X034291Y016608D01*
X034223Y016622D01*
X034155Y016633D01*
X034086Y016640D01*
X034017Y016643D01*
X033947Y016642D01*
X033878Y016637D01*
X033809Y016629D01*
X033741Y016617D01*
X033673Y016601D01*
X033607Y016581D01*
X033541Y016557D01*
X033478Y016530D01*
X033415Y016500D01*
X033355Y016466D01*
X033296Y016429D01*
X033240Y016388D01*
X033186Y016345D01*
X033134Y016298D01*
X033085Y016249D01*
X033039Y016197D01*
X032996Y016143D01*
X035676Y016138D02*
X036076Y016138D01*
X036076Y016271D02*
X036076Y016004D01*
X036009Y015811D02*
X035743Y015811D01*
X035676Y015744D01*
X035676Y015544D01*
X036076Y015544D01*
X036076Y015744D01*
X036009Y015811D01*
X035809Y016004D02*
X035676Y016138D01*
X035676Y015351D02*
X035676Y015084D01*
X036076Y015084D01*
X036076Y015351D01*
X035876Y015217D02*
X035876Y015084D01*
X036076Y014890D02*
X036076Y014623D01*
X035676Y014623D01*
X031286Y023883D02*
X031286Y026243D01*
X028706Y026243D01*
X028706Y023883D01*
X028436Y024193D02*
X028436Y024327D01*
X028436Y024260D02*
X028036Y024260D01*
X028036Y024193D02*
X028036Y024327D01*
X028103Y024500D02*
X028369Y024500D01*
X028436Y024567D01*
X028436Y024700D01*
X028369Y024767D01*
X028436Y024961D02*
X028436Y025228D01*
X028436Y025094D02*
X028036Y025094D01*
X028169Y024961D01*
X028103Y024767D02*
X028036Y024700D01*
X028036Y024567D01*
X028103Y024500D01*
X028139Y025879D02*
X027194Y025879D01*
X027194Y026470D01*
X026972Y026353D02*
X026906Y026420D01*
X026972Y026353D02*
X026972Y026220D01*
X026906Y026153D01*
X026639Y026153D01*
X026572Y026220D01*
X026572Y026353D01*
X026639Y026420D01*
X026706Y026614D02*
X026572Y026747D01*
X026972Y026747D01*
X026972Y026614D02*
X026972Y026881D01*
X026906Y027074D02*
X026839Y027074D01*
X026772Y027141D01*
X026772Y027274D01*
X026839Y027341D01*
X026906Y027341D01*
X026972Y027274D01*
X026972Y027141D01*
X026906Y027074D01*
X026772Y027141D02*
X026706Y027074D01*
X026639Y027074D01*
X026572Y027141D01*
X026572Y027274D01*
X026639Y027341D01*
X026706Y027341D01*
X026772Y027274D01*
X027194Y027257D02*
X027194Y027690D01*
X027351Y027848D01*
X027981Y027848D01*
X028139Y027690D01*
X028139Y027257D01*
X028066Y027013D02*
X027266Y027013D01*
X028139Y026470D02*
X028139Y025879D01*
X026883Y029022D02*
X026616Y029022D01*
X026550Y029089D01*
X026550Y029222D01*
X026616Y029289D01*
X026683Y029483D02*
X026550Y029616D01*
X026950Y029616D01*
X026950Y029483D02*
X026950Y029749D01*
X026883Y029943D02*
X026950Y030010D01*
X026950Y030143D01*
X026883Y030210D01*
X026616Y030210D01*
X026550Y030143D01*
X026550Y030010D01*
X026616Y029943D01*
X026683Y029943D01*
X026750Y030010D01*
X026750Y030210D01*
X026284Y030399D02*
X027229Y030399D01*
X027229Y030990D01*
X027156Y031533D02*
X026356Y031533D01*
X026284Y031777D02*
X026284Y032210D01*
X026441Y032368D01*
X027071Y032368D01*
X027229Y032210D01*
X027229Y031777D01*
X026284Y030990D02*
X026284Y030399D01*
X025822Y030141D02*
X025822Y029905D01*
X025350Y029905D02*
X025350Y030141D01*
X025451Y029236D02*
X025851Y029236D01*
X025851Y029103D02*
X025851Y029370D01*
X025584Y029103D02*
X025451Y029236D01*
X025518Y028909D02*
X025451Y028843D01*
X025451Y028709D01*
X025518Y028643D01*
X025518Y028449D02*
X025651Y028449D01*
X025718Y028382D01*
X025718Y028182D01*
X025851Y028182D02*
X025451Y028182D01*
X025451Y028382D01*
X025518Y028449D01*
X025718Y028316D02*
X025851Y028449D01*
X025851Y028643D02*
X025584Y028909D01*
X025518Y028909D01*
X025851Y028909D02*
X025851Y028643D01*
X026883Y029022D02*
X026950Y029089D01*
X026950Y029222D01*
X026883Y029289D01*
X025822Y031465D02*
X025822Y031701D01*
X025350Y031701D02*
X025350Y031465D01*
X025371Y032322D02*
X025371Y032522D01*
X025438Y032589D01*
X025571Y032589D01*
X025638Y032522D01*
X025638Y032322D01*
X025771Y032322D02*
X025371Y032322D01*
X025638Y032456D02*
X025771Y032589D01*
X025771Y032783D02*
X025504Y033049D01*
X025438Y033049D01*
X025371Y032983D01*
X025371Y032849D01*
X025438Y032783D01*
X025771Y032783D02*
X025771Y033049D01*
X025771Y033243D02*
X025504Y033510D01*
X025438Y033510D01*
X025371Y033443D01*
X025371Y033310D01*
X025438Y033243D01*
X025771Y033243D02*
X025771Y033510D01*
X024807Y030861D02*
X024807Y030625D01*
X024335Y030625D02*
X024335Y030861D01*
X024086Y030929D02*
X024086Y030663D01*
X023819Y030929D01*
X023753Y030929D01*
X023686Y030863D01*
X023686Y030729D01*
X023753Y030663D01*
X023753Y030469D02*
X023886Y030469D01*
X023953Y030402D01*
X023953Y030202D01*
X024086Y030202D02*
X023686Y030202D01*
X023686Y030402D01*
X023753Y030469D01*
X023953Y030336D02*
X024086Y030469D01*
X024049Y029910D02*
X024116Y029843D01*
X024116Y029710D01*
X024049Y029643D01*
X023916Y029643D02*
X023849Y029776D01*
X023849Y029843D01*
X023916Y029910D01*
X024049Y029910D01*
X023916Y029643D02*
X023716Y029643D01*
X023716Y029910D01*
X023783Y029449D02*
X023716Y029383D01*
X023716Y029249D01*
X023783Y029183D01*
X023783Y028989D02*
X023916Y028989D01*
X023983Y028922D01*
X023983Y028722D01*
X024116Y028722D02*
X023716Y028722D01*
X023716Y028922D01*
X023783Y028989D01*
X023983Y028856D02*
X024116Y028989D01*
X024116Y029183D02*
X023849Y029449D01*
X023783Y029449D01*
X024116Y029449D02*
X024116Y029183D01*
X024335Y029375D02*
X024335Y029611D01*
X024807Y029611D02*
X024807Y029375D01*
X024019Y031123D02*
X024086Y031190D01*
X024086Y031323D01*
X024019Y031390D01*
X023953Y031390D01*
X023886Y031323D01*
X023886Y031123D01*
X024019Y031123D01*
X023886Y031123D02*
X023753Y031256D01*
X023686Y031390D01*
X022723Y031470D02*
X022657Y031403D01*
X022523Y031403D01*
X022457Y031470D01*
X022590Y031603D02*
X022657Y031603D01*
X022723Y031537D01*
X022723Y031470D01*
X022657Y031603D02*
X022723Y031670D01*
X022723Y031737D01*
X022657Y031804D01*
X022523Y031804D01*
X022457Y031737D01*
X022263Y031804D02*
X022263Y031470D01*
X022196Y031403D01*
X022063Y031403D01*
X021996Y031470D01*
X021996Y031804D01*
X021460Y031356D02*
X021460Y028521D01*
X019413Y028521D01*
X019413Y031356D01*
X021460Y031356D01*
X020979Y030383D02*
X020646Y030383D01*
X020646Y030316D02*
X020646Y030450D01*
X020979Y030383D02*
X021046Y030316D01*
X021046Y030250D01*
X020979Y030183D01*
X021046Y029989D02*
X020913Y029856D01*
X020913Y029923D02*
X020913Y029723D01*
X021046Y029723D02*
X020646Y029723D01*
X020646Y029923D01*
X020713Y029989D01*
X020846Y029989D01*
X020913Y029923D01*
X019649Y030923D02*
X019651Y030950D01*
X019657Y030977D01*
X019666Y031003D01*
X019679Y031027D01*
X019695Y031050D01*
X019714Y031069D01*
X019736Y031086D01*
X019760Y031100D01*
X019785Y031110D01*
X019812Y031117D01*
X019839Y031120D01*
X019867Y031119D01*
X019894Y031114D01*
X019920Y031106D01*
X019944Y031094D01*
X019967Y031078D01*
X019988Y031060D01*
X020005Y031039D01*
X020020Y031015D01*
X020031Y030990D01*
X020039Y030964D01*
X020043Y030937D01*
X020043Y030909D01*
X020039Y030882D01*
X020031Y030856D01*
X020020Y030831D01*
X020005Y030807D01*
X019988Y030786D01*
X019967Y030768D01*
X019945Y030752D01*
X019920Y030740D01*
X019894Y030732D01*
X019867Y030727D01*
X019839Y030726D01*
X019812Y030729D01*
X019785Y030736D01*
X019760Y030746D01*
X019736Y030760D01*
X019714Y030777D01*
X019695Y030796D01*
X019679Y030819D01*
X019666Y030843D01*
X019657Y030869D01*
X019651Y030896D01*
X019649Y030923D01*
X019786Y032573D02*
X019986Y032573D01*
X020786Y032573D02*
X020986Y032573D01*
X021786Y032573D02*
X021986Y032573D01*
X022786Y032573D02*
X022886Y032573D01*
X022886Y032963D01*
X022776Y033073D01*
X022798Y033463D02*
X022731Y033530D01*
X022798Y033463D02*
X022931Y033463D01*
X022998Y033530D01*
X022998Y033663D01*
X022931Y033730D01*
X022864Y033730D01*
X022731Y033663D01*
X022731Y033864D01*
X022998Y033864D01*
X022537Y033797D02*
X022537Y033663D01*
X022471Y033597D01*
X022270Y033597D01*
X022270Y033463D02*
X022270Y033864D01*
X022471Y033864D01*
X022537Y033797D01*
X022077Y033864D02*
X021943Y033864D01*
X022010Y033864D02*
X022010Y033530D01*
X021943Y033463D01*
X021877Y033463D01*
X021810Y033530D01*
X022886Y032573D02*
X022886Y032183D01*
X022776Y032073D01*
X022522Y027779D02*
X022589Y027712D01*
X022589Y027645D01*
X022522Y027578D01*
X022389Y027578D01*
X022322Y027645D01*
X022322Y027712D01*
X022389Y027779D01*
X022522Y027779D01*
X022522Y027578D02*
X022589Y027512D01*
X022589Y027445D01*
X022522Y027378D01*
X022389Y027378D01*
X022322Y027445D01*
X022322Y027512D01*
X022389Y027578D01*
X022128Y027378D02*
X021862Y027378D01*
X021995Y027378D02*
X021995Y027779D01*
X021862Y027645D01*
X021668Y027712D02*
X021668Y027578D01*
X021601Y027512D01*
X021401Y027512D01*
X021535Y027512D02*
X021668Y027378D01*
X021401Y027378D02*
X021401Y027779D01*
X021601Y027779D01*
X021668Y027712D01*
X021224Y026370D02*
X021291Y026303D01*
X021291Y026170D01*
X021224Y026103D01*
X021091Y026236D02*
X021091Y026303D01*
X021158Y026370D01*
X021224Y026370D01*
X021091Y026303D02*
X021024Y026370D01*
X020958Y026370D01*
X020891Y026303D01*
X020891Y026170D01*
X020958Y026103D01*
X021291Y025909D02*
X021291Y025643D01*
X020891Y025643D01*
X021247Y025236D02*
X021247Y024969D01*
X021314Y024775D02*
X021247Y024708D01*
X021247Y024575D01*
X021314Y024508D01*
X021581Y024508D01*
X021647Y024575D01*
X021647Y024708D01*
X021581Y024775D01*
X021581Y024969D02*
X021647Y024969D01*
X021581Y024969D02*
X021314Y025236D01*
X021247Y025236D01*
X021186Y024233D02*
X021029Y024075D01*
X021029Y023642D01*
X021101Y023398D02*
X021901Y023398D01*
X021974Y023642D02*
X021974Y024075D01*
X021816Y024233D01*
X021186Y024233D01*
X021029Y022855D02*
X021029Y022264D01*
X021974Y022264D01*
X021974Y022855D01*
X022270Y022930D02*
X022270Y023166D01*
X022742Y023166D02*
X022742Y022930D01*
X022641Y023797D02*
X022241Y023797D01*
X022241Y023997D01*
X022308Y024064D01*
X022441Y024064D01*
X022508Y023997D01*
X022508Y023797D01*
X022508Y023931D02*
X022641Y024064D01*
X022641Y024258D02*
X022641Y024524D01*
X022641Y024391D02*
X022241Y024391D01*
X022374Y024258D01*
X022374Y024718D02*
X022241Y024851D01*
X022641Y024851D01*
X022641Y024718D02*
X022641Y024985D01*
X023690Y026293D02*
X023957Y026293D01*
X023690Y026293D02*
X023690Y026694D01*
X024151Y026493D02*
X024418Y026493D01*
X024351Y026293D02*
X024351Y026694D01*
X024151Y026493D01*
X020416Y021264D02*
X020483Y021197D01*
X020483Y021130D01*
X020416Y021063D01*
X020483Y020997D01*
X020483Y020930D01*
X020416Y020863D01*
X020283Y020863D01*
X020216Y020930D01*
X020349Y021063D02*
X020416Y021063D01*
X020416Y021264D02*
X020283Y021264D01*
X020216Y021197D01*
X019902Y020374D02*
X019768Y020374D01*
X019702Y020307D01*
X019702Y020240D01*
X019768Y020173D01*
X019968Y020173D01*
X019968Y020040D02*
X019968Y020307D01*
X019902Y020374D01*
X019968Y020040D02*
X019902Y019973D01*
X019768Y019973D01*
X019702Y020040D01*
X019508Y020040D02*
X019441Y019973D01*
X019308Y019973D01*
X019241Y020040D01*
X019241Y020307D01*
X019308Y020374D01*
X019441Y020374D01*
X019508Y020307D01*
X018209Y023853D02*
X018211Y023868D01*
X018217Y023881D01*
X018226Y023893D01*
X018237Y023902D01*
X018251Y023908D01*
X018266Y023910D01*
X018281Y023908D01*
X018294Y023902D01*
X018306Y023893D01*
X018315Y023882D01*
X018321Y023868D01*
X018323Y023853D01*
X018321Y023838D01*
X018315Y023825D01*
X018306Y023813D01*
X018295Y023804D01*
X018281Y023798D01*
X018266Y023796D01*
X018251Y023798D01*
X018238Y023804D01*
X018226Y023813D01*
X018217Y023824D01*
X018211Y023838D01*
X018209Y023853D01*
X017946Y024073D02*
X019366Y024073D01*
X018929Y024607D02*
X018693Y024607D01*
X018693Y025080D02*
X018929Y025080D01*
X018821Y025263D02*
X018888Y025330D01*
X018821Y025263D02*
X018688Y025263D01*
X018621Y025330D01*
X018621Y025597D01*
X018688Y025664D01*
X018821Y025664D01*
X018888Y025597D01*
X019082Y025597D02*
X019148Y025664D01*
X019282Y025664D01*
X019348Y025597D01*
X019348Y025530D01*
X019082Y025263D01*
X019348Y025263D01*
X019542Y025330D02*
X019809Y025597D01*
X019809Y025330D01*
X019742Y025263D01*
X019609Y025263D01*
X019542Y025330D01*
X019542Y025597D01*
X019609Y025664D01*
X019742Y025664D01*
X019809Y025597D01*
X018926Y026583D02*
X018676Y026333D01*
X018176Y026333D01*
X017926Y026583D01*
X017676Y026333D01*
X017176Y026333D01*
X016926Y026583D01*
X016676Y026333D01*
X016176Y026333D01*
X015926Y026583D01*
X015926Y027083D01*
X016176Y027333D01*
X016676Y027333D01*
X016926Y027083D01*
X017176Y027333D01*
X017676Y027333D01*
X017926Y027083D01*
X018176Y027333D01*
X018676Y027333D01*
X018926Y027083D01*
X018926Y026583D01*
X018877Y027503D02*
X018744Y027503D01*
X018677Y027570D01*
X018677Y027703D01*
X018877Y027703D01*
X018944Y027637D01*
X018944Y027570D01*
X018877Y027503D01*
X018677Y027703D02*
X018810Y027837D01*
X018944Y027904D01*
X018483Y027837D02*
X018483Y027703D01*
X018417Y027637D01*
X018217Y027637D01*
X018217Y027503D02*
X018217Y027904D01*
X018417Y027904D01*
X018483Y027837D01*
X018238Y028718D02*
X017972Y028718D01*
X018238Y028985D01*
X018238Y029052D01*
X018172Y029119D01*
X018038Y029119D01*
X017972Y029052D01*
X017778Y029052D02*
X017778Y028785D01*
X017711Y028718D01*
X017578Y028718D01*
X017511Y028785D01*
X017511Y029052D01*
X017578Y029119D01*
X017711Y029119D01*
X017778Y029052D01*
X017645Y028852D02*
X017778Y028718D01*
X017986Y029292D02*
X017986Y029492D01*
X018053Y029559D01*
X018186Y029559D01*
X018253Y029492D01*
X018253Y029292D01*
X018386Y029292D02*
X017986Y029292D01*
X018253Y029426D02*
X018386Y029559D01*
X018386Y029753D02*
X018386Y030019D01*
X018386Y029886D02*
X017986Y029886D01*
X018119Y029753D01*
X018053Y030213D02*
X017986Y030280D01*
X017986Y030413D01*
X018053Y030480D01*
X018319Y030213D01*
X018386Y030280D01*
X018386Y030413D01*
X018319Y030480D01*
X018053Y030480D01*
X018053Y030213D02*
X018319Y030213D01*
X017324Y030037D02*
X017088Y030037D01*
X017088Y029725D02*
X017324Y029725D01*
X017324Y029252D02*
X017088Y029252D01*
X017191Y028828D02*
X016671Y028828D01*
X016671Y027708D01*
X017191Y027708D01*
X017191Y028828D01*
X017890Y027904D02*
X018023Y027904D01*
X017956Y027904D02*
X017956Y027570D01*
X017890Y027503D01*
X017823Y027503D01*
X017756Y027570D01*
X016577Y025096D02*
X016577Y024860D01*
X016105Y024860D02*
X016105Y025096D01*
X015861Y025129D02*
X015861Y024863D01*
X015861Y024996D02*
X015461Y024996D01*
X015594Y024863D01*
X015528Y024669D02*
X015461Y024602D01*
X015461Y024469D01*
X015528Y024402D01*
X015794Y024402D01*
X015861Y024469D01*
X015861Y024602D01*
X015794Y024669D01*
X015861Y025323D02*
X015594Y025590D01*
X015528Y025590D01*
X015461Y025523D01*
X015461Y025390D01*
X015528Y025323D01*
X015861Y025323D02*
X015861Y025590D01*
X015854Y023915D02*
X015788Y023915D01*
X015721Y023848D01*
X015721Y023648D01*
X015854Y023648D01*
X015921Y023715D01*
X015921Y023848D01*
X015854Y023915D01*
X016110Y023871D02*
X016110Y023635D01*
X015921Y023454D02*
X015788Y023321D01*
X015788Y023388D02*
X015788Y023188D01*
X015921Y023188D02*
X015521Y023188D01*
X015521Y023388D01*
X015588Y023454D01*
X015721Y023454D01*
X015788Y023388D01*
X015721Y023648D02*
X015588Y023781D01*
X015521Y023915D01*
X016582Y023871D02*
X016582Y023635D01*
X017396Y024330D02*
X017396Y024664D01*
X017663Y024664D02*
X017663Y024330D01*
X017596Y024263D01*
X017463Y024263D01*
X017396Y024330D01*
X017857Y024263D02*
X018123Y024530D01*
X018123Y024597D01*
X018057Y024664D01*
X017923Y024664D01*
X017857Y024597D01*
X017857Y024263D02*
X018123Y024263D01*
X016001Y022331D02*
X016001Y022064D01*
X016001Y022198D02*
X015601Y022198D01*
X015734Y022064D01*
X017197Y017094D02*
X017197Y016149D01*
X017197Y015519D02*
X017197Y014968D01*
X017197Y014338D02*
X017197Y013590D01*
X009906Y017602D02*
X009773Y017735D01*
X014891Y028008D02*
X014891Y028208D01*
X014958Y028275D01*
X015091Y028275D01*
X015158Y028208D01*
X015158Y028008D01*
X015291Y028008D02*
X014891Y028008D01*
X015158Y028142D02*
X015291Y028275D01*
X015450Y028190D02*
X015450Y028426D01*
X015291Y028669D02*
X014891Y028669D01*
X015091Y028469D01*
X015091Y028736D01*
X015922Y028426D02*
X015922Y028190D01*
X016053Y030118D02*
X015920Y030252D01*
X015986Y030252D02*
X015786Y030252D01*
X015786Y030118D02*
X015786Y030519D01*
X015986Y030519D01*
X016053Y030452D01*
X016053Y030318D01*
X015986Y030252D01*
X016247Y030185D02*
X016247Y030118D01*
X016247Y030185D02*
X016513Y030452D01*
X016513Y030519D01*
X016247Y030519D01*
X017088Y030510D02*
X017324Y030510D01*
X017284Y030832D02*
X017048Y030832D01*
X017048Y031305D02*
X017284Y031305D01*
X017291Y031458D02*
X017358Y031525D01*
X017358Y031592D01*
X017291Y031658D01*
X017091Y031658D01*
X017091Y031525D01*
X017158Y031458D01*
X017291Y031458D01*
X017091Y031658D02*
X017224Y031792D01*
X017358Y031859D01*
X016986Y032033D02*
X016986Y033153D01*
X016466Y033153D01*
X016466Y032033D01*
X016986Y032033D01*
X016764Y031859D02*
X016764Y031458D01*
X016897Y031458D02*
X016630Y031458D01*
X016437Y031458D02*
X016303Y031592D01*
X016370Y031592D02*
X016170Y031592D01*
X016170Y031458D02*
X016170Y031859D01*
X016370Y031859D01*
X016437Y031792D01*
X016437Y031658D01*
X016370Y031592D01*
X016630Y031725D02*
X016764Y031859D01*
X015641Y031794D02*
X015641Y031660D01*
X015574Y031594D01*
X015441Y031727D02*
X015441Y031794D01*
X015508Y031861D01*
X015574Y031861D01*
X015641Y031794D01*
X015441Y031794D02*
X015374Y031861D01*
X015308Y031861D01*
X015241Y031794D01*
X015241Y031660D01*
X015308Y031594D01*
X015308Y031400D02*
X015441Y031400D01*
X015508Y031333D01*
X015508Y031133D01*
X015641Y031133D02*
X015241Y031133D01*
X015241Y031333D01*
X015308Y031400D01*
X015508Y031267D02*
X015641Y031400D01*
X015802Y032465D02*
X015802Y032701D01*
X015330Y032701D02*
X015330Y032465D01*
X016406Y033480D02*
X016473Y033413D01*
X016606Y033413D01*
X016673Y033480D01*
X016673Y033747D01*
X016606Y033814D01*
X016473Y033814D01*
X016406Y033747D01*
X016406Y033480D01*
X016540Y033547D02*
X016673Y033413D01*
X016867Y033413D02*
X017133Y033413D01*
X017000Y033413D02*
X017000Y033814D01*
X016867Y033680D01*
X017361Y034493D02*
X019361Y034493D01*
X018361Y033493D01*
X017361Y034493D01*
X017431Y034473D02*
X017501Y034463D01*
X017491Y034413D01*
X017461Y034433D01*
X017996Y033073D02*
X017886Y032963D01*
X017886Y032573D01*
X017886Y032183D01*
X017996Y032073D01*
X017986Y032573D02*
X017886Y032573D01*
X018786Y032573D02*
X018986Y032573D01*
X019231Y034413D02*
X019291Y034463D01*
X019191Y034463D01*
X019965Y042393D02*
X019965Y042794D01*
X020165Y042794D01*
X020232Y042727D01*
X020232Y042593D01*
X020165Y042527D01*
X019965Y042527D01*
X020098Y042527D02*
X020232Y042393D01*
X020425Y042393D02*
X020692Y042660D01*
X020692Y042727D01*
X020626Y042794D01*
X020492Y042794D01*
X020425Y042727D01*
X020425Y042393D02*
X020692Y042393D01*
X020886Y042393D02*
X020886Y042460D01*
X021153Y042727D01*
X021153Y042794D01*
X020886Y042794D01*
X021246Y042993D02*
X019346Y042993D01*
X019296Y042943D01*
X019146Y042943D01*
X019129Y042945D01*
X019112Y042949D01*
X019096Y042956D01*
X019082Y042966D01*
X019069Y042979D01*
X019059Y042993D01*
X019052Y043009D01*
X019048Y043026D01*
X019046Y043043D01*
X019046Y043743D02*
X019048Y043760D01*
X019052Y043777D01*
X019059Y043793D01*
X019069Y043807D01*
X019082Y043820D01*
X019096Y043830D01*
X019112Y043837D01*
X019129Y043841D01*
X019146Y043843D01*
X019296Y043843D01*
X019346Y043793D01*
X021246Y043793D01*
X021296Y043843D01*
X021446Y043843D01*
X021463Y043841D01*
X021480Y043837D01*
X021496Y043830D01*
X021510Y043820D01*
X021523Y043807D01*
X021533Y043793D01*
X021540Y043777D01*
X021544Y043760D01*
X021546Y043743D01*
X021546Y043043D02*
X021544Y043026D01*
X021540Y043009D01*
X021533Y042993D01*
X021523Y042979D01*
X021510Y042966D01*
X021496Y042956D01*
X021480Y042949D01*
X021463Y042945D01*
X021446Y042943D01*
X021296Y042943D01*
X021246Y042993D01*
X020514Y043157D02*
X020278Y043157D01*
X020353Y043618D02*
X020286Y043685D01*
X020278Y043630D02*
X020514Y043630D01*
X020486Y043618D02*
X020353Y043618D01*
X020486Y043618D02*
X020553Y043685D01*
X020553Y043818D01*
X020486Y043885D01*
X020419Y043885D01*
X020286Y043818D01*
X020286Y044019D01*
X020553Y044019D01*
X020092Y043952D02*
X020092Y043818D01*
X020026Y043752D01*
X019825Y043752D01*
X019825Y043618D02*
X019825Y044019D01*
X020026Y044019D01*
X020092Y043952D01*
X019959Y043752D02*
X020092Y043618D01*
X017251Y051862D02*
X016851Y051862D01*
X016851Y052062D01*
X016918Y052129D01*
X017051Y052129D01*
X017118Y052062D01*
X017118Y051862D01*
X017118Y051996D02*
X017251Y052129D01*
X017251Y052323D02*
X017251Y052589D01*
X017251Y052456D02*
X016851Y052456D01*
X016984Y052323D01*
X016984Y052783D02*
X017051Y052850D01*
X017051Y053050D01*
X017184Y053050D02*
X016918Y053050D01*
X016851Y052983D01*
X016851Y052850D01*
X016918Y052783D01*
X016984Y052783D01*
X017184Y052783D02*
X017251Y052850D01*
X017251Y052983D01*
X017184Y053050D01*
X016606Y052993D02*
X016606Y051993D01*
X016604Y051976D01*
X016600Y051959D01*
X016593Y051943D01*
X016583Y051929D01*
X016570Y051916D01*
X016556Y051906D01*
X016540Y051899D01*
X016523Y051895D01*
X016506Y051893D01*
X015906Y051893D01*
X015889Y051895D01*
X015872Y051899D01*
X015856Y051906D01*
X015842Y051916D01*
X015829Y051929D01*
X015819Y051943D01*
X015812Y051959D01*
X015808Y051976D01*
X015806Y051993D01*
X015806Y052993D01*
X015808Y053010D01*
X015812Y053027D01*
X015819Y053043D01*
X015829Y053057D01*
X015842Y053070D01*
X015856Y053080D01*
X015872Y053087D01*
X015889Y053091D01*
X015906Y053093D01*
X016506Y053093D01*
X016523Y053091D01*
X016540Y053087D01*
X016556Y053080D01*
X016570Y053070D01*
X016583Y053057D01*
X016593Y053043D01*
X016600Y053027D01*
X016604Y053010D01*
X016606Y052993D01*
X016792Y053665D02*
X016792Y053901D01*
X016320Y053901D02*
X016320Y053665D01*
X015992Y053665D02*
X015992Y053901D01*
X015520Y053901D02*
X015520Y053665D01*
X015251Y053794D02*
X015251Y054061D01*
X015251Y053927D02*
X014851Y053927D01*
X014984Y053794D01*
X014918Y053600D02*
X014851Y053533D01*
X014851Y053400D01*
X014918Y053333D01*
X015184Y053333D01*
X015251Y053400D01*
X015251Y053533D01*
X015184Y053600D01*
X015184Y054254D02*
X015251Y054321D01*
X015251Y054454D01*
X015184Y054521D01*
X015051Y054521D01*
X014984Y054454D01*
X014984Y054388D01*
X015051Y054254D01*
X014851Y054254D01*
X014851Y054521D01*
X015656Y055248D02*
X015656Y055649D01*
X015856Y055649D01*
X015923Y055582D01*
X015923Y055448D01*
X015856Y055382D01*
X015656Y055382D01*
X015790Y055382D02*
X015923Y055248D01*
X016117Y055248D02*
X016383Y055515D01*
X016383Y055582D01*
X016317Y055649D01*
X016183Y055649D01*
X016117Y055582D01*
X016117Y055248D02*
X016383Y055248D01*
X016577Y055315D02*
X016844Y055582D01*
X016844Y055315D01*
X016777Y055248D01*
X016644Y055248D01*
X016577Y055315D01*
X016577Y055582D01*
X016644Y055649D01*
X016777Y055649D01*
X016844Y055582D01*
X016274Y055020D02*
X016038Y055020D01*
X016038Y054547D02*
X016274Y054547D01*
X015616Y052913D02*
X015216Y052913D01*
X015416Y052713D01*
X015416Y052980D01*
X015216Y052519D02*
X015216Y052386D01*
X015216Y052453D02*
X015549Y052453D01*
X015616Y052386D01*
X015616Y052319D01*
X015549Y052253D01*
X015549Y052059D02*
X015616Y051992D01*
X015616Y051859D01*
X015549Y051792D01*
X015416Y051859D02*
X015416Y051992D01*
X015483Y052059D01*
X015549Y052059D01*
X015416Y051859D02*
X015349Y051792D01*
X015283Y051792D01*
X015216Y051859D01*
X015216Y051992D01*
X015283Y052059D01*
X017445Y053804D02*
X017445Y055183D01*
X020272Y055183D01*
X020272Y053804D01*
X017445Y053804D01*
X017326Y056483D02*
X018326Y056483D01*
X018343Y056485D01*
X018360Y056489D01*
X018376Y056496D01*
X018390Y056506D01*
X018403Y056519D01*
X018413Y056533D01*
X018420Y056549D01*
X018424Y056566D01*
X018426Y056583D01*
X018426Y057183D01*
X018424Y057200D01*
X018420Y057217D01*
X018413Y057233D01*
X018403Y057247D01*
X018390Y057260D01*
X018376Y057270D01*
X018360Y057277D01*
X018343Y057281D01*
X018326Y057283D01*
X017326Y057283D01*
X017309Y057281D01*
X017292Y057277D01*
X017276Y057270D01*
X017262Y057260D01*
X017249Y057247D01*
X017239Y057233D01*
X017232Y057217D01*
X017228Y057200D01*
X017226Y057183D01*
X017226Y056583D01*
X017228Y056566D01*
X017232Y056549D01*
X017239Y056533D01*
X017249Y056519D01*
X017262Y056506D01*
X017276Y056496D01*
X017292Y056489D01*
X017309Y056485D01*
X017326Y056483D01*
X017443Y057433D02*
X017376Y057500D01*
X017443Y057433D02*
X017576Y057433D01*
X017643Y057500D01*
X017643Y057567D01*
X017576Y057633D01*
X017443Y057633D01*
X017376Y057700D01*
X017376Y057767D01*
X017443Y057834D01*
X017576Y057834D01*
X017643Y057767D01*
X017837Y057500D02*
X017903Y057433D01*
X017970Y057433D01*
X018037Y057500D01*
X018037Y057834D01*
X018103Y057834D02*
X017970Y057834D01*
X018297Y057767D02*
X018364Y057834D01*
X018497Y057834D01*
X018564Y057767D01*
X018564Y057700D01*
X018497Y057633D01*
X018564Y057567D01*
X018564Y057500D01*
X018497Y057433D01*
X018364Y057433D01*
X018297Y057500D01*
X018430Y057633D02*
X018497Y057633D01*
X020327Y055666D02*
X020327Y055332D01*
X020394Y055266D01*
X020528Y055266D01*
X020594Y055332D01*
X020594Y055666D01*
X020788Y055466D02*
X021055Y055466D01*
X020988Y055666D02*
X020788Y055466D01*
X020988Y055266D02*
X020988Y055666D01*
X019878Y054877D02*
X019880Y054898D01*
X019886Y054918D01*
X019895Y054938D01*
X019907Y054955D01*
X019922Y054969D01*
X019940Y054981D01*
X019960Y054989D01*
X019980Y054994D01*
X020001Y054995D01*
X020022Y054992D01*
X020042Y054986D01*
X020061Y054975D01*
X020078Y054962D01*
X020091Y054946D01*
X020102Y054928D01*
X020110Y054908D01*
X020114Y054888D01*
X020114Y054866D01*
X020110Y054846D01*
X020102Y054826D01*
X020091Y054808D01*
X020078Y054792D01*
X020061Y054779D01*
X020042Y054768D01*
X020022Y054762D01*
X020001Y054759D01*
X019980Y054760D01*
X019960Y054765D01*
X019940Y054773D01*
X019922Y054785D01*
X019907Y054799D01*
X019895Y054816D01*
X019886Y054836D01*
X019880Y054856D01*
X019878Y054877D01*
X020784Y054168D02*
X020784Y053577D01*
X020856Y053033D02*
X021656Y053033D01*
X021850Y053052D02*
X021850Y052919D01*
X021916Y052852D01*
X022183Y052852D01*
X022250Y052919D01*
X022250Y053052D01*
X022183Y053119D01*
X022250Y053313D02*
X022250Y053579D01*
X022250Y053446D02*
X021850Y053446D01*
X021983Y053313D01*
X021916Y053119D02*
X021850Y053052D01*
X021729Y052790D02*
X021729Y052357D01*
X021571Y052199D01*
X020941Y052199D01*
X020784Y052357D01*
X020784Y052790D01*
X021729Y053577D02*
X021729Y054168D01*
X020784Y054168D01*
X021850Y054040D02*
X021916Y053906D01*
X022050Y053773D01*
X022050Y053973D01*
X022116Y054040D01*
X022183Y054040D01*
X022250Y053973D01*
X022250Y053840D01*
X022183Y053773D01*
X022050Y053773D01*
X023052Y054006D02*
X023052Y053061D01*
X023642Y053061D01*
X023656Y052777D02*
X023523Y052777D01*
X023456Y052711D01*
X023456Y052444D01*
X023523Y052377D01*
X023656Y052377D01*
X023723Y052444D01*
X023917Y052377D02*
X024183Y052377D01*
X024050Y052377D02*
X024050Y052777D01*
X023917Y052644D01*
X023723Y052711D02*
X023656Y052777D01*
X024186Y053133D02*
X024186Y053933D01*
X024430Y054006D02*
X024863Y054006D01*
X025020Y053848D01*
X025020Y053218D01*
X024863Y053061D01*
X024430Y053061D01*
X024577Y052777D02*
X024377Y052577D01*
X024644Y052577D01*
X024577Y052377D02*
X024577Y052777D01*
X023642Y054006D02*
X023052Y054006D01*
X023095Y056233D02*
X023362Y056233D01*
X023229Y056233D02*
X023229Y056634D01*
X023095Y056500D01*
X022902Y056433D02*
X022835Y056367D01*
X022635Y056367D01*
X022768Y056367D02*
X022902Y056233D01*
X022902Y056433D02*
X022902Y056567D01*
X022835Y056634D01*
X022635Y056634D01*
X022635Y056233D01*
X023556Y056233D02*
X023556Y056300D01*
X023823Y056567D01*
X023823Y056634D01*
X023556Y056634D01*
X024706Y057095D02*
X024773Y057028D01*
X024906Y057028D01*
X024973Y057095D01*
X025167Y057095D02*
X025233Y057028D01*
X025367Y057028D01*
X025433Y057095D01*
X025433Y057162D01*
X025367Y057228D01*
X025167Y057228D01*
X025167Y057095D01*
X025167Y057228D02*
X025300Y057362D01*
X025433Y057429D01*
X024973Y057362D02*
X024906Y057429D01*
X024773Y057429D01*
X024706Y057362D01*
X024706Y057095D01*
X024838Y056890D02*
X025074Y056890D01*
X025074Y056417D02*
X024838Y056417D01*
X027185Y056276D02*
X027185Y058362D01*
X030728Y058362D01*
X030728Y054150D01*
X029901Y054150D01*
X030229Y053764D02*
X030362Y053764D01*
X030296Y053764D02*
X030296Y053430D01*
X030229Y053363D01*
X030162Y053363D01*
X030095Y053430D01*
X030556Y053363D02*
X030823Y053363D01*
X030689Y053363D02*
X030689Y053764D01*
X030556Y053630D01*
X028011Y054150D02*
X027185Y054150D01*
X027185Y054425D01*
X035996Y047643D02*
X035996Y047143D01*
X036246Y046893D01*
X036746Y046893D01*
X036996Y047143D01*
X036996Y047643D01*
X036746Y047893D01*
X036246Y047893D01*
X035996Y047643D01*
X036316Y048187D02*
X036316Y048320D01*
X036316Y048253D02*
X036649Y048253D01*
X036716Y048187D01*
X036716Y048120D01*
X036649Y048053D01*
X036583Y048514D02*
X036583Y048714D01*
X036516Y048781D01*
X036383Y048781D01*
X036316Y048714D01*
X036316Y048514D01*
X036716Y048514D01*
X036716Y048974D02*
X036716Y049241D01*
X036716Y049108D02*
X036316Y049108D01*
X036449Y048974D01*
X036346Y041401D02*
X036346Y041134D01*
X036146Y041334D01*
X036546Y041334D01*
X036346Y040941D02*
X036413Y040874D01*
X036413Y040674D01*
X036546Y040674D02*
X036146Y040674D01*
X036146Y040874D01*
X036213Y040941D01*
X036346Y040941D01*
X036146Y040480D02*
X036146Y040347D01*
X036146Y040413D02*
X036479Y040413D01*
X036546Y040347D01*
X036546Y040280D01*
X036479Y040213D01*
X036236Y039903D02*
X035986Y039653D01*
X035986Y039153D01*
X036236Y038903D01*
X036736Y038903D01*
X036986Y039153D01*
X036986Y039653D01*
X036736Y039903D01*
X036236Y039903D01*
X031286Y032403D02*
X031286Y030043D01*
X028706Y030043D01*
X028706Y032403D01*
X031785Y030784D02*
X031785Y030450D01*
X031852Y030383D01*
X031986Y030383D01*
X032052Y030450D01*
X032052Y030784D01*
X032246Y030583D02*
X032446Y030583D01*
X032513Y030517D01*
X032513Y030450D01*
X032446Y030383D01*
X032313Y030383D01*
X032246Y030450D01*
X032246Y030583D01*
X032379Y030717D01*
X032513Y030784D01*
X032690Y030487D02*
X032690Y030087D01*
X032557Y030087D02*
X032823Y030087D01*
X033017Y030087D02*
X033017Y030154D01*
X033284Y030421D01*
X033284Y030487D01*
X033017Y030487D01*
X032690Y030487D02*
X032557Y030354D01*
X032363Y030421D02*
X032296Y030487D01*
X032163Y030487D01*
X032096Y030421D01*
X032096Y030154D01*
X032163Y030087D01*
X032296Y030087D01*
X032363Y030154D01*
X032679Y029838D02*
X032679Y029247D01*
X032606Y028703D02*
X031806Y028703D01*
X031734Y028460D02*
X031734Y028027D01*
X031891Y027869D01*
X032521Y027869D01*
X032679Y028027D01*
X032679Y028460D01*
X031734Y029247D02*
X031734Y029838D01*
X032679Y029838D01*
D11*
X029996Y029853D03*
X029996Y026433D03*
D12*
X020764Y027554D03*
X020184Y027554D03*
D13*
X018361Y033643D02*
X017611Y034393D01*
X019111Y034393D01*
X019061Y034343D02*
X018561Y033843D01*
X018361Y033643D01*
X018161Y033843D02*
X018561Y033843D01*
X018711Y033993D02*
X018011Y033993D01*
X017811Y034193D02*
X018911Y034193D01*
D14*
X007496Y035393D02*
X007496Y043393D01*
X007496Y051393D01*
X034496Y051393D01*
X034496Y043393D01*
X034496Y035393D01*
X007496Y035393D01*
X007496Y043393D02*
X034496Y043393D01*
D15*
X013734Y055462D02*
X013734Y055869D01*
X013734Y055462D02*
X013530Y055258D01*
X013327Y055462D01*
X013327Y055869D01*
X013034Y055869D02*
X012627Y055869D01*
X012627Y055258D01*
X013034Y055258D01*
X012830Y055564D02*
X012627Y055564D01*
X011634Y055462D02*
X011634Y055360D01*
X011533Y055258D01*
X011329Y055258D01*
X011227Y055360D01*
X011329Y055564D02*
X011227Y055665D01*
X011227Y055767D01*
X011329Y055869D01*
X011533Y055869D01*
X011634Y055767D01*
X011533Y055564D02*
X011634Y055462D01*
X011533Y055564D02*
X011329Y055564D01*
X010935Y055564D02*
X010833Y055462D01*
X010528Y055462D01*
X010528Y055258D02*
X010528Y055869D01*
X010833Y055869D01*
X010935Y055767D01*
X010935Y055564D01*
X010264Y055869D02*
X010061Y055869D01*
X010163Y055869D02*
X010163Y055258D01*
X010264Y055258D02*
X010061Y055258D01*
X009768Y055258D02*
X009361Y055258D01*
X009361Y055360D01*
X009768Y055767D01*
X009768Y055869D01*
X009361Y055869D01*
M02*
