G75*
%MOIN*%
%OFA0B0*%
%FSLAX24Y24*%
%IPPOS*%
%LPD*%
%AMOC8*
5,1,8,0,0,1.08239X$1,22.5*
%
%ADD10C,0.0050*%
D10*
X000500Y000150D02*
X000500Y039150D01*
X027600Y039150D01*
X027600Y038250D01*
X027602Y038211D01*
X027608Y038172D01*
X027617Y038134D01*
X027630Y038097D01*
X027647Y038061D01*
X027667Y038028D01*
X027691Y037996D01*
X027717Y037967D01*
X027746Y037941D01*
X027778Y037917D01*
X027811Y037897D01*
X027847Y037880D01*
X027884Y037867D01*
X027922Y037858D01*
X027961Y037852D01*
X028000Y037850D01*
X028039Y037852D01*
X028078Y037858D01*
X028116Y037867D01*
X028153Y037880D01*
X028189Y037897D01*
X028222Y037917D01*
X028254Y037941D01*
X028283Y037967D01*
X028309Y037996D01*
X028333Y038028D01*
X028353Y038061D01*
X028370Y038097D01*
X028383Y038134D01*
X028392Y038172D01*
X028398Y038211D01*
X028400Y038250D01*
X028400Y039150D01*
X031000Y039150D01*
X031000Y000150D01*
X028400Y000150D01*
X028400Y001150D01*
X028398Y001189D01*
X028392Y001228D01*
X028383Y001266D01*
X028370Y001303D01*
X028353Y001339D01*
X028333Y001372D01*
X028309Y001404D01*
X028283Y001433D01*
X028254Y001459D01*
X028222Y001483D01*
X028189Y001503D01*
X028153Y001520D01*
X028116Y001533D01*
X028078Y001542D01*
X028039Y001548D01*
X028000Y001550D01*
X027961Y001548D01*
X027922Y001542D01*
X027884Y001533D01*
X027847Y001520D01*
X027811Y001503D01*
X027778Y001483D01*
X027746Y001459D01*
X027717Y001433D01*
X027691Y001404D01*
X027667Y001372D01*
X027647Y001339D01*
X027630Y001303D01*
X027617Y001266D01*
X027608Y001228D01*
X027602Y001189D01*
X027600Y001150D01*
X027600Y000150D01*
X000500Y000150D01*
M02*
