G75*
%MOIN*%
%OFA0B0*%
%FSLAX24Y24*%
%IPPOS*%
%LPD*%
%AMOC8*
5,1,8,0,0,1.08239X$1,22.5*
%
%ADD10C,0.0050*%
D10*
X000500Y000180D02*
X000500Y039180D01*
X027600Y039180D01*
X027600Y038280D01*
X027602Y038241D01*
X027608Y038202D01*
X027617Y038164D01*
X027630Y038127D01*
X027647Y038091D01*
X027667Y038058D01*
X027691Y038026D01*
X027717Y037997D01*
X027746Y037971D01*
X027778Y037947D01*
X027811Y037927D01*
X027847Y037910D01*
X027884Y037897D01*
X027922Y037888D01*
X027961Y037882D01*
X028000Y037880D01*
X028039Y037882D01*
X028078Y037888D01*
X028116Y037897D01*
X028153Y037910D01*
X028189Y037927D01*
X028222Y037947D01*
X028254Y037971D01*
X028283Y037997D01*
X028309Y038026D01*
X028333Y038058D01*
X028353Y038091D01*
X028370Y038127D01*
X028383Y038164D01*
X028392Y038202D01*
X028398Y038241D01*
X028400Y038280D01*
X028400Y039180D01*
X031000Y039180D01*
X031000Y000180D01*
X028400Y000180D01*
X028400Y001180D01*
X028398Y001219D01*
X028392Y001258D01*
X028383Y001296D01*
X028370Y001333D01*
X028353Y001369D01*
X028333Y001402D01*
X028309Y001434D01*
X028283Y001463D01*
X028254Y001489D01*
X028222Y001513D01*
X028189Y001533D01*
X028153Y001550D01*
X028116Y001563D01*
X028078Y001572D01*
X028039Y001578D01*
X028000Y001580D01*
X027961Y001578D01*
X027922Y001572D01*
X027884Y001563D01*
X027847Y001550D01*
X027811Y001533D01*
X027778Y001513D01*
X027746Y001489D01*
X027717Y001463D01*
X027691Y001434D01*
X027667Y001402D01*
X027647Y001369D01*
X027630Y001333D01*
X027617Y001296D01*
X027608Y001258D01*
X027602Y001219D01*
X027600Y001180D01*
X027600Y000180D01*
X000500Y000180D01*
M02*
