G75*
%MOIN*%
%OFA0B0*%
%FSLAX24Y24*%
%IPPOS*%
%LPD*%
%AMOC8*
5,1,8,0,0,1.08239X$1,22.5*
%
%ADD10R,0.0551X0.0394*%
%ADD11R,0.0315X0.0472*%
%ADD12R,0.0472X0.0315*%
%ADD13R,0.0500X0.0250*%
%ADD14R,0.0551X0.0709*%
%ADD15R,0.0748X0.0551*%
%ADD16R,0.0591X0.0315*%
%ADD17R,0.0740X0.0740*%
%ADD18OC8,0.0740*%
%ADD19C,0.0740*%
%ADD20C,0.0600*%
%ADD21C,0.0866*%
%ADD22C,0.0669*%
%ADD23R,0.0394X0.0551*%
%ADD24R,0.1600X0.0600*%
%ADD25R,0.5000X0.0700*%
%ADD26R,0.0240X0.0870*%
%ADD27C,0.0396*%
%ADD28R,0.0396X0.0396*%
%ADD29C,0.0240*%
%ADD30C,0.0160*%
%ADD31C,0.0357*%
%ADD32C,0.0080*%
%ADD33C,0.0100*%
%ADD34C,0.0120*%
%ADD35C,0.0320*%
%ADD36C,0.0130*%
%ADD37C,0.0500*%
D10*
X019112Y009096D03*
X019112Y009844D03*
X019112Y010761D03*
X019112Y011509D03*
X019978Y011135D03*
X019978Y009470D03*
D11*
X020741Y009460D03*
X021449Y009460D03*
X021379Y011140D03*
X020671Y011140D03*
X016144Y016645D03*
X015436Y016645D03*
X009179Y019850D03*
X008471Y019850D03*
X019521Y028780D03*
X020229Y028780D03*
X023311Y025980D03*
X024019Y025980D03*
X020774Y033500D03*
X020066Y033500D03*
D12*
X019350Y032679D03*
X019350Y031971D03*
X019745Y030964D03*
X019745Y030256D03*
X018230Y030146D03*
X018230Y030854D03*
X024720Y025199D03*
X024720Y024491D03*
X026385Y024511D03*
X026385Y025219D03*
X029550Y026181D03*
X030205Y026246D03*
X030205Y026954D03*
X029550Y026889D03*
X024100Y017654D03*
X024100Y016946D03*
X022240Y016921D03*
X022240Y017629D03*
X018335Y011469D03*
X018335Y010761D03*
X018385Y009809D03*
X018385Y009101D03*
X022305Y009496D03*
X022305Y010204D03*
X028650Y006364D03*
X028650Y005656D03*
X008130Y030416D03*
X008130Y031124D03*
D13*
X025810Y007037D03*
X025810Y006683D03*
D14*
X024582Y031299D03*
X024582Y033543D03*
D15*
X029760Y034173D03*
X030153Y028996D03*
D16*
X028638Y030830D03*
X028480Y031263D03*
X028638Y031696D03*
X028716Y032130D03*
X028638Y032563D03*
X028716Y032996D03*
X028638Y033429D03*
X028638Y033862D03*
D17*
X021605Y027495D03*
D18*
X021605Y026495D03*
X021605Y025495D03*
X022605Y025495D03*
X022605Y026495D03*
X022605Y027495D03*
D19*
X018440Y029130D03*
X017440Y029130D03*
X016440Y029130D03*
X029875Y004240D03*
X029875Y003100D03*
D20*
X030070Y005460D02*
X029470Y005460D01*
X029570Y006460D02*
X030170Y006460D01*
X030070Y007460D02*
X029470Y007460D01*
X029570Y008460D02*
X030170Y008460D01*
X030070Y009460D02*
X029470Y009460D01*
X027115Y019445D02*
X026515Y019445D01*
X026415Y020445D02*
X027015Y020445D01*
X027115Y021445D02*
X026515Y021445D01*
X029095Y021220D02*
X029095Y021820D01*
X030095Y022220D02*
X030095Y022820D01*
X029095Y023220D02*
X029095Y023820D01*
D21*
X029021Y020118D03*
X029021Y017362D03*
D22*
X030005Y017756D03*
X030005Y019724D03*
D23*
X023079Y008658D03*
X022331Y008658D03*
X022705Y007792D03*
D24*
X029985Y014120D03*
X029985Y016120D03*
D25*
X003100Y016180D03*
X003100Y015180D03*
X003100Y014180D03*
X003100Y013180D03*
X003100Y012180D03*
X003100Y011180D03*
X003100Y010180D03*
X003100Y009180D03*
X003100Y008180D03*
X003100Y007180D03*
X003100Y006180D03*
X003100Y005180D03*
X003100Y004180D03*
X003100Y017180D03*
X003100Y018180D03*
X003100Y019180D03*
X003100Y020180D03*
X003100Y021180D03*
X003100Y022180D03*
X003100Y023180D03*
X003100Y024180D03*
X003100Y025180D03*
X003100Y026180D03*
X003100Y027180D03*
X003100Y028180D03*
X003100Y029180D03*
X003100Y030180D03*
X003100Y031180D03*
X003100Y032180D03*
X003100Y033180D03*
X003100Y034180D03*
X003100Y035180D03*
D26*
X006665Y029530D03*
X007165Y029530D03*
X007665Y029530D03*
X008165Y029530D03*
X008165Y027470D03*
X007665Y027470D03*
X007165Y027470D03*
X006665Y027470D03*
D27*
X005995Y025975D03*
X009820Y027880D03*
X010280Y027420D03*
X010715Y027930D03*
X010280Y028395D03*
X010715Y028910D03*
X011185Y028375D03*
X011590Y027905D03*
X011150Y027390D03*
X012355Y027410D03*
X012895Y027935D03*
X012915Y028515D03*
X012340Y028185D03*
X012350Y028960D03*
X011590Y028920D03*
X009830Y028905D03*
X012410Y031990D03*
X013590Y028585D03*
X013575Y027990D03*
X013650Y027380D03*
X015505Y027880D03*
X017290Y030950D03*
X017160Y033265D03*
X018300Y033560D03*
X018570Y035690D03*
X020350Y031785D03*
X020380Y031255D03*
X021210Y030635D03*
X020910Y029395D03*
X019465Y029460D03*
X024350Y027965D03*
X019040Y022285D03*
X017660Y022155D03*
X016130Y019740D03*
X017095Y019010D03*
X019305Y018980D03*
X021520Y017365D03*
X021505Y016695D03*
X022115Y016310D03*
X022655Y016080D03*
X022400Y015235D03*
X023125Y015255D03*
X024530Y016465D03*
X023650Y018205D03*
X022170Y020955D03*
X025240Y021145D03*
X019985Y015760D03*
X017520Y011930D03*
X020595Y010165D03*
X022770Y006600D03*
X019205Y003440D03*
X017190Y006450D03*
X012705Y007150D03*
X012245Y006150D03*
X011120Y005585D03*
X011075Y003185D03*
X012370Y003145D03*
X009005Y002745D03*
X007680Y003020D03*
X006390Y003630D03*
X006610Y005640D03*
X003655Y003005D03*
X002595Y003010D03*
X001570Y003040D03*
X006950Y012290D03*
X007505Y012060D03*
X006995Y013625D03*
X009075Y019010D03*
X007460Y020445D03*
X012205Y022430D03*
X013135Y020625D03*
X014005Y020270D03*
X014995Y019850D03*
X012160Y015665D03*
X025020Y014520D03*
X028645Y012940D03*
X026610Y006320D03*
X027370Y004835D03*
X005995Y030980D03*
X005205Y032145D03*
X004515Y033070D03*
X006015Y033290D03*
X014255Y036610D03*
X014580Y037145D03*
D28*
X029575Y016090D03*
X029565Y014030D03*
D29*
X029895Y014030D01*
X029985Y014120D01*
X029985Y016120D02*
X029605Y016120D01*
X029575Y016090D01*
X016990Y022345D02*
X013750Y022345D01*
X013510Y022105D01*
X010900Y021395D02*
X010410Y020905D01*
X010410Y019275D01*
X010165Y019030D01*
X009730Y019030D01*
X009120Y019030D01*
X009075Y019010D02*
X009310Y018775D01*
X009310Y015745D01*
X009300Y015735D02*
X009300Y013685D01*
X009120Y013505D01*
X007830Y013505D01*
X007540Y013215D01*
X007540Y012095D01*
D30*
X001005Y003650D02*
X001005Y000685D01*
X027095Y000685D01*
X027095Y001340D01*
X027204Y001639D01*
X027204Y001639D01*
X027409Y001884D01*
X027409Y001884D01*
X027686Y002044D01*
X027686Y002044D01*
X028000Y002099D01*
X028000Y002099D01*
X028314Y002044D01*
X028314Y002044D01*
X028591Y001884D01*
X028591Y001884D01*
X028591Y001884D01*
X028796Y001639D01*
X028796Y001639D01*
X028905Y001340D01*
X028905Y000685D01*
X030495Y000685D01*
X030495Y005284D01*
X030460Y005199D01*
X030331Y005070D01*
X030161Y005000D01*
X029378Y005000D01*
X029209Y005070D01*
X029104Y005175D01*
X028653Y005175D01*
X028530Y005298D01*
X028490Y005338D01*
X028348Y005338D01*
X028254Y005432D01*
X028254Y005879D01*
X028348Y005973D01*
X028952Y005973D01*
X029046Y005879D01*
X029046Y005639D01*
X029080Y005721D01*
X029209Y005850D01*
X029378Y005920D01*
X030161Y005920D01*
X030331Y005850D01*
X030460Y005721D01*
X030495Y005636D01*
X030495Y006134D01*
X030431Y006070D01*
X030261Y006000D01*
X029478Y006000D01*
X029309Y006070D01*
X029180Y006199D01*
X029151Y006270D01*
X029046Y006270D01*
X029046Y006141D01*
X028952Y006047D01*
X028348Y006047D01*
X028254Y006141D01*
X028254Y006588D01*
X028348Y006682D01*
X028545Y006682D01*
X028545Y007288D01*
X028155Y007678D01*
X028155Y009473D01*
X027953Y009675D01*
X022701Y009675D01*
X022701Y009272D01*
X022607Y009178D01*
X022541Y009178D01*
X022541Y009094D01*
X022594Y009094D01*
X022688Y009000D01*
X022688Y008316D01*
X022599Y008228D01*
X022791Y008228D01*
X022772Y008238D01*
X022738Y008272D01*
X022714Y008313D01*
X022702Y008359D01*
X022702Y008640D01*
X023061Y008640D01*
X023061Y008676D01*
X022702Y008676D01*
X022702Y008957D01*
X022714Y009003D01*
X022738Y009044D01*
X022772Y009078D01*
X022813Y009101D01*
X022858Y009114D01*
X023061Y009114D01*
X023061Y008677D01*
X023097Y008677D01*
X023097Y009114D01*
X023300Y009114D01*
X023345Y009101D01*
X023386Y009078D01*
X023420Y009044D01*
X023444Y009003D01*
X023456Y008957D01*
X023456Y008676D01*
X023097Y008676D01*
X023097Y008640D01*
X023097Y008202D01*
X023300Y008202D01*
X023345Y008215D01*
X023386Y008238D01*
X023420Y008272D01*
X023444Y008313D01*
X023456Y008359D01*
X023456Y008640D01*
X023097Y008640D01*
X023061Y008640D01*
X023061Y008202D01*
X022993Y008202D01*
X023062Y008134D01*
X023062Y007450D01*
X022968Y007356D01*
X022915Y007356D01*
X022915Y006928D01*
X022973Y006904D01*
X023074Y006803D01*
X023128Y006671D01*
X023128Y006529D01*
X023074Y006397D01*
X022973Y006296D01*
X022880Y006258D01*
X022880Y004884D01*
X023284Y004480D01*
X029401Y004480D01*
X029426Y004540D01*
X029575Y004689D01*
X029770Y004770D01*
X029980Y004770D01*
X030175Y004689D01*
X030324Y004540D01*
X030405Y004345D01*
X030405Y004135D01*
X030324Y003940D01*
X030175Y003791D01*
X029980Y003710D01*
X029770Y003710D01*
X029575Y003791D01*
X029426Y003940D01*
X029401Y004000D01*
X023137Y004000D01*
X023049Y004037D01*
X022504Y004582D01*
X022437Y004649D01*
X022400Y004737D01*
X022400Y006518D01*
X022412Y006546D01*
X022412Y006671D01*
X022466Y006803D01*
X022495Y006831D01*
X022495Y007356D01*
X022442Y007356D01*
X022348Y007450D01*
X022348Y008134D01*
X022437Y008222D01*
X022068Y008222D01*
X021974Y008316D01*
X021974Y009000D01*
X022068Y009094D01*
X022121Y009094D01*
X022121Y009178D01*
X022003Y009178D01*
X021909Y009272D01*
X021909Y009675D01*
X021767Y009675D01*
X021767Y009158D01*
X021673Y009064D01*
X021226Y009064D01*
X021132Y009158D01*
X021132Y009380D01*
X021058Y009306D01*
X021058Y009158D01*
X020964Y009064D01*
X020517Y009064D01*
X020423Y009158D01*
X020423Y009250D01*
X020414Y009250D01*
X020414Y009207D01*
X020320Y009113D01*
X019636Y009113D01*
X019548Y009202D01*
X019548Y008833D01*
X019454Y008739D01*
X019445Y008739D01*
X019445Y003706D01*
X019509Y003643D01*
X019563Y003511D01*
X019563Y003369D01*
X019509Y003237D01*
X019488Y003216D01*
X019476Y003189D01*
X019369Y003081D01*
X019051Y002764D01*
X018961Y002674D01*
X018844Y002625D01*
X013808Y002625D01*
X013429Y002246D01*
X013411Y002204D01*
X013156Y001949D01*
X013039Y001900D01*
X006656Y001900D01*
X006539Y001949D01*
X005829Y002659D01*
X005829Y002659D01*
X005739Y002749D01*
X005707Y002826D01*
X005644Y002889D01*
X005595Y003006D01*
X005595Y003650D01*
X003180Y003650D01*
X003180Y004100D01*
X003020Y004100D01*
X003020Y003650D01*
X001005Y003650D01*
X001005Y003591D02*
X005595Y003591D01*
X005595Y003432D02*
X001005Y003432D01*
X001005Y003274D02*
X005595Y003274D01*
X005595Y003115D02*
X001005Y003115D01*
X001005Y002957D02*
X005616Y002957D01*
X005718Y002798D02*
X001005Y002798D01*
X001005Y002640D02*
X005848Y002640D01*
X006006Y002481D02*
X001005Y002481D01*
X001005Y002323D02*
X006165Y002323D01*
X006323Y002164D02*
X001005Y002164D01*
X001005Y002006D02*
X006482Y002006D01*
X006990Y002785D02*
X006491Y003284D01*
X006593Y003326D01*
X006694Y003427D01*
X006743Y003546D01*
X007099Y003190D01*
X007281Y003190D01*
X008635Y003190D01*
X008635Y003189D01*
X008764Y003060D01*
X008785Y003039D01*
X008785Y003031D01*
X008701Y002948D01*
X008647Y002816D01*
X008647Y002785D01*
X006990Y002785D01*
X006977Y002798D02*
X008647Y002798D01*
X008710Y002957D02*
X006818Y002957D01*
X006660Y003115D02*
X008709Y003115D01*
X009019Y003432D02*
X010816Y003432D01*
X010835Y003451D02*
X010771Y003388D01*
X010717Y003256D01*
X010717Y003114D01*
X010771Y002982D01*
X010872Y002881D01*
X011004Y002827D01*
X011146Y002827D01*
X011278Y002881D01*
X011379Y002982D01*
X011433Y003114D01*
X011433Y003256D01*
X011379Y003388D01*
X011315Y003451D01*
X011315Y005278D01*
X011323Y005281D01*
X011424Y005382D01*
X011478Y005514D01*
X011478Y005564D01*
X012040Y005002D01*
X012157Y004885D01*
X013305Y004885D01*
X013305Y003240D01*
X012850Y002785D01*
X009363Y002785D01*
X009363Y002816D01*
X009309Y002948D01*
X009225Y003031D01*
X009225Y003221D01*
X009075Y003371D01*
X009075Y003376D01*
X008950Y003501D01*
X008821Y003630D01*
X007281Y003630D01*
X006780Y004131D01*
X006780Y005809D01*
X007356Y006385D01*
X007485Y006514D01*
X007485Y011702D01*
X007576Y011702D01*
X007708Y011756D01*
X007809Y011857D01*
X007863Y011989D01*
X007863Y012131D01*
X007820Y012235D01*
X007820Y013080D01*
X010740Y013080D01*
X010740Y012642D01*
X011760Y011622D01*
X011760Y008118D01*
X011267Y007625D01*
X011150Y007508D01*
X011150Y005943D01*
X011049Y005943D01*
X010917Y005889D01*
X010816Y005788D01*
X010762Y005656D01*
X010762Y005514D01*
X010816Y005382D01*
X010835Y005364D01*
X010835Y003451D01*
X010835Y003591D02*
X008861Y003591D01*
X009173Y003274D02*
X010724Y003274D01*
X010717Y003115D02*
X009225Y003115D01*
X009300Y002957D02*
X010797Y002957D01*
X011075Y003185D02*
X011075Y005540D01*
X011120Y005585D01*
X011375Y005334D02*
X011708Y005334D01*
X011550Y005493D02*
X011469Y005493D01*
X011315Y005176D02*
X011867Y005176D01*
X012025Y005017D02*
X011315Y005017D01*
X011315Y004859D02*
X013305Y004859D01*
X013305Y004700D02*
X011315Y004700D01*
X011315Y004542D02*
X013305Y004542D01*
X013305Y004383D02*
X011315Y004383D01*
X011315Y004225D02*
X013305Y004225D01*
X013305Y004066D02*
X011315Y004066D01*
X011315Y003908D02*
X013305Y003908D01*
X013305Y003749D02*
X011315Y003749D01*
X011315Y003591D02*
X013305Y003591D01*
X013305Y003432D02*
X011334Y003432D01*
X011426Y003274D02*
X013305Y003274D01*
X013180Y003115D02*
X011433Y003115D01*
X011353Y002957D02*
X013022Y002957D01*
X012863Y002798D02*
X009363Y002798D01*
X010835Y003749D02*
X007162Y003749D01*
X007004Y003908D02*
X010835Y003908D01*
X010835Y004066D02*
X006845Y004066D01*
X006780Y004225D02*
X010835Y004225D01*
X010835Y004383D02*
X006780Y004383D01*
X006780Y004542D02*
X010835Y004542D01*
X010835Y004700D02*
X006780Y004700D01*
X006780Y004859D02*
X010835Y004859D01*
X010835Y005017D02*
X006780Y005017D01*
X006780Y005176D02*
X010835Y005176D01*
X010835Y005334D02*
X006780Y005334D01*
X006780Y005493D02*
X010771Y005493D01*
X010762Y005651D02*
X006780Y005651D01*
X006781Y005810D02*
X010838Y005810D01*
X011150Y005968D02*
X006939Y005968D01*
X007098Y006127D02*
X011150Y006127D01*
X011150Y006285D02*
X007256Y006285D01*
X007415Y006444D02*
X011150Y006444D01*
X011150Y006602D02*
X007485Y006602D01*
X007485Y006761D02*
X011150Y006761D01*
X011150Y006919D02*
X007485Y006919D01*
X007485Y007078D02*
X011150Y007078D01*
X011150Y007236D02*
X007485Y007236D01*
X007485Y007395D02*
X011150Y007395D01*
X011195Y007553D02*
X007485Y007553D01*
X007485Y007712D02*
X011354Y007712D01*
X011512Y007870D02*
X007485Y007870D01*
X007485Y008029D02*
X011671Y008029D01*
X011760Y008187D02*
X007485Y008187D01*
X007485Y008346D02*
X011760Y008346D01*
X011760Y008504D02*
X007485Y008504D01*
X007485Y008663D02*
X011760Y008663D01*
X011760Y008821D02*
X007485Y008821D01*
X007485Y008980D02*
X011760Y008980D01*
X011760Y009138D02*
X007485Y009138D01*
X007485Y009297D02*
X011760Y009297D01*
X011760Y009455D02*
X007485Y009455D01*
X007485Y009614D02*
X011760Y009614D01*
X011760Y009772D02*
X007485Y009772D01*
X007485Y009931D02*
X011760Y009931D01*
X011760Y010089D02*
X007485Y010089D01*
X007485Y010248D02*
X011760Y010248D01*
X011760Y010406D02*
X007485Y010406D01*
X007485Y010565D02*
X011760Y010565D01*
X011760Y010723D02*
X007485Y010723D01*
X007485Y010882D02*
X011760Y010882D01*
X011760Y011040D02*
X007485Y011040D01*
X007485Y011199D02*
X011760Y011199D01*
X011760Y011357D02*
X007485Y011357D01*
X007485Y011516D02*
X011760Y011516D01*
X011708Y011674D02*
X007485Y011674D01*
X007784Y011833D02*
X011550Y011833D01*
X011391Y011991D02*
X007863Y011991D01*
X007856Y012150D02*
X011233Y012150D01*
X011074Y012308D02*
X007820Y012308D01*
X007820Y012467D02*
X010916Y012467D01*
X010757Y012625D02*
X007820Y012625D01*
X007820Y012784D02*
X010740Y012784D01*
X010740Y012942D02*
X007820Y012942D01*
X006975Y012942D02*
X006235Y012942D01*
X006235Y012784D02*
X006975Y012784D01*
X006975Y012648D02*
X006975Y013043D01*
X006516Y013502D01*
X006490Y013510D01*
X006470Y013548D01*
X006425Y013593D01*
X006425Y013633D01*
X006409Y013664D01*
X006425Y013717D01*
X006425Y013772D01*
X006450Y013797D01*
X006465Y013847D01*
X006465Y013902D01*
X006480Y013917D01*
X006480Y020022D01*
X006478Y020107D01*
X006480Y020109D01*
X006480Y020112D01*
X006540Y020172D01*
X007260Y020929D01*
X007260Y020932D01*
X007320Y020992D01*
X007378Y021053D01*
X007381Y021053D01*
X007383Y021055D01*
X007468Y021055D01*
X007552Y021057D01*
X007554Y021055D01*
X010167Y021050D01*
X010173Y021064D01*
X010562Y021453D01*
X010562Y021462D01*
X010613Y021587D01*
X010708Y021682D01*
X010833Y021733D01*
X010967Y021733D01*
X011092Y021682D01*
X011187Y021587D01*
X011238Y021462D01*
X011238Y021328D01*
X011187Y021203D01*
X011092Y021108D01*
X010967Y021057D01*
X010958Y021057D01*
X010949Y021048D01*
X014819Y021040D01*
X014817Y022065D01*
X013866Y022065D01*
X013848Y022047D01*
X013848Y022038D01*
X013797Y021913D01*
X013702Y021818D01*
X013577Y021767D01*
X013443Y021767D01*
X013318Y021818D01*
X013223Y021913D01*
X013172Y022038D01*
X013172Y022172D01*
X013223Y022297D01*
X013318Y022392D01*
X013443Y022443D01*
X013452Y022443D01*
X013591Y022582D01*
X013694Y022625D01*
X014815Y022625D01*
X014814Y023134D01*
X014273Y023675D01*
X014150Y023798D01*
X014150Y026323D01*
X013820Y025993D01*
X013697Y025870D01*
X012622Y025870D01*
X012545Y025793D01*
X012540Y022731D01*
X012557Y022684D01*
X012540Y022648D01*
X012540Y022608D01*
X012525Y022593D01*
X012563Y022501D01*
X012563Y022359D01*
X012509Y022227D01*
X012408Y022126D01*
X012276Y022072D01*
X012134Y022072D01*
X012002Y022126D01*
X011901Y022227D01*
X011847Y022359D01*
X011847Y022501D01*
X011901Y022633D01*
X012002Y022734D01*
X012120Y022782D01*
X012125Y025880D01*
X012125Y025967D01*
X012125Y025967D01*
X012125Y025967D01*
X012187Y026029D01*
X012448Y026290D01*
X013523Y026290D01*
X013801Y026568D01*
X013758Y026550D01*
X010635Y026550D01*
X010635Y026036D01*
X010586Y025919D01*
X010496Y025829D01*
X010126Y025459D01*
X010009Y025410D01*
X006883Y025410D01*
X006235Y024762D01*
X006235Y006267D01*
X006243Y006275D01*
X006740Y006772D01*
X006740Y011994D01*
X006646Y012087D01*
X006592Y012219D01*
X006592Y012361D01*
X006646Y012493D01*
X006747Y012594D01*
X006879Y012648D01*
X006975Y012648D01*
X006823Y012625D02*
X006235Y012625D01*
X006235Y012467D02*
X006636Y012467D01*
X006592Y012308D02*
X006235Y012308D01*
X006235Y012150D02*
X006621Y012150D01*
X006740Y011991D02*
X006235Y011991D01*
X006235Y011833D02*
X006740Y011833D01*
X006740Y011674D02*
X006235Y011674D01*
X006235Y011516D02*
X006740Y011516D01*
X006740Y011357D02*
X006235Y011357D01*
X006235Y011199D02*
X006740Y011199D01*
X006740Y011040D02*
X006235Y011040D01*
X006235Y010882D02*
X006740Y010882D01*
X006740Y010723D02*
X006235Y010723D01*
X006235Y010565D02*
X006740Y010565D01*
X006740Y010406D02*
X006235Y010406D01*
X006235Y010248D02*
X006740Y010248D01*
X006740Y010089D02*
X006235Y010089D01*
X006235Y009931D02*
X006740Y009931D01*
X006740Y009772D02*
X006235Y009772D01*
X006235Y009614D02*
X006740Y009614D01*
X006740Y009455D02*
X006235Y009455D01*
X006235Y009297D02*
X006740Y009297D01*
X006740Y009138D02*
X006235Y009138D01*
X006235Y008980D02*
X006740Y008980D01*
X006740Y008821D02*
X006235Y008821D01*
X006235Y008663D02*
X006740Y008663D01*
X006740Y008504D02*
X006235Y008504D01*
X006235Y008346D02*
X006740Y008346D01*
X006740Y008187D02*
X006235Y008187D01*
X006235Y008029D02*
X006740Y008029D01*
X006740Y007870D02*
X006235Y007870D01*
X006235Y007712D02*
X006740Y007712D01*
X006740Y007553D02*
X006235Y007553D01*
X006235Y007395D02*
X006740Y007395D01*
X006740Y007236D02*
X006235Y007236D01*
X006235Y007078D02*
X006740Y007078D01*
X006740Y006919D02*
X006235Y006919D01*
X006235Y006761D02*
X006729Y006761D01*
X006570Y006602D02*
X006235Y006602D01*
X006235Y006444D02*
X006412Y006444D01*
X006253Y006285D02*
X006235Y006285D01*
X006696Y003432D02*
X006857Y003432D01*
X007015Y003274D02*
X006501Y003274D01*
X003180Y003749D02*
X003020Y003749D01*
X003020Y003908D02*
X003180Y003908D01*
X003180Y004066D02*
X003020Y004066D01*
X003020Y004260D02*
X003020Y004710D01*
X003020Y005100D01*
X003180Y005100D01*
X003180Y004260D01*
X003020Y004260D01*
X003020Y004383D02*
X003180Y004383D01*
X003180Y004542D02*
X003020Y004542D01*
X003020Y004700D02*
X003180Y004700D01*
X003180Y004859D02*
X003020Y004859D01*
X003020Y005017D02*
X003180Y005017D01*
X001005Y001847D02*
X027378Y001847D01*
X027245Y001689D02*
X001005Y001689D01*
X001005Y001530D02*
X027164Y001530D01*
X027107Y001372D02*
X001005Y001372D01*
X001005Y001213D02*
X027095Y001213D01*
X027095Y001055D02*
X001005Y001055D01*
X001005Y000896D02*
X027095Y000896D01*
X027095Y000738D02*
X001005Y000738D01*
X006235Y013101D02*
X006917Y013101D01*
X006759Y013259D02*
X006235Y013259D01*
X006235Y013418D02*
X006600Y013418D01*
X006442Y013576D02*
X006235Y013576D01*
X006235Y013735D02*
X006425Y013735D01*
X006465Y013893D02*
X006235Y013893D01*
X006235Y014052D02*
X006480Y014052D01*
X006480Y014210D02*
X006235Y014210D01*
X006235Y014369D02*
X006480Y014369D01*
X006480Y014527D02*
X006235Y014527D01*
X006235Y014686D02*
X006480Y014686D01*
X006480Y014844D02*
X006235Y014844D01*
X006235Y015003D02*
X006480Y015003D01*
X006480Y015161D02*
X006235Y015161D01*
X006235Y015320D02*
X006480Y015320D01*
X006480Y015478D02*
X006235Y015478D01*
X006235Y015637D02*
X006480Y015637D01*
X006480Y015795D02*
X006235Y015795D01*
X006235Y015954D02*
X006480Y015954D01*
X006480Y016112D02*
X006235Y016112D01*
X006235Y016271D02*
X006480Y016271D01*
X006480Y016429D02*
X006235Y016429D01*
X006235Y016588D02*
X006480Y016588D01*
X006480Y016746D02*
X006235Y016746D01*
X006235Y016905D02*
X006480Y016905D01*
X006480Y017063D02*
X006235Y017063D01*
X006235Y017222D02*
X006480Y017222D01*
X006480Y017380D02*
X006235Y017380D01*
X006235Y017539D02*
X006480Y017539D01*
X006480Y017697D02*
X006235Y017697D01*
X006235Y017856D02*
X006480Y017856D01*
X006480Y018014D02*
X006235Y018014D01*
X006235Y018173D02*
X006480Y018173D01*
X006480Y018331D02*
X006235Y018331D01*
X006235Y018490D02*
X006480Y018490D01*
X006480Y018648D02*
X006235Y018648D01*
X006235Y018807D02*
X006480Y018807D01*
X006480Y018965D02*
X006235Y018965D01*
X006235Y019124D02*
X006480Y019124D01*
X006480Y019282D02*
X006235Y019282D01*
X006235Y019441D02*
X006480Y019441D01*
X006480Y019599D02*
X006235Y019599D01*
X006235Y019758D02*
X006480Y019758D01*
X006480Y019916D02*
X006235Y019916D01*
X006235Y020075D02*
X006479Y020075D01*
X006598Y020233D02*
X006235Y020233D01*
X006235Y020392D02*
X006749Y020392D01*
X006900Y020550D02*
X006235Y020550D01*
X006235Y020709D02*
X007050Y020709D01*
X007201Y020867D02*
X006235Y020867D01*
X006235Y021026D02*
X007352Y021026D01*
X006235Y021184D02*
X010293Y021184D01*
X010452Y021343D02*
X006235Y021343D01*
X006235Y021501D02*
X010578Y021501D01*
X010686Y021660D02*
X006235Y021660D01*
X006235Y021818D02*
X013318Y021818D01*
X013197Y021977D02*
X006235Y021977D01*
X006235Y022135D02*
X011994Y022135D01*
X011874Y022294D02*
X006235Y022294D01*
X006235Y022452D02*
X011847Y022452D01*
X011892Y022611D02*
X006235Y022611D01*
X006235Y022769D02*
X012088Y022769D01*
X012120Y022928D02*
X006235Y022928D01*
X006235Y023086D02*
X012121Y023086D01*
X012121Y023245D02*
X006235Y023245D01*
X006235Y023403D02*
X012121Y023403D01*
X012121Y023562D02*
X006235Y023562D01*
X006235Y023720D02*
X012122Y023720D01*
X012122Y023879D02*
X006235Y023879D01*
X006235Y024037D02*
X012122Y024037D01*
X012122Y024196D02*
X006235Y024196D01*
X006235Y024354D02*
X012123Y024354D01*
X012123Y024513D02*
X006235Y024513D01*
X006235Y024671D02*
X012123Y024671D01*
X012123Y024830D02*
X006302Y024830D01*
X006461Y024988D02*
X012124Y024988D01*
X012124Y025147D02*
X006619Y025147D01*
X006778Y025305D02*
X012124Y025305D01*
X012124Y025464D02*
X010131Y025464D01*
X010290Y025622D02*
X012125Y025622D01*
X012125Y025781D02*
X010448Y025781D01*
X010595Y025939D02*
X012125Y025939D01*
X012256Y026098D02*
X010635Y026098D01*
X010635Y026256D02*
X012414Y026256D01*
X012545Y025781D02*
X014150Y025781D01*
X014150Y025939D02*
X013766Y025939D01*
X013925Y026098D02*
X014150Y026098D01*
X014150Y026256D02*
X014083Y026256D01*
X013710Y026790D02*
X013890Y026970D01*
X013890Y028985D01*
X013575Y029300D01*
X009605Y029300D01*
X009450Y029145D01*
X009450Y028138D01*
X009375Y028063D01*
X009380Y026890D01*
X009480Y026790D01*
X013710Y026790D01*
X013810Y026890D02*
X009380Y026890D01*
X009379Y027049D02*
X013890Y027049D01*
X013890Y027207D02*
X009379Y027207D01*
X009378Y027366D02*
X013890Y027366D01*
X013890Y027524D02*
X009377Y027524D01*
X009376Y027683D02*
X013890Y027683D01*
X013890Y027841D02*
X009376Y027841D01*
X009375Y028000D02*
X013890Y028000D01*
X013890Y028158D02*
X009450Y028158D01*
X009450Y028317D02*
X013890Y028317D01*
X013890Y028475D02*
X009450Y028475D01*
X009450Y028634D02*
X013890Y028634D01*
X013890Y028792D02*
X009450Y028792D01*
X009450Y028951D02*
X013890Y028951D01*
X013766Y029109D02*
X009450Y029109D01*
X009573Y029268D02*
X013607Y029268D01*
X013490Y029540D02*
X009557Y029540D01*
X009469Y029503D01*
X009450Y029484D01*
X009450Y037088D01*
X009597Y037235D01*
X013843Y037235D01*
X013613Y037005D01*
X013490Y036882D01*
X013490Y029540D01*
X013490Y029585D02*
X009450Y029585D01*
X009450Y029743D02*
X013490Y029743D01*
X013490Y029902D02*
X009450Y029902D01*
X009450Y030060D02*
X013490Y030060D01*
X013490Y030219D02*
X009450Y030219D01*
X009450Y030377D02*
X013490Y030377D01*
X013490Y030536D02*
X009450Y030536D01*
X009450Y030694D02*
X013490Y030694D01*
X013490Y030853D02*
X009450Y030853D01*
X009450Y031011D02*
X013490Y031011D01*
X013490Y031170D02*
X009450Y031170D01*
X009450Y031328D02*
X013490Y031328D01*
X013490Y031487D02*
X009450Y031487D01*
X009450Y031645D02*
X013490Y031645D01*
X013490Y031804D02*
X009450Y031804D01*
X009450Y031962D02*
X013490Y031962D01*
X013490Y032121D02*
X009450Y032121D01*
X009450Y032279D02*
X013490Y032279D01*
X013490Y032438D02*
X009450Y032438D01*
X009450Y032596D02*
X013490Y032596D01*
X013490Y032755D02*
X009450Y032755D01*
X009450Y032913D02*
X013490Y032913D01*
X013490Y033072D02*
X009450Y033072D01*
X009450Y033230D02*
X013490Y033230D01*
X013490Y033389D02*
X009450Y033389D01*
X009450Y033547D02*
X013490Y033547D01*
X013490Y033706D02*
X009450Y033706D01*
X009450Y033864D02*
X013490Y033864D01*
X013490Y034023D02*
X009450Y034023D01*
X009450Y034181D02*
X013490Y034181D01*
X013490Y034340D02*
X009450Y034340D01*
X009450Y034498D02*
X013490Y034498D01*
X013490Y034657D02*
X009450Y034657D01*
X009450Y034815D02*
X013490Y034815D01*
X013490Y034974D02*
X009450Y034974D01*
X009450Y035132D02*
X013490Y035132D01*
X013490Y035291D02*
X009450Y035291D01*
X009450Y035449D02*
X013490Y035449D01*
X013490Y035608D02*
X009450Y035608D01*
X009450Y035766D02*
X013490Y035766D01*
X013490Y035925D02*
X009450Y035925D01*
X009450Y036083D02*
X013490Y036083D01*
X013490Y036242D02*
X009450Y036242D01*
X009450Y036400D02*
X013490Y036400D01*
X013490Y036559D02*
X009450Y036559D01*
X009450Y036717D02*
X013490Y036717D01*
X013490Y036876D02*
X009450Y036876D01*
X009450Y037034D02*
X013642Y037034D01*
X013801Y037193D02*
X009555Y037193D01*
X008673Y037985D02*
X001005Y037985D01*
X001005Y037827D02*
X008515Y037827D01*
X008356Y037668D02*
X001005Y037668D01*
X001005Y037510D02*
X008340Y037510D01*
X008340Y037652D02*
X008340Y031462D01*
X008130Y031462D01*
X007870Y031462D01*
X007870Y031462D01*
X007870Y031802D01*
X007747Y031925D01*
X007317Y032355D01*
X005760Y032355D01*
X005760Y032596D01*
X008340Y032596D01*
X008340Y032438D02*
X005760Y032438D01*
X005760Y032596D02*
X005676Y032680D01*
X005760Y032764D01*
X005760Y033596D01*
X005676Y033680D01*
X005760Y033764D01*
X005760Y033770D01*
X005947Y033770D01*
X006097Y033832D01*
X006212Y033947D01*
X006328Y034063D01*
X006390Y034213D01*
X006390Y035007D01*
X006430Y035103D01*
X006430Y035267D01*
X006368Y035417D01*
X006252Y035533D01*
X006102Y035595D01*
X005938Y035595D01*
X005926Y035590D01*
X005760Y035590D01*
X005760Y035596D01*
X005666Y035690D01*
X001005Y035690D01*
X001005Y038675D01*
X027095Y038675D01*
X027095Y038120D01*
X027204Y037821D01*
X027204Y037821D01*
X027409Y037576D01*
X027409Y037576D01*
X027409Y037576D01*
X027686Y037416D01*
X028000Y037361D01*
X028314Y037416D01*
X028591Y037576D01*
X028796Y037821D01*
X028905Y038120D01*
X028905Y038675D01*
X030495Y038675D01*
X030495Y029451D01*
X030211Y029451D01*
X030211Y029053D01*
X030096Y029053D01*
X030096Y028938D01*
X030211Y028938D01*
X030211Y028540D01*
X030495Y028540D01*
X030495Y027272D01*
X030415Y027272D01*
X030415Y027529D01*
X030418Y027538D01*
X030418Y027672D01*
X030367Y027797D01*
X030272Y027892D01*
X030147Y027943D01*
X030013Y027943D01*
X029888Y027892D01*
X029810Y027814D01*
X029732Y027892D01*
X029607Y027943D01*
X029473Y027943D01*
X029348Y027892D01*
X029253Y027797D01*
X029202Y027672D01*
X029202Y027538D01*
X029253Y027413D01*
X029340Y027326D01*
X029340Y027207D01*
X027910Y027207D01*
X027910Y027049D02*
X029154Y027049D01*
X029154Y027113D02*
X029154Y026666D01*
X029248Y026572D01*
X029852Y026572D01*
X029917Y026637D01*
X030495Y026637D01*
X030495Y026563D01*
X029903Y026563D01*
X029838Y026498D01*
X029248Y026498D01*
X029154Y026404D01*
X029154Y025957D01*
X029248Y025863D01*
X029340Y025863D01*
X029340Y025482D01*
X029213Y025355D01*
X028133Y025355D01*
X027910Y025132D01*
X027910Y028667D01*
X027977Y028667D01*
X028102Y028718D01*
X028197Y028813D01*
X028248Y028938D01*
X028248Y029072D01*
X028197Y029197D01*
X028102Y029292D01*
X027977Y029343D01*
X027843Y029343D01*
X027718Y029292D01*
X027670Y029244D01*
X027670Y030357D01*
X027747Y030357D01*
X027872Y030408D01*
X027967Y030503D01*
X028018Y030628D01*
X028018Y030762D01*
X027967Y030887D01*
X027872Y030982D01*
X027768Y031025D01*
X027806Y031063D01*
X028025Y031063D01*
X028025Y031040D01*
X028119Y030946D01*
X028182Y030946D01*
X028182Y030607D01*
X028276Y030513D01*
X028999Y030513D01*
X029093Y030607D01*
X029093Y031054D01*
X028999Y031148D01*
X028935Y031148D01*
X028935Y031379D01*
X028999Y031379D01*
X029093Y031473D01*
X029093Y031827D01*
X029172Y031906D01*
X029172Y032353D01*
X029093Y032432D01*
X029093Y032677D01*
X029122Y032694D01*
X029156Y032728D01*
X029179Y032769D01*
X029192Y032814D01*
X029192Y032996D01*
X029192Y033177D01*
X029179Y033223D01*
X029156Y033264D01*
X029122Y033297D01*
X029093Y033314D01*
X029093Y034086D01*
X028999Y034179D01*
X028276Y034179D01*
X028182Y034086D01*
X028182Y033640D01*
X026762Y033640D01*
X026207Y033085D01*
X025006Y033085D01*
X025026Y033119D01*
X025038Y033165D01*
X025038Y033485D01*
X024640Y033485D01*
X024640Y033601D01*
X024525Y033601D01*
X024525Y034077D01*
X024283Y034077D01*
X024237Y034065D01*
X024196Y034041D01*
X024163Y034008D01*
X024139Y033967D01*
X024127Y033921D01*
X024127Y033601D01*
X024525Y033601D01*
X024525Y033485D01*
X024127Y033485D01*
X024127Y033165D01*
X024139Y033119D01*
X024159Y033085D01*
X021749Y033085D01*
X021662Y033172D01*
X021537Y033223D01*
X021403Y033223D01*
X021278Y033172D01*
X021195Y033089D01*
X021182Y033102D01*
X021057Y033153D01*
X021048Y033153D01*
X021092Y033198D01*
X021092Y033775D01*
X021531Y033775D01*
X021618Y033688D01*
X021743Y033637D01*
X021877Y033637D01*
X022002Y033688D01*
X022097Y033783D01*
X022148Y033908D01*
X022148Y034042D01*
X022097Y034167D01*
X022002Y034262D01*
X021877Y034313D01*
X021743Y034313D01*
X021618Y034262D01*
X021531Y034175D01*
X015622Y034175D01*
X015152Y033705D01*
X015035Y033588D01*
X015035Y032457D01*
X015072Y032421D01*
X015072Y032298D01*
X015123Y032173D01*
X015218Y032078D01*
X015343Y032027D01*
X015451Y032027D01*
X015573Y031905D01*
X018473Y031905D01*
X018520Y031858D01*
X018520Y031172D01*
X017928Y031172D01*
X017834Y031078D01*
X017834Y030631D01*
X017925Y030539D01*
X016450Y030515D01*
X016366Y030516D01*
X016363Y030514D01*
X016360Y030514D01*
X016301Y030453D01*
X015308Y029487D01*
X015310Y030101D01*
X015312Y030104D01*
X015310Y030187D01*
X015310Y030271D01*
X015308Y030274D01*
X015308Y030278D01*
X015247Y030335D01*
X015188Y030395D01*
X015184Y030395D01*
X014930Y030635D01*
X014930Y034308D01*
X015930Y035308D01*
X015930Y037872D01*
X015807Y037995D01*
X015447Y038355D01*
X009043Y038355D01*
X008920Y038232D01*
X008340Y037652D01*
X008340Y037351D02*
X001005Y037351D01*
X001005Y037193D02*
X008340Y037193D01*
X008340Y037034D02*
X001005Y037034D01*
X001005Y036876D02*
X008340Y036876D01*
X008340Y036717D02*
X001005Y036717D01*
X001005Y036559D02*
X008340Y036559D01*
X008340Y036400D02*
X001005Y036400D01*
X001005Y036242D02*
X008340Y036242D01*
X008340Y036083D02*
X001005Y036083D01*
X001005Y035925D02*
X008340Y035925D01*
X008340Y035766D02*
X001005Y035766D01*
X001005Y038144D02*
X008832Y038144D01*
X008990Y038302D02*
X001005Y038302D01*
X001005Y038461D02*
X027095Y038461D01*
X027095Y038619D02*
X001005Y038619D01*
X005749Y035608D02*
X008340Y035608D01*
X008340Y035449D02*
X006336Y035449D01*
X006420Y035291D02*
X008340Y035291D01*
X008340Y035132D02*
X006430Y035132D01*
X006390Y034974D02*
X008340Y034974D01*
X008340Y034815D02*
X006390Y034815D01*
X006390Y034657D02*
X008340Y034657D01*
X008340Y034498D02*
X006390Y034498D01*
X006390Y034340D02*
X008340Y034340D01*
X008340Y034181D02*
X006377Y034181D01*
X006287Y034023D02*
X008340Y034023D01*
X008340Y033864D02*
X006129Y033864D01*
X005702Y033706D02*
X008340Y033706D01*
X008340Y033547D02*
X005760Y033547D01*
X005760Y033389D02*
X008340Y033389D01*
X008340Y033230D02*
X005760Y033230D01*
X005760Y033072D02*
X008340Y033072D01*
X008340Y032913D02*
X005760Y032913D01*
X005751Y032755D02*
X008340Y032755D01*
X008340Y032279D02*
X007393Y032279D01*
X007551Y032121D02*
X008340Y032121D01*
X008340Y031962D02*
X007710Y031962D01*
X007868Y031804D02*
X008340Y031804D01*
X008340Y031645D02*
X007870Y031645D01*
X007870Y031487D02*
X008340Y031487D01*
X008130Y031462D02*
X008130Y031124D01*
X008130Y030787D01*
X008340Y030787D01*
X008340Y030733D01*
X007870Y030733D01*
X007870Y030787D01*
X007870Y030787D01*
X008130Y030787D01*
X008130Y031124D01*
X008130Y031124D01*
X008130Y031462D01*
X008130Y031328D02*
X008130Y031328D01*
X008130Y031170D02*
X008130Y031170D01*
X008130Y031124D02*
X008130Y031124D01*
X008130Y031011D02*
X008130Y031011D01*
X008130Y030853D02*
X008130Y030853D01*
X006960Y030853D02*
X005760Y030853D01*
X005760Y030764D02*
X005760Y031225D01*
X006713Y031225D01*
X006960Y030978D01*
X006960Y030106D01*
X006929Y030075D01*
X006929Y030076D01*
X006896Y030109D01*
X006854Y030133D01*
X006809Y030145D01*
X006665Y030145D01*
X006665Y029530D01*
X006665Y029530D01*
X006665Y028915D01*
X006809Y028915D01*
X006854Y028927D01*
X006896Y028951D01*
X006929Y028984D01*
X006929Y028985D01*
X006979Y028935D01*
X007351Y028935D01*
X007415Y028999D01*
X007479Y028935D01*
X007851Y028935D01*
X007915Y028999D01*
X007955Y028959D01*
X007955Y028897D01*
X007953Y028895D01*
X006463Y028895D01*
X005863Y028295D01*
X005760Y028192D01*
X005760Y028596D01*
X005676Y028680D01*
X005760Y028764D01*
X005760Y029596D01*
X005676Y029680D01*
X005760Y029764D01*
X005760Y030596D01*
X005676Y030680D01*
X005760Y030764D01*
X005690Y030694D02*
X006960Y030694D01*
X006960Y030536D02*
X005760Y030536D01*
X005760Y030377D02*
X006960Y030377D01*
X006960Y030219D02*
X005760Y030219D01*
X005760Y030060D02*
X006392Y030060D01*
X006401Y030076D02*
X006377Y030034D01*
X006365Y029989D01*
X006365Y029530D01*
X006665Y029530D01*
X006665Y029530D01*
X006665Y029530D01*
X006665Y030145D01*
X006521Y030145D01*
X006476Y030133D01*
X006434Y030109D01*
X006401Y030076D01*
X006365Y029902D02*
X005760Y029902D01*
X005739Y029743D02*
X006365Y029743D01*
X006365Y029585D02*
X005760Y029585D01*
X005760Y029426D02*
X006365Y029426D01*
X006365Y029530D02*
X006365Y029071D01*
X006377Y029026D01*
X006401Y028984D01*
X006434Y028951D01*
X006476Y028927D01*
X006521Y028915D01*
X006665Y028915D01*
X006665Y029530D01*
X006365Y029530D01*
X006365Y029268D02*
X005760Y029268D01*
X005760Y029109D02*
X006365Y029109D01*
X006435Y028951D02*
X005760Y028951D01*
X005760Y028792D02*
X006360Y028792D01*
X006202Y028634D02*
X005723Y028634D01*
X005760Y028475D02*
X006043Y028475D01*
X005885Y028317D02*
X005760Y028317D01*
X006665Y028951D02*
X006665Y028951D01*
X006665Y029109D02*
X006665Y029109D01*
X006665Y029268D02*
X006665Y029268D01*
X006665Y029426D02*
X006665Y029426D01*
X006665Y029585D02*
X006665Y029585D01*
X006665Y029743D02*
X006665Y029743D01*
X006665Y029902D02*
X006665Y029902D01*
X006665Y030060D02*
X006665Y030060D01*
X006927Y031011D02*
X005760Y031011D01*
X005760Y031170D02*
X006768Y031170D01*
X006895Y028951D02*
X006963Y028951D01*
X007367Y028951D02*
X007463Y028951D01*
X007867Y028951D02*
X007955Y028951D01*
X009136Y027814D02*
X008820Y027498D01*
X008820Y026618D01*
X008697Y026495D01*
X008487Y026285D01*
X006203Y026285D01*
X006080Y026408D01*
X005742Y026746D01*
X005676Y026680D01*
X005760Y026596D01*
X005760Y025764D01*
X005676Y025680D01*
X005760Y025596D01*
X005760Y025193D01*
X006479Y025911D01*
X006569Y026001D01*
X006686Y026050D01*
X009812Y026050D01*
X009995Y026233D01*
X009995Y026550D01*
X009432Y026550D01*
X009344Y026587D01*
X009211Y026720D01*
X009177Y026753D01*
X009177Y026754D01*
X009177Y026754D01*
X009158Y026798D01*
X009140Y026841D01*
X009140Y026842D01*
X009140Y026842D01*
X009140Y026889D01*
X009136Y027814D01*
X009136Y027683D02*
X009005Y027683D01*
X009137Y027524D02*
X008846Y027524D01*
X008820Y027366D02*
X009138Y027366D01*
X009139Y027207D02*
X008820Y027207D01*
X008820Y027049D02*
X009139Y027049D01*
X009140Y026890D02*
X008820Y026890D01*
X008820Y026732D02*
X009199Y026732D01*
X009377Y026573D02*
X008775Y026573D01*
X008617Y026415D02*
X009995Y026415D01*
X009995Y026256D02*
X005760Y026256D01*
X005760Y026098D02*
X009860Y026098D01*
X010635Y026415D02*
X013648Y026415D01*
X014150Y025622D02*
X012545Y025622D01*
X012544Y025464D02*
X014150Y025464D01*
X014150Y025305D02*
X012544Y025305D01*
X012544Y025147D02*
X014150Y025147D01*
X014150Y024988D02*
X012544Y024988D01*
X012543Y024830D02*
X014150Y024830D01*
X014150Y024671D02*
X012543Y024671D01*
X012543Y024513D02*
X014150Y024513D01*
X014150Y024354D02*
X012543Y024354D01*
X012542Y024196D02*
X014150Y024196D01*
X014150Y024037D02*
X012542Y024037D01*
X012542Y023879D02*
X014150Y023879D01*
X014228Y023720D02*
X012542Y023720D01*
X012541Y023562D02*
X014386Y023562D01*
X014545Y023403D02*
X012541Y023403D01*
X012541Y023245D02*
X014703Y023245D01*
X014814Y023086D02*
X012541Y023086D01*
X012540Y022928D02*
X014815Y022928D01*
X014815Y022769D02*
X012540Y022769D01*
X012540Y022611D02*
X013659Y022611D01*
X013461Y022452D02*
X012563Y022452D01*
X012536Y022294D02*
X013222Y022294D01*
X013172Y022135D02*
X012416Y022135D01*
X011222Y021501D02*
X014818Y021501D01*
X014819Y021343D02*
X011238Y021343D01*
X011168Y021184D02*
X014819Y021184D01*
X014818Y021660D02*
X011114Y021660D01*
X013702Y021818D02*
X014817Y021818D01*
X014817Y021977D02*
X013823Y021977D01*
X013877Y018340D02*
X019447Y018340D01*
X019882Y018775D01*
X020005Y018898D01*
X020005Y019520D01*
X023299Y019520D01*
X023355Y019464D01*
X023355Y018416D01*
X023346Y018408D01*
X023292Y018276D01*
X023292Y018134D01*
X023346Y018002D01*
X023447Y017901D01*
X023579Y017847D01*
X023687Y017847D01*
X023684Y017836D01*
X023684Y017654D01*
X023684Y017473D01*
X023696Y017427D01*
X023720Y017386D01*
X023753Y017353D01*
X023794Y017329D01*
X023840Y017317D01*
X024100Y017317D01*
X024360Y017317D01*
X024406Y017329D01*
X024447Y017353D01*
X024480Y017386D01*
X024504Y017427D01*
X024516Y017473D01*
X024516Y017654D01*
X024100Y017654D01*
X024100Y017317D01*
X024100Y017654D01*
X024100Y017654D01*
X024100Y017654D01*
X023684Y017654D01*
X024100Y017654D01*
X024100Y017654D01*
X024516Y017654D01*
X024516Y017836D01*
X024504Y017881D01*
X024498Y017892D01*
X024512Y017898D01*
X024607Y017993D01*
X024658Y018118D01*
X024658Y018252D01*
X024607Y018377D01*
X024512Y018472D01*
X024387Y018523D01*
X024350Y018523D01*
X024350Y019952D01*
X024227Y020075D01*
X023747Y020555D01*
X020089Y020555D01*
X020012Y020632D01*
X020005Y020635D01*
X020005Y020731D01*
X020113Y020687D01*
X020247Y020687D01*
X020372Y020738D01*
X020419Y020785D01*
X021853Y020785D01*
X021866Y020752D01*
X021967Y020651D01*
X022099Y020597D01*
X022241Y020597D01*
X022373Y020651D01*
X022446Y020725D01*
X024031Y020725D01*
X024820Y019936D01*
X024820Y016685D01*
X024816Y016685D01*
X024770Y016731D01*
X024770Y016952D01*
X024647Y017075D01*
X024566Y017156D01*
X024496Y017156D01*
X024496Y017169D01*
X024402Y017263D01*
X023798Y017263D01*
X023704Y017169D01*
X023704Y016722D01*
X023736Y016690D01*
X023060Y016690D01*
X023060Y018046D01*
X022931Y018175D01*
X022661Y018445D01*
X020679Y018445D01*
X020550Y018316D01*
X019900Y017666D01*
X019900Y016966D01*
X019839Y016905D01*
X017019Y016905D01*
X016952Y016972D01*
X016827Y017023D01*
X016693Y017023D01*
X016568Y016972D01*
X016491Y016895D01*
X016462Y016895D01*
X016462Y016947D01*
X016368Y017041D01*
X015921Y017041D01*
X015827Y016947D01*
X015827Y016343D01*
X015921Y016249D01*
X016368Y016249D01*
X016462Y016343D01*
X016462Y016475D01*
X016491Y016475D01*
X016568Y016398D01*
X016693Y016347D01*
X016827Y016347D01*
X016952Y016398D01*
X017019Y016465D01*
X020031Y016465D01*
X020081Y016515D01*
X020210Y016644D01*
X020210Y016654D01*
X020211Y016655D01*
X020340Y016784D01*
X020340Y017484D01*
X020861Y018005D01*
X022479Y018005D01*
X022523Y017961D01*
X022500Y017967D01*
X022240Y017967D01*
X021980Y017967D01*
X021934Y017955D01*
X021893Y017931D01*
X021860Y017897D01*
X021836Y017856D01*
X021824Y017811D01*
X021824Y017629D01*
X021824Y017567D01*
X021824Y017568D01*
X021723Y017669D01*
X021591Y017723D01*
X021449Y017723D01*
X021317Y017669D01*
X021219Y017570D01*
X020853Y017570D01*
X020730Y017447D01*
X020461Y017178D01*
X020461Y011536D01*
X020447Y011536D01*
X020361Y011451D01*
X020320Y011492D01*
X019636Y011492D01*
X019548Y011403D01*
X019548Y011772D01*
X019454Y011866D01*
X018770Y011866D01*
X018676Y011772D01*
X018676Y011748D01*
X018637Y011787D01*
X018033Y011787D01*
X017975Y011729D01*
X017922Y011729D01*
X017853Y011798D01*
X017878Y011859D01*
X017878Y012001D01*
X017824Y012133D01*
X017723Y012234D01*
X017591Y012288D01*
X017449Y012288D01*
X017317Y012234D01*
X017216Y012133D01*
X017162Y012001D01*
X017162Y011859D01*
X017216Y011727D01*
X017317Y011626D01*
X017449Y011572D01*
X017457Y011572D01*
X017740Y011289D01*
X017939Y011289D01*
X017939Y011246D01*
X018033Y011152D01*
X018637Y011152D01*
X018704Y011218D01*
X018770Y011152D01*
X019454Y011152D01*
X019542Y011241D01*
X019542Y011029D01*
X019454Y011118D01*
X018770Y011118D01*
X018684Y011032D01*
X018637Y011078D01*
X018033Y011078D01*
X017939Y010984D01*
X017939Y010980D01*
X017504Y010980D01*
X017375Y010851D01*
X017240Y010716D01*
X017240Y009154D01*
X017369Y009025D01*
X017513Y008881D01*
X017989Y008881D01*
X017989Y008877D01*
X018083Y008783D01*
X018687Y008783D01*
X018707Y008802D01*
X018770Y008739D01*
X019005Y008739D01*
X019005Y003745D01*
X019002Y003744D01*
X018901Y003643D01*
X018847Y003511D01*
X018847Y003464D01*
X018647Y003265D01*
X013611Y003265D01*
X013545Y003238D01*
X013545Y004885D01*
X014723Y004885D01*
X015383Y005545D01*
X015500Y005662D01*
X015500Y013532D01*
X015563Y013595D01*
X018502Y013595D01*
X018523Y013587D01*
X018657Y013587D01*
X018782Y013638D01*
X018877Y013733D01*
X018928Y013858D01*
X018928Y013937D01*
X018957Y013937D01*
X019082Y013988D01*
X019177Y014083D01*
X019228Y014208D01*
X019228Y014342D01*
X019177Y014467D01*
X019082Y014562D01*
X018957Y014613D01*
X018868Y014613D01*
X018868Y014702D01*
X018817Y014827D01*
X018722Y014922D01*
X018597Y014973D01*
X018463Y014973D01*
X018338Y014922D01*
X018243Y014827D01*
X018192Y014702D01*
X018192Y014579D01*
X018047Y014435D01*
X015277Y014435D01*
X015160Y014318D01*
X014710Y013868D01*
X014710Y005958D01*
X014407Y005655D01*
X013545Y005655D01*
X013545Y012543D01*
X013508Y012631D01*
X012940Y013199D01*
X012940Y017403D01*
X013877Y018340D01*
X013868Y018331D02*
X020565Y018331D01*
X020406Y018173D02*
X013710Y018173D01*
X013551Y018014D02*
X020248Y018014D01*
X020089Y017856D02*
X013393Y017856D01*
X013234Y017697D02*
X019931Y017697D01*
X019900Y017539D02*
X013076Y017539D01*
X012940Y017380D02*
X019900Y017380D01*
X019900Y017222D02*
X012940Y017222D01*
X012940Y017063D02*
X019900Y017063D01*
X020340Y017063D02*
X020461Y017063D01*
X020461Y016905D02*
X020340Y016905D01*
X020302Y016746D02*
X020461Y016746D01*
X020461Y016588D02*
X020154Y016588D01*
X020461Y016429D02*
X016983Y016429D01*
X016537Y016429D02*
X016462Y016429D01*
X016390Y016271D02*
X020461Y016271D01*
X020461Y016112D02*
X020071Y016112D01*
X020056Y016118D02*
X019914Y016118D01*
X019782Y016064D01*
X019681Y015963D01*
X019627Y015831D01*
X019627Y015689D01*
X019681Y015557D01*
X019782Y015456D01*
X019845Y015430D01*
X019845Y013406D01*
X019709Y013270D01*
X017099Y013270D01*
X016970Y013141D01*
X016670Y012841D01*
X016670Y008619D01*
X016799Y008490D01*
X016970Y008319D01*
X016970Y006736D01*
X016886Y006653D01*
X016832Y006521D01*
X016832Y006379D01*
X016886Y006247D01*
X016987Y006146D01*
X017119Y006092D01*
X017261Y006092D01*
X017393Y006146D01*
X017494Y006247D01*
X017548Y006379D01*
X017548Y006521D01*
X017494Y006653D01*
X017410Y006736D01*
X017410Y008501D01*
X017110Y008801D01*
X017110Y012659D01*
X017281Y012830D01*
X019891Y012830D01*
X020156Y013095D01*
X020285Y013224D01*
X020285Y015554D01*
X020289Y015557D01*
X020343Y015689D01*
X020343Y015831D01*
X020289Y015963D01*
X020188Y016064D01*
X020056Y016118D01*
X019899Y016112D02*
X012940Y016112D01*
X012940Y015954D02*
X019678Y015954D01*
X019627Y015795D02*
X012940Y015795D01*
X012940Y015637D02*
X019649Y015637D01*
X019761Y015478D02*
X012940Y015478D01*
X012940Y015320D02*
X019845Y015320D01*
X019845Y015161D02*
X012940Y015161D01*
X012940Y015003D02*
X019845Y015003D01*
X019845Y014844D02*
X018800Y014844D01*
X018868Y014686D02*
X019845Y014686D01*
X019845Y014527D02*
X019117Y014527D01*
X019218Y014369D02*
X019845Y014369D01*
X019845Y014210D02*
X019228Y014210D01*
X019145Y014052D02*
X019845Y014052D01*
X019845Y013893D02*
X018928Y013893D01*
X018877Y013735D02*
X019845Y013735D01*
X019845Y013576D02*
X015544Y013576D01*
X015500Y013418D02*
X019845Y013418D01*
X020162Y013101D02*
X020461Y013101D01*
X020461Y013259D02*
X020285Y013259D01*
X020285Y013418D02*
X020461Y013418D01*
X020461Y013576D02*
X020285Y013576D01*
X020285Y013735D02*
X020461Y013735D01*
X020461Y013893D02*
X020285Y013893D01*
X020285Y014052D02*
X020461Y014052D01*
X020461Y014210D02*
X020285Y014210D01*
X020285Y014369D02*
X020461Y014369D01*
X020461Y014527D02*
X020285Y014527D01*
X020285Y014686D02*
X020461Y014686D01*
X020461Y014844D02*
X020285Y014844D01*
X020285Y015003D02*
X020461Y015003D01*
X020461Y015161D02*
X020285Y015161D01*
X020285Y015320D02*
X020461Y015320D01*
X020461Y015478D02*
X020285Y015478D01*
X020321Y015637D02*
X020461Y015637D01*
X020461Y015795D02*
X020343Y015795D01*
X020292Y015954D02*
X020461Y015954D01*
X020505Y017222D02*
X020340Y017222D01*
X020340Y017380D02*
X020663Y017380D01*
X020822Y017539D02*
X020395Y017539D01*
X020553Y017697D02*
X021386Y017697D01*
X021654Y017697D02*
X021824Y017697D01*
X021824Y017629D02*
X022240Y017629D01*
X022240Y017292D01*
X022500Y017292D01*
X022546Y017304D01*
X022587Y017328D01*
X022620Y017361D01*
X022620Y017161D01*
X022542Y017238D01*
X021938Y017238D01*
X021844Y017144D01*
X021844Y016813D01*
X021809Y016898D01*
X021708Y016999D01*
X021640Y017027D01*
X021723Y017061D01*
X021824Y017162D01*
X021878Y017294D01*
X021878Y017343D01*
X021893Y017328D01*
X021934Y017304D01*
X021980Y017292D01*
X022240Y017292D01*
X022240Y017629D01*
X022240Y017629D01*
X021824Y017629D01*
X021836Y017856D02*
X020712Y017856D01*
X020005Y018965D02*
X023355Y018965D01*
X023355Y018807D02*
X019914Y018807D01*
X019755Y018648D02*
X023355Y018648D01*
X023355Y018490D02*
X019597Y018490D01*
X020005Y019124D02*
X023355Y019124D01*
X023355Y019282D02*
X020005Y019282D01*
X020005Y019441D02*
X023355Y019441D01*
X024069Y020233D02*
X024523Y020233D01*
X024681Y020075D02*
X024227Y020075D01*
X024350Y019916D02*
X024820Y019916D01*
X024820Y019758D02*
X024350Y019758D01*
X024350Y019599D02*
X024820Y019599D01*
X024820Y019441D02*
X024350Y019441D01*
X024350Y019282D02*
X024820Y019282D01*
X024820Y019124D02*
X024350Y019124D01*
X024350Y018965D02*
X024820Y018965D01*
X024820Y018807D02*
X024350Y018807D01*
X024350Y018648D02*
X024820Y018648D01*
X024820Y018490D02*
X024469Y018490D01*
X024626Y018331D02*
X024820Y018331D01*
X024820Y018173D02*
X024658Y018173D01*
X024615Y018014D02*
X024820Y018014D01*
X024820Y017856D02*
X024511Y017856D01*
X024516Y017697D02*
X024820Y017697D01*
X024820Y017539D02*
X024516Y017539D01*
X024474Y017380D02*
X024820Y017380D01*
X024820Y017222D02*
X024444Y017222D01*
X024659Y017063D02*
X024820Y017063D01*
X024820Y016905D02*
X024770Y016905D01*
X024770Y016746D02*
X024820Y016746D01*
X025060Y016545D02*
X025060Y020035D01*
X024130Y020965D01*
X022180Y020965D01*
X022170Y020955D01*
X022130Y020945D01*
X022050Y021025D01*
X020180Y021025D01*
X020419Y021265D02*
X020372Y021312D01*
X020247Y021363D01*
X020113Y021363D01*
X020005Y021319D01*
X020005Y021890D01*
X020230Y021890D01*
X020182Y021772D01*
X020182Y021638D01*
X020233Y021513D01*
X020328Y021418D01*
X020453Y021367D01*
X020587Y021367D01*
X020712Y021418D01*
X020799Y021505D01*
X026055Y021505D01*
X026055Y021353D01*
X026125Y021184D01*
X024228Y021184D01*
X024266Y021168D02*
X024178Y021205D01*
X022426Y021205D01*
X022373Y021259D01*
X022241Y021313D01*
X022099Y021313D01*
X021983Y021265D01*
X020419Y021265D01*
X020298Y021343D02*
X026060Y021343D01*
X026055Y021501D02*
X020795Y021501D01*
X020245Y021501D02*
X020005Y021501D01*
X020005Y021343D02*
X020062Y021343D01*
X020005Y021660D02*
X020182Y021660D01*
X020201Y021818D02*
X020005Y021818D01*
X020005Y020709D02*
X020060Y020709D01*
X020300Y020709D02*
X021910Y020709D01*
X022430Y020709D02*
X024047Y020709D01*
X024206Y020550D02*
X023752Y020550D01*
X023910Y020392D02*
X024364Y020392D01*
X024726Y020709D02*
X026028Y020709D01*
X026025Y020706D02*
X025955Y020536D01*
X025955Y020353D01*
X026025Y020184D01*
X026154Y020055D01*
X026323Y019985D01*
X027106Y019985D01*
X027276Y020055D01*
X027405Y020184D01*
X027475Y020353D01*
X027475Y020536D01*
X027405Y020706D01*
X027276Y020835D01*
X027106Y020905D01*
X026323Y020905D01*
X026154Y020835D01*
X026025Y020706D01*
X025961Y020550D02*
X024884Y020550D01*
X025043Y020392D02*
X025955Y020392D01*
X026005Y020233D02*
X025201Y020233D01*
X025263Y020171D02*
X024333Y021101D01*
X024266Y021168D01*
X024409Y021026D02*
X026326Y021026D01*
X026254Y021055D02*
X026423Y020985D01*
X027206Y020985D01*
X027376Y021055D01*
X027505Y021184D01*
X028635Y021184D01*
X028635Y021128D02*
X028705Y020959D01*
X028834Y020830D01*
X029003Y020760D01*
X029186Y020760D01*
X029356Y020830D01*
X029485Y020959D01*
X029555Y021128D01*
X029555Y021911D01*
X029485Y022081D01*
X029421Y022145D01*
X029635Y022145D01*
X029635Y022128D01*
X029705Y021959D01*
X029834Y021830D01*
X030003Y021760D01*
X030186Y021760D01*
X030356Y021830D01*
X030485Y021959D01*
X030495Y021984D01*
X030495Y019834D01*
X030424Y020004D01*
X030285Y020144D01*
X030103Y020219D01*
X029907Y020219D01*
X029725Y020144D01*
X029614Y020033D01*
X029614Y020236D01*
X029524Y020454D01*
X029357Y020621D01*
X029139Y020711D01*
X028903Y020711D01*
X028685Y020621D01*
X028518Y020454D01*
X028428Y020236D01*
X028428Y020000D01*
X028518Y019782D01*
X028685Y019615D01*
X028903Y019525D01*
X029139Y019525D01*
X029357Y019615D01*
X029510Y019769D01*
X029510Y019626D01*
X029586Y019444D01*
X029725Y019305D01*
X029752Y019294D01*
X029693Y019235D01*
X028493Y019235D01*
X028370Y019112D01*
X027950Y018692D01*
X027950Y016352D01*
X027773Y016175D01*
X024746Y016175D01*
X024776Y016205D01*
X025008Y016205D01*
X025096Y016242D01*
X025196Y016342D01*
X025263Y016409D01*
X025300Y016497D01*
X025300Y020083D01*
X025263Y020171D01*
X025300Y020075D02*
X026135Y020075D01*
X026263Y019856D02*
X026202Y019811D01*
X026149Y019758D01*
X026104Y019697D01*
X026070Y019629D01*
X026047Y019557D01*
X026035Y019483D01*
X026035Y019465D01*
X026795Y019465D01*
X026795Y019925D01*
X026477Y019925D01*
X026403Y019913D01*
X026331Y019890D01*
X026263Y019856D01*
X026149Y019758D02*
X025300Y019758D01*
X025300Y019916D02*
X026421Y019916D01*
X026795Y019916D02*
X026835Y019916D01*
X026835Y019925D02*
X026835Y019465D01*
X026795Y019465D01*
X026795Y019425D01*
X026835Y019425D01*
X026835Y019465D01*
X027595Y019465D01*
X027595Y019483D01*
X027583Y019557D01*
X027560Y019629D01*
X027526Y019697D01*
X027481Y019758D01*
X027428Y019811D01*
X027367Y019856D01*
X027299Y019890D01*
X027227Y019913D01*
X027153Y019925D01*
X026835Y019925D01*
X026835Y019758D02*
X026795Y019758D01*
X026795Y019599D02*
X026835Y019599D01*
X026835Y019441D02*
X029589Y019441D01*
X029521Y019599D02*
X029318Y019599D01*
X029499Y019758D02*
X029510Y019758D01*
X029614Y020075D02*
X029656Y020075D01*
X029614Y020233D02*
X030495Y020233D01*
X030495Y020075D02*
X030354Y020075D01*
X030461Y019916D02*
X030495Y019916D01*
X030495Y019615D02*
X030424Y019444D01*
X030285Y019305D01*
X030230Y019282D01*
X030495Y019282D01*
X030495Y019124D02*
X030176Y019124D01*
X030230Y019178D02*
X030230Y019282D01*
X030230Y019178D02*
X030107Y019055D01*
X029867Y018815D01*
X028667Y018815D01*
X028370Y018518D01*
X028370Y016475D01*
X028727Y016475D01*
X028850Y016352D01*
X029005Y016197D01*
X029005Y016444D01*
X029017Y016489D01*
X029041Y016531D01*
X029074Y016564D01*
X029116Y016588D01*
X029161Y016600D01*
X029915Y016600D01*
X029915Y016190D01*
X030055Y016190D01*
X030055Y016600D01*
X030495Y016600D01*
X030495Y017598D01*
X030482Y017558D01*
X030445Y017486D01*
X030398Y017420D01*
X030340Y017363D01*
X030275Y017316D01*
X030203Y017279D01*
X030126Y017254D01*
X030046Y017241D01*
X030005Y017241D01*
X030005Y017756D01*
X030005Y018270D01*
X029964Y018270D01*
X029884Y018258D01*
X029807Y018233D01*
X029735Y018196D01*
X029670Y018148D01*
X029612Y018091D01*
X029565Y018025D01*
X029528Y017953D01*
X029503Y017876D01*
X029490Y017796D01*
X029490Y017756D01*
X030005Y017756D01*
X030005Y017756D01*
X030005Y018270D01*
X030046Y018270D01*
X030126Y018258D01*
X030203Y018233D01*
X030275Y018196D01*
X030340Y018148D01*
X030398Y018091D01*
X030445Y018025D01*
X030482Y017953D01*
X030495Y017913D01*
X030495Y019615D01*
X030495Y019599D02*
X030489Y019599D01*
X030495Y019441D02*
X030421Y019441D01*
X030495Y018965D02*
X030017Y018965D01*
X029740Y019282D02*
X027567Y019282D01*
X027560Y019261D02*
X027583Y019333D01*
X027595Y019407D01*
X027595Y019425D01*
X026835Y019425D01*
X026835Y018965D01*
X027153Y018965D01*
X028223Y018965D01*
X028065Y018807D02*
X025300Y018807D01*
X025300Y018965D02*
X026477Y018965D01*
X026795Y018965D01*
X026795Y019425D01*
X026035Y019425D01*
X026035Y019407D01*
X026047Y019333D01*
X026070Y019261D01*
X026104Y019193D01*
X026149Y019132D01*
X026202Y019079D01*
X026263Y019034D01*
X026331Y019000D01*
X026403Y018977D01*
X026477Y018965D01*
X026795Y018965D02*
X026835Y018965D01*
X026835Y019124D02*
X026795Y019124D01*
X026795Y019282D02*
X026835Y019282D01*
X026795Y019441D02*
X025300Y019441D01*
X025300Y019599D02*
X026060Y019599D01*
X026063Y019282D02*
X025300Y019282D01*
X025300Y019124D02*
X026158Y019124D01*
X025300Y018648D02*
X027950Y018648D01*
X027950Y018490D02*
X025300Y018490D01*
X025300Y018331D02*
X027950Y018331D01*
X027950Y018173D02*
X025300Y018173D01*
X025300Y018014D02*
X027950Y018014D01*
X027950Y017856D02*
X025300Y017856D01*
X025300Y017697D02*
X027950Y017697D01*
X027950Y017539D02*
X025300Y017539D01*
X025300Y017380D02*
X027950Y017380D01*
X027950Y017222D02*
X025300Y017222D01*
X025300Y017063D02*
X027950Y017063D01*
X027950Y016905D02*
X025300Y016905D01*
X025300Y016746D02*
X027950Y016746D01*
X027950Y016588D02*
X025300Y016588D01*
X025272Y016429D02*
X027950Y016429D01*
X027869Y016271D02*
X025125Y016271D01*
X024960Y016445D02*
X025060Y016545D01*
X024960Y016445D02*
X024550Y016445D01*
X024236Y016240D02*
X024153Y016157D01*
X024102Y016032D01*
X024102Y015898D01*
X024153Y015773D01*
X024248Y015678D01*
X024373Y015627D01*
X024507Y015627D01*
X024632Y015678D01*
X024709Y015755D01*
X027947Y015755D01*
X028247Y016055D01*
X028553Y016055D01*
X028730Y015878D01*
X028730Y013538D01*
X028853Y013415D01*
X028970Y013298D01*
X028970Y013091D01*
X028949Y013143D01*
X028848Y013244D01*
X028716Y013298D01*
X028574Y013298D01*
X028442Y013244D01*
X028341Y013143D01*
X028287Y013011D01*
X028287Y012975D01*
X025267Y012975D01*
X025230Y013012D01*
X025230Y014224D01*
X025324Y014317D01*
X025378Y014449D01*
X025378Y014591D01*
X025324Y014723D01*
X025223Y014824D01*
X025091Y014878D01*
X024949Y014878D01*
X024817Y014824D01*
X024716Y014723D01*
X024662Y014591D01*
X024662Y014449D01*
X024716Y014317D01*
X024810Y014224D01*
X024810Y012838D01*
X024970Y012678D01*
X025093Y012555D01*
X028557Y012555D01*
X028584Y012582D01*
X028716Y012582D01*
X028848Y012636D01*
X028949Y012737D01*
X028970Y012789D01*
X028970Y012043D01*
X028933Y012043D01*
X028808Y011992D01*
X028713Y011897D01*
X028662Y011772D01*
X028662Y011638D01*
X028713Y011513D01*
X028808Y011418D01*
X028933Y011367D01*
X029067Y011367D01*
X029192Y011418D01*
X029287Y011513D01*
X029338Y011638D01*
X029338Y011746D01*
X029390Y011798D01*
X029390Y013472D01*
X029222Y013640D01*
X029915Y013640D01*
X029915Y014050D01*
X030055Y014050D01*
X030055Y013640D01*
X030495Y013640D01*
X030495Y009636D01*
X030460Y009721D01*
X030331Y009850D01*
X030161Y009920D01*
X029985Y009920D01*
X029985Y010392D01*
X029862Y010515D01*
X029357Y011020D01*
X023047Y011020D01*
X022610Y011457D01*
X022610Y014939D01*
X022704Y015032D01*
X022758Y015164D01*
X022758Y015306D01*
X022704Y015438D01*
X022661Y015480D01*
X022844Y015480D01*
X022821Y015458D01*
X022767Y015326D01*
X022767Y015184D01*
X022821Y015052D01*
X022922Y014951D01*
X023054Y014897D01*
X023196Y014897D01*
X023328Y014951D01*
X023429Y015052D01*
X023483Y015184D01*
X023483Y015326D01*
X023429Y015458D01*
X023335Y015551D01*
X023335Y015612D01*
X023170Y015777D01*
X023047Y015900D01*
X022968Y015900D01*
X023013Y016009D01*
X023013Y016151D01*
X022976Y016240D01*
X024236Y016240D01*
X024135Y016112D02*
X023013Y016112D01*
X022990Y015954D02*
X024102Y015954D01*
X024144Y015795D02*
X023152Y015795D01*
X023310Y015637D02*
X024349Y015637D01*
X024531Y015637D02*
X028730Y015637D01*
X028730Y015795D02*
X027987Y015795D01*
X028146Y015954D02*
X028654Y015954D01*
X028931Y016271D02*
X029005Y016271D01*
X029012Y016190D02*
X029915Y016190D01*
X029915Y016050D01*
X030055Y016050D01*
X030055Y015640D01*
X030495Y015640D01*
X030495Y014600D01*
X030055Y014600D01*
X030055Y014190D01*
X029915Y014190D01*
X029915Y014600D01*
X029161Y014600D01*
X029150Y014597D01*
X029150Y015643D01*
X029161Y015640D01*
X029915Y015640D01*
X029915Y016050D01*
X029150Y016050D01*
X029150Y016052D01*
X029012Y016190D01*
X029090Y016112D02*
X029915Y016112D01*
X029915Y015954D02*
X030055Y015954D01*
X030055Y015795D02*
X029915Y015795D01*
X029915Y016271D02*
X030055Y016271D01*
X030055Y016429D02*
X029915Y016429D01*
X029915Y016588D02*
X030055Y016588D01*
X029524Y017026D02*
X029614Y017244D01*
X029614Y017419D01*
X029670Y017363D01*
X029735Y017316D01*
X029807Y017279D01*
X029884Y017254D01*
X029964Y017241D01*
X030005Y017241D01*
X030005Y017756D01*
X030005Y017756D01*
X029490Y017756D01*
X029490Y017731D01*
X029357Y017865D01*
X029139Y017955D01*
X028903Y017955D01*
X028685Y017865D01*
X028518Y017698D01*
X028428Y017480D01*
X028428Y017244D01*
X028518Y017026D01*
X028685Y016859D01*
X028903Y016769D01*
X029139Y016769D01*
X029357Y016859D01*
X029524Y017026D01*
X029539Y017063D02*
X030495Y017063D01*
X030495Y016905D02*
X029402Y016905D01*
X029604Y017222D02*
X030495Y017222D01*
X030495Y017380D02*
X030357Y017380D01*
X030472Y017539D02*
X030495Y017539D01*
X030495Y018014D02*
X030451Y018014D01*
X030495Y018173D02*
X030307Y018173D01*
X030495Y018331D02*
X028370Y018331D01*
X028370Y018173D02*
X029703Y018173D01*
X029559Y018014D02*
X028370Y018014D01*
X028370Y017856D02*
X028675Y017856D01*
X028518Y017697D02*
X028370Y017697D01*
X028370Y017539D02*
X028452Y017539D01*
X028428Y017380D02*
X028370Y017380D01*
X028370Y017222D02*
X028437Y017222D01*
X028370Y017063D02*
X028503Y017063D01*
X028370Y016905D02*
X028640Y016905D01*
X028370Y016746D02*
X030495Y016746D01*
X030005Y017380D02*
X030005Y017380D01*
X030005Y017539D02*
X030005Y017539D01*
X030005Y017697D02*
X030005Y017697D01*
X030005Y017756D02*
X030005Y017756D01*
X030005Y017856D02*
X030005Y017856D01*
X030005Y018014D02*
X030005Y018014D01*
X030005Y018173D02*
X030005Y018173D01*
X029500Y017856D02*
X029366Y017856D01*
X029614Y017380D02*
X029653Y017380D01*
X029115Y016588D02*
X028370Y016588D01*
X028773Y016429D02*
X029005Y016429D01*
X029150Y015637D02*
X030495Y015637D01*
X030495Y015478D02*
X029150Y015478D01*
X029150Y015320D02*
X030495Y015320D01*
X030495Y015161D02*
X029150Y015161D01*
X029150Y015003D02*
X030495Y015003D01*
X030495Y014844D02*
X029150Y014844D01*
X029150Y014686D02*
X030495Y014686D01*
X030055Y014527D02*
X029915Y014527D01*
X029915Y014369D02*
X030055Y014369D01*
X030055Y014210D02*
X029915Y014210D01*
X029915Y013893D02*
X030055Y013893D01*
X030055Y013735D02*
X029915Y013735D01*
X030495Y013576D02*
X029286Y013576D01*
X029390Y013418D02*
X030495Y013418D01*
X030495Y013259D02*
X029390Y013259D01*
X029390Y013101D02*
X030495Y013101D01*
X030495Y012942D02*
X029390Y012942D01*
X029390Y012784D02*
X030495Y012784D01*
X030495Y012625D02*
X029390Y012625D01*
X029390Y012467D02*
X030495Y012467D01*
X030495Y012308D02*
X029390Y012308D01*
X029390Y012150D02*
X030495Y012150D01*
X030495Y011991D02*
X029390Y011991D01*
X029390Y011833D02*
X030495Y011833D01*
X030495Y011674D02*
X029338Y011674D01*
X029288Y011516D02*
X030495Y011516D01*
X030495Y011357D02*
X022710Y011357D01*
X022610Y011516D02*
X028712Y011516D01*
X028662Y011674D02*
X022610Y011674D01*
X022610Y011833D02*
X028687Y011833D01*
X028807Y011991D02*
X022610Y011991D01*
X022610Y012150D02*
X028970Y012150D01*
X028970Y012308D02*
X022610Y012308D01*
X022610Y012467D02*
X028970Y012467D01*
X028970Y012625D02*
X028820Y012625D01*
X028968Y012784D02*
X028970Y012784D01*
X028966Y013101D02*
X028970Y013101D01*
X028970Y013259D02*
X028811Y013259D01*
X028850Y013418D02*
X025230Y013418D01*
X025230Y013576D02*
X028730Y013576D01*
X028730Y013735D02*
X025230Y013735D01*
X025230Y013893D02*
X028730Y013893D01*
X028730Y014052D02*
X025230Y014052D01*
X025230Y014210D02*
X028730Y014210D01*
X028730Y014369D02*
X025345Y014369D01*
X025378Y014527D02*
X028730Y014527D01*
X028730Y014686D02*
X025339Y014686D01*
X025174Y014844D02*
X028730Y014844D01*
X028730Y015003D02*
X023379Y015003D01*
X023474Y015161D02*
X028730Y015161D01*
X028730Y015320D02*
X023483Y015320D01*
X023408Y015478D02*
X028730Y015478D01*
X028479Y013259D02*
X025230Y013259D01*
X025230Y013101D02*
X028324Y013101D01*
X029495Y010882D02*
X030495Y010882D01*
X030495Y011040D02*
X023027Y011040D01*
X022868Y011199D02*
X030495Y011199D01*
X030495Y010723D02*
X029654Y010723D01*
X029812Y010565D02*
X030495Y010565D01*
X030495Y010406D02*
X029971Y010406D01*
X029985Y010248D02*
X030495Y010248D01*
X030495Y010089D02*
X029985Y010089D01*
X029985Y009931D02*
X030495Y009931D01*
X030495Y009772D02*
X030409Y009772D01*
X030495Y008134D02*
X030495Y007683D01*
X030481Y007712D01*
X030436Y007773D01*
X030383Y007826D01*
X030322Y007871D01*
X030254Y007905D01*
X030182Y007928D01*
X030108Y007940D01*
X029790Y007940D01*
X029790Y007480D01*
X029750Y007480D01*
X029750Y007940D01*
X029432Y007940D01*
X029358Y007928D01*
X029286Y007905D01*
X029218Y007871D01*
X029157Y007826D01*
X029104Y007773D01*
X029059Y007712D01*
X029025Y007644D01*
X029002Y007572D01*
X028990Y007498D01*
X028990Y007480D01*
X029750Y007480D01*
X029750Y007440D01*
X029790Y007440D01*
X029790Y006980D01*
X030108Y006980D01*
X030182Y006992D01*
X030254Y007015D01*
X030322Y007049D01*
X030383Y007094D01*
X030436Y007147D01*
X030481Y007208D01*
X030495Y007237D01*
X030495Y006786D01*
X030431Y006850D01*
X030261Y006920D01*
X029478Y006920D01*
X029309Y006850D01*
X029180Y006721D01*
X029167Y006690D01*
X028965Y006690D01*
X028965Y007462D01*
X028842Y007585D01*
X028575Y007852D01*
X028575Y009647D01*
X028452Y009770D01*
X028127Y010095D01*
X022701Y010095D01*
X022701Y010427D01*
X022778Y010350D01*
X028393Y010350D01*
X028595Y010148D01*
X028595Y008593D01*
X028845Y008343D01*
X028968Y008220D01*
X029172Y008220D01*
X029180Y008199D01*
X029309Y008070D01*
X029478Y008000D01*
X030261Y008000D01*
X030431Y008070D01*
X030495Y008134D01*
X030495Y008029D02*
X030330Y008029D01*
X030322Y007870D02*
X030495Y007870D01*
X030481Y007712D02*
X030495Y007712D01*
X030495Y007236D02*
X030495Y007236D01*
X030495Y007078D02*
X030360Y007078D01*
X030264Y006919D02*
X030495Y006919D01*
X029790Y007078D02*
X029750Y007078D01*
X029750Y006980D02*
X029750Y007440D01*
X028990Y007440D01*
X028990Y007422D01*
X029002Y007348D01*
X029025Y007276D01*
X029059Y007208D01*
X029104Y007147D01*
X029157Y007094D01*
X029218Y007049D01*
X029286Y007015D01*
X029358Y006992D01*
X029432Y006980D01*
X029750Y006980D01*
X029750Y007236D02*
X029790Y007236D01*
X029790Y007395D02*
X029750Y007395D01*
X029750Y007553D02*
X029790Y007553D01*
X029790Y007712D02*
X029750Y007712D01*
X029750Y007870D02*
X029790Y007870D01*
X029410Y008029D02*
X028575Y008029D01*
X028575Y008187D02*
X029192Y008187D01*
X029218Y007870D02*
X028575Y007870D01*
X028715Y007712D02*
X029059Y007712D01*
X028999Y007553D02*
X028874Y007553D01*
X028965Y007395D02*
X028994Y007395D01*
X028965Y007236D02*
X029045Y007236D01*
X028965Y007078D02*
X029180Y007078D01*
X028965Y006919D02*
X029476Y006919D01*
X029220Y006761D02*
X028965Y006761D01*
X028545Y006761D02*
X026220Y006761D01*
X026220Y006829D02*
X026228Y006843D01*
X026240Y006888D01*
X026240Y007037D01*
X025810Y007037D01*
X025380Y007037D01*
X025380Y006888D01*
X025392Y006843D01*
X025400Y006829D01*
X025400Y006492D01*
X025494Y006398D01*
X025600Y006398D01*
X025600Y006233D01*
X025700Y006133D01*
X025823Y006010D01*
X026423Y006010D01*
X026539Y005962D01*
X026681Y005962D01*
X026813Y006016D01*
X026914Y006117D01*
X026968Y006249D01*
X026968Y006391D01*
X026914Y006523D01*
X026813Y006624D01*
X026681Y006678D01*
X026539Y006678D01*
X026407Y006624D01*
X026306Y006523D01*
X026268Y006430D01*
X026158Y006430D01*
X026220Y006492D01*
X026220Y006829D01*
X026240Y006919D02*
X028545Y006919D01*
X028545Y007078D02*
X026240Y007078D01*
X026240Y007037D02*
X026240Y007186D01*
X026228Y007232D01*
X026204Y007273D01*
X026171Y007306D01*
X026129Y007330D01*
X026084Y007342D01*
X025810Y007342D01*
X025810Y007037D01*
X025810Y007037D01*
X025810Y007037D01*
X025380Y007037D01*
X025380Y007186D01*
X025392Y007232D01*
X025416Y007273D01*
X025449Y007306D01*
X025491Y007330D01*
X025536Y007342D01*
X025810Y007342D01*
X025810Y007037D01*
X026240Y007037D01*
X026225Y007236D02*
X028545Y007236D01*
X028439Y007395D02*
X023006Y007395D01*
X023062Y007553D02*
X028280Y007553D01*
X028155Y007712D02*
X023062Y007712D01*
X023062Y007870D02*
X028155Y007870D01*
X028155Y008029D02*
X023062Y008029D01*
X023009Y008187D02*
X028155Y008187D01*
X028155Y008346D02*
X023452Y008346D01*
X023456Y008504D02*
X028155Y008504D01*
X028155Y008663D02*
X023097Y008663D01*
X023061Y008663D02*
X022688Y008663D01*
X022688Y008821D02*
X022702Y008821D01*
X022688Y008980D02*
X022708Y008980D01*
X022541Y009138D02*
X028155Y009138D01*
X028155Y008980D02*
X023450Y008980D01*
X023456Y008821D02*
X028155Y008821D01*
X028575Y008821D02*
X028595Y008821D01*
X028595Y008663D02*
X028575Y008663D01*
X028575Y008504D02*
X028684Y008504D01*
X028575Y008346D02*
X028843Y008346D01*
X028595Y008980D02*
X028575Y008980D01*
X028575Y009138D02*
X028595Y009138D01*
X028595Y009297D02*
X028575Y009297D01*
X028575Y009455D02*
X028595Y009455D01*
X028595Y009614D02*
X028575Y009614D01*
X028595Y009772D02*
X028450Y009772D01*
X028595Y009931D02*
X028291Y009931D01*
X028133Y010089D02*
X028595Y010089D01*
X028495Y010248D02*
X022701Y010248D01*
X022701Y010406D02*
X022722Y010406D01*
X022701Y009614D02*
X028014Y009614D01*
X028155Y009455D02*
X022701Y009455D01*
X022701Y009297D02*
X028155Y009297D01*
X028268Y006602D02*
X026834Y006602D01*
X026946Y006444D02*
X028254Y006444D01*
X028254Y006285D02*
X026968Y006285D01*
X026917Y006127D02*
X028268Y006127D01*
X028342Y005968D02*
X026696Y005968D01*
X026524Y005968D02*
X022880Y005968D01*
X022880Y005810D02*
X028254Y005810D01*
X028254Y005651D02*
X022880Y005651D01*
X022880Y005493D02*
X028254Y005493D01*
X028494Y005334D02*
X022880Y005334D01*
X022880Y005176D02*
X028653Y005176D01*
X029046Y005651D02*
X029051Y005651D01*
X029046Y005810D02*
X029169Y005810D01*
X028958Y005968D02*
X030495Y005968D01*
X030495Y005810D02*
X030371Y005810D01*
X030489Y005651D02*
X030495Y005651D01*
X030495Y005176D02*
X030436Y005176D01*
X030495Y005017D02*
X030203Y005017D01*
X030149Y004700D02*
X030495Y004700D01*
X030495Y004542D02*
X030323Y004542D01*
X030389Y004383D02*
X030495Y004383D01*
X030495Y004225D02*
X030405Y004225D01*
X030377Y004066D02*
X030495Y004066D01*
X030495Y003908D02*
X030292Y003908D01*
X030495Y003749D02*
X030075Y003749D01*
X030004Y003636D02*
X029918Y003650D01*
X029895Y003650D01*
X029895Y003120D01*
X030425Y003120D01*
X030425Y003143D01*
X030411Y003229D01*
X030385Y003311D01*
X030345Y003388D01*
X030295Y003458D01*
X030233Y003520D01*
X030163Y003570D01*
X030086Y003610D01*
X030004Y003636D01*
X029895Y003591D02*
X029855Y003591D01*
X029855Y003650D02*
X029832Y003650D01*
X029746Y003636D01*
X029664Y003610D01*
X029587Y003570D01*
X029517Y003520D01*
X029455Y003458D01*
X029405Y003388D01*
X029365Y003311D01*
X029339Y003229D01*
X029325Y003143D01*
X029325Y003120D01*
X029855Y003120D01*
X029855Y003650D01*
X029675Y003749D02*
X019445Y003749D01*
X019445Y003908D02*
X029458Y003908D01*
X029626Y003591D02*
X019530Y003591D01*
X019563Y003432D02*
X029436Y003432D01*
X029353Y003274D02*
X019524Y003274D01*
X019403Y003115D02*
X029855Y003115D01*
X029855Y003120D02*
X029855Y003080D01*
X029895Y003080D01*
X029895Y003120D01*
X029855Y003120D01*
X029855Y003080D02*
X029325Y003080D01*
X029325Y003057D01*
X029339Y002971D01*
X029365Y002889D01*
X029405Y002812D01*
X029455Y002742D01*
X029517Y002680D01*
X029587Y002630D01*
X029664Y002590D01*
X029746Y002564D01*
X029832Y002550D01*
X029855Y002550D01*
X029855Y003080D01*
X029895Y003080D02*
X029895Y002550D01*
X029918Y002550D01*
X030004Y002564D01*
X030086Y002590D01*
X030163Y002630D01*
X030233Y002680D01*
X030295Y002742D01*
X030345Y002812D01*
X030385Y002889D01*
X030411Y002971D01*
X030425Y003057D01*
X030425Y003080D01*
X029895Y003080D01*
X029895Y003115D02*
X030495Y003115D01*
X030495Y002957D02*
X030407Y002957D01*
X030335Y002798D02*
X030495Y002798D01*
X030495Y002640D02*
X030177Y002640D01*
X029895Y002640D02*
X029855Y002640D01*
X029855Y002798D02*
X029895Y002798D01*
X029895Y002957D02*
X029855Y002957D01*
X029855Y003274D02*
X029895Y003274D01*
X029895Y003432D02*
X029855Y003432D01*
X030124Y003591D02*
X030495Y003591D01*
X030495Y003432D02*
X030314Y003432D01*
X030397Y003274D02*
X030495Y003274D01*
X030495Y002481D02*
X013664Y002481D01*
X013505Y002323D02*
X030495Y002323D01*
X030495Y002164D02*
X013372Y002164D01*
X013213Y002006D02*
X027620Y002006D01*
X028380Y002006D02*
X030495Y002006D01*
X030495Y001847D02*
X028622Y001847D01*
X028755Y001689D02*
X030495Y001689D01*
X030495Y001530D02*
X028836Y001530D01*
X028893Y001372D02*
X030495Y001372D01*
X030495Y001213D02*
X028905Y001213D01*
X028905Y001055D02*
X030495Y001055D01*
X030495Y000896D02*
X028905Y000896D01*
X028905Y000738D02*
X030495Y000738D01*
X029573Y002640D02*
X018879Y002640D01*
X019086Y002798D02*
X029415Y002798D01*
X029343Y002957D02*
X019244Y002957D01*
X018814Y003432D02*
X013545Y003432D01*
X013545Y003274D02*
X018656Y003274D01*
X018880Y003591D02*
X013545Y003591D01*
X013545Y003749D02*
X019005Y003749D01*
X019005Y003908D02*
X013545Y003908D01*
X013545Y004066D02*
X019005Y004066D01*
X019005Y004225D02*
X013545Y004225D01*
X013545Y004383D02*
X019005Y004383D01*
X019005Y004542D02*
X013545Y004542D01*
X013545Y004700D02*
X019005Y004700D01*
X019005Y004859D02*
X013545Y004859D01*
X013305Y005655D02*
X013305Y007439D01*
X013063Y007197D01*
X013063Y007079D01*
X013009Y006947D01*
X012915Y006853D01*
X012917Y006853D01*
X013042Y006802D01*
X013137Y006707D01*
X013188Y006582D01*
X013188Y006448D01*
X013137Y006323D01*
X013042Y006228D01*
X012917Y006177D01*
X012783Y006177D01*
X012658Y006228D01*
X012563Y006323D01*
X012533Y006395D01*
X012353Y006395D01*
X012230Y006518D01*
X012080Y006668D01*
X012080Y007322D01*
X011950Y007192D01*
X011950Y006188D01*
X012483Y005655D01*
X013305Y005655D01*
X013305Y005810D02*
X012328Y005810D01*
X012170Y005968D02*
X013305Y005968D01*
X013305Y006127D02*
X012011Y006127D01*
X011950Y006285D02*
X012601Y006285D01*
X012305Y006444D02*
X011950Y006444D01*
X011950Y006602D02*
X012146Y006602D01*
X012080Y006761D02*
X011950Y006761D01*
X011950Y006919D02*
X012080Y006919D01*
X012080Y007078D02*
X011950Y007078D01*
X011994Y007236D02*
X012080Y007236D01*
X012980Y006919D02*
X013305Y006919D01*
X013305Y006761D02*
X013083Y006761D01*
X013180Y006602D02*
X013305Y006602D01*
X013305Y006444D02*
X013187Y006444D01*
X013099Y006285D02*
X013305Y006285D01*
X013545Y006285D02*
X014710Y006285D01*
X014710Y006127D02*
X013545Y006127D01*
X013545Y005968D02*
X014710Y005968D01*
X014562Y005810D02*
X013545Y005810D01*
X013545Y006444D02*
X014710Y006444D01*
X014710Y006602D02*
X013545Y006602D01*
X013545Y006761D02*
X014710Y006761D01*
X014710Y006919D02*
X013545Y006919D01*
X013545Y007078D02*
X014710Y007078D01*
X014710Y007236D02*
X013545Y007236D01*
X013545Y007395D02*
X014710Y007395D01*
X014710Y007553D02*
X013545Y007553D01*
X013545Y007712D02*
X014710Y007712D01*
X014710Y007870D02*
X013545Y007870D01*
X013545Y008029D02*
X014710Y008029D01*
X014710Y008187D02*
X013545Y008187D01*
X013545Y008346D02*
X014710Y008346D01*
X014710Y008504D02*
X013545Y008504D01*
X013545Y008663D02*
X014710Y008663D01*
X014710Y008821D02*
X013545Y008821D01*
X013545Y008980D02*
X014710Y008980D01*
X014710Y009138D02*
X013545Y009138D01*
X013545Y009297D02*
X014710Y009297D01*
X014710Y009455D02*
X013545Y009455D01*
X013545Y009614D02*
X014710Y009614D01*
X014710Y009772D02*
X013545Y009772D01*
X013545Y009931D02*
X014710Y009931D01*
X014710Y010089D02*
X013545Y010089D01*
X013545Y010248D02*
X014710Y010248D01*
X014710Y010406D02*
X013545Y010406D01*
X013545Y010565D02*
X014710Y010565D01*
X014710Y010723D02*
X013545Y010723D01*
X013545Y010882D02*
X014710Y010882D01*
X014710Y011040D02*
X013545Y011040D01*
X013545Y011199D02*
X014710Y011199D01*
X014710Y011357D02*
X013545Y011357D01*
X013545Y011516D02*
X014710Y011516D01*
X014710Y011674D02*
X013545Y011674D01*
X013545Y011833D02*
X014710Y011833D01*
X014710Y011991D02*
X013545Y011991D01*
X013545Y012150D02*
X014710Y012150D01*
X014710Y012308D02*
X013545Y012308D01*
X013545Y012467D02*
X014710Y012467D01*
X014710Y012625D02*
X013511Y012625D01*
X013356Y012784D02*
X014710Y012784D01*
X014710Y012942D02*
X013197Y012942D01*
X013039Y013101D02*
X014710Y013101D01*
X014710Y013259D02*
X012940Y013259D01*
X012940Y013418D02*
X014710Y013418D01*
X014710Y013576D02*
X012940Y013576D01*
X012940Y013735D02*
X014710Y013735D01*
X014735Y013893D02*
X012940Y013893D01*
X012940Y014052D02*
X014894Y014052D01*
X015052Y014210D02*
X012940Y014210D01*
X012940Y014369D02*
X015211Y014369D01*
X015500Y013259D02*
X017088Y013259D01*
X016929Y013101D02*
X015500Y013101D01*
X015500Y012942D02*
X016771Y012942D01*
X016670Y012784D02*
X015500Y012784D01*
X015500Y012625D02*
X016670Y012625D01*
X016670Y012467D02*
X015500Y012467D01*
X015500Y012308D02*
X016670Y012308D01*
X016670Y012150D02*
X015500Y012150D01*
X015500Y011991D02*
X016670Y011991D01*
X016670Y011833D02*
X015500Y011833D01*
X015500Y011674D02*
X016670Y011674D01*
X016670Y011516D02*
X015500Y011516D01*
X015500Y011357D02*
X016670Y011357D01*
X016670Y011199D02*
X015500Y011199D01*
X015500Y011040D02*
X016670Y011040D01*
X016670Y010882D02*
X015500Y010882D01*
X015500Y010723D02*
X016670Y010723D01*
X016670Y010565D02*
X015500Y010565D01*
X015500Y010406D02*
X016670Y010406D01*
X016670Y010248D02*
X015500Y010248D01*
X015500Y010089D02*
X016670Y010089D01*
X016670Y009931D02*
X015500Y009931D01*
X015500Y009772D02*
X016670Y009772D01*
X016670Y009614D02*
X015500Y009614D01*
X015500Y009455D02*
X016670Y009455D01*
X016670Y009297D02*
X015500Y009297D01*
X015500Y009138D02*
X016670Y009138D01*
X016670Y008980D02*
X015500Y008980D01*
X015500Y008821D02*
X016670Y008821D01*
X016670Y008663D02*
X015500Y008663D01*
X015500Y008504D02*
X016785Y008504D01*
X016943Y008346D02*
X015500Y008346D01*
X015500Y008187D02*
X016970Y008187D01*
X016970Y008029D02*
X015500Y008029D01*
X015500Y007870D02*
X016970Y007870D01*
X016970Y007712D02*
X015500Y007712D01*
X015500Y007553D02*
X016970Y007553D01*
X016970Y007395D02*
X015500Y007395D01*
X015500Y007236D02*
X016970Y007236D01*
X016970Y007078D02*
X015500Y007078D01*
X015500Y006919D02*
X016970Y006919D01*
X016970Y006761D02*
X015500Y006761D01*
X015500Y006602D02*
X016865Y006602D01*
X016832Y006444D02*
X015500Y006444D01*
X015500Y006285D02*
X016871Y006285D01*
X017035Y006127D02*
X015500Y006127D01*
X015500Y005968D02*
X019005Y005968D01*
X019005Y005810D02*
X015500Y005810D01*
X015489Y005651D02*
X019005Y005651D01*
X019005Y005493D02*
X015330Y005493D01*
X015172Y005334D02*
X019005Y005334D01*
X019005Y005176D02*
X015013Y005176D01*
X014855Y005017D02*
X019005Y005017D01*
X019445Y005017D02*
X022400Y005017D01*
X022400Y004859D02*
X019445Y004859D01*
X019445Y004700D02*
X022415Y004700D01*
X022544Y004542D02*
X019445Y004542D01*
X019445Y004383D02*
X022703Y004383D01*
X022861Y004225D02*
X019445Y004225D01*
X019445Y004066D02*
X023020Y004066D01*
X023185Y004240D02*
X022640Y004785D01*
X022640Y006470D01*
X022770Y006600D01*
X023128Y006602D02*
X025400Y006602D01*
X025400Y006761D02*
X023091Y006761D01*
X022936Y006919D02*
X025380Y006919D01*
X025380Y007078D02*
X022915Y007078D01*
X022915Y007236D02*
X025395Y007236D01*
X025810Y007236D02*
X025810Y007236D01*
X025810Y007078D02*
X025810Y007078D01*
X025810Y007037D02*
X025810Y007037D01*
X025448Y006444D02*
X023093Y006444D01*
X022945Y006285D02*
X025600Y006285D01*
X025707Y006127D02*
X022880Y006127D01*
X022400Y006127D02*
X019445Y006127D01*
X019445Y006285D02*
X022400Y006285D01*
X022400Y006444D02*
X019445Y006444D01*
X019445Y006602D02*
X022412Y006602D01*
X022449Y006761D02*
X019445Y006761D01*
X019445Y006919D02*
X022495Y006919D01*
X022495Y007078D02*
X019445Y007078D01*
X019445Y007236D02*
X022495Y007236D01*
X022404Y007395D02*
X019445Y007395D01*
X019445Y007553D02*
X022348Y007553D01*
X022348Y007712D02*
X019445Y007712D01*
X019445Y007870D02*
X022348Y007870D01*
X022348Y008029D02*
X019445Y008029D01*
X019445Y008187D02*
X022401Y008187D01*
X022688Y008346D02*
X022706Y008346D01*
X022702Y008504D02*
X022688Y008504D01*
X023061Y008504D02*
X023097Y008504D01*
X023097Y008346D02*
X023061Y008346D01*
X023061Y008821D02*
X023097Y008821D01*
X023097Y008980D02*
X023061Y008980D01*
X022121Y009138D02*
X021747Y009138D01*
X021767Y009297D02*
X021909Y009297D01*
X021909Y009455D02*
X021767Y009455D01*
X021767Y009614D02*
X021909Y009614D01*
X021974Y008980D02*
X019548Y008980D01*
X019548Y009138D02*
X019611Y009138D01*
X019536Y008821D02*
X021974Y008821D01*
X021974Y008663D02*
X019445Y008663D01*
X019445Y008504D02*
X021974Y008504D01*
X021974Y008346D02*
X019445Y008346D01*
X019005Y008346D02*
X017410Y008346D01*
X017407Y008504D02*
X019005Y008504D01*
X019005Y008663D02*
X017249Y008663D01*
X017110Y008821D02*
X018045Y008821D01*
X017414Y008980D02*
X017110Y008980D01*
X017110Y009138D02*
X017256Y009138D01*
X017240Y009297D02*
X017110Y009297D01*
X017110Y009455D02*
X017240Y009455D01*
X017240Y009614D02*
X017110Y009614D01*
X017110Y009772D02*
X017240Y009772D01*
X017240Y009931D02*
X017110Y009931D01*
X017110Y010089D02*
X017240Y010089D01*
X017240Y010248D02*
X017110Y010248D01*
X017110Y010406D02*
X017240Y010406D01*
X017240Y010565D02*
X017110Y010565D01*
X017110Y010723D02*
X017247Y010723D01*
X017110Y010882D02*
X017405Y010882D01*
X017110Y011040D02*
X017994Y011040D01*
X017986Y011199D02*
X017110Y011199D01*
X017110Y011357D02*
X017672Y011357D01*
X017513Y011516D02*
X017110Y011516D01*
X017110Y011674D02*
X017270Y011674D01*
X017173Y011833D02*
X017110Y011833D01*
X017110Y011991D02*
X017162Y011991D01*
X017110Y012150D02*
X017233Y012150D01*
X017110Y012308D02*
X020461Y012308D01*
X020461Y012150D02*
X017807Y012150D01*
X017878Y011991D02*
X020461Y011991D01*
X020461Y011833D02*
X019487Y011833D01*
X019548Y011674D02*
X020461Y011674D01*
X020426Y011516D02*
X019548Y011516D01*
X019542Y011199D02*
X019500Y011199D01*
X019532Y011040D02*
X019542Y011040D01*
X018724Y011199D02*
X018684Y011199D01*
X018676Y011040D02*
X018692Y011040D01*
X018737Y011833D02*
X017867Y011833D01*
X017110Y012467D02*
X020461Y012467D01*
X020461Y012625D02*
X017110Y012625D01*
X017235Y012784D02*
X020461Y012784D01*
X020461Y012942D02*
X020003Y012942D01*
X018139Y014527D02*
X012940Y014527D01*
X012940Y014686D02*
X018192Y014686D01*
X018260Y014844D02*
X012940Y014844D01*
X012940Y016271D02*
X015162Y016271D01*
X015168Y016265D02*
X015134Y016298D01*
X015110Y016339D01*
X015098Y016385D01*
X015098Y016645D01*
X015436Y016645D01*
X015773Y016645D01*
X015773Y016905D01*
X015761Y016951D01*
X015737Y016992D01*
X015704Y017025D01*
X015663Y017049D01*
X015617Y017061D01*
X015436Y017061D01*
X015436Y016645D01*
X015436Y016645D01*
X015773Y016645D01*
X015773Y016385D01*
X015761Y016339D01*
X015737Y016298D01*
X015704Y016265D01*
X015663Y016241D01*
X015617Y016229D01*
X015436Y016229D01*
X015436Y016645D01*
X015436Y016645D01*
X015436Y016645D01*
X015436Y017061D01*
X015254Y017061D01*
X015209Y017049D01*
X015168Y017025D01*
X015134Y016992D01*
X015110Y016951D01*
X015098Y016905D01*
X015098Y016645D01*
X015436Y016645D01*
X015436Y016229D01*
X015254Y016229D01*
X015209Y016241D01*
X015168Y016265D01*
X015098Y016429D02*
X012940Y016429D01*
X012940Y016588D02*
X015098Y016588D01*
X015098Y016746D02*
X012940Y016746D01*
X012940Y016905D02*
X015098Y016905D01*
X015436Y016905D02*
X015436Y016905D01*
X015436Y016746D02*
X015436Y016746D01*
X015436Y016645D02*
X015436Y016645D01*
X015436Y016588D02*
X015436Y016588D01*
X015436Y016429D02*
X015436Y016429D01*
X015436Y016271D02*
X015436Y016271D01*
X015709Y016271D02*
X015899Y016271D01*
X015827Y016429D02*
X015773Y016429D01*
X015773Y016588D02*
X015827Y016588D01*
X015827Y016746D02*
X015773Y016746D01*
X015773Y016905D02*
X015827Y016905D01*
X016462Y016905D02*
X016501Y016905D01*
X021724Y017063D02*
X021844Y017063D01*
X021844Y016905D02*
X021802Y016905D01*
X021848Y017222D02*
X021921Y017222D01*
X022240Y017380D02*
X022240Y017380D01*
X022240Y017539D02*
X022240Y017539D01*
X022240Y017629D02*
X022240Y017629D01*
X022240Y017967D01*
X022240Y017629D01*
X022240Y017629D01*
X022240Y017697D02*
X022240Y017697D01*
X022240Y017856D02*
X022240Y017856D01*
X022559Y017222D02*
X022620Y017222D01*
X023060Y017222D02*
X023756Y017222D01*
X023726Y017380D02*
X023060Y017380D01*
X023060Y017539D02*
X023684Y017539D01*
X023684Y017697D02*
X023060Y017697D01*
X023060Y017856D02*
X023558Y017856D01*
X023341Y018014D02*
X023060Y018014D01*
X022934Y018173D02*
X023292Y018173D01*
X023315Y018331D02*
X022775Y018331D01*
X023060Y017063D02*
X023704Y017063D01*
X023704Y016905D02*
X023060Y016905D01*
X023060Y016746D02*
X023704Y016746D01*
X024100Y017380D02*
X024100Y017380D01*
X024100Y017539D02*
X024100Y017539D01*
X022842Y015478D02*
X022663Y015478D01*
X022753Y015320D02*
X022767Y015320D01*
X022757Y015161D02*
X022776Y015161D01*
X022871Y015003D02*
X022674Y015003D01*
X022610Y014844D02*
X024866Y014844D01*
X024701Y014686D02*
X022610Y014686D01*
X022610Y014527D02*
X024662Y014527D01*
X024695Y014369D02*
X022610Y014369D01*
X022610Y014210D02*
X024810Y014210D01*
X024810Y014052D02*
X022610Y014052D01*
X022610Y013893D02*
X024810Y013893D01*
X024810Y013735D02*
X022610Y013735D01*
X022610Y013576D02*
X024810Y013576D01*
X024810Y013418D02*
X022610Y013418D01*
X022610Y013259D02*
X024810Y013259D01*
X024810Y013101D02*
X022610Y013101D01*
X022610Y012942D02*
X024810Y012942D01*
X024864Y012784D02*
X022610Y012784D01*
X022610Y012625D02*
X025023Y012625D01*
X021132Y009297D02*
X021058Y009297D01*
X021039Y009138D02*
X021151Y009138D01*
X020443Y009138D02*
X020345Y009138D01*
X019005Y008187D02*
X017410Y008187D01*
X017410Y008029D02*
X019005Y008029D01*
X019005Y007870D02*
X017410Y007870D01*
X017410Y007712D02*
X019005Y007712D01*
X019005Y007553D02*
X017410Y007553D01*
X017410Y007395D02*
X019005Y007395D01*
X019005Y007236D02*
X017410Y007236D01*
X017410Y007078D02*
X019005Y007078D01*
X019005Y006919D02*
X017410Y006919D01*
X017410Y006761D02*
X019005Y006761D01*
X019005Y006602D02*
X017515Y006602D01*
X017548Y006444D02*
X019005Y006444D01*
X019005Y006285D02*
X017509Y006285D01*
X017345Y006127D02*
X019005Y006127D01*
X019445Y005968D02*
X022400Y005968D01*
X022400Y005810D02*
X019445Y005810D01*
X019445Y005651D02*
X022400Y005651D01*
X022400Y005493D02*
X019445Y005493D01*
X019445Y005334D02*
X022400Y005334D01*
X022400Y005176D02*
X019445Y005176D01*
X022880Y005017D02*
X029337Y005017D01*
X029601Y004700D02*
X023064Y004700D01*
X022906Y004859D02*
X030495Y004859D01*
X029875Y004240D02*
X023185Y004240D01*
X023223Y004542D02*
X029427Y004542D01*
X029253Y006127D02*
X029032Y006127D01*
X030487Y006127D02*
X030495Y006127D01*
X026386Y006602D02*
X026220Y006602D01*
X026172Y006444D02*
X026274Y006444D01*
X028370Y018490D02*
X030495Y018490D01*
X030495Y018648D02*
X028500Y018648D01*
X028659Y018807D02*
X030495Y018807D01*
X030495Y020392D02*
X029549Y020392D01*
X029427Y020550D02*
X030495Y020550D01*
X030495Y020709D02*
X029145Y020709D01*
X028897Y020709D02*
X027402Y020709D01*
X027469Y020550D02*
X028614Y020550D01*
X028492Y020392D02*
X027475Y020392D01*
X027425Y020233D02*
X028428Y020233D01*
X028428Y020075D02*
X027295Y020075D01*
X027209Y019916D02*
X028462Y019916D01*
X028542Y019758D02*
X027481Y019758D01*
X027570Y019599D02*
X028724Y019599D01*
X028382Y019124D02*
X027472Y019124D01*
X027481Y019132D02*
X027428Y019079D01*
X027367Y019034D01*
X027299Y019000D01*
X027227Y018977D01*
X027153Y018965D01*
X027481Y019132D02*
X027526Y019193D01*
X027560Y019261D01*
X027198Y020867D02*
X028797Y020867D01*
X028678Y021026D02*
X027304Y021026D01*
X027505Y021184D02*
X027575Y021353D01*
X027575Y021536D01*
X027505Y021706D01*
X027376Y021835D01*
X027243Y021890D01*
X028428Y021890D01*
X028635Y021683D01*
X028635Y021128D01*
X028635Y021343D02*
X027570Y021343D01*
X027575Y021501D02*
X028635Y021501D01*
X028635Y021660D02*
X027524Y021660D01*
X027393Y021818D02*
X028500Y021818D01*
X029431Y022135D02*
X029635Y022135D01*
X029698Y021977D02*
X029528Y021977D01*
X029555Y021818D02*
X029863Y021818D01*
X029555Y021660D02*
X030495Y021660D01*
X030495Y021818D02*
X030327Y021818D01*
X030492Y021977D02*
X030495Y021977D01*
X030495Y021501D02*
X029555Y021501D01*
X029555Y021343D02*
X030495Y021343D01*
X030495Y021184D02*
X029555Y021184D01*
X029512Y021026D02*
X030495Y021026D01*
X030495Y020867D02*
X029393Y020867D01*
X027088Y023435D02*
X025677Y023435D01*
X025678Y023438D01*
X025678Y023572D01*
X025627Y023697D01*
X025532Y023792D01*
X025407Y023843D01*
X025273Y023843D01*
X025148Y023792D01*
X025053Y023697D01*
X025002Y023572D01*
X025002Y023503D01*
X024913Y023503D01*
X024880Y023490D01*
X024880Y023762D01*
X024880Y023928D01*
X024655Y024153D01*
X024720Y024153D01*
X024720Y024491D01*
X024720Y024828D01*
X024460Y024828D01*
X024414Y024816D01*
X024373Y024792D01*
X024340Y024759D01*
X024316Y024718D01*
X024304Y024672D01*
X024304Y024495D01*
X023633Y024495D01*
X023511Y024617D01*
X023511Y025584D01*
X023534Y025584D01*
X023628Y025678D01*
X023628Y026282D01*
X023534Y026376D01*
X023135Y026376D01*
X023135Y026625D01*
X024386Y026625D01*
X024473Y026538D01*
X024598Y026487D01*
X024732Y026487D01*
X024857Y026538D01*
X024952Y026633D01*
X024987Y026718D01*
X025028Y026618D01*
X025123Y026523D01*
X025248Y026472D01*
X025382Y026472D01*
X025507Y026523D01*
X025602Y026618D01*
X025653Y026743D01*
X025653Y026877D01*
X025602Y027002D01*
X025510Y027094D01*
X025510Y027782D01*
X025563Y027835D01*
X026353Y027835D01*
X026180Y027662D01*
X026180Y026114D01*
X026103Y026037D01*
X026052Y025912D01*
X026052Y025778D01*
X026103Y025653D01*
X026165Y025591D01*
X026165Y025537D01*
X026083Y025537D01*
X025989Y025443D01*
X025989Y025439D01*
X025100Y025439D01*
X025022Y025517D01*
X024940Y025517D01*
X024940Y025776D01*
X024878Y025838D01*
X024878Y025932D01*
X024827Y026057D01*
X024732Y026152D01*
X024607Y026203D01*
X024473Y026203D01*
X024440Y026190D01*
X024337Y026190D01*
X024337Y026282D01*
X024243Y026376D01*
X023796Y026376D01*
X023702Y026282D01*
X023702Y025678D01*
X023796Y025584D01*
X024243Y025584D01*
X024293Y025634D01*
X024348Y025578D01*
X024473Y025527D01*
X024500Y025527D01*
X024500Y025517D01*
X024418Y025517D01*
X024324Y025423D01*
X024324Y024976D01*
X024418Y024882D01*
X025022Y024882D01*
X025116Y024976D01*
X025116Y024999D01*
X025989Y024999D01*
X025989Y024996D01*
X026083Y024902D01*
X026687Y024902D01*
X026781Y024996D01*
X026781Y025443D01*
X026687Y025537D01*
X026605Y025537D01*
X026605Y025581D01*
X026677Y025653D01*
X026728Y025778D01*
X026728Y025912D01*
X026677Y026037D01*
X026600Y026114D01*
X026600Y027488D01*
X026712Y027600D01*
X027172Y027600D01*
X027490Y027918D01*
X027490Y024042D01*
X027441Y023993D01*
X027392Y024042D01*
X027267Y024093D01*
X027133Y024093D01*
X027008Y024042D01*
X026913Y023947D01*
X026862Y023822D01*
X026862Y023688D01*
X026913Y023563D01*
X027008Y023468D01*
X027088Y023435D01*
X026915Y023562D02*
X025678Y023562D01*
X025604Y023720D02*
X026862Y023720D01*
X026885Y023879D02*
X024880Y023879D01*
X024880Y023720D02*
X025076Y023720D01*
X025002Y023562D02*
X024880Y023562D01*
X024771Y024037D02*
X027003Y024037D01*
X026765Y024243D02*
X026789Y024284D01*
X026801Y024329D01*
X026801Y024511D01*
X026801Y024692D01*
X026789Y024738D01*
X026765Y024779D01*
X026732Y024812D01*
X026691Y024836D01*
X026645Y024848D01*
X026385Y024848D01*
X026125Y024848D01*
X026079Y024836D01*
X026038Y024812D01*
X026005Y024779D01*
X025981Y024738D01*
X025969Y024692D01*
X025969Y024511D01*
X026385Y024511D01*
X026385Y024848D01*
X026385Y024511D01*
X026385Y024511D01*
X026385Y024511D01*
X026801Y024511D01*
X026385Y024511D01*
X026385Y024511D01*
X025969Y024511D01*
X025969Y024329D01*
X025981Y024284D01*
X026005Y024243D01*
X026038Y024209D01*
X026079Y024185D01*
X026125Y024173D01*
X026385Y024173D01*
X026385Y024511D01*
X026385Y024173D01*
X026645Y024173D01*
X026691Y024185D01*
X026732Y024209D01*
X026765Y024243D01*
X026708Y024196D02*
X027490Y024196D01*
X027490Y024354D02*
X026801Y024354D01*
X026801Y024513D02*
X027490Y024513D01*
X027490Y024671D02*
X026801Y024671D01*
X026702Y024830D02*
X027490Y024830D01*
X027490Y024988D02*
X026774Y024988D01*
X026781Y025147D02*
X027490Y025147D01*
X027490Y025305D02*
X026781Y025305D01*
X026761Y025464D02*
X027490Y025464D01*
X027490Y025622D02*
X026646Y025622D01*
X026728Y025781D02*
X027490Y025781D01*
X027490Y025939D02*
X026717Y025939D01*
X026616Y026098D02*
X027490Y026098D01*
X027490Y026256D02*
X026600Y026256D01*
X026600Y026415D02*
X027490Y026415D01*
X027490Y026573D02*
X026600Y026573D01*
X026600Y026732D02*
X027490Y026732D01*
X027490Y026890D02*
X026600Y026890D01*
X026600Y027049D02*
X027490Y027049D01*
X027490Y027207D02*
X026600Y027207D01*
X026600Y027366D02*
X027490Y027366D01*
X027490Y027524D02*
X026636Y027524D01*
X026180Y027524D02*
X025510Y027524D01*
X025510Y027366D02*
X026180Y027366D01*
X026180Y027207D02*
X025510Y027207D01*
X025555Y027049D02*
X026180Y027049D01*
X026180Y026890D02*
X025648Y026890D01*
X025649Y026732D02*
X026180Y026732D01*
X026180Y026573D02*
X025557Y026573D01*
X026164Y026098D02*
X024786Y026098D01*
X024876Y025939D02*
X026063Y025939D01*
X026052Y025781D02*
X024936Y025781D01*
X024940Y025622D02*
X026134Y025622D01*
X026009Y025464D02*
X025076Y025464D01*
X025116Y024988D02*
X025996Y024988D01*
X026068Y024830D02*
X023511Y024830D01*
X023511Y024988D02*
X024324Y024988D01*
X024324Y025147D02*
X023511Y025147D01*
X023511Y025305D02*
X024324Y025305D01*
X024364Y025464D02*
X023511Y025464D01*
X023573Y025622D02*
X023757Y025622D01*
X023702Y025781D02*
X023628Y025781D01*
X023628Y025939D02*
X023702Y025939D01*
X023702Y026098D02*
X023628Y026098D01*
X023628Y026256D02*
X023702Y026256D01*
X023135Y026415D02*
X026180Y026415D01*
X026180Y026256D02*
X024337Y026256D01*
X024438Y026573D02*
X023135Y026573D01*
X022625Y025475D02*
X022625Y024945D01*
X022833Y024945D01*
X023111Y025223D01*
X023111Y024451D01*
X023267Y024295D01*
X022233Y024295D01*
X021963Y024565D01*
X020313Y024565D01*
X020260Y024618D01*
X020260Y027872D01*
X020463Y028075D01*
X021503Y028075D01*
X021453Y028025D01*
X021169Y028025D01*
X021075Y027931D01*
X021075Y027059D01*
X021169Y026965D01*
X021325Y026965D01*
X021075Y026715D01*
X021075Y026275D01*
X021355Y025995D01*
X021075Y025715D01*
X021075Y025275D01*
X021385Y024965D01*
X021825Y024965D01*
X022091Y025231D01*
X022377Y024945D01*
X022585Y024945D01*
X022585Y025475D01*
X022625Y025475D01*
X022625Y025464D02*
X022585Y025464D01*
X022585Y025305D02*
X022625Y025305D01*
X022625Y025147D02*
X022585Y025147D01*
X022585Y024988D02*
X022625Y024988D01*
X022876Y024988D02*
X023111Y024988D01*
X023111Y024830D02*
X020260Y024830D01*
X020260Y024988D02*
X021362Y024988D01*
X021204Y025147D02*
X020260Y025147D01*
X020260Y025305D02*
X021075Y025305D01*
X021075Y025464D02*
X020260Y025464D01*
X020260Y025622D02*
X021075Y025622D01*
X021141Y025781D02*
X020260Y025781D01*
X020260Y025939D02*
X021300Y025939D01*
X021253Y026098D02*
X020260Y026098D01*
X020260Y026256D02*
X021094Y026256D01*
X021075Y026415D02*
X020260Y026415D01*
X020260Y026573D02*
X021075Y026573D01*
X021092Y026732D02*
X020260Y026732D01*
X020260Y026890D02*
X021251Y026890D01*
X021085Y027049D02*
X020260Y027049D01*
X020260Y027207D02*
X021075Y027207D01*
X021075Y027366D02*
X020260Y027366D01*
X020260Y027524D02*
X021075Y027524D01*
X021075Y027683D02*
X020260Y027683D01*
X020260Y027841D02*
X021075Y027841D01*
X021143Y028000D02*
X020387Y028000D01*
X020544Y028475D02*
X020547Y028478D01*
X020547Y028570D01*
X021302Y028570D01*
X021386Y028568D01*
X021389Y028570D01*
X021392Y028570D01*
X021451Y028629D01*
X021574Y028745D01*
X021577Y028745D01*
X021636Y028804D01*
X021698Y028862D01*
X021698Y028866D01*
X021700Y028868D01*
X021700Y028937D01*
X021773Y028907D01*
X021907Y028907D01*
X021976Y028935D01*
X023281Y028935D01*
X023253Y028907D01*
X023202Y028782D01*
X023202Y028648D01*
X023248Y028536D01*
X023187Y028475D01*
X020544Y028475D01*
X023187Y028475D01*
X023207Y028634D02*
X021456Y028634D01*
X021624Y028792D02*
X023206Y028792D01*
X023947Y029355D02*
X022161Y029355D01*
X022127Y029437D01*
X022032Y029532D01*
X021907Y029583D01*
X021773Y029583D01*
X021700Y029553D01*
X021700Y030205D01*
X022205Y030205D01*
X022287Y030201D01*
X022291Y030205D01*
X022297Y030205D01*
X022355Y030263D01*
X022511Y030405D01*
X022517Y030405D01*
X022569Y030457D01*
X022677Y030457D01*
X022802Y030508D01*
X022897Y030603D01*
X022948Y030728D01*
X022948Y030862D01*
X022897Y030987D01*
X022802Y031082D01*
X022677Y031133D01*
X022543Y031133D01*
X022482Y031108D01*
X022497Y031123D01*
X022548Y031248D01*
X022548Y031382D01*
X022519Y031454D01*
X022584Y031452D01*
X022588Y031455D01*
X022593Y031455D01*
X022648Y031511D01*
X022958Y031795D01*
X024194Y031795D01*
X024163Y031764D01*
X024139Y031723D01*
X024127Y031677D01*
X024127Y031357D01*
X024525Y031357D01*
X024525Y031241D01*
X024640Y031241D01*
X024640Y030764D01*
X024882Y030764D01*
X024928Y030777D01*
X024969Y030800D01*
X025002Y030834D01*
X025026Y030875D01*
X025038Y030921D01*
X025038Y031241D01*
X024640Y031241D01*
X024640Y031357D01*
X025038Y031357D01*
X025038Y031677D01*
X025026Y031723D01*
X025002Y031764D01*
X024971Y031795D01*
X026227Y031795D01*
X026250Y031772D01*
X026250Y029411D01*
X026147Y029453D01*
X026013Y029453D01*
X025888Y029402D01*
X025793Y029307D01*
X025742Y029182D01*
X025742Y029055D01*
X024247Y029055D01*
X024070Y029232D01*
X023947Y029355D01*
X024034Y029268D02*
X025777Y029268D01*
X025742Y029109D02*
X024193Y029109D01*
X024283Y030764D02*
X024525Y030764D01*
X024525Y031241D01*
X024127Y031241D01*
X024127Y030921D01*
X024139Y030875D01*
X024163Y030834D01*
X024196Y030800D01*
X024237Y030777D01*
X024283Y030764D01*
X024152Y030853D02*
X022948Y030853D01*
X022934Y030694D02*
X026250Y030694D01*
X026250Y030536D02*
X022829Y030536D01*
X022480Y030377D02*
X026250Y030377D01*
X026250Y030219D02*
X022311Y030219D01*
X022129Y030625D02*
X021577Y030625D01*
X021568Y030625D01*
X021568Y030706D01*
X021514Y030838D01*
X021413Y030939D01*
X021281Y030993D01*
X021139Y030993D01*
X021050Y030956D01*
X021050Y030962D01*
X021100Y031012D01*
X021100Y031015D01*
X021196Y031115D01*
X021931Y031115D01*
X022018Y031028D01*
X022143Y030977D01*
X022277Y030977D01*
X022338Y031002D01*
X022323Y030987D01*
X022272Y030862D01*
X022272Y030755D01*
X022129Y030625D01*
X022205Y030694D02*
X021568Y030694D01*
X021499Y030853D02*
X022272Y030853D01*
X022059Y031011D02*
X021099Y031011D01*
X020650Y031011D02*
X020642Y031011D01*
X020650Y031019D02*
X020650Y030242D01*
X020777Y030115D01*
X020161Y030115D01*
X020161Y030256D01*
X020161Y030437D01*
X020149Y030483D01*
X020125Y030524D01*
X020092Y030557D01*
X020051Y030581D01*
X020005Y030593D01*
X019745Y030593D01*
X019485Y030593D01*
X019439Y030581D01*
X019398Y030557D01*
X019365Y030524D01*
X019341Y030483D01*
X019329Y030437D01*
X019329Y030256D01*
X019745Y030256D01*
X019745Y030593D01*
X019745Y030256D01*
X019745Y030256D01*
X019745Y030256D01*
X020161Y030256D01*
X019745Y030256D01*
X019745Y030256D01*
X019329Y030256D01*
X019329Y030213D01*
X019109Y030433D01*
X019109Y030435D01*
X019047Y030495D01*
X018987Y030555D01*
X018985Y030555D01*
X018984Y030556D01*
X018940Y030556D01*
X018940Y031766D01*
X018946Y031744D01*
X018970Y031703D01*
X019003Y031669D01*
X019044Y031645D01*
X019090Y031633D01*
X019350Y031633D01*
X019350Y031971D01*
X019350Y032308D01*
X019090Y032308D01*
X019044Y032296D01*
X019003Y032272D01*
X018970Y032239D01*
X018946Y032198D01*
X018934Y032152D01*
X018934Y032038D01*
X018770Y032202D01*
X018647Y032325D01*
X015748Y032325D01*
X015748Y032432D01*
X015697Y032557D01*
X015602Y032652D01*
X015477Y032703D01*
X015435Y032703D01*
X015435Y033422D01*
X015788Y033775D01*
X019732Y033775D01*
X019728Y033760D01*
X019728Y033500D01*
X020066Y033500D01*
X020403Y033500D01*
X020403Y033760D01*
X020399Y033775D01*
X020457Y033775D01*
X020457Y033198D01*
X020551Y033104D01*
X020574Y033104D01*
X020574Y032925D01*
X020397Y032925D01*
X020357Y032885D01*
X020327Y032915D01*
X019734Y032915D01*
X019652Y032997D01*
X019048Y032997D01*
X018954Y032903D01*
X018954Y032899D01*
X017837Y032899D01*
X017518Y033218D01*
X017518Y033336D01*
X017464Y033468D01*
X017363Y033569D01*
X017231Y033623D01*
X017089Y033623D01*
X016957Y033569D01*
X016856Y033468D01*
X016802Y033336D01*
X016802Y033194D01*
X016856Y033062D01*
X016957Y032961D01*
X017089Y032907D01*
X017207Y032907D01*
X017655Y032459D01*
X018954Y032459D01*
X018954Y032456D01*
X019048Y032362D01*
X019652Y032362D01*
X019746Y032456D01*
X019746Y032495D01*
X020140Y032495D01*
X020140Y032081D01*
X020046Y031988D01*
X019992Y031856D01*
X019992Y031714D01*
X020046Y031582D01*
X020124Y031505D01*
X020076Y031458D01*
X020022Y031326D01*
X020022Y031282D01*
X019443Y031282D01*
X019349Y031188D01*
X019349Y030741D01*
X019443Y030647D01*
X020047Y030647D01*
X020141Y030741D01*
X020141Y030755D01*
X020367Y030755D01*
X020490Y030878D01*
X020550Y030938D01*
X020583Y030951D01*
X020650Y031019D01*
X020650Y030853D02*
X020465Y030853D01*
X020650Y030694D02*
X020095Y030694D01*
X020113Y030536D02*
X020650Y030536D01*
X020650Y030377D02*
X020161Y030377D01*
X020161Y030219D02*
X020674Y030219D01*
X020023Y031328D02*
X018940Y031328D01*
X018940Y031170D02*
X019349Y031170D01*
X019349Y031011D02*
X018940Y031011D01*
X018940Y030853D02*
X019349Y030853D01*
X019395Y030694D02*
X018940Y030694D01*
X019006Y030536D02*
X019377Y030536D01*
X019329Y030377D02*
X019165Y030377D01*
X019323Y030219D02*
X019329Y030219D01*
X019745Y030377D02*
X019745Y030377D01*
X019745Y030536D02*
X019745Y030536D01*
X020105Y031487D02*
X018940Y031487D01*
X018940Y031645D02*
X019046Y031645D01*
X019350Y031645D02*
X019350Y031645D01*
X019350Y031633D02*
X019610Y031633D01*
X019656Y031645D01*
X019697Y031669D01*
X019730Y031703D01*
X019754Y031744D01*
X019766Y031789D01*
X019766Y031971D01*
X019766Y032152D01*
X019754Y032198D01*
X019730Y032239D01*
X019697Y032272D01*
X019656Y032296D01*
X019610Y032308D01*
X019350Y032308D01*
X019350Y031971D01*
X019350Y031971D01*
X019766Y031971D01*
X019350Y031971D01*
X019350Y031971D01*
X019350Y031633D01*
X019350Y031804D02*
X019350Y031804D01*
X019350Y031962D02*
X019350Y031962D01*
X019350Y031971D02*
X019350Y031971D01*
X019350Y032121D02*
X019350Y032121D01*
X019350Y032279D02*
X019350Y032279D01*
X019015Y032279D02*
X018693Y032279D01*
X018851Y032121D02*
X018934Y032121D01*
X018972Y032438D02*
X015746Y032438D01*
X015658Y032596D02*
X017518Y032596D01*
X017359Y032755D02*
X015435Y032755D01*
X015435Y032913D02*
X017074Y032913D01*
X016853Y033072D02*
X015435Y033072D01*
X015435Y033230D02*
X016802Y033230D01*
X016824Y033389D02*
X015435Y033389D01*
X015560Y033547D02*
X016936Y033547D01*
X017384Y033547D02*
X019728Y033547D01*
X019728Y033500D02*
X019728Y033240D01*
X019740Y033194D01*
X019764Y033153D01*
X019798Y033120D01*
X019839Y033096D01*
X019884Y033084D01*
X020066Y033084D01*
X020247Y033084D01*
X020293Y033096D01*
X020334Y033120D01*
X020367Y033153D01*
X020391Y033194D01*
X020403Y033240D01*
X020403Y033500D01*
X020066Y033500D01*
X020066Y033500D01*
X020066Y033084D01*
X020066Y033500D01*
X020066Y033500D01*
X019728Y033500D01*
X019728Y033389D02*
X017496Y033389D01*
X017518Y033230D02*
X019731Y033230D01*
X020066Y033230D02*
X020066Y033230D01*
X020066Y033389D02*
X020066Y033389D01*
X020066Y033500D02*
X020066Y033500D01*
X020403Y033547D02*
X020457Y033547D01*
X020457Y033389D02*
X020403Y033389D01*
X020400Y033230D02*
X020457Y033230D01*
X020574Y033072D02*
X017665Y033072D01*
X017823Y032913D02*
X018964Y032913D01*
X018520Y031804D02*
X014930Y031804D01*
X014930Y031962D02*
X015516Y031962D01*
X015176Y032121D02*
X014930Y032121D01*
X014930Y032279D02*
X015079Y032279D01*
X015055Y032438D02*
X014930Y032438D01*
X014930Y032596D02*
X015035Y032596D01*
X015035Y032755D02*
X014930Y032755D01*
X014930Y032913D02*
X015035Y032913D01*
X015035Y033072D02*
X014930Y033072D01*
X014930Y033230D02*
X015035Y033230D01*
X015035Y033389D02*
X014930Y033389D01*
X014930Y033547D02*
X015035Y033547D01*
X014930Y033706D02*
X015153Y033706D01*
X015311Y033864D02*
X014930Y033864D01*
X014930Y034023D02*
X015470Y034023D01*
X015718Y033706D02*
X019728Y033706D01*
X020403Y033706D02*
X020457Y033706D01*
X021092Y033706D02*
X021601Y033706D01*
X022019Y033706D02*
X024127Y033706D01*
X024127Y033864D02*
X022130Y033864D01*
X022148Y034023D02*
X024178Y034023D01*
X024525Y034023D02*
X024640Y034023D01*
X024640Y034077D02*
X024640Y033601D01*
X025038Y033601D01*
X025038Y033921D01*
X025026Y033967D01*
X025002Y034008D01*
X024969Y034041D01*
X024928Y034065D01*
X024882Y034077D01*
X024640Y034077D01*
X024640Y033864D02*
X024525Y033864D01*
X024525Y033706D02*
X024640Y033706D01*
X024640Y033547D02*
X026669Y033547D01*
X026511Y033389D02*
X025038Y033389D01*
X025038Y033230D02*
X026352Y033230D01*
X026601Y032913D02*
X028241Y032913D01*
X028241Y032845D02*
X028222Y032826D01*
X028143Y032905D01*
X026593Y032905D01*
X026928Y033240D01*
X028182Y033240D01*
X028182Y033205D01*
X028241Y033146D01*
X028241Y032996D01*
X028716Y032996D01*
X028716Y032996D01*
X028241Y032996D01*
X028241Y032845D01*
X028241Y033072D02*
X026759Y033072D01*
X026918Y033230D02*
X028182Y033230D01*
X028182Y033706D02*
X025038Y033706D01*
X025038Y033864D02*
X028182Y033864D01*
X028182Y034023D02*
X024987Y034023D01*
X024525Y033547D02*
X021092Y033547D01*
X021092Y033389D02*
X024127Y033389D01*
X024127Y033230D02*
X021092Y033230D01*
X020385Y032913D02*
X020329Y032913D01*
X020140Y032438D02*
X019728Y032438D01*
X019685Y032279D02*
X020140Y032279D01*
X020140Y032121D02*
X019766Y032121D01*
X019766Y031962D02*
X020036Y031962D01*
X019992Y031804D02*
X019766Y031804D01*
X019654Y031645D02*
X020020Y031645D01*
X018520Y031645D02*
X014930Y031645D01*
X014930Y031487D02*
X018520Y031487D01*
X018520Y031328D02*
X014930Y031328D01*
X014930Y031170D02*
X017925Y031170D01*
X017834Y031011D02*
X014930Y031011D01*
X014930Y030853D02*
X017834Y030853D01*
X017834Y030694D02*
X014930Y030694D01*
X015035Y030536D02*
X017707Y030536D01*
X016223Y030377D02*
X015205Y030377D01*
X015310Y030219D02*
X016060Y030219D01*
X015897Y030060D02*
X015310Y030060D01*
X015309Y029902D02*
X015734Y029902D01*
X015571Y029743D02*
X015308Y029743D01*
X015308Y029585D02*
X015408Y029585D01*
X014930Y034181D02*
X021537Y034181D01*
X022083Y034181D02*
X029702Y034181D01*
X029702Y034231D02*
X029702Y034115D01*
X029817Y034115D01*
X029817Y033717D01*
X030157Y033717D01*
X030203Y033730D01*
X030244Y033753D01*
X030278Y033787D01*
X030301Y033828D01*
X030314Y033874D01*
X030314Y034115D01*
X029817Y034115D01*
X029817Y034231D01*
X029702Y034231D01*
X029702Y034628D01*
X029362Y034628D01*
X029316Y034616D01*
X029275Y034592D01*
X029242Y034559D01*
X029218Y034518D01*
X029206Y034472D01*
X029206Y034231D01*
X029702Y034231D01*
X029702Y034340D02*
X029817Y034340D01*
X029817Y034231D02*
X029817Y034628D01*
X030157Y034628D01*
X030203Y034616D01*
X030244Y034592D01*
X030278Y034559D01*
X030301Y034518D01*
X030314Y034472D01*
X030314Y034231D01*
X029817Y034231D01*
X029817Y034181D02*
X030495Y034181D01*
X030495Y034023D02*
X030314Y034023D01*
X030311Y033864D02*
X030495Y033864D01*
X030495Y033706D02*
X029093Y033706D01*
X029093Y033864D02*
X029208Y033864D01*
X029206Y033874D02*
X029218Y033828D01*
X029242Y033787D01*
X029275Y033753D01*
X029316Y033730D01*
X029362Y033717D01*
X029702Y033717D01*
X029702Y034115D01*
X029206Y034115D01*
X029206Y033874D01*
X029206Y034023D02*
X029093Y034023D01*
X029206Y034340D02*
X014962Y034340D01*
X015120Y034498D02*
X029213Y034498D01*
X029702Y034498D02*
X029817Y034498D01*
X029817Y034023D02*
X029702Y034023D01*
X029702Y033864D02*
X029817Y033864D01*
X030314Y034340D02*
X030495Y034340D01*
X030495Y034498D02*
X030307Y034498D01*
X030495Y034657D02*
X015279Y034657D01*
X015437Y034815D02*
X030495Y034815D01*
X030495Y034974D02*
X015596Y034974D01*
X015754Y035132D02*
X030495Y035132D01*
X030495Y035291D02*
X015913Y035291D01*
X015930Y035449D02*
X030495Y035449D01*
X030495Y035608D02*
X015930Y035608D01*
X015930Y035766D02*
X030495Y035766D01*
X030495Y035925D02*
X015930Y035925D01*
X015930Y036083D02*
X030495Y036083D01*
X030495Y036242D02*
X015930Y036242D01*
X015930Y036400D02*
X030495Y036400D01*
X030495Y036559D02*
X015930Y036559D01*
X015930Y036717D02*
X030495Y036717D01*
X030495Y036876D02*
X015930Y036876D01*
X015930Y037034D02*
X030495Y037034D01*
X030495Y037193D02*
X015930Y037193D01*
X015930Y037351D02*
X030495Y037351D01*
X030495Y037510D02*
X028476Y037510D01*
X028591Y037576D02*
X028591Y037576D01*
X028668Y037668D02*
X030495Y037668D01*
X030495Y037827D02*
X028798Y037827D01*
X028796Y037821D02*
X028796Y037821D01*
X028856Y037985D02*
X030495Y037985D01*
X030495Y038144D02*
X028905Y038144D01*
X028905Y038302D02*
X030495Y038302D01*
X030495Y038461D02*
X028905Y038461D01*
X028905Y038619D02*
X030495Y038619D01*
X028314Y037416D02*
X028314Y037416D01*
X028000Y037361D02*
X028000Y037361D01*
X027686Y037416D02*
X027686Y037416D01*
X027524Y037510D02*
X015930Y037510D01*
X015930Y037668D02*
X027332Y037668D01*
X027202Y037827D02*
X015930Y037827D01*
X015817Y037985D02*
X027144Y037985D01*
X027095Y038144D02*
X015658Y038144D01*
X015500Y038302D02*
X027095Y038302D01*
X029093Y033547D02*
X030495Y033547D01*
X030495Y033389D02*
X029093Y033389D01*
X029175Y033230D02*
X030495Y033230D01*
X030495Y033072D02*
X029192Y033072D01*
X029192Y032996D02*
X028716Y032996D01*
X028716Y032996D01*
X029192Y032996D01*
X029192Y032913D02*
X030495Y032913D01*
X030495Y032755D02*
X029171Y032755D01*
X029093Y032596D02*
X030495Y032596D01*
X030495Y032438D02*
X029093Y032438D01*
X029172Y032279D02*
X030495Y032279D01*
X030495Y032121D02*
X029172Y032121D01*
X029172Y031962D02*
X030495Y031962D01*
X030495Y031804D02*
X029093Y031804D01*
X029093Y031645D02*
X030495Y031645D01*
X030495Y031487D02*
X029093Y031487D01*
X028935Y031328D02*
X030495Y031328D01*
X030495Y031170D02*
X028935Y031170D01*
X029093Y031011D02*
X030495Y031011D01*
X030495Y030853D02*
X029093Y030853D01*
X029093Y030694D02*
X030495Y030694D01*
X030495Y030536D02*
X029022Y030536D01*
X028253Y030536D02*
X027980Y030536D01*
X028018Y030694D02*
X028182Y030694D01*
X028182Y030853D02*
X027981Y030853D01*
X028053Y031011D02*
X027801Y031011D01*
X027797Y030377D02*
X030495Y030377D01*
X030495Y030219D02*
X027670Y030219D01*
X027670Y030060D02*
X030495Y030060D01*
X030495Y029902D02*
X027670Y029902D01*
X027670Y029743D02*
X030495Y029743D01*
X030495Y029585D02*
X027670Y029585D01*
X027670Y029426D02*
X029687Y029426D01*
X029669Y029415D02*
X029635Y029382D01*
X029612Y029341D01*
X029599Y029295D01*
X029599Y029053D01*
X030096Y029053D01*
X030096Y029451D01*
X029756Y029451D01*
X029710Y029439D01*
X029669Y029415D01*
X029599Y029268D02*
X028126Y029268D01*
X028233Y029109D02*
X029599Y029109D01*
X029599Y028938D02*
X029599Y028696D01*
X029612Y028651D01*
X029635Y028610D01*
X029669Y028576D01*
X029710Y028552D01*
X029756Y028540D01*
X030096Y028540D01*
X030096Y028938D01*
X029599Y028938D01*
X029599Y028792D02*
X028176Y028792D01*
X028248Y028951D02*
X030096Y028951D01*
X030096Y029109D02*
X030211Y029109D01*
X030211Y029268D02*
X030096Y029268D01*
X030096Y029426D02*
X030211Y029426D01*
X030211Y028792D02*
X030096Y028792D01*
X030096Y028634D02*
X030211Y028634D01*
X030495Y028475D02*
X027910Y028475D01*
X027910Y028317D02*
X030495Y028317D01*
X030495Y028158D02*
X027910Y028158D01*
X027910Y028000D02*
X030495Y028000D01*
X030495Y027841D02*
X030323Y027841D01*
X030414Y027683D02*
X030495Y027683D01*
X030495Y027524D02*
X030415Y027524D01*
X030415Y027366D02*
X030495Y027366D01*
X030495Y026573D02*
X029854Y026573D01*
X029246Y026573D02*
X027910Y026573D01*
X027910Y026415D02*
X029164Y026415D01*
X029154Y026256D02*
X027910Y026256D01*
X027910Y026098D02*
X029154Y026098D01*
X029172Y025939D02*
X027910Y025939D01*
X027910Y025781D02*
X029340Y025781D01*
X029340Y025622D02*
X027910Y025622D01*
X027910Y025464D02*
X029322Y025464D01*
X029154Y026732D02*
X027910Y026732D01*
X027910Y026890D02*
X029154Y026890D01*
X029154Y027113D02*
X029248Y027207D01*
X029340Y027207D01*
X029301Y027366D02*
X027910Y027366D01*
X027910Y027524D02*
X029207Y027524D01*
X029206Y027683D02*
X027910Y027683D01*
X027910Y027841D02*
X029297Y027841D01*
X029783Y027841D02*
X029837Y027841D01*
X029621Y028634D02*
X027910Y028634D01*
X027694Y029268D02*
X027670Y029268D01*
X027490Y027841D02*
X027413Y027841D01*
X027490Y027683D02*
X027255Y027683D01*
X026201Y027683D02*
X025510Y027683D01*
X025073Y026573D02*
X024892Y026573D01*
X024304Y025622D02*
X024281Y025622D01*
X024720Y024828D02*
X024720Y024491D01*
X024720Y024491D01*
X025136Y024491D01*
X025136Y024672D01*
X025124Y024718D01*
X025100Y024759D01*
X025067Y024792D01*
X025026Y024816D01*
X024980Y024828D01*
X024720Y024828D01*
X024720Y024671D02*
X024720Y024671D01*
X024720Y024513D02*
X024720Y024513D01*
X024720Y024491D02*
X024720Y024491D01*
X025136Y024491D01*
X025136Y024309D01*
X025124Y024264D01*
X025100Y024223D01*
X025067Y024189D01*
X025026Y024165D01*
X024980Y024153D01*
X024720Y024153D01*
X024720Y024491D01*
X024720Y024491D01*
X024720Y024354D02*
X024720Y024354D01*
X024720Y024196D02*
X024720Y024196D01*
X025073Y024196D02*
X026062Y024196D01*
X025969Y024354D02*
X025136Y024354D01*
X025136Y024513D02*
X025969Y024513D01*
X025969Y024671D02*
X025136Y024671D01*
X024304Y024671D02*
X023511Y024671D01*
X023615Y024513D02*
X024304Y024513D01*
X023208Y024354D02*
X022174Y024354D01*
X022015Y024513D02*
X023111Y024513D01*
X023111Y024671D02*
X020260Y024671D01*
X021848Y024988D02*
X022334Y024988D01*
X022176Y025147D02*
X022006Y025147D01*
X023034Y025147D02*
X023111Y025147D01*
X026385Y024830D02*
X026385Y024830D01*
X026385Y024671D02*
X026385Y024671D01*
X026385Y024513D02*
X026385Y024513D01*
X026385Y024511D02*
X026385Y024511D01*
X026385Y024354D02*
X026385Y024354D01*
X026385Y024196D02*
X026385Y024196D01*
X027397Y024037D02*
X027485Y024037D01*
X027910Y025147D02*
X027925Y025147D01*
X027910Y025305D02*
X028083Y025305D01*
X026125Y021184D02*
X026254Y021055D01*
X026232Y020867D02*
X024567Y020867D01*
X025947Y029426D02*
X022131Y029426D01*
X021700Y029585D02*
X026250Y029585D01*
X026250Y029743D02*
X021700Y029743D01*
X021700Y029902D02*
X026250Y029902D01*
X026250Y030060D02*
X021700Y030060D01*
X022516Y031170D02*
X024127Y031170D01*
X024127Y031011D02*
X022873Y031011D01*
X022548Y031328D02*
X024525Y031328D01*
X024640Y031328D02*
X026250Y031328D01*
X026250Y031170D02*
X025038Y031170D01*
X025038Y031011D02*
X026250Y031011D01*
X026250Y030853D02*
X025013Y030853D01*
X024640Y030853D02*
X024525Y030853D01*
X024525Y031011D02*
X024640Y031011D01*
X024640Y031170D02*
X024525Y031170D01*
X024127Y031487D02*
X022624Y031487D01*
X022795Y031645D02*
X024127Y031645D01*
X025038Y031645D02*
X026250Y031645D01*
X026250Y031487D02*
X025038Y031487D01*
X026213Y029426D02*
X026250Y029426D01*
X028125Y032130D02*
X028040Y032215D01*
X028125Y032130D02*
X028716Y032130D01*
X013305Y007395D02*
X013261Y007395D01*
X013305Y007236D02*
X013102Y007236D01*
X013063Y007078D02*
X013305Y007078D01*
X005872Y025305D02*
X005760Y025305D01*
X005760Y025464D02*
X006031Y025464D01*
X006189Y025622D02*
X005734Y025622D01*
X005760Y025781D02*
X006348Y025781D01*
X006506Y025939D02*
X005760Y025939D01*
X005760Y026415D02*
X006073Y026415D01*
X005915Y026573D02*
X005760Y026573D01*
X005756Y026732D02*
X005728Y026732D01*
D31*
X007330Y024310D03*
X010900Y021395D03*
X013510Y022105D03*
X015645Y022750D03*
X016990Y022345D03*
X017275Y022700D03*
X018355Y022180D03*
X019505Y022740D03*
X020520Y021705D03*
X020180Y021025D03*
X020550Y020710D03*
X019820Y020345D03*
X020820Y023115D03*
X021240Y023515D03*
X021680Y024005D03*
X021110Y025995D03*
X020890Y027665D03*
X019700Y027995D03*
X021840Y029245D03*
X022710Y029540D03*
X022680Y028730D03*
X023540Y028715D03*
X023930Y029510D03*
X024440Y030600D03*
X025550Y029200D03*
X026080Y029115D03*
X027300Y027420D03*
X028770Y026720D03*
X029540Y027605D03*
X030080Y027605D03*
X027910Y029005D03*
X027680Y030695D03*
X028040Y032215D03*
X026250Y033410D03*
X023710Y033990D03*
X022145Y032505D03*
X021580Y032155D03*
X021470Y032885D03*
X020990Y032815D03*
X021810Y033975D03*
X022210Y031315D03*
X021950Y030800D03*
X022610Y030795D03*
X020450Y030590D03*
X023430Y027465D03*
X024665Y026825D03*
X025315Y026810D03*
X024540Y025865D03*
X025140Y025675D03*
X025740Y024775D03*
X026390Y025845D03*
X027200Y023755D03*
X027870Y021690D03*
X025340Y023505D03*
X024980Y023165D03*
X024420Y023055D03*
X024380Y023555D03*
X024320Y018185D03*
X024440Y015965D03*
X025940Y014705D03*
X026300Y015065D03*
X026720Y015305D03*
X026720Y014165D03*
X026720Y013625D03*
X027200Y014165D03*
X027740Y014165D03*
X028280Y014165D03*
X028520Y014645D03*
X028520Y015425D03*
X025880Y014165D03*
X025880Y013625D03*
X029000Y011705D03*
X018890Y014275D03*
X018590Y013925D03*
X018530Y014635D03*
X016760Y016685D03*
X013370Y016810D03*
X011290Y014375D03*
X010870Y014135D03*
X010430Y013925D03*
X009935Y012845D03*
X009300Y015735D03*
X009310Y015745D03*
X012850Y006515D03*
X015410Y032365D03*
X006020Y035185D03*
X005710Y037550D03*
X029990Y033290D03*
D32*
X028638Y033429D02*
X028626Y033440D01*
X026845Y033440D01*
X026290Y032885D01*
X021470Y032885D01*
X021330Y032745D01*
X021330Y032675D01*
X020980Y032325D01*
X020970Y031925D01*
X021240Y031655D01*
X022510Y031655D01*
X022880Y031995D01*
X026310Y031995D01*
X026450Y031855D01*
X026450Y028755D01*
X026300Y028605D01*
X024690Y028605D01*
X024360Y028275D01*
X024360Y027975D01*
X024610Y027815D02*
X024610Y027545D01*
X024530Y027465D01*
X023430Y027465D01*
X023020Y026825D02*
X024665Y026825D01*
X024795Y026955D01*
X024795Y027750D01*
X025280Y028235D01*
X026805Y028235D01*
X026970Y028400D01*
X026970Y031335D01*
X027260Y031625D01*
X027700Y031625D01*
X027670Y031655D01*
X027670Y032315D01*
X027520Y032465D01*
X022630Y032465D01*
X022320Y032155D01*
X021580Y032155D01*
X021420Y032485D02*
X022125Y032485D01*
X022145Y032505D01*
X022145Y032560D01*
X022290Y032705D01*
X028060Y032705D01*
X028200Y032565D01*
X028635Y032565D01*
X028638Y032563D01*
X028585Y032510D01*
X028638Y031696D02*
X028566Y031625D01*
X027700Y031625D01*
X027723Y031263D02*
X027200Y030740D01*
X027200Y028220D01*
X027015Y028035D01*
X025480Y028035D01*
X025310Y027865D01*
X025310Y026815D01*
X025315Y026810D01*
X024610Y027815D02*
X025220Y028425D01*
X026650Y028425D01*
X026770Y028545D01*
X026770Y031985D01*
X026560Y032195D01*
X022790Y032195D01*
X022440Y031845D01*
X021320Y031845D01*
X021180Y031985D01*
X021180Y032245D01*
X021420Y032485D01*
X020990Y032815D02*
X020774Y032821D01*
X020774Y032789D01*
X020710Y032725D01*
X020480Y032725D01*
X020350Y032595D01*
X020774Y032821D02*
X020774Y033500D01*
X021810Y033975D02*
X015705Y033975D01*
X015235Y033505D01*
X015235Y032540D01*
X015410Y032365D01*
X019900Y029125D02*
X019900Y028195D01*
X019700Y027995D01*
X020060Y027955D02*
X020060Y024535D01*
X020230Y024365D01*
X021880Y024365D01*
X022150Y024095D01*
X024110Y024095D01*
X024380Y023825D01*
X024380Y023555D01*
X024680Y023315D02*
X024420Y023055D01*
X024680Y023315D02*
X024680Y023845D01*
X024230Y024295D01*
X023550Y024295D01*
X023311Y024534D01*
X023311Y025980D01*
X023260Y026005D02*
X022115Y026005D01*
X021605Y025495D01*
X022605Y026495D02*
X022690Y026495D01*
X023020Y026825D01*
X023270Y028275D02*
X020380Y028275D01*
X020060Y027955D01*
X019900Y029125D02*
X019970Y029195D01*
X020490Y029195D01*
X020680Y029005D01*
X021130Y029005D01*
X021270Y029145D01*
X021270Y030095D01*
X021200Y030165D01*
X021010Y030165D01*
X020850Y030325D01*
X020850Y031045D01*
X020900Y031095D01*
X021110Y031315D01*
X022210Y031315D01*
X022440Y031075D02*
X022165Y030800D01*
X021950Y030800D01*
X022440Y031075D02*
X022460Y031075D01*
X022550Y031165D01*
X022610Y031165D01*
X022690Y031245D01*
X023491Y031245D01*
X023498Y031238D01*
X023540Y028715D02*
X023540Y028545D01*
X023270Y028275D01*
X027723Y031263D02*
X028480Y031263D01*
X028631Y031690D02*
X028638Y031696D01*
X030095Y022520D02*
X029920Y022345D01*
X019100Y022345D01*
X019040Y022285D01*
X020520Y021705D02*
X026555Y021705D01*
X026815Y021445D01*
X018890Y014275D02*
X018490Y014275D01*
X018200Y013985D01*
X015400Y013985D01*
X015110Y013695D01*
X015110Y005825D01*
X014560Y005275D01*
X012320Y005275D01*
X011560Y006035D01*
X011560Y007355D01*
X012140Y007935D01*
X012140Y011785D01*
X011120Y012805D01*
X011120Y014015D01*
X011000Y014135D01*
X010870Y014135D01*
X010870Y013795D02*
X010550Y013795D01*
X010430Y013915D01*
X010430Y013925D01*
X010870Y013795D02*
X010940Y013725D01*
X010940Y012725D01*
X011960Y011705D01*
X011960Y008035D01*
X011350Y007425D01*
X011350Y005975D01*
X012240Y005085D01*
X014640Y005085D01*
X015300Y005745D01*
X015300Y013615D01*
X015480Y013795D01*
X018460Y013795D01*
X018590Y013925D01*
X018130Y014235D02*
X018530Y014635D01*
X018130Y014235D02*
X015360Y014235D01*
X014910Y013785D01*
X014910Y005875D01*
X014490Y005455D01*
X012400Y005455D01*
X011750Y006105D01*
X011750Y007275D01*
X012340Y007865D01*
X012340Y011865D01*
X011290Y012915D01*
X011290Y014375D01*
D33*
X011017Y014523D02*
X009550Y014523D01*
X009550Y014425D02*
X010763Y014425D01*
X010809Y014443D02*
X010695Y014396D01*
X010609Y014310D01*
X010564Y014203D01*
X010491Y014233D01*
X010369Y014233D01*
X010255Y014186D01*
X010169Y014100D01*
X010122Y013986D01*
X010122Y013864D01*
X010169Y013750D01*
X010255Y013664D01*
X010369Y013617D01*
X010491Y013617D01*
X010512Y013625D01*
X010770Y013625D01*
X010770Y012720D01*
X009835Y012720D01*
X009435Y013120D01*
X007799Y013120D01*
X007934Y013255D01*
X009170Y013255D01*
X009262Y013293D01*
X009512Y013543D01*
X009550Y013635D01*
X009550Y015549D01*
X009561Y015560D01*
X009571Y015570D01*
X009618Y015684D01*
X009618Y015806D01*
X009571Y015920D01*
X009560Y015931D01*
X009560Y018780D01*
X010215Y018780D01*
X010307Y018818D01*
X010552Y019063D01*
X010622Y019133D01*
X010660Y019225D01*
X010660Y020801D01*
X010697Y020839D01*
X015000Y020830D01*
X015030Y020790D01*
X015027Y022095D01*
X016804Y022095D01*
X016815Y022084D01*
X016929Y022037D01*
X017051Y022037D01*
X017165Y022084D01*
X017251Y022170D01*
X017298Y022284D01*
X017298Y022406D01*
X017251Y022520D01*
X017165Y022606D01*
X017051Y022653D01*
X016929Y022653D01*
X016815Y022606D01*
X016804Y022595D01*
X015026Y022595D01*
X015025Y022966D01*
X015065Y022925D01*
X015066Y022925D01*
X015140Y022925D01*
X015215Y022925D01*
X019795Y022933D01*
X019795Y022515D01*
X019274Y022515D01*
X019226Y022563D01*
X019105Y022613D01*
X018975Y022613D01*
X018854Y022563D01*
X018762Y022471D01*
X018712Y022350D01*
X018712Y022220D01*
X018762Y022099D01*
X018854Y022007D01*
X018975Y021957D01*
X019105Y021957D01*
X019226Y022007D01*
X019318Y022099D01*
X019350Y022175D01*
X019540Y022175D01*
X019295Y021930D01*
X019295Y020715D01*
X018845Y020265D01*
X017730Y020265D01*
X017830Y020365D01*
X017935Y020470D01*
X017935Y021966D01*
X017938Y021969D01*
X017988Y022090D01*
X017988Y022220D01*
X017938Y022341D01*
X017846Y022433D01*
X017725Y022483D01*
X017595Y022483D01*
X017474Y022433D01*
X017382Y022341D01*
X017332Y022220D01*
X017332Y022090D01*
X017382Y021969D01*
X017474Y021877D01*
X017575Y021835D01*
X017575Y020620D01*
X017410Y020455D01*
X014285Y020450D01*
X014283Y020456D01*
X014191Y020548D01*
X014070Y020598D01*
X013940Y020598D01*
X013819Y020548D01*
X013727Y020456D01*
X013677Y020335D01*
X013677Y020205D01*
X013727Y020084D01*
X013819Y019992D01*
X013940Y019942D01*
X014070Y019942D01*
X014191Y019992D01*
X014283Y020084D01*
X014286Y020090D01*
X015568Y020092D01*
X015345Y019870D01*
X015345Y019270D01*
X015035Y018960D01*
X013315Y018960D01*
X013210Y018855D01*
X011590Y017235D01*
X011590Y014457D01*
X011551Y014550D01*
X011465Y014636D01*
X011351Y014683D01*
X011229Y014683D01*
X011115Y014636D01*
X011029Y014550D01*
X010982Y014436D01*
X010982Y014423D01*
X010931Y014443D01*
X010809Y014443D01*
X010977Y014425D02*
X010982Y014425D01*
X011100Y014622D02*
X009550Y014622D01*
X009550Y014720D02*
X011590Y014720D01*
X011590Y014622D02*
X011480Y014622D01*
X011563Y014523D02*
X011590Y014523D01*
X011590Y014819D02*
X009550Y014819D01*
X009550Y014917D02*
X011590Y014917D01*
X011590Y015016D02*
X009550Y015016D01*
X009550Y015114D02*
X011590Y015114D01*
X011590Y015213D02*
X009550Y015213D01*
X009550Y015311D02*
X011590Y015311D01*
X011590Y015410D02*
X009550Y015410D01*
X009550Y015508D02*
X011590Y015508D01*
X011590Y015607D02*
X009586Y015607D01*
X009618Y015705D02*
X011590Y015705D01*
X011590Y015804D02*
X009618Y015804D01*
X009579Y015902D02*
X011590Y015902D01*
X011590Y016001D02*
X009560Y016001D01*
X009560Y016099D02*
X011590Y016099D01*
X011590Y016198D02*
X009560Y016198D01*
X009560Y016296D02*
X011590Y016296D01*
X011590Y016395D02*
X009560Y016395D01*
X009560Y016493D02*
X011590Y016493D01*
X011590Y016592D02*
X009560Y016592D01*
X009560Y016690D02*
X011590Y016690D01*
X011590Y016789D02*
X009560Y016789D01*
X009560Y016887D02*
X011590Y016887D01*
X011590Y016986D02*
X009560Y016986D01*
X009560Y017084D02*
X011590Y017084D01*
X011590Y017183D02*
X009560Y017183D01*
X009560Y017281D02*
X011636Y017281D01*
X011735Y017380D02*
X009560Y017380D01*
X009560Y017478D02*
X011833Y017478D01*
X011932Y017577D02*
X009560Y017577D01*
X009560Y017675D02*
X012030Y017675D01*
X012129Y017774D02*
X009560Y017774D01*
X009560Y017872D02*
X012227Y017872D01*
X012326Y017971D02*
X009560Y017971D01*
X009560Y018069D02*
X012424Y018069D01*
X012523Y018168D02*
X009560Y018168D01*
X009560Y018266D02*
X012621Y018266D01*
X012720Y018365D02*
X009560Y018365D01*
X009560Y018463D02*
X012818Y018463D01*
X012917Y018562D02*
X009560Y018562D01*
X009560Y018660D02*
X013015Y018660D01*
X013114Y018759D02*
X009560Y018759D01*
X009730Y019030D02*
X009620Y019140D01*
X009620Y019775D01*
X009555Y019840D01*
X009555Y019850D01*
X009600Y019805D01*
X009555Y019850D02*
X009179Y019850D01*
X008892Y019842D02*
X008499Y019842D01*
X008499Y019821D02*
X008499Y019879D01*
X008442Y019879D01*
X008442Y020236D01*
X008499Y020236D01*
X008499Y019879D01*
X008778Y019879D01*
X008778Y020106D01*
X008768Y020144D01*
X008748Y020178D01*
X008720Y020206D01*
X008686Y020226D01*
X008648Y020236D01*
X008499Y020236D01*
X008442Y020236D02*
X008293Y020236D01*
X006891Y020236D01*
X006984Y020335D02*
X010160Y020335D01*
X010160Y020433D02*
X007078Y020433D01*
X007172Y020532D02*
X010160Y020532D01*
X010160Y020630D02*
X007266Y020630D01*
X007359Y020729D02*
X010160Y020729D01*
X010160Y020827D02*
X007453Y020827D01*
X007470Y020845D02*
X010160Y020840D01*
X010160Y019379D01*
X010061Y019280D01*
X009800Y019280D01*
X009800Y019850D01*
X009780Y019870D01*
X009780Y019880D01*
X009735Y019925D01*
X009630Y020030D01*
X009467Y020030D01*
X009467Y020140D01*
X009391Y020216D01*
X008968Y020216D01*
X008892Y020140D01*
X008892Y019560D01*
X008968Y019484D01*
X009391Y019484D01*
X009440Y019533D01*
X009440Y019280D01*
X009269Y019280D01*
X009261Y019288D01*
X009140Y019338D01*
X009010Y019338D01*
X008889Y019288D01*
X008797Y019196D01*
X008747Y019075D01*
X008747Y018945D01*
X008797Y018824D01*
X008889Y018732D01*
X009010Y018682D01*
X009050Y018682D01*
X009060Y018671D01*
X009060Y015931D01*
X009039Y015910D01*
X008992Y015796D01*
X008992Y015674D01*
X009039Y015560D01*
X009050Y015549D01*
X009050Y013789D01*
X009016Y013755D01*
X007780Y013755D01*
X007688Y013717D01*
X007618Y013647D01*
X007328Y013357D01*
X007290Y013265D01*
X007290Y013120D01*
X007195Y013120D01*
X006635Y013680D01*
X006635Y013685D01*
X006675Y013815D01*
X006690Y013830D01*
X006690Y020025D01*
X007470Y020845D01*
X006797Y020138D02*
X008172Y020138D01*
X008173Y020144D02*
X008163Y020106D01*
X008163Y019879D01*
X008442Y019879D01*
X008442Y019821D01*
X008499Y019821D01*
X008499Y019464D01*
X008648Y019464D01*
X008686Y019474D01*
X008720Y019494D01*
X008748Y019522D01*
X008768Y019556D01*
X008778Y019594D01*
X008778Y019821D01*
X008499Y019821D01*
X008442Y019821D02*
X008442Y019464D01*
X008293Y019464D01*
X008255Y019474D01*
X008221Y019494D01*
X008193Y019522D01*
X008173Y019556D01*
X008163Y019594D01*
X008163Y019821D01*
X008442Y019821D01*
X008442Y019842D02*
X006690Y019842D01*
X006690Y019744D02*
X008163Y019744D01*
X008163Y019645D02*
X006690Y019645D01*
X006690Y019547D02*
X008179Y019547D01*
X008442Y019547D02*
X008499Y019547D01*
X008499Y019645D02*
X008442Y019645D01*
X008442Y019744D02*
X008499Y019744D01*
X008499Y019941D02*
X008442Y019941D01*
X008442Y020039D02*
X008499Y020039D01*
X008499Y020138D02*
X008442Y020138D01*
X008293Y020236D02*
X008255Y020226D01*
X008221Y020206D01*
X008193Y020178D01*
X008173Y020144D01*
X008163Y020039D02*
X006703Y020039D01*
X006690Y019941D02*
X008163Y019941D01*
X008649Y020236D02*
X010160Y020236D01*
X010160Y020138D02*
X009467Y020138D01*
X009467Y020039D02*
X010160Y020039D01*
X010160Y019941D02*
X009719Y019941D01*
X009800Y019842D02*
X010160Y019842D01*
X010160Y019744D02*
X009800Y019744D01*
X009800Y019645D02*
X010160Y019645D01*
X010160Y019547D02*
X009800Y019547D01*
X009800Y019448D02*
X010160Y019448D01*
X010131Y019350D02*
X009800Y019350D01*
X009440Y019350D02*
X006690Y019350D01*
X006690Y019448D02*
X009440Y019448D01*
X008905Y019547D02*
X008763Y019547D01*
X008778Y019645D02*
X008892Y019645D01*
X008892Y019744D02*
X008778Y019744D01*
X008778Y019941D02*
X008892Y019941D01*
X008892Y020039D02*
X008778Y020039D01*
X008770Y020138D02*
X008892Y020138D01*
X008852Y019251D02*
X006690Y019251D01*
X006690Y019153D02*
X008779Y019153D01*
X008747Y019054D02*
X006690Y019054D01*
X006690Y018956D02*
X008747Y018956D01*
X008783Y018857D02*
X006690Y018857D01*
X006690Y018759D02*
X008862Y018759D01*
X009060Y018660D02*
X006690Y018660D01*
X006690Y018562D02*
X009060Y018562D01*
X009060Y018463D02*
X006690Y018463D01*
X006690Y018365D02*
X009060Y018365D01*
X009060Y018266D02*
X006690Y018266D01*
X006690Y018168D02*
X009060Y018168D01*
X009060Y018069D02*
X006690Y018069D01*
X006690Y017971D02*
X009060Y017971D01*
X009060Y017872D02*
X006690Y017872D01*
X006690Y017774D02*
X009060Y017774D01*
X009060Y017675D02*
X006690Y017675D01*
X006690Y017577D02*
X009060Y017577D01*
X009060Y017478D02*
X006690Y017478D01*
X006690Y017380D02*
X009060Y017380D01*
X009060Y017281D02*
X006690Y017281D01*
X006690Y017183D02*
X009060Y017183D01*
X009060Y017084D02*
X006690Y017084D01*
X006690Y016986D02*
X009060Y016986D01*
X009060Y016887D02*
X006690Y016887D01*
X006690Y016789D02*
X009060Y016789D01*
X009060Y016690D02*
X006690Y016690D01*
X006690Y016592D02*
X009060Y016592D01*
X009060Y016493D02*
X006690Y016493D01*
X006690Y016395D02*
X009060Y016395D01*
X009060Y016296D02*
X006690Y016296D01*
X006690Y016198D02*
X009060Y016198D01*
X009060Y016099D02*
X006690Y016099D01*
X006690Y016001D02*
X009060Y016001D01*
X009035Y015902D02*
X006690Y015902D01*
X006690Y015804D02*
X008995Y015804D01*
X008992Y015705D02*
X006690Y015705D01*
X006690Y015607D02*
X009019Y015607D01*
X009050Y015508D02*
X006690Y015508D01*
X006690Y015410D02*
X009050Y015410D01*
X009050Y015311D02*
X006690Y015311D01*
X006690Y015213D02*
X009050Y015213D01*
X009050Y015114D02*
X006690Y015114D01*
X006690Y015016D02*
X009050Y015016D01*
X009050Y014917D02*
X006690Y014917D01*
X006690Y014819D02*
X009050Y014819D01*
X009050Y014720D02*
X006690Y014720D01*
X006690Y014622D02*
X009050Y014622D01*
X009050Y014523D02*
X006690Y014523D01*
X006690Y014425D02*
X009050Y014425D01*
X009050Y014326D02*
X006690Y014326D01*
X006690Y014228D02*
X009050Y014228D01*
X009050Y014129D02*
X006690Y014129D01*
X006690Y014031D02*
X009050Y014031D01*
X009050Y013932D02*
X006690Y013932D01*
X006690Y013834D02*
X009050Y013834D01*
X009408Y013440D02*
X010770Y013440D01*
X010770Y013538D02*
X009507Y013538D01*
X009550Y013637D02*
X010320Y013637D01*
X010184Y013735D02*
X009550Y013735D01*
X009550Y013834D02*
X010134Y013834D01*
X010122Y013932D02*
X009550Y013932D01*
X009550Y014031D02*
X010140Y014031D01*
X010198Y014129D02*
X009550Y014129D01*
X009550Y014228D02*
X010354Y014228D01*
X010506Y014228D02*
X010574Y014228D01*
X010625Y014326D02*
X009550Y014326D01*
X009310Y013341D02*
X010770Y013341D01*
X010770Y013243D02*
X007921Y013243D01*
X007823Y013144D02*
X010770Y013144D01*
X010770Y013046D02*
X009509Y013046D01*
X009608Y012947D02*
X010770Y012947D01*
X010770Y012849D02*
X009706Y012849D01*
X009805Y012750D02*
X010770Y012750D01*
X011770Y012915D02*
X011770Y017160D01*
X013390Y018780D01*
X015110Y018780D01*
X015525Y019195D01*
X015525Y019795D01*
X015815Y020085D01*
X018920Y020085D01*
X019475Y020640D01*
X019475Y021855D01*
X019720Y022100D01*
X028515Y022100D01*
X029095Y021520D01*
X028460Y022620D02*
X019585Y022620D01*
X019615Y022790D01*
X019795Y022797D02*
X015025Y022797D01*
X015025Y022699D02*
X019795Y022699D01*
X019795Y022600D02*
X019137Y022600D01*
X018955Y022640D02*
X018985Y022810D01*
X018943Y022600D02*
X017171Y022600D01*
X017259Y022502D02*
X018793Y022502D01*
X018734Y022403D02*
X017876Y022403D01*
X017953Y022305D02*
X018712Y022305D01*
X018718Y022206D02*
X017988Y022206D01*
X017988Y022108D02*
X018758Y022108D01*
X018852Y022009D02*
X017955Y022009D01*
X017935Y021911D02*
X019295Y021911D01*
X019295Y021812D02*
X017935Y021812D01*
X017935Y021714D02*
X019295Y021714D01*
X019295Y021615D02*
X017935Y021615D01*
X017935Y021517D02*
X019295Y021517D01*
X019295Y021418D02*
X017935Y021418D01*
X017935Y021320D02*
X019295Y021320D01*
X019295Y021221D02*
X017935Y021221D01*
X017935Y021123D02*
X019295Y021123D01*
X019295Y021024D02*
X017935Y021024D01*
X017935Y020926D02*
X019295Y020926D01*
X019295Y020827D02*
X017935Y020827D01*
X017935Y020729D02*
X019295Y020729D01*
X019210Y020630D02*
X017935Y020630D01*
X017935Y020532D02*
X019112Y020532D01*
X019013Y020433D02*
X017898Y020433D01*
X017799Y020335D02*
X018915Y020335D01*
X019820Y020345D02*
X023660Y020345D01*
X024140Y019865D01*
X024140Y018365D01*
X024320Y018185D01*
X024479Y016946D02*
X024100Y016946D01*
X024479Y016946D02*
X024560Y016865D01*
X024560Y016495D01*
X024530Y016465D01*
X024440Y015965D02*
X027860Y015965D01*
X028160Y016265D01*
X028640Y016265D01*
X028940Y015965D01*
X028940Y013625D01*
X029180Y013385D01*
X029180Y011885D01*
X029000Y011705D01*
X029270Y010810D02*
X029775Y010305D01*
X029775Y009465D01*
X029770Y009460D01*
X029725Y009505D01*
X029865Y008465D02*
X029870Y008460D01*
X029840Y008430D01*
X029055Y008430D01*
X028805Y008680D01*
X028805Y010235D01*
X028480Y010560D01*
X022865Y010560D01*
X021980Y011445D01*
X021980Y015510D01*
X022160Y015690D01*
X022960Y015690D01*
X023125Y015525D01*
X023125Y015255D01*
X022400Y015235D02*
X022400Y011370D01*
X022960Y010810D01*
X029270Y010810D01*
X028040Y009885D02*
X028365Y009560D01*
X028365Y007765D01*
X028755Y007375D01*
X028755Y006469D01*
X028650Y006364D01*
X028834Y006364D01*
X028950Y006480D01*
X029850Y006480D01*
X029870Y006460D01*
X029770Y005460D02*
X029695Y005385D01*
X028740Y005385D01*
X028650Y005475D01*
X028650Y005656D01*
X026610Y006320D02*
X026510Y006220D01*
X025910Y006220D01*
X025810Y006320D01*
X025810Y006683D01*
X028040Y009885D02*
X021445Y009885D01*
X021449Y009881D01*
X021449Y009460D01*
X021449Y011070D01*
X021379Y011140D01*
X020671Y011140D02*
X020671Y017091D01*
X020940Y017360D01*
X021515Y017360D01*
X021520Y017365D01*
X021505Y016695D02*
X021350Y016700D01*
X021210Y016700D01*
X021045Y016535D01*
X021045Y009590D01*
X020925Y009470D01*
X020731Y009470D01*
X021720Y010470D02*
X021965Y010225D01*
X022284Y010225D01*
X022305Y010204D01*
X021720Y010470D02*
X021720Y015720D01*
X021950Y015950D01*
X022535Y015950D01*
X022645Y016065D01*
X022655Y016080D01*
X025020Y014520D02*
X025020Y012925D01*
X025180Y012765D01*
X028470Y012765D01*
X028645Y012940D01*
X028160Y016265D02*
X028160Y018605D01*
X028580Y019025D01*
X029780Y019025D01*
X030020Y019265D01*
X030020Y019709D01*
X030005Y019724D01*
X028460Y022620D02*
X029095Y023235D01*
X029095Y023520D01*
X028220Y023645D02*
X027550Y022965D01*
X025170Y022965D01*
X024980Y023165D01*
X025340Y023295D02*
X025340Y023505D01*
X025340Y023295D02*
X025410Y023225D01*
X027440Y023225D01*
X027980Y023765D01*
X027980Y024905D01*
X028220Y025145D01*
X029300Y025145D01*
X029550Y025395D01*
X029550Y026181D01*
X030205Y026246D02*
X030205Y025690D01*
X029420Y024905D01*
X028340Y024905D01*
X028220Y024785D01*
X028220Y023645D01*
X027700Y023955D02*
X027500Y023755D01*
X027200Y023755D01*
X027700Y023955D02*
X027700Y028795D01*
X027910Y029005D01*
X027460Y028185D02*
X027460Y030475D01*
X027680Y030695D01*
X026080Y029115D02*
X026080Y028965D01*
X025960Y028845D01*
X024160Y028845D01*
X023860Y029145D01*
X021940Y029145D01*
X021840Y029245D01*
X021490Y028955D02*
X021490Y030415D01*
X022210Y030415D01*
X022430Y030615D01*
X022610Y030795D01*
X021490Y030415D02*
X021210Y030635D01*
X020790Y029905D02*
X020890Y029805D01*
X020890Y029415D01*
X020910Y029395D01*
X020790Y029905D02*
X019040Y029905D01*
X018970Y029975D01*
X018960Y029975D01*
X018730Y030205D01*
X018730Y030845D01*
X018721Y030854D01*
X018230Y030854D01*
X017845Y030328D02*
X017844Y030323D01*
X017844Y030174D01*
X018201Y030174D01*
X018201Y030117D01*
X017844Y030117D01*
X017844Y029968D01*
X017854Y029930D01*
X017874Y029896D01*
X017902Y029868D01*
X017936Y029848D01*
X017974Y029838D01*
X018201Y029838D01*
X018201Y030117D01*
X018259Y030117D01*
X018259Y029838D01*
X018486Y029838D01*
X018524Y029848D01*
X018558Y029868D01*
X018586Y029896D01*
X018606Y029930D01*
X018616Y029968D01*
X018616Y030064D01*
X018780Y029900D01*
X018885Y029795D01*
X018895Y029795D01*
X018965Y029725D01*
X019520Y029725D01*
X019795Y029450D01*
X019795Y029260D01*
X019730Y029195D01*
X019730Y029158D01*
X019698Y029166D01*
X019549Y029166D01*
X019549Y028809D01*
X019492Y028809D01*
X019492Y029166D01*
X019343Y029166D01*
X019305Y029156D01*
X019271Y029136D01*
X019243Y029108D01*
X019223Y029074D01*
X019213Y029036D01*
X019213Y028809D01*
X019492Y028809D01*
X019492Y028751D01*
X019549Y028751D01*
X019549Y028394D01*
X019698Y028394D01*
X019730Y028402D01*
X019730Y028303D01*
X019639Y028303D01*
X019525Y028256D01*
X019439Y028170D01*
X019392Y028056D01*
X019392Y027934D01*
X019439Y027820D01*
X019525Y027734D01*
X019639Y027687D01*
X019761Y027687D01*
X019795Y027701D01*
X019795Y024185D01*
X015515Y024185D01*
X015260Y024439D01*
X015276Y029164D01*
X016450Y030305D01*
X017845Y030328D01*
X017844Y030283D02*
X016427Y030283D01*
X016326Y030185D02*
X017844Y030185D01*
X017844Y030086D02*
X016225Y030086D01*
X016124Y029988D02*
X017844Y029988D01*
X017881Y029889D02*
X016022Y029889D01*
X015921Y029791D02*
X018900Y029791D01*
X018791Y029889D02*
X018579Y029889D01*
X018616Y029988D02*
X018693Y029988D01*
X018539Y029630D02*
X018341Y029630D01*
X018157Y029554D01*
X018016Y029413D01*
X017940Y029229D01*
X017864Y029413D01*
X017723Y029554D01*
X017539Y029630D01*
X017341Y029630D01*
X017157Y029554D01*
X017016Y029413D01*
X016940Y029229D01*
X016940Y029031D01*
X017016Y028847D01*
X017157Y028706D01*
X017341Y028630D01*
X017539Y028630D01*
X017723Y028706D01*
X017864Y028847D01*
X017940Y029031D01*
X017940Y029229D01*
X017940Y029031D01*
X018016Y028847D01*
X018157Y028706D01*
X018341Y028630D01*
X018539Y028630D01*
X018723Y028706D01*
X018864Y028847D01*
X018940Y029031D01*
X018940Y029229D01*
X018864Y029413D01*
X018723Y029554D01*
X018539Y029630D01*
X018627Y029594D02*
X019651Y029594D01*
X019553Y029692D02*
X015820Y029692D01*
X015718Y029594D02*
X016253Y029594D01*
X016341Y029630D02*
X016157Y029554D01*
X016016Y029413D01*
X015940Y029229D01*
X015940Y029031D01*
X016016Y028847D01*
X016157Y028706D01*
X016341Y028630D01*
X016539Y028630D01*
X016723Y028706D01*
X016864Y028847D01*
X016940Y029031D01*
X016940Y029229D01*
X016864Y029413D01*
X016723Y029554D01*
X016539Y029630D01*
X016341Y029630D01*
X016098Y029495D02*
X015617Y029495D01*
X015516Y029397D02*
X016009Y029397D01*
X015968Y029298D02*
X015414Y029298D01*
X015313Y029200D02*
X015940Y029200D01*
X015940Y029101D02*
X015276Y029101D01*
X015276Y029003D02*
X015952Y029003D01*
X015992Y028904D02*
X015276Y028904D01*
X015275Y028806D02*
X016057Y028806D01*
X016156Y028707D02*
X015275Y028707D01*
X015275Y028609D02*
X019213Y028609D01*
X019213Y028524D02*
X019213Y028751D01*
X019492Y028751D01*
X019492Y028394D01*
X019343Y028394D01*
X019305Y028404D01*
X019271Y028424D01*
X019243Y028452D01*
X019223Y028486D01*
X019213Y028524D01*
X019217Y028510D02*
X015274Y028510D01*
X015274Y028412D02*
X019292Y028412D01*
X019492Y028412D02*
X019549Y028412D01*
X019549Y028510D02*
X019492Y028510D01*
X019492Y028609D02*
X019549Y028609D01*
X019549Y028707D02*
X019492Y028707D01*
X019492Y028806D02*
X018823Y028806D01*
X018888Y028904D02*
X019213Y028904D01*
X019213Y029003D02*
X018928Y029003D01*
X018940Y029101D02*
X019239Y029101D01*
X019492Y029101D02*
X019549Y029101D01*
X019549Y029003D02*
X019492Y029003D01*
X019492Y028904D02*
X019549Y028904D01*
X019734Y029200D02*
X018940Y029200D01*
X018912Y029298D02*
X019795Y029298D01*
X019795Y029397D02*
X018871Y029397D01*
X018782Y029495D02*
X019750Y029495D01*
X020229Y028780D02*
X021305Y028780D01*
X021490Y028955D01*
X021800Y028075D02*
X024240Y028075D01*
X024350Y027965D01*
X024360Y027975D01*
X024425Y025980D02*
X024019Y025980D01*
X024425Y025980D02*
X024540Y025865D01*
X023311Y025980D02*
X023295Y026000D01*
X023260Y026005D01*
X021605Y027495D02*
X021605Y027880D01*
X021800Y028075D01*
X019795Y027624D02*
X015271Y027624D01*
X015272Y027722D02*
X019553Y027722D01*
X019438Y027821D02*
X015272Y027821D01*
X015272Y027919D02*
X019398Y027919D01*
X019392Y028018D02*
X015273Y028018D01*
X015273Y028116D02*
X019416Y028116D01*
X019483Y028215D02*
X015273Y028215D01*
X015274Y028313D02*
X019730Y028313D01*
X019213Y028707D02*
X018724Y028707D01*
X018156Y028707D02*
X017724Y028707D01*
X017823Y028806D02*
X018057Y028806D01*
X017992Y028904D02*
X017888Y028904D01*
X017928Y029003D02*
X017952Y029003D01*
X017940Y029101D02*
X017940Y029101D01*
X017940Y029200D02*
X017940Y029200D01*
X017912Y029298D02*
X017968Y029298D01*
X018009Y029397D02*
X017871Y029397D01*
X017782Y029495D02*
X018098Y029495D01*
X018253Y029594D02*
X017627Y029594D01*
X017253Y029594D02*
X016627Y029594D01*
X016782Y029495D02*
X017098Y029495D01*
X017009Y029397D02*
X016871Y029397D01*
X016912Y029298D02*
X016968Y029298D01*
X016940Y029200D02*
X016940Y029200D01*
X016940Y029101D02*
X016940Y029101D01*
X016928Y029003D02*
X016952Y029003D01*
X016992Y028904D02*
X016888Y028904D01*
X016823Y028806D02*
X017057Y028806D01*
X017156Y028707D02*
X016724Y028707D01*
X018201Y029889D02*
X018259Y029889D01*
X018259Y029988D02*
X018201Y029988D01*
X018201Y030086D02*
X018259Y030086D01*
X018730Y030845D02*
X018730Y031945D01*
X018560Y032115D01*
X015660Y032115D01*
X015410Y032365D01*
X014720Y030545D02*
X014720Y034395D01*
X015720Y035395D01*
X015720Y037785D01*
X015360Y038145D01*
X009130Y038145D01*
X008550Y037565D01*
X008550Y028555D01*
X008420Y028425D01*
X006670Y028425D01*
X006220Y027975D01*
X006220Y026905D01*
X006390Y026735D01*
X007000Y026735D01*
X007170Y026905D01*
X007170Y027415D01*
X007225Y027470D01*
X007665Y027470D01*
X007165Y027470D01*
X006665Y027470D02*
X006665Y027755D01*
X006680Y027770D01*
X006680Y027995D01*
X006870Y028185D01*
X008510Y028185D01*
X008750Y028425D01*
X008760Y037455D01*
X009220Y037915D01*
X015210Y037915D01*
X015460Y037665D01*
X015470Y035625D01*
X014470Y034625D01*
X014470Y030255D01*
X014720Y030005D01*
X014720Y024065D01*
X015260Y023525D01*
X021240Y023515D01*
X020820Y023115D02*
X015140Y023105D01*
X014360Y023885D01*
X014360Y029825D01*
X014240Y029945D01*
X014240Y034775D01*
X015250Y035785D01*
X015250Y037375D01*
X014940Y037685D01*
X009380Y037685D01*
X009000Y037295D01*
X009000Y028295D01*
X008500Y027795D01*
X008200Y027795D01*
X008165Y027760D01*
X008165Y027470D01*
X008610Y027585D02*
X008610Y026705D01*
X008400Y026495D01*
X006290Y026495D01*
X005950Y026835D01*
X005950Y028085D01*
X006550Y028685D01*
X008040Y028685D01*
X008165Y028810D01*
X008165Y029530D01*
X008165Y029625D01*
X008235Y029695D01*
X008190Y029695D01*
X008140Y029745D01*
X008140Y030406D01*
X008130Y030416D01*
X007660Y029535D02*
X007665Y029530D01*
X007660Y029535D02*
X007660Y031715D01*
X007230Y032145D01*
X005205Y032145D01*
X004515Y031790D02*
X004515Y033070D01*
X004515Y031790D02*
X004870Y031435D01*
X006800Y031435D01*
X007170Y031065D01*
X007170Y029535D01*
X007165Y029530D01*
X008610Y027585D02*
X009150Y028125D01*
X009150Y028135D01*
X009240Y028225D01*
X009240Y037175D01*
X009510Y037445D01*
X014860Y037445D01*
X015000Y037305D01*
X015000Y036945D01*
X014825Y036770D01*
X014415Y036770D01*
X014255Y036610D01*
X014095Y036475D01*
X013905Y036285D01*
X013905Y029320D01*
X014150Y029075D01*
X014150Y026620D01*
X013610Y026080D01*
X012535Y026080D01*
X012335Y025880D01*
X012330Y022695D01*
X012205Y022430D01*
X010686Y020827D02*
X015002Y020827D01*
X015030Y020827D02*
X017575Y020827D01*
X017575Y020729D02*
X010660Y020729D01*
X010660Y020630D02*
X017575Y020630D01*
X017487Y020532D02*
X014207Y020532D01*
X014005Y020270D02*
X017485Y020275D01*
X017755Y020545D01*
X017755Y022060D01*
X017660Y022155D01*
X017440Y021911D02*
X015027Y021911D01*
X015027Y022009D02*
X017365Y022009D01*
X017332Y022108D02*
X017189Y022108D01*
X017266Y022206D02*
X017332Y022206D01*
X017298Y022305D02*
X017367Y022305D01*
X017298Y022403D02*
X017444Y022403D01*
X017575Y021812D02*
X015027Y021812D01*
X015028Y021714D02*
X017575Y021714D01*
X017575Y021615D02*
X015028Y021615D01*
X015028Y021517D02*
X017575Y021517D01*
X017575Y021418D02*
X015028Y021418D01*
X015029Y021320D02*
X017575Y021320D01*
X017575Y021221D02*
X015029Y021221D01*
X015029Y021123D02*
X017575Y021123D01*
X017575Y021024D02*
X015029Y021024D01*
X015030Y020926D02*
X017575Y020926D01*
X016404Y019550D02*
X019795Y019550D01*
X019795Y018985D01*
X019360Y018550D01*
X013790Y018550D01*
X012730Y017490D01*
X012730Y012885D01*
X012631Y012783D01*
X012350Y013064D01*
X012350Y015391D01*
X012438Y015479D01*
X012488Y015600D01*
X012488Y015730D01*
X012438Y015851D01*
X012346Y015943D01*
X012225Y015993D01*
X012095Y015993D01*
X011974Y015943D01*
X011950Y015919D01*
X011950Y017085D01*
X013465Y018600D01*
X015185Y018600D01*
X015600Y019015D01*
X015705Y019120D01*
X015705Y019720D01*
X015810Y019826D01*
X015802Y019805D01*
X015802Y019675D01*
X015852Y019554D01*
X015944Y019462D01*
X016065Y019412D01*
X016195Y019412D01*
X016316Y019462D01*
X016404Y019550D01*
X016401Y019547D02*
X019795Y019547D01*
X019795Y019448D02*
X016283Y019448D01*
X015977Y019448D02*
X015705Y019448D01*
X015705Y019350D02*
X019795Y019350D01*
X019795Y019251D02*
X015705Y019251D01*
X015705Y019153D02*
X019795Y019153D01*
X019795Y019054D02*
X015639Y019054D01*
X015540Y018956D02*
X019766Y018956D01*
X019667Y018857D02*
X015442Y018857D01*
X015343Y018759D02*
X019569Y018759D01*
X019470Y018660D02*
X015245Y018660D01*
X015129Y019054D02*
X010543Y019054D01*
X010630Y019153D02*
X015228Y019153D01*
X015326Y019251D02*
X010660Y019251D01*
X010660Y019350D02*
X015345Y019350D01*
X015345Y019448D02*
X010660Y019448D01*
X010660Y019547D02*
X015345Y019547D01*
X015345Y019645D02*
X010660Y019645D01*
X010660Y019744D02*
X015345Y019744D01*
X015345Y019842D02*
X010660Y019842D01*
X010660Y019941D02*
X015416Y019941D01*
X015514Y020039D02*
X014238Y020039D01*
X013772Y020039D02*
X010660Y020039D01*
X010660Y020138D02*
X013705Y020138D01*
X013677Y020236D02*
X010660Y020236D01*
X010660Y020335D02*
X013677Y020335D01*
X013717Y020433D02*
X010660Y020433D01*
X010660Y020532D02*
X013803Y020532D01*
X013311Y018956D02*
X010444Y018956D01*
X010346Y018857D02*
X013212Y018857D01*
X013426Y018562D02*
X019372Y018562D01*
X016760Y016685D02*
X016184Y016685D01*
X016144Y016645D01*
X015859Y019547D02*
X015705Y019547D01*
X015705Y019645D02*
X015814Y019645D01*
X015802Y019744D02*
X015728Y019744D01*
X013703Y018463D02*
X013328Y018463D01*
X013229Y018365D02*
X013605Y018365D01*
X013506Y018266D02*
X013131Y018266D01*
X013032Y018168D02*
X013408Y018168D01*
X013309Y018069D02*
X012934Y018069D01*
X012835Y017971D02*
X013211Y017971D01*
X013112Y017872D02*
X012737Y017872D01*
X012638Y017774D02*
X013014Y017774D01*
X012915Y017675D02*
X012540Y017675D01*
X012441Y017577D02*
X012817Y017577D01*
X012730Y017478D02*
X012343Y017478D01*
X012244Y017380D02*
X012730Y017380D01*
X012730Y017281D02*
X012146Y017281D01*
X012047Y017183D02*
X012730Y017183D01*
X012730Y017084D02*
X011950Y017084D01*
X011950Y016986D02*
X012730Y016986D01*
X012730Y016887D02*
X011950Y016887D01*
X011950Y016789D02*
X012730Y016789D01*
X012730Y016690D02*
X011950Y016690D01*
X011950Y016592D02*
X012730Y016592D01*
X012730Y016493D02*
X011950Y016493D01*
X011950Y016395D02*
X012730Y016395D01*
X012730Y016296D02*
X011950Y016296D01*
X011950Y016198D02*
X012730Y016198D01*
X012730Y016099D02*
X011950Y016099D01*
X011950Y016001D02*
X012730Y016001D01*
X012730Y015902D02*
X012387Y015902D01*
X012458Y015804D02*
X012730Y015804D01*
X012730Y015705D02*
X012488Y015705D01*
X012488Y015607D02*
X012730Y015607D01*
X012730Y015508D02*
X012450Y015508D01*
X012369Y015410D02*
X012730Y015410D01*
X012730Y015311D02*
X012350Y015311D01*
X012350Y015213D02*
X012730Y015213D01*
X012730Y015114D02*
X012350Y015114D01*
X012350Y015016D02*
X012730Y015016D01*
X012730Y014917D02*
X012350Y014917D01*
X012350Y014819D02*
X012730Y014819D01*
X012730Y014720D02*
X012350Y014720D01*
X012350Y014622D02*
X012730Y014622D01*
X012730Y014523D02*
X012350Y014523D01*
X012350Y014425D02*
X012730Y014425D01*
X012730Y014326D02*
X012350Y014326D01*
X012350Y014228D02*
X012730Y014228D01*
X012730Y014129D02*
X012350Y014129D01*
X012350Y014031D02*
X012730Y014031D01*
X012730Y013932D02*
X012350Y013932D01*
X012350Y013834D02*
X012730Y013834D01*
X012730Y013735D02*
X012350Y013735D01*
X012350Y013637D02*
X012730Y013637D01*
X012730Y013538D02*
X012350Y013538D01*
X012350Y013440D02*
X012730Y013440D01*
X012730Y013341D02*
X012350Y013341D01*
X012350Y013243D02*
X012730Y013243D01*
X012730Y013144D02*
X012350Y013144D01*
X012368Y013046D02*
X012730Y013046D01*
X012730Y012947D02*
X012467Y012947D01*
X012565Y012849D02*
X012695Y012849D01*
X012710Y011975D02*
X011770Y012915D01*
X012710Y011975D02*
X012710Y007685D01*
X012290Y007265D01*
X012290Y006755D01*
X012440Y006605D01*
X012760Y006605D01*
X012850Y006515D01*
X007290Y013144D02*
X007171Y013144D01*
X007072Y013243D02*
X007290Y013243D01*
X007322Y013341D02*
X006974Y013341D01*
X006875Y013440D02*
X007411Y013440D01*
X007509Y013538D02*
X006777Y013538D01*
X006678Y013637D02*
X007608Y013637D01*
X007732Y013735D02*
X006650Y013735D01*
X006950Y012290D02*
X006950Y006685D01*
X006330Y006065D01*
X006330Y003690D01*
X006390Y003630D01*
X009075Y019010D02*
X009120Y019030D01*
X015026Y022600D02*
X016809Y022600D01*
X015440Y024005D02*
X015080Y024365D01*
X015100Y030185D01*
X014720Y030545D01*
X013700Y029280D02*
X013490Y029070D01*
X013490Y028685D01*
X013590Y028585D01*
X013700Y029280D02*
X013700Y036795D01*
X014050Y037145D01*
X014580Y037145D01*
X019350Y032679D02*
X019376Y032705D01*
X020240Y032705D01*
X020350Y032595D01*
X020350Y031785D01*
X020380Y031255D02*
X020380Y031065D01*
X020280Y030965D01*
X019746Y030965D01*
X019745Y030964D01*
X019795Y027525D02*
X015271Y027525D01*
X015271Y027427D02*
X019795Y027427D01*
X019795Y027328D02*
X015270Y027328D01*
X015270Y027230D02*
X019795Y027230D01*
X019795Y027131D02*
X015270Y027131D01*
X015269Y027033D02*
X019795Y027033D01*
X019795Y026934D02*
X015269Y026934D01*
X015268Y026836D02*
X019795Y026836D01*
X019795Y026737D02*
X015268Y026737D01*
X015268Y026639D02*
X019795Y026639D01*
X019795Y026540D02*
X015267Y026540D01*
X015267Y026442D02*
X019795Y026442D01*
X019795Y026343D02*
X015267Y026343D01*
X015266Y026245D02*
X019795Y026245D01*
X019795Y026146D02*
X015266Y026146D01*
X015266Y026048D02*
X019795Y026048D01*
X019795Y025949D02*
X015265Y025949D01*
X015265Y025851D02*
X019795Y025851D01*
X019795Y025752D02*
X015265Y025752D01*
X015264Y025654D02*
X019795Y025654D01*
X019795Y025555D02*
X015264Y025555D01*
X015264Y025457D02*
X019795Y025457D01*
X019795Y025358D02*
X015263Y025358D01*
X015263Y025260D02*
X019795Y025260D01*
X019795Y025161D02*
X015263Y025161D01*
X015262Y025063D02*
X019795Y025063D01*
X019795Y024964D02*
X015262Y024964D01*
X015262Y024866D02*
X019795Y024866D01*
X019795Y024767D02*
X015261Y024767D01*
X015261Y024669D02*
X019795Y024669D01*
X019795Y024570D02*
X015261Y024570D01*
X015260Y024472D02*
X019795Y024472D01*
X019795Y024373D02*
X015326Y024373D01*
X015425Y024275D02*
X019795Y024275D01*
X019795Y022896D02*
X015025Y022896D01*
X015066Y022925D02*
X015066Y022925D01*
X015215Y022925D02*
X015215Y022925D01*
X015440Y024005D02*
X021680Y024005D01*
X019540Y022175D02*
X019540Y022175D01*
X019473Y022108D02*
X019322Y022108D01*
X019374Y022009D02*
X019228Y022009D01*
X026390Y025845D02*
X026390Y027575D01*
X026625Y027810D01*
X027085Y027810D01*
X027460Y028185D01*
X029540Y027605D02*
X029550Y027475D01*
X029550Y026889D01*
X030205Y026954D02*
X030205Y027480D01*
X030080Y027605D01*
X022305Y009496D02*
X022331Y009470D01*
X022331Y008658D01*
X022705Y007792D02*
X022705Y006665D01*
X022770Y006600D01*
X019225Y009015D02*
X019144Y009096D01*
X019112Y009096D01*
D34*
X018390Y009096D01*
X018385Y009101D01*
X017604Y009101D01*
X017460Y009245D01*
X017460Y010625D01*
X017595Y010760D01*
X018334Y010760D01*
X018335Y010761D01*
X018335Y010761D01*
X019112Y010761D01*
X019112Y011509D02*
X018375Y011509D01*
X017831Y011509D01*
X017520Y011820D01*
X017520Y011930D01*
X016890Y012750D02*
X017190Y013050D01*
X019800Y013050D01*
X020065Y013315D01*
X020065Y015680D01*
X019985Y015760D01*
X019940Y016685D02*
X019990Y016735D01*
X019990Y016745D01*
X020120Y016875D01*
X020120Y017575D01*
X020770Y018225D01*
X022570Y018225D01*
X022840Y017955D01*
X022840Y016545D01*
X022760Y016465D01*
X022115Y016310D02*
X022055Y016300D01*
X021735Y016300D01*
X021379Y015944D01*
X021379Y011140D01*
X020671Y011140D02*
X020666Y011135D01*
X019978Y011135D01*
X020595Y010165D02*
X020440Y010010D01*
X019400Y010010D01*
X019234Y009844D01*
X019112Y009844D01*
X018420Y009844D01*
X018385Y009809D01*
X019225Y009015D02*
X019225Y003390D01*
X019098Y003263D01*
X017190Y006450D02*
X017190Y008410D01*
X016890Y008710D01*
X016890Y012750D01*
X018335Y011469D02*
X018375Y011509D01*
X019978Y009470D02*
X020731Y009470D01*
X020741Y009460D01*
X024550Y016445D02*
X024530Y016465D01*
X023650Y018205D02*
X023575Y018280D01*
X023575Y019555D01*
X023390Y019740D01*
X016130Y019740D01*
X016760Y016685D02*
X019940Y016685D01*
X013110Y012035D02*
X013110Y007555D01*
X012705Y007150D01*
X008855Y003285D02*
X008730Y003410D01*
X007190Y003410D01*
X006560Y004040D01*
X006560Y005900D01*
X007265Y006605D01*
X007265Y011820D01*
X007505Y012060D01*
X007540Y012095D01*
X012160Y012985D02*
X013110Y012035D01*
X012160Y012985D02*
X012160Y015665D01*
X008855Y003285D02*
X008855Y003280D01*
X009005Y003130D01*
X009005Y002745D01*
X024720Y025199D02*
X024720Y025685D01*
X024540Y025865D01*
X024740Y025219D02*
X024720Y025199D01*
X024740Y025219D02*
X026385Y025219D01*
X026385Y025840D01*
X026390Y025845D01*
X019350Y032679D02*
X017746Y032679D01*
X017160Y033265D01*
D35*
X010370Y027330D02*
X010280Y027420D01*
X010370Y027330D02*
X010370Y027195D01*
X010315Y027140D01*
X010315Y026100D01*
X009945Y025730D01*
X006750Y025730D01*
X005915Y024895D01*
X005915Y003070D01*
X006010Y002975D01*
X006010Y002930D01*
X006720Y002220D01*
X012975Y002220D01*
X013140Y002385D01*
X013140Y002410D01*
X013675Y002945D01*
X018780Y002945D01*
X019098Y003263D01*
X019205Y003370D01*
X019205Y003440D01*
D36*
X022115Y016310D02*
X022270Y016465D01*
X022300Y016465D01*
X022240Y016525D01*
X022240Y016921D01*
X022300Y016465D02*
X022760Y016465D01*
X024530Y016465D01*
D37*
X005980Y034295D02*
X005980Y035145D01*
X006020Y035185D01*
X006015Y035180D01*
X003100Y035180D01*
X003100Y034180D02*
X005865Y034180D01*
X005980Y034295D01*
M02*
