G75*
G70*
%OFA0B0*%
%FSLAX25Y25*%
%IPPOS*%
%LPD*%
%AMOC8*
5,1,8,0,0,1.08239X$1,22.5*
%
%ADD1772C,0.00100*%
D1772*
X0141700Y0430200D02*
X0149700Y0438200D01*
X0149700Y0430200D02*
X0141700Y0438200D01*
X0141700Y0434200D02*
X0149700Y0434200D01*
X0159300Y0392000D02*
X0167300Y0400000D01*
X0167300Y0392000D02*
X0159300Y0400000D01*
X0159300Y0396000D02*
X0167300Y0396000D01*
X0159400Y0384800D02*
X0167400Y0392800D01*
X0167400Y0384800D02*
X0159400Y0392800D01*
X0159400Y0388800D02*
X0167400Y0388800D01*
X0169500Y0445900D02*
X0177500Y0453900D01*
X0177500Y0445900D02*
X0169500Y0453900D01*
X0169500Y0449900D02*
X0177500Y0449900D01*
X0172200Y0248300D02*
X0180200Y0256300D01*
X0180200Y0248300D02*
X0172200Y0256300D01*
X0172200Y0252300D02*
X0180200Y0252300D01*
X0168900Y0242300D02*
X0176900Y0250300D01*
X0176900Y0242300D02*
X0168900Y0250300D01*
X0168900Y0246300D02*
X0176900Y0246300D01*
X0171000Y0231000D02*
X0179000Y0239000D01*
X0179000Y0231000D02*
X0171000Y0239000D01*
X0171000Y0235000D02*
X0179000Y0235000D01*
X0178700Y0193900D02*
X0186700Y0201900D01*
X0186700Y0193900D02*
X0178700Y0201900D01*
X0178700Y0197900D02*
X0186700Y0197900D01*
X0171350Y0185050D02*
X0179350Y0193050D01*
X0179350Y0185050D02*
X0171350Y0193050D01*
X0171350Y0189050D02*
X0179350Y0189050D01*
X0167450Y0180850D02*
X0175450Y0188850D01*
X0175450Y0180850D02*
X0167450Y0188850D01*
X0167450Y0184850D02*
X0175450Y0184850D01*
X0165500Y0176050D02*
X0173500Y0184050D01*
X0173500Y0176050D02*
X0165500Y0184050D01*
X0165500Y0180050D02*
X0173500Y0180050D01*
X0177350Y0172000D02*
X0185350Y0180000D01*
X0185350Y0172000D02*
X0177350Y0180000D01*
X0177350Y0176000D02*
X0185350Y0176000D01*
X0200150Y0171550D02*
X0208150Y0179550D01*
X0208150Y0171550D02*
X0200150Y0179550D01*
X0200150Y0175550D02*
X0208150Y0175550D01*
X0198650Y0188650D02*
X0206650Y0196650D01*
X0206650Y0188650D02*
X0198650Y0196650D01*
X0198650Y0192650D02*
X0206650Y0192650D01*
X0226000Y0221000D02*
X0234000Y0229000D01*
X0234000Y0221000D02*
X0226000Y0229000D01*
X0226000Y0225000D02*
X0234000Y0225000D01*
X0210800Y0235600D02*
X0218800Y0243600D01*
X0218800Y0235600D02*
X0210800Y0243600D01*
X0210800Y0239600D02*
X0218800Y0239600D01*
X0209000Y0247400D02*
X0217000Y0255400D01*
X0217000Y0247400D02*
X0209000Y0255400D01*
X0209000Y0251400D02*
X0217000Y0251400D01*
X0251000Y0226000D02*
X0259000Y0234000D01*
X0259000Y0226000D02*
X0251000Y0234000D01*
X0251000Y0230000D02*
X0259000Y0230000D01*
X0251000Y0221000D02*
X0259000Y0229000D01*
X0259000Y0221000D02*
X0251000Y0229000D01*
X0251000Y0225000D02*
X0259000Y0225000D01*
X0251000Y0216000D02*
X0259000Y0224000D01*
X0259000Y0216000D02*
X0251000Y0224000D01*
X0251000Y0220000D02*
X0259000Y0220000D01*
X0251000Y0211000D02*
X0259000Y0219000D01*
X0259000Y0211000D02*
X0251000Y0219000D01*
X0251000Y0215000D02*
X0259000Y0215000D01*
X0251000Y0206000D02*
X0259000Y0214000D01*
X0259000Y0206000D02*
X0251000Y0214000D01*
X0251000Y0210000D02*
X0259000Y0210000D01*
X0251000Y0201000D02*
X0259000Y0209000D01*
X0259000Y0201000D02*
X0251000Y0209000D01*
X0251000Y0205000D02*
X0259000Y0205000D01*
X0251000Y0196000D02*
X0259000Y0204000D01*
X0259000Y0196000D02*
X0251000Y0204000D01*
X0251000Y0200000D02*
X0259000Y0200000D01*
X0256000Y0196000D02*
X0264000Y0204000D01*
X0264000Y0196000D02*
X0256000Y0204000D01*
X0256000Y0200000D02*
X0264000Y0200000D01*
X0256000Y0201000D02*
X0264000Y0209000D01*
X0264000Y0201000D02*
X0256000Y0209000D01*
X0256000Y0205000D02*
X0264000Y0205000D01*
X0256000Y0206000D02*
X0264000Y0214000D01*
X0264000Y0206000D02*
X0256000Y0214000D01*
X0256000Y0210000D02*
X0264000Y0210000D01*
X0256000Y0211000D02*
X0264000Y0219000D01*
X0264000Y0211000D02*
X0256000Y0219000D01*
X0256000Y0215000D02*
X0264000Y0215000D01*
X0256000Y0216000D02*
X0264000Y0224000D01*
X0264000Y0216000D02*
X0256000Y0224000D01*
X0256000Y0220000D02*
X0264000Y0220000D01*
X0256000Y0221000D02*
X0264000Y0229000D01*
X0264000Y0221000D02*
X0256000Y0229000D01*
X0256000Y0225000D02*
X0264000Y0225000D01*
X0256000Y0226000D02*
X0264000Y0234000D01*
X0264000Y0226000D02*
X0256000Y0234000D01*
X0256000Y0230000D02*
X0264000Y0230000D01*
X0261000Y0226000D02*
X0269000Y0234000D01*
X0269000Y0226000D02*
X0261000Y0234000D01*
X0261000Y0230000D02*
X0269000Y0230000D01*
X0261000Y0221000D02*
X0269000Y0229000D01*
X0269000Y0221000D02*
X0261000Y0229000D01*
X0261000Y0225000D02*
X0269000Y0225000D01*
X0261000Y0216000D02*
X0269000Y0224000D01*
X0269000Y0216000D02*
X0261000Y0224000D01*
X0261000Y0220000D02*
X0269000Y0220000D01*
X0266000Y0216000D02*
X0274000Y0224000D01*
X0274000Y0216000D02*
X0266000Y0224000D01*
X0266000Y0220000D02*
X0274000Y0220000D01*
X0271000Y0216000D02*
X0279000Y0224000D01*
X0279000Y0216000D02*
X0271000Y0224000D01*
X0271000Y0220000D02*
X0279000Y0220000D01*
X0271000Y0221000D02*
X0279000Y0229000D01*
X0279000Y0221000D02*
X0271000Y0229000D01*
X0271000Y0225000D02*
X0279000Y0225000D01*
X0266000Y0221000D02*
X0274000Y0229000D01*
X0274000Y0221000D02*
X0266000Y0229000D01*
X0266000Y0225000D02*
X0274000Y0225000D01*
X0266000Y0226000D02*
X0274000Y0234000D01*
X0274000Y0226000D02*
X0266000Y0234000D01*
X0266000Y0230000D02*
X0274000Y0230000D01*
X0271000Y0226000D02*
X0279000Y0234000D01*
X0279000Y0226000D02*
X0271000Y0234000D01*
X0271000Y0230000D02*
X0279000Y0230000D01*
X0276000Y0226000D02*
X0284000Y0234000D01*
X0284000Y0226000D02*
X0276000Y0234000D01*
X0276000Y0230000D02*
X0284000Y0230000D01*
X0276000Y0221000D02*
X0284000Y0229000D01*
X0284000Y0221000D02*
X0276000Y0229000D01*
X0276000Y0225000D02*
X0284000Y0225000D01*
X0276000Y0216000D02*
X0284000Y0224000D01*
X0284000Y0216000D02*
X0276000Y0224000D01*
X0276000Y0220000D02*
X0284000Y0220000D01*
X0281000Y0216000D02*
X0289000Y0224000D01*
X0289000Y0216000D02*
X0281000Y0224000D01*
X0281000Y0220000D02*
X0289000Y0220000D01*
X0286000Y0216000D02*
X0294000Y0224000D01*
X0294000Y0216000D02*
X0286000Y0224000D01*
X0286000Y0220000D02*
X0294000Y0220000D01*
X0286000Y0211000D02*
X0294000Y0219000D01*
X0294000Y0211000D02*
X0286000Y0219000D01*
X0286000Y0215000D02*
X0294000Y0215000D01*
X0286000Y0206000D02*
X0294000Y0214000D01*
X0294000Y0206000D02*
X0286000Y0214000D01*
X0286000Y0210000D02*
X0294000Y0210000D01*
X0286000Y0201000D02*
X0294000Y0209000D01*
X0294000Y0201000D02*
X0286000Y0209000D01*
X0286000Y0205000D02*
X0294000Y0205000D01*
X0286000Y0196000D02*
X0294000Y0204000D01*
X0294000Y0196000D02*
X0286000Y0204000D01*
X0286000Y0200000D02*
X0294000Y0200000D01*
X0291000Y0196000D02*
X0299000Y0204000D01*
X0299000Y0196000D02*
X0291000Y0204000D01*
X0291000Y0200000D02*
X0299000Y0200000D01*
X0291000Y0201000D02*
X0299000Y0209000D01*
X0299000Y0201000D02*
X0291000Y0209000D01*
X0291000Y0205000D02*
X0299000Y0205000D01*
X0291000Y0206000D02*
X0299000Y0214000D01*
X0299000Y0206000D02*
X0291000Y0214000D01*
X0291000Y0210000D02*
X0299000Y0210000D01*
X0291000Y0211000D02*
X0299000Y0219000D01*
X0299000Y0211000D02*
X0291000Y0219000D01*
X0291000Y0215000D02*
X0299000Y0215000D01*
X0291000Y0216000D02*
X0299000Y0224000D01*
X0299000Y0216000D02*
X0291000Y0224000D01*
X0291000Y0220000D02*
X0299000Y0220000D01*
X0291000Y0221000D02*
X0299000Y0229000D01*
X0299000Y0221000D02*
X0291000Y0229000D01*
X0291000Y0225000D02*
X0299000Y0225000D01*
X0286000Y0221000D02*
X0294000Y0229000D01*
X0294000Y0221000D02*
X0286000Y0229000D01*
X0286000Y0225000D02*
X0294000Y0225000D01*
X0281000Y0221000D02*
X0289000Y0229000D01*
X0289000Y0221000D02*
X0281000Y0229000D01*
X0281000Y0225000D02*
X0289000Y0225000D01*
X0281000Y0226000D02*
X0289000Y0234000D01*
X0289000Y0226000D02*
X0281000Y0234000D01*
X0281000Y0230000D02*
X0289000Y0230000D01*
X0286000Y0226000D02*
X0294000Y0234000D01*
X0294000Y0226000D02*
X0286000Y0234000D01*
X0286000Y0230000D02*
X0294000Y0230000D01*
X0291000Y0226000D02*
X0299000Y0234000D01*
X0299000Y0226000D02*
X0291000Y0234000D01*
X0291000Y0230000D02*
X0299000Y0230000D01*
X0268250Y0155800D02*
X0276250Y0163800D01*
X0276250Y0155800D02*
X0268250Y0163800D01*
X0268250Y0159800D02*
X0276250Y0159800D01*
X0305050Y0075250D02*
X0313050Y0083250D01*
X0313050Y0075250D02*
X0305050Y0083250D01*
X0305050Y0079250D02*
X0313050Y0079250D01*
X0281230Y0054180D02*
X0289230Y0062180D01*
X0289230Y0054180D02*
X0281230Y0062180D01*
X0281230Y0058180D02*
X0289230Y0058180D01*
X0207800Y0133750D02*
X0215800Y0141750D01*
X0215800Y0133750D02*
X0207800Y0141750D01*
X0207800Y0137750D02*
X0215800Y0137750D01*
X0202700Y0133900D02*
X0210700Y0141900D01*
X0210700Y0133900D02*
X0202700Y0141900D01*
X0202700Y0137900D02*
X0210700Y0137900D01*
X0202850Y0139300D02*
X0210850Y0147300D01*
X0210850Y0139300D02*
X0202850Y0147300D01*
X0202850Y0143300D02*
X0210850Y0143300D01*
X0186050Y0103000D02*
X0194050Y0111000D01*
X0194050Y0103000D02*
X0186050Y0111000D01*
X0186050Y0107000D02*
X0194050Y0107000D01*
X0189650Y0095800D02*
X0197650Y0103800D01*
X0197650Y0095800D02*
X0189650Y0103800D01*
X0189650Y0099800D02*
X0197650Y0099800D01*
X0176450Y0110650D02*
X0184450Y0118650D01*
X0184450Y0110650D02*
X0176450Y0118650D01*
X0176450Y0114650D02*
X0184450Y0114650D01*
X0165350Y0074050D02*
X0173350Y0082050D01*
X0173350Y0074050D02*
X0165350Y0082050D01*
X0165350Y0078050D02*
X0173350Y0078050D01*
X0136800Y0110700D02*
X0144800Y0118700D01*
X0144800Y0110700D02*
X0136800Y0118700D01*
X0136800Y0114700D02*
X0144800Y0114700D01*
X0134900Y0072400D02*
X0142900Y0080400D01*
X0142900Y0072400D02*
X0134900Y0080400D01*
X0134900Y0076400D02*
X0142900Y0076400D01*
X0176450Y0027400D02*
X0184450Y0035400D01*
X0184450Y0027400D02*
X0176450Y0035400D01*
X0176450Y0031400D02*
X0184450Y0031400D01*
X0154700Y0164750D02*
X0162700Y0172750D01*
X0162700Y0164750D02*
X0154700Y0172750D01*
X0154700Y0168750D02*
X0162700Y0168750D01*
X0129350Y0177400D02*
X0137350Y0185400D01*
X0137350Y0177400D02*
X0129350Y0185400D01*
X0129350Y0181400D02*
X0137350Y0181400D01*
X0149150Y0199300D02*
X0157150Y0207300D01*
X0157150Y0199300D02*
X0149150Y0207300D01*
X0149150Y0203300D02*
X0157150Y0203300D01*
X0125600Y0221000D02*
X0133600Y0229000D01*
X0133600Y0221000D02*
X0125600Y0229000D01*
X0125600Y0225000D02*
X0133600Y0225000D01*
X0084650Y0206500D02*
X0092650Y0214500D01*
X0092650Y0206500D02*
X0084650Y0214500D01*
X0084650Y0210500D02*
X0092650Y0210500D01*
X0075650Y0196450D02*
X0083650Y0204450D01*
X0083650Y0196450D02*
X0075650Y0204450D01*
X0075650Y0200450D02*
X0083650Y0200450D01*
X0068500Y0182250D02*
X0076500Y0190250D01*
X0076500Y0182250D02*
X0068500Y0190250D01*
X0068500Y0186250D02*
X0076500Y0186250D01*
X0075650Y0154700D02*
X0083650Y0162700D01*
X0083650Y0154700D02*
X0075650Y0162700D01*
X0075650Y0158700D02*
X0083650Y0158700D01*
X0084650Y0132950D02*
X0092650Y0140950D01*
X0092650Y0132950D02*
X0084650Y0140950D01*
X0084650Y0136950D02*
X0092650Y0136950D01*
X0053450Y0149950D02*
X0061450Y0157950D01*
X0061450Y0149950D02*
X0053450Y0157950D01*
X0053450Y0153950D02*
X0061450Y0153950D01*
X0059900Y0076500D02*
X0067900Y0084500D01*
X0067900Y0076500D02*
X0059900Y0084500D01*
X0059900Y0080500D02*
X0067900Y0080500D01*
X0095000Y0032000D02*
X0103000Y0040000D01*
X0103000Y0032000D02*
X0095000Y0040000D01*
X0095000Y0036000D02*
X0103000Y0036000D01*
X0100000Y0032000D02*
X0108000Y0040000D01*
X0108000Y0032000D02*
X0100000Y0040000D01*
X0100000Y0036000D02*
X0108000Y0036000D01*
X0105000Y0032000D02*
X0113000Y0040000D01*
X0113000Y0032000D02*
X0105000Y0040000D01*
X0105000Y0036000D02*
X0113000Y0036000D01*
X0109000Y0036000D02*
X0117000Y0044000D01*
X0117000Y0036000D02*
X0109000Y0044000D01*
X0109000Y0040000D02*
X0117000Y0040000D01*
X0112000Y0040000D02*
X0120000Y0048000D01*
X0120000Y0040000D02*
X0112000Y0048000D01*
X0112000Y0044000D02*
X0120000Y0044000D01*
X0112000Y0045000D02*
X0120000Y0053000D01*
X0120000Y0045000D02*
X0112000Y0053000D01*
X0112000Y0049000D02*
X0120000Y0049000D01*
X0114000Y0050000D02*
X0122000Y0058000D01*
X0122000Y0050000D02*
X0114000Y0058000D01*
X0114000Y0054000D02*
X0122000Y0054000D01*
X0114000Y0055000D02*
X0122000Y0063000D01*
X0122000Y0055000D02*
X0114000Y0063000D01*
X0114000Y0059000D02*
X0122000Y0059000D01*
X0114000Y0060000D02*
X0122000Y0068000D01*
X0122000Y0060000D02*
X0114000Y0068000D01*
X0114000Y0064000D02*
X0122000Y0064000D01*
X0114000Y0065000D02*
X0122000Y0073000D01*
X0122000Y0065000D02*
X0114000Y0073000D01*
X0114000Y0069000D02*
X0122000Y0069000D01*
X0110000Y0075000D02*
X0118000Y0083000D01*
X0118000Y0075000D02*
X0110000Y0083000D01*
X0110000Y0079000D02*
X0118000Y0079000D01*
X0106000Y0076000D02*
X0114000Y0084000D01*
X0114000Y0076000D02*
X0106000Y0084000D01*
X0106000Y0080000D02*
X0114000Y0080000D01*
X0113000Y0079000D02*
X0121000Y0087000D01*
X0121000Y0079000D02*
X0113000Y0087000D01*
X0113000Y0083000D02*
X0121000Y0083000D01*
X0113000Y0084000D02*
X0121000Y0092000D01*
X0121000Y0084000D02*
X0113000Y0092000D01*
X0113000Y0088000D02*
X0121000Y0088000D01*
X0113000Y0089000D02*
X0121000Y0097000D01*
X0121000Y0089000D02*
X0113000Y0097000D01*
X0113000Y0093000D02*
X0121000Y0093000D01*
X0113000Y0094000D02*
X0121000Y0102000D01*
X0121000Y0094000D02*
X0113000Y0102000D01*
X0113000Y0098000D02*
X0121000Y0098000D01*
X0107000Y0096000D02*
X0115000Y0104000D01*
X0115000Y0096000D02*
X0107000Y0104000D01*
X0107000Y0100000D02*
X0115000Y0100000D01*
X0104000Y0100000D02*
X0112000Y0108000D01*
X0112000Y0100000D02*
X0104000Y0108000D01*
X0104000Y0104000D02*
X0112000Y0104000D01*
X0104000Y0105000D02*
X0112000Y0113000D01*
X0112000Y0105000D02*
X0104000Y0113000D01*
X0104000Y0109000D02*
X0112000Y0109000D01*
X0104000Y0110000D02*
X0112000Y0118000D01*
X0112000Y0110000D02*
X0104000Y0118000D01*
X0104000Y0114000D02*
X0112000Y0114000D01*
X0107000Y0114000D02*
X0115000Y0122000D01*
X0115000Y0114000D02*
X0107000Y0122000D01*
X0107000Y0118000D02*
X0115000Y0118000D01*
X0112000Y0114000D02*
X0120000Y0122000D01*
X0120000Y0114000D02*
X0112000Y0122000D01*
X0112000Y0118000D02*
X0120000Y0118000D01*
X0117000Y0114000D02*
X0125000Y0122000D01*
X0125000Y0114000D02*
X0117000Y0122000D01*
X0117000Y0118000D02*
X0125000Y0118000D01*
X0121000Y0110000D02*
X0129000Y0118000D01*
X0129000Y0110000D02*
X0121000Y0118000D01*
X0121000Y0114000D02*
X0129000Y0114000D01*
X0121000Y0105000D02*
X0129000Y0113000D01*
X0129000Y0105000D02*
X0121000Y0113000D01*
X0121000Y0109000D02*
X0129000Y0109000D01*
X0122000Y0100000D02*
X0130000Y0108000D01*
X0130000Y0100000D02*
X0122000Y0108000D01*
X0122000Y0104000D02*
X0130000Y0104000D01*
X0122000Y0095000D02*
X0130000Y0103000D01*
X0130000Y0095000D02*
X0122000Y0103000D01*
X0122000Y0099000D02*
X0130000Y0099000D01*
X0122000Y0090000D02*
X0130000Y0098000D01*
X0130000Y0090000D02*
X0122000Y0098000D01*
X0122000Y0094000D02*
X0130000Y0094000D01*
X0122000Y0085000D02*
X0130000Y0093000D01*
X0130000Y0085000D02*
X0122000Y0093000D01*
X0122000Y0089000D02*
X0130000Y0089000D01*
X0122000Y0080000D02*
X0130000Y0088000D01*
X0130000Y0080000D02*
X0122000Y0088000D01*
X0122000Y0084000D02*
X0130000Y0084000D01*
X0122000Y0075000D02*
X0130000Y0083000D01*
X0130000Y0075000D02*
X0122000Y0083000D01*
X0122000Y0079000D02*
X0130000Y0079000D01*
X0122000Y0070000D02*
X0130000Y0078000D01*
X0130000Y0070000D02*
X0122000Y0078000D01*
X0122000Y0074000D02*
X0130000Y0074000D01*
X0119000Y0067000D02*
X0127000Y0075000D01*
X0127000Y0067000D02*
X0119000Y0075000D01*
X0119000Y0071000D02*
X0127000Y0071000D01*
X0100000Y0063000D02*
X0108000Y0071000D01*
X0108000Y0063000D02*
X0100000Y0071000D01*
X0100000Y0067000D02*
X0108000Y0067000D01*
X0100000Y0057000D02*
X0108000Y0065000D01*
X0108000Y0057000D02*
X0100000Y0065000D01*
X0100000Y0061000D02*
X0108000Y0061000D01*
X0100000Y0052000D02*
X0108000Y0060000D01*
X0108000Y0052000D02*
X0100000Y0060000D01*
X0100000Y0056000D02*
X0108000Y0056000D01*
X0095000Y0042000D02*
X0103000Y0050000D01*
X0103000Y0042000D02*
X0095000Y0050000D01*
X0095000Y0046000D02*
X0103000Y0046000D01*
X0266000Y0116000D02*
X0274000Y0124000D01*
X0274000Y0116000D02*
X0266000Y0124000D01*
X0266000Y0120000D02*
X0274000Y0120000D01*
X0271000Y0116000D02*
X0279000Y0124000D01*
X0279000Y0116000D02*
X0271000Y0124000D01*
X0271000Y0120000D02*
X0279000Y0120000D01*
X0271000Y0121000D02*
X0279000Y0129000D01*
X0279000Y0121000D02*
X0271000Y0129000D01*
X0271000Y0125000D02*
X0279000Y0125000D01*
X0266000Y0121000D02*
X0274000Y0129000D01*
X0274000Y0121000D02*
X0266000Y0129000D01*
X0266000Y0125000D02*
X0274000Y0125000D01*
X0266000Y0126000D02*
X0274000Y0134000D01*
X0274000Y0126000D02*
X0266000Y0134000D01*
X0266000Y0130000D02*
X0274000Y0130000D01*
X0271000Y0126000D02*
X0279000Y0134000D01*
X0279000Y0126000D02*
X0271000Y0134000D01*
X0271000Y0130000D02*
X0279000Y0130000D01*
X0271000Y0131000D02*
X0279000Y0139000D01*
X0279000Y0131000D02*
X0271000Y0139000D01*
X0271000Y0135000D02*
X0279000Y0135000D01*
X0266000Y0131000D02*
X0274000Y0139000D01*
X0274000Y0131000D02*
X0266000Y0139000D01*
X0266000Y0135000D02*
X0274000Y0135000D01*
X0266000Y0136000D02*
X0274000Y0144000D01*
X0274000Y0136000D02*
X0266000Y0144000D01*
X0266000Y0140000D02*
X0274000Y0140000D01*
X0271000Y0136000D02*
X0279000Y0144000D01*
X0279000Y0136000D02*
X0271000Y0144000D01*
X0271000Y0140000D02*
X0279000Y0140000D01*
X0276000Y0136000D02*
X0284000Y0144000D01*
X0284000Y0136000D02*
X0276000Y0144000D01*
X0276000Y0140000D02*
X0284000Y0140000D01*
X0276000Y0131000D02*
X0284000Y0139000D01*
X0284000Y0131000D02*
X0276000Y0139000D01*
X0276000Y0135000D02*
X0284000Y0135000D01*
X0276000Y0126000D02*
X0284000Y0134000D01*
X0284000Y0126000D02*
X0276000Y0134000D01*
X0276000Y0130000D02*
X0284000Y0130000D01*
X0276000Y0121000D02*
X0284000Y0129000D01*
X0284000Y0121000D02*
X0276000Y0129000D01*
X0276000Y0125000D02*
X0284000Y0125000D01*
X0276000Y0116000D02*
X0284000Y0124000D01*
X0284000Y0116000D02*
X0276000Y0124000D01*
X0276000Y0120000D02*
X0284000Y0120000D01*
X0171200Y0422500D02*
X0179200Y0430500D01*
X0179200Y0422500D02*
X0171200Y0430500D01*
X0171200Y0426500D02*
X0179200Y0426500D01*
X0171200Y0426900D02*
X0179200Y0434900D01*
X0179200Y0426900D02*
X0171200Y0434900D01*
X0171200Y0430900D02*
X0179200Y0430900D01*
X0164400Y0424400D02*
X0172400Y0432400D01*
X0172400Y0424400D02*
X0164400Y0432400D01*
X0164400Y0428400D02*
X0172400Y0428400D01*
X0159700Y0424400D02*
X0167700Y0432400D01*
X0167700Y0424400D02*
X0159700Y0432400D01*
X0159700Y0428400D02*
X0167700Y0428400D01*
X0159700Y0429500D02*
X0167700Y0437500D01*
X0167700Y0429500D02*
X0159700Y0437500D01*
X0159700Y0433500D02*
X0167700Y0433500D01*
X0164400Y0429400D02*
X0172400Y0437400D01*
X0172400Y0429400D02*
X0164400Y0437400D01*
X0164400Y0433400D02*
X0172400Y0433400D01*
X0156300Y0444000D02*
X0164300Y0452000D01*
X0164300Y0444000D02*
X0156300Y0452000D01*
X0156300Y0448000D02*
X0164300Y0448000D01*
X0160100Y0447000D02*
X0168100Y0455000D01*
X0168100Y0447000D02*
X0160100Y0455000D01*
X0160100Y0451000D02*
X0168100Y0451000D01*
X0155000Y0429400D02*
X0163000Y0437400D01*
X0163000Y0429400D02*
X0155000Y0437400D01*
X0155000Y0433400D02*
X0163000Y0433400D01*
X0154900Y0424400D02*
X0162900Y0432400D01*
X0162900Y0424400D02*
X0154900Y0432400D01*
X0154900Y0428400D02*
X0162900Y0428400D01*
X0149200Y0422500D02*
X0157200Y0430500D01*
X0157200Y0422500D02*
X0149200Y0430500D01*
X0149200Y0426500D02*
X0157200Y0426500D01*
X0149200Y0426700D02*
X0157200Y0434700D01*
X0157200Y0426700D02*
X0149200Y0434700D01*
X0149200Y0430700D02*
X0157200Y0430700D01*
X0149300Y0431200D02*
X0157300Y0439200D01*
X0157300Y0431200D02*
X0149300Y0439200D01*
X0149300Y0435200D02*
X0157300Y0435200D01*
X0026700Y0507100D02*
X0034700Y0515100D01*
X0034700Y0507100D02*
X0026700Y0515100D01*
X0026700Y0511100D02*
X0034700Y0511100D01*
X0036950Y0506800D02*
X0044950Y0514800D01*
X0044950Y0506800D02*
X0036950Y0514800D01*
X0036950Y0510800D02*
X0044950Y0510800D01*
X0047550Y0506750D02*
X0055550Y0514750D01*
X0055550Y0506750D02*
X0047550Y0514750D01*
X0047550Y0510750D02*
X0055550Y0510750D01*
X0074900Y0513000D02*
X0082900Y0521000D01*
X0082900Y0513000D02*
X0074900Y0521000D01*
X0074900Y0517000D02*
X0082900Y0517000D01*
X0087800Y0506900D02*
X0095800Y0514900D01*
X0095800Y0506900D02*
X0087800Y0514900D01*
X0087800Y0510900D02*
X0095800Y0510900D01*
X0101050Y0504150D02*
X0109050Y0512150D01*
X0109050Y0504150D02*
X0101050Y0512150D01*
X0101050Y0508150D02*
X0109050Y0508150D01*
X0121750Y0508550D02*
X0129750Y0516550D01*
X0129750Y0508550D02*
X0121750Y0516550D01*
X0121750Y0512550D02*
X0129750Y0512550D01*
X0134700Y0508150D02*
X0142700Y0516150D01*
X0142700Y0508150D02*
X0134700Y0516150D01*
X0134700Y0512150D02*
X0142700Y0512150D01*
X0122200Y0532550D02*
X0130200Y0540550D01*
X0130200Y0532550D02*
X0122200Y0540550D01*
X0122200Y0536550D02*
X0130200Y0536550D01*
X0133450Y0538200D02*
X0141450Y0546200D01*
X0141450Y0538200D02*
X0133450Y0546200D01*
X0133450Y0542200D02*
X0141450Y0542200D01*
X0138050Y0548200D02*
X0146050Y0556200D01*
X0146050Y0548200D02*
X0138050Y0556200D01*
X0138050Y0552200D02*
X0146050Y0552200D01*
X0182900Y0541200D02*
X0190900Y0549200D01*
X0190900Y0541200D02*
X0182900Y0549200D01*
X0182900Y0545200D02*
X0190900Y0545200D01*
X0203050Y0511100D02*
X0211050Y0519100D01*
X0211050Y0511100D02*
X0203050Y0519100D01*
X0203050Y0515100D02*
X0211050Y0515100D01*
X0238700Y0542700D02*
X0246700Y0550700D01*
X0246700Y0542700D02*
X0238700Y0550700D01*
X0238700Y0546700D02*
X0246700Y0546700D01*
X0216950Y0578350D02*
X0224950Y0586350D01*
X0224950Y0578350D02*
X0216950Y0586350D01*
X0216950Y0582350D02*
X0224950Y0582350D01*
X0186200Y0596000D02*
X0194200Y0604000D01*
X0194200Y0596000D02*
X0186200Y0604000D01*
X0186200Y0600000D02*
X0194200Y0600000D01*
X0210850Y0634300D02*
X0218850Y0642300D01*
X0218850Y0634300D02*
X0210850Y0642300D01*
X0210850Y0638300D02*
X0218850Y0638300D01*
X0226050Y0643650D02*
X0234050Y0651650D01*
X0234050Y0643650D02*
X0226050Y0651650D01*
X0226050Y0647650D02*
X0234050Y0647650D01*
X0226200Y0650350D02*
X0234200Y0658350D01*
X0234200Y0650350D02*
X0226200Y0658350D01*
X0226200Y0654350D02*
X0234200Y0654350D01*
X0232150Y0639800D02*
X0240150Y0647800D01*
X0240150Y0639800D02*
X0232150Y0647800D01*
X0232150Y0643800D02*
X0240150Y0643800D01*
X0237550Y0637500D02*
X0245550Y0645500D01*
X0245550Y0637500D02*
X0237550Y0645500D01*
X0237550Y0641500D02*
X0245550Y0641500D01*
X0235000Y0629050D02*
X0243000Y0637050D01*
X0243000Y0629050D02*
X0235000Y0637050D01*
X0235000Y0633050D02*
X0243000Y0633050D01*
X0242250Y0629250D02*
X0250250Y0637250D01*
X0250250Y0629250D02*
X0242250Y0637250D01*
X0242250Y0633250D02*
X0250250Y0633250D01*
X0256300Y0641350D02*
X0264300Y0649350D01*
X0264300Y0641350D02*
X0256300Y0649350D01*
X0256300Y0645350D02*
X0264300Y0645350D01*
X0247500Y0658750D02*
X0255500Y0666750D01*
X0255500Y0658750D02*
X0247500Y0666750D01*
X0247500Y0662750D02*
X0255500Y0662750D01*
X0232700Y0686250D02*
X0240700Y0694250D01*
X0240700Y0686250D02*
X0232700Y0694250D01*
X0232700Y0690250D02*
X0240700Y0690250D01*
X0204050Y0666500D02*
X0212050Y0674500D01*
X0212050Y0666500D02*
X0204050Y0674500D01*
X0204050Y0670500D02*
X0212050Y0670500D01*
X0181950Y0666800D02*
X0189950Y0674800D01*
X0189950Y0666800D02*
X0181950Y0674800D01*
X0181950Y0670800D02*
X0189950Y0670800D01*
X0172300Y0674100D02*
X0180300Y0682100D01*
X0180300Y0674100D02*
X0172300Y0682100D01*
X0172300Y0678100D02*
X0180300Y0678100D01*
X0160950Y0675200D02*
X0168950Y0683200D01*
X0168950Y0675200D02*
X0160950Y0683200D01*
X0160950Y0679200D02*
X0168950Y0679200D01*
X0151050Y0679400D02*
X0159050Y0687400D01*
X0159050Y0679400D02*
X0151050Y0687400D01*
X0151050Y0683400D02*
X0159050Y0683400D01*
X0142350Y0682950D02*
X0150350Y0690950D01*
X0150350Y0682950D02*
X0142350Y0690950D01*
X0142350Y0686950D02*
X0150350Y0686950D01*
X0133050Y0701000D02*
X0141050Y0709000D01*
X0141050Y0701000D02*
X0133050Y0709000D01*
X0133050Y0705000D02*
X0141050Y0705000D01*
X0101750Y0666800D02*
X0109750Y0674800D01*
X0109750Y0666800D02*
X0101750Y0674800D01*
X0101750Y0670800D02*
X0109750Y0670800D01*
X0085600Y0681150D02*
X0093600Y0689150D01*
X0093600Y0681150D02*
X0085600Y0689150D01*
X0085600Y0685150D02*
X0093600Y0685150D01*
X0070950Y0736450D02*
X0078950Y0744450D01*
X0078950Y0736450D02*
X0070950Y0744450D01*
X0070950Y0740450D02*
X0078950Y0740450D01*
X0109200Y0755500D02*
X0117200Y0763500D01*
X0117200Y0755500D02*
X0109200Y0763500D01*
X0109200Y0759500D02*
X0117200Y0759500D01*
X0113800Y0750900D02*
X0121800Y0758900D01*
X0121800Y0750900D02*
X0113800Y0758900D01*
X0113800Y0754900D02*
X0121800Y0754900D01*
X0118150Y0756000D02*
X0126150Y0764000D01*
X0126150Y0756000D02*
X0118150Y0764000D01*
X0118150Y0760000D02*
X0126150Y0760000D01*
X0113800Y0760650D02*
X0121800Y0768650D01*
X0121800Y0760650D02*
X0113800Y0768650D01*
X0113800Y0764650D02*
X0121800Y0764650D01*
X0118150Y0765800D02*
X0126150Y0773800D01*
X0126150Y0765800D02*
X0118150Y0773800D01*
X0118150Y0769800D02*
X0126150Y0769800D01*
X0122850Y0760450D02*
X0130850Y0768450D01*
X0130850Y0760450D02*
X0122850Y0768450D01*
X0122850Y0764450D02*
X0130850Y0764450D01*
X0126900Y0755750D02*
X0134900Y0763750D01*
X0134900Y0755750D02*
X0126900Y0763750D01*
X0126900Y0759750D02*
X0134900Y0759750D01*
X0122500Y0750600D02*
X0130500Y0758600D01*
X0130500Y0750600D02*
X0122500Y0758600D01*
X0122500Y0754600D02*
X0130500Y0754600D01*
X0134550Y0750800D02*
X0142550Y0758800D01*
X0142550Y0750800D02*
X0134550Y0758800D01*
X0134550Y0754800D02*
X0142550Y0754800D01*
X0139950Y0756050D02*
X0147950Y0764050D01*
X0147950Y0756050D02*
X0139950Y0764050D01*
X0139950Y0760050D02*
X0147950Y0760050D01*
X0140150Y0761850D02*
X0148150Y0769850D01*
X0148150Y0761850D02*
X0140150Y0769850D01*
X0140150Y0765850D02*
X0148150Y0765850D01*
X0134400Y0758550D02*
X0142400Y0766550D01*
X0142400Y0758550D02*
X0134400Y0766550D01*
X0134400Y0762550D02*
X0142400Y0762550D01*
X0134500Y0766300D02*
X0142500Y0774300D01*
X0142500Y0766300D02*
X0134500Y0774300D01*
X0134500Y0770300D02*
X0142500Y0770300D01*
X0126900Y0765900D02*
X0134900Y0773900D01*
X0134900Y0765900D02*
X0126900Y0773900D01*
X0126900Y0769900D02*
X0134900Y0769900D01*
X0109300Y0765750D02*
X0117300Y0773750D01*
X0117300Y0765750D02*
X0109300Y0773750D01*
X0109300Y0769750D02*
X0117300Y0769750D01*
X0135100Y0796600D02*
X0143100Y0804600D01*
X0143100Y0796600D02*
X0135100Y0804600D01*
X0135100Y0800600D02*
X0143100Y0800600D01*
X0146900Y0762550D02*
X0154900Y0770550D01*
X0154900Y0762550D02*
X0146900Y0770550D01*
X0146900Y0766550D02*
X0154900Y0766550D01*
X0146750Y0756600D02*
X0154750Y0764600D01*
X0154750Y0756600D02*
X0146750Y0764600D01*
X0146750Y0760600D02*
X0154750Y0760600D01*
X0147500Y0750500D02*
X0155500Y0758500D01*
X0155500Y0750500D02*
X0147500Y0758500D01*
X0147500Y0754500D02*
X0155500Y0754500D01*
X0166050Y0755500D02*
X0174050Y0763500D01*
X0174050Y0755500D02*
X0166050Y0763500D01*
X0166050Y0759500D02*
X0174050Y0759500D01*
X0183900Y0786200D02*
X0191900Y0794200D01*
X0191900Y0786200D02*
X0183900Y0794200D01*
X0183900Y0790200D02*
X0191900Y0790200D01*
X0182600Y0809350D02*
X0190600Y0817350D01*
X0190600Y0809350D02*
X0182600Y0817350D01*
X0182600Y0813350D02*
X0190600Y0813350D01*
X0194000Y0812300D02*
X0202000Y0820300D01*
X0202000Y0812300D02*
X0194000Y0820300D01*
X0194000Y0816300D02*
X0202000Y0816300D01*
X0196700Y0833600D02*
X0204700Y0841600D01*
X0204700Y0833600D02*
X0196700Y0841600D01*
X0196700Y0837600D02*
X0204700Y0837600D01*
X0214500Y0794550D02*
X0222500Y0802550D01*
X0222500Y0794550D02*
X0214500Y0802550D01*
X0214500Y0798550D02*
X0222500Y0798550D01*
X0214800Y0789250D02*
X0222800Y0797250D01*
X0222800Y0789250D02*
X0214800Y0797250D01*
X0214800Y0793250D02*
X0222800Y0793250D01*
X0223100Y0783050D02*
X0231100Y0791050D01*
X0231100Y0783050D02*
X0223100Y0791050D01*
X0223100Y0787050D02*
X0231100Y0787050D01*
X0220100Y0770650D02*
X0228100Y0778650D01*
X0228100Y0770650D02*
X0220100Y0778650D01*
X0220100Y0774650D02*
X0228100Y0774650D01*
X0205650Y0771300D02*
X0213650Y0779300D01*
X0213650Y0771300D02*
X0205650Y0779300D01*
X0205650Y0775300D02*
X0213650Y0775300D01*
X0254500Y0756350D02*
X0262500Y0764350D01*
X0262500Y0756350D02*
X0254500Y0764350D01*
X0254500Y0760350D02*
X0262500Y0760350D01*
X0201400Y0699550D02*
X0209400Y0707550D01*
X0209400Y0699550D02*
X0201400Y0707550D01*
X0201400Y0703550D02*
X0209400Y0703550D01*
X0187600Y0698250D02*
X0195600Y0706250D01*
X0195600Y0698250D02*
X0187600Y0706250D01*
X0187600Y0702250D02*
X0195600Y0702250D01*
X0132600Y0633350D02*
X0140600Y0641350D01*
X0140600Y0633350D02*
X0132600Y0641350D01*
X0132600Y0637350D02*
X0140600Y0637350D01*
X0086050Y0597300D02*
X0094050Y0605300D01*
X0094050Y0597300D02*
X0086050Y0605300D01*
X0086050Y0601300D02*
X0094050Y0601300D01*
X0080500Y0599600D02*
X0088500Y0607600D01*
X0088500Y0599600D02*
X0080500Y0607600D01*
X0080500Y0603600D02*
X0088500Y0603600D01*
X0080950Y0612950D02*
X0088950Y0620950D01*
X0088950Y0612950D02*
X0080950Y0620950D01*
X0080950Y0616950D02*
X0088950Y0616950D01*
X0077100Y0533100D02*
X0085100Y0541100D01*
X0085100Y0533100D02*
X0077100Y0541100D01*
X0077100Y0537100D02*
X0085100Y0537100D01*
X0261200Y0621900D02*
X0269200Y0629900D01*
X0269200Y0621900D02*
X0261200Y0629900D01*
X0261200Y0625900D02*
X0269200Y0625900D01*
X0297450Y0606100D02*
X0305450Y0614100D01*
X0305450Y0606100D02*
X0297450Y0614100D01*
X0297450Y0610100D02*
X0305450Y0610100D01*
X0306650Y0617000D02*
X0314650Y0625000D01*
X0314650Y0617000D02*
X0306650Y0625000D01*
X0306650Y0621000D02*
X0314650Y0621000D01*
X0306750Y0637600D02*
X0314750Y0645600D01*
X0314750Y0637600D02*
X0306750Y0645600D01*
X0306750Y0641600D02*
X0314750Y0641600D01*
X0263400Y0688150D02*
X0271400Y0696150D01*
X0271400Y0688150D02*
X0263400Y0696150D01*
X0263400Y0692150D02*
X0271400Y0692150D01*
X0277100Y0539900D02*
X0285100Y0547900D01*
X0285100Y0539900D02*
X0277100Y0547900D01*
X0277100Y0543900D02*
X0285100Y0543900D01*
X0284700Y0525050D02*
X0292700Y0533050D01*
X0292700Y0525050D02*
X0284700Y0533050D01*
X0284700Y0529050D02*
X0292700Y0529050D01*
X0070950Y0786500D02*
X0078950Y0794500D01*
X0078950Y0786500D02*
X0070950Y0794500D01*
X0070950Y0790500D02*
X0078950Y0790500D01*
X0063050Y0798150D02*
X0071050Y0806150D01*
X0071050Y0798150D02*
X0063050Y0806150D01*
X0063050Y0802150D02*
X0071050Y0802150D01*
X0056150Y0807400D02*
X0064150Y0815400D01*
X0064150Y0807400D02*
X0056150Y0815400D01*
X0056150Y0811400D02*
X0064150Y0811400D01*
X0071150Y0809600D02*
X0079150Y0817600D01*
X0079150Y0809600D02*
X0071150Y0817600D01*
X0071150Y0813600D02*
X0079150Y0813600D01*
X0153550Y0842800D02*
X0161550Y0850800D01*
X0161550Y0842800D02*
X0153550Y0850800D01*
X0153550Y0846800D02*
X0161550Y0846800D01*
X0156800Y0848150D02*
X0164800Y0856150D01*
X0164800Y0848150D02*
X0156800Y0856150D01*
X0156800Y0852150D02*
X0164800Y0852150D01*
X0110350Y0605150D02*
X0118350Y0613150D01*
X0118350Y0605150D02*
X0110350Y0613150D01*
X0110350Y0609150D02*
X0118350Y0609150D01*
X0115300Y0615950D02*
X0123300Y0623950D01*
X0123300Y0615950D02*
X0115300Y0623950D01*
X0115300Y0619950D02*
X0123300Y0619950D01*
X0119700Y0618050D02*
X0127700Y0626050D01*
X0127700Y0618050D02*
X0119700Y0626050D01*
X0119700Y0622050D02*
X0127700Y0622050D01*
X0123900Y0620450D02*
X0131900Y0628450D01*
X0131900Y0620450D02*
X0123900Y0628450D01*
X0123900Y0624450D02*
X0131900Y0624450D01*
X0104100Y0634150D02*
X0112100Y0642150D01*
X0112100Y0634150D02*
X0104100Y0642150D01*
X0104100Y0638150D02*
X0112100Y0638150D01*
X0104000Y0634050D02*
X0112000Y0642050D01*
X0112000Y0634050D02*
X0104000Y0642050D01*
X0104000Y0638050D02*
X0112000Y0638050D01*
X0144700Y0644800D02*
X0152700Y0652800D01*
X0152700Y0644800D02*
X0144700Y0652800D01*
X0144700Y0648800D02*
X0152700Y0648800D01*
X0178600Y0643550D02*
X0186600Y0651550D01*
X0186600Y0643550D02*
X0178600Y0651550D01*
X0178600Y0647550D02*
X0186600Y0647550D01*
X0196300Y0623050D02*
X0204300Y0631050D01*
X0204300Y0623050D02*
X0196300Y0631050D01*
X0196300Y0627050D02*
X0204300Y0627050D01*
X0199900Y0619450D02*
X0207900Y0627450D01*
X0207900Y0619450D02*
X0199900Y0627450D01*
X0199900Y0623450D02*
X0207900Y0623450D01*
X0196900Y0615950D02*
X0204900Y0623950D01*
X0204900Y0615950D02*
X0196900Y0623950D01*
X0196900Y0619950D02*
X0204900Y0619950D01*
X0209200Y0680150D02*
X0217200Y0688150D01*
X0217200Y0680150D02*
X0209200Y0688150D01*
X0209200Y0684150D02*
X0217200Y0684150D01*
X0212800Y0686950D02*
X0220800Y0694950D01*
X0220800Y0686950D02*
X0212800Y0694950D01*
X0212800Y0690950D02*
X0220800Y0690950D01*
X0216500Y0683800D02*
X0224500Y0691800D01*
X0224500Y0683800D02*
X0216500Y0691800D01*
X0216500Y0687800D02*
X0224500Y0687800D01*
X0216200Y0693750D02*
X0224200Y0701750D01*
X0224200Y0693750D02*
X0216200Y0701750D01*
X0216200Y0697750D02*
X0224200Y0697750D01*
X0206050Y0704100D02*
X0214050Y0712100D01*
X0214050Y0704100D02*
X0206050Y0712100D01*
X0206050Y0708100D02*
X0214050Y0708100D01*
X0194550Y0698500D02*
X0202550Y0706500D01*
X0202550Y0698500D02*
X0194550Y0706500D01*
X0194550Y0702500D02*
X0202550Y0702500D01*
X0183750Y0703700D02*
X0191750Y0711700D01*
X0191750Y0703700D02*
X0183750Y0711700D01*
X0183750Y0707700D02*
X0191750Y0707700D01*
X0180900Y0700150D02*
X0188900Y0708150D01*
X0188900Y0700150D02*
X0180900Y0708150D01*
X0180900Y0704150D02*
X0188900Y0704150D01*
X0167450Y0704200D02*
X0175450Y0712200D01*
X0175450Y0704200D02*
X0167450Y0712200D01*
X0167450Y0708200D02*
X0175450Y0708200D01*
X0146100Y0697750D02*
X0154100Y0705750D01*
X0154100Y0697750D02*
X0146100Y0705750D01*
X0146100Y0701750D02*
X0154100Y0701750D01*
X0120000Y0690650D02*
X0128000Y0698650D01*
X0128000Y0690650D02*
X0120000Y0698650D01*
X0120000Y0694650D02*
X0128000Y0694650D01*
X0084300Y0719800D02*
X0092300Y0727800D01*
X0092300Y0719800D02*
X0084300Y0727800D01*
X0084300Y0723800D02*
X0092300Y0723800D01*
X0165100Y0800350D02*
X0173100Y0808350D01*
X0173100Y0800350D02*
X0165100Y0808350D01*
X0165100Y0804350D02*
X0173100Y0804350D01*
X0208000Y0756650D02*
X0216000Y0764650D01*
X0216000Y0756650D02*
X0208000Y0764650D01*
X0208000Y0760650D02*
X0216000Y0760650D01*
X0219900Y0753350D02*
X0227900Y0761350D01*
X0227900Y0753350D02*
X0219900Y0761350D01*
X0219900Y0757350D02*
X0227900Y0757350D01*
X0222100Y0736650D02*
X0230100Y0744650D01*
X0230100Y0736650D02*
X0222100Y0744650D01*
X0222100Y0740650D02*
X0230100Y0740650D01*
X0227800Y0716750D02*
X0235800Y0724750D01*
X0235800Y0716750D02*
X0227800Y0724750D01*
X0227800Y0720750D02*
X0235800Y0720750D01*
X0223400Y0711850D02*
X0231400Y0719850D01*
X0231400Y0711850D02*
X0223400Y0719850D01*
X0223400Y0715850D02*
X0231400Y0715850D01*
X0219200Y0707850D02*
X0227200Y0715850D01*
X0227200Y0707850D02*
X0219200Y0715850D01*
X0219200Y0711850D02*
X0227200Y0711850D01*
X0254800Y0712250D02*
X0262800Y0720250D01*
X0262800Y0712250D02*
X0254800Y0720250D01*
X0254800Y0716250D02*
X0262800Y0716250D01*
X0255200Y0707250D02*
X0263200Y0715250D01*
X0263200Y0707250D02*
X0255200Y0715250D01*
X0255200Y0711250D02*
X0263200Y0711250D01*
X0260800Y0708350D02*
X0268800Y0716350D01*
X0268800Y0708350D02*
X0260800Y0716350D01*
X0260800Y0712350D02*
X0268800Y0712350D01*
X0264400Y0711750D02*
X0272400Y0719750D01*
X0272400Y0711750D02*
X0264400Y0719750D01*
X0264400Y0715750D02*
X0272400Y0715750D01*
X0268400Y0724450D02*
X0276400Y0732450D01*
X0276400Y0724450D02*
X0268400Y0732450D01*
X0268400Y0728450D02*
X0276400Y0728450D01*
X0262400Y0733450D02*
X0270400Y0741450D01*
X0270400Y0733450D02*
X0262400Y0741450D01*
X0262400Y0737450D02*
X0270400Y0737450D01*
X0256400Y0735350D02*
X0264400Y0743350D01*
X0264400Y0735350D02*
X0256400Y0743350D01*
X0256400Y0739350D02*
X0264400Y0739350D01*
X0257650Y0744950D02*
X0265650Y0752950D01*
X0265650Y0744950D02*
X0257650Y0752950D01*
X0257650Y0748950D02*
X0265650Y0748950D01*
X0264150Y0744800D02*
X0272150Y0752800D01*
X0272150Y0744800D02*
X0264150Y0752800D01*
X0264150Y0748800D02*
X0272150Y0748800D01*
X0274900Y0735150D02*
X0282900Y0743150D01*
X0282900Y0735150D02*
X0274900Y0743150D01*
X0274900Y0739150D02*
X0282900Y0739150D01*
X0284000Y0750900D02*
X0292000Y0758900D01*
X0292000Y0750900D02*
X0284000Y0758900D01*
X0284000Y0754900D02*
X0292000Y0754900D01*
X0298700Y0743900D02*
X0306700Y0751900D01*
X0306700Y0743900D02*
X0298700Y0751900D01*
X0298700Y0747900D02*
X0306700Y0747900D01*
X0306400Y0752750D02*
X0314400Y0760750D01*
X0314400Y0752750D02*
X0306400Y0760750D01*
X0306400Y0756750D02*
X0314400Y0756750D01*
X0311800Y0752750D02*
X0319800Y0760750D01*
X0319800Y0752750D02*
X0311800Y0760750D01*
X0311800Y0756750D02*
X0319800Y0756750D01*
X0290100Y0766750D02*
X0298100Y0774750D01*
X0298100Y0766750D02*
X0290100Y0774750D01*
X0290100Y0770750D02*
X0298100Y0770750D01*
X0287800Y0783650D02*
X0295800Y0791650D01*
X0295800Y0783650D02*
X0287800Y0791650D01*
X0287800Y0787650D02*
X0295800Y0787650D01*
X0291400Y0798850D02*
X0299400Y0806850D01*
X0299400Y0798850D02*
X0291400Y0806850D01*
X0291400Y0802850D02*
X0299400Y0802850D01*
X0273500Y0810800D02*
X0281500Y0818800D01*
X0281500Y0810800D02*
X0273500Y0818800D01*
X0273500Y0814800D02*
X0281500Y0814800D01*
X0255400Y0782700D02*
X0263400Y0790700D01*
X0263400Y0782700D02*
X0255400Y0790700D01*
X0255400Y0786700D02*
X0263400Y0786700D01*
X0250300Y0771800D02*
X0258300Y0779800D01*
X0258300Y0771800D02*
X0250300Y0779800D01*
X0250300Y0775800D02*
X0258300Y0775800D01*
X0246400Y0763850D02*
X0254400Y0771850D01*
X0254400Y0763850D02*
X0246400Y0771850D01*
X0246400Y0767850D02*
X0254400Y0767850D01*
X0237800Y0764000D02*
X0245800Y0772000D01*
X0245800Y0764000D02*
X0237800Y0772000D01*
X0237800Y0768000D02*
X0245800Y0768000D01*
X0238100Y0772100D02*
X0246100Y0780100D01*
X0246100Y0772100D02*
X0238100Y0780100D01*
X0238100Y0776100D02*
X0246100Y0776100D01*
X0229400Y0769150D02*
X0237400Y0777150D01*
X0237400Y0769150D02*
X0229400Y0777150D01*
X0229400Y0773150D02*
X0237400Y0773150D01*
X0230500Y0784700D02*
X0238500Y0792700D01*
X0238500Y0784700D02*
X0230500Y0792700D01*
X0230500Y0788700D02*
X0238500Y0788700D01*
X0233100Y0789850D02*
X0241100Y0797850D01*
X0241100Y0789850D02*
X0233100Y0797850D01*
X0233100Y0793850D02*
X0241100Y0793850D01*
X0237100Y0784650D02*
X0245100Y0792650D01*
X0245100Y0784650D02*
X0237100Y0792650D01*
X0237100Y0788650D02*
X0245100Y0788650D01*
X0226800Y0798250D02*
X0234800Y0806250D01*
X0234800Y0798250D02*
X0226800Y0806250D01*
X0226800Y0802250D02*
X0234800Y0802250D01*
X0225700Y0805550D02*
X0233700Y0813550D01*
X0233700Y0805550D02*
X0225700Y0813550D01*
X0225700Y0809550D02*
X0233700Y0809550D01*
X0220900Y0804850D02*
X0228900Y0812850D01*
X0228900Y0804850D02*
X0220900Y0812850D01*
X0220900Y0808850D02*
X0228900Y0808850D01*
X0232450Y0801750D02*
X0240450Y0809750D01*
X0240450Y0801750D02*
X0232450Y0809750D01*
X0232450Y0805750D02*
X0240450Y0805750D01*
X0229100Y0816450D02*
X0237100Y0824450D01*
X0237100Y0816450D02*
X0229100Y0824450D01*
X0229100Y0820450D02*
X0237100Y0820450D01*
X0248100Y0816600D02*
X0256100Y0824600D01*
X0256100Y0816600D02*
X0248100Y0824600D01*
X0248100Y0820600D02*
X0256100Y0820600D01*
X0215500Y0782600D02*
X0223500Y0790600D01*
X0223500Y0782600D02*
X0215500Y0790600D01*
X0215500Y0786600D02*
X0223500Y0786600D01*
X0245300Y0751350D02*
X0253300Y0759350D01*
X0253300Y0751350D02*
X0245300Y0759350D01*
X0245300Y0755350D02*
X0253300Y0755350D01*
X0266500Y0768700D02*
X0274500Y0776700D01*
X0274500Y0768700D02*
X0266500Y0776700D01*
X0266500Y0772700D02*
X0274500Y0772700D01*
X0271800Y0767850D02*
X0279800Y0775850D01*
X0279800Y0767850D02*
X0271800Y0775850D01*
X0271800Y0771850D02*
X0279800Y0771850D01*
X0310900Y0809600D02*
X0318900Y0817600D01*
X0318900Y0809600D02*
X0310900Y0817600D01*
X0310900Y0813600D02*
X0318900Y0813600D01*
X0283000Y0714250D02*
X0291000Y0722250D01*
X0291000Y0714250D02*
X0283000Y0722250D01*
X0283000Y0718250D02*
X0291000Y0718250D01*
X0289700Y0693600D02*
X0297700Y0701600D01*
X0297700Y0693600D02*
X0289700Y0701600D01*
X0289700Y0697600D02*
X0297700Y0697600D01*
X0254200Y0658550D02*
X0262200Y0666550D01*
X0262200Y0658550D02*
X0254200Y0666550D01*
X0254200Y0662550D02*
X0262200Y0662550D01*
X0255400Y0636350D02*
X0263400Y0644350D01*
X0263400Y0636350D02*
X0255400Y0644350D01*
X0255400Y0640350D02*
X0263400Y0640350D01*
X0270400Y0623750D02*
X0278400Y0631750D01*
X0278400Y0623750D02*
X0270400Y0631750D01*
X0270400Y0627750D02*
X0278400Y0627750D01*
X0274000Y0627350D02*
X0282000Y0635350D01*
X0282000Y0627350D02*
X0274000Y0635350D01*
X0274000Y0631350D02*
X0282000Y0631350D01*
X0278200Y0629750D02*
X0286200Y0637750D01*
X0286200Y0629750D02*
X0278200Y0637750D01*
X0278200Y0633750D02*
X0286200Y0633750D01*
X0278200Y0618350D02*
X0286200Y0626350D01*
X0286200Y0618350D02*
X0278200Y0626350D01*
X0278200Y0622350D02*
X0286200Y0622350D01*
X0278200Y0612950D02*
X0286200Y0620950D01*
X0286200Y0612950D02*
X0278200Y0620950D01*
X0278200Y0616950D02*
X0286200Y0616950D01*
X0283000Y0618350D02*
X0291000Y0626350D01*
X0291000Y0618350D02*
X0283000Y0626350D01*
X0283000Y0622350D02*
X0291000Y0622350D01*
X0288400Y0618350D02*
X0296400Y0626350D01*
X0296400Y0618350D02*
X0288400Y0626350D01*
X0288400Y0622350D02*
X0296400Y0622350D01*
X0293800Y0618350D02*
X0301800Y0626350D01*
X0301800Y0618350D02*
X0293800Y0626350D01*
X0293800Y0622350D02*
X0301800Y0622350D01*
X0296200Y0623150D02*
X0304200Y0631150D01*
X0304200Y0623150D02*
X0296200Y0631150D01*
X0296200Y0627150D02*
X0304200Y0627150D01*
X0296200Y0630950D02*
X0304200Y0638950D01*
X0304200Y0630950D02*
X0296200Y0638950D01*
X0296200Y0634950D02*
X0304200Y0634950D01*
X0269800Y0618350D02*
X0277800Y0626350D01*
X0277800Y0618350D02*
X0269800Y0626350D01*
X0269800Y0622350D02*
X0277800Y0622350D01*
X0269800Y0612950D02*
X0277800Y0620950D01*
X0277800Y0612950D02*
X0269800Y0620950D01*
X0269800Y0616950D02*
X0277800Y0616950D01*
X0301000Y0593750D02*
X0309000Y0601750D01*
X0309000Y0593750D02*
X0301000Y0601750D01*
X0301000Y0597750D02*
X0309000Y0597750D01*
X0139500Y0541850D02*
X0147500Y0549850D01*
X0147500Y0541850D02*
X0139500Y0549850D01*
X0139500Y0545850D02*
X0147500Y0545850D01*
X0071200Y0828550D02*
X0079200Y0836550D01*
X0079200Y0828550D02*
X0071200Y0836550D01*
X0071200Y0832550D02*
X0079200Y0832550D01*
X0068100Y0852200D02*
X0076100Y0860200D01*
X0076100Y0852200D02*
X0068100Y0860200D01*
X0068100Y0856200D02*
X0076100Y0856200D01*
X0193000Y0320000D02*
X0189000Y0320000D01*
X0193000Y0320000D02*
X0197000Y0324000D01*
X0197000Y0316000D01*
X0193000Y0320000D01*
X0163000Y0320000D02*
X0159000Y0320000D01*
X0163000Y0320000D02*
X0167000Y0324000D01*
X0167000Y0316000D01*
X0163000Y0320000D01*
X0255160Y0028000D02*
X0251160Y0028000D01*
X0255160Y0028000D02*
X0259160Y0032000D01*
X0259160Y0024000D01*
X0255160Y0028000D01*
X0274840Y0028000D02*
X0270840Y0028000D01*
X0274840Y0028000D02*
X0278840Y0032000D01*
X0278840Y0024000D01*
X0274840Y0028000D01*
X0306500Y0043820D02*
X0302500Y0043820D01*
X0306500Y0043820D02*
X0310500Y0047820D01*
X0310500Y0039820D01*
X0306500Y0043820D01*
X0312500Y0036190D02*
X0308500Y0036190D01*
X0312500Y0036190D02*
X0316500Y0040190D01*
X0316500Y0032190D01*
X0312500Y0036190D01*
X0318500Y0043820D02*
X0314500Y0043820D01*
X0318500Y0043820D02*
X0322500Y0047820D01*
X0322500Y0039820D01*
X0318500Y0043820D01*
X0323500Y0036190D02*
X0319500Y0036190D01*
X0323500Y0036190D02*
X0327500Y0040190D01*
X0327500Y0032190D01*
X0323500Y0036190D01*
X0315050Y0677940D02*
X0311050Y0677940D01*
X0315050Y0677940D02*
X0319050Y0681940D01*
X0319050Y0673940D01*
X0315050Y0677940D01*
X0315050Y0658260D02*
X0311050Y0658260D01*
X0315050Y0658260D02*
X0319050Y0662260D01*
X0319050Y0654260D01*
X0315050Y0658260D01*
X0224840Y0059610D02*
X0228840Y0059610D01*
X0224840Y0059610D02*
X0220840Y0063610D01*
X0220840Y0055610D01*
X0224840Y0059610D01*
X0224840Y0035000D02*
X0228840Y0035000D01*
X0224840Y0035000D02*
X0220840Y0039000D01*
X0220840Y0031000D01*
X0224840Y0035000D01*
X0215000Y0035000D02*
X0219000Y0035000D01*
X0215000Y0035000D02*
X0211000Y0039000D01*
X0211000Y0031000D01*
X0215000Y0035000D01*
X0205160Y0035000D02*
X0209160Y0035000D01*
X0205160Y0035000D02*
X0201160Y0039000D01*
X0201160Y0031000D01*
X0205160Y0035000D01*
X0205160Y0059610D02*
X0209160Y0059610D01*
X0205160Y0059610D02*
X0201160Y0063610D01*
X0201160Y0055610D01*
X0205160Y0059610D01*
X0158900Y0212300D02*
X0162900Y0212300D01*
X0158900Y0212300D02*
X0154900Y0216300D01*
X0154900Y0208300D01*
X0158900Y0212300D01*
X0168900Y0211300D02*
X0172900Y0211300D01*
X0168900Y0211300D02*
X0164900Y0215300D01*
X0164900Y0207300D01*
X0168900Y0211300D01*
X0178900Y0212300D02*
X0182900Y0212300D01*
X0178900Y0212300D02*
X0174900Y0216300D01*
X0174900Y0208300D01*
X0178900Y0212300D01*
X0188900Y0211300D02*
X0192900Y0211300D01*
X0188900Y0211300D02*
X0184900Y0215300D01*
X0184900Y0207300D01*
X0188900Y0211300D01*
X0198900Y0212300D02*
X0202900Y0212300D01*
X0198900Y0212300D02*
X0194900Y0216300D01*
X0194900Y0208300D01*
X0198900Y0212300D01*
X0159300Y0153900D02*
X0163300Y0153900D01*
X0159300Y0153900D02*
X0155300Y0157900D01*
X0155300Y0149900D01*
X0159300Y0153900D01*
X0149300Y0154900D02*
X0153300Y0154900D01*
X0149300Y0154900D02*
X0145300Y0158900D01*
X0145300Y0150900D01*
X0149300Y0154900D01*
X0139300Y0153900D02*
X0143300Y0153900D01*
X0139300Y0153900D02*
X0135300Y0157900D01*
X0135300Y0149900D01*
X0139300Y0153900D01*
X0030000Y0280000D02*
X0034000Y0280000D01*
X0030000Y0280000D02*
X0026000Y0284000D01*
X0026000Y0276000D01*
X0030000Y0280000D01*
X0030000Y0360000D02*
X0034000Y0360000D01*
X0030000Y0360000D02*
X0026000Y0364000D01*
X0026000Y0356000D01*
X0030000Y0360000D01*
X0340000Y0360000D02*
X0344000Y0360000D01*
X0340000Y0360000D02*
X0336000Y0364000D01*
X0336000Y0356000D01*
X0340000Y0360000D01*
X0339900Y0280100D02*
X0343900Y0280100D01*
X0339900Y0280100D02*
X0335900Y0284100D01*
X0335900Y0276100D01*
X0339900Y0280100D01*
X0283150Y0675150D02*
X0287150Y0675150D01*
X0283150Y0675150D02*
X0279150Y0679150D01*
X0279150Y0671150D01*
X0283150Y0675150D01*
X0282150Y0685150D02*
X0286150Y0685150D01*
X0282150Y0685150D02*
X0278150Y0689150D01*
X0278150Y0681150D01*
X0282150Y0685150D01*
X0283150Y0695150D02*
X0287150Y0695150D01*
X0283150Y0695150D02*
X0279150Y0699150D01*
X0279150Y0691150D01*
X0283150Y0695150D01*
X0305950Y0695900D02*
X0309950Y0695900D01*
X0305950Y0695900D02*
X0301950Y0699900D01*
X0301950Y0691900D01*
X0305950Y0695900D01*
X0315950Y0705900D02*
X0319950Y0705900D01*
X0315950Y0705900D02*
X0311950Y0709900D01*
X0311950Y0701900D01*
X0315950Y0705900D01*
X0305950Y0715900D02*
X0309950Y0715900D01*
X0305950Y0715900D02*
X0301950Y0719900D01*
X0301950Y0711900D01*
X0305950Y0715900D01*
X0241050Y0735650D02*
X0245050Y0735650D01*
X0241050Y0735650D02*
X0237050Y0739650D01*
X0237050Y0731650D01*
X0241050Y0735650D01*
X0241050Y0745650D02*
X0245050Y0745650D01*
X0241050Y0745650D02*
X0237050Y0749650D01*
X0237050Y0741650D01*
X0241050Y0745650D01*
X0241050Y0755650D02*
X0245050Y0755650D01*
X0241050Y0755650D02*
X0237050Y0759650D01*
X0237050Y0751650D01*
X0241050Y0755650D01*
X0231050Y0755650D02*
X0235050Y0755650D01*
X0231050Y0755650D02*
X0227050Y0759650D01*
X0227050Y0751650D01*
X0231050Y0755650D01*
X0231050Y0745650D02*
X0235050Y0745650D01*
X0231050Y0745650D02*
X0227050Y0749650D01*
X0227050Y0741650D01*
X0231050Y0745650D01*
X0231050Y0735650D02*
X0235050Y0735650D01*
X0231050Y0735650D02*
X0227050Y0739650D01*
X0227050Y0731650D01*
X0231050Y0735650D01*
X0199400Y0772000D02*
X0203400Y0772000D01*
X0199400Y0772000D02*
X0195400Y0776000D01*
X0195400Y0768000D01*
X0199400Y0772000D01*
X0189400Y0772000D02*
X0193400Y0772000D01*
X0189400Y0772000D02*
X0185400Y0776000D01*
X0185400Y0768000D01*
X0189400Y0772000D01*
X0179400Y0772000D02*
X0183400Y0772000D01*
X0179400Y0772000D02*
X0175400Y0776000D01*
X0175400Y0768000D01*
X0179400Y0772000D01*
X0312700Y0575300D02*
X0316700Y0575300D01*
X0312700Y0575300D02*
X0308700Y0579300D01*
X0308700Y0571300D01*
X0312700Y0575300D01*
X0313700Y0565300D02*
X0317700Y0565300D01*
X0313700Y0565300D02*
X0309700Y0569300D01*
X0309700Y0561300D01*
X0313700Y0565300D01*
X0312700Y0555300D02*
X0316700Y0555300D01*
X0312700Y0555300D02*
X0308700Y0559300D01*
X0308700Y0551300D01*
X0312700Y0555300D01*
X0313700Y0545300D02*
X0317700Y0545300D01*
X0313700Y0545300D02*
X0309700Y0549300D01*
X0309700Y0541300D01*
X0313700Y0545300D01*
X0312700Y0535300D02*
X0316700Y0535300D01*
X0312700Y0535300D02*
X0308700Y0539300D01*
X0308700Y0531300D01*
X0312700Y0535300D01*
X0313750Y0523100D02*
X0317750Y0523100D01*
X0313750Y0523100D02*
X0309750Y0527100D01*
X0309750Y0519100D01*
X0313750Y0523100D01*
X0313750Y0511700D02*
X0317750Y0511700D01*
X0313750Y0511700D02*
X0309750Y0515700D01*
X0309750Y0507700D01*
X0313750Y0511700D01*
X0156000Y0053860D02*
X0164000Y0053860D01*
X0160000Y0049860D02*
X0160000Y0057860D01*
X0156100Y0053860D02*
X0156120Y0054250D01*
X0156180Y0054650D01*
X0156280Y0055030D01*
X0156420Y0055400D01*
X0156590Y0055750D01*
X0156800Y0056090D01*
X0157040Y0056400D01*
X0157310Y0056690D01*
X0157610Y0056940D01*
X0157940Y0057170D01*
X0158280Y0057360D01*
X0158650Y0057520D01*
X0159020Y0057640D01*
X0159410Y0057720D01*
X0159800Y0057750D01*
X0160200Y0057750D01*
X0160590Y0057720D01*
X0160980Y0057640D01*
X0161350Y0057520D01*
X0161720Y0057360D01*
X0162060Y0057170D01*
X0162390Y0056940D01*
X0162690Y0056690D01*
X0162960Y0056400D01*
X0163200Y0056090D01*
X0163410Y0055750D01*
X0163580Y0055400D01*
X0163720Y0055030D01*
X0163820Y0054650D01*
X0163880Y0054250D01*
X0163900Y0053860D01*
X0163880Y0053470D01*
X0163820Y0053070D01*
X0163720Y0052690D01*
X0163580Y0052320D01*
X0163410Y0051970D01*
X0163200Y0051630D01*
X0162960Y0051320D01*
X0162690Y0051030D01*
X0162390Y0050780D01*
X0162060Y0050550D01*
X0161720Y0050360D01*
X0161350Y0050200D01*
X0160980Y0050080D01*
X0160590Y0050000D01*
X0160200Y0049970D01*
X0159800Y0049970D01*
X0159410Y0050000D01*
X0159020Y0050080D01*
X0158650Y0050200D01*
X0158280Y0050360D01*
X0157940Y0050550D01*
X0157610Y0050780D01*
X0157310Y0051030D01*
X0157040Y0051320D01*
X0156800Y0051630D01*
X0156590Y0051970D01*
X0156420Y0052320D01*
X0156280Y0052690D01*
X0156180Y0053070D01*
X0156120Y0053470D01*
X0156100Y0053860D01*
X0156000Y0026300D02*
X0164000Y0026300D01*
X0160000Y0022300D02*
X0160000Y0030300D01*
X0156100Y0026300D02*
X0156120Y0026690D01*
X0156180Y0027090D01*
X0156280Y0027470D01*
X0156420Y0027840D01*
X0156590Y0028190D01*
X0156800Y0028530D01*
X0157040Y0028840D01*
X0157310Y0029130D01*
X0157610Y0029380D01*
X0157940Y0029610D01*
X0158280Y0029800D01*
X0158650Y0029960D01*
X0159020Y0030080D01*
X0159410Y0030160D01*
X0159800Y0030190D01*
X0160200Y0030190D01*
X0160590Y0030160D01*
X0160980Y0030080D01*
X0161350Y0029960D01*
X0161720Y0029800D01*
X0162060Y0029610D01*
X0162390Y0029380D01*
X0162690Y0029130D01*
X0162960Y0028840D01*
X0163200Y0028530D01*
X0163410Y0028190D01*
X0163580Y0027840D01*
X0163720Y0027470D01*
X0163820Y0027090D01*
X0163880Y0026690D01*
X0163900Y0026300D01*
X0163880Y0025910D01*
X0163820Y0025510D01*
X0163720Y0025130D01*
X0163580Y0024760D01*
X0163410Y0024410D01*
X0163200Y0024070D01*
X0162960Y0023760D01*
X0162690Y0023470D01*
X0162390Y0023220D01*
X0162060Y0022990D01*
X0161720Y0022800D01*
X0161350Y0022640D01*
X0160980Y0022520D01*
X0160590Y0022440D01*
X0160200Y0022410D01*
X0159800Y0022410D01*
X0159410Y0022440D01*
X0159020Y0022520D01*
X0158650Y0022640D01*
X0158280Y0022800D01*
X0157940Y0022990D01*
X0157610Y0023220D01*
X0157310Y0023470D01*
X0157040Y0023760D01*
X0156800Y0024070D01*
X0156590Y0024410D01*
X0156420Y0024760D01*
X0156280Y0025130D01*
X0156180Y0025510D01*
X0156120Y0025910D01*
X0156100Y0026300D01*
X0247220Y0037850D02*
X0255220Y0037850D01*
X0251220Y0033850D02*
X0251220Y0041850D01*
X0247320Y0037850D02*
X0247340Y0038240D01*
X0247400Y0038640D01*
X0247500Y0039020D01*
X0247640Y0039390D01*
X0247810Y0039740D01*
X0248020Y0040080D01*
X0248260Y0040390D01*
X0248530Y0040680D01*
X0248830Y0040930D01*
X0249160Y0041160D01*
X0249500Y0041350D01*
X0249870Y0041510D01*
X0250240Y0041630D01*
X0250630Y0041710D01*
X0251020Y0041740D01*
X0251420Y0041740D01*
X0251810Y0041710D01*
X0252200Y0041630D01*
X0252570Y0041510D01*
X0252940Y0041350D01*
X0253280Y0041160D01*
X0253610Y0040930D01*
X0253910Y0040680D01*
X0254180Y0040390D01*
X0254420Y0040080D01*
X0254630Y0039740D01*
X0254800Y0039390D01*
X0254940Y0039020D01*
X0255040Y0038640D01*
X0255100Y0038240D01*
X0255120Y0037850D01*
X0255100Y0037460D01*
X0255040Y0037060D01*
X0254940Y0036680D01*
X0254800Y0036310D01*
X0254630Y0035960D01*
X0254420Y0035620D01*
X0254180Y0035310D01*
X0253910Y0035020D01*
X0253610Y0034770D01*
X0253280Y0034540D01*
X0252940Y0034350D01*
X0252570Y0034190D01*
X0252200Y0034070D01*
X0251810Y0033990D01*
X0251420Y0033960D01*
X0251020Y0033960D01*
X0250630Y0033990D01*
X0250240Y0034070D01*
X0249870Y0034190D01*
X0249500Y0034350D01*
X0249160Y0034540D01*
X0248830Y0034770D01*
X0248530Y0035020D01*
X0248260Y0035310D01*
X0248020Y0035620D01*
X0247810Y0035960D01*
X0247640Y0036310D01*
X0247500Y0036680D01*
X0247400Y0037060D01*
X0247340Y0037460D01*
X0247320Y0037850D01*
X0274780Y0037850D02*
X0282780Y0037850D01*
X0278780Y0033850D02*
X0278780Y0041850D01*
X0274880Y0037850D02*
X0274900Y0038240D01*
X0274960Y0038640D01*
X0275060Y0039020D01*
X0275200Y0039390D01*
X0275370Y0039740D01*
X0275580Y0040080D01*
X0275820Y0040390D01*
X0276090Y0040680D01*
X0276390Y0040930D01*
X0276720Y0041160D01*
X0277060Y0041350D01*
X0277430Y0041510D01*
X0277800Y0041630D01*
X0278190Y0041710D01*
X0278580Y0041740D01*
X0278980Y0041740D01*
X0279370Y0041710D01*
X0279760Y0041630D01*
X0280130Y0041510D01*
X0280500Y0041350D01*
X0280840Y0041160D01*
X0281170Y0040930D01*
X0281470Y0040680D01*
X0281740Y0040390D01*
X0281980Y0040080D01*
X0282190Y0039740D01*
X0282360Y0039390D01*
X0282500Y0039020D01*
X0282600Y0038640D01*
X0282660Y0038240D01*
X0282680Y0037850D01*
X0282660Y0037460D01*
X0282600Y0037060D01*
X0282500Y0036680D01*
X0282360Y0036310D01*
X0282190Y0035960D01*
X0281980Y0035620D01*
X0281740Y0035310D01*
X0281470Y0035020D01*
X0281170Y0034770D01*
X0280840Y0034540D01*
X0280500Y0034350D01*
X0280130Y0034190D01*
X0279760Y0034070D01*
X0279370Y0033990D01*
X0278980Y0033960D01*
X0278580Y0033960D01*
X0278190Y0033990D01*
X0277800Y0034070D01*
X0277430Y0034190D01*
X0277060Y0034350D01*
X0276720Y0034540D01*
X0276390Y0034770D01*
X0276090Y0035020D01*
X0275820Y0035310D01*
X0275580Y0035620D01*
X0275370Y0035960D01*
X0275200Y0036310D01*
X0275060Y0036680D01*
X0274960Y0037060D01*
X0274900Y0037460D01*
X0274880Y0037850D01*
X0301210Y0654320D02*
X0309210Y0654320D01*
X0305210Y0650320D02*
X0305210Y0658320D01*
X0301310Y0654320D02*
X0301330Y0654710D01*
X0301390Y0655110D01*
X0301490Y0655490D01*
X0301630Y0655860D01*
X0301800Y0656210D01*
X0302010Y0656550D01*
X0302250Y0656860D01*
X0302520Y0657150D01*
X0302820Y0657400D01*
X0303150Y0657630D01*
X0303490Y0657820D01*
X0303860Y0657980D01*
X0304230Y0658100D01*
X0304620Y0658180D01*
X0305010Y0658210D01*
X0305410Y0658210D01*
X0305800Y0658180D01*
X0306190Y0658100D01*
X0306560Y0657980D01*
X0306930Y0657820D01*
X0307270Y0657630D01*
X0307600Y0657400D01*
X0307900Y0657150D01*
X0308170Y0656860D01*
X0308410Y0656550D01*
X0308620Y0656210D01*
X0308790Y0655860D01*
X0308930Y0655490D01*
X0309030Y0655110D01*
X0309090Y0654710D01*
X0309110Y0654320D01*
X0309090Y0653930D01*
X0309030Y0653530D01*
X0308930Y0653150D01*
X0308790Y0652780D01*
X0308620Y0652430D01*
X0308410Y0652090D01*
X0308170Y0651780D01*
X0307900Y0651490D01*
X0307600Y0651240D01*
X0307270Y0651010D01*
X0306930Y0650820D01*
X0306560Y0650660D01*
X0306190Y0650540D01*
X0305800Y0650460D01*
X0305410Y0650430D01*
X0305010Y0650430D01*
X0304620Y0650460D01*
X0304230Y0650540D01*
X0303860Y0650660D01*
X0303490Y0650820D01*
X0303150Y0651010D01*
X0302820Y0651240D01*
X0302520Y0651490D01*
X0302250Y0651780D01*
X0302010Y0652090D01*
X0301800Y0652430D01*
X0301630Y0652780D01*
X0301490Y0653150D01*
X0301390Y0653530D01*
X0301330Y0653930D01*
X0301310Y0654320D01*
X0301210Y0681880D02*
X0309210Y0681880D01*
X0305210Y0677880D02*
X0305210Y0685880D01*
X0301310Y0681880D02*
X0301330Y0682270D01*
X0301390Y0682670D01*
X0301490Y0683050D01*
X0301630Y0683420D01*
X0301800Y0683770D01*
X0302010Y0684110D01*
X0302250Y0684420D01*
X0302520Y0684710D01*
X0302820Y0684960D01*
X0303150Y0685190D01*
X0303490Y0685380D01*
X0303860Y0685540D01*
X0304230Y0685660D01*
X0304620Y0685740D01*
X0305010Y0685770D01*
X0305410Y0685770D01*
X0305800Y0685740D01*
X0306190Y0685660D01*
X0306560Y0685540D01*
X0306930Y0685380D01*
X0307270Y0685190D01*
X0307600Y0684960D01*
X0307900Y0684710D01*
X0308170Y0684420D01*
X0308410Y0684110D01*
X0308620Y0683770D01*
X0308790Y0683420D01*
X0308930Y0683050D01*
X0309030Y0682670D01*
X0309090Y0682270D01*
X0309110Y0681880D01*
X0309090Y0681490D01*
X0309030Y0681090D01*
X0308930Y0680710D01*
X0308790Y0680340D01*
X0308620Y0679990D01*
X0308410Y0679650D01*
X0308170Y0679340D01*
X0307900Y0679050D01*
X0307600Y0678800D01*
X0307270Y0678570D01*
X0306930Y0678380D01*
X0306560Y0678220D01*
X0306190Y0678100D01*
X0305800Y0678020D01*
X0305410Y0677990D01*
X0305010Y0677990D01*
X0304620Y0678020D01*
X0304230Y0678100D01*
X0303860Y0678220D01*
X0303490Y0678380D01*
X0303150Y0678570D01*
X0302820Y0678800D01*
X0302520Y0679050D01*
X0302250Y0679340D01*
X0302010Y0679650D01*
X0301800Y0679990D01*
X0301630Y0680340D01*
X0301490Y0680710D01*
X0301390Y0681090D01*
X0301330Y0681490D01*
X0301310Y0681880D01*
X0065960Y0029960D02*
X0073960Y0029960D01*
X0069960Y0025960D02*
X0069960Y0033960D01*
X0066060Y0029960D02*
X0066080Y0030350D01*
X0066140Y0030750D01*
X0066240Y0031130D01*
X0066380Y0031500D01*
X0066550Y0031850D01*
X0066760Y0032190D01*
X0067000Y0032500D01*
X0067270Y0032790D01*
X0067570Y0033040D01*
X0067900Y0033270D01*
X0068240Y0033460D01*
X0068610Y0033620D01*
X0068980Y0033740D01*
X0069370Y0033820D01*
X0069760Y0033850D01*
X0070160Y0033850D01*
X0070550Y0033820D01*
X0070940Y0033740D01*
X0071310Y0033620D01*
X0071680Y0033460D01*
X0072020Y0033270D01*
X0072350Y0033040D01*
X0072650Y0032790D01*
X0072920Y0032500D01*
X0073160Y0032190D01*
X0073370Y0031850D01*
X0073540Y0031500D01*
X0073680Y0031130D01*
X0073780Y0030750D01*
X0073840Y0030350D01*
X0073860Y0029960D01*
X0073840Y0029570D01*
X0073780Y0029170D01*
X0073680Y0028790D01*
X0073540Y0028420D01*
X0073370Y0028070D01*
X0073160Y0027730D01*
X0072920Y0027420D01*
X0072650Y0027130D01*
X0072350Y0026880D01*
X0072020Y0026650D01*
X0071680Y0026460D01*
X0071310Y0026300D01*
X0070940Y0026180D01*
X0070550Y0026100D01*
X0070160Y0026070D01*
X0069760Y0026070D01*
X0069370Y0026100D01*
X0068980Y0026180D01*
X0068610Y0026300D01*
X0068240Y0026460D01*
X0067900Y0026650D01*
X0067570Y0026880D01*
X0067270Y0027130D01*
X0067000Y0027420D01*
X0066760Y0027730D01*
X0066550Y0028070D01*
X0066380Y0028420D01*
X0066240Y0028790D01*
X0066140Y0029170D01*
X0066080Y0029570D01*
X0066060Y0029960D01*
X0068010Y0029960D02*
X0068030Y0030240D01*
X0068090Y0030520D01*
X0068190Y0030790D01*
X0068330Y0031040D01*
X0068510Y0031260D01*
X0068710Y0031460D01*
X0068940Y0031620D01*
X0069200Y0031750D01*
X0069470Y0031850D01*
X0069750Y0031900D01*
X0070030Y0031910D01*
X0070310Y0031880D01*
X0070590Y0031810D01*
X0070850Y0031690D01*
X0071090Y0031550D01*
X0071310Y0031360D01*
X0071500Y0031150D01*
X0071660Y0030910D01*
X0071780Y0030660D01*
X0071860Y0030380D01*
X0071900Y0030100D01*
X0071900Y0029820D01*
X0071860Y0029540D01*
X0071780Y0029260D01*
X0071660Y0029010D01*
X0071500Y0028770D01*
X0071310Y0028560D01*
X0071090Y0028370D01*
X0070850Y0028230D01*
X0070590Y0028110D01*
X0070310Y0028040D01*
X0070030Y0028010D01*
X0069750Y0028020D01*
X0069470Y0028070D01*
X0069200Y0028170D01*
X0068940Y0028300D01*
X0068710Y0028460D01*
X0068510Y0028660D01*
X0068330Y0028880D01*
X0068190Y0029130D01*
X0068090Y0029400D01*
X0068030Y0029680D01*
X0068010Y0029960D01*
X0065960Y0050040D02*
X0073960Y0050040D01*
X0069960Y0046040D02*
X0069960Y0054040D01*
X0066060Y0050040D02*
X0066080Y0050430D01*
X0066140Y0050830D01*
X0066240Y0051210D01*
X0066380Y0051580D01*
X0066550Y0051930D01*
X0066760Y0052270D01*
X0067000Y0052580D01*
X0067270Y0052870D01*
X0067570Y0053120D01*
X0067900Y0053350D01*
X0068240Y0053540D01*
X0068610Y0053700D01*
X0068980Y0053820D01*
X0069370Y0053900D01*
X0069760Y0053930D01*
X0070160Y0053930D01*
X0070550Y0053900D01*
X0070940Y0053820D01*
X0071310Y0053700D01*
X0071680Y0053540D01*
X0072020Y0053350D01*
X0072350Y0053120D01*
X0072650Y0052870D01*
X0072920Y0052580D01*
X0073160Y0052270D01*
X0073370Y0051930D01*
X0073540Y0051580D01*
X0073680Y0051210D01*
X0073780Y0050830D01*
X0073840Y0050430D01*
X0073860Y0050040D01*
X0073840Y0049650D01*
X0073780Y0049250D01*
X0073680Y0048870D01*
X0073540Y0048500D01*
X0073370Y0048150D01*
X0073160Y0047810D01*
X0072920Y0047500D01*
X0072650Y0047210D01*
X0072350Y0046960D01*
X0072020Y0046730D01*
X0071680Y0046540D01*
X0071310Y0046380D01*
X0070940Y0046260D01*
X0070550Y0046180D01*
X0070160Y0046150D01*
X0069760Y0046150D01*
X0069370Y0046180D01*
X0068980Y0046260D01*
X0068610Y0046380D01*
X0068240Y0046540D01*
X0067900Y0046730D01*
X0067570Y0046960D01*
X0067270Y0047210D01*
X0067000Y0047500D01*
X0066760Y0047810D01*
X0066550Y0048150D01*
X0066380Y0048500D01*
X0066240Y0048870D01*
X0066140Y0049250D01*
X0066080Y0049650D01*
X0066060Y0050040D01*
X0068010Y0050040D02*
X0068030Y0050320D01*
X0068090Y0050600D01*
X0068190Y0050870D01*
X0068330Y0051120D01*
X0068510Y0051340D01*
X0068710Y0051540D01*
X0068940Y0051700D01*
X0069200Y0051830D01*
X0069470Y0051930D01*
X0069750Y0051980D01*
X0070030Y0051990D01*
X0070310Y0051960D01*
X0070590Y0051890D01*
X0070850Y0051770D01*
X0071090Y0051630D01*
X0071310Y0051440D01*
X0071500Y0051230D01*
X0071660Y0050990D01*
X0071780Y0050740D01*
X0071860Y0050460D01*
X0071900Y0050180D01*
X0071900Y0049900D01*
X0071860Y0049620D01*
X0071780Y0049340D01*
X0071660Y0049090D01*
X0071500Y0048850D01*
X0071310Y0048640D01*
X0071090Y0048450D01*
X0070850Y0048310D01*
X0070590Y0048190D01*
X0070310Y0048120D01*
X0070030Y0048090D01*
X0069750Y0048100D01*
X0069470Y0048150D01*
X0069200Y0048250D01*
X0068940Y0048380D01*
X0068710Y0048540D01*
X0068510Y0048740D01*
X0068330Y0048960D01*
X0068190Y0049210D01*
X0068090Y0049480D01*
X0068030Y0049760D01*
X0068010Y0050040D01*
X0086040Y0050040D02*
X0094040Y0050040D01*
X0090040Y0046040D02*
X0090040Y0054040D01*
X0086140Y0050040D02*
X0086160Y0050430D01*
X0086220Y0050830D01*
X0086320Y0051210D01*
X0086460Y0051580D01*
X0086630Y0051930D01*
X0086840Y0052270D01*
X0087080Y0052580D01*
X0087350Y0052870D01*
X0087650Y0053120D01*
X0087980Y0053350D01*
X0088320Y0053540D01*
X0088690Y0053700D01*
X0089060Y0053820D01*
X0089450Y0053900D01*
X0089840Y0053930D01*
X0090240Y0053930D01*
X0090630Y0053900D01*
X0091020Y0053820D01*
X0091390Y0053700D01*
X0091760Y0053540D01*
X0092100Y0053350D01*
X0092430Y0053120D01*
X0092730Y0052870D01*
X0093000Y0052580D01*
X0093240Y0052270D01*
X0093450Y0051930D01*
X0093620Y0051580D01*
X0093760Y0051210D01*
X0093860Y0050830D01*
X0093920Y0050430D01*
X0093940Y0050040D01*
X0093920Y0049650D01*
X0093860Y0049250D01*
X0093760Y0048870D01*
X0093620Y0048500D01*
X0093450Y0048150D01*
X0093240Y0047810D01*
X0093000Y0047500D01*
X0092730Y0047210D01*
X0092430Y0046960D01*
X0092100Y0046730D01*
X0091760Y0046540D01*
X0091390Y0046380D01*
X0091020Y0046260D01*
X0090630Y0046180D01*
X0090240Y0046150D01*
X0089840Y0046150D01*
X0089450Y0046180D01*
X0089060Y0046260D01*
X0088690Y0046380D01*
X0088320Y0046540D01*
X0087980Y0046730D01*
X0087650Y0046960D01*
X0087350Y0047210D01*
X0087080Y0047500D01*
X0086840Y0047810D01*
X0086630Y0048150D01*
X0086460Y0048500D01*
X0086320Y0048870D01*
X0086220Y0049250D01*
X0086160Y0049650D01*
X0086140Y0050040D01*
X0088090Y0050040D02*
X0088110Y0050320D01*
X0088170Y0050600D01*
X0088270Y0050870D01*
X0088410Y0051120D01*
X0088590Y0051340D01*
X0088790Y0051540D01*
X0089020Y0051700D01*
X0089280Y0051830D01*
X0089550Y0051930D01*
X0089830Y0051980D01*
X0090110Y0051990D01*
X0090390Y0051960D01*
X0090670Y0051890D01*
X0090930Y0051770D01*
X0091170Y0051630D01*
X0091390Y0051440D01*
X0091580Y0051230D01*
X0091740Y0050990D01*
X0091860Y0050740D01*
X0091940Y0050460D01*
X0091980Y0050180D01*
X0091980Y0049900D01*
X0091940Y0049620D01*
X0091860Y0049340D01*
X0091740Y0049090D01*
X0091580Y0048850D01*
X0091390Y0048640D01*
X0091170Y0048450D01*
X0090930Y0048310D01*
X0090670Y0048190D01*
X0090390Y0048120D01*
X0090110Y0048090D01*
X0089830Y0048100D01*
X0089550Y0048150D01*
X0089280Y0048250D01*
X0089020Y0048380D01*
X0088790Y0048540D01*
X0088590Y0048740D01*
X0088410Y0048960D01*
X0088270Y0049210D01*
X0088170Y0049480D01*
X0088110Y0049760D01*
X0088090Y0050040D01*
X0086040Y0029960D02*
X0094040Y0029960D01*
X0090040Y0025960D02*
X0090040Y0033960D01*
X0086140Y0029960D02*
X0086160Y0030350D01*
X0086220Y0030750D01*
X0086320Y0031130D01*
X0086460Y0031500D01*
X0086630Y0031850D01*
X0086840Y0032190D01*
X0087080Y0032500D01*
X0087350Y0032790D01*
X0087650Y0033040D01*
X0087980Y0033270D01*
X0088320Y0033460D01*
X0088690Y0033620D01*
X0089060Y0033740D01*
X0089450Y0033820D01*
X0089840Y0033850D01*
X0090240Y0033850D01*
X0090630Y0033820D01*
X0091020Y0033740D01*
X0091390Y0033620D01*
X0091760Y0033460D01*
X0092100Y0033270D01*
X0092430Y0033040D01*
X0092730Y0032790D01*
X0093000Y0032500D01*
X0093240Y0032190D01*
X0093450Y0031850D01*
X0093620Y0031500D01*
X0093760Y0031130D01*
X0093860Y0030750D01*
X0093920Y0030350D01*
X0093940Y0029960D01*
X0093920Y0029570D01*
X0093860Y0029170D01*
X0093760Y0028790D01*
X0093620Y0028420D01*
X0093450Y0028070D01*
X0093240Y0027730D01*
X0093000Y0027420D01*
X0092730Y0027130D01*
X0092430Y0026880D01*
X0092100Y0026650D01*
X0091760Y0026460D01*
X0091390Y0026300D01*
X0091020Y0026180D01*
X0090630Y0026100D01*
X0090240Y0026070D01*
X0089840Y0026070D01*
X0089450Y0026100D01*
X0089060Y0026180D01*
X0088690Y0026300D01*
X0088320Y0026460D01*
X0087980Y0026650D01*
X0087650Y0026880D01*
X0087350Y0027130D01*
X0087080Y0027420D01*
X0086840Y0027730D01*
X0086630Y0028070D01*
X0086460Y0028420D01*
X0086320Y0028790D01*
X0086220Y0029170D01*
X0086160Y0029570D01*
X0086140Y0029960D01*
X0088090Y0029960D02*
X0088110Y0030240D01*
X0088170Y0030520D01*
X0088270Y0030790D01*
X0088410Y0031040D01*
X0088590Y0031260D01*
X0088790Y0031460D01*
X0089020Y0031620D01*
X0089280Y0031750D01*
X0089550Y0031850D01*
X0089830Y0031900D01*
X0090110Y0031910D01*
X0090390Y0031880D01*
X0090670Y0031810D01*
X0090930Y0031690D01*
X0091170Y0031550D01*
X0091390Y0031360D01*
X0091580Y0031150D01*
X0091740Y0030910D01*
X0091860Y0030660D01*
X0091940Y0030380D01*
X0091980Y0030100D01*
X0091980Y0029820D01*
X0091940Y0029540D01*
X0091860Y0029260D01*
X0091740Y0029010D01*
X0091580Y0028770D01*
X0091390Y0028560D01*
X0091170Y0028370D01*
X0090930Y0028230D01*
X0090670Y0028110D01*
X0090390Y0028040D01*
X0090110Y0028010D01*
X0089830Y0028020D01*
X0089550Y0028070D01*
X0089280Y0028170D01*
X0089020Y0028300D01*
X0088790Y0028460D01*
X0088590Y0028660D01*
X0088410Y0028880D01*
X0088270Y0029130D01*
X0088170Y0029400D01*
X0088110Y0029680D01*
X0088090Y0029960D01*
X0076000Y0040000D02*
X0084000Y0040000D01*
X0080000Y0036000D02*
X0080000Y0044000D01*
X0076100Y0040000D02*
X0076120Y0040390D01*
X0076180Y0040790D01*
X0076280Y0041170D01*
X0076420Y0041540D01*
X0076590Y0041890D01*
X0076800Y0042230D01*
X0077040Y0042540D01*
X0077310Y0042830D01*
X0077610Y0043080D01*
X0077940Y0043310D01*
X0078280Y0043500D01*
X0078650Y0043660D01*
X0079020Y0043780D01*
X0079410Y0043860D01*
X0079800Y0043890D01*
X0080200Y0043890D01*
X0080590Y0043860D01*
X0080980Y0043780D01*
X0081350Y0043660D01*
X0081720Y0043500D01*
X0082060Y0043310D01*
X0082390Y0043080D01*
X0082690Y0042830D01*
X0082960Y0042540D01*
X0083200Y0042230D01*
X0083410Y0041890D01*
X0083580Y0041540D01*
X0083720Y0041170D01*
X0083820Y0040790D01*
X0083880Y0040390D01*
X0083900Y0040000D01*
X0083880Y0039610D01*
X0083820Y0039210D01*
X0083720Y0038830D01*
X0083580Y0038460D01*
X0083410Y0038110D01*
X0083200Y0037770D01*
X0082960Y0037460D01*
X0082690Y0037170D01*
X0082390Y0036920D01*
X0082060Y0036690D01*
X0081720Y0036500D01*
X0081350Y0036340D01*
X0080980Y0036220D01*
X0080590Y0036140D01*
X0080200Y0036110D01*
X0079800Y0036110D01*
X0079410Y0036140D01*
X0079020Y0036220D01*
X0078650Y0036340D01*
X0078280Y0036500D01*
X0077940Y0036690D01*
X0077610Y0036920D01*
X0077310Y0037170D01*
X0077040Y0037460D01*
X0076800Y0037770D01*
X0076590Y0038110D01*
X0076420Y0038460D01*
X0076280Y0038830D01*
X0076180Y0039210D01*
X0076120Y0039610D01*
X0076100Y0040000D01*
X0078050Y0040000D02*
X0078070Y0040280D01*
X0078130Y0040560D01*
X0078230Y0040830D01*
X0078370Y0041080D01*
X0078550Y0041300D01*
X0078750Y0041500D01*
X0078980Y0041660D01*
X0079240Y0041790D01*
X0079510Y0041890D01*
X0079790Y0041940D01*
X0080070Y0041950D01*
X0080350Y0041920D01*
X0080630Y0041850D01*
X0080890Y0041730D01*
X0081130Y0041590D01*
X0081350Y0041400D01*
X0081540Y0041190D01*
X0081700Y0040950D01*
X0081820Y0040700D01*
X0081900Y0040420D01*
X0081940Y0040140D01*
X0081940Y0039860D01*
X0081900Y0039580D01*
X0081820Y0039300D01*
X0081700Y0039050D01*
X0081540Y0038810D01*
X0081350Y0038600D01*
X0081130Y0038410D01*
X0080890Y0038270D01*
X0080630Y0038150D01*
X0080350Y0038080D01*
X0080070Y0038050D01*
X0079790Y0038060D01*
X0079510Y0038110D01*
X0079240Y0038210D01*
X0078980Y0038340D01*
X0078750Y0038500D01*
X0078550Y0038700D01*
X0078370Y0038920D01*
X0078230Y0039170D01*
X0078130Y0039440D01*
X0078070Y0039720D01*
X0078050Y0040000D01*
X0260600Y0427570D02*
X0268600Y0427570D01*
X0264600Y0431570D01*
X0264600Y0423570D01*
X0260600Y0427570D01*
X0260600Y0451190D02*
X0268600Y0451190D01*
X0264600Y0455190D01*
X0264600Y0447190D01*
X0260600Y0451190D01*
X0242100Y0439380D02*
X0250100Y0439380D01*
X0246100Y0443380D01*
X0246100Y0435380D01*
X0242100Y0439380D01*
X0326000Y0440000D02*
X0334000Y0440000D01*
X0330000Y0436000D02*
X0330000Y0444000D01*
X0326100Y0443900D02*
X0333900Y0443900D01*
X0333900Y0436100D01*
X0326100Y0436100D01*
X0326100Y0443900D01*
X0326000Y0070000D02*
X0334000Y0070000D01*
X0330000Y0066000D02*
X0330000Y0074000D01*
X0326100Y0073900D02*
X0333900Y0073900D01*
X0333900Y0066100D01*
X0326100Y0066100D01*
X0326100Y0073900D01*
X0036000Y0070000D02*
X0044000Y0070000D01*
X0040000Y0066000D02*
X0040000Y0074000D01*
X0036100Y0073900D02*
X0043900Y0073900D01*
X0043900Y0066100D01*
X0036100Y0066100D01*
X0036100Y0073900D01*
X0036000Y0440000D02*
X0044000Y0440000D01*
X0040000Y0436000D02*
X0040000Y0444000D01*
X0036100Y0443900D02*
X0043900Y0443900D01*
X0043900Y0436100D01*
X0036100Y0436100D01*
X0036100Y0443900D01*
X0010000Y0010000D02*
X0360000Y0010000D01*
X0360000Y0882500D01*
X0010000Y0882500D01*
X0010000Y0010000D01*
X0406000Y0013500D02*
X0414000Y0013500D01*
X0410000Y0009500D02*
X0410000Y0017500D01*
X0406100Y0017400D02*
X0413900Y0017400D01*
X0413900Y0009600D01*
X0406100Y0009600D01*
X0406100Y0017400D01*
X0421500Y0010000D02*
X0420500Y0011000D01*
X0424500Y0015000D01*
X0424500Y0011000D01*
X0423500Y0010000D01*
X0421500Y0010000D01*
X0420500Y0011000D02*
X0420500Y0015000D01*
X0421500Y0016000D01*
X0423500Y0016000D01*
X0424500Y0015000D01*
X0428000Y0011000D02*
X0429000Y0011000D01*
X0429000Y0010000D01*
X0428000Y0010000D01*
X0428000Y0011000D01*
X0433500Y0015000D02*
X0434500Y0016000D01*
X0434500Y0010000D01*
X0433500Y0010000D02*
X0435500Y0010000D01*
X0438500Y0011000D02*
X0439500Y0010000D01*
X0441500Y0010000D01*
X0442500Y0011000D01*
X0442500Y0012000D01*
X0441500Y0013000D01*
X0440500Y0013000D01*
X0441500Y0013000D02*
X0442500Y0014000D01*
X0442500Y0015000D01*
X0441500Y0016000D01*
X0439500Y0016000D01*
X0438500Y0015000D01*
X0445500Y0010000D02*
X0444500Y0011000D01*
X0448500Y0015000D01*
X0448500Y0011000D01*
X0447500Y0010000D01*
X0445500Y0010000D01*
X0444500Y0011000D02*
X0444500Y0015000D01*
X0445500Y0016000D01*
X0447500Y0016000D01*
X0448500Y0015000D01*
X0454000Y0015000D02*
X0453000Y0014000D01*
X0454000Y0015000D02*
X0454000Y0017000D01*
X0452000Y0017000D02*
X0452000Y0015000D01*
X0451000Y0014000D01*
X0406000Y0024000D02*
X0414000Y0024000D01*
X0410000Y0028000D01*
X0410000Y0020000D01*
X0406000Y0024000D01*
X0421500Y0020500D02*
X0420500Y0021500D01*
X0424500Y0025500D01*
X0424500Y0021500D01*
X0423500Y0020500D01*
X0421500Y0020500D01*
X0420500Y0021500D02*
X0420500Y0025500D01*
X0421500Y0026500D01*
X0423500Y0026500D01*
X0424500Y0025500D01*
X0428000Y0021500D02*
X0429000Y0021500D01*
X0429000Y0020500D01*
X0428000Y0020500D01*
X0428000Y0021500D01*
X0433500Y0025500D02*
X0434500Y0026500D01*
X0434500Y0020500D01*
X0433500Y0020500D02*
X0435500Y0020500D01*
X0439500Y0025500D02*
X0440500Y0026500D01*
X0440500Y0020500D01*
X0439500Y0020500D02*
X0441500Y0020500D01*
X0444500Y0021500D02*
X0444500Y0022500D01*
X0445500Y0023500D01*
X0447500Y0023500D01*
X0448500Y0022500D01*
X0448500Y0021500D01*
X0447500Y0020500D01*
X0445500Y0020500D01*
X0444500Y0021500D01*
X0445500Y0023500D02*
X0444500Y0024500D01*
X0444500Y0025500D01*
X0445500Y0026500D01*
X0447500Y0026500D01*
X0448500Y0025500D01*
X0448500Y0024500D01*
X0447500Y0023500D01*
X0454000Y0025500D02*
X0453000Y0024500D01*
X0454000Y0025500D02*
X0454000Y0027500D01*
X0452000Y0027500D02*
X0452000Y0025500D01*
X0451000Y0024500D01*
X0406000Y0034500D02*
X0414000Y0034500D01*
X0410000Y0030500D02*
X0410000Y0038500D01*
X0406100Y0034500D02*
X0406120Y0034890D01*
X0406180Y0035290D01*
X0406280Y0035670D01*
X0406420Y0036040D01*
X0406590Y0036390D01*
X0406800Y0036730D01*
X0407040Y0037040D01*
X0407310Y0037330D01*
X0407610Y0037580D01*
X0407940Y0037810D01*
X0408280Y0038000D01*
X0408650Y0038160D01*
X0409020Y0038280D01*
X0409410Y0038360D01*
X0409800Y0038390D01*
X0410200Y0038390D01*
X0410590Y0038360D01*
X0410980Y0038280D01*
X0411350Y0038160D01*
X0411720Y0038000D01*
X0412060Y0037810D01*
X0412390Y0037580D01*
X0412690Y0037330D01*
X0412960Y0037040D01*
X0413200Y0036730D01*
X0413410Y0036390D01*
X0413580Y0036040D01*
X0413720Y0035670D01*
X0413820Y0035290D01*
X0413880Y0034890D01*
X0413900Y0034500D01*
X0413880Y0034110D01*
X0413820Y0033710D01*
X0413720Y0033330D01*
X0413580Y0032960D01*
X0413410Y0032610D01*
X0413200Y0032270D01*
X0412960Y0031960D01*
X0412690Y0031670D01*
X0412390Y0031420D01*
X0412060Y0031190D01*
X0411720Y0031000D01*
X0411350Y0030840D01*
X0410980Y0030720D01*
X0410590Y0030640D01*
X0410200Y0030610D01*
X0409800Y0030610D01*
X0409410Y0030640D01*
X0409020Y0030720D01*
X0408650Y0030840D01*
X0408280Y0031000D01*
X0407940Y0031190D01*
X0407610Y0031420D01*
X0407310Y0031670D01*
X0407040Y0031960D01*
X0406800Y0032270D01*
X0406590Y0032610D01*
X0406420Y0032960D01*
X0406280Y0033330D01*
X0406180Y0033710D01*
X0406120Y0034110D01*
X0406100Y0034500D01*
X0408050Y0034500D02*
X0408070Y0034780D01*
X0408130Y0035060D01*
X0408230Y0035330D01*
X0408370Y0035580D01*
X0408550Y0035800D01*
X0408750Y0036000D01*
X0408980Y0036160D01*
X0409240Y0036290D01*
X0409510Y0036390D01*
X0409790Y0036440D01*
X0410070Y0036450D01*
X0410350Y0036420D01*
X0410630Y0036350D01*
X0410890Y0036230D01*
X0411130Y0036090D01*
X0411350Y0035900D01*
X0411540Y0035690D01*
X0411700Y0035450D01*
X0411820Y0035200D01*
X0411900Y0034920D01*
X0411940Y0034640D01*
X0411940Y0034360D01*
X0411900Y0034080D01*
X0411820Y0033800D01*
X0411700Y0033550D01*
X0411540Y0033310D01*
X0411350Y0033100D01*
X0411130Y0032910D01*
X0410890Y0032770D01*
X0410630Y0032650D01*
X0410350Y0032580D01*
X0410070Y0032550D01*
X0409790Y0032560D01*
X0409510Y0032610D01*
X0409240Y0032710D01*
X0408980Y0032840D01*
X0408750Y0033000D01*
X0408550Y0033200D01*
X0408370Y0033420D01*
X0408230Y0033670D01*
X0408130Y0033940D01*
X0408070Y0034220D01*
X0408050Y0034500D01*
X0421500Y0031000D02*
X0420500Y0032000D01*
X0424500Y0036000D01*
X0424500Y0032000D01*
X0423500Y0031000D01*
X0421500Y0031000D01*
X0420500Y0032000D02*
X0420500Y0036000D01*
X0421500Y0037000D01*
X0423500Y0037000D01*
X0424500Y0036000D01*
X0428000Y0032000D02*
X0429000Y0032000D01*
X0429000Y0031000D01*
X0428000Y0031000D01*
X0428000Y0032000D01*
X0433500Y0031000D02*
X0432500Y0032000D01*
X0436500Y0036000D01*
X0436500Y0032000D01*
X0435500Y0031000D01*
X0433500Y0031000D01*
X0432500Y0032000D02*
X0432500Y0036000D01*
X0433500Y0037000D01*
X0435500Y0037000D01*
X0436500Y0036000D01*
X0438500Y0034000D02*
X0438500Y0032000D01*
X0439500Y0031000D01*
X0441500Y0031000D01*
X0442500Y0032000D01*
X0442500Y0033000D01*
X0441500Y0034000D01*
X0438500Y0034000D01*
X0440500Y0036000D01*
X0442500Y0037000D01*
X0445500Y0036000D02*
X0446500Y0037000D01*
X0446500Y0031000D01*
X0445500Y0031000D02*
X0447500Y0031000D01*
X0454000Y0036000D02*
X0453000Y0035000D01*
X0454000Y0036000D02*
X0454000Y0038000D01*
X0452000Y0038000D02*
X0452000Y0036000D01*
X0451000Y0035000D01*
X0406000Y0045000D02*
X0414000Y0045000D01*
X0410000Y0041000D02*
X0410000Y0049000D01*
X0406100Y0045000D02*
X0406120Y0045390D01*
X0406180Y0045790D01*
X0406280Y0046170D01*
X0406420Y0046540D01*
X0406590Y0046890D01*
X0406800Y0047230D01*
X0407040Y0047540D01*
X0407310Y0047830D01*
X0407610Y0048080D01*
X0407940Y0048310D01*
X0408280Y0048500D01*
X0408650Y0048660D01*
X0409020Y0048780D01*
X0409410Y0048860D01*
X0409800Y0048890D01*
X0410200Y0048890D01*
X0410590Y0048860D01*
X0410980Y0048780D01*
X0411350Y0048660D01*
X0411720Y0048500D01*
X0412060Y0048310D01*
X0412390Y0048080D01*
X0412690Y0047830D01*
X0412960Y0047540D01*
X0413200Y0047230D01*
X0413410Y0046890D01*
X0413580Y0046540D01*
X0413720Y0046170D01*
X0413820Y0045790D01*
X0413880Y0045390D01*
X0413900Y0045000D01*
X0413880Y0044610D01*
X0413820Y0044210D01*
X0413720Y0043830D01*
X0413580Y0043460D01*
X0413410Y0043110D01*
X0413200Y0042770D01*
X0412960Y0042460D01*
X0412690Y0042170D01*
X0412390Y0041920D01*
X0412060Y0041690D01*
X0411720Y0041500D01*
X0411350Y0041340D01*
X0410980Y0041220D01*
X0410590Y0041140D01*
X0410200Y0041110D01*
X0409800Y0041110D01*
X0409410Y0041140D01*
X0409020Y0041220D01*
X0408650Y0041340D01*
X0408280Y0041500D01*
X0407940Y0041690D01*
X0407610Y0041920D01*
X0407310Y0042170D01*
X0407040Y0042460D01*
X0406800Y0042770D01*
X0406590Y0043110D01*
X0406420Y0043460D01*
X0406280Y0043830D01*
X0406180Y0044210D01*
X0406120Y0044610D01*
X0406100Y0045000D01*
X0421500Y0041500D02*
X0420500Y0042500D01*
X0424500Y0046500D01*
X0424500Y0042500D01*
X0423500Y0041500D01*
X0421500Y0041500D01*
X0420500Y0042500D02*
X0420500Y0046500D01*
X0421500Y0047500D01*
X0423500Y0047500D01*
X0424500Y0046500D01*
X0428000Y0042500D02*
X0429000Y0042500D01*
X0429000Y0041500D01*
X0428000Y0041500D01*
X0428000Y0042500D01*
X0433500Y0041500D02*
X0432500Y0042500D01*
X0436500Y0046500D01*
X0436500Y0042500D01*
X0435500Y0041500D01*
X0433500Y0041500D01*
X0432500Y0042500D02*
X0432500Y0046500D01*
X0433500Y0047500D01*
X0435500Y0047500D01*
X0436500Y0046500D01*
X0438500Y0044500D02*
X0442500Y0044500D01*
X0441500Y0041500D02*
X0441500Y0047500D01*
X0438500Y0044500D01*
X0444500Y0047500D02*
X0448500Y0047500D01*
X0448500Y0046500D01*
X0444500Y0042500D01*
X0444500Y0041500D01*
X0454000Y0046500D02*
X0453000Y0045500D01*
X0454000Y0046500D02*
X0454000Y0048500D01*
X0452000Y0048500D02*
X0452000Y0046500D01*
X0451000Y0045500D01*
X0410000Y0055500D02*
X0414000Y0055500D01*
X0410000Y0055500D02*
X0406000Y0059500D01*
X0406000Y0051500D01*
X0410000Y0055500D01*
X0421500Y0052000D02*
X0420500Y0053000D01*
X0424500Y0057000D01*
X0424500Y0053000D01*
X0423500Y0052000D01*
X0421500Y0052000D01*
X0420500Y0053000D02*
X0420500Y0057000D01*
X0421500Y0058000D01*
X0423500Y0058000D01*
X0424500Y0057000D01*
X0428000Y0053000D02*
X0429000Y0053000D01*
X0429000Y0052000D01*
X0428000Y0052000D01*
X0428000Y0053000D01*
X0433500Y0052000D02*
X0432500Y0053000D01*
X0436500Y0057000D01*
X0436500Y0053000D01*
X0435500Y0052000D01*
X0433500Y0052000D01*
X0432500Y0053000D02*
X0432500Y0057000D01*
X0433500Y0058000D01*
X0435500Y0058000D01*
X0436500Y0057000D01*
X0438500Y0055000D02*
X0442500Y0055000D01*
X0441500Y0052000D02*
X0441500Y0058000D01*
X0438500Y0055000D01*
X0444500Y0052000D02*
X0448500Y0056000D01*
X0448500Y0057000D01*
X0447500Y0058000D01*
X0445500Y0058000D01*
X0444500Y0057000D01*
X0444500Y0052000D02*
X0448500Y0052000D01*
X0454000Y0057000D02*
X0453000Y0056000D01*
X0454000Y0057000D02*
X0454000Y0059000D01*
X0452000Y0059000D02*
X0452000Y0057000D01*
X0451000Y0056000D01*
X0410000Y0066000D02*
X0406000Y0066000D01*
X0410000Y0066000D02*
X0414000Y0070000D01*
X0414000Y0062000D01*
X0410000Y0066000D01*
X0421500Y0062500D02*
X0420500Y0063500D01*
X0424500Y0067500D01*
X0424500Y0063500D01*
X0423500Y0062500D01*
X0421500Y0062500D01*
X0420500Y0063500D02*
X0420500Y0067500D01*
X0421500Y0068500D01*
X0423500Y0068500D01*
X0424500Y0067500D01*
X0428000Y0063500D02*
X0429000Y0063500D01*
X0429000Y0062500D01*
X0428000Y0062500D01*
X0428000Y0063500D01*
X0433500Y0062500D02*
X0432500Y0063500D01*
X0436500Y0067500D01*
X0436500Y0063500D01*
X0435500Y0062500D01*
X0433500Y0062500D01*
X0432500Y0063500D02*
X0432500Y0067500D01*
X0433500Y0068500D01*
X0435500Y0068500D01*
X0436500Y0067500D01*
X0438500Y0063500D02*
X0439500Y0062500D01*
X0441500Y0062500D01*
X0442500Y0063500D01*
X0442500Y0064500D01*
X0441500Y0065500D01*
X0440500Y0065500D01*
X0441500Y0065500D02*
X0442500Y0066500D01*
X0442500Y0067500D01*
X0441500Y0068500D01*
X0439500Y0068500D01*
X0438500Y0067500D01*
X0444500Y0062500D02*
X0448500Y0066500D01*
X0448500Y0067500D01*
X0447500Y0068500D01*
X0445500Y0068500D01*
X0444500Y0067500D01*
X0444500Y0062500D02*
X0448500Y0062500D01*
X0454000Y0067500D02*
X0453000Y0066500D01*
X0454000Y0067500D02*
X0454000Y0069500D01*
X0452000Y0069500D02*
X0452000Y0067500D01*
X0451000Y0066500D01*
X0406000Y0072500D02*
X0414000Y0080500D01*
X0414000Y0072500D02*
X0406000Y0080500D01*
X0406000Y0076500D02*
X0414000Y0076500D01*
X0421500Y0073000D02*
X0420500Y0074000D01*
X0424500Y0078000D01*
X0424500Y0074000D01*
X0423500Y0073000D01*
X0421500Y0073000D01*
X0420500Y0074000D02*
X0420500Y0078000D01*
X0421500Y0079000D01*
X0423500Y0079000D01*
X0424500Y0078000D01*
X0428000Y0074000D02*
X0429000Y0074000D01*
X0429000Y0073000D01*
X0428000Y0073000D01*
X0428000Y0074000D01*
X0433500Y0073000D02*
X0432500Y0074000D01*
X0436500Y0078000D01*
X0436500Y0074000D01*
X0435500Y0073000D01*
X0433500Y0073000D01*
X0432500Y0074000D02*
X0432500Y0078000D01*
X0433500Y0079000D01*
X0435500Y0079000D01*
X0436500Y0078000D01*
X0438500Y0073000D02*
X0442500Y0077000D01*
X0442500Y0078000D01*
X0441500Y0079000D01*
X0439500Y0079000D01*
X0438500Y0078000D01*
X0438500Y0073000D02*
X0442500Y0073000D01*
X0444500Y0073000D02*
X0448500Y0077000D01*
X0448500Y0078000D01*
X0447500Y0079000D01*
X0445500Y0079000D01*
X0444500Y0078000D01*
X0444500Y0073000D02*
X0448500Y0073000D01*
X0454000Y0078000D02*
X0453000Y0077000D01*
X0454000Y0078000D02*
X0454000Y0080000D01*
X0452000Y0080000D02*
X0452000Y0078000D01*
X0451000Y0077000D01*
X0010000Y0895000D02*
X0010000Y0910000D01*
X0017500Y0906250D02*
X0010000Y0902500D01*
X0017500Y0898750D01*
X0010000Y0902500D02*
X0022500Y0902500D01*
X0360000Y0910000D02*
X0360000Y0895000D01*
X0352500Y0898750D02*
X0360000Y0902500D01*
X0352500Y0906250D01*
X0360000Y0902500D02*
X0347500Y0902500D01*
X0372500Y0882500D02*
X0387500Y0882500D01*
X0383750Y0875000D02*
X0380000Y0882500D01*
X0376250Y0875000D01*
X0380000Y0882500D02*
X0380000Y0870000D01*
X0387500Y0010000D02*
X0372500Y0010000D01*
X0376250Y0017500D02*
X0380000Y0010000D01*
X0383750Y0017500D01*
X0380000Y0010000D02*
X0380000Y0022500D01*
X0178000Y0900000D02*
X0179000Y0899000D01*
X0181000Y0899000D01*
X0182000Y0900000D01*
X0182000Y0901000D01*
X0181000Y0902000D01*
X0180000Y0902000D01*
X0181000Y0902000D02*
X0182000Y0903000D01*
X0182000Y0904000D01*
X0181000Y0905000D01*
X0179000Y0905000D01*
X0178000Y0904000D01*
X0185500Y0900000D02*
X0186500Y0900000D01*
X0186500Y0899000D01*
X0185500Y0899000D01*
X0185500Y0900000D01*
X0190000Y0902000D02*
X0192000Y0903000D01*
X0193000Y0903000D01*
X0194000Y0902000D01*
X0194000Y0900000D01*
X0193000Y0899000D01*
X0191000Y0899000D01*
X0190000Y0900000D01*
X0190000Y0902000D02*
X0190000Y0905000D01*
X0194000Y0905000D01*
X0197000Y0899000D02*
X0196000Y0900000D01*
X0200000Y0904000D01*
X0200000Y0900000D01*
X0199000Y0899000D01*
X0197000Y0899000D01*
X0196000Y0900000D02*
X0196000Y0904000D01*
X0197000Y0905000D01*
X0199000Y0905000D01*
X0200000Y0904000D01*
X0203000Y0899000D02*
X0202000Y0900000D01*
X0206000Y0904000D01*
X0206000Y0900000D01*
X0205000Y0899000D01*
X0203000Y0899000D01*
X0202000Y0900000D02*
X0202000Y0904000D01*
X0203000Y0905000D01*
X0205000Y0905000D01*
X0206000Y0904000D01*
X0211500Y0904000D02*
X0210500Y0903000D01*
X0211500Y0904000D02*
X0211500Y0906000D01*
X0209500Y0906000D02*
X0209500Y0904000D01*
X0208500Y0903000D01*
X0010000Y0902500D02*
X0167500Y0902500D01*
X0222500Y0902500D02*
X0360000Y0902500D01*
X0377500Y0473250D02*
X0378500Y0473250D01*
X0379500Y0472250D01*
X0379500Y0470250D01*
X0378500Y0469250D01*
X0377500Y0469250D01*
X0376500Y0470250D01*
X0376500Y0472250D01*
X0377500Y0473250D01*
X0379500Y0472250D02*
X0380500Y0473250D01*
X0381500Y0473250D01*
X0382500Y0472250D01*
X0382500Y0470250D01*
X0381500Y0469250D01*
X0380500Y0469250D01*
X0379500Y0470250D01*
X0377500Y0465750D02*
X0377500Y0464750D01*
X0376500Y0464750D01*
X0376500Y0465750D01*
X0377500Y0465750D01*
X0382500Y0461250D02*
X0382500Y0457250D01*
X0381500Y0457250D01*
X0377500Y0461250D01*
X0376500Y0461250D01*
X0376500Y0455250D02*
X0380500Y0451250D01*
X0381500Y0451250D01*
X0382500Y0452250D01*
X0382500Y0454250D01*
X0381500Y0455250D01*
X0376500Y0455250D02*
X0376500Y0451250D01*
X0379500Y0449250D02*
X0380500Y0447250D01*
X0380500Y0446250D01*
X0379500Y0445250D01*
X0377500Y0445250D01*
X0376500Y0446250D01*
X0376500Y0448250D01*
X0377500Y0449250D01*
X0379500Y0449250D02*
X0382500Y0449250D01*
X0382500Y0445250D01*
X0381500Y0439750D02*
X0380500Y0440750D01*
X0381500Y0439750D02*
X0383500Y0439750D01*
X0383500Y0441750D02*
X0381500Y0441750D01*
X0380500Y0442750D01*
X0380000Y0882500D02*
X0380000Y0483750D01*
X0380000Y0428750D02*
X0380000Y0010000D01*
M02*
