G75*
G70*
%OFA0B0*%
%FSLAX25Y25*%
%IPPOS*%
%LPD*%
%AMOC8*
5,1,8,0,0,1.08239X$1,22.5*
%
%ADD147R,0.05520X0.03950*%
%ADD199C,0.09000*%
%ADD215C,0.07400*%
%ADD266R,0.05130X0.04740*%
%ADD27OC8,0.06000*%
%ADD30C,0.13800*%
%ADD353C,0.06800*%
%ADD357R,0.08200X0.08200*%
%ADD409R,0.07100X0.06310*%
%ADD441C,0.17800*%
%ADD447R,0.05800X0.03300*%
%ADD46C,0.08200*%
%ADD480C,0.07000*%
%ADD555R,0.50800X0.07800*%
%ADD562R,0.06710X0.03950*%
%ADD650C,0.05520*%
%ADD654R,0.08280X0.06310*%
%ADD66R,0.04740X0.06310*%
%ADD686R,0.03200X0.09500*%
%ADD687R,0.06310X0.04740*%
%ADD69R,0.16800X0.06800*%
%ADD714C,0.07300*%
%ADD716R,0.03950X0.05520*%
%ADD740R,0.04760X0.04760*%
%ADD774R,0.10250X0.10250*%
%ADD789OC8,0.08200*%
%ADD837C,0.09660*%
%ADD857C,0.04370*%
%ADD916C,0.04760*%
%ADD930R,0.06310X0.07890*%
%ADD934OC8,0.07400*%
X0020000Y0020000D02*
G75*
%LPD*%
D147*
X0063400Y0091560D03*
X0063400Y0098650D03*
X0295000Y0065850D03*
X0295000Y0058760D03*
X0301500Y0058760D03*
X0301500Y0065850D03*
X0308000Y0065850D03*
X0308000Y0058760D03*
D409*
X0075600Y0091590D03*
X0075600Y0102610D03*
D266*
X0086960Y0091600D03*
X0093650Y0091600D03*
D774*
X0069960Y0029960D03*
X0069960Y0050040D03*
X0090040Y0050040D03*
X0090040Y0029960D03*
D837*
X0080000Y0040000D03*
D716*
X0144010Y0168600D03*
X0151100Y0168600D03*
X0169910Y0167700D03*
X0177000Y0167700D03*
X0147050Y0206300D03*
X0139960Y0206300D03*
X0169160Y0388800D03*
X0169160Y0395300D03*
X0176250Y0395300D03*
X0176250Y0388800D03*
D650*
X0160000Y0053860D03*
X0160000Y0026300D03*
D66*
X0061390Y0135220D03*
X0057650Y0143880D03*
X0053910Y0135220D03*
D199*
X0251220Y0037850D03*
X0278780Y0037850D03*
D480*
X0274840Y0028000D03*
X0255160Y0028000D03*
D353*
X0198900Y0209300D02*
X0198900Y0215300D01*
X0188900Y0214300D02*
X0188900Y0208300D01*
X0178900Y0209300D02*
X0178900Y0215300D01*
X0168900Y0214300D02*
X0168900Y0208300D01*
X0158900Y0209300D02*
X0158900Y0215300D01*
D441*
X0264600Y0427570D03*
X0264600Y0451190D03*
X0246100Y0439380D03*
D215*
X0306500Y0043820D03*
X0318500Y0043820D03*
X0323500Y0036190D03*
D934*
X0312500Y0036190D03*
D714*
X0224840Y0035000D03*
X0215000Y0035000D03*
X0205160Y0035000D03*
X0205160Y0059610D03*
X0224840Y0059610D03*
D30*
X0330000Y0070000D03*
X0330000Y0440000D03*
X0040000Y0440000D03*
X0040000Y0070000D03*
D46*
X0139300Y0153900D03*
X0149300Y0154900D03*
X0159300Y0153900D03*
X0030000Y0280000D03*
X0030000Y0360000D03*
X0340000Y0360000D03*
X0339900Y0280100D03*
D27*
X0193000Y0320000D03*
X0163000Y0320000D03*
D857*
X0153200Y0426500D03*
X0153200Y0430700D03*
X0153300Y0435200D03*
X0159000Y0433400D03*
X0158900Y0428400D03*
X0163700Y0428400D03*
X0168400Y0428400D03*
X0168400Y0433400D03*
X0163700Y0433500D03*
X0160300Y0448000D03*
X0164100Y0451000D03*
X0175200Y0430900D03*
X0175200Y0426500D03*
X0270000Y0140000D03*
X0270000Y0135000D03*
X0270000Y0130000D03*
X0270000Y0125000D03*
X0270000Y0120000D03*
X0275000Y0120000D03*
X0275000Y0125000D03*
X0275000Y0130000D03*
X0275000Y0135000D03*
X0275000Y0140000D03*
X0280000Y0140000D03*
X0280000Y0135000D03*
X0280000Y0130000D03*
X0280000Y0125000D03*
X0280000Y0120000D03*
X0126000Y0104000D03*
X0126000Y0099000D03*
X0126000Y0094000D03*
X0126000Y0089000D03*
X0126000Y0084000D03*
X0126000Y0079000D03*
X0126000Y0074000D03*
X0123000Y0071000D03*
X0118000Y0069000D03*
X0118000Y0064000D03*
X0118000Y0059000D03*
X0118000Y0054000D03*
X0116000Y0049000D03*
X0116000Y0044000D03*
X0113000Y0040000D03*
X0109000Y0036000D03*
X0104000Y0036000D03*
X0099000Y0036000D03*
X0099000Y0046000D03*
X0104000Y0056000D03*
X0104000Y0061000D03*
X0104000Y0067000D03*
X0110000Y0080000D03*
X0114000Y0079000D03*
X0117000Y0083000D03*
X0117000Y0088000D03*
X0117000Y0093000D03*
X0117000Y0098000D03*
X0111000Y0100000D03*
X0108000Y0104000D03*
X0108000Y0109000D03*
X0108000Y0114000D03*
X0111000Y0118000D03*
X0116000Y0118000D03*
X0121000Y0118000D03*
X0125000Y0114000D03*
X0125000Y0109000D03*
D916*
X0140800Y0114700D03*
X0138900Y0076400D03*
X0169350Y0078050D03*
X0190050Y0107000D03*
X0193650Y0099800D03*
X0180450Y0114650D03*
X0206700Y0137900D03*
X0211800Y0137750D03*
X0206850Y0143300D03*
X0204150Y0175550D03*
X0202650Y0192650D03*
X0182700Y0197900D03*
X0175350Y0189050D03*
X0171450Y0184850D03*
X0169500Y0180050D03*
X0181350Y0176000D03*
X0158700Y0168750D03*
X0133350Y0181400D03*
X0153150Y0203300D03*
X0129600Y0225000D03*
X0088650Y0210500D03*
X0079650Y0200450D03*
X0072500Y0186250D03*
X0079650Y0158700D03*
X0088650Y0136950D03*
X0057450Y0153950D03*
X0063900Y0080500D03*
X0172900Y0246300D03*
X0176200Y0252300D03*
X0175000Y0235000D03*
X0214800Y0239600D03*
X0213000Y0251400D03*
X0230000Y0225000D03*
X0255000Y0225000D03*
X0255000Y0220000D03*
X0255000Y0215000D03*
X0255000Y0210000D03*
X0255000Y0205000D03*
X0255000Y0200000D03*
X0260000Y0200000D03*
X0260000Y0205000D03*
X0260000Y0210000D03*
X0260000Y0215000D03*
X0260000Y0220000D03*
X0260000Y0225000D03*
X0260000Y0230000D03*
X0255000Y0230000D03*
X0265000Y0230000D03*
X0265000Y0225000D03*
X0265000Y0220000D03*
X0270000Y0220000D03*
X0275000Y0220000D03*
X0275000Y0225000D03*
X0270000Y0225000D03*
X0270000Y0230000D03*
X0275000Y0230000D03*
X0280000Y0230000D03*
X0280000Y0225000D03*
X0280000Y0220000D03*
X0285000Y0220000D03*
X0290000Y0220000D03*
X0290000Y0215000D03*
X0290000Y0210000D03*
X0290000Y0205000D03*
X0290000Y0200000D03*
X0295000Y0200000D03*
X0295000Y0205000D03*
X0295000Y0210000D03*
X0295000Y0215000D03*
X0295000Y0220000D03*
X0295000Y0225000D03*
X0290000Y0225000D03*
X0285000Y0225000D03*
X0285000Y0230000D03*
X0290000Y0230000D03*
X0295000Y0230000D03*
X0272250Y0159800D03*
X0309050Y0079250D03*
X0285230Y0058180D03*
X0180450Y0031400D03*
X0163400Y0388800D03*
X0163300Y0396000D03*
X0145700Y0434200D03*
X0173500Y0449900D03*
X0020000Y0482500D02*
G75*
%LPD*%
D687*
X0206120Y0571660D03*
X0206120Y0579140D03*
X0206120Y0588310D03*
X0206120Y0595790D03*
X0214780Y0592050D03*
X0214780Y0575400D03*
D716*
X0222410Y0575300D03*
X0229490Y0575300D03*
X0228790Y0592100D03*
X0221710Y0592100D03*
X0176440Y0647150D03*
X0169360Y0647150D03*
X0106790Y0679200D03*
X0099710Y0679200D03*
X0210210Y0768500D03*
X0217290Y0768500D03*
X0248110Y0740500D03*
X0255190Y0740500D03*
X0222740Y0815700D03*
X0215660Y0815700D03*
D147*
X0208500Y0807490D03*
X0208500Y0800410D03*
X0212450Y0790340D03*
X0212450Y0783260D03*
X0197300Y0782160D03*
X0197300Y0789240D03*
X0262200Y0732690D03*
X0262200Y0725610D03*
X0278850Y0725810D03*
X0278850Y0732890D03*
X0310500Y0742510D03*
X0317050Y0743160D03*
X0317050Y0750240D03*
X0310500Y0749590D03*
X0256000Y0657240D03*
X0256000Y0650160D03*
X0237400Y0649910D03*
X0237400Y0656990D03*
X0198350Y0595390D03*
X0198350Y0588310D03*
X0198850Y0578790D03*
X0198850Y0571710D03*
X0238050Y0575660D03*
X0238050Y0582740D03*
X0301500Y0544340D03*
X0301500Y0537260D03*
X0096300Y0784860D03*
X0096300Y0791940D03*
D447*
X0273100Y0551070D03*
X0273100Y0547530D03*
D930*
X0260820Y0793690D03*
X0260820Y0816130D03*
D654*
X0312600Y0822430D03*
X0316530Y0770660D03*
D562*
X0301380Y0789000D03*
X0299800Y0793330D03*
X0301380Y0797660D03*
X0302160Y0802000D03*
X0301380Y0806330D03*
X0302160Y0810660D03*
X0301380Y0814990D03*
X0301380Y0819320D03*
D357*
X0231050Y0755650D03*
D789*
X0231050Y0745650D03*
X0231050Y0735650D03*
X0241050Y0735650D03*
X0241050Y0745650D03*
X0241050Y0755650D03*
D46*
X0199400Y0772000D03*
X0189400Y0772000D03*
X0179400Y0772000D03*
X0313750Y0523100D03*
X0313750Y0511700D03*
D353*
X0315700Y0535300D02*
X0309700Y0535300D01*
X0310700Y0545300D02*
X0316700Y0545300D01*
X0315700Y0555300D02*
X0309700Y0555300D01*
X0310700Y0565300D02*
X0316700Y0565300D01*
X0315700Y0575300D02*
X0309700Y0575300D01*
X0286150Y0675150D02*
X0280150Y0675150D01*
X0279150Y0685150D02*
X0285150Y0685150D01*
X0286150Y0695150D02*
X0280150Y0695150D01*
X0305950Y0692900D02*
X0305950Y0698900D01*
X0315950Y0702900D02*
X0315950Y0708900D01*
X0305950Y0712900D02*
X0305950Y0718900D01*
D199*
X0305210Y0681880D03*
X0305210Y0654320D03*
D480*
X0315050Y0658260D03*
X0315050Y0677940D03*
D66*
X0245790Y0567280D03*
X0238310Y0567280D03*
X0242050Y0558620D03*
D69*
X0314850Y0621900D03*
X0314850Y0641900D03*
D555*
X0046000Y0642500D03*
X0046000Y0632500D03*
X0046000Y0622500D03*
X0046000Y0612500D03*
X0046000Y0602500D03*
X0046000Y0592500D03*
X0046000Y0582500D03*
X0046000Y0572500D03*
X0046000Y0562500D03*
X0046000Y0552500D03*
X0046000Y0542500D03*
X0046000Y0532500D03*
X0046000Y0522500D03*
X0046000Y0652500D03*
X0046000Y0662500D03*
X0046000Y0672500D03*
X0046000Y0682500D03*
X0046000Y0692500D03*
X0046000Y0702500D03*
X0046000Y0712500D03*
X0046000Y0722500D03*
X0046000Y0732500D03*
X0046000Y0742500D03*
X0046000Y0752500D03*
X0046000Y0762500D03*
X0046000Y0772500D03*
X0046000Y0782500D03*
X0046000Y0792500D03*
X0046000Y0802500D03*
X0046000Y0812500D03*
X0046000Y0822500D03*
X0046000Y0832500D03*
D686*
X0081650Y0776000D03*
X0086650Y0776000D03*
X0091650Y0776000D03*
X0096650Y0776000D03*
X0096650Y0755400D03*
X0091650Y0755400D03*
X0086650Y0755400D03*
X0081650Y0755400D03*
D916*
X0030700Y0511100D03*
X0040950Y0510800D03*
X0051550Y0510750D03*
X0078900Y0517000D03*
X0091800Y0510900D03*
X0105050Y0508150D03*
X0125750Y0512550D03*
X0138700Y0512150D03*
X0126200Y0536550D03*
X0137450Y0542200D03*
X0142050Y0552200D03*
X0186900Y0545200D03*
X0207050Y0515100D03*
X0242700Y0546700D03*
X0220950Y0582350D03*
X0190200Y0600000D03*
X0214850Y0638300D03*
X0230050Y0647650D03*
X0230200Y0654350D03*
X0236150Y0643800D03*
X0241550Y0641500D03*
X0239000Y0633050D03*
X0246250Y0633250D03*
X0260300Y0645350D03*
X0251500Y0662750D03*
X0236700Y0690250D03*
X0208050Y0670500D03*
X0185950Y0670800D03*
X0176300Y0678100D03*
X0164950Y0679200D03*
X0155050Y0683400D03*
X0146350Y0686950D03*
X0137050Y0705000D03*
X0105750Y0670800D03*
X0089600Y0685150D03*
X0074950Y0740450D03*
X0113200Y0759500D03*
X0117800Y0754900D03*
X0122150Y0760000D03*
X0117800Y0764650D03*
X0122150Y0769800D03*
X0126850Y0764450D03*
X0130900Y0759750D03*
X0126500Y0754600D03*
X0138550Y0754800D03*
X0143950Y0760050D03*
X0144150Y0765850D03*
X0138400Y0762550D03*
X0138500Y0770300D03*
X0130900Y0769900D03*
X0113300Y0769750D03*
X0139100Y0800600D03*
X0150900Y0766550D03*
X0150750Y0760600D03*
X0151500Y0754500D03*
X0170050Y0759500D03*
X0187900Y0790200D03*
X0186600Y0813350D03*
X0198000Y0816300D03*
X0200700Y0837600D03*
X0218500Y0798550D03*
X0218800Y0793250D03*
X0227100Y0787050D03*
X0224100Y0774650D03*
X0209650Y0775300D03*
X0258500Y0760350D03*
X0205400Y0703550D03*
X0191600Y0702250D03*
X0136600Y0637350D03*
X0090050Y0601300D03*
X0084500Y0603600D03*
X0084950Y0616950D03*
X0081100Y0537100D03*
X0265200Y0625900D03*
X0301450Y0610100D03*
X0281100Y0543900D03*
X0288700Y0529050D03*
X0267400Y0692150D03*
X0157550Y0846800D03*
X0160800Y0852150D03*
X0075150Y0813600D03*
X0067050Y0802150D03*
X0060150Y0811400D03*
X0074950Y0790500D03*
D740*
X0310750Y0641600D03*
X0310650Y0621000D03*
D857*
X0300200Y0627150D03*
X0297800Y0622350D03*
X0292400Y0622350D03*
X0287000Y0622350D03*
X0282200Y0622350D03*
X0282200Y0616950D03*
X0273800Y0616950D03*
X0273800Y0622350D03*
X0274400Y0627750D03*
X0278000Y0631350D03*
X0282200Y0633750D03*
X0300200Y0634950D03*
X0305000Y0597750D03*
X0259400Y0640350D03*
X0258200Y0662550D03*
X0293700Y0697600D03*
X0287000Y0718250D03*
X0272400Y0728450D03*
X0266400Y0737450D03*
X0260400Y0739350D03*
X0261650Y0748950D03*
X0268150Y0748800D03*
X0278900Y0739150D03*
X0288000Y0754900D03*
X0302700Y0747900D03*
X0310400Y0756750D03*
X0315800Y0756750D03*
X0294100Y0770750D03*
X0291800Y0787650D03*
X0295400Y0802850D03*
X0277500Y0814800D03*
X0259400Y0786700D03*
X0254300Y0775800D03*
X0250400Y0767850D03*
X0241800Y0768000D03*
X0242100Y0776100D03*
X0233400Y0773150D03*
X0234500Y0788700D03*
X0237100Y0793850D03*
X0241100Y0788650D03*
X0230800Y0802250D03*
X0229700Y0809550D03*
X0224900Y0808850D03*
X0236450Y0805750D03*
X0233100Y0820450D03*
X0252100Y0820600D03*
X0219500Y0786600D03*
X0212000Y0760650D03*
X0223900Y0757350D03*
X0226100Y0740650D03*
X0231800Y0720750D03*
X0227400Y0715850D03*
X0223200Y0711850D03*
X0210050Y0708100D03*
X0198550Y0702500D03*
X0187750Y0707700D03*
X0184900Y0704150D03*
X0171450Y0708200D03*
X0150100Y0701750D03*
X0124000Y0694650D03*
X0088300Y0723800D03*
X0148700Y0648800D03*
X0127900Y0624450D03*
X0123700Y0622050D03*
X0119300Y0619950D03*
X0114350Y0609150D03*
X0108000Y0638050D03*
X0108100Y0638150D03*
X0182600Y0647550D03*
X0200300Y0627050D03*
X0203900Y0623450D03*
X0200900Y0619950D03*
X0213200Y0684150D03*
X0216800Y0690950D03*
X0220500Y0687800D03*
X0220200Y0697750D03*
X0259200Y0711250D03*
X0258800Y0716250D03*
X0264800Y0712350D03*
X0268400Y0715750D03*
X0249300Y0755350D03*
X0270500Y0772700D03*
X0275800Y0771850D03*
X0314900Y0813600D03*
X0169100Y0804350D03*
X0075200Y0832550D03*
X0072100Y0856200D03*
X0143500Y0545850D03*
M02*
