%
T01C0.021650
X14570Y43420
X16330Y39600
X16340Y38880
X17350Y44990
X17620Y25230
X17290Y24630
X17500Y23500
X18270Y19790
X17535Y18905
X17145Y18485
X16950Y18005
X18135Y17600
X20415Y17555
X20265Y19265
X23000Y22500
X21480Y23960
X21300Y25140
X25500Y23000
X25500Y22500
X25500Y22000
X25500Y21500
X25500Y21000
X25500Y20500
X25500Y20000
X26000Y20000
X26000Y20500
X26000Y21000
X26000Y21500
X26000Y22000
X26000Y22500
X26000Y23000
X26500Y23000
X26500Y22500
X26500Y22000
X27000Y22000
X27500Y22000
X27500Y22500
X27000Y22500
X27000Y23000
X27500Y23000
X28000Y23000
X28000Y22500
X28000Y22000
X28500Y22000
X29000Y22000
X29000Y21500
X29000Y21000
X29000Y20500
X29000Y20000
X29500Y20000
X29500Y20500
X29500Y21000
X29500Y21500
X29500Y22000
X29500Y22500
X29000Y22500
X28500Y22500
X28500Y23000
X29000Y23000
X29500Y23000
X27225Y15980
X30905Y7925
X28523Y5818
X21180Y13775
X20670Y13790
X20685Y14330
X19005Y10700
X19365Y9980
X18045Y11465
X16935Y7805
X14080Y11470
X13890Y7640
X18045Y3140
X15870Y16875
X13335Y18140
X15315Y20330
X12960Y22500
X8865Y21050
X7965Y20045
X7250Y18625
X7965Y15870
X8865Y13695
X5745Y15395
X6390Y8050
X9900Y3600
X10400Y3600
X10900Y3600
X11300Y4000
X11600Y4400
X11600Y4900
X11800Y5400
X11800Y5900
X11800Y6400
X11800Y6900
X11400Y7900
X11000Y8000
X11700Y8300
X11700Y8800
X11700Y9300
X11700Y9800
X11100Y10000
X10800Y10400
X10800Y10900
X10800Y11400
X11100Y11800
X11600Y11800
X12100Y11800
X12500Y11400
X12500Y10900
X12600Y10400
X12600Y9900
X12600Y9400
X12600Y8900
X12600Y8400
X12600Y7900
X12600Y7400
X12300Y7100
X10400Y6700
X10400Y6100
X10400Y5600
X9900Y4600
X27000Y12000
X27500Y12000
X27500Y12500
X27000Y12500
X27000Y13000
X27500Y13000
X27500Y13500
X27000Y13500
X27000Y14000
X27500Y14000
X28000Y14000
X28000Y13500
X28000Y13000
X28000Y12500
X28000Y12000
X17520Y42650
X17520Y43090
X16840Y42840
X16370Y42840
X16370Y43350
X16840Y43340
X16030Y44800
X16410Y45100
X15900Y43340
X15890Y42840
X15320Y42650
X15320Y43070
X15330Y43520
X3070Y51110
X4095Y51080
X5155Y51075
X7890Y51700
X9180Y51090
X10505Y50815
X12575Y51255
X13870Y51215
X12620Y53655
X13745Y54220
X14205Y55220
X18690Y54520
X20705Y51510
X24270Y54670
X22095Y58235
X19020Y60000
X21485Y63830
X23005Y64765
X23020Y65435
X23615Y64380
X24155Y64150
X23900Y63305
X24625Y63325
X26030Y64535
X25150Y66275
X23670Y69025
X20805Y67050
X18595Y67080
X17630Y67810
X16495Y67920
X15505Y68340
X14635Y68695
X13705Y70500
X10575Y67080
X8960Y68515
X7495Y74045
X11320Y75950
X11780Y75490
X12215Y76000
X11780Y76465
X12215Y76980
X12685Y76445
X13090Y75975
X12650Y75460
X13855Y75480
X14395Y76005
X14415Y76585
X13840Y76255
X13850Y77030
X13090Y76990
X11330Y76975
X13910Y80060
X15090Y76655
X15075Y76060
X15150Y75450
X17005Y75950
X18790Y79020
X18660Y81335
X19800Y81630
X20070Y83760
X21850Y79855
X21880Y79325
X22710Y78705
X22410Y77465
X20965Y77530
X25850Y76035
X20540Y70355
X19160Y70225
X13660Y63735
X9005Y60130
X8450Y60360
X8495Y61695
X8110Y53710
X26520Y62590
X30145Y61010
X31065Y62100
X31075Y64160
X26740Y69215
X28110Y54390
X28870Y52905
X7495Y79050
X6705Y80215
X6015Y81140
X7515Y81360
X15755Y84680
X16080Y85215
X11435Y60915
X11930Y61995
X12370Y62205
X12790Y62445
X10810Y63815
X10800Y63805
X14870Y64880
X18260Y64755
X20030Y62705
X20390Y62345
X20090Y61995
X21320Y68415
X21680Y69095
X22050Y68780
X22020Y69775
X21005Y70810
X19855Y70250
X18775Y70770
X18490Y70415
X17145Y70820
X15010Y70175
X12400Y69465
X8830Y72380
X16910Y80435
X21200Y76065
X22390Y75735
X22610Y74065
X23180Y72075
X22740Y71585
X22320Y71185
X25880Y71625
X25920Y71125
X26480Y71235
X26840Y71575
X27240Y72845
X26640Y73745
X26040Y73935
X26165Y74895
X26815Y74880
X27890Y73915
X28800Y75490
X30270Y74790
X31040Y75675
X31580Y75675
X29410Y77075
X29180Y78765
X29540Y80285
X27750Y81480
X25940Y78670
X25430Y77580
X25040Y76785
X24180Y76800
X24210Y77610
X23340Y77315
X23450Y78870
X23710Y79385
X24110Y78865
X23080Y80225
X22970Y80955
X22490Y80885
X23645Y80575
X23310Y82045
X25210Y82060
X21950Y78660
X24930Y75535
X27050Y77270
X27580Y77185
X31490Y81360
X28700Y71825
X29370Y69760
X25820Y66255
X25940Y64035
X27440Y62775
X27800Y63135
X28220Y63375
X28220Y62235
X28220Y61695
X28700Y62235
X29240Y62235
X29780Y62235
X30020Y62715
X30020Y63495
X27380Y62235
X27380Y61695
X30500Y59775
X14350Y54585
X7520Y83255
X7210Y85620
T02C0.031750
X19300Y32000
X16300Y32000
X25516Y2800
X27484Y2800
X30650Y4382
X31250Y3619
X31850Y4382
X32350Y3619
X31505Y67794
X31505Y65826
T03C0.041650
X22484Y5961
X22484Y3500
X21500Y3500
X20516Y3500
X20516Y5961
X15890Y21230
X16890Y21130
X17890Y21230
X18890Y21130
X19890Y21230
X15930Y15390
X14930Y15490
X13930Y15390
X3000Y28000
X3000Y36000
X34000Y36000
X33990Y28010
X28315Y67515
X28215Y68515
X28315Y69515
X30595Y69590
X31595Y70590
X30595Y71590
X24105Y73565
X24105Y74565
X24105Y75565
X23105Y75565
X23105Y74565
X23105Y73565
X19940Y77200
X18940Y77200
X17940Y77200
X31270Y57530
X31370Y56530
X31270Y55530
X31370Y54530
X31270Y53530
X31375Y52310
X31375Y51170
T04C0.047200
X16000Y5386
X16000Y2630
X25122Y3785
X27878Y3785
X30521Y65432
X30521Y68188
T05C0.061050
X6996Y2996
X6996Y5004
X9004Y5004
X9004Y2996
X8000Y4000
T06C0.118000
X26460Y42757
X26460Y45119
X24610Y43938
T07C0.130000
X33000Y44000
X33000Y7000
X4000Y7000
X4000Y44000
M30
