G75*
G70*
%OFA0B0*%
%FSLAX25Y25*%
%IPPOS*%
%LPD*%
%AMOC8*
5,1,8,0,0,1.08239X$1,22.5*
%
%ADD672C,0.01000*%
X0020000Y0020000D02*
G75*
%LPD*%
D672*
X0020000Y0020000D02*
X0020000Y0470000D01*
X0350000Y0470000D01*
X0350000Y0020000D01*
X0020000Y0020000D01*
X0055920Y0091900D02*
X0055250Y0092570D01*
X0055250Y0093900D01*
X0055920Y0094570D01*
X0055250Y0096510D02*
X0055250Y0099180D01*
X0055250Y0097840D02*
X0059260Y0097840D01*
X0057920Y0096510D01*
X0058590Y0094570D02*
X0059260Y0093900D01*
X0059260Y0092570D01*
X0058590Y0091900D01*
X0055920Y0091900D01*
X0061040Y0093920D02*
X0061040Y0096280D01*
X0065760Y0096280D02*
X0065760Y0093920D01*
X0070880Y0093170D02*
X0070880Y0088840D01*
X0072450Y0087260D01*
X0078750Y0087260D01*
X0080330Y0088840D01*
X0080330Y0093170D01*
X0079600Y0095600D02*
X0071600Y0095600D01*
X0070880Y0101040D02*
X0070880Y0106950D01*
X0080330Y0106950D01*
X0080330Y0101040D01*
X0082860Y0099600D02*
X0083530Y0100260D01*
X0082860Y0099600D02*
X0082860Y0098260D01*
X0083530Y0097600D01*
X0086200Y0097600D01*
X0086870Y0098260D01*
X0086870Y0099600D01*
X0086200Y0100260D01*
X0084870Y0102200D02*
X0084870Y0104870D01*
X0086870Y0104200D02*
X0084870Y0102200D01*
X0086870Y0104200D02*
X0082860Y0104200D01*
X0086900Y0085310D02*
X0088230Y0085310D01*
X0088900Y0084640D01*
X0086900Y0085310D02*
X0086230Y0084640D01*
X0086230Y0083970D01*
X0088900Y0081300D01*
X0086230Y0081300D01*
X0090830Y0081300D02*
X0093500Y0081300D01*
X0093500Y0085310D01*
X0068990Y0133750D02*
X0069660Y0134410D01*
X0069660Y0135750D01*
X0068990Y0136410D01*
X0066320Y0136410D01*
X0065650Y0135750D01*
X0065650Y0134410D01*
X0066320Y0133750D01*
X0068990Y0133750D01*
X0066990Y0135080D02*
X0065650Y0136410D01*
X0066320Y0138350D02*
X0065650Y0139020D01*
X0065650Y0140350D01*
X0066320Y0141020D01*
X0066990Y0141020D01*
X0067650Y0140350D01*
X0067650Y0139680D01*
X0067650Y0140350D02*
X0068320Y0141020D01*
X0068990Y0141020D01*
X0069660Y0140350D01*
X0069660Y0139020D01*
X0068990Y0138350D01*
X0063250Y0136950D02*
X0063250Y0142150D01*
X0052050Y0142150D01*
X0052050Y0136950D01*
X0063250Y0136950D01*
X0132140Y0166900D02*
X0134810Y0166900D01*
X0133470Y0166900D02*
X0133470Y0170910D01*
X0134810Y0169570D01*
X0136740Y0170240D02*
X0136740Y0168900D01*
X0137410Y0168240D01*
X0139410Y0168240D01*
X0138080Y0168240D02*
X0136740Y0166900D01*
X0139410Y0166900D02*
X0139410Y0170910D01*
X0137410Y0170910D01*
X0136740Y0170240D01*
X0146370Y0170970D02*
X0148730Y0170970D01*
X0148730Y0166240D02*
X0146370Y0166240D01*
X0146040Y0198300D02*
X0147380Y0199640D01*
X0146710Y0199640D02*
X0148710Y0199640D01*
X0148710Y0198300D02*
X0148710Y0202310D01*
X0146710Y0202310D01*
X0146040Y0201640D01*
X0146040Y0200300D01*
X0146710Y0199640D01*
X0144110Y0198300D02*
X0141440Y0200970D01*
X0141440Y0201640D01*
X0142100Y0202310D01*
X0143440Y0202310D01*
X0144110Y0201640D01*
X0144680Y0203940D02*
X0142320Y0203940D01*
X0142320Y0208670D02*
X0144680Y0208670D01*
X0144110Y0198300D02*
X0141440Y0198300D01*
X0172270Y0170070D02*
X0174630Y0170070D01*
X0174630Y0165340D02*
X0172270Y0165340D01*
X0181080Y0166720D02*
X0181750Y0166050D01*
X0183080Y0166050D01*
X0183750Y0166720D01*
X0183750Y0168050D02*
X0182410Y0168720D01*
X0181750Y0168720D01*
X0181080Y0168050D01*
X0181080Y0166720D01*
X0183750Y0168050D02*
X0183750Y0170060D01*
X0181080Y0170060D01*
X0185680Y0169390D02*
X0186350Y0170060D01*
X0187680Y0170060D01*
X0188350Y0169390D01*
X0188350Y0166720D01*
X0187680Y0166050D01*
X0186350Y0166050D01*
X0185680Y0166720D01*
X0292050Y0081480D02*
X0292050Y0078810D01*
X0294720Y0081480D01*
X0295390Y0081480D01*
X0296060Y0080810D01*
X0296060Y0079480D01*
X0295390Y0078810D01*
X0296060Y0075540D02*
X0292050Y0075540D01*
X0292050Y0074210D02*
X0292050Y0076880D01*
X0294720Y0074210D02*
X0296060Y0075540D01*
X0295390Y0072270D02*
X0294050Y0072270D01*
X0293390Y0071600D01*
X0293390Y0069600D01*
X0293390Y0070940D02*
X0292050Y0072270D01*
X0292050Y0069600D02*
X0296060Y0069600D01*
X0296060Y0071600D01*
X0295390Y0072270D01*
X0299450Y0072670D02*
X0300790Y0071340D01*
X0300790Y0072000D02*
X0300790Y0070000D01*
X0299450Y0070000D02*
X0303460Y0070000D01*
X0303460Y0072000D01*
X0302790Y0072670D01*
X0301450Y0072670D01*
X0300790Y0072000D01*
X0302120Y0074610D02*
X0303460Y0075940D01*
X0299450Y0075940D01*
X0299450Y0074610D02*
X0299450Y0077280D01*
X0300120Y0079210D02*
X0299450Y0079880D01*
X0299450Y0081210D01*
X0300120Y0081880D01*
X0300790Y0081880D01*
X0301450Y0081210D01*
X0301450Y0080550D01*
X0301450Y0081210D02*
X0302120Y0081880D01*
X0302790Y0081880D01*
X0303460Y0081210D01*
X0303460Y0079880D01*
X0302790Y0079210D01*
X0312150Y0069010D02*
X0316160Y0069010D01*
X0314150Y0067010D01*
X0314150Y0069680D01*
X0312150Y0065080D02*
X0312150Y0062410D01*
X0312150Y0063740D02*
X0316160Y0063740D01*
X0314820Y0062410D01*
X0314150Y0060470D02*
X0313490Y0059800D01*
X0313490Y0057800D01*
X0313490Y0059140D02*
X0312150Y0060470D01*
X0310360Y0061120D02*
X0310360Y0063480D01*
X0314150Y0060470D02*
X0315490Y0060470D01*
X0316160Y0059800D01*
X0316160Y0057800D01*
X0312150Y0057800D01*
X0305640Y0061120D02*
X0305640Y0063480D01*
X0303860Y0063480D02*
X0303860Y0061120D01*
X0299140Y0061120D02*
X0299140Y0063480D01*
X0297360Y0063480D02*
X0297360Y0061120D01*
X0292640Y0061120D02*
X0292640Y0063480D01*
X0185510Y0379450D02*
X0185510Y0383460D01*
X0183510Y0383460D01*
X0182840Y0382790D01*
X0182840Y0381450D01*
X0183510Y0380790D01*
X0185510Y0380790D01*
X0184180Y0380790D02*
X0182840Y0379450D01*
X0180910Y0379450D02*
X0178240Y0382120D01*
X0178240Y0382790D01*
X0178910Y0383460D01*
X0180240Y0383460D01*
X0180910Y0382790D01*
X0180910Y0379450D02*
X0178240Y0379450D01*
X0176310Y0381450D02*
X0173640Y0381450D01*
X0174300Y0379450D02*
X0174300Y0383460D01*
X0176310Y0381450D01*
X0173880Y0386440D02*
X0171520Y0386440D01*
X0171520Y0391170D02*
X0173880Y0391170D01*
X0173880Y0392940D02*
X0171520Y0392940D01*
X0172800Y0396350D02*
X0174140Y0396350D01*
X0174810Y0397020D01*
X0173880Y0397670D02*
X0171520Y0397670D01*
X0172140Y0397690D02*
X0172140Y0397020D01*
X0172800Y0396350D01*
X0172140Y0397690D02*
X0172800Y0398350D01*
X0173470Y0398350D01*
X0172800Y0398350D02*
X0172140Y0399020D01*
X0172140Y0399690D01*
X0172800Y0400360D01*
X0174140Y0400360D01*
X0174810Y0399690D01*
X0176740Y0399690D02*
X0177410Y0400360D01*
X0178740Y0400360D01*
X0179410Y0399690D01*
X0181340Y0399690D02*
X0181340Y0398350D01*
X0182010Y0397690D01*
X0184010Y0397690D01*
X0182680Y0397690D02*
X0181340Y0396350D01*
X0179410Y0396350D02*
X0176740Y0399020D01*
X0176740Y0399690D01*
X0176740Y0396350D02*
X0179410Y0396350D01*
X0181340Y0399690D02*
X0182010Y0400360D01*
X0184010Y0400360D01*
X0184010Y0396350D01*
D672*
X0019500Y0019500D02*
X0019500Y0470500D01*
X0350500Y0470500D01*
X0350500Y0019500D01*
X0019500Y0019500D01*
X0020000Y0482500D02*
G75*
%LPD*%
D672*
X0020000Y0482500D02*
X0020000Y0872500D01*
X0291000Y0872500D01*
X0291000Y0863500D01*
X0291020Y0863110D01*
X0291080Y0862720D01*
X0291170Y0862340D01*
X0291300Y0861970D01*
X0291470Y0861610D01*
X0291670Y0861280D01*
X0291910Y0860960D01*
X0292170Y0860670D01*
X0292460Y0860410D01*
X0292780Y0860170D01*
X0293110Y0859970D01*
X0293470Y0859800D01*
X0293840Y0859670D01*
X0294220Y0859580D01*
X0294610Y0859520D01*
X0295000Y0859500D01*
X0295390Y0859520D01*
X0295780Y0859580D01*
X0296160Y0859670D01*
X0296530Y0859800D01*
X0296890Y0859970D01*
X0297220Y0860170D01*
X0297540Y0860410D01*
X0297830Y0860670D01*
X0298090Y0860960D01*
X0298330Y0861280D01*
X0298530Y0861610D01*
X0298700Y0861970D01*
X0298830Y0862340D01*
X0298920Y0862720D01*
X0298980Y0863110D01*
X0299000Y0863500D01*
X0299000Y0872500D01*
X0325000Y0872500D01*
X0325000Y0482500D01*
X0299000Y0482500D01*
X0299000Y0492500D01*
X0298980Y0492890D01*
X0298920Y0493280D01*
X0298830Y0493660D01*
X0298700Y0494030D01*
X0298530Y0494390D01*
X0298330Y0494720D01*
X0298090Y0495040D01*
X0297830Y0495330D01*
X0297540Y0495590D01*
X0297220Y0495830D01*
X0296890Y0496030D01*
X0296530Y0496200D01*
X0296160Y0496330D01*
X0295780Y0496420D01*
X0295390Y0496480D01*
X0295000Y0496500D01*
X0294610Y0496480D01*
X0294220Y0496420D01*
X0293840Y0496330D01*
X0293470Y0496200D01*
X0293110Y0496030D01*
X0292780Y0495830D01*
X0292460Y0495590D01*
X0292170Y0495330D01*
X0291910Y0495040D01*
X0291670Y0494720D01*
X0291470Y0494390D01*
X0291300Y0494030D01*
X0291170Y0493660D01*
X0291080Y0493280D01*
X0291020Y0492890D01*
X0291000Y0492500D01*
X0291000Y0482500D01*
X0020000Y0482500D01*
X0171720Y0644790D02*
X0174080Y0644790D01*
X0174080Y0649510D02*
X0171720Y0649510D01*
X0171740Y0651800D02*
X0173080Y0651800D01*
X0173750Y0652470D01*
X0173750Y0653130D01*
X0173080Y0653800D01*
X0171740Y0653800D01*
X0171080Y0653130D01*
X0171080Y0652470D01*
X0171740Y0651800D01*
X0171740Y0653800D02*
X0171080Y0654470D01*
X0171080Y0655140D01*
X0171740Y0655800D01*
X0173080Y0655800D01*
X0173750Y0655140D01*
X0173750Y0654470D01*
X0173080Y0653800D01*
X0175680Y0652470D02*
X0176350Y0651800D01*
X0177680Y0651800D01*
X0178350Y0652470D01*
X0178350Y0655140D01*
X0177680Y0655800D01*
X0176350Y0655800D01*
X0175680Y0655140D01*
X0208000Y0607870D02*
X0208000Y0605200D01*
X0208000Y0606530D02*
X0212000Y0606530D01*
X0210670Y0605200D01*
X0211340Y0603260D02*
X0208670Y0603260D01*
X0208000Y0602590D01*
X0208000Y0601260D01*
X0208670Y0600590D01*
X0211340Y0600590D01*
X0212000Y0601260D01*
X0212000Y0602590D01*
X0211340Y0603260D01*
X0209330Y0601930D02*
X0208000Y0603260D01*
X0207850Y0597650D02*
X0207850Y0586450D01*
X0213050Y0586450D01*
X0213050Y0597650D01*
X0207850Y0597650D01*
X0200710Y0593030D02*
X0200710Y0590670D01*
X0195990Y0590670D02*
X0195990Y0593030D01*
X0193450Y0592910D02*
X0193450Y0594250D01*
X0192790Y0594920D01*
X0192120Y0594920D01*
X0191450Y0594250D01*
X0190780Y0594920D01*
X0190120Y0594920D01*
X0189450Y0594250D01*
X0189450Y0592910D01*
X0190120Y0592250D01*
X0191450Y0593580D02*
X0191450Y0594250D01*
X0192790Y0592250D02*
X0193450Y0592910D01*
X0192790Y0590310D02*
X0191450Y0590310D01*
X0190780Y0589640D01*
X0190780Y0587640D01*
X0189450Y0587640D02*
X0193450Y0587640D01*
X0193450Y0589640D01*
X0192790Y0590310D01*
X0190780Y0588980D02*
X0189450Y0590310D01*
X0192650Y0578320D02*
X0192650Y0575650D01*
X0194650Y0577650D01*
X0190650Y0577650D01*
X0190650Y0573710D02*
X0191980Y0572380D01*
X0191980Y0573040D02*
X0191980Y0571040D01*
X0190650Y0571040D02*
X0194650Y0571040D01*
X0194650Y0573040D01*
X0193990Y0573710D01*
X0192650Y0573710D01*
X0191980Y0573040D01*
X0196490Y0574070D02*
X0196490Y0576430D01*
X0201210Y0576430D02*
X0201210Y0574070D01*
X0207850Y0569800D02*
X0207850Y0581000D01*
X0213050Y0581000D01*
X0213050Y0569800D01*
X0207850Y0569800D01*
X0208800Y0567820D02*
X0208800Y0565150D01*
X0211470Y0567820D01*
X0212140Y0567820D01*
X0212800Y0567160D01*
X0212800Y0565820D01*
X0212140Y0565150D01*
X0212140Y0563220D02*
X0209470Y0563220D01*
X0208800Y0562550D01*
X0208800Y0561220D01*
X0209470Y0560550D01*
X0212140Y0560550D01*
X0212800Y0561220D01*
X0212800Y0562550D01*
X0212140Y0563220D01*
X0210130Y0561880D02*
X0208800Y0563220D01*
X0221730Y0566600D02*
X0224400Y0566600D01*
X0223070Y0566600D02*
X0223070Y0570600D01*
X0224400Y0569270D01*
X0226340Y0569940D02*
X0226340Y0568600D01*
X0227010Y0567930D01*
X0229010Y0567930D01*
X0229010Y0566600D02*
X0229010Y0570600D01*
X0227010Y0570600D01*
X0226340Y0569940D01*
X0227670Y0567930D02*
X0226340Y0566600D01*
X0227130Y0572940D02*
X0224770Y0572940D01*
X0224770Y0577660D02*
X0227130Y0577660D01*
X0235690Y0578020D02*
X0235690Y0580380D01*
X0240410Y0580380D02*
X0240410Y0578020D01*
X0243050Y0577210D02*
X0244380Y0575870D01*
X0244380Y0576540D02*
X0244380Y0574540D01*
X0243050Y0574540D02*
X0247050Y0574540D01*
X0247050Y0576540D01*
X0246390Y0577210D01*
X0245050Y0577210D01*
X0244380Y0576540D01*
X0243050Y0579140D02*
X0243050Y0581810D01*
X0243050Y0580480D02*
X0247050Y0580480D01*
X0245720Y0579140D01*
X0245050Y0583750D02*
X0243720Y0583750D01*
X0243050Y0584410D01*
X0243050Y0585750D01*
X0243720Y0586410D01*
X0244380Y0586410D01*
X0245050Y0585750D01*
X0245050Y0583750D01*
X0246390Y0585080D01*
X0247050Y0586410D01*
X0250670Y0569370D02*
X0250000Y0568710D01*
X0250000Y0567370D01*
X0250670Y0566700D01*
X0252000Y0568040D02*
X0252000Y0568710D01*
X0251330Y0569370D01*
X0250670Y0569370D01*
X0252000Y0568710D02*
X0252670Y0569370D01*
X0253340Y0569370D01*
X0254000Y0568710D01*
X0254000Y0567370D01*
X0253340Y0566700D01*
X0253340Y0564770D02*
X0250670Y0564770D01*
X0250000Y0564100D01*
X0250000Y0562770D01*
X0250670Y0562100D01*
X0253340Y0562100D01*
X0254000Y0562770D01*
X0254000Y0564100D01*
X0253340Y0564770D01*
X0251330Y0563430D02*
X0250000Y0564770D01*
X0247650Y0565550D02*
X0236450Y0565550D01*
X0236450Y0560350D01*
X0247650Y0560350D01*
X0247650Y0565550D01*
X0266250Y0554750D02*
X0268920Y0554750D01*
X0267580Y0554750D02*
X0267580Y0558750D01*
X0268920Y0557420D01*
X0270850Y0558750D02*
X0272190Y0558750D01*
X0271520Y0558750D02*
X0271520Y0555420D01*
X0272190Y0554750D01*
X0272850Y0554750D01*
X0273520Y0555420D01*
X0275460Y0555420D02*
X0276120Y0554750D01*
X0277460Y0554750D01*
X0278120Y0555420D01*
X0277460Y0556750D02*
X0276120Y0556750D01*
X0275460Y0556080D01*
X0275460Y0555420D01*
X0277460Y0556750D02*
X0278120Y0557420D01*
X0278120Y0558090D01*
X0277460Y0558750D01*
X0276120Y0558750D01*
X0275460Y0558090D01*
X0277040Y0552450D02*
X0277040Y0546150D01*
X0277030Y0546150D02*
X0276980Y0545990D01*
X0276900Y0545830D01*
X0276800Y0545690D01*
X0276680Y0545570D01*
X0276530Y0545470D01*
X0276370Y0545400D01*
X0276200Y0545360D01*
X0276030Y0545350D01*
X0275850Y0545370D01*
X0270350Y0545370D02*
X0270170Y0545350D01*
X0270000Y0545360D01*
X0269830Y0545400D01*
X0269670Y0545470D01*
X0269520Y0545570D01*
X0269400Y0545690D01*
X0269300Y0545830D01*
X0269220Y0545990D01*
X0269170Y0546150D01*
X0269160Y0546150D02*
X0269160Y0552450D01*
X0269170Y0552450D02*
X0269230Y0552630D01*
X0269320Y0552810D01*
X0269440Y0552960D01*
X0269600Y0553080D01*
X0269770Y0553170D01*
X0269960Y0553230D01*
X0270150Y0553250D01*
X0270350Y0553230D01*
X0275850Y0553230D02*
X0276050Y0553250D01*
X0276240Y0553230D01*
X0276430Y0553170D01*
X0276600Y0553080D01*
X0276760Y0552960D01*
X0276880Y0552810D01*
X0276970Y0552630D01*
X0277030Y0552450D01*
X0292150Y0543160D02*
X0292150Y0541820D01*
X0292820Y0541150D01*
X0293480Y0541150D01*
X0294150Y0541820D01*
X0294150Y0543160D01*
X0293480Y0543820D01*
X0292820Y0543820D01*
X0292150Y0543160D01*
X0294150Y0543160D02*
X0294820Y0543820D01*
X0295490Y0543820D01*
X0296150Y0543160D01*
X0296150Y0541820D01*
X0295490Y0541150D01*
X0294820Y0541150D01*
X0294150Y0541820D01*
X0294150Y0539220D02*
X0293480Y0538550D01*
X0293480Y0536550D01*
X0292150Y0536550D02*
X0296150Y0536550D01*
X0296150Y0538550D01*
X0295490Y0539220D01*
X0294150Y0539220D01*
X0293480Y0537880D02*
X0292150Y0539220D01*
X0299140Y0539620D02*
X0299140Y0541980D01*
X0303860Y0541980D02*
X0303860Y0539620D01*
X0229860Y0597700D02*
X0229860Y0601700D01*
X0227860Y0601700D01*
X0227190Y0601040D01*
X0227190Y0599700D01*
X0227860Y0599030D01*
X0229860Y0599030D01*
X0228520Y0599030D02*
X0227190Y0597700D01*
X0225250Y0597700D02*
X0222580Y0600370D01*
X0222580Y0601040D01*
X0223250Y0601700D01*
X0224590Y0601700D01*
X0225250Y0601040D01*
X0225250Y0597700D02*
X0222580Y0597700D01*
X0224070Y0594460D02*
X0226430Y0594460D01*
X0226430Y0589740D02*
X0224070Y0589740D01*
X0242420Y0650950D02*
X0241750Y0651620D01*
X0241750Y0652950D01*
X0242420Y0653620D01*
X0242420Y0655550D02*
X0241750Y0655550D01*
X0242420Y0655550D02*
X0245090Y0658220D01*
X0245750Y0658220D01*
X0245750Y0655550D01*
X0245090Y0653620D02*
X0245750Y0652950D01*
X0245750Y0651620D01*
X0245090Y0650950D01*
X0242420Y0650950D01*
X0239760Y0652270D02*
X0239760Y0654630D01*
X0235040Y0654630D02*
X0235040Y0652270D01*
X0253640Y0652520D02*
X0253640Y0654880D01*
X0258360Y0654880D02*
X0258360Y0652520D01*
X0260350Y0651870D02*
X0260350Y0653200D01*
X0261020Y0653870D01*
X0261020Y0655800D02*
X0260350Y0656470D01*
X0260350Y0657810D01*
X0261020Y0658470D01*
X0261680Y0658470D01*
X0262350Y0657810D01*
X0262350Y0655800D01*
X0261020Y0655800D01*
X0262350Y0655800D02*
X0263690Y0657140D01*
X0264350Y0658470D01*
X0263690Y0653870D02*
X0264350Y0653200D01*
X0264350Y0651870D01*
X0263690Y0651200D01*
X0261020Y0651200D01*
X0260350Y0651870D01*
X0268020Y0722490D02*
X0267350Y0723160D01*
X0267350Y0724490D01*
X0268020Y0725160D01*
X0268020Y0727090D02*
X0267350Y0727760D01*
X0267350Y0729090D01*
X0268020Y0729760D01*
X0268680Y0729760D01*
X0269350Y0729090D01*
X0269350Y0728430D01*
X0269350Y0729090D02*
X0270020Y0729760D01*
X0270690Y0729760D01*
X0271350Y0729090D01*
X0271350Y0727760D01*
X0270690Y0727090D01*
X0270690Y0725160D02*
X0271350Y0724490D01*
X0271350Y0723160D01*
X0270690Y0722490D01*
X0268020Y0722490D01*
X0264560Y0727970D02*
X0264560Y0730330D01*
X0267350Y0732360D02*
X0267350Y0733700D01*
X0268020Y0734360D01*
X0270690Y0734360D01*
X0271350Y0733700D01*
X0271350Y0732360D01*
X0270690Y0731700D01*
X0270020Y0731700D01*
X0269350Y0732360D01*
X0269350Y0734360D01*
X0267350Y0732360D02*
X0268020Y0731700D01*
X0276490Y0730530D02*
X0276490Y0728170D01*
X0281210Y0728170D02*
X0281210Y0730530D01*
X0283100Y0730690D02*
X0283100Y0729360D01*
X0283770Y0728690D01*
X0285100Y0730030D02*
X0285100Y0730690D01*
X0284430Y0731360D01*
X0283770Y0731360D01*
X0283100Y0730690D01*
X0285100Y0730690D02*
X0285770Y0731360D01*
X0286440Y0731360D01*
X0287100Y0730690D01*
X0287100Y0729360D01*
X0286440Y0728690D01*
X0286440Y0726760D02*
X0287100Y0726090D01*
X0287100Y0724760D01*
X0286440Y0724090D01*
X0283770Y0724090D01*
X0283100Y0724760D01*
X0283100Y0726090D01*
X0283770Y0726760D01*
X0283770Y0733300D02*
X0283100Y0733300D01*
X0283770Y0733300D02*
X0286440Y0735960D01*
X0287100Y0735960D01*
X0287100Y0733300D01*
X0308100Y0733090D02*
X0312100Y0733090D01*
X0310100Y0731090D01*
X0310100Y0733760D01*
X0310100Y0735700D02*
X0310100Y0738360D01*
X0308100Y0737700D02*
X0312100Y0737700D01*
X0310100Y0735700D01*
X0315750Y0736930D02*
X0316420Y0736260D01*
X0315750Y0736930D02*
X0315750Y0738260D01*
X0316420Y0738930D01*
X0317080Y0738930D01*
X0317750Y0738260D01*
X0317750Y0737590D01*
X0317750Y0738260D02*
X0318420Y0738930D01*
X0319090Y0738930D01*
X0319750Y0738260D01*
X0319750Y0736930D01*
X0319090Y0736260D01*
X0317750Y0734320D02*
X0317750Y0731650D01*
X0319750Y0733660D01*
X0315750Y0733660D01*
X0315750Y0729720D02*
X0317080Y0728380D01*
X0317080Y0729050D02*
X0317080Y0727050D01*
X0315750Y0727050D02*
X0319750Y0727050D01*
X0319750Y0729050D01*
X0319090Y0729720D01*
X0317750Y0729720D01*
X0317080Y0729050D01*
X0312100Y0728490D02*
X0312100Y0726490D01*
X0308100Y0726490D01*
X0309430Y0726490D02*
X0309430Y0728490D01*
X0310100Y0729160D01*
X0311440Y0729160D01*
X0312100Y0728490D01*
X0309430Y0727820D02*
X0308100Y0729160D01*
X0308140Y0744870D02*
X0308140Y0747230D01*
X0312860Y0747230D02*
X0312860Y0744870D01*
X0314690Y0745520D02*
X0314690Y0747880D01*
X0319410Y0747880D02*
X0319410Y0745520D01*
X0311220Y0769080D02*
X0259250Y0769080D01*
X0259250Y0788370D01*
X0259250Y0799000D02*
X0259250Y0810810D01*
X0259250Y0821440D02*
X0259250Y0824200D01*
X0306890Y0824200D01*
X0312790Y0817900D02*
X0312790Y0784830D01*
X0312820Y0784450D01*
X0312880Y0784070D01*
X0312980Y0783700D01*
X0313120Y0783340D01*
X0313280Y0782990D01*
X0313480Y0782670D01*
X0313710Y0782360D01*
X0313970Y0782070D01*
X0314260Y0781810D01*
X0314570Y0781580D01*
X0314890Y0781380D01*
X0315240Y0781220D01*
X0315600Y0781080D01*
X0315970Y0780980D01*
X0316350Y0780920D01*
X0316730Y0780890D01*
X0317050Y0780900D01*
X0317360Y0780860D01*
X0317670Y0780790D01*
X0317970Y0780680D01*
X0318250Y0780540D01*
X0318510Y0780360D01*
X0318750Y0780150D01*
X0318960Y0779910D01*
X0319140Y0779650D01*
X0319280Y0779370D01*
X0319390Y0779070D01*
X0319460Y0778760D01*
X0319500Y0778450D01*
X0319490Y0778130D01*
X0319490Y0778140D02*
X0319490Y0774990D01*
X0263250Y0829170D02*
X0262580Y0828500D01*
X0261250Y0828500D01*
X0260580Y0829170D01*
X0260580Y0832500D01*
X0258650Y0832500D02*
X0255980Y0832500D01*
X0255980Y0831840D01*
X0258650Y0829170D01*
X0258650Y0828500D01*
X0263250Y0829170D02*
X0263250Y0832500D01*
X0227980Y0783100D02*
X0226650Y0783100D01*
X0225980Y0782440D01*
X0224050Y0781770D02*
X0222710Y0783100D01*
X0222710Y0779100D01*
X0221380Y0779100D02*
X0224050Y0779100D01*
X0225980Y0779770D02*
X0226650Y0779100D01*
X0227980Y0779100D01*
X0228650Y0779770D01*
X0228650Y0782440D01*
X0227980Y0783100D01*
X0219440Y0782440D02*
X0219440Y0781770D01*
X0218770Y0781100D01*
X0216770Y0781100D01*
X0216770Y0779770D02*
X0216770Y0782440D01*
X0217440Y0783100D01*
X0218770Y0783100D01*
X0219440Y0782440D01*
X0219440Y0779770D02*
X0218770Y0779100D01*
X0217440Y0779100D01*
X0216770Y0779770D01*
X0214810Y0785620D02*
X0214810Y0787980D01*
X0210090Y0787980D02*
X0210090Y0785620D01*
X0206000Y0785390D02*
X0206000Y0784060D01*
X0205340Y0783390D01*
X0205340Y0781460D02*
X0206000Y0780790D01*
X0206000Y0779460D01*
X0205340Y0778790D01*
X0202670Y0778790D01*
X0202000Y0779460D01*
X0202000Y0780790D01*
X0202670Y0781460D01*
X0202000Y0783390D02*
X0204670Y0786060D01*
X0205340Y0786060D01*
X0206000Y0785390D01*
X0204000Y0788000D02*
X0204000Y0790000D01*
X0203330Y0790660D01*
X0202670Y0790660D01*
X0202000Y0790000D01*
X0202000Y0788660D01*
X0202670Y0788000D01*
X0204000Y0788000D01*
X0205340Y0789330D01*
X0206000Y0790660D01*
X0202000Y0786060D02*
X0202000Y0783390D01*
X0199660Y0784520D02*
X0199660Y0786880D01*
X0194940Y0786880D02*
X0194940Y0784520D01*
X0200570Y0798240D02*
X0199900Y0798910D01*
X0199900Y0800240D01*
X0200570Y0800910D01*
X0199900Y0802840D02*
X0202570Y0805510D01*
X0203240Y0805510D01*
X0203900Y0804840D01*
X0203900Y0803510D01*
X0203240Y0802840D01*
X0203240Y0800910D02*
X0203900Y0800240D01*
X0203900Y0798910D01*
X0203240Y0798240D01*
X0200570Y0798240D01*
X0199900Y0802840D02*
X0199900Y0805510D01*
X0201900Y0807450D02*
X0201900Y0810110D01*
X0199900Y0809450D02*
X0203900Y0809450D01*
X0201900Y0807450D01*
X0206140Y0805130D02*
X0206140Y0802770D01*
X0210860Y0802770D02*
X0210860Y0805130D01*
X0210800Y0814000D02*
X0210130Y0814670D01*
X0210800Y0814000D02*
X0212130Y0814000D01*
X0212800Y0814670D01*
X0212800Y0817340D01*
X0212130Y0818000D01*
X0210800Y0818000D01*
X0210130Y0817340D01*
X0208200Y0817340D02*
X0207530Y0818000D01*
X0206190Y0818000D01*
X0205530Y0817340D01*
X0205530Y0816670D01*
X0208200Y0814000D01*
X0205530Y0814000D01*
X0203590Y0814670D02*
X0202920Y0814000D01*
X0201590Y0814000D01*
X0200920Y0814670D01*
X0200920Y0815330D01*
X0201590Y0816000D01*
X0202260Y0816000D01*
X0201590Y0816000D02*
X0200920Y0816670D01*
X0200920Y0817340D01*
X0201590Y0818000D01*
X0202920Y0818000D01*
X0203590Y0817340D01*
X0218020Y0818060D02*
X0220380Y0818060D01*
X0220380Y0813340D02*
X0218020Y0813340D01*
X0214930Y0770860D02*
X0212570Y0770860D01*
X0212570Y0766140D02*
X0214930Y0766140D01*
X0220170Y0767120D02*
X0220840Y0766450D01*
X0222170Y0766450D01*
X0222840Y0767120D01*
X0222840Y0768450D02*
X0221510Y0769120D01*
X0220840Y0769120D01*
X0220170Y0768450D01*
X0220170Y0767120D01*
X0222840Y0768450D02*
X0222840Y0770450D01*
X0220170Y0770450D01*
X0224780Y0769790D02*
X0225440Y0770450D01*
X0226780Y0770450D01*
X0227450Y0769790D01*
X0229380Y0769790D02*
X0230050Y0770450D01*
X0231380Y0770450D01*
X0232050Y0769790D01*
X0232050Y0767120D01*
X0231380Y0766450D01*
X0230050Y0766450D01*
X0229380Y0767120D01*
X0227450Y0766450D02*
X0224780Y0769120D01*
X0224780Y0769790D01*
X0224780Y0766450D02*
X0227450Y0766450D01*
X0246290Y0747990D02*
X0246290Y0747320D01*
X0246950Y0746650D01*
X0246290Y0745980D01*
X0246290Y0745320D01*
X0246950Y0744650D01*
X0248290Y0744650D01*
X0248950Y0745320D01*
X0247620Y0746650D02*
X0246950Y0746650D01*
X0246290Y0747990D02*
X0246950Y0748650D01*
X0248290Y0748650D01*
X0248950Y0747990D01*
X0250890Y0747990D02*
X0250890Y0747320D01*
X0251560Y0746650D01*
X0250890Y0745980D01*
X0250890Y0745320D01*
X0251560Y0744650D01*
X0252890Y0744650D01*
X0253560Y0745320D01*
X0252220Y0746650D02*
X0251560Y0746650D01*
X0250890Y0747990D02*
X0251560Y0748650D01*
X0252890Y0748650D01*
X0253560Y0747990D01*
X0255490Y0747990D02*
X0255490Y0746650D01*
X0256160Y0745980D01*
X0258160Y0745980D01*
X0258160Y0744650D02*
X0258160Y0748650D01*
X0256160Y0748650D01*
X0255490Y0747990D01*
X0256830Y0745980D02*
X0255490Y0744650D01*
X0252830Y0742860D02*
X0250470Y0742860D01*
X0250470Y0738140D02*
X0252830Y0738140D01*
X0259840Y0730330D02*
X0259840Y0727970D01*
X0104950Y0760790D02*
X0101620Y0760790D01*
X0100950Y0761460D01*
X0100950Y0762790D01*
X0101620Y0763460D01*
X0104950Y0763460D01*
X0103620Y0765390D02*
X0104950Y0766730D01*
X0100950Y0766730D01*
X0100950Y0768060D02*
X0100950Y0765390D01*
X0100950Y0770000D02*
X0100950Y0772660D01*
X0100950Y0771330D02*
X0104950Y0771330D01*
X0103620Y0770000D01*
X0098450Y0772800D02*
X0098450Y0758600D01*
X0095680Y0761800D02*
X0095700Y0761950D01*
X0095760Y0762080D01*
X0095850Y0762200D01*
X0095960Y0762290D01*
X0096100Y0762350D01*
X0096250Y0762370D01*
X0096400Y0762350D01*
X0096530Y0762290D01*
X0096650Y0762200D01*
X0096740Y0762090D01*
X0096800Y0761950D01*
X0096820Y0761800D01*
X0096800Y0761650D01*
X0096740Y0761520D01*
X0096650Y0761400D01*
X0096540Y0761310D01*
X0096400Y0761250D01*
X0096250Y0761230D01*
X0096100Y0761250D01*
X0095970Y0761310D01*
X0095850Y0761400D01*
X0095760Y0761510D01*
X0095700Y0761650D01*
X0095680Y0761800D01*
X0079850Y0758600D02*
X0079850Y0772800D01*
X0093940Y0787220D02*
X0093940Y0789580D01*
X0098660Y0789580D02*
X0098660Y0787220D01*
X0101450Y0786750D02*
X0101450Y0785420D01*
X0102120Y0784750D01*
X0104790Y0784750D01*
X0105450Y0785420D01*
X0105450Y0786750D01*
X0104790Y0787420D01*
X0105450Y0789350D02*
X0103450Y0789350D01*
X0104120Y0790690D01*
X0104120Y0791360D01*
X0103450Y0792020D01*
X0102120Y0792020D01*
X0101450Y0791360D01*
X0101450Y0790020D01*
X0102120Y0789350D01*
X0102120Y0787420D02*
X0101450Y0786750D01*
X0105450Y0789350D02*
X0105450Y0792020D01*
X0105680Y0688150D02*
X0106350Y0687490D01*
X0106350Y0684820D01*
X0105680Y0684150D01*
X0104350Y0684150D01*
X0103680Y0684820D01*
X0101750Y0684820D02*
X0101080Y0684150D01*
X0099740Y0684150D01*
X0099080Y0684820D01*
X0099080Y0687490D01*
X0099740Y0688150D01*
X0101080Y0688150D01*
X0101750Y0687490D01*
X0101750Y0686820D01*
X0101080Y0686150D01*
X0099080Y0686150D01*
X0102070Y0681560D02*
X0104430Y0681560D01*
X0104430Y0676840D02*
X0102070Y0676840D01*
X0103680Y0687490D02*
X0104350Y0688150D01*
X0105680Y0688150D01*
D672*
X0019500Y0482000D02*
X0019500Y0873000D01*
X0325500Y0873000D01*
X0325500Y0482000D01*
X0019500Y0482000D01*
D672*
X0023000Y0010500D02*
X0010500Y0010500D01*
X0010500Y0023000D01*
X0359500Y0023000D02*
X0359500Y0010500D01*
X0347000Y0010500D01*
X0347000Y0882000D02*
X0359500Y0882000D01*
X0359500Y0869500D01*
X0010500Y0869500D02*
X0010500Y0882000D01*
X0023000Y0882000D01*
M02*
