G75*
G70*
%OFA0B0*%
%FSLAX25Y25*%
%IPPOS*%
%LPD*%
%AMOC8*
5,1,8,0,0,1.08239X$1,22.5*
%
%ADD830C,0.00000*%
%ADD840C,0.00500*%
X0020000Y0020000D02*
G75*
%LPD*%
D830*
X0020000Y0020000D02*
X0020000Y0470000D01*
X0350000Y0470000D01*
X0350000Y0020000D01*
X0020000Y0020000D01*
X0033500Y0070000D02*
X0033520Y0070500D01*
X0033580Y0071000D01*
X0033680Y0071500D01*
X0033810Y0071980D01*
X0033980Y0072460D01*
X0034190Y0072920D01*
X0034430Y0073360D01*
X0034710Y0073780D01*
X0035020Y0074180D01*
X0035360Y0074550D01*
X0035730Y0074900D01*
X0036120Y0075210D01*
X0036530Y0075500D01*
X0036970Y0075750D01*
X0037430Y0075970D01*
X0037900Y0076150D01*
X0038380Y0076290D01*
X0038870Y0076400D01*
X0039370Y0076470D01*
X0039870Y0076500D01*
X0040380Y0076490D01*
X0040880Y0076440D01*
X0041380Y0076350D01*
X0041860Y0076230D01*
X0042340Y0076060D01*
X0042800Y0075860D01*
X0043250Y0075630D01*
X0043680Y0075360D01*
X0044080Y0075060D01*
X0044460Y0074730D01*
X0044810Y0074370D01*
X0045140Y0073980D01*
X0045430Y0073570D01*
X0045690Y0073140D01*
X0045920Y0072690D01*
X0046110Y0072220D01*
X0046260Y0071740D01*
X0046380Y0071250D01*
X0046460Y0070750D01*
X0046500Y0070250D01*
X0046500Y0069750D01*
X0046460Y0069250D01*
X0046380Y0068750D01*
X0046260Y0068260D01*
X0046110Y0067780D01*
X0045920Y0067310D01*
X0045690Y0066860D01*
X0045430Y0066430D01*
X0045140Y0066020D01*
X0044810Y0065630D01*
X0044460Y0065270D01*
X0044080Y0064940D01*
X0043680Y0064640D01*
X0043250Y0064370D01*
X0042800Y0064140D01*
X0042340Y0063940D01*
X0041860Y0063770D01*
X0041380Y0063650D01*
X0040880Y0063560D01*
X0040380Y0063510D01*
X0039870Y0063500D01*
X0039370Y0063530D01*
X0038870Y0063600D01*
X0038380Y0063710D01*
X0037900Y0063850D01*
X0037430Y0064030D01*
X0036970Y0064250D01*
X0036530Y0064500D01*
X0036120Y0064790D01*
X0035730Y0065100D01*
X0035360Y0065450D01*
X0035020Y0065820D01*
X0034710Y0066220D01*
X0034430Y0066640D01*
X0034190Y0067080D01*
X0033980Y0067540D01*
X0033810Y0068020D01*
X0033680Y0068500D01*
X0033580Y0069000D01*
X0033520Y0069500D01*
X0033500Y0070000D01*
X0157640Y0053860D02*
X0157660Y0054160D01*
X0157720Y0054460D01*
X0157810Y0054750D01*
X0157940Y0055020D01*
X0158110Y0055270D01*
X0158300Y0055500D01*
X0158530Y0055710D01*
X0158780Y0055880D01*
X0159040Y0056020D01*
X0159330Y0056120D01*
X0159620Y0056190D01*
X0159920Y0056220D01*
X0160230Y0056210D01*
X0160530Y0056160D01*
X0160820Y0056070D01*
X0161090Y0055950D01*
X0161350Y0055800D01*
X0161590Y0055610D01*
X0161800Y0055390D01*
X0161980Y0055150D01*
X0162130Y0054880D01*
X0162240Y0054600D01*
X0162320Y0054310D01*
X0162360Y0054010D01*
X0162360Y0053710D01*
X0162320Y0053410D01*
X0162240Y0053120D01*
X0162130Y0052840D01*
X0161980Y0052570D01*
X0161800Y0052330D01*
X0161590Y0052110D01*
X0161350Y0051920D01*
X0161090Y0051770D01*
X0160820Y0051650D01*
X0160530Y0051560D01*
X0160230Y0051510D01*
X0159920Y0051500D01*
X0159620Y0051530D01*
X0159330Y0051600D01*
X0159040Y0051700D01*
X0158780Y0051840D01*
X0158530Y0052010D01*
X0158300Y0052220D01*
X0158110Y0052450D01*
X0157940Y0052700D01*
X0157810Y0052970D01*
X0157720Y0053260D01*
X0157660Y0053560D01*
X0157640Y0053860D01*
X0157640Y0026300D02*
X0157660Y0026600D01*
X0157720Y0026900D01*
X0157810Y0027190D01*
X0157940Y0027460D01*
X0158110Y0027710D01*
X0158300Y0027940D01*
X0158530Y0028150D01*
X0158780Y0028320D01*
X0159040Y0028460D01*
X0159330Y0028560D01*
X0159620Y0028630D01*
X0159920Y0028660D01*
X0160230Y0028650D01*
X0160530Y0028600D01*
X0160820Y0028510D01*
X0161090Y0028390D01*
X0161350Y0028240D01*
X0161590Y0028050D01*
X0161800Y0027830D01*
X0161980Y0027590D01*
X0162130Y0027320D01*
X0162240Y0027040D01*
X0162320Y0026750D01*
X0162360Y0026450D01*
X0162360Y0026150D01*
X0162320Y0025850D01*
X0162240Y0025560D01*
X0162130Y0025280D01*
X0161980Y0025010D01*
X0161800Y0024770D01*
X0161590Y0024550D01*
X0161350Y0024360D01*
X0161090Y0024210D01*
X0160820Y0024090D01*
X0160530Y0024000D01*
X0160230Y0023950D01*
X0159920Y0023940D01*
X0159620Y0023970D01*
X0159330Y0024040D01*
X0159040Y0024140D01*
X0158780Y0024280D01*
X0158530Y0024450D01*
X0158300Y0024660D01*
X0158110Y0024890D01*
X0157940Y0025140D01*
X0157810Y0025410D01*
X0157720Y0025700D01*
X0157660Y0026000D01*
X0157640Y0026300D01*
X0323500Y0070000D02*
X0323520Y0070500D01*
X0323580Y0071000D01*
X0323680Y0071500D01*
X0323810Y0071980D01*
X0323980Y0072460D01*
X0324190Y0072920D01*
X0324430Y0073360D01*
X0324710Y0073780D01*
X0325020Y0074180D01*
X0325360Y0074550D01*
X0325730Y0074900D01*
X0326120Y0075210D01*
X0326530Y0075500D01*
X0326970Y0075750D01*
X0327430Y0075970D01*
X0327900Y0076150D01*
X0328380Y0076290D01*
X0328870Y0076400D01*
X0329370Y0076470D01*
X0329870Y0076500D01*
X0330380Y0076490D01*
X0330880Y0076440D01*
X0331380Y0076350D01*
X0331860Y0076230D01*
X0332340Y0076060D01*
X0332800Y0075860D01*
X0333250Y0075630D01*
X0333680Y0075360D01*
X0334080Y0075060D01*
X0334460Y0074730D01*
X0334810Y0074370D01*
X0335140Y0073980D01*
X0335430Y0073570D01*
X0335690Y0073140D01*
X0335920Y0072690D01*
X0336110Y0072220D01*
X0336260Y0071740D01*
X0336380Y0071250D01*
X0336460Y0070750D01*
X0336500Y0070250D01*
X0336500Y0069750D01*
X0336460Y0069250D01*
X0336380Y0068750D01*
X0336260Y0068260D01*
X0336110Y0067780D01*
X0335920Y0067310D01*
X0335690Y0066860D01*
X0335430Y0066430D01*
X0335140Y0066020D01*
X0334810Y0065630D01*
X0334460Y0065270D01*
X0334080Y0064940D01*
X0333680Y0064640D01*
X0333250Y0064370D01*
X0332800Y0064140D01*
X0332340Y0063940D01*
X0331860Y0063770D01*
X0331380Y0063650D01*
X0330880Y0063560D01*
X0330380Y0063510D01*
X0329870Y0063500D01*
X0329370Y0063530D01*
X0328870Y0063600D01*
X0328380Y0063710D01*
X0327900Y0063850D01*
X0327430Y0064030D01*
X0326970Y0064250D01*
X0326530Y0064500D01*
X0326120Y0064790D01*
X0325730Y0065100D01*
X0325360Y0065450D01*
X0325020Y0065820D01*
X0324710Y0066220D01*
X0324430Y0066640D01*
X0324190Y0067080D01*
X0323980Y0067540D01*
X0323810Y0068020D01*
X0323680Y0068500D01*
X0323580Y0069000D01*
X0323520Y0069500D01*
X0323500Y0070000D01*
X0323500Y0440000D02*
X0323520Y0440500D01*
X0323580Y0441000D01*
X0323680Y0441500D01*
X0323810Y0441980D01*
X0323980Y0442460D01*
X0324190Y0442920D01*
X0324430Y0443360D01*
X0324710Y0443780D01*
X0325020Y0444180D01*
X0325360Y0444550D01*
X0325730Y0444900D01*
X0326120Y0445210D01*
X0326530Y0445500D01*
X0326970Y0445750D01*
X0327430Y0445970D01*
X0327900Y0446150D01*
X0328380Y0446290D01*
X0328870Y0446400D01*
X0329370Y0446470D01*
X0329870Y0446500D01*
X0330380Y0446490D01*
X0330880Y0446440D01*
X0331380Y0446350D01*
X0331860Y0446230D01*
X0332340Y0446060D01*
X0332800Y0445860D01*
X0333250Y0445630D01*
X0333680Y0445360D01*
X0334080Y0445060D01*
X0334460Y0444730D01*
X0334810Y0444370D01*
X0335140Y0443980D01*
X0335430Y0443570D01*
X0335690Y0443140D01*
X0335920Y0442690D01*
X0336110Y0442220D01*
X0336260Y0441740D01*
X0336380Y0441250D01*
X0336460Y0440750D01*
X0336500Y0440250D01*
X0336500Y0439750D01*
X0336460Y0439250D01*
X0336380Y0438750D01*
X0336260Y0438260D01*
X0336110Y0437780D01*
X0335920Y0437310D01*
X0335690Y0436860D01*
X0335430Y0436430D01*
X0335140Y0436020D01*
X0334810Y0435630D01*
X0334460Y0435270D01*
X0334080Y0434940D01*
X0333680Y0434640D01*
X0333250Y0434370D01*
X0332800Y0434140D01*
X0332340Y0433940D01*
X0331860Y0433770D01*
X0331380Y0433650D01*
X0330880Y0433560D01*
X0330380Y0433510D01*
X0329870Y0433500D01*
X0329370Y0433530D01*
X0328870Y0433600D01*
X0328380Y0433710D01*
X0327900Y0433850D01*
X0327430Y0434030D01*
X0326970Y0434250D01*
X0326530Y0434500D01*
X0326120Y0434790D01*
X0325730Y0435100D01*
X0325360Y0435450D01*
X0325020Y0435820D01*
X0324710Y0436220D01*
X0324430Y0436640D01*
X0324190Y0437080D01*
X0323980Y0437540D01*
X0323810Y0438020D01*
X0323680Y0438500D01*
X0323580Y0439000D01*
X0323520Y0439500D01*
X0323500Y0440000D01*
X0033500Y0440000D02*
X0033520Y0440500D01*
X0033580Y0441000D01*
X0033680Y0441500D01*
X0033810Y0441980D01*
X0033980Y0442460D01*
X0034190Y0442920D01*
X0034430Y0443360D01*
X0034710Y0443780D01*
X0035020Y0444180D01*
X0035360Y0444550D01*
X0035730Y0444900D01*
X0036120Y0445210D01*
X0036530Y0445500D01*
X0036970Y0445750D01*
X0037430Y0445970D01*
X0037900Y0446150D01*
X0038380Y0446290D01*
X0038870Y0446400D01*
X0039370Y0446470D01*
X0039870Y0446500D01*
X0040380Y0446490D01*
X0040880Y0446440D01*
X0041380Y0446350D01*
X0041860Y0446230D01*
X0042340Y0446060D01*
X0042800Y0445860D01*
X0043250Y0445630D01*
X0043680Y0445360D01*
X0044080Y0445060D01*
X0044460Y0444730D01*
X0044810Y0444370D01*
X0045140Y0443980D01*
X0045430Y0443570D01*
X0045690Y0443140D01*
X0045920Y0442690D01*
X0046110Y0442220D01*
X0046260Y0441740D01*
X0046380Y0441250D01*
X0046460Y0440750D01*
X0046500Y0440250D01*
X0046500Y0439750D01*
X0046460Y0439250D01*
X0046380Y0438750D01*
X0046260Y0438260D01*
X0046110Y0437780D01*
X0045920Y0437310D01*
X0045690Y0436860D01*
X0045430Y0436430D01*
X0045140Y0436020D01*
X0044810Y0435630D01*
X0044460Y0435270D01*
X0044080Y0434940D01*
X0043680Y0434640D01*
X0043250Y0434370D01*
X0042800Y0434140D01*
X0042340Y0433940D01*
X0041860Y0433770D01*
X0041380Y0433650D01*
X0040880Y0433560D01*
X0040380Y0433510D01*
X0039870Y0433500D01*
X0039370Y0433530D01*
X0038870Y0433600D01*
X0038380Y0433710D01*
X0037900Y0433850D01*
X0037430Y0434030D01*
X0036970Y0434250D01*
X0036530Y0434500D01*
X0036120Y0434790D01*
X0035730Y0435100D01*
X0035360Y0435450D01*
X0035020Y0435820D01*
X0034710Y0436220D01*
X0034430Y0436640D01*
X0034190Y0437080D01*
X0033980Y0437540D01*
X0033810Y0438020D01*
X0033680Y0438500D01*
X0033580Y0439000D01*
X0033520Y0439500D01*
X0033500Y0440000D01*
X0020000Y0482500D02*
G75*
%LPD*%
D840*
X0020000Y0482500D02*
X0020000Y0872500D01*
X0291000Y0872500D01*
X0291000Y0863500D01*
X0291020Y0863110D01*
X0291080Y0862720D01*
X0291170Y0862340D01*
X0291300Y0861970D01*
X0291470Y0861610D01*
X0291670Y0861280D01*
X0291910Y0860960D01*
X0292170Y0860670D01*
X0292460Y0860410D01*
X0292780Y0860170D01*
X0293110Y0859970D01*
X0293470Y0859800D01*
X0293840Y0859670D01*
X0294220Y0859580D01*
X0294610Y0859520D01*
X0295000Y0859500D01*
X0295390Y0859520D01*
X0295780Y0859580D01*
X0296160Y0859670D01*
X0296530Y0859800D01*
X0296890Y0859970D01*
X0297220Y0860170D01*
X0297540Y0860410D01*
X0297830Y0860670D01*
X0298090Y0860960D01*
X0298330Y0861280D01*
X0298530Y0861610D01*
X0298700Y0861970D01*
X0298830Y0862340D01*
X0298920Y0862720D01*
X0298980Y0863110D01*
X0299000Y0863500D01*
X0299000Y0872500D01*
X0325000Y0872500D01*
X0325000Y0482500D01*
X0299000Y0482500D01*
X0299000Y0492500D01*
X0298980Y0492890D01*
X0298920Y0493280D01*
X0298830Y0493660D01*
X0298700Y0494030D01*
X0298530Y0494390D01*
X0298330Y0494720D01*
X0298090Y0495040D01*
X0297830Y0495330D01*
X0297540Y0495590D01*
X0297220Y0495830D01*
X0296890Y0496030D01*
X0296530Y0496200D01*
X0296160Y0496330D01*
X0295780Y0496420D01*
X0295390Y0496480D01*
X0295000Y0496500D01*
X0294610Y0496480D01*
X0294220Y0496420D01*
X0293840Y0496330D01*
X0293470Y0496200D01*
X0293110Y0496030D01*
X0292780Y0495830D01*
X0292460Y0495590D01*
X0292170Y0495330D01*
X0291910Y0495040D01*
X0291670Y0494720D01*
X0291470Y0494390D01*
X0291300Y0494030D01*
X0291170Y0493660D01*
X0291080Y0493280D01*
X0291020Y0492890D01*
X0291000Y0492500D01*
X0291000Y0482500D01*
X0020000Y0482500D01*
M02*
