%
M48
M72
T01C0.0197
T02C0.0236
T03C0.0315
T04C0.0400
T05C0.0472
T06C0.0512
T07C0.0591
T08C0.0630
%
T01
X8440Y9910
X9740Y8650
X9200Y8110
X7260Y11350
X11060Y11450
X15700Y13890
X16300Y13250
X17160Y16050
X16920Y16790
X16730Y21070
X16580Y22410
X16980Y22710
X17380Y22270
X17860Y22550
X15960Y22450
X15090Y22370
X14900Y23450
X14650Y23950
X17920Y24730
X19520Y24130
X22760Y24450
X23320Y24090
X23760Y23790
X24260Y23510
X25050Y23050
X25140Y21330
X24950Y20150
X24600Y19300
X23180Y20850
X21560Y20210
X27500Y22870
X29280Y20850
X25940Y27370
X24420Y31990
X24720Y32390
X24720Y33230
X24200Y33330
X23300Y34800
X25500Y34950
X23820Y31990
X23260Y31990
X20660Y29870
X28060Y13430
X28620Y12530
X6600Y20350
X6300Y34330
X6300Y35270
T02
X10800Y32650
X11200Y32250
X10800Y31850
X11200Y31450
X10800Y31050
X11600Y31050
X12000Y31450
X11600Y31850
X12000Y32250
X11600Y32650
X12400Y32650
X12400Y31850
X12400Y31050
X13500Y31350
X13500Y30550
X14300Y30550
X14300Y31350
X14300Y32150
X15100Y32150
X15100Y31350
X15100Y30550
X15900Y30550
X15900Y31350
X15900Y32150
X16850Y30800
X17830Y29550
X18550Y26250
X17500Y25450
X14650Y26900
X12300Y27550
X9500Y24700
X8350Y23050
X7100Y21700
X7800Y26300
X7850Y27100
X8150Y27800
X7000Y27350
X12500Y23550
X13650Y21850
X13500Y32150
X12950Y35600
X11900Y35600
X20050Y34050
X23950Y26250
T03
X30000Y27866
X30000Y29834
X24143Y14181
X23356Y14181
X22569Y14181
X21781Y14181
X20994Y14181
X20206Y14181
X19419Y14181
X18631Y14181
X17844Y14181
X17057Y14181
X17057Y5519
X17844Y5519
X18631Y5519
X19419Y5519
X20206Y5519
X20994Y5519
X21781Y5519
X22569Y5519
X23356Y5519
X24143Y5519
X29206Y12063
X29206Y12850
X29206Y13637
X29994Y13637
X29994Y12850
X29994Y12063
T04
X7520Y6040
X8520Y5940
X9520Y6040
X10520Y5940
X10900Y22450
X10900Y23550
X10900Y25500
X10900Y26600
X29750Y24650
X29850Y25650
X29850Y23650
X29750Y22650
X29850Y21650
T05
X29016Y27472
X29016Y30228
X29600Y14661
X29600Y11039
T06
X10650Y17216
X10650Y19184
T07
X26800Y32750
T08
X25796Y33754
X25796Y31746
X27804Y31746
X27804Y33754
M30
