G75*
%MOIN*%
%OFA0B0*%
%FSLAX24Y24*%
%IPPOS*%
%LPD*%
%AMOC8*
5,1,8,0,0,1.08239X$1,22.5*
%
%ADD10R,0.0118X0.0059*%
%ADD11R,0.0118X0.0118*%
%ADD12C,0.0100*%
%ADD13C,0.0120*%
%ADD14C,0.0320*%
%ADD15R,0.0079X0.0079*%
%ADD16R,0.0028X0.0001*%
%ADD17R,0.0026X0.0001*%
%ADD18R,0.0042X0.0001*%
%ADD19R,0.0038X0.0001*%
%ADD20R,0.0053X0.0001*%
%ADD21R,0.0047X0.0001*%
%ADD22R,0.0060X0.0001*%
%ADD23R,0.0055X0.0001*%
%ADD24R,0.0068X0.0001*%
%ADD25R,0.0061X0.0001*%
%ADD26R,0.0049X0.0001*%
%ADD27R,0.0050X0.0001*%
%ADD28R,0.0051X0.0001*%
%ADD29R,0.0073X0.0001*%
%ADD30R,0.0046X0.0001*%
%ADD31R,0.0067X0.0001*%
%ADD32R,0.0032X0.0001*%
%ADD33R,0.0172X0.0001*%
%ADD34R,0.0056X0.0001*%
%ADD35R,0.0049X0.0001*%
%ADD36R,0.0050X0.0001*%
%ADD37R,0.0051X0.0001*%
%ADD38R,0.0079X0.0001*%
%ADD39R,0.0049X0.0001*%
%ADD40R,0.0047X0.0001*%
%ADD41R,0.0051X0.0001*%
%ADD42R,0.0072X0.0001*%
%ADD43R,0.0031X0.0001*%
%ADD44R,0.0172X0.0001*%
%ADD45R,0.0057X0.0001*%
%ADD46R,0.0084X0.0001*%
%ADD47R,0.0046X0.0001*%
%ADD48R,0.0077X0.0001*%
%ADD49R,0.0032X0.0001*%
%ADD50R,0.0058X0.0001*%
%ADD51R,0.0089X0.0001*%
%ADD52R,0.0081X0.0001*%
%ADD53R,0.0093X0.0001*%
%ADD54R,0.0085X0.0001*%
%ADD55R,0.0059X0.0001*%
%ADD56R,0.0048X0.0001*%
%ADD57R,0.0097X0.0001*%
%ADD58R,0.0053X0.0001*%
%ADD59R,0.0089X0.0001*%
%ADD60R,0.0033X0.0001*%
%ADD61R,0.0172X0.0001*%
%ADD62R,0.0060X0.0001*%
%ADD63R,0.0048X0.0001*%
%ADD64R,0.0101X0.0001*%
%ADD65R,0.0046X0.0001*%
%ADD66R,0.0092X0.0001*%
%ADD67R,0.0172X0.0001*%
%ADD68R,0.0105X0.0001*%
%ADD69R,0.0054X0.0001*%
%ADD70R,0.0096X0.0001*%
%ADD71R,0.0033X0.0001*%
%ADD72R,0.0108X0.0001*%
%ADD73R,0.0099X0.0001*%
%ADD74R,0.0062X0.0001*%
%ADD75R,0.0111X0.0001*%
%ADD76R,0.0056X0.0001*%
%ADD77R,0.0102X0.0001*%
%ADD78R,0.0061X0.0001*%
%ADD79R,0.0049X0.0001*%
%ADD80R,0.0115X0.0001*%
%ADD81R,0.0047X0.0001*%
%ADD82R,0.0105X0.0001*%
%ADD83R,0.0034X0.0001*%
%ADD84R,0.0062X0.0001*%
%ADD85R,0.0118X0.0001*%
%ADD86R,0.0034X0.0001*%
%ADD87R,0.0063X0.0001*%
%ADD88R,0.0121X0.0001*%
%ADD89R,0.0057X0.0001*%
%ADD90R,0.0110X0.0001*%
%ADD91R,0.0033X0.0001*%
%ADD92R,0.0123X0.0001*%
%ADD93R,0.0058X0.0001*%
%ADD94R,0.0113X0.0001*%
%ADD95R,0.0034X0.0001*%
%ADD96R,0.0064X0.0001*%
%ADD97R,0.0126X0.0001*%
%ADD98R,0.0115X0.0001*%
%ADD99R,0.0065X0.0001*%
%ADD100R,0.0047X0.0001*%
%ADD101R,0.0128X0.0001*%
%ADD102R,0.0059X0.0001*%
%ADD103R,0.0117X0.0001*%
%ADD104R,0.0034X0.0001*%
%ADD105R,0.0065X0.0001*%
%ADD106R,0.0131X0.0001*%
%ADD107R,0.0120X0.0001*%
%ADD108R,0.0035X0.0001*%
%ADD109R,0.0066X0.0001*%
%ADD110R,0.0134X0.0001*%
%ADD111R,0.0122X0.0001*%
%ADD112R,0.0067X0.0001*%
%ADD113R,0.0136X0.0001*%
%ADD114R,0.0124X0.0001*%
%ADD115R,0.0138X0.0001*%
%ADD116R,0.0127X0.0001*%
%ADD117R,0.0068X0.0001*%
%ADD118R,0.0140X0.0001*%
%ADD119R,0.0062X0.0001*%
%ADD120R,0.0129X0.0001*%
%ADD121R,0.0035X0.0001*%
%ADD122R,0.0069X0.0001*%
%ADD123R,0.0142X0.0001*%
%ADD124R,0.0062X0.0001*%
%ADD125R,0.0130X0.0001*%
%ADD126R,0.0036X0.0001*%
%ADD127R,0.0069X0.0001*%
%ADD128R,0.0048X0.0001*%
%ADD129R,0.0145X0.0001*%
%ADD130R,0.0132X0.0001*%
%ADD131R,0.0070X0.0001*%
%ADD132R,0.0147X0.0001*%
%ADD133R,0.0071X0.0001*%
%ADD134R,0.0148X0.0001*%
%ADD135R,0.0137X0.0001*%
%ADD136R,0.0150X0.0001*%
%ADD137R,0.0064X0.0001*%
%ADD138R,0.0138X0.0001*%
%ADD139R,0.0036X0.0001*%
%ADD140R,0.0072X0.0001*%
%ADD141R,0.0152X0.0001*%
%ADD142R,0.0140X0.0001*%
%ADD143R,0.0154X0.0001*%
%ADD144R,0.0066X0.0001*%
%ADD145R,0.0178X0.0001*%
%ADD146R,0.0156X0.0001*%
%ADD147R,0.0179X0.0001*%
%ADD148R,0.0073X0.0001*%
%ADD149R,0.0157X0.0001*%
%ADD150R,0.0180X0.0001*%
%ADD151R,0.0074X0.0001*%
%ADD152R,0.0159X0.0001*%
%ADD153R,0.0046X0.0001*%
%ADD154R,0.0067X0.0001*%
%ADD155R,0.0181X0.0001*%
%ADD156R,0.0074X0.0001*%
%ADD157R,0.0160X0.0001*%
%ADD158R,0.0181X0.0001*%
%ADD159R,0.0075X0.0001*%
%ADD160R,0.0163X0.0001*%
%ADD161R,0.0183X0.0001*%
%ADD162R,0.0076X0.0001*%
%ADD163R,0.0164X0.0001*%
%ADD164R,0.0077X0.0001*%
%ADD165R,0.0165X0.0001*%
%ADD166R,0.0184X0.0001*%
%ADD167R,0.0167X0.0001*%
%ADD168R,0.0070X0.0001*%
%ADD169R,0.0185X0.0001*%
%ADD170R,0.0078X0.0001*%
%ADD171R,0.0168X0.0001*%
%ADD172R,0.0071X0.0001*%
%ADD173R,0.0185X0.0001*%
%ADD174R,0.0169X0.0001*%
%ADD175R,0.0186X0.0001*%
%ADD176R,0.0171X0.0001*%
%ADD177R,0.0187X0.0001*%
%ADD178R,0.0080X0.0001*%
%ADD179R,0.0087X0.0001*%
%ADD180R,0.0073X0.0001*%
%ADD181R,0.0069X0.0001*%
%ADD182R,0.0082X0.0001*%
%ADD183R,0.0081X0.0001*%
%ADD184R,0.0082X0.0001*%
%ADD185R,0.0083X0.0001*%
%ADD186R,0.0074X0.0001*%
%ADD187R,0.0048X0.0001*%
%ADD188R,0.0077X0.0001*%
%ADD189R,0.0084X0.0001*%
%ADD190R,0.0059X0.0001*%
%ADD191R,0.0078X0.0001*%
%ADD192R,0.0086X0.0001*%
%ADD193R,0.0057X0.0001*%
%ADD194R,0.0079X0.0001*%
%ADD195R,0.0087X0.0001*%
%ADD196R,0.0088X0.0001*%
%ADD197R,0.0090X0.0001*%
%ADD198R,0.0090X0.0001*%
%ADD199R,0.0083X0.0001*%
%ADD200R,0.0091X0.0001*%
%ADD201R,0.0053X0.0001*%
%ADD202R,0.0056X0.0001*%
%ADD203R,0.0052X0.0001*%
%ADD204R,0.0055X0.0001*%
%ADD205R,0.0052X0.0001*%
%ADD206R,0.0085X0.0001*%
%ADD207R,0.0054X0.0001*%
%ADD208R,0.0093X0.0001*%
%ADD209R,0.0052X0.0001*%
%ADD210R,0.0094X0.0001*%
%ADD211R,0.0095X0.0001*%
%ADD212R,0.0088X0.0001*%
%ADD213R,0.0052X0.0001*%
%ADD214R,0.0096X0.0001*%
%ADD215R,0.0097X0.0001*%
%ADD216R,0.0089X0.0001*%
%ADD217R,0.0098X0.0001*%
%ADD218R,0.0091X0.0001*%
%ADD219R,0.0100X0.0001*%
%ADD220R,0.0091X0.0001*%
%ADD221R,0.0100X0.0001*%
%ADD222R,0.0094X0.0001*%
%ADD223R,0.0096X0.0001*%
%ADD224R,0.0045X0.0001*%
%ADD225R,0.0045X0.0001*%
%ADD226R,0.0176X0.0001*%
%ADD227R,0.0176X0.0001*%
%ADD228R,0.0174X0.0001*%
%ADD229R,0.0173X0.0001*%
%ADD230R,0.0095X0.0001*%
%ADD231R,0.0170X0.0001*%
%ADD232R,0.0159X0.0001*%
%ADD233R,0.0160X0.0001*%
%ADD234R,0.0167X0.0001*%
%ADD235R,0.0166X0.0001*%
%ADD236R,0.0162X0.0001*%
%ADD237R,0.0158X0.0001*%
%ADD238R,0.0153X0.0001*%
%ADD239R,0.0156X0.0001*%
%ADD240R,0.0159X0.0001*%
%ADD241R,0.0157X0.0001*%
%ADD242R,0.0161X0.0001*%
%ADD243R,0.0164X0.0001*%
%ADD244R,0.0168X0.0001*%
%ADD245R,0.0170X0.0001*%
%ADD246R,0.0175X0.0001*%
%ADD247R,0.0159X0.0001*%
%ADD248R,0.0175X0.0001*%
%ADD249R,0.0176X0.0001*%
%ADD250R,0.0092X0.0001*%
%ADD251R,0.0054X0.0001*%
%ADD252R,0.0051X0.0001*%
%ADD253R,0.0091X0.0001*%
%ADD254R,0.0053X0.0001*%
%ADD255R,0.0088X0.0001*%
%ADD256R,0.0079X0.0001*%
%ADD257R,0.0087X0.0001*%
%ADD258R,0.0058X0.0001*%
%ADD259R,0.0083X0.0001*%
%ADD260R,0.0063X0.0001*%
%ADD261R,0.0076X0.0001*%
%ADD262R,0.0064X0.0001*%
%ADD263R,0.0063X0.0001*%
%ADD264R,0.0076X0.0001*%
%ADD265R,0.0082X0.0001*%
%ADD266R,0.0169X0.0001*%
%ADD267R,0.0067X0.0001*%
%ADD268R,0.0184X0.0001*%
%ADD269R,0.0080X0.0001*%
%ADD270R,0.0071X0.0001*%
%ADD271R,0.0169X0.0001*%
%ADD272R,0.0183X0.0001*%
%ADD273R,0.0182X0.0001*%
%ADD274R,0.0182X0.0001*%
%ADD275R,0.0076X0.0001*%
%ADD276R,0.0168X0.0001*%
%ADD277R,0.0071X0.0001*%
%ADD278R,0.0166X0.0001*%
%ADD279R,0.0181X0.0001*%
%ADD280R,0.0179X0.0001*%
%ADD281R,0.0073X0.0001*%
%ADD282R,0.0162X0.0001*%
%ADD283R,0.0179X0.0001*%
%ADD284R,0.0068X0.0001*%
%ADD285R,0.0072X0.0001*%
%ADD286R,0.0178X0.0001*%
%ADD287R,0.0177X0.0001*%
%ADD288R,0.0155X0.0001*%
%ADD289R,0.0154X0.0001*%
%ADD290R,0.0152X0.0001*%
%ADD291R,0.0151X0.0001*%
%ADD292R,0.0150X0.0001*%
%ADD293R,0.0149X0.0001*%
%ADD294R,0.0146X0.0001*%
%ADD295R,0.0173X0.0001*%
%ADD296R,0.0146X0.0001*%
%ADD297R,0.0144X0.0001*%
%ADD298R,0.0143X0.0001*%
%ADD299R,0.0171X0.0001*%
%ADD300R,0.0142X0.0001*%
%ADD301R,0.0061X0.0001*%
%ADD302R,0.0141X0.0001*%
%ADD303R,0.0139X0.0001*%
%ADD304R,0.0139X0.0001*%
%ADD305R,0.0135X0.0001*%
%ADD306R,0.0133X0.0001*%
%ADD307R,0.0167X0.0001*%
%ADD308R,0.0130X0.0001*%
%ADD309R,0.0058X0.0001*%
%ADD310R,0.0129X0.0001*%
%ADD311R,0.0169X0.0001*%
%ADD312R,0.0127X0.0001*%
%ADD313R,0.0125X0.0001*%
%ADD314R,0.0122X0.0001*%
%ADD315R,0.0161X0.0001*%
%ADD316R,0.0119X0.0001*%
%ADD317R,0.0116X0.0001*%
%ADD318R,0.0158X0.0001*%
%ADD319R,0.0113X0.0001*%
%ADD320R,0.0109X0.0001*%
%ADD321R,0.0107X0.0001*%
%ADD322R,0.0103X0.0001*%
%ADD323R,0.0102X0.0001*%
%ADD324R,0.0098X0.0001*%
%ADD325R,0.0143X0.0001*%
%ADD326R,0.0087X0.0001*%
%ADD327R,0.0133X0.0001*%
%ADD328R,0.0038X0.0001*%
%ADD329R,0.0038X0.0001*%
%ADD330R,0.0023X0.0001*%
%ADD331R,0.0022X0.0001*%
%ADD332R,0.0002X0.0001*%
%ADD333C,0.0240*%
%ADD334R,0.0340X0.0300*%
D10*
X027191Y015664D03*
X027191Y016136D03*
X027191Y016514D03*
X027191Y016986D03*
X027191Y017364D03*
X027191Y017836D03*
X027191Y018214D03*
X027191Y018686D03*
X027191Y019064D03*
X027191Y019536D03*
X027191Y019914D03*
X027191Y020386D03*
X028059Y020714D03*
X028059Y021186D03*
X029709Y035414D03*
X029709Y035886D03*
X029709Y036364D03*
X029709Y036836D03*
D11*
X029709Y036600D03*
X029709Y035650D03*
X028059Y020950D03*
X027191Y020150D03*
X027191Y019300D03*
X027191Y018450D03*
X027191Y017600D03*
X027191Y016750D03*
X027191Y015900D03*
D12*
X000500Y000150D02*
X000500Y039150D01*
X027600Y039150D01*
X027600Y038250D01*
X027602Y038211D01*
X027608Y038172D01*
X027617Y038134D01*
X027630Y038097D01*
X027647Y038061D01*
X027667Y038028D01*
X027691Y037996D01*
X027717Y037967D01*
X027746Y037941D01*
X027778Y037917D01*
X027811Y037897D01*
X027847Y037880D01*
X027884Y037867D01*
X027922Y037858D01*
X027961Y037852D01*
X028000Y037850D01*
X028039Y037852D01*
X028078Y037858D01*
X028116Y037867D01*
X028153Y037880D01*
X028189Y037897D01*
X028222Y037917D01*
X028254Y037941D01*
X028283Y037967D01*
X028309Y037996D01*
X028333Y038028D01*
X028353Y038061D01*
X028370Y038097D01*
X028383Y038134D01*
X028392Y038172D01*
X028398Y038211D01*
X028400Y038250D01*
X028400Y039150D01*
X031000Y039150D01*
X031000Y000150D01*
X028400Y000150D01*
X028400Y001150D01*
X028398Y001189D01*
X028392Y001228D01*
X028383Y001266D01*
X028370Y001303D01*
X028353Y001339D01*
X028333Y001372D01*
X028309Y001404D01*
X028283Y001433D01*
X028254Y001459D01*
X028222Y001483D01*
X028189Y001503D01*
X028153Y001520D01*
X028116Y001533D01*
X028078Y001542D01*
X028039Y001548D01*
X028000Y001550D01*
X027961Y001548D01*
X027922Y001542D01*
X027884Y001533D01*
X027847Y001520D01*
X027811Y001503D01*
X027778Y001483D01*
X027746Y001459D01*
X027717Y001433D01*
X027691Y001404D01*
X027667Y001372D01*
X027647Y001339D01*
X027630Y001303D01*
X027617Y001266D01*
X027608Y001228D01*
X027602Y001189D01*
X027600Y001150D01*
X027600Y000150D01*
X000500Y000150D01*
X006390Y007739D02*
X006390Y008006D01*
X006390Y007872D02*
X006790Y007872D01*
X006790Y008199D02*
X006390Y008466D01*
X006390Y008660D02*
X006590Y008660D01*
X006523Y008793D01*
X006523Y008860D01*
X006590Y008926D01*
X006723Y008926D01*
X006790Y008860D01*
X006790Y008726D01*
X006723Y008660D01*
X006790Y008466D02*
X006390Y008199D01*
X006390Y008660D02*
X006390Y008926D01*
X006370Y009420D02*
X006370Y009620D01*
X006436Y009687D01*
X006570Y009687D01*
X006637Y009620D01*
X006637Y009420D01*
X006770Y009420D02*
X006370Y009420D01*
X006637Y009553D02*
X006770Y009687D01*
X006770Y009880D02*
X006770Y010147D01*
X006770Y010014D02*
X006370Y010014D01*
X006503Y009880D01*
X007000Y009930D02*
X007000Y010090D01*
X006703Y010341D02*
X006637Y010341D01*
X006570Y010408D01*
X006570Y010541D01*
X006637Y010608D01*
X006703Y010608D01*
X006770Y010541D01*
X006770Y010408D01*
X006703Y010341D01*
X006570Y010408D02*
X006503Y010341D01*
X006436Y010341D01*
X006370Y010408D01*
X006370Y010541D01*
X006436Y010608D01*
X006503Y010608D01*
X006570Y010541D01*
X007520Y010090D02*
X007520Y009930D01*
X008695Y009665D02*
X010025Y009665D01*
X010025Y007515D01*
X008695Y007515D01*
X008695Y009665D01*
X008840Y009650D02*
X008840Y007530D01*
X008960Y009460D02*
X008962Y009480D01*
X008968Y009498D01*
X008977Y009516D01*
X008989Y009531D01*
X009004Y009543D01*
X009022Y009552D01*
X009040Y009558D01*
X009060Y009560D01*
X009080Y009558D01*
X009098Y009552D01*
X009116Y009543D01*
X009131Y009531D01*
X009143Y009516D01*
X009152Y009498D01*
X009158Y009480D01*
X009160Y009460D01*
X009158Y009440D01*
X009152Y009422D01*
X009143Y009404D01*
X009131Y009389D01*
X009116Y009377D01*
X009098Y009368D01*
X009080Y009362D01*
X009060Y009360D01*
X009040Y009362D01*
X009022Y009368D01*
X009004Y009377D01*
X008989Y009389D01*
X008977Y009404D01*
X008968Y009422D01*
X008962Y009440D01*
X008960Y009460D01*
X008649Y010675D02*
X008649Y010852D01*
X008649Y011088D01*
X008649Y011265D01*
X009711Y011265D01*
X009711Y010675D01*
X008649Y010675D01*
X008649Y010852D02*
X008669Y010854D01*
X008689Y010859D01*
X008708Y010868D01*
X008725Y010880D01*
X008739Y010894D01*
X008751Y010911D01*
X008760Y010930D01*
X008765Y010950D01*
X008767Y010970D01*
X008765Y010990D01*
X008760Y011010D01*
X008751Y011029D01*
X008739Y011046D01*
X008725Y011060D01*
X008708Y011072D01*
X008689Y011081D01*
X008669Y011086D01*
X008649Y011088D01*
X008824Y010872D02*
X008826Y010892D01*
X008832Y010910D01*
X008841Y010928D01*
X008853Y010943D01*
X008868Y010955D01*
X008886Y010964D01*
X008904Y010970D01*
X008924Y010972D01*
X008944Y010970D01*
X008962Y010964D01*
X008980Y010955D01*
X008995Y010943D01*
X009007Y010928D01*
X009016Y010910D01*
X009022Y010892D01*
X009024Y010872D01*
X009022Y010852D01*
X009016Y010834D01*
X009007Y010816D01*
X008995Y010801D01*
X008980Y010789D01*
X008962Y010780D01*
X008944Y010774D01*
X008924Y010772D01*
X008904Y010774D01*
X008886Y010780D01*
X008868Y010789D01*
X008853Y010801D01*
X008841Y010816D01*
X008832Y010834D01*
X008826Y010852D01*
X008824Y010872D01*
X008460Y012270D02*
X008460Y012430D01*
X007920Y012430D02*
X007920Y012270D01*
X007610Y012339D02*
X007343Y012606D01*
X007276Y012606D01*
X007210Y012539D01*
X007210Y012406D01*
X007276Y012339D01*
X007276Y012146D02*
X007410Y012146D01*
X007477Y012079D01*
X007477Y011879D01*
X007610Y011879D02*
X007210Y011879D01*
X007210Y012079D01*
X007276Y012146D01*
X007477Y012012D02*
X007610Y012146D01*
X007610Y012339D02*
X007610Y012606D01*
X007543Y012800D02*
X007610Y012866D01*
X007610Y013000D01*
X007543Y013066D01*
X007276Y013066D01*
X007210Y013000D01*
X007210Y012866D01*
X007276Y012800D01*
X007343Y012800D01*
X007410Y012866D01*
X007410Y013066D01*
X010350Y011877D02*
X010416Y011944D01*
X010483Y011944D01*
X010550Y011877D01*
X010617Y011944D01*
X010683Y011944D01*
X010750Y011877D01*
X010750Y011744D01*
X010683Y011677D01*
X010550Y011811D02*
X010550Y011877D01*
X010350Y011877D02*
X010350Y011744D01*
X010416Y011677D01*
X010350Y011484D02*
X010350Y011350D01*
X010350Y011417D02*
X010683Y011417D01*
X010750Y011350D01*
X010750Y011283D01*
X010683Y011217D01*
X010683Y011023D02*
X010750Y010956D01*
X010750Y010823D01*
X010683Y010756D01*
X010550Y010823D02*
X010550Y010956D01*
X010617Y011023D01*
X010683Y011023D01*
X010550Y010823D02*
X010483Y010756D01*
X010416Y010756D01*
X010350Y010823D01*
X010350Y010956D01*
X010416Y011023D01*
X010285Y010583D02*
X010265Y010585D01*
X010246Y010583D01*
X010227Y010577D01*
X010210Y010568D01*
X010194Y010556D01*
X010182Y010541D01*
X010173Y010523D01*
X010167Y010505D01*
X010166Y010505D02*
X010166Y009875D01*
X010167Y009875D02*
X010172Y009859D01*
X010180Y009843D01*
X010190Y009829D01*
X010202Y009817D01*
X010217Y009807D01*
X010233Y009800D01*
X010250Y009796D01*
X010267Y009795D01*
X010285Y009797D01*
X010835Y009797D02*
X010853Y009795D01*
X010870Y009796D01*
X010887Y009800D01*
X010903Y009807D01*
X010918Y009817D01*
X010930Y009829D01*
X010940Y009843D01*
X010948Y009859D01*
X010953Y009875D01*
X010954Y009875D02*
X010954Y010505D01*
X010953Y010505D02*
X010947Y010523D01*
X010938Y010541D01*
X010926Y010556D01*
X010910Y010568D01*
X010893Y010577D01*
X010874Y010583D01*
X010855Y010585D01*
X010835Y010583D01*
X011560Y011050D02*
X011560Y011210D01*
X012080Y011210D02*
X012080Y011050D01*
X012410Y011154D02*
X012810Y011154D01*
X012810Y011287D02*
X012810Y011020D01*
X012810Y010827D02*
X012677Y010693D01*
X012677Y010760D02*
X012677Y010560D01*
X012810Y010560D02*
X012410Y010560D01*
X012410Y010760D01*
X012476Y010827D01*
X012610Y010827D01*
X012677Y010760D01*
X012543Y011020D02*
X012410Y011154D01*
X012476Y011481D02*
X012543Y011481D01*
X012610Y011548D01*
X012610Y011748D01*
X012743Y011748D02*
X012476Y011748D01*
X012410Y011681D01*
X012410Y011548D01*
X012476Y011481D01*
X012743Y011481D02*
X012810Y011548D01*
X012810Y011681D01*
X012743Y011748D01*
X012623Y009906D02*
X012690Y009840D01*
X012690Y009706D01*
X012623Y009640D01*
X012490Y009640D02*
X012423Y009773D01*
X012423Y009840D01*
X012490Y009906D01*
X012623Y009906D01*
X012490Y009640D02*
X012290Y009640D01*
X012290Y009906D01*
X012290Y009446D02*
X012690Y009179D01*
X012690Y008986D02*
X012557Y008852D01*
X012557Y008919D02*
X012557Y008719D01*
X012690Y008719D02*
X012290Y008719D01*
X012290Y008919D01*
X012356Y008986D01*
X012490Y008986D01*
X012557Y008919D01*
X012290Y009179D02*
X012690Y009446D01*
X012648Y007966D02*
X012715Y007900D01*
X012715Y007766D01*
X012648Y007700D01*
X012582Y007700D01*
X012515Y007766D01*
X012515Y007900D01*
X012582Y007966D01*
X012648Y007966D01*
X012515Y007900D02*
X012448Y007966D01*
X012381Y007966D01*
X012315Y007900D01*
X012315Y007766D01*
X012381Y007700D01*
X012448Y007700D01*
X012515Y007766D01*
X012715Y007506D02*
X012715Y007239D01*
X012715Y007373D02*
X012315Y007373D01*
X012448Y007239D01*
X012381Y007046D02*
X012315Y006979D01*
X012315Y006846D01*
X012381Y006779D01*
X012648Y006779D01*
X012715Y006846D01*
X012715Y006979D01*
X012648Y007046D01*
X012056Y007412D02*
X012056Y007648D01*
X011584Y007648D02*
X011584Y007412D01*
X011283Y007740D02*
X011350Y007807D01*
X011350Y007940D01*
X011283Y008007D01*
X010950Y008007D01*
X011083Y008200D02*
X010950Y008334D01*
X011350Y008334D01*
X011350Y008467D02*
X011350Y008200D01*
X011283Y007740D02*
X010950Y007740D01*
X011020Y007190D02*
X007020Y007190D01*
X007020Y004990D01*
X007520Y004990D01*
X007520Y005490D01*
X010520Y005490D01*
X010520Y004990D01*
X007520Y004990D01*
X010520Y004990D02*
X011020Y004990D01*
X011020Y007190D01*
X011525Y006354D02*
X011368Y006197D01*
X011368Y005764D01*
X011440Y005520D02*
X012240Y005520D01*
X012312Y005764D02*
X012312Y006197D01*
X012155Y006354D01*
X011525Y006354D01*
X012604Y005668D02*
X012604Y005432D01*
X012312Y004976D02*
X012312Y004386D01*
X011368Y004386D01*
X011368Y004976D01*
X011540Y004146D02*
X011473Y004080D01*
X011473Y003946D01*
X011540Y003880D01*
X011607Y003880D01*
X011674Y003946D01*
X011674Y004146D01*
X011807Y004146D02*
X011540Y004146D01*
X011807Y004146D02*
X011874Y004080D01*
X011874Y003946D01*
X011807Y003880D01*
X011874Y003686D02*
X011874Y003419D01*
X011874Y003553D02*
X011473Y003553D01*
X011607Y003419D01*
X011540Y003226D02*
X011473Y003159D01*
X011473Y003026D01*
X011540Y002959D01*
X011807Y002959D01*
X011874Y003026D01*
X011874Y003159D01*
X011807Y003226D01*
X012635Y003646D02*
X012701Y003579D01*
X012968Y003579D01*
X013035Y003646D01*
X013035Y003779D01*
X012968Y003846D01*
X013035Y004039D02*
X012768Y004306D01*
X012701Y004306D01*
X012635Y004239D01*
X012635Y004106D01*
X012701Y004039D01*
X012701Y003846D02*
X012635Y003779D01*
X012635Y003646D01*
X013035Y004039D02*
X013035Y004306D01*
X012968Y004500D02*
X012701Y004766D01*
X012968Y004766D01*
X013035Y004700D01*
X013035Y004566D01*
X012968Y004500D01*
X012701Y004500D01*
X012635Y004566D01*
X012635Y004700D01*
X012701Y004766D01*
X013076Y005432D02*
X013076Y005668D01*
X014091Y004604D02*
X014095Y015100D01*
X030962Y015100D01*
X030962Y011543D01*
X030960Y011535D02*
X030960Y004600D01*
X030961Y004600D01*
X030960Y004600D01*
X014093Y004604D01*
X011283Y008661D02*
X011350Y008728D01*
X011350Y008861D01*
X011283Y008928D01*
X011150Y008928D01*
X011083Y008861D01*
X011083Y008794D01*
X011150Y008661D01*
X010950Y008661D01*
X010950Y008928D01*
X014094Y015100D02*
X014095Y015100D01*
X015803Y018760D02*
X015803Y019160D01*
X015670Y019160D02*
X015937Y019160D01*
X016130Y019160D02*
X016264Y019027D01*
X016397Y019160D01*
X016397Y018760D01*
X016130Y018760D02*
X016130Y019160D01*
X017051Y019027D02*
X017118Y019094D01*
X017118Y019227D01*
X017251Y019227D02*
X017251Y019094D01*
X017185Y019027D01*
X017435Y019160D02*
X017702Y019160D01*
X017568Y019160D02*
X017568Y018760D01*
X017895Y018827D02*
X017895Y018960D01*
X017962Y019027D01*
X018095Y019027D01*
X018162Y018960D01*
X018162Y018893D01*
X017895Y018893D01*
X017895Y018827D02*
X017962Y018760D01*
X018095Y018760D01*
X018356Y018760D02*
X018489Y018760D01*
X018422Y018760D02*
X018422Y019160D01*
X018356Y019160D01*
X018663Y018960D02*
X018729Y019027D01*
X018863Y019027D01*
X018929Y018960D01*
X018929Y018893D01*
X018663Y018893D01*
X018663Y018827D02*
X018663Y018960D01*
X018663Y018827D02*
X018729Y018760D01*
X018863Y018760D01*
X019123Y018760D02*
X019123Y019027D01*
X019190Y019027D01*
X019256Y018960D01*
X019323Y019027D01*
X019390Y018960D01*
X019390Y018760D01*
X019256Y018760D02*
X019256Y018960D01*
X019583Y018960D02*
X019650Y019027D01*
X019784Y019027D01*
X019850Y018960D01*
X019850Y018893D01*
X019583Y018893D01*
X019583Y018827D02*
X019583Y018960D01*
X019583Y018827D02*
X019650Y018760D01*
X019784Y018760D01*
X020110Y018827D02*
X020110Y019094D01*
X020044Y019027D02*
X020177Y019027D01*
X020351Y019027D02*
X020351Y018760D01*
X020351Y018893D02*
X020484Y019027D01*
X020551Y019027D01*
X020734Y019027D02*
X020734Y018827D01*
X020801Y018760D01*
X021001Y018760D01*
X021001Y018693D02*
X020934Y018627D01*
X020868Y018627D01*
X021001Y018693D02*
X021001Y019027D01*
X021655Y019160D02*
X021655Y018760D01*
X021922Y018760D02*
X021922Y019160D01*
X021789Y019027D01*
X021655Y019160D01*
X022182Y019027D02*
X022316Y019027D01*
X022382Y018960D01*
X022382Y018760D01*
X022182Y018760D01*
X022115Y018827D01*
X022182Y018893D01*
X022382Y018893D01*
X022576Y018960D02*
X022643Y019027D01*
X022843Y019027D01*
X022776Y018893D02*
X022643Y018893D01*
X022576Y018960D01*
X022576Y018760D02*
X022776Y018760D01*
X022843Y018827D01*
X022776Y018893D01*
X023036Y019027D02*
X023170Y019027D01*
X023103Y019094D02*
X023103Y018827D01*
X023170Y018760D01*
X023343Y018827D02*
X023343Y018960D01*
X023410Y019027D01*
X023543Y019027D01*
X023610Y018960D01*
X023610Y018893D01*
X023343Y018893D01*
X023343Y018827D02*
X023410Y018760D01*
X023543Y018760D01*
X023804Y018760D02*
X023804Y019027D01*
X023937Y019027D02*
X024004Y019027D01*
X023937Y019027D02*
X023804Y018893D01*
X024187Y019027D02*
X024254Y019094D01*
X024254Y019227D01*
X024387Y019227D02*
X024387Y019094D01*
X024321Y019027D01*
X025069Y018650D02*
X025336Y018650D01*
X025202Y018650D02*
X025202Y018250D01*
X025529Y018250D02*
X025796Y018650D01*
X025990Y018517D02*
X026123Y018650D01*
X026123Y018250D01*
X025990Y018250D02*
X026256Y018250D01*
X025796Y018250D02*
X025529Y018650D01*
X025436Y019100D02*
X025302Y019233D01*
X025369Y019233D02*
X025169Y019233D01*
X025169Y019100D02*
X025169Y019500D01*
X025369Y019500D01*
X025436Y019434D01*
X025436Y019300D01*
X025369Y019233D01*
X025629Y019100D02*
X025896Y019500D01*
X026090Y019434D02*
X026156Y019500D01*
X026290Y019500D01*
X026356Y019434D01*
X026356Y019367D01*
X026090Y019100D01*
X026356Y019100D01*
X025896Y019100D02*
X025629Y019500D01*
X025629Y019950D02*
X025896Y020350D01*
X026090Y020284D02*
X026156Y020350D01*
X026290Y020350D01*
X026356Y020284D01*
X026356Y020217D01*
X026090Y019950D01*
X026356Y019950D01*
X025896Y019950D02*
X025629Y020350D01*
X025436Y020350D02*
X025169Y020350D01*
X025302Y020350D02*
X025302Y019950D01*
X026082Y020714D02*
X026318Y020714D01*
X026318Y021186D02*
X026082Y021186D01*
X026113Y021375D02*
X026113Y021775D01*
X025979Y021642D01*
X025786Y021709D02*
X025786Y021575D01*
X025719Y021508D01*
X025519Y021508D01*
X025519Y021375D02*
X025519Y021775D01*
X025719Y021775D01*
X025786Y021709D01*
X025652Y021508D02*
X025786Y021375D01*
X025979Y021375D02*
X026246Y021375D01*
X026440Y021575D02*
X026706Y021575D01*
X026640Y021375D02*
X026640Y021775D01*
X026440Y021575D01*
X027100Y021232D02*
X027300Y021232D01*
X027200Y021132D02*
X027200Y021332D01*
X027208Y021500D02*
X027475Y021500D01*
X027669Y021500D02*
X027669Y021900D01*
X027936Y021900D01*
X028129Y021900D02*
X028329Y021900D01*
X028396Y021834D01*
X028396Y021567D01*
X028329Y021500D01*
X028129Y021500D01*
X028129Y021900D01*
X027802Y021700D02*
X027669Y021700D01*
X027669Y021500D02*
X027936Y021500D01*
X028590Y021500D02*
X028856Y021767D01*
X028856Y021834D01*
X028790Y021900D01*
X028656Y021900D01*
X028590Y021834D01*
X028590Y021500D02*
X028856Y021500D01*
X029300Y021260D02*
X029410Y021150D01*
X029800Y021150D01*
X030190Y021150D01*
X030300Y021260D01*
X029800Y021250D02*
X029800Y021150D01*
X029832Y020386D02*
X030068Y020386D01*
X030068Y019914D02*
X029832Y019914D01*
X029832Y019536D02*
X030068Y019536D01*
X030068Y019064D02*
X029832Y019064D01*
X029832Y018686D02*
X030068Y018686D01*
X030068Y018214D02*
X029832Y018214D01*
X029832Y017836D02*
X030068Y017836D01*
X030068Y017364D02*
X029832Y017364D01*
X029832Y016986D02*
X030068Y016986D01*
X030068Y016514D02*
X029832Y016514D01*
X029832Y016136D02*
X030068Y016136D01*
X030068Y015664D02*
X029832Y015664D01*
X029257Y015742D02*
X029190Y015675D01*
X029056Y015675D01*
X028990Y015742D01*
X028990Y015808D01*
X029056Y015875D01*
X029190Y015875D01*
X029257Y015808D01*
X029257Y015742D01*
X029190Y015875D02*
X029257Y015942D01*
X029257Y016009D01*
X029190Y016075D01*
X029056Y016075D01*
X028990Y016009D01*
X028990Y015942D01*
X029056Y015875D01*
X028796Y015875D02*
X028729Y015808D01*
X028529Y015808D01*
X028529Y015675D02*
X028529Y016075D01*
X028729Y016075D01*
X028796Y016009D01*
X028796Y015875D01*
X028663Y015808D02*
X028796Y015675D01*
X028150Y015550D02*
X027950Y015550D01*
X028050Y015450D02*
X028050Y015650D01*
X028050Y016300D02*
X028050Y016500D01*
X027950Y016400D02*
X028150Y016400D01*
X028479Y016525D02*
X028479Y016925D01*
X028679Y016925D01*
X028746Y016859D01*
X028746Y016725D01*
X028679Y016658D01*
X028479Y016658D01*
X028613Y016658D02*
X028746Y016525D01*
X028940Y016592D02*
X028940Y016725D01*
X029140Y016725D01*
X029207Y016658D01*
X029207Y016592D01*
X029140Y016525D01*
X029006Y016525D01*
X028940Y016592D01*
X028940Y016725D02*
X029073Y016859D01*
X029207Y016925D01*
X029190Y017325D02*
X029190Y017725D01*
X028990Y017525D01*
X029257Y017525D01*
X029140Y018225D02*
X029006Y018225D01*
X028940Y018292D01*
X028940Y018425D02*
X029073Y018492D01*
X029140Y018492D01*
X029207Y018425D01*
X029207Y018292D01*
X029140Y018225D01*
X028940Y018425D02*
X028940Y018625D01*
X029207Y018625D01*
X028746Y018559D02*
X028746Y018425D01*
X028679Y018358D01*
X028479Y018358D01*
X028479Y018225D02*
X028479Y018625D01*
X028679Y018625D01*
X028746Y018559D01*
X028613Y018358D02*
X028746Y018225D01*
X028729Y017725D02*
X028529Y017725D01*
X028529Y017325D01*
X028529Y017458D02*
X028729Y017458D01*
X028796Y017525D01*
X028796Y017659D01*
X028729Y017725D01*
X028663Y017458D02*
X028796Y017325D01*
X028150Y017250D02*
X027950Y017250D01*
X028050Y017150D02*
X028050Y017350D01*
X028050Y018000D02*
X028050Y018200D01*
X027950Y018100D02*
X028150Y018100D01*
X028050Y018850D02*
X028050Y019050D01*
X027950Y018950D02*
X028150Y018950D01*
X028479Y019125D02*
X028479Y019525D01*
X028679Y019525D01*
X028746Y019459D01*
X028746Y019325D01*
X028679Y019258D01*
X028479Y019258D01*
X028613Y019258D02*
X028746Y019125D01*
X028940Y019192D02*
X029006Y019125D01*
X029140Y019125D01*
X029207Y019192D01*
X029207Y019459D01*
X029140Y019525D01*
X029006Y019525D01*
X028940Y019459D01*
X028940Y019392D01*
X029006Y019325D01*
X029207Y019325D01*
X029240Y019925D02*
X029106Y019925D01*
X029040Y019992D01*
X029306Y020259D01*
X029306Y019992D01*
X029240Y019925D01*
X029040Y019992D02*
X029040Y020259D01*
X029106Y020325D01*
X029240Y020325D01*
X029306Y020259D01*
X028846Y019925D02*
X028579Y019925D01*
X028713Y019925D02*
X028713Y020325D01*
X028579Y020192D01*
X028386Y020259D02*
X028386Y020125D01*
X028319Y020058D01*
X028119Y020058D01*
X028119Y019925D02*
X028119Y020325D01*
X028319Y020325D01*
X028386Y020259D01*
X028252Y020058D02*
X028386Y019925D01*
X028150Y019800D02*
X027950Y019800D01*
X028050Y019700D02*
X028050Y019900D01*
X027208Y021500D02*
X027208Y021900D01*
X027860Y024630D02*
X027860Y026630D01*
X028860Y025630D01*
X027860Y024630D01*
X027880Y024700D02*
X027890Y024770D01*
X027940Y024760D01*
X027920Y024730D01*
X027890Y026460D02*
X027890Y026560D01*
X027940Y026500D01*
X029050Y026350D02*
X029183Y026350D01*
X029117Y026350D02*
X029117Y026750D01*
X029183Y026750D02*
X029050Y026750D01*
X029357Y026684D02*
X029357Y026417D01*
X029424Y026350D01*
X029557Y026350D01*
X029624Y026417D01*
X029817Y026417D02*
X029884Y026350D01*
X030017Y026350D01*
X030084Y026417D01*
X030084Y026483D01*
X030017Y026550D01*
X029884Y026550D01*
X029817Y026617D01*
X029817Y026684D01*
X029884Y026750D01*
X030017Y026750D01*
X030084Y026684D01*
X030278Y026750D02*
X030278Y026350D01*
X030278Y026483D02*
X030478Y026483D01*
X030545Y026550D01*
X030545Y026684D01*
X030478Y026750D01*
X030278Y026750D01*
X030190Y026150D02*
X029800Y026150D01*
X029410Y026150D01*
X029300Y026040D01*
X029800Y026050D02*
X029800Y026150D01*
X030190Y026150D02*
X030300Y026040D01*
X029624Y026684D02*
X029557Y026750D01*
X029424Y026750D01*
X029357Y026684D01*
X029606Y027413D02*
X030787Y027413D01*
X030787Y030287D01*
X029606Y030287D01*
X029213Y029637D02*
X029213Y028063D01*
X028450Y028100D02*
X028450Y027967D01*
X028383Y027900D01*
X028250Y027967D02*
X028250Y028100D01*
X028317Y028167D01*
X028383Y028167D01*
X028450Y028100D01*
X028250Y027967D02*
X028183Y027900D01*
X028116Y027900D01*
X028050Y027967D01*
X028050Y028100D01*
X028116Y028167D01*
X028116Y028360D02*
X028050Y028427D01*
X028050Y028561D01*
X028116Y028627D01*
X028183Y028627D01*
X028450Y028360D01*
X028450Y028627D01*
X028454Y031096D02*
X025146Y031096D01*
X025146Y034404D01*
X028454Y034404D01*
X028454Y031096D01*
X027673Y034519D02*
X027406Y034519D01*
X027540Y034519D02*
X027540Y034919D01*
X027406Y034785D01*
X027213Y034919D02*
X026946Y034919D01*
X027079Y034919D02*
X027079Y034519D01*
X026752Y034519D02*
X026752Y034919D01*
X026486Y034919D02*
X026486Y034519D01*
X026292Y034519D02*
X026292Y034785D01*
X026159Y034919D01*
X026025Y034785D01*
X026025Y034519D01*
X026025Y034719D02*
X026292Y034719D01*
X026486Y034919D02*
X026752Y034519D01*
X026706Y035450D02*
X026440Y035450D01*
X026573Y035450D02*
X026573Y035850D01*
X026440Y035717D01*
X026246Y035450D02*
X025979Y035450D01*
X026113Y035450D02*
X026113Y035850D01*
X025979Y035717D01*
X025786Y035784D02*
X025786Y035650D01*
X025719Y035583D01*
X025519Y035583D01*
X025519Y035450D02*
X025519Y035850D01*
X025719Y035850D01*
X025786Y035784D01*
X025652Y035583D02*
X025786Y035450D01*
X025786Y036400D02*
X025652Y036533D01*
X025719Y036533D02*
X025519Y036533D01*
X025519Y036400D02*
X025519Y036800D01*
X025719Y036800D01*
X025786Y036734D01*
X025786Y036600D01*
X025719Y036533D01*
X025979Y036600D02*
X026246Y036600D01*
X026179Y036400D02*
X026179Y036800D01*
X025979Y036600D01*
X026440Y036467D02*
X026506Y036400D01*
X026640Y036400D01*
X026706Y036467D01*
X026706Y036533D01*
X026640Y036600D01*
X026573Y036600D01*
X026640Y036600D02*
X026706Y036667D01*
X026706Y036734D01*
X026640Y036800D01*
X026506Y036800D01*
X026440Y036734D01*
X024875Y036607D02*
X024875Y036340D01*
X024608Y036607D01*
X024541Y036607D01*
X024475Y036540D01*
X024475Y036406D01*
X024541Y036340D01*
X024541Y036146D02*
X024675Y036146D01*
X024742Y036079D01*
X024742Y035879D01*
X024875Y035879D02*
X024475Y035879D01*
X024475Y036079D01*
X024541Y036146D01*
X024742Y036013D02*
X024875Y036146D01*
X024175Y036146D02*
X024042Y036013D01*
X024042Y036079D02*
X024042Y035879D01*
X024175Y035879D02*
X023775Y035879D01*
X023775Y036079D01*
X023841Y036146D01*
X023975Y036146D01*
X024042Y036079D01*
X024175Y036340D02*
X024175Y036607D01*
X024175Y036473D02*
X023775Y036473D01*
X023908Y036340D01*
X023714Y035318D02*
X023714Y035082D01*
X024186Y035082D02*
X024186Y035318D01*
X024464Y035318D02*
X024464Y035082D01*
X024936Y035082D02*
X024936Y035318D01*
X024677Y034510D02*
X024677Y034110D01*
X024810Y034110D02*
X024543Y034110D01*
X024543Y034377D02*
X024677Y034510D01*
X024350Y034510D02*
X024216Y034510D01*
X024283Y034510D02*
X024283Y034177D01*
X024216Y034110D01*
X024150Y034110D01*
X024083Y034177D01*
X023889Y034177D02*
X023823Y034110D01*
X023689Y034110D01*
X023623Y034177D01*
X023689Y034310D02*
X023823Y034310D01*
X023889Y034243D01*
X023889Y034177D01*
X023689Y034310D02*
X023623Y034377D01*
X023623Y034444D01*
X023689Y034510D01*
X023823Y034510D01*
X023889Y034444D01*
X023894Y033915D02*
X023894Y033285D01*
X023893Y033285D02*
X023888Y033269D01*
X023880Y033253D01*
X023870Y033239D01*
X023858Y033227D01*
X023843Y033217D01*
X023827Y033210D01*
X023810Y033206D01*
X023793Y033205D01*
X023775Y033207D01*
X023725Y033043D02*
X023705Y033045D01*
X023686Y033043D01*
X023667Y033037D01*
X023650Y033028D01*
X023634Y033016D01*
X023622Y033001D01*
X023613Y032983D01*
X023607Y032965D01*
X023606Y032965D02*
X023606Y032335D01*
X023607Y032335D02*
X023612Y032319D01*
X023620Y032303D01*
X023630Y032289D01*
X023642Y032277D01*
X023657Y032267D01*
X023673Y032260D01*
X023690Y032256D01*
X023707Y032255D01*
X023725Y032257D01*
X024275Y032257D02*
X024293Y032255D01*
X024310Y032256D01*
X024327Y032260D01*
X024343Y032267D01*
X024358Y032277D01*
X024370Y032289D01*
X024380Y032303D01*
X024388Y032319D01*
X024393Y032335D01*
X024394Y032335D02*
X024394Y032965D01*
X024393Y032965D02*
X024387Y032983D01*
X024378Y033001D01*
X024366Y033016D01*
X024350Y033028D01*
X024333Y033037D01*
X024314Y033043D01*
X024295Y033045D01*
X024275Y033043D01*
X023893Y033915D02*
X023887Y033933D01*
X023878Y033951D01*
X023866Y033966D01*
X023850Y033978D01*
X023833Y033987D01*
X023814Y033993D01*
X023795Y033995D01*
X023775Y033993D01*
X023225Y033993D02*
X023205Y033995D01*
X023186Y033993D01*
X023167Y033987D01*
X023150Y033978D01*
X023134Y033966D01*
X023122Y033951D01*
X023113Y033933D01*
X023107Y033915D01*
X023106Y033915D02*
X023106Y033285D01*
X023107Y033285D02*
X023112Y033269D01*
X023120Y033253D01*
X023130Y033239D01*
X023142Y033227D01*
X023157Y033217D01*
X023173Y033210D01*
X023190Y033206D01*
X023207Y033205D01*
X023225Y033207D01*
X023313Y031580D02*
X023246Y031514D01*
X023246Y031447D01*
X023313Y031380D01*
X023446Y031380D01*
X023513Y031313D01*
X023513Y031247D01*
X023446Y031180D01*
X023313Y031180D01*
X023246Y031247D01*
X023313Y031580D02*
X023446Y031580D01*
X023513Y031514D01*
X023707Y031247D02*
X023773Y031180D01*
X023840Y031180D01*
X023907Y031247D01*
X023907Y031580D01*
X023840Y031580D02*
X023974Y031580D01*
X024167Y031514D02*
X024234Y031580D01*
X024367Y031580D01*
X024434Y031514D01*
X024434Y031447D01*
X024167Y031180D01*
X024434Y031180D01*
X022740Y031153D02*
X018960Y031153D01*
X018960Y031311D01*
X018908Y028756D02*
X018775Y028756D01*
X018708Y028690D01*
X018708Y028623D01*
X018775Y028490D01*
X018575Y028490D01*
X018575Y028756D01*
X018908Y028756D02*
X018975Y028690D01*
X018975Y028556D01*
X018908Y028490D01*
X018975Y028296D02*
X018975Y028029D01*
X018975Y028163D02*
X018575Y028163D01*
X018708Y028029D01*
X018641Y027836D02*
X018575Y027769D01*
X018575Y027636D01*
X018641Y027569D01*
X018908Y027569D01*
X018975Y027636D01*
X018975Y027769D01*
X018908Y027836D01*
X018336Y028082D02*
X018336Y028318D01*
X017864Y028318D02*
X017864Y028082D01*
X017384Y028132D02*
X017384Y028368D01*
X016636Y028880D02*
X016164Y028880D01*
X016057Y029200D02*
X015790Y029200D01*
X015923Y029200D02*
X015923Y029600D01*
X015790Y029467D01*
X015596Y029534D02*
X015596Y029600D01*
X015596Y029534D02*
X015463Y029400D01*
X015463Y029200D01*
X015463Y029400D02*
X015329Y029534D01*
X015329Y029600D01*
X015416Y028368D02*
X015416Y028132D01*
X014936Y028082D02*
X014936Y028318D01*
X014464Y028318D02*
X014464Y028082D01*
X014225Y028110D02*
X014225Y028377D01*
X014225Y028244D02*
X013825Y028244D01*
X013958Y028110D01*
X013891Y027917D02*
X013825Y027850D01*
X013825Y027717D01*
X013891Y027650D01*
X014158Y027650D01*
X014225Y027717D01*
X014225Y027850D01*
X014158Y027917D01*
X014158Y028571D02*
X014225Y028638D01*
X014225Y028771D01*
X014158Y028838D01*
X014092Y028838D01*
X014025Y028771D01*
X014025Y028571D01*
X014158Y028571D01*
X014025Y028571D02*
X013891Y028704D01*
X013825Y028838D01*
X012890Y031140D02*
X012890Y033500D01*
X010310Y033500D01*
X010310Y031140D01*
X009684Y031181D02*
X009684Y032363D01*
X009684Y031181D02*
X007716Y031181D01*
X007716Y032363D01*
X007716Y033937D02*
X007716Y034725D01*
X008109Y035119D01*
X009291Y035119D01*
X009684Y034725D01*
X009684Y033937D01*
X009190Y030800D02*
X009056Y030800D01*
X008990Y030734D01*
X009190Y030800D02*
X009256Y030734D01*
X009256Y030667D01*
X008990Y030400D01*
X009256Y030400D01*
X008796Y030400D02*
X008529Y030400D01*
X008663Y030400D02*
X008663Y030800D01*
X008529Y030667D01*
X008336Y030734D02*
X008269Y030800D01*
X008136Y030800D01*
X008069Y030734D01*
X008069Y030467D01*
X008136Y030400D01*
X008269Y030400D01*
X008336Y030467D01*
X008879Y027670D02*
X008879Y027337D01*
X008946Y027270D01*
X009079Y027270D01*
X009146Y027337D01*
X009146Y027670D01*
X009340Y027604D02*
X009406Y027670D01*
X009540Y027670D01*
X009607Y027604D01*
X009607Y027537D01*
X009540Y027470D01*
X009607Y027403D01*
X009607Y027337D01*
X009540Y027270D01*
X009406Y027270D01*
X009340Y027337D01*
X009473Y027470D02*
X009540Y027470D01*
X008970Y026900D02*
X008970Y025200D01*
X008968Y025177D01*
X008963Y025154D01*
X008954Y025132D01*
X008941Y025112D01*
X008926Y025094D01*
X008908Y025079D01*
X008888Y025066D01*
X008866Y025057D01*
X008843Y025052D01*
X008820Y025050D01*
X008400Y025050D01*
X008000Y025050D01*
X007580Y025050D01*
X007557Y025052D01*
X007534Y025057D01*
X007512Y025066D01*
X007492Y025079D01*
X007474Y025094D01*
X007459Y025112D01*
X007446Y025132D01*
X007437Y025154D01*
X007432Y025177D01*
X007430Y025200D01*
X007430Y026900D01*
X007432Y026923D01*
X007437Y026946D01*
X007446Y026968D01*
X007459Y026988D01*
X007474Y027006D01*
X007492Y027021D01*
X007512Y027034D01*
X007534Y027043D01*
X007557Y027048D01*
X007580Y027050D01*
X008820Y027050D01*
X008830Y027050D02*
X008830Y025050D01*
X008328Y024796D02*
X008092Y024796D01*
X008000Y025050D02*
X008002Y025077D01*
X008007Y025104D01*
X008017Y025130D01*
X008029Y025154D01*
X008045Y025176D01*
X008063Y025196D01*
X008085Y025213D01*
X008108Y025228D01*
X008133Y025238D01*
X008159Y025246D01*
X008186Y025250D01*
X008214Y025250D01*
X008241Y025246D01*
X008267Y025238D01*
X008292Y025228D01*
X008315Y025213D01*
X008337Y025196D01*
X008355Y025176D01*
X008371Y025154D01*
X008383Y025130D01*
X008393Y025104D01*
X008398Y025077D01*
X008400Y025050D01*
X008328Y024324D02*
X008092Y024324D01*
X007407Y024392D02*
X007340Y024325D01*
X007206Y024325D01*
X007140Y024392D01*
X007140Y024525D02*
X007273Y024592D01*
X007340Y024592D01*
X007407Y024525D01*
X007407Y024392D01*
X007140Y024525D02*
X007140Y024725D01*
X007407Y024725D01*
X006946Y024659D02*
X006879Y024725D01*
X006746Y024725D01*
X006679Y024659D01*
X006679Y024392D01*
X006746Y024325D01*
X006879Y024325D01*
X006946Y024392D01*
X007440Y023930D02*
X008860Y023930D01*
X008483Y022290D02*
X008485Y022305D01*
X008491Y022318D01*
X008500Y022330D01*
X008511Y022339D01*
X008525Y022345D01*
X008540Y022347D01*
X008555Y022345D01*
X008568Y022339D01*
X008580Y022330D01*
X008589Y022319D01*
X008595Y022305D01*
X008597Y022290D01*
X008595Y022275D01*
X008589Y022262D01*
X008580Y022250D01*
X008569Y022241D01*
X008555Y022235D01*
X008540Y022233D01*
X008525Y022235D01*
X008512Y022241D01*
X008500Y022250D01*
X008491Y022261D01*
X008485Y022275D01*
X008483Y022290D01*
X008860Y022070D02*
X007440Y022070D01*
X008092Y021636D02*
X008328Y021636D01*
X008328Y021164D02*
X008092Y021164D01*
X008080Y020975D02*
X007947Y020975D01*
X007880Y020909D01*
X007880Y020642D01*
X007947Y020575D01*
X008080Y020575D01*
X008147Y020642D01*
X008340Y020775D02*
X008607Y020775D01*
X008541Y020575D02*
X008541Y020975D01*
X008340Y020775D01*
X008147Y020909D02*
X008080Y020975D01*
X008979Y021297D02*
X009046Y021230D01*
X009179Y021230D01*
X009246Y021297D01*
X009246Y021630D01*
X009440Y021564D02*
X009506Y021630D01*
X009640Y021630D01*
X009707Y021564D01*
X009707Y021497D01*
X009440Y021230D01*
X009707Y021230D01*
X008979Y021297D02*
X008979Y021630D01*
X010400Y022110D02*
X010510Y022000D01*
X010900Y022000D01*
X011290Y022000D01*
X011400Y022110D01*
X011810Y022122D02*
X011810Y022256D01*
X011810Y022189D02*
X012143Y022189D01*
X012210Y022122D01*
X012210Y022056D01*
X012143Y021989D01*
X012077Y022449D02*
X012077Y022649D01*
X012010Y022716D01*
X011876Y022716D01*
X011810Y022649D01*
X011810Y022449D01*
X012210Y022449D01*
X012143Y022910D02*
X012210Y022976D01*
X012210Y023110D01*
X012143Y023176D01*
X012077Y023176D01*
X012010Y023110D01*
X012010Y023043D01*
X012010Y023110D02*
X011943Y023176D01*
X011876Y023176D01*
X011810Y023110D01*
X011810Y022976D01*
X011876Y022910D01*
X010900Y022850D02*
X010900Y023150D01*
X010900Y023900D02*
X010900Y024000D01*
X010510Y024000D01*
X010400Y023890D01*
X010900Y024000D02*
X011290Y024000D01*
X011400Y023890D01*
X011290Y025050D02*
X010900Y025050D01*
X010510Y025050D01*
X010400Y025160D01*
X010900Y025150D02*
X010900Y025050D01*
X011290Y025050D02*
X011400Y025160D01*
X011870Y025392D02*
X011870Y025526D01*
X011870Y025459D02*
X012203Y025459D01*
X012270Y025392D01*
X012270Y025326D01*
X012203Y025259D01*
X012137Y025719D02*
X012137Y025919D01*
X012070Y025986D01*
X011936Y025986D01*
X011870Y025919D01*
X011870Y025719D01*
X012270Y025719D01*
X012270Y026180D02*
X012003Y026446D01*
X011936Y026446D01*
X011870Y026380D01*
X011870Y026246D01*
X011936Y026180D01*
X012270Y026180D02*
X012270Y026446D01*
X011400Y026940D02*
X011290Y027050D01*
X010900Y027050D01*
X010510Y027050D01*
X010400Y026940D01*
X010900Y026950D02*
X010900Y027050D01*
X010900Y026200D02*
X010900Y025900D01*
X008970Y026900D02*
X008968Y026923D01*
X008963Y026946D01*
X008954Y026968D01*
X008941Y026988D01*
X008926Y027006D01*
X008908Y027021D01*
X008888Y027034D01*
X008866Y027043D01*
X008843Y027048D01*
X008820Y027050D01*
X010900Y022100D02*
X010900Y022000D01*
X012179Y020824D02*
X012179Y020557D01*
X012246Y020490D01*
X012379Y020490D01*
X012446Y020557D01*
X012640Y020557D02*
X012706Y020490D01*
X012840Y020490D01*
X012907Y020557D01*
X012907Y020623D01*
X012840Y020690D01*
X012773Y020690D01*
X012840Y020690D02*
X012907Y020757D01*
X012907Y020824D01*
X012840Y020890D01*
X012706Y020890D01*
X012640Y020824D01*
X012446Y020824D02*
X012379Y020890D01*
X012246Y020890D01*
X012179Y020824D01*
X013789Y021188D02*
X013856Y021121D01*
X013989Y021121D01*
X014056Y021188D01*
X014056Y021521D01*
X014249Y021521D02*
X014516Y021521D01*
X014516Y021455D01*
X014249Y021188D01*
X014249Y021121D01*
X013789Y021188D02*
X013789Y021521D01*
X014292Y022236D02*
X014686Y021842D01*
X014292Y025464D02*
X014292Y025858D01*
X014686Y025858D01*
X016164Y027620D02*
X016636Y027620D01*
X017914Y025858D02*
X018308Y025858D01*
X018308Y025464D01*
X019129Y025975D02*
X019129Y026375D01*
X019329Y026375D01*
X019396Y026309D01*
X019396Y026175D01*
X019329Y026108D01*
X019129Y026108D01*
X019263Y026108D02*
X019396Y025975D01*
X019590Y025975D02*
X019590Y026042D01*
X019857Y026309D01*
X019857Y026375D01*
X019590Y026375D01*
X019556Y026825D02*
X019490Y026892D01*
X019756Y027159D01*
X019756Y026892D01*
X019690Y026825D01*
X019556Y026825D01*
X019490Y026892D02*
X019490Y027159D01*
X019556Y027225D01*
X019690Y027225D01*
X019756Y027159D01*
X019296Y027159D02*
X019229Y027225D01*
X019096Y027225D01*
X019029Y027159D01*
X018836Y027159D02*
X018836Y027025D01*
X018769Y026958D01*
X018569Y026958D01*
X018569Y026825D02*
X018569Y027225D01*
X018769Y027225D01*
X018836Y027159D01*
X018702Y026958D02*
X018836Y026825D01*
X019029Y026825D02*
X019296Y027092D01*
X019296Y027159D01*
X019296Y026825D02*
X019029Y026825D01*
X020432Y026764D02*
X020668Y026764D01*
X020668Y026386D02*
X020432Y026386D01*
X020432Y025914D02*
X020668Y025914D01*
X021520Y026440D02*
X021520Y027860D01*
X020668Y027236D02*
X020432Y027236D01*
X021936Y030488D02*
X022069Y030488D01*
X022136Y030555D01*
X022136Y030889D01*
X022329Y030755D02*
X022463Y030889D01*
X022463Y030488D01*
X022596Y030488D02*
X022329Y030488D01*
X021936Y030488D02*
X021869Y030555D01*
X021869Y030889D01*
X022740Y031153D02*
X022740Y031311D01*
X023380Y027860D02*
X023380Y026440D01*
X023650Y027029D02*
X023983Y027029D01*
X024050Y027096D01*
X024050Y027229D01*
X023983Y027296D01*
X023650Y027296D01*
X023716Y027490D02*
X023650Y027556D01*
X023650Y027690D01*
X023716Y027757D01*
X023783Y027757D01*
X023850Y027690D01*
X023850Y027556D01*
X023783Y027490D01*
X023716Y027490D01*
X023850Y027556D02*
X023917Y027490D01*
X023983Y027490D01*
X024050Y027556D01*
X024050Y027690D01*
X023983Y027757D01*
X023917Y027757D01*
X023850Y027690D01*
X023103Y027540D02*
X023105Y027555D01*
X023111Y027568D01*
X023120Y027580D01*
X023131Y027589D01*
X023145Y027595D01*
X023160Y027597D01*
X023175Y027595D01*
X023188Y027589D01*
X023200Y027580D01*
X023209Y027569D01*
X023215Y027555D01*
X023217Y027540D01*
X023215Y027525D01*
X023209Y027512D01*
X023200Y027500D01*
X023189Y027491D01*
X023175Y027485D01*
X023160Y027483D01*
X023145Y027485D01*
X023132Y027491D01*
X023120Y027500D01*
X023111Y027511D01*
X023105Y027525D01*
X023103Y027540D01*
X018308Y022236D02*
X018308Y021842D01*
X017914Y021842D01*
X020110Y018827D02*
X020177Y018760D01*
X021536Y016975D02*
X021469Y016909D01*
X021469Y016642D01*
X021536Y016575D01*
X021669Y016575D01*
X021736Y016642D01*
X021929Y016575D02*
X022196Y016575D01*
X022063Y016575D02*
X022063Y016975D01*
X021929Y016842D01*
X021736Y016909D02*
X021669Y016975D01*
X021536Y016975D01*
X022390Y016775D02*
X022656Y016775D01*
X022590Y016575D02*
X022590Y016975D01*
X022390Y016775D01*
X022216Y016222D02*
X022806Y016222D01*
X023232Y016564D02*
X023468Y016564D01*
X023594Y016222D02*
X024027Y016222D01*
X024184Y016065D01*
X024184Y015435D01*
X024027Y015278D01*
X023594Y015278D01*
X023350Y015350D02*
X023350Y016150D01*
X023468Y017036D02*
X023232Y017036D01*
X022216Y016222D02*
X022216Y015278D01*
X022806Y015278D01*
X021988Y015560D02*
X021921Y015494D01*
X021788Y015494D01*
X021721Y015560D01*
X021854Y015694D02*
X021921Y015694D01*
X021988Y015627D01*
X021988Y015560D01*
X021921Y015694D02*
X021988Y015761D01*
X021988Y015827D01*
X021921Y015894D01*
X021788Y015894D01*
X021721Y015827D01*
X021394Y015894D02*
X021394Y015494D01*
X021527Y015494D02*
X021260Y015494D01*
X021067Y015560D02*
X021000Y015494D01*
X020867Y015494D01*
X020800Y015560D01*
X020800Y015827D01*
X020867Y015894D01*
X021000Y015894D01*
X021067Y015827D01*
X021260Y015761D02*
X021394Y015894D01*
X024650Y014167D02*
X024783Y014300D01*
X024783Y013900D01*
X024650Y013900D02*
X024917Y013900D01*
X026100Y014850D02*
X026100Y004850D01*
X020600Y009350D02*
X020600Y009850D01*
X020100Y009850D01*
X020100Y009350D01*
X020600Y009350D01*
X020600Y010350D02*
X020100Y010350D01*
X020100Y010850D01*
X020600Y010850D01*
X020600Y010350D01*
X019100Y011350D02*
X019033Y011321D01*
X018968Y011288D01*
X018905Y011253D01*
X018843Y011213D01*
X018784Y011171D01*
X018728Y011125D01*
X018673Y011076D01*
X018622Y011025D01*
X018573Y010971D01*
X018528Y010914D01*
X018485Y010855D01*
X018446Y010793D01*
X018410Y010730D01*
X018378Y010665D01*
X018349Y010598D01*
X018324Y010529D01*
X018303Y010460D01*
X018285Y010389D01*
X018272Y010318D01*
X018262Y010245D01*
X018256Y010173D01*
X018254Y010100D01*
X018256Y010027D01*
X018262Y009955D01*
X018272Y009882D01*
X018285Y009811D01*
X018303Y009740D01*
X018324Y009671D01*
X018349Y009602D01*
X018378Y009535D01*
X018410Y009470D01*
X018446Y009407D01*
X018485Y009345D01*
X018528Y009286D01*
X018573Y009229D01*
X018622Y009175D01*
X018673Y009124D01*
X018728Y009075D01*
X018784Y009029D01*
X018843Y008987D01*
X018905Y008947D01*
X018968Y008912D01*
X019033Y008879D01*
X019100Y008850D01*
X025302Y015700D02*
X025302Y016100D01*
X025169Y016100D02*
X025436Y016100D01*
X025629Y016100D02*
X025896Y015700D01*
X026090Y015767D02*
X026156Y015700D01*
X026290Y015700D01*
X026356Y015767D01*
X026356Y015833D01*
X026290Y015900D01*
X026223Y015900D01*
X026290Y015900D02*
X026356Y015967D01*
X026356Y016034D01*
X026290Y016100D01*
X026156Y016100D01*
X026090Y016034D01*
X025896Y016100D02*
X025629Y015700D01*
X025746Y016500D02*
X025479Y016900D01*
X025286Y016834D02*
X025286Y016700D01*
X025219Y016633D01*
X025019Y016633D01*
X025019Y016500D02*
X025019Y016900D01*
X025219Y016900D01*
X025286Y016834D01*
X025152Y016633D02*
X025286Y016500D01*
X025479Y016500D02*
X025746Y016900D01*
X025940Y016834D02*
X026006Y016900D01*
X026140Y016900D01*
X026206Y016834D01*
X026206Y016767D01*
X026140Y016700D01*
X026206Y016633D01*
X026206Y016567D01*
X026140Y016500D01*
X026006Y016500D01*
X025940Y016567D01*
X026073Y016700D02*
X026140Y016700D01*
X026173Y017400D02*
X026173Y017800D01*
X026040Y017667D01*
X025846Y017800D02*
X025579Y017400D01*
X025386Y017400D02*
X025252Y017533D01*
X025319Y017533D02*
X025119Y017533D01*
X025119Y017400D02*
X025119Y017800D01*
X025319Y017800D01*
X025386Y017734D01*
X025386Y017600D01*
X025319Y017533D01*
X025579Y017800D02*
X025846Y017400D01*
X026040Y017400D02*
X026306Y017400D01*
X029800Y022050D02*
X029800Y022250D01*
X029800Y023050D02*
X029800Y023250D01*
X029800Y024050D02*
X029800Y024250D01*
X029800Y025050D02*
X029800Y025250D01*
X029644Y034750D02*
X029510Y034883D01*
X029510Y035150D01*
X029317Y035084D02*
X029317Y035017D01*
X029250Y034950D01*
X029317Y034883D01*
X029317Y034817D01*
X029250Y034750D01*
X029117Y034750D01*
X029050Y034817D01*
X029183Y034950D02*
X029250Y034950D01*
X029317Y035084D02*
X029250Y035150D01*
X029117Y035150D01*
X029050Y035084D01*
X029644Y034750D02*
X029777Y034883D01*
X029777Y035150D01*
X029971Y035084D02*
X030038Y035150D01*
X030171Y035150D01*
X030238Y035084D01*
X030238Y035017D01*
X030171Y034950D01*
X030238Y034883D01*
X030238Y034817D01*
X030171Y034750D01*
X030038Y034750D01*
X029971Y034817D01*
X030104Y034950D02*
X030171Y034950D01*
X028950Y035932D02*
X028750Y035932D01*
X028850Y035832D02*
X028850Y036032D01*
X028850Y036782D02*
X028850Y036982D01*
X028750Y036882D02*
X028950Y036882D01*
X029333Y037150D02*
X029200Y037283D01*
X029200Y037550D01*
X029467Y037550D02*
X029467Y037283D01*
X029333Y037150D01*
X029660Y037150D02*
X029794Y037150D01*
X029727Y037150D02*
X029727Y037550D01*
X029660Y037550D02*
X029794Y037550D01*
X029967Y037550D02*
X029967Y037150D01*
X030234Y037150D02*
X029967Y037550D01*
X030234Y037550D02*
X030234Y037150D01*
X022740Y036665D02*
X022740Y036547D01*
X022740Y036665D02*
X021834Y036665D01*
X019866Y036665D02*
X018960Y036665D01*
X018960Y036547D01*
X018134Y036615D02*
X018134Y035985D01*
X017977Y035828D01*
X017544Y035828D01*
X017300Y035900D02*
X017300Y036700D01*
X017544Y036772D02*
X017977Y036772D01*
X018134Y036615D01*
X017323Y035607D02*
X017190Y035473D01*
X017323Y035607D02*
X017323Y035206D01*
X017190Y035206D02*
X017457Y035206D01*
X016996Y035273D02*
X016929Y035206D01*
X016796Y035206D01*
X016729Y035273D01*
X016729Y035540D01*
X016796Y035607D01*
X016929Y035607D01*
X016996Y035540D01*
X016756Y035828D02*
X016166Y035828D01*
X016166Y036772D01*
X016756Y036772D01*
X015510Y034574D02*
X015510Y033904D01*
X015856Y033794D02*
X016256Y033794D01*
X016256Y033927D02*
X016256Y033660D01*
X016190Y033467D02*
X016256Y033400D01*
X016256Y033267D01*
X016190Y033200D01*
X015923Y033200D01*
X015856Y033267D01*
X015856Y033400D01*
X015923Y033467D01*
X015989Y033660D02*
X015856Y033794D01*
X015856Y034121D02*
X015856Y034388D01*
X015923Y034388D01*
X016190Y034121D01*
X016256Y034121D01*
X015510Y034574D02*
X014270Y034574D01*
X014270Y033904D01*
X014394Y033310D02*
X015416Y033310D01*
X015510Y033156D02*
X015510Y032684D01*
X015392Y032526D01*
X014428Y032526D01*
X014290Y032684D01*
X014290Y033156D01*
X013550Y033306D02*
X013483Y033240D01*
X013550Y033306D02*
X013550Y033440D01*
X013483Y033507D01*
X013216Y033507D01*
X013150Y033440D01*
X013150Y033306D01*
X013216Y033240D01*
X013283Y033240D01*
X013350Y033306D01*
X013350Y033507D01*
X013483Y033046D02*
X013150Y033046D01*
X013150Y032779D02*
X013483Y032779D01*
X013550Y032846D01*
X013550Y032979D01*
X013483Y033046D01*
X007993Y018200D02*
X007995Y018303D01*
X008001Y018406D01*
X008011Y018508D01*
X008025Y018611D01*
X008043Y018712D01*
X008065Y018813D01*
X008090Y018913D01*
X008120Y019011D01*
X008153Y019109D01*
X008190Y019205D01*
X008231Y019299D01*
X008276Y019392D01*
X008324Y019484D01*
X008375Y019573D01*
X008430Y019660D01*
X008488Y019745D01*
X008550Y019828D01*
X008615Y019908D01*
X008682Y019986D01*
X008753Y020060D01*
X008827Y020133D01*
X008903Y020202D01*
X008982Y020268D01*
X009063Y020331D01*
X009147Y020391D01*
X009233Y020448D01*
X009321Y020501D01*
X009412Y020551D01*
X009504Y020597D01*
X009598Y020640D01*
X009693Y020679D01*
X009790Y020714D01*
X009888Y020745D01*
X009987Y020773D01*
X010088Y020797D01*
X010189Y020817D01*
X010290Y020833D01*
X010393Y020845D01*
X010496Y020853D01*
X010598Y020857D01*
X010702Y020857D01*
X010804Y020853D01*
X010907Y020845D01*
X011010Y020833D01*
X011111Y020817D01*
X011212Y020797D01*
X011313Y020773D01*
X011412Y020745D01*
X011510Y020714D01*
X011607Y020679D01*
X011702Y020640D01*
X011796Y020597D01*
X011888Y020551D01*
X011978Y020501D01*
X012067Y020448D01*
X012153Y020391D01*
X012237Y020331D01*
X012318Y020268D01*
X012397Y020202D01*
X012473Y020133D01*
X012547Y020060D01*
X012618Y019986D01*
X012685Y019908D01*
X012750Y019828D01*
X012812Y019745D01*
X012870Y019660D01*
X012925Y019573D01*
X012976Y019484D01*
X013024Y019392D01*
X013069Y019299D01*
X013110Y019205D01*
X013147Y019109D01*
X013180Y019011D01*
X013210Y018913D01*
X013235Y018813D01*
X013257Y018712D01*
X013275Y018611D01*
X013289Y018508D01*
X013299Y018406D01*
X013305Y018303D01*
X013307Y018200D01*
X013305Y018097D01*
X013299Y017994D01*
X013289Y017892D01*
X013275Y017789D01*
X013257Y017688D01*
X013235Y017587D01*
X013210Y017487D01*
X013180Y017389D01*
X013147Y017291D01*
X013110Y017195D01*
X013069Y017101D01*
X013024Y017008D01*
X012976Y016916D01*
X012925Y016827D01*
X012870Y016740D01*
X012812Y016655D01*
X012750Y016572D01*
X012685Y016492D01*
X012618Y016414D01*
X012547Y016340D01*
X012473Y016267D01*
X012397Y016198D01*
X012318Y016132D01*
X012237Y016069D01*
X012153Y016009D01*
X012067Y015952D01*
X011979Y015899D01*
X011888Y015849D01*
X011796Y015803D01*
X011702Y015760D01*
X011607Y015721D01*
X011510Y015686D01*
X011412Y015655D01*
X011313Y015627D01*
X011212Y015603D01*
X011111Y015583D01*
X011010Y015567D01*
X010907Y015555D01*
X010804Y015547D01*
X010702Y015543D01*
X010598Y015543D01*
X010496Y015547D01*
X010393Y015555D01*
X010290Y015567D01*
X010189Y015583D01*
X010088Y015603D01*
X009987Y015627D01*
X009888Y015655D01*
X009790Y015686D01*
X009693Y015721D01*
X009598Y015760D01*
X009504Y015803D01*
X009412Y015849D01*
X009322Y015899D01*
X009233Y015952D01*
X009147Y016009D01*
X009063Y016069D01*
X008982Y016132D01*
X008903Y016198D01*
X008827Y016267D01*
X008753Y016340D01*
X008682Y016414D01*
X008615Y016492D01*
X008550Y016572D01*
X008488Y016655D01*
X008430Y016740D01*
X008375Y016827D01*
X008324Y016916D01*
X008276Y017008D01*
X008231Y017101D01*
X008190Y017195D01*
X008153Y017291D01*
X008120Y017389D01*
X008090Y017487D01*
X008065Y017587D01*
X008043Y017688D01*
X008025Y017789D01*
X008011Y017892D01*
X008001Y017994D01*
X007995Y018097D01*
X007993Y018200D01*
X030962Y015100D02*
X030962Y015100D01*
D13*
X010163Y019705D02*
X009242Y019705D01*
X009703Y019244D02*
X009703Y020165D01*
D14*
X000882Y037150D02*
X000884Y037216D01*
X000890Y037282D01*
X000900Y037348D01*
X000913Y037413D01*
X000931Y037477D01*
X000952Y037539D01*
X000977Y037601D01*
X001005Y037661D01*
X001037Y037719D01*
X001073Y037775D01*
X001111Y037828D01*
X001153Y037880D01*
X001198Y037929D01*
X001245Y037975D01*
X001296Y038018D01*
X001348Y038058D01*
X001403Y038095D01*
X001460Y038129D01*
X001519Y038159D01*
X001580Y038186D01*
X001642Y038209D01*
X001705Y038228D01*
X001770Y038244D01*
X001835Y038256D01*
X001901Y038264D01*
X001967Y038268D01*
X002033Y038268D01*
X002099Y038264D01*
X002165Y038256D01*
X002230Y038244D01*
X002295Y038228D01*
X002358Y038209D01*
X002420Y038186D01*
X002481Y038159D01*
X002540Y038129D01*
X002597Y038095D01*
X002652Y038058D01*
X002704Y038018D01*
X002755Y037975D01*
X002802Y037929D01*
X002847Y037880D01*
X002889Y037828D01*
X002927Y037775D01*
X002963Y037719D01*
X002995Y037661D01*
X003023Y037601D01*
X003048Y037539D01*
X003069Y037477D01*
X003087Y037413D01*
X003100Y037348D01*
X003110Y037282D01*
X003116Y037216D01*
X003118Y037150D01*
X003116Y037084D01*
X003110Y037018D01*
X003100Y036952D01*
X003087Y036887D01*
X003069Y036823D01*
X003048Y036761D01*
X003023Y036699D01*
X002995Y036639D01*
X002963Y036581D01*
X002927Y036525D01*
X002889Y036472D01*
X002847Y036420D01*
X002802Y036371D01*
X002755Y036325D01*
X002704Y036282D01*
X002652Y036242D01*
X002597Y036205D01*
X002540Y036171D01*
X002481Y036141D01*
X002420Y036114D01*
X002358Y036091D01*
X002295Y036072D01*
X002230Y036056D01*
X002165Y036044D01*
X002099Y036036D01*
X002033Y036032D01*
X001967Y036032D01*
X001901Y036036D01*
X001835Y036044D01*
X001770Y036056D01*
X001705Y036072D01*
X001642Y036091D01*
X001580Y036114D01*
X001519Y036141D01*
X001460Y036171D01*
X001403Y036205D01*
X001348Y036242D01*
X001296Y036282D01*
X001245Y036325D01*
X001198Y036371D01*
X001153Y036420D01*
X001111Y036472D01*
X001073Y036525D01*
X001037Y036581D01*
X001005Y036639D01*
X000977Y036699D01*
X000952Y036761D01*
X000931Y036823D01*
X000913Y036887D01*
X000900Y036952D01*
X000890Y037018D01*
X000884Y037084D01*
X000882Y037150D01*
D15*
X011840Y009331D03*
X007260Y008331D03*
D16*
X016609Y001985D03*
D17*
X017591Y001985D03*
D18*
X016609Y001986D03*
D19*
X017591Y001986D03*
D20*
X017544Y002053D03*
X017544Y002054D03*
X017544Y002056D03*
X017585Y002166D03*
X017691Y002052D03*
X017690Y002051D03*
X017285Y001996D03*
X017285Y001994D03*
X017230Y002224D03*
X016744Y002172D03*
X016744Y002171D03*
X016696Y002046D03*
X016609Y001987D03*
X016559Y002054D03*
X016559Y002056D03*
X016559Y002057D03*
X016559Y002058D03*
X016600Y002166D03*
X016601Y002167D03*
X016325Y002227D03*
X016011Y002178D03*
X016011Y002177D03*
X016011Y002176D03*
X015985Y002127D03*
D21*
X015961Y002036D03*
X015961Y002034D03*
X015960Y002033D03*
X015960Y002032D03*
X015960Y002031D03*
X015959Y002029D03*
X015959Y002028D03*
X015959Y002027D03*
X015956Y002019D03*
X015956Y002018D03*
X015956Y002017D03*
X015955Y002014D03*
X015955Y002013D03*
X015954Y002011D03*
X015954Y002009D03*
X016210Y002071D03*
X016215Y002078D03*
X016219Y002084D03*
X016221Y002087D03*
X016224Y002091D03*
X016225Y002092D03*
X016226Y002094D03*
X016229Y002098D03*
X016230Y002099D03*
X016231Y002101D03*
X016235Y002106D03*
X016236Y002108D03*
X016239Y002112D03*
X016240Y002113D03*
X016244Y002119D03*
X016246Y002122D03*
X016249Y002126D03*
X016251Y002129D03*
X017144Y001997D03*
X017145Y001999D03*
X017146Y002002D03*
X017149Y002011D03*
X017150Y002013D03*
X017151Y002016D03*
X017154Y002024D03*
X017155Y002027D03*
X017159Y002038D03*
X017160Y002041D03*
X017161Y002043D03*
X017164Y002052D03*
X017165Y002054D03*
X017166Y002057D03*
X017170Y002068D03*
X017171Y002071D03*
X017174Y002079D03*
X017175Y002082D03*
X017179Y002093D03*
X017180Y002096D03*
X017181Y002098D03*
X017184Y002107D03*
X017185Y002109D03*
X017186Y002112D03*
X017190Y002123D03*
X017191Y002126D03*
X017194Y002134D03*
X017195Y002137D03*
X017199Y002148D03*
X017200Y002151D03*
X017329Y002107D03*
X017330Y002109D03*
X017331Y002112D03*
X017335Y002123D03*
X017336Y002126D03*
X017339Y002134D03*
X017340Y002137D03*
X017344Y002148D03*
X017345Y002151D03*
X017346Y002153D03*
X017349Y002162D03*
X017350Y002164D03*
X017351Y002167D03*
X017355Y002178D03*
X017356Y002181D03*
X017359Y002189D03*
X017360Y002192D03*
X017361Y002194D03*
X017364Y002203D03*
X017365Y002206D03*
X017366Y002208D03*
X017369Y002216D03*
X017369Y002217D03*
X017370Y002219D03*
X017371Y002222D03*
X017326Y002098D03*
X017325Y002096D03*
X017324Y002093D03*
X017320Y002082D03*
X017319Y002079D03*
X017316Y002071D03*
X017591Y001987D03*
X017699Y002067D03*
X017700Y002069D03*
X017726Y002152D03*
D22*
X017684Y002042D03*
X017549Y002039D03*
X017600Y002181D03*
X017601Y002182D03*
X017230Y002212D03*
X017230Y002213D03*
X017230Y002214D03*
X016740Y002183D03*
X016616Y002182D03*
X016615Y002181D03*
X016610Y001988D03*
X016321Y002217D03*
X016321Y002218D03*
X018529Y001996D03*
D23*
X017726Y002179D03*
X017591Y002173D03*
X017590Y002172D03*
X017589Y002171D03*
X017545Y002049D03*
X017545Y002048D03*
X017591Y001988D03*
X017688Y002048D03*
X017230Y002221D03*
X017230Y002222D03*
X016743Y002176D03*
X016693Y002043D03*
X016692Y002042D03*
X016691Y002041D03*
X016560Y002049D03*
X016324Y002224D03*
X015966Y002077D03*
D24*
X016569Y002032D03*
X016609Y001989D03*
X016734Y002189D03*
X017554Y002032D03*
D25*
X017549Y002038D03*
X017591Y001989D03*
X017603Y002183D03*
X017722Y002186D03*
X017286Y002009D03*
X017286Y002008D03*
X017229Y002211D03*
X016739Y002184D03*
X016618Y002183D03*
X016564Y002039D03*
X016682Y002034D03*
X016321Y002216D03*
X016008Y002186D03*
X015963Y002081D03*
X018529Y001997D03*
D26*
X018528Y002070D03*
X018529Y002085D03*
X018584Y002070D03*
X018594Y002085D03*
X018161Y002080D03*
X018159Y002075D03*
X018152Y002055D03*
X018148Y002045D03*
X017549Y002100D03*
X017263Y002085D03*
X017262Y002090D03*
X017261Y002095D03*
X017259Y002105D03*
X017252Y002135D03*
X017251Y002140D03*
X017249Y002150D03*
X016997Y002230D03*
X016993Y002220D03*
X016986Y002200D03*
X016984Y002195D03*
X016973Y002165D03*
X016966Y002145D03*
X016964Y002140D03*
X016953Y002110D03*
X016946Y002090D03*
X016944Y002085D03*
X016933Y002055D03*
X016926Y002035D03*
X016924Y002030D03*
X016922Y002025D03*
X016913Y002000D03*
X016744Y002160D03*
X016574Y002125D03*
X016566Y002105D03*
X016563Y002095D03*
X016326Y002090D03*
X016326Y002085D03*
X016326Y002080D03*
X016188Y002040D03*
X016181Y002030D03*
X016174Y002020D03*
X016167Y002010D03*
X015967Y002060D03*
X015952Y001990D03*
X015827Y002045D03*
X015823Y002035D03*
X015816Y002015D03*
X015814Y002010D03*
X015807Y001990D03*
X015834Y002065D03*
X015836Y002070D03*
X015994Y002135D03*
X016003Y002150D03*
D27*
X016005Y002155D03*
X016008Y002160D03*
X016010Y002165D03*
X015968Y002065D03*
X015840Y002080D03*
X015838Y002075D03*
X015833Y002060D03*
X015830Y002055D03*
X015829Y002050D03*
X015821Y002030D03*
X015820Y002025D03*
X015818Y002020D03*
X015813Y002005D03*
X015810Y002000D03*
X015809Y001995D03*
X016153Y001990D03*
X016156Y001995D03*
X016164Y002005D03*
X016324Y001995D03*
X016325Y002020D03*
X016325Y002025D03*
X016325Y002030D03*
X016325Y002035D03*
X016325Y002040D03*
X016560Y002080D03*
X016560Y002085D03*
X016561Y002090D03*
X016565Y002100D03*
X016568Y002110D03*
X016570Y002115D03*
X016571Y002120D03*
X016576Y002130D03*
X016581Y002140D03*
X016585Y002145D03*
X016710Y002065D03*
X016708Y002060D03*
X016745Y002165D03*
X016948Y002095D03*
X016950Y002100D03*
X016951Y002105D03*
X016956Y002120D03*
X016959Y002125D03*
X016960Y002130D03*
X016963Y002135D03*
X016968Y002150D03*
X016970Y002155D03*
X016971Y002160D03*
X016976Y002175D03*
X016979Y002180D03*
X016980Y002185D03*
X016983Y002190D03*
X016988Y002205D03*
X016990Y002210D03*
X016991Y002215D03*
X016943Y002080D03*
X016940Y002075D03*
X016939Y002070D03*
X016936Y002065D03*
X016931Y002050D03*
X016930Y002045D03*
X016928Y002040D03*
X016920Y002020D03*
X016919Y002015D03*
X016916Y002010D03*
X016911Y001995D03*
X016910Y001990D03*
X017285Y001990D03*
X017230Y002230D03*
X017550Y002105D03*
X017553Y002110D03*
X017555Y002115D03*
X017556Y002120D03*
X017559Y002125D03*
X017561Y002130D03*
X017564Y002135D03*
X017566Y002140D03*
X017570Y002145D03*
X017573Y002150D03*
X017548Y002095D03*
X017546Y002090D03*
X017545Y002085D03*
X017545Y002080D03*
X017544Y002075D03*
X017728Y002165D03*
X018145Y002035D03*
X018146Y002040D03*
X018154Y002060D03*
X018155Y002065D03*
X018158Y002070D03*
X018163Y002085D03*
X018165Y002090D03*
X018528Y002065D03*
X018529Y002075D03*
X018529Y002080D03*
X018530Y002090D03*
X018530Y002095D03*
X018530Y002105D03*
X018530Y002110D03*
X018530Y002115D03*
X018531Y002120D03*
X018531Y002125D03*
X018531Y002130D03*
X018533Y002135D03*
X018533Y002140D03*
X018533Y002145D03*
X018534Y002150D03*
X018534Y002155D03*
X018534Y002160D03*
X018535Y002170D03*
X018535Y002175D03*
X018535Y002185D03*
X018535Y002190D03*
X018536Y002200D03*
X018536Y002205D03*
X018538Y002220D03*
X018638Y002150D03*
X018635Y002145D03*
X018628Y002135D03*
X018625Y002130D03*
X018620Y002125D03*
X018618Y002120D03*
X018615Y002115D03*
X018610Y002110D03*
X018608Y002105D03*
X018605Y002100D03*
X018600Y002095D03*
X018598Y002090D03*
X018590Y002080D03*
X018588Y002075D03*
X018580Y002065D03*
X018645Y002160D03*
X018648Y002165D03*
X018655Y002175D03*
X018665Y002190D03*
D28*
X018668Y002195D03*
X018671Y002200D03*
X018678Y002210D03*
X018681Y002215D03*
X018688Y002225D03*
X018691Y002230D03*
X018661Y002185D03*
X018658Y002180D03*
X018651Y002170D03*
X018641Y002155D03*
X018631Y002140D03*
X018534Y002165D03*
X018536Y002195D03*
X018537Y002210D03*
X018537Y002215D03*
X018538Y002225D03*
X018538Y002230D03*
X017728Y002170D03*
X017576Y002155D03*
X017543Y002070D03*
X017543Y002065D03*
X016704Y002055D03*
X016559Y002070D03*
X016559Y002075D03*
X016579Y002135D03*
X016588Y002150D03*
X016591Y002155D03*
X016326Y002230D03*
X016324Y002015D03*
X016324Y002010D03*
X016324Y002005D03*
X016324Y002000D03*
X016323Y001990D03*
X015989Y002130D03*
D29*
X016315Y002200D03*
X016610Y001990D03*
D30*
X016276Y002165D03*
X016269Y002155D03*
X016265Y002150D03*
X016258Y002140D03*
X016255Y002135D03*
X016251Y002130D03*
X016244Y002120D03*
X017141Y001990D03*
X017143Y001995D03*
X017150Y002015D03*
X017154Y002025D03*
X017159Y002040D03*
X017161Y002045D03*
X017163Y002050D03*
X017165Y002055D03*
X017170Y002070D03*
X017174Y002080D03*
X017179Y002095D03*
X017181Y002100D03*
X017183Y002105D03*
X017185Y002110D03*
X017190Y002125D03*
X017194Y002135D03*
X017199Y002150D03*
X017326Y002100D03*
X017324Y002095D03*
X017328Y002105D03*
X017330Y002110D03*
X017335Y002125D03*
X017339Y002135D03*
X017344Y002150D03*
X017346Y002155D03*
X017348Y002160D03*
X017350Y002165D03*
X017355Y002180D03*
X017359Y002190D03*
X017366Y002210D03*
X017368Y002215D03*
X017370Y002220D03*
X017319Y002080D03*
X017315Y002070D03*
X017700Y002070D03*
D31*
X017591Y001990D03*
D32*
X017679Y001990D03*
D33*
X018189Y001990D03*
X018194Y002005D03*
X018200Y002020D03*
X015904Y002090D03*
D34*
X016561Y002045D03*
X016608Y002175D03*
X017285Y002000D03*
X017593Y002175D03*
X017725Y002180D03*
X018526Y001990D03*
D35*
X018528Y002066D03*
X018528Y002067D03*
X018528Y002068D03*
X018528Y002069D03*
X018529Y002083D03*
X018529Y002084D03*
X018582Y002067D03*
X018586Y002073D03*
X018588Y002076D03*
X018592Y002082D03*
X018596Y002088D03*
X018598Y002091D03*
X018164Y002089D03*
X018164Y002088D03*
X018163Y002086D03*
X018162Y002083D03*
X018158Y002072D03*
X018157Y002069D03*
X018156Y002067D03*
X018156Y002066D03*
X018154Y002061D03*
X018153Y002058D03*
X018152Y002056D03*
X018151Y002053D03*
X018149Y002047D03*
X018148Y002044D03*
X018147Y002042D03*
X018146Y002039D03*
X017728Y002162D03*
X017728Y002163D03*
X017728Y002164D03*
X017697Y002063D03*
X017696Y002061D03*
X017557Y002121D03*
X017556Y002119D03*
X017554Y002114D03*
X017553Y002111D03*
X017552Y002109D03*
X017551Y002106D03*
X017548Y002096D03*
X017267Y002069D03*
X017266Y002072D03*
X017266Y002073D03*
X017264Y002081D03*
X017264Y002082D03*
X017263Y002086D03*
X017263Y002087D03*
X017262Y002091D03*
X017261Y002094D03*
X017261Y002096D03*
X017259Y002103D03*
X017259Y002104D03*
X017258Y002108D03*
X017258Y002109D03*
X017257Y002113D03*
X017257Y002114D03*
X017256Y002117D03*
X017256Y002118D03*
X017256Y002119D03*
X017254Y002126D03*
X017254Y002127D03*
X017254Y002128D03*
X017253Y002131D03*
X017253Y002132D03*
X017252Y002136D03*
X017252Y002137D03*
X017251Y002141D03*
X017249Y002149D03*
X016996Y002228D03*
X016994Y002222D03*
X016993Y002219D03*
X016992Y002217D03*
X016991Y002214D03*
X016989Y002209D03*
X016988Y002206D03*
X016987Y002203D03*
X016983Y002192D03*
X016982Y002189D03*
X016981Y002187D03*
X016979Y002181D03*
X016978Y002178D03*
X016977Y002176D03*
X016976Y002173D03*
X016974Y002167D03*
X016972Y002162D03*
X016971Y002159D03*
X016969Y002154D03*
X016968Y002151D03*
X016967Y002148D03*
X016963Y002137D03*
X016962Y002134D03*
X016961Y002132D03*
X016959Y002126D03*
X016958Y002123D03*
X016957Y002121D03*
X016956Y002118D03*
X016954Y002112D03*
X016952Y002107D03*
X016951Y002104D03*
X016949Y002099D03*
X016948Y002096D03*
X016947Y002093D03*
X016943Y002082D03*
X016942Y002079D03*
X016941Y002077D03*
X016939Y002071D03*
X016938Y002068D03*
X016937Y002066D03*
X016936Y002063D03*
X016934Y002057D03*
X016932Y002052D03*
X016931Y002049D03*
X016929Y002044D03*
X016928Y002041D03*
X016927Y002038D03*
X016926Y002036D03*
X016923Y002027D03*
X016922Y002024D03*
X016921Y002022D03*
X016919Y002016D03*
X016918Y002014D03*
X016918Y002013D03*
X016917Y002011D03*
X016916Y002008D03*
X016914Y002003D03*
X016914Y002002D03*
X016912Y001997D03*
X016911Y001994D03*
X016718Y002078D03*
X016717Y002076D03*
X016716Y002074D03*
X016714Y002071D03*
X016713Y002069D03*
X016712Y002068D03*
X016712Y002067D03*
X016711Y002066D03*
X016708Y002061D03*
X016744Y002156D03*
X016744Y002157D03*
X016744Y002158D03*
X016744Y002159D03*
X016744Y002161D03*
X016699Y002234D03*
X016573Y002123D03*
X016571Y002118D03*
X016569Y002113D03*
X016568Y002111D03*
X016567Y002108D03*
X016564Y002099D03*
X016562Y002091D03*
X016326Y002091D03*
X016326Y002092D03*
X016326Y002093D03*
X016326Y002089D03*
X016326Y002088D03*
X016326Y002087D03*
X016326Y002086D03*
X016326Y002084D03*
X016326Y002083D03*
X016326Y002082D03*
X016326Y002081D03*
X016326Y002079D03*
X016326Y002078D03*
X016326Y002077D03*
X016326Y002076D03*
X016198Y002054D03*
X016193Y002047D03*
X016191Y002044D03*
X016189Y002041D03*
X016186Y002037D03*
X016184Y002034D03*
X016183Y002033D03*
X016182Y002031D03*
X016179Y002027D03*
X016178Y002026D03*
X016177Y002024D03*
X016176Y002023D03*
X016173Y002019D03*
X016172Y002017D03*
X016171Y002016D03*
X016169Y002013D03*
X016168Y002012D03*
X016166Y002009D03*
X016164Y002006D03*
X016162Y002003D03*
X016161Y002002D03*
X016159Y001999D03*
X016157Y001996D03*
X015966Y002053D03*
X015966Y002054D03*
X015967Y002058D03*
X015967Y002059D03*
X015967Y002061D03*
X015967Y002062D03*
X015952Y001994D03*
X015952Y001993D03*
X015952Y001992D03*
X015952Y001991D03*
X015823Y002034D03*
X015822Y002032D03*
X015821Y002029D03*
X015819Y002024D03*
X015819Y002023D03*
X015818Y002021D03*
X015817Y002018D03*
X015813Y002007D03*
X015812Y002004D03*
X015811Y002002D03*
X015811Y002001D03*
X015809Y001996D03*
X015808Y001993D03*
X015807Y001991D03*
X015824Y002037D03*
X015826Y002043D03*
X015827Y002046D03*
X015828Y002048D03*
X015829Y002051D03*
X015831Y002056D03*
X015831Y002057D03*
X015832Y002059D03*
X015833Y002062D03*
X015837Y002073D03*
X015838Y002076D03*
X015839Y002078D03*
X015839Y002079D03*
X015991Y002132D03*
X015992Y002133D03*
X015993Y002134D03*
X015996Y002138D03*
X015997Y002139D03*
X015998Y002141D03*
X015999Y002142D03*
X016001Y002146D03*
X016002Y002147D03*
X016002Y002148D03*
X016003Y002149D03*
X016004Y002151D03*
X016004Y002152D03*
X016006Y002156D03*
X016007Y002158D03*
X016007Y002159D03*
X016008Y002161D03*
D36*
X016009Y002162D03*
X016009Y002163D03*
X016009Y002164D03*
X016010Y002166D03*
X016010Y002167D03*
X016006Y002157D03*
X015968Y002068D03*
X015968Y002067D03*
X015968Y002066D03*
X015968Y002064D03*
X015968Y002063D03*
X015841Y002084D03*
X015840Y002083D03*
X015840Y002082D03*
X015839Y002077D03*
X015838Y002074D03*
X015836Y002072D03*
X015836Y002071D03*
X015835Y002069D03*
X015835Y002066D03*
X015834Y002064D03*
X015834Y002063D03*
X015833Y002061D03*
X015831Y002058D03*
X015830Y002053D03*
X015830Y002052D03*
X015829Y002049D03*
X015828Y002047D03*
X015826Y002044D03*
X015825Y002042D03*
X015825Y002041D03*
X015825Y002039D03*
X015825Y002038D03*
X015824Y002036D03*
X015823Y002033D03*
X015821Y002031D03*
X015820Y002028D03*
X015820Y002027D03*
X015819Y002022D03*
X015818Y002019D03*
X015816Y002017D03*
X015816Y002016D03*
X015815Y002014D03*
X015815Y002011D03*
X015814Y002009D03*
X015814Y002008D03*
X015813Y002006D03*
X015811Y002003D03*
X015810Y001998D03*
X015810Y001997D03*
X015809Y001994D03*
X015808Y001992D03*
X016154Y001991D03*
X016155Y001992D03*
X016155Y001994D03*
X016158Y001997D03*
X016159Y001998D03*
X016160Y002001D03*
X016163Y002004D03*
X016165Y002008D03*
X016168Y002011D03*
X016173Y002018D03*
X016325Y002018D03*
X016325Y002019D03*
X016325Y002021D03*
X016325Y002022D03*
X016325Y002023D03*
X016325Y002024D03*
X016325Y002026D03*
X016325Y002027D03*
X016325Y002028D03*
X016325Y002029D03*
X016325Y002031D03*
X016325Y002032D03*
X016325Y002033D03*
X016325Y002034D03*
X016325Y002036D03*
X016325Y002037D03*
X016325Y002038D03*
X016325Y002039D03*
X016325Y002041D03*
X016325Y002042D03*
X016325Y002017D03*
X016324Y001994D03*
X016324Y001993D03*
X016324Y001992D03*
X016560Y002077D03*
X016560Y002078D03*
X016560Y002079D03*
X016560Y002081D03*
X016560Y002083D03*
X016560Y002084D03*
X016560Y002086D03*
X016561Y002087D03*
X016561Y002088D03*
X016561Y002089D03*
X016563Y002092D03*
X016563Y002093D03*
X016563Y002094D03*
X016564Y002096D03*
X016564Y002097D03*
X016564Y002098D03*
X016565Y002101D03*
X016565Y002103D03*
X016565Y002104D03*
X016566Y002106D03*
X016566Y002107D03*
X016568Y002109D03*
X016569Y002112D03*
X016570Y002114D03*
X016570Y002117D03*
X016571Y002119D03*
X016573Y002121D03*
X016573Y002122D03*
X016574Y002124D03*
X016575Y002126D03*
X016575Y002128D03*
X016575Y002129D03*
X016576Y002131D03*
X016578Y002132D03*
X016578Y002133D03*
X016579Y002134D03*
X016580Y002136D03*
X016580Y002138D03*
X016581Y002139D03*
X016583Y002141D03*
X016584Y002143D03*
X016586Y002148D03*
X016589Y002151D03*
X016709Y002062D03*
X016710Y002063D03*
X016706Y002059D03*
X016705Y002056D03*
X016745Y002162D03*
X016745Y002163D03*
X016745Y002164D03*
X016745Y002166D03*
X016949Y002098D03*
X016949Y002097D03*
X016948Y002094D03*
X016946Y002092D03*
X016946Y002091D03*
X016945Y002089D03*
X016945Y002087D03*
X016945Y002086D03*
X016944Y002084D03*
X016944Y002083D03*
X016943Y002081D03*
X016941Y002078D03*
X016940Y002076D03*
X016940Y002073D03*
X016940Y002072D03*
X016939Y002069D03*
X016938Y002067D03*
X016936Y002064D03*
X016935Y002062D03*
X016935Y002061D03*
X016935Y002059D03*
X016935Y002058D03*
X016934Y002056D03*
X016933Y002054D03*
X016933Y002053D03*
X016931Y002051D03*
X016930Y002048D03*
X016929Y002043D03*
X016929Y002042D03*
X016928Y002039D03*
X016926Y002037D03*
X016925Y002034D03*
X016925Y002032D03*
X016925Y002031D03*
X016924Y002029D03*
X016924Y002028D03*
X016923Y002026D03*
X016921Y002023D03*
X016920Y002021D03*
X016920Y002018D03*
X016920Y002017D03*
X016918Y002012D03*
X016916Y002009D03*
X016915Y002007D03*
X016915Y002006D03*
X016915Y002004D03*
X016914Y002001D03*
X016913Y001999D03*
X016913Y001998D03*
X016911Y001996D03*
X016910Y001993D03*
X016950Y002102D03*
X016950Y002103D03*
X016951Y002106D03*
X016953Y002108D03*
X016953Y002109D03*
X016954Y002111D03*
X016955Y002113D03*
X016955Y002114D03*
X016955Y002116D03*
X016955Y002117D03*
X016956Y002119D03*
X016958Y002122D03*
X016959Y002124D03*
X016960Y002127D03*
X016960Y002128D03*
X016960Y002131D03*
X016961Y002133D03*
X016963Y002136D03*
X016964Y002138D03*
X016964Y002139D03*
X016965Y002141D03*
X016965Y002142D03*
X016965Y002144D03*
X016966Y002146D03*
X016966Y002147D03*
X016968Y002149D03*
X016969Y002152D03*
X016969Y002153D03*
X016970Y002157D03*
X016970Y002158D03*
X016971Y002161D03*
X016973Y002163D03*
X016973Y002164D03*
X016974Y002166D03*
X016975Y002168D03*
X016975Y002169D03*
X016975Y002171D03*
X016975Y002172D03*
X016976Y002174D03*
X016978Y002177D03*
X016979Y002179D03*
X016980Y002182D03*
X016980Y002183D03*
X016980Y002186D03*
X016981Y002188D03*
X016983Y002191D03*
X016984Y002193D03*
X016984Y002194D03*
X016985Y002196D03*
X016985Y002197D03*
X016985Y002199D03*
X016986Y002201D03*
X016986Y002202D03*
X016988Y002204D03*
X016989Y002207D03*
X016989Y002208D03*
X016990Y002212D03*
X016990Y002213D03*
X016991Y002216D03*
X016993Y002218D03*
X016994Y002221D03*
X016995Y002223D03*
X016995Y002224D03*
X016995Y002226D03*
X016995Y002227D03*
X016996Y002229D03*
X017230Y002229D03*
X017551Y002108D03*
X017551Y002107D03*
X017550Y002104D03*
X017550Y002102D03*
X017550Y002101D03*
X017549Y002099D03*
X017549Y002098D03*
X017549Y002097D03*
X017548Y002094D03*
X017548Y002093D03*
X017546Y002092D03*
X017546Y002091D03*
X017546Y002089D03*
X017545Y002088D03*
X017545Y002087D03*
X017545Y002086D03*
X017545Y002084D03*
X017545Y002083D03*
X017545Y002082D03*
X017545Y002081D03*
X017545Y002079D03*
X017544Y002074D03*
X017544Y002073D03*
X017544Y002072D03*
X017554Y002112D03*
X017554Y002113D03*
X017555Y002116D03*
X017555Y002117D03*
X017555Y002118D03*
X017558Y002122D03*
X017558Y002123D03*
X017559Y002124D03*
X017560Y002126D03*
X017560Y002127D03*
X017560Y002128D03*
X017560Y002129D03*
X017561Y002131D03*
X017563Y002132D03*
X017563Y002133D03*
X017564Y002134D03*
X017565Y002136D03*
X017565Y002137D03*
X017565Y002138D03*
X017565Y002139D03*
X017568Y002142D03*
X017569Y002144D03*
X017570Y002147D03*
X017694Y002057D03*
X017695Y002058D03*
X017728Y002166D03*
X017728Y002167D03*
X017728Y002168D03*
X018145Y002038D03*
X018145Y002037D03*
X018145Y002034D03*
X018146Y002041D03*
X018148Y002043D03*
X018149Y002046D03*
X018150Y002048D03*
X018150Y002049D03*
X018150Y002051D03*
X018150Y002052D03*
X018151Y002054D03*
X018153Y002057D03*
X018154Y002059D03*
X018155Y002062D03*
X018155Y002063D03*
X018156Y002068D03*
X018158Y002071D03*
X018159Y002073D03*
X018159Y002074D03*
X018160Y002076D03*
X018160Y002079D03*
X018161Y002081D03*
X018161Y002082D03*
X018163Y002084D03*
X018164Y002087D03*
X018165Y002092D03*
X018165Y002093D03*
X018528Y002064D03*
X018528Y002063D03*
X018528Y002062D03*
X018529Y002071D03*
X018529Y002072D03*
X018529Y002073D03*
X018529Y002074D03*
X018529Y002076D03*
X018529Y002077D03*
X018529Y002078D03*
X018529Y002079D03*
X018529Y002081D03*
X018529Y002082D03*
X018530Y002086D03*
X018530Y002087D03*
X018530Y002088D03*
X018530Y002089D03*
X018530Y002091D03*
X018530Y002092D03*
X018530Y002093D03*
X018530Y002094D03*
X018530Y002096D03*
X018530Y002097D03*
X018530Y002098D03*
X018530Y002101D03*
X018530Y002102D03*
X018530Y002103D03*
X018530Y002104D03*
X018530Y002106D03*
X018530Y002107D03*
X018530Y002108D03*
X018530Y002109D03*
X018530Y002111D03*
X018530Y002112D03*
X018530Y002113D03*
X018530Y002114D03*
X018531Y002116D03*
X018531Y002117D03*
X018531Y002118D03*
X018531Y002119D03*
X018531Y002121D03*
X018531Y002122D03*
X018531Y002123D03*
X018531Y002124D03*
X018531Y002126D03*
X018531Y002127D03*
X018531Y002128D03*
X018531Y002129D03*
X018533Y002133D03*
X018533Y002134D03*
X018533Y002136D03*
X018533Y002137D03*
X018533Y002138D03*
X018533Y002139D03*
X018533Y002141D03*
X018533Y002142D03*
X018533Y002143D03*
X018533Y002144D03*
X018533Y002146D03*
X018534Y002151D03*
X018534Y002152D03*
X018534Y002153D03*
X018534Y002154D03*
X018534Y002156D03*
X018534Y002157D03*
X018534Y002158D03*
X018534Y002159D03*
X018534Y002161D03*
X018535Y002166D03*
X018535Y002167D03*
X018535Y002168D03*
X018535Y002169D03*
X018535Y002171D03*
X018535Y002172D03*
X018535Y002173D03*
X018535Y002174D03*
X018535Y002176D03*
X018535Y002183D03*
X018535Y002184D03*
X018535Y002186D03*
X018535Y002187D03*
X018535Y002188D03*
X018535Y002189D03*
X018535Y002191D03*
X018536Y002201D03*
X018536Y002202D03*
X018536Y002203D03*
X018536Y002204D03*
X018536Y002206D03*
X018538Y002216D03*
X018538Y002217D03*
X018538Y002218D03*
X018538Y002219D03*
X018538Y002221D03*
X018640Y002153D03*
X018640Y002154D03*
X018641Y002156D03*
X018643Y002157D03*
X018644Y002159D03*
X018645Y002162D03*
X018646Y002163D03*
X018649Y002166D03*
X018650Y002169D03*
X018653Y002172D03*
X018656Y002178D03*
X018659Y002181D03*
X018660Y002184D03*
X018663Y002187D03*
X018666Y002193D03*
X018669Y002196D03*
X018670Y002199D03*
X018673Y002202D03*
X018639Y002151D03*
X018636Y002148D03*
X018635Y002147D03*
X018634Y002144D03*
X018633Y002142D03*
X018631Y002141D03*
X018630Y002139D03*
X018630Y002138D03*
X018629Y002136D03*
X018626Y002133D03*
X018625Y002132D03*
X018624Y002129D03*
X018623Y002128D03*
X018623Y002127D03*
X018621Y002126D03*
X018620Y002124D03*
X018620Y002123D03*
X018619Y002122D03*
X018619Y002121D03*
X018616Y002119D03*
X018616Y002118D03*
X018615Y002117D03*
X018615Y002116D03*
X018614Y002114D03*
X018613Y002113D03*
X018613Y002112D03*
X018611Y002111D03*
X018610Y002109D03*
X018610Y002108D03*
X018609Y002107D03*
X018609Y002106D03*
X018606Y002104D03*
X018606Y002103D03*
X018605Y002102D03*
X018605Y002101D03*
X018604Y002099D03*
X018603Y002098D03*
X018603Y002097D03*
X018601Y002096D03*
X018600Y002094D03*
X018600Y002093D03*
X018599Y002092D03*
X018596Y002089D03*
X018595Y002087D03*
X018595Y002086D03*
X018594Y002084D03*
X018593Y002083D03*
X018591Y002081D03*
X018590Y002078D03*
X018589Y002077D03*
X018586Y002074D03*
X018585Y002072D03*
X018585Y002071D03*
X018584Y002069D03*
X018583Y002068D03*
X018581Y002066D03*
X018580Y002063D03*
X018579Y002062D03*
D37*
X018532Y002131D03*
X018532Y002132D03*
X018533Y002147D03*
X018533Y002148D03*
X018533Y002149D03*
X018534Y002162D03*
X018534Y002163D03*
X018534Y002164D03*
X018536Y002192D03*
X018536Y002193D03*
X018536Y002194D03*
X018536Y002196D03*
X018536Y002197D03*
X018536Y002198D03*
X018536Y002199D03*
X018537Y002207D03*
X018537Y002208D03*
X018537Y002209D03*
X018537Y002211D03*
X018537Y002212D03*
X018537Y002213D03*
X018537Y002214D03*
X018538Y002222D03*
X018538Y002223D03*
X018538Y002224D03*
X018538Y002226D03*
X018538Y002227D03*
X018538Y002228D03*
X018538Y002229D03*
X018643Y002158D03*
X018647Y002164D03*
X018649Y002167D03*
X018652Y002171D03*
X018653Y002173D03*
X018654Y002174D03*
X018656Y002177D03*
X018657Y002179D03*
X018659Y002182D03*
X018662Y002186D03*
X018663Y002188D03*
X018664Y002189D03*
X018666Y002192D03*
X018667Y002194D03*
X018669Y002197D03*
X018672Y002201D03*
X018673Y002203D03*
X018674Y002204D03*
X018676Y002207D03*
X018677Y002208D03*
X018677Y002209D03*
X018679Y002211D03*
X018679Y002212D03*
X018681Y002214D03*
X018682Y002216D03*
X018683Y002217D03*
X018683Y002218D03*
X018684Y002219D03*
X018686Y002222D03*
X018687Y002223D03*
X018687Y002224D03*
X018689Y002226D03*
X018689Y002227D03*
X018691Y002229D03*
X018639Y002152D03*
X018637Y002149D03*
X018633Y002143D03*
X018629Y002137D03*
X018627Y002134D03*
X017728Y002169D03*
X017693Y002056D03*
X017692Y002054D03*
X017543Y002064D03*
X017543Y002066D03*
X017543Y002067D03*
X017543Y002068D03*
X017543Y002069D03*
X017543Y002071D03*
X017544Y002076D03*
X017544Y002077D03*
X017544Y002078D03*
X017567Y002141D03*
X017568Y002143D03*
X017571Y002148D03*
X017572Y002149D03*
X017573Y002151D03*
X017574Y002152D03*
X017579Y002159D03*
X016744Y002167D03*
X016744Y002168D03*
X016744Y002169D03*
X016706Y002058D03*
X016703Y002054D03*
X016702Y002053D03*
X016559Y002069D03*
X016559Y002071D03*
X016559Y002072D03*
X016559Y002073D03*
X016559Y002074D03*
X016559Y002076D03*
X016583Y002142D03*
X016584Y002144D03*
X016586Y002147D03*
X016587Y002149D03*
X016589Y002152D03*
X016592Y002156D03*
X016324Y002016D03*
X016324Y002014D03*
X016324Y002013D03*
X016324Y002012D03*
X016324Y002011D03*
X016324Y002009D03*
X016324Y002008D03*
X016324Y002007D03*
X016324Y002006D03*
X016324Y002004D03*
X016324Y002003D03*
X016324Y002002D03*
X016324Y002001D03*
X016324Y001999D03*
X016324Y001998D03*
X016324Y001997D03*
X016324Y001996D03*
X016323Y001991D03*
X015988Y002129D03*
D38*
X016610Y001991D03*
X017670Y002031D03*
X018540Y002027D03*
X018540Y002026D03*
D39*
X018580Y002064D03*
X018590Y002079D03*
X018530Y002099D03*
X018165Y002091D03*
X018160Y002078D03*
X018160Y002077D03*
X018155Y002064D03*
X018145Y002036D03*
X017695Y002059D03*
X017550Y002103D03*
X017265Y002078D03*
X017265Y002077D03*
X017265Y002076D03*
X017260Y002099D03*
X017255Y002122D03*
X017255Y002123D03*
X017250Y002144D03*
X017250Y002146D03*
X016990Y002211D03*
X016985Y002198D03*
X016980Y002184D03*
X016970Y002156D03*
X016965Y002143D03*
X016960Y002129D03*
X016950Y002101D03*
X016945Y002088D03*
X016940Y002074D03*
X016930Y002047D03*
X016930Y002046D03*
X016925Y002033D03*
X016920Y002019D03*
X016910Y001992D03*
X016910Y001991D03*
X016715Y002072D03*
X016710Y002064D03*
X016575Y002127D03*
X016570Y002116D03*
X016565Y002102D03*
X016325Y002068D03*
X016325Y002067D03*
X016325Y002066D03*
X016325Y002064D03*
X016325Y002063D03*
X016325Y002062D03*
X016325Y002061D03*
X016325Y002059D03*
X016325Y002058D03*
X016325Y002057D03*
X016325Y002056D03*
X016325Y002054D03*
X016325Y002053D03*
X016325Y002052D03*
X016325Y002051D03*
X016325Y002049D03*
X016325Y002048D03*
X016325Y002047D03*
X016325Y002046D03*
X016325Y002044D03*
X016325Y002043D03*
X016190Y002043D03*
X016185Y002036D03*
X016180Y002029D03*
X016180Y002028D03*
X016175Y002022D03*
X016175Y002021D03*
X016170Y002014D03*
X016165Y002007D03*
X016155Y001993D03*
X015995Y002136D03*
X015995Y002137D03*
X016000Y002144D03*
X016005Y002153D03*
X016005Y002154D03*
X015840Y002081D03*
X015835Y002068D03*
X015835Y002067D03*
X015830Y002054D03*
X015820Y002026D03*
X015815Y002013D03*
X015815Y002012D03*
X015810Y001999D03*
D40*
X015952Y001999D03*
X015952Y001998D03*
X015953Y002004D03*
X015953Y002006D03*
X015957Y002021D03*
X015957Y002022D03*
X015958Y002024D03*
X015962Y002037D03*
X015962Y002038D03*
X015962Y002039D03*
X015963Y002041D03*
X015963Y002042D03*
X016212Y002074D03*
X016217Y002081D03*
X016218Y002082D03*
X016222Y002088D03*
X016223Y002089D03*
X016228Y002096D03*
X016228Y002097D03*
X016232Y002102D03*
X016233Y002103D03*
X016233Y002104D03*
X016237Y002109D03*
X016238Y002111D03*
X016242Y002116D03*
X016243Y002118D03*
X016253Y002132D03*
X016327Y002132D03*
X016327Y002133D03*
X016327Y002134D03*
X016327Y002136D03*
X016327Y002137D03*
X016327Y002138D03*
X016327Y002139D03*
X016327Y002141D03*
X016327Y002142D03*
X016327Y002143D03*
X016327Y002144D03*
X016328Y002156D03*
X016328Y002157D03*
X016328Y002158D03*
X016328Y002159D03*
X016328Y002161D03*
X016328Y002162D03*
X016328Y002163D03*
X016328Y002164D03*
X016328Y002166D03*
X016328Y002167D03*
X016328Y002168D03*
X016328Y002169D03*
X016327Y002131D03*
X016327Y002129D03*
X016327Y002128D03*
X016327Y002127D03*
X016327Y002126D03*
X016327Y002124D03*
X016327Y002123D03*
X016327Y002122D03*
X016327Y002121D03*
X017142Y001991D03*
X017143Y001994D03*
X017148Y002008D03*
X017152Y002019D03*
X017153Y002021D03*
X017153Y002022D03*
X017157Y002032D03*
X017157Y002033D03*
X017162Y002046D03*
X017163Y002049D03*
X017168Y002063D03*
X017172Y002074D03*
X017173Y002076D03*
X017177Y002087D03*
X017182Y002101D03*
X017183Y002104D03*
X017188Y002118D03*
X017192Y002129D03*
X017193Y002131D03*
X017197Y002142D03*
X017327Y002101D03*
X017328Y002104D03*
X017333Y002118D03*
X017337Y002129D03*
X017338Y002131D03*
X017342Y002142D03*
X017347Y002156D03*
X017348Y002159D03*
X017353Y002173D03*
X017357Y002183D03*
X017357Y002184D03*
X017358Y002186D03*
X017362Y002197D03*
X017367Y002211D03*
X017368Y002214D03*
X017373Y002227D03*
X017373Y002228D03*
X017322Y002087D03*
X017318Y002077D03*
X017318Y002076D03*
X017317Y002074D03*
D41*
X017285Y001993D03*
X017285Y001992D03*
X017285Y001991D03*
X017230Y002228D03*
X017570Y002146D03*
X017575Y002153D03*
X017575Y002154D03*
X016705Y002057D03*
X016560Y002082D03*
X016580Y002137D03*
X016585Y002146D03*
X016590Y002153D03*
X016010Y002168D03*
X016010Y002169D03*
X015990Y002131D03*
X018535Y002177D03*
X018535Y002178D03*
X018535Y002179D03*
X018535Y002181D03*
X018535Y002182D03*
X018625Y002131D03*
X018635Y002146D03*
X018645Y002161D03*
X018650Y002168D03*
X018655Y002176D03*
X018660Y002183D03*
X018665Y002191D03*
X018670Y002198D03*
X018675Y002206D03*
X018680Y002213D03*
X018685Y002221D03*
X018690Y002228D03*
D42*
X018536Y002017D03*
X018536Y002016D03*
X017591Y001991D03*
X017288Y002027D03*
X017288Y002028D03*
X017288Y002029D03*
X017228Y002192D03*
D43*
X017679Y001991D03*
D44*
X018189Y001991D03*
X018190Y001992D03*
X018190Y001993D03*
X018190Y001994D03*
X018194Y002003D03*
X018194Y002004D03*
X018195Y002006D03*
X018195Y002007D03*
X018195Y002008D03*
X018199Y002017D03*
X018199Y002018D03*
X018199Y002019D03*
X018200Y002021D03*
X018204Y002031D03*
X018204Y002032D03*
X018205Y002033D03*
X015914Y002117D03*
X015904Y002091D03*
D45*
X016323Y002221D03*
X016323Y002222D03*
X016612Y002178D03*
X016742Y002179D03*
X016562Y002044D03*
X016562Y002043D03*
X017683Y002233D03*
X018527Y001991D03*
D46*
X018543Y002036D03*
X017226Y002171D03*
X017226Y002172D03*
X017226Y002173D03*
X016610Y001992D03*
X016309Y002184D03*
D47*
X016328Y002154D03*
X016328Y002153D03*
X016328Y002152D03*
X016328Y002151D03*
X016328Y002149D03*
X016328Y002148D03*
X016328Y002147D03*
X016328Y002146D03*
X016268Y002152D03*
X016258Y002138D03*
X016253Y002131D03*
X016248Y002124D03*
X016243Y002117D03*
X015958Y002023D03*
X017143Y001993D03*
X017143Y001992D03*
X017148Y002006D03*
X017148Y002007D03*
X017158Y002034D03*
X017163Y002047D03*
X017163Y002048D03*
X017168Y002061D03*
X017168Y002062D03*
X017178Y002088D03*
X017178Y002089D03*
X017183Y002102D03*
X017183Y002103D03*
X017188Y002116D03*
X017188Y002117D03*
X017198Y002143D03*
X017198Y002144D03*
X017328Y002103D03*
X017328Y002102D03*
X017323Y002089D03*
X017323Y002088D03*
X017333Y002116D03*
X017333Y002117D03*
X017343Y002143D03*
X017343Y002144D03*
X017348Y002157D03*
X017348Y002158D03*
X017353Y002171D03*
X017353Y002172D03*
X017363Y002198D03*
X017363Y002199D03*
X017368Y002212D03*
X017368Y002213D03*
X017373Y002226D03*
X017703Y002074D03*
D48*
X017713Y002192D03*
X017592Y001992D03*
X017288Y002036D03*
X017288Y002037D03*
X017227Y002183D03*
X017227Y002184D03*
X016313Y002194D03*
D49*
X017679Y001994D03*
X017679Y001993D03*
X017679Y001992D03*
X017680Y001996D03*
D50*
X017548Y002042D03*
X017546Y002043D03*
X017596Y002178D03*
X017598Y002179D03*
X016699Y002233D03*
X016688Y002038D03*
X016686Y002037D03*
X016563Y002042D03*
X018528Y001993D03*
X018528Y001992D03*
D51*
X018546Y002043D03*
X017226Y002163D03*
X017226Y002164D03*
X016611Y001993D03*
X016307Y002177D03*
D52*
X016311Y002188D03*
X016311Y002189D03*
X016637Y002192D03*
X017227Y002177D03*
X017227Y002176D03*
X017289Y002043D03*
X017592Y001993D03*
X017622Y002192D03*
X017681Y002229D03*
X018541Y002029D03*
D53*
X018549Y002051D03*
X017290Y002063D03*
X017290Y002064D03*
X017225Y002156D03*
X016611Y001994D03*
X016305Y002172D03*
D54*
X016309Y002183D03*
X017226Y002169D03*
X017289Y002051D03*
X017289Y002049D03*
X017592Y001994D03*
X018544Y002037D03*
D55*
X018528Y001994D03*
X017724Y002184D03*
X017684Y002043D03*
X017548Y002041D03*
X017286Y002007D03*
X017286Y002006D03*
X016741Y002181D03*
X016613Y002179D03*
X016563Y002041D03*
X016322Y002219D03*
X015978Y002123D03*
D56*
X015998Y002140D03*
X015966Y002055D03*
X015963Y002040D03*
X015953Y002000D03*
X015951Y001995D03*
X016178Y002025D03*
X016191Y002045D03*
X016199Y002055D03*
X016203Y002060D03*
X016213Y002075D03*
X016216Y002080D03*
X016224Y002090D03*
X016326Y002095D03*
X016326Y002100D03*
X016326Y002105D03*
X016326Y002110D03*
X016326Y002115D03*
X016714Y002070D03*
X016716Y002075D03*
X016719Y002080D03*
X016744Y002155D03*
X017254Y002130D03*
X017256Y002115D03*
X017258Y002110D03*
X017266Y002070D03*
X017726Y002155D03*
X017728Y002160D03*
D57*
X016612Y001995D03*
D58*
X016559Y002055D03*
X016599Y002165D03*
X016695Y002045D03*
X017230Y002225D03*
X017285Y001995D03*
X017544Y002055D03*
X017584Y002165D03*
X016011Y002175D03*
D59*
X017592Y001995D03*
D60*
X017680Y001995D03*
D61*
X018191Y001995D03*
X018194Y002000D03*
X018196Y002010D03*
X018199Y002015D03*
X018203Y002025D03*
X018204Y002030D03*
D62*
X018529Y001995D03*
X016684Y002035D03*
X016564Y002040D03*
D63*
X016718Y002077D03*
X016719Y002079D03*
X016743Y002151D03*
X016744Y002152D03*
X016744Y002153D03*
X016744Y002154D03*
X016326Y002119D03*
X016326Y002118D03*
X016326Y002117D03*
X016326Y002116D03*
X016326Y002114D03*
X016326Y002113D03*
X016326Y002112D03*
X016326Y002111D03*
X016326Y002109D03*
X016326Y002108D03*
X016326Y002107D03*
X016326Y002106D03*
X016326Y002104D03*
X016326Y002103D03*
X016326Y002102D03*
X016326Y002101D03*
X016326Y002099D03*
X016326Y002098D03*
X016326Y002097D03*
X016326Y002096D03*
X016326Y002094D03*
X016219Y002083D03*
X016214Y002076D03*
X016211Y002073D03*
X016209Y002069D03*
X016208Y002068D03*
X016208Y002067D03*
X016206Y002066D03*
X016204Y002062D03*
X016203Y002061D03*
X016201Y002059D03*
X016198Y002053D03*
X016196Y002052D03*
X016194Y002048D03*
X016193Y002046D03*
X016188Y002039D03*
X016186Y002038D03*
X016183Y002032D03*
X015966Y002056D03*
X015966Y002057D03*
X015964Y002044D03*
X015964Y002043D03*
X015954Y002008D03*
X015954Y002007D03*
X015953Y002003D03*
X015953Y002002D03*
X015953Y002001D03*
X015951Y001997D03*
X015951Y001996D03*
X017249Y002151D03*
X017251Y002139D03*
X017251Y002138D03*
X017253Y002134D03*
X017253Y002133D03*
X017254Y002129D03*
X017256Y002116D03*
X017258Y002112D03*
X017258Y002111D03*
X017259Y002107D03*
X017259Y002106D03*
X017261Y002093D03*
X017261Y002092D03*
X017263Y002089D03*
X017263Y002088D03*
X017264Y002084D03*
X017264Y002083D03*
X017266Y002071D03*
X017696Y002062D03*
X017698Y002064D03*
X017699Y002066D03*
X017726Y002153D03*
X017726Y002154D03*
X017726Y002156D03*
X017728Y002157D03*
X017728Y002158D03*
X017728Y002159D03*
X017728Y002161D03*
X017684Y002234D03*
D64*
X016612Y001996D03*
D65*
X016328Y002171D03*
X016278Y002168D03*
X016274Y002162D03*
X016273Y002161D03*
X016271Y002158D03*
X016270Y002157D03*
X016268Y002154D03*
X016266Y002151D03*
X016264Y002148D03*
X016263Y002147D03*
X016261Y002144D03*
X016260Y002143D03*
X016260Y002142D03*
X016259Y002141D03*
X016258Y002139D03*
X016256Y002137D03*
X016255Y002136D03*
X016254Y002134D03*
X016253Y002133D03*
X016250Y002128D03*
X016249Y002127D03*
X016246Y002123D03*
X016245Y002121D03*
X016240Y002114D03*
X016235Y002107D03*
X015958Y002026D03*
X015955Y002016D03*
X017143Y001996D03*
X017144Y001998D03*
X017145Y002001D03*
X017146Y002003D03*
X017146Y002004D03*
X017148Y002009D03*
X017149Y002012D03*
X017150Y002014D03*
X017151Y002017D03*
X017151Y002018D03*
X017153Y002023D03*
X017154Y002026D03*
X017155Y002028D03*
X017155Y002029D03*
X017156Y002031D03*
X017158Y002036D03*
X017158Y002037D03*
X017159Y002039D03*
X017160Y002042D03*
X017161Y002044D03*
X017163Y002051D03*
X017164Y002053D03*
X017165Y002056D03*
X017166Y002058D03*
X017166Y002059D03*
X017168Y002064D03*
X017169Y002066D03*
X017169Y002067D03*
X017170Y002069D03*
X017171Y002072D03*
X017171Y002073D03*
X017173Y002077D03*
X017173Y002078D03*
X017174Y002081D03*
X017175Y002083D03*
X017175Y002084D03*
X017176Y002086D03*
X017178Y002091D03*
X017178Y002092D03*
X017179Y002094D03*
X017180Y002097D03*
X017181Y002099D03*
X017183Y002106D03*
X017184Y002108D03*
X017185Y002111D03*
X017186Y002113D03*
X017186Y002114D03*
X017188Y002119D03*
X017189Y002121D03*
X017189Y002122D03*
X017190Y002124D03*
X017191Y002127D03*
X017191Y002128D03*
X017193Y002132D03*
X017193Y002133D03*
X017194Y002136D03*
X017195Y002138D03*
X017195Y002139D03*
X017196Y002141D03*
X017198Y002146D03*
X017198Y002147D03*
X017199Y002149D03*
X017328Y002106D03*
X017329Y002108D03*
X017330Y002111D03*
X017331Y002113D03*
X017331Y002114D03*
X017333Y002119D03*
X017334Y002121D03*
X017334Y002122D03*
X017335Y002124D03*
X017336Y002127D03*
X017336Y002128D03*
X017338Y002132D03*
X017338Y002133D03*
X017339Y002136D03*
X017340Y002138D03*
X017340Y002139D03*
X017341Y002141D03*
X017343Y002146D03*
X017343Y002147D03*
X017344Y002149D03*
X017345Y002152D03*
X017346Y002154D03*
X017348Y002161D03*
X017349Y002163D03*
X017350Y002166D03*
X017351Y002168D03*
X017351Y002169D03*
X017353Y002174D03*
X017354Y002176D03*
X017354Y002177D03*
X017355Y002179D03*
X017356Y002182D03*
X017358Y002187D03*
X017358Y002188D03*
X017359Y002191D03*
X017360Y002193D03*
X017361Y002196D03*
X017363Y002201D03*
X017363Y002202D03*
X017364Y002204D03*
X017365Y002207D03*
X017366Y002209D03*
X017369Y002218D03*
X017370Y002221D03*
X017371Y002223D03*
X017371Y002224D03*
X017373Y002229D03*
X017326Y002099D03*
X017325Y002097D03*
X017324Y002094D03*
X017323Y002092D03*
X017323Y002091D03*
X017321Y002086D03*
X017320Y002084D03*
X017320Y002083D03*
X017319Y002081D03*
X017318Y002078D03*
X017316Y002073D03*
X017316Y002072D03*
X017315Y002069D03*
X017699Y002068D03*
X017700Y002071D03*
X017701Y002072D03*
X017701Y002073D03*
X017703Y002077D03*
D66*
X017593Y001996D03*
X016696Y002227D03*
X018548Y002048D03*
X018548Y002047D03*
X018549Y002049D03*
D67*
X018204Y002029D03*
X018204Y002028D03*
X018203Y002027D03*
X018203Y002026D03*
X018201Y002024D03*
X018201Y002023D03*
X018201Y002022D03*
X018199Y002016D03*
X018199Y002014D03*
X018198Y002013D03*
X018198Y002012D03*
X018198Y002011D03*
X018196Y002009D03*
X018194Y002002D03*
X018194Y002001D03*
X018193Y001999D03*
X018193Y001998D03*
X018191Y001997D03*
X018191Y001996D03*
X015914Y002116D03*
D68*
X016612Y001997D03*
X017679Y002223D03*
D69*
X017726Y002178D03*
X017726Y002177D03*
X017688Y002049D03*
X017544Y002051D03*
X017544Y002052D03*
X017585Y002167D03*
X017586Y002168D03*
X017285Y001998D03*
X017285Y001997D03*
X017230Y002223D03*
X016743Y002174D03*
X016743Y002173D03*
X016605Y002172D03*
X016604Y002171D03*
X016601Y002168D03*
X016559Y002053D03*
X016559Y002052D03*
X016559Y002051D03*
X016694Y002044D03*
X016324Y002226D03*
X016010Y002179D03*
X015983Y002126D03*
X015966Y002076D03*
D70*
X017593Y001997D03*
D71*
X017681Y001997D03*
X017681Y001998D03*
X017681Y001999D03*
D72*
X017594Y002001D03*
X016613Y001998D03*
D73*
X017593Y001998D03*
X018552Y002059D03*
D74*
X018529Y001998D03*
X017604Y002184D03*
X017549Y002037D03*
X017229Y002209D03*
X016619Y002184D03*
X016565Y002037D03*
D75*
X016613Y001999D03*
D76*
X016560Y002047D03*
X016560Y002048D03*
X016606Y002173D03*
X016609Y002176D03*
X016323Y002223D03*
X016010Y002182D03*
X016010Y002181D03*
X015965Y002078D03*
X017229Y002219D03*
X017285Y002001D03*
X017285Y001999D03*
X017545Y002046D03*
X017545Y002047D03*
X017594Y002176D03*
X017725Y002181D03*
X017686Y002046D03*
D77*
X017593Y001999D03*
D78*
X018530Y001999D03*
X016565Y002038D03*
D79*
X016325Y002045D03*
X016325Y002050D03*
X016325Y002055D03*
X016325Y002060D03*
X016325Y002065D03*
X016170Y002015D03*
X016160Y002000D03*
X015825Y002040D03*
X016915Y002005D03*
X016935Y002060D03*
X016955Y002115D03*
X016975Y002170D03*
X016995Y002225D03*
X017250Y002145D03*
X017260Y002100D03*
X017695Y002060D03*
X018150Y002050D03*
X018530Y002100D03*
D80*
X017678Y002220D03*
X016613Y002000D03*
D81*
X016241Y002115D03*
X016234Y002105D03*
X016230Y002100D03*
X016220Y002085D03*
X015964Y002045D03*
X015961Y002035D03*
X015960Y002030D03*
X015955Y002015D03*
X015954Y002010D03*
X017145Y002000D03*
X017149Y002010D03*
X017156Y002030D03*
X017169Y002065D03*
X017176Y002085D03*
X017189Y002120D03*
X017196Y002140D03*
X017321Y002085D03*
X017334Y002120D03*
X017341Y002140D03*
X017354Y002175D03*
X017361Y002195D03*
X017365Y002205D03*
X017374Y002230D03*
D82*
X017593Y002000D03*
D83*
X017681Y002000D03*
D84*
X018530Y002000D03*
X016320Y002215D03*
D85*
X016614Y002001D03*
X017678Y002219D03*
D86*
X017681Y002001D03*
D87*
X017551Y002036D03*
X017286Y002012D03*
X017229Y002207D03*
X017229Y002208D03*
X016681Y002033D03*
X016566Y002036D03*
X016320Y002213D03*
X016320Y002214D03*
X018531Y002002D03*
X018531Y002001D03*
D88*
X017677Y002218D03*
X016614Y002002D03*
D89*
X016561Y002046D03*
X016689Y002039D03*
X016611Y002177D03*
X016010Y002183D03*
X015980Y002124D03*
X015965Y002079D03*
X017230Y002218D03*
X017286Y002002D03*
X017546Y002044D03*
X017595Y002177D03*
X017725Y002182D03*
D90*
X017594Y002002D03*
X016695Y002222D03*
D91*
X017682Y002002D03*
D92*
X016614Y002003D03*
D93*
X016009Y002184D03*
X017229Y002216D03*
X017229Y002217D03*
X017285Y002004D03*
X017285Y002003D03*
X017724Y002183D03*
D94*
X017594Y002003D03*
X016694Y002221D03*
D95*
X017683Y002004D03*
X017683Y002003D03*
D96*
X017679Y002038D03*
X017680Y002039D03*
X017720Y002188D03*
X017286Y002014D03*
X017286Y002013D03*
X017228Y002206D03*
X016319Y002212D03*
X015974Y002122D03*
X018531Y002003D03*
D97*
X016614Y002004D03*
D98*
X017594Y002004D03*
D99*
X017552Y002034D03*
X017609Y002187D03*
X017287Y002016D03*
X017229Y002204D03*
X016737Y002187D03*
X016698Y002232D03*
X016624Y002187D03*
X016679Y002032D03*
X016319Y002211D03*
X016006Y002188D03*
X018532Y002004D03*
D100*
X017698Y002065D03*
X017363Y002200D03*
X017372Y002225D03*
X017352Y002170D03*
X017343Y002145D03*
X017332Y002115D03*
X017323Y002090D03*
X017198Y002145D03*
X017187Y002115D03*
X017178Y002090D03*
X017167Y002060D03*
X017158Y002035D03*
X017147Y002005D03*
X016327Y002120D03*
X016327Y002125D03*
X016327Y002130D03*
X016327Y002135D03*
X016327Y002140D03*
X016327Y002145D03*
X016328Y002155D03*
X016328Y002160D03*
X016328Y002165D03*
X016328Y002170D03*
X016248Y002125D03*
X016227Y002095D03*
X015958Y002025D03*
X015957Y002020D03*
X015953Y002005D03*
D101*
X016614Y002005D03*
D102*
X016614Y002180D03*
X016009Y002185D03*
X015964Y002080D03*
X017286Y002005D03*
X017548Y002040D03*
X017599Y002180D03*
X017723Y002185D03*
D103*
X017594Y002005D03*
D104*
X017683Y002005D03*
D105*
X017229Y002205D03*
X016319Y002210D03*
X018532Y002005D03*
D106*
X016615Y002006D03*
D107*
X017595Y002006D03*
D108*
X017683Y002006D03*
X017683Y002007D03*
X017684Y002008D03*
X017684Y002009D03*
X017685Y002013D03*
D109*
X018533Y002006D03*
X016568Y002034D03*
D110*
X016615Y002007D03*
X017595Y002013D03*
X017674Y002213D03*
D111*
X017594Y002007D03*
D112*
X017553Y002033D03*
X017287Y002019D03*
X016677Y002031D03*
X016318Y002208D03*
X018533Y002008D03*
X018533Y002007D03*
D113*
X017674Y002212D03*
X016615Y002008D03*
D114*
X017594Y002008D03*
X017676Y002217D03*
D115*
X016690Y002212D03*
X016615Y002009D03*
D116*
X017595Y002009D03*
X017676Y002216D03*
D117*
X017678Y002036D03*
X017288Y002021D03*
X017229Y002198D03*
X017229Y002199D03*
X016318Y002206D03*
X016318Y002207D03*
X018534Y002009D03*
D118*
X016616Y002010D03*
D119*
X016739Y002185D03*
X017286Y002010D03*
X017681Y002040D03*
D120*
X017595Y002010D03*
D121*
X017684Y002010D03*
D122*
X017676Y002035D03*
X017718Y002190D03*
X018534Y002010D03*
X016317Y002205D03*
D123*
X016616Y002011D03*
D124*
X015961Y002082D03*
X017286Y002011D03*
X017683Y002041D03*
X017721Y002187D03*
D125*
X017595Y002011D03*
D126*
X017684Y002011D03*
X017684Y002012D03*
X017685Y002014D03*
X017685Y002016D03*
D127*
X017613Y002189D03*
X017287Y002023D03*
X017287Y002022D03*
X017228Y002197D03*
X016628Y002189D03*
X016004Y002189D03*
X018534Y002011D03*
D128*
X017265Y002074D03*
X017264Y002079D03*
X017260Y002097D03*
X017260Y002098D03*
X017259Y002101D03*
X017259Y002102D03*
X017255Y002121D03*
X017254Y002124D03*
X017250Y002142D03*
X017250Y002143D03*
X017249Y002147D03*
X017249Y002148D03*
X016719Y002082D03*
X016719Y002081D03*
X016715Y002073D03*
X016325Y002073D03*
X016325Y002074D03*
X016325Y002072D03*
X016325Y002071D03*
X016325Y002069D03*
X016225Y002093D03*
X016220Y002086D03*
X016215Y002079D03*
X016214Y002077D03*
X016210Y002072D03*
X016205Y002064D03*
X016204Y002063D03*
X016200Y002058D03*
X016200Y002057D03*
X016199Y002056D03*
X016195Y002051D03*
X016194Y002049D03*
X016189Y002042D03*
X015999Y002143D03*
X015965Y002052D03*
X015965Y002051D03*
X015964Y002049D03*
X015964Y002048D03*
X015964Y002047D03*
X015964Y002046D03*
X015954Y002012D03*
D129*
X016617Y002012D03*
X017673Y002208D03*
D130*
X017675Y002214D03*
X017595Y002012D03*
D131*
X017555Y002031D03*
X017288Y002024D03*
X017229Y002196D03*
X016316Y002203D03*
X016316Y002204D03*
X018535Y002012D03*
D132*
X016617Y002013D03*
D133*
X017675Y002034D03*
X018535Y002014D03*
X018535Y002013D03*
D134*
X016689Y002207D03*
X016618Y002014D03*
D135*
X017596Y002014D03*
D136*
X016618Y002015D03*
D137*
X016566Y002035D03*
X017286Y002015D03*
X017551Y002035D03*
D138*
X017596Y002015D03*
D139*
X017685Y002015D03*
D140*
X018535Y002015D03*
D141*
X017671Y002204D03*
X016619Y002016D03*
D142*
X015939Y002229D03*
X017596Y002016D03*
D143*
X016618Y002017D03*
D144*
X016568Y002033D03*
X016318Y002209D03*
X015959Y002083D03*
X017228Y002201D03*
X017228Y002202D03*
X017228Y002203D03*
X017286Y002018D03*
X017286Y002017D03*
X017678Y002037D03*
X017719Y002189D03*
D145*
X017615Y002017D03*
D146*
X017670Y002202D03*
X016618Y002018D03*
X015900Y002102D03*
D147*
X017615Y002018D03*
D148*
X017228Y002191D03*
X016732Y002191D03*
X016672Y002029D03*
X018537Y002018D03*
D149*
X017670Y002201D03*
X016619Y002019D03*
X015945Y002222D03*
D150*
X017615Y002019D03*
D151*
X017288Y002031D03*
X017228Y002188D03*
X017228Y002189D03*
X018538Y002019D03*
D152*
X018234Y002130D03*
X018227Y002110D03*
X016619Y002020D03*
D153*
X016328Y002150D03*
X016263Y002145D03*
X016238Y002110D03*
X017153Y002020D03*
X017173Y002075D03*
X017193Y002130D03*
X017318Y002075D03*
X017338Y002130D03*
X017358Y002185D03*
X017703Y002075D03*
D154*
X017287Y002020D03*
D155*
X017615Y002020D03*
D156*
X018538Y002020D03*
D157*
X018235Y002133D03*
X018235Y002134D03*
X018235Y002131D03*
X018234Y002129D03*
X018234Y002128D03*
X018233Y002126D03*
X018231Y002123D03*
X018231Y002122D03*
X018230Y002118D03*
X018230Y002117D03*
X018229Y002114D03*
X018228Y002112D03*
X018228Y002111D03*
X018226Y002109D03*
X018225Y002107D03*
X018225Y002106D03*
X018225Y002104D03*
X018225Y002103D03*
X018224Y002101D03*
X018223Y002098D03*
X018221Y002096D03*
X017670Y002199D03*
X016620Y002021D03*
D158*
X017615Y002021D03*
D159*
X017672Y002032D03*
X017618Y002191D03*
X017288Y002034D03*
X017288Y002033D03*
X017288Y002032D03*
X017228Y002187D03*
X016633Y002191D03*
X016314Y002196D03*
X016314Y002197D03*
X018538Y002021D03*
D160*
X016685Y002198D03*
X016620Y002022D03*
X015946Y002218D03*
D161*
X017615Y002023D03*
X017615Y002022D03*
D162*
X018538Y002022D03*
D163*
X017668Y002197D03*
X016684Y002197D03*
X016620Y002023D03*
X015946Y002217D03*
X015903Y002098D03*
D164*
X016575Y002029D03*
X017560Y002029D03*
X018539Y002024D03*
X018539Y002023D03*
D165*
X017668Y002196D03*
X016621Y002024D03*
X015947Y002216D03*
X015909Y002111D03*
D166*
X017614Y002024D03*
D167*
X016621Y002025D03*
X015904Y002095D03*
D168*
X016734Y002190D03*
X017288Y002025D03*
D169*
X017615Y002025D03*
D170*
X018539Y002025D03*
D171*
X017668Y002194D03*
X016621Y002026D03*
X015948Y002214D03*
D172*
X016316Y002202D03*
X016571Y002031D03*
X016698Y002231D03*
X017228Y002194D03*
X017228Y002193D03*
X017287Y002026D03*
X017682Y002231D03*
X017716Y002191D03*
D173*
X017615Y002026D03*
D174*
X017667Y002193D03*
X018261Y002191D03*
X018262Y002193D03*
X018263Y002196D03*
X018264Y002198D03*
X018264Y002199D03*
X018266Y002204D03*
X018267Y002207D03*
X018268Y002209D03*
X018269Y002212D03*
X018269Y002213D03*
X018271Y002218D03*
X018272Y002221D03*
X018273Y002223D03*
X018274Y002226D03*
X016683Y002194D03*
X016622Y002027D03*
X015948Y002213D03*
X015912Y002114D03*
X015904Y002094D03*
D175*
X017614Y002027D03*
D176*
X016683Y002193D03*
X016622Y002028D03*
X015948Y002211D03*
D177*
X017615Y002028D03*
D178*
X017289Y002041D03*
X017289Y002042D03*
X017226Y002178D03*
X018540Y002028D03*
D179*
X017665Y002029D03*
X017289Y002053D03*
X017226Y002166D03*
X017226Y002167D03*
D180*
X017228Y002190D03*
X017288Y002030D03*
X017557Y002030D03*
X016573Y002030D03*
D181*
X016675Y002030D03*
D182*
X017226Y002175D03*
X017289Y002045D03*
X017669Y002030D03*
D183*
X018541Y002030D03*
D184*
X018541Y002031D03*
X018543Y002033D03*
X017289Y002044D03*
X017226Y002174D03*
X016698Y002229D03*
D185*
X018542Y002032D03*
X018543Y002034D03*
D186*
X017673Y002033D03*
X016314Y002198D03*
X015955Y002084D03*
D187*
X015965Y002050D03*
X016000Y002145D03*
X016184Y002035D03*
X016195Y002050D03*
X016205Y002065D03*
X016209Y002070D03*
X016325Y002070D03*
X016325Y002075D03*
X017254Y002125D03*
X017255Y002120D03*
X017264Y002080D03*
X017265Y002075D03*
D188*
X017288Y002035D03*
D189*
X018543Y002035D03*
D190*
X017685Y002044D03*
X016740Y002182D03*
X016685Y002036D03*
D191*
X016313Y002192D03*
X016313Y002193D03*
X017228Y002182D03*
X017289Y002039D03*
X017289Y002038D03*
D192*
X017289Y002052D03*
X017226Y002168D03*
X017680Y002228D03*
X018544Y002039D03*
X018544Y002038D03*
X016308Y002181D03*
X016308Y002182D03*
D193*
X016690Y002040D03*
X017546Y002045D03*
X017686Y002045D03*
D194*
X017288Y002040D03*
X017227Y002180D03*
D195*
X017226Y002165D03*
X018545Y002040D03*
D196*
X018545Y002041D03*
X018545Y002042D03*
X017289Y002054D03*
X017289Y002056D03*
D197*
X017290Y002058D03*
X017290Y002059D03*
X017225Y002161D03*
X017225Y002162D03*
X017680Y002227D03*
X018546Y002044D03*
X016306Y002176D03*
D198*
X017225Y002160D03*
X018546Y002045D03*
D199*
X017289Y002046D03*
X017289Y002047D03*
X017289Y002048D03*
X016310Y002186D03*
D200*
X016306Y002174D03*
X018547Y002046D03*
D201*
X017727Y002174D03*
X017727Y002176D03*
X017583Y002164D03*
X017582Y002163D03*
X016698Y002048D03*
X016697Y002047D03*
X016598Y002164D03*
X015967Y002074D03*
X015967Y002073D03*
D202*
X016608Y002174D03*
X016743Y002177D03*
X016743Y002178D03*
X017593Y002174D03*
X017688Y002047D03*
D203*
X017691Y002053D03*
X017728Y002171D03*
X017728Y002172D03*
X017728Y002173D03*
X017581Y002162D03*
X017579Y002158D03*
X017578Y002157D03*
X017576Y002156D03*
X017544Y002063D03*
X017544Y002062D03*
X017544Y002061D03*
X017544Y002059D03*
X017544Y002058D03*
X017544Y002057D03*
X016701Y002052D03*
X016699Y002049D03*
X016559Y002059D03*
X016559Y002061D03*
X016559Y002062D03*
X016559Y002063D03*
X016559Y002064D03*
X016559Y002066D03*
X016559Y002067D03*
X016559Y002068D03*
X016593Y002157D03*
X016594Y002158D03*
X016596Y002162D03*
X016598Y002163D03*
X015986Y002128D03*
X015968Y002072D03*
X015968Y002071D03*
X015968Y002069D03*
D204*
X015982Y002125D03*
X016011Y002180D03*
X016324Y002225D03*
X016560Y002050D03*
X016743Y002175D03*
X017230Y002220D03*
D205*
X017579Y002160D03*
X016744Y002170D03*
X016699Y002050D03*
X016595Y002160D03*
D206*
X017226Y002170D03*
X017289Y002050D03*
D207*
X017544Y002050D03*
X017588Y002170D03*
X017689Y002050D03*
X016603Y002170D03*
X015966Y002075D03*
D208*
X018549Y002050D03*
D209*
X017580Y002161D03*
X017230Y002226D03*
X017230Y002227D03*
X016700Y002051D03*
X016590Y002154D03*
X016594Y002159D03*
X016595Y002161D03*
X016325Y002228D03*
X016325Y002229D03*
X016010Y002174D03*
X016010Y002173D03*
X016010Y002172D03*
X016010Y002171D03*
D210*
X017225Y002154D03*
X017290Y002066D03*
X018549Y002052D03*
D211*
X018550Y002053D03*
X018550Y002054D03*
X017694Y002118D03*
X017694Y002119D03*
X017693Y002117D03*
X017693Y002116D03*
X017692Y002114D03*
X017692Y002113D03*
X017691Y002112D03*
X017691Y002111D03*
X017690Y002109D03*
X017690Y002108D03*
X017689Y002106D03*
X017688Y002104D03*
X017688Y002103D03*
X017688Y002102D03*
X017687Y002101D03*
X017687Y002099D03*
X017686Y002098D03*
X017686Y002097D03*
X017685Y002094D03*
X017684Y002093D03*
X017684Y002092D03*
X017684Y002091D03*
X017683Y002089D03*
X017683Y002088D03*
X017682Y002087D03*
X017682Y002086D03*
X017681Y002084D03*
X017681Y002083D03*
X017680Y002082D03*
X017680Y002081D03*
X017680Y002226D03*
X017290Y002067D03*
X017225Y002152D03*
X017225Y002153D03*
X016696Y002226D03*
D212*
X017289Y002055D03*
D213*
X017544Y002060D03*
X017693Y002055D03*
X016559Y002060D03*
X016559Y002065D03*
X015968Y002070D03*
D214*
X017681Y002085D03*
X018550Y002055D03*
D215*
X018551Y002056D03*
X018551Y002057D03*
D216*
X017290Y002057D03*
D217*
X018551Y002058D03*
D218*
X017290Y002060D03*
D219*
X016695Y002225D03*
X018553Y002060D03*
D220*
X017290Y002061D03*
X017290Y002062D03*
D221*
X018553Y002061D03*
D222*
X017290Y002065D03*
X017225Y002155D03*
D223*
X017290Y002068D03*
X017685Y002096D03*
X017689Y002107D03*
D224*
X017704Y002079D03*
X017704Y002078D03*
X017703Y002076D03*
X016281Y002171D03*
X016279Y002169D03*
X016278Y002167D03*
X016277Y002166D03*
X016276Y002164D03*
X016275Y002163D03*
X016272Y002159D03*
X016270Y002156D03*
X016268Y002153D03*
X016265Y002149D03*
X016263Y002146D03*
D225*
X016273Y002160D03*
X016280Y002170D03*
X017705Y002080D03*
D226*
X015948Y002205D03*
X015904Y002085D03*
D227*
X015904Y002086D03*
D228*
X015904Y002087D03*
X015904Y002088D03*
D229*
X015905Y002089D03*
X015915Y002118D03*
D230*
X017683Y002090D03*
X017685Y002095D03*
X017687Y002100D03*
X017689Y002105D03*
X017691Y002110D03*
X017692Y002115D03*
D231*
X018260Y002189D03*
X018261Y002192D03*
X018263Y002194D03*
X018264Y002197D03*
X018265Y002203D03*
X018266Y002206D03*
X018268Y002208D03*
X018269Y002211D03*
X018270Y002214D03*
X018270Y002216D03*
X018270Y002217D03*
X018271Y002219D03*
X018273Y002222D03*
X018274Y002224D03*
X018275Y002227D03*
X018275Y002228D03*
X015948Y002212D03*
X015905Y002093D03*
X015905Y002092D03*
D232*
X015904Y002107D03*
X016686Y002201D03*
X018221Y002094D03*
X018222Y002097D03*
X018223Y002099D03*
X018224Y002102D03*
X018226Y002108D03*
X018228Y002113D03*
X018229Y002116D03*
X018231Y002121D03*
X018232Y002124D03*
X018233Y002127D03*
D233*
X018233Y002125D03*
X018230Y002120D03*
X018229Y002115D03*
X018224Y002100D03*
X018221Y002095D03*
X016685Y002200D03*
X015945Y002220D03*
X015903Y002100D03*
D234*
X015904Y002096D03*
X015910Y002112D03*
X016684Y002196D03*
D235*
X015903Y002097D03*
D236*
X015903Y002099D03*
X015906Y002109D03*
X017669Y002198D03*
D237*
X016686Y002202D03*
X015901Y002101D03*
D238*
X015900Y002103D03*
X015900Y002104D03*
X015944Y002224D03*
D239*
X015901Y002105D03*
D240*
X017670Y002200D03*
X018225Y002105D03*
D241*
X015903Y002106D03*
D242*
X015905Y002108D03*
D243*
X015908Y002110D03*
D244*
X015910Y002113D03*
D245*
X015913Y002115D03*
X018263Y002195D03*
X018265Y002200D03*
X018266Y002205D03*
X018274Y002225D03*
X018275Y002230D03*
D246*
X015948Y002207D03*
X015948Y002206D03*
X015916Y002119D03*
D247*
X018230Y002119D03*
X018235Y002132D03*
D248*
X015917Y002120D03*
D249*
X015918Y002121D03*
D250*
X016305Y002173D03*
X017225Y002159D03*
X017225Y002158D03*
X017225Y002157D03*
D251*
X017588Y002169D03*
X016603Y002169D03*
D252*
X016010Y002170D03*
X018535Y002180D03*
X018675Y002205D03*
X018685Y002220D03*
D253*
X016306Y002175D03*
D254*
X017727Y002175D03*
D255*
X016308Y002178D03*
X016308Y002179D03*
D256*
X016312Y002191D03*
X016729Y002192D03*
X017227Y002181D03*
X017227Y002179D03*
D257*
X016308Y002180D03*
D258*
X016323Y002220D03*
X016741Y002180D03*
D259*
X016310Y002185D03*
D260*
X016621Y002185D03*
X017606Y002185D03*
D261*
X017228Y002185D03*
X016698Y002230D03*
D262*
X016623Y002186D03*
X017608Y002186D03*
X017683Y002232D03*
D263*
X016738Y002186D03*
X016007Y002187D03*
D264*
X017228Y002186D03*
D265*
X016310Y002187D03*
D266*
X018260Y002188D03*
X018260Y002187D03*
X018265Y002201D03*
X018265Y002202D03*
X018275Y002229D03*
D267*
X017611Y002188D03*
X016736Y002188D03*
X016626Y002188D03*
D268*
X015946Y002190D03*
D269*
X016311Y002190D03*
D270*
X016630Y002190D03*
X017615Y002190D03*
D271*
X018261Y002190D03*
X018268Y002210D03*
X018272Y002220D03*
D272*
X015947Y002193D03*
X015947Y002192D03*
X015947Y002191D03*
D273*
X015948Y002194D03*
X015948Y002196D03*
D274*
X015948Y002195D03*
D275*
X016313Y002195D03*
X017681Y002230D03*
D276*
X016684Y002195D03*
D277*
X017228Y002195D03*
D278*
X017668Y002195D03*
D279*
X015948Y002197D03*
X015948Y002198D03*
D280*
X015948Y002199D03*
X015948Y002201D03*
D281*
X016315Y002199D03*
D282*
X016685Y002199D03*
D283*
X015948Y002200D03*
D284*
X017229Y002200D03*
D285*
X016315Y002201D03*
D286*
X015949Y002202D03*
D287*
X015948Y002203D03*
X015948Y002204D03*
D288*
X015944Y002223D03*
X016687Y002203D03*
X017671Y002203D03*
D289*
X016688Y002204D03*
D290*
X016688Y002205D03*
D291*
X015943Y002225D03*
X017672Y002205D03*
D292*
X016689Y002206D03*
D293*
X015942Y002226D03*
X017672Y002206D03*
D294*
X017673Y002207D03*
D295*
X015948Y002209D03*
X015948Y002208D03*
D296*
X015941Y002227D03*
X016688Y002208D03*
D297*
X016689Y002209D03*
D298*
X017673Y002209D03*
D299*
X015948Y002210D03*
D300*
X016689Y002210D03*
D301*
X017229Y002210D03*
D302*
X017674Y002210D03*
D303*
X016690Y002211D03*
D304*
X017674Y002211D03*
D305*
X016691Y002213D03*
D306*
X016691Y002214D03*
D307*
X015947Y002215D03*
D308*
X016691Y002215D03*
D309*
X017229Y002215D03*
D310*
X017676Y002215D03*
D311*
X018270Y002215D03*
D312*
X016692Y002216D03*
D313*
X016692Y002217D03*
D314*
X016693Y002218D03*
D315*
X015946Y002219D03*
D316*
X016693Y002219D03*
D317*
X016693Y002220D03*
D318*
X015945Y002221D03*
D319*
X017678Y002221D03*
D320*
X017678Y002222D03*
D321*
X016695Y002223D03*
D322*
X016695Y002224D03*
D323*
X017679Y002224D03*
D324*
X017679Y002225D03*
D325*
X015940Y002228D03*
D326*
X016697Y002228D03*
D327*
X015936Y002230D03*
D328*
X016699Y002235D03*
D329*
X017684Y002235D03*
D330*
X016700Y002236D03*
D331*
X017684Y002236D03*
D332*
X018409Y003671D03*
X018409Y003672D03*
D333*
X027960Y024880D02*
X028710Y025630D01*
X028510Y025830D01*
X028010Y026330D01*
X027960Y026380D02*
X027960Y024880D01*
X028160Y025080D02*
X028160Y026180D01*
X028360Y025980D02*
X028360Y025280D01*
X028510Y025430D02*
X028510Y025830D01*
D334*
X011600Y033690D03*
M02*
