G75*
%MOIN*%
%OFA0B0*%
%FSLAX24Y24*%
%IPPOS*%
%LPD*%
%AMOC8*
5,1,8,0,0,1.08239X$1,22.5*
%
%ADD10C,0.0720*%
%ADD11R,0.0710X0.0631*%
%ADD12R,0.0395X0.0552*%
%ADD13R,0.0552X0.0395*%
%ADD14R,0.0592X0.0671*%
%ADD15C,0.0900*%
%ADD16C,0.0700*%
%ADD17R,0.0820X0.0820*%
%ADD18C,0.0820*%
%ADD19R,0.1025X0.1025*%
%ADD20C,0.0966*%
%ADD21R,0.0328X0.0407*%
%ADD22R,0.1143X0.0789*%
%ADD23R,0.0848X0.0848*%
%ADD24C,0.0848*%
%ADD25R,0.5080X0.0780*%
%ADD26C,0.0635*%
%ADD27C,0.0792*%
D10*
X010580Y022450D02*
X011220Y022450D01*
X011220Y023550D02*
X010580Y023550D01*
X010580Y025500D02*
X011220Y025500D01*
X011220Y026600D02*
X010580Y026600D01*
X029430Y024650D02*
X030070Y024650D01*
X030170Y025650D02*
X029530Y025650D01*
X029530Y023650D02*
X030170Y023650D01*
X030070Y022650D02*
X029430Y022650D01*
X029530Y021650D02*
X030170Y021650D01*
D11*
X013900Y022449D03*
X013900Y023551D03*
D12*
X015406Y023490D03*
X016114Y023490D03*
X016214Y021630D03*
X015506Y021630D03*
X027486Y028320D03*
X028194Y028320D03*
X027846Y024100D03*
X028554Y024100D03*
D13*
X028550Y024796D03*
X028550Y025504D03*
X017920Y024104D03*
X017920Y023396D03*
X016960Y025836D03*
X016960Y026544D03*
X012050Y018204D03*
X012050Y017496D03*
D14*
X027365Y029380D03*
X028035Y029380D03*
D15*
X029016Y030228D03*
X029016Y027472D03*
D16*
X030000Y027866D03*
X030000Y029834D03*
D17*
X007520Y006040D03*
D18*
X008520Y005940D03*
X009520Y006040D03*
X010520Y005940D03*
D19*
X025796Y031746D03*
X025796Y033754D03*
X027804Y033754D03*
X027804Y031746D03*
D20*
X026800Y032750D03*
D21*
X011003Y020900D03*
X010097Y020900D03*
D22*
X012050Y020916D03*
X012050Y019184D03*
D23*
X010650Y017216D03*
D24*
X010650Y019184D03*
D25*
X003100Y004150D03*
X003100Y005150D03*
X003100Y006150D03*
X003100Y007150D03*
X003100Y008150D03*
X003100Y009150D03*
X003100Y010150D03*
X003100Y011150D03*
X003100Y012150D03*
X003100Y013150D03*
X003100Y014150D03*
X003100Y015150D03*
X003100Y016150D03*
X003100Y017150D03*
X003100Y018150D03*
X003100Y019150D03*
X003100Y020150D03*
X003100Y021150D03*
X003100Y022150D03*
X003100Y023150D03*
X003100Y024150D03*
X003100Y025150D03*
X003100Y026150D03*
X003100Y027150D03*
X003100Y028150D03*
X003100Y029150D03*
X003100Y030150D03*
X003100Y031150D03*
X003100Y032150D03*
X003100Y033150D03*
X003100Y034150D03*
X003100Y035150D03*
D26*
X017057Y014181D03*
X017844Y014181D03*
X018631Y014181D03*
X019419Y014181D03*
X020206Y014181D03*
X020994Y014181D03*
X021781Y014181D03*
X022569Y014181D03*
X023356Y014181D03*
X024143Y014181D03*
X029206Y013637D03*
X029206Y012850D03*
X029206Y012063D03*
X029994Y012063D03*
X029994Y012850D03*
X029994Y013637D03*
X024143Y005519D03*
X023356Y005519D03*
X022569Y005519D03*
X021781Y005519D03*
X020994Y005519D03*
X020206Y005519D03*
X019419Y005519D03*
X018631Y005519D03*
X017844Y005519D03*
X017057Y005519D03*
D27*
X029600Y011039D03*
X029600Y014661D03*
M02*
