G75*
%MOIN*%
%OFA0B0*%
%FSLAX24Y24*%
%IPPOS*%
%LPD*%
%AMOC8*
5,1,8,0,0,1.08239X$1,22.5*
%
%ADD10C,0.0640*%
%ADD11R,0.0630X0.0551*%
%ADD12R,0.0315X0.0472*%
%ADD13R,0.0472X0.0315*%
%ADD14R,0.0512X0.0591*%
%ADD15C,0.0866*%
%ADD16C,0.0669*%
%ADD17R,0.0740X0.0740*%
%ADD18C,0.0740*%
%ADD19R,0.0945X0.0945*%
%ADD20C,0.0886*%
%ADD21R,0.0248X0.0327*%
%ADD22R,0.1063X0.0709*%
%ADD23R,0.0768X0.0768*%
%ADD24C,0.0768*%
%ADD25R,0.5000X0.0700*%
%ADD26C,0.0555*%
%ADD27C,0.0712*%
%ADD28C,0.0100*%
%ADD29C,0.0436*%
%ADD30C,0.0397*%
%ADD31C,0.0160*%
%ADD32C,0.0240*%
%ADD33C,0.0080*%
%ADD34C,0.0400*%
%ADD35C,0.0120*%
D10*
X010580Y022450D02*
X011220Y022450D01*
X011220Y023550D02*
X010580Y023550D01*
X010580Y025500D02*
X011220Y025500D01*
X011220Y026600D02*
X010580Y026600D01*
X029430Y024650D02*
X030070Y024650D01*
X030170Y025650D02*
X029530Y025650D01*
X029530Y023650D02*
X030170Y023650D01*
X030070Y022650D02*
X029430Y022650D01*
X029530Y021650D02*
X030170Y021650D01*
D11*
X013900Y022449D03*
X013900Y023551D03*
D12*
X015406Y023490D03*
X016114Y023490D03*
X016214Y021630D03*
X015506Y021630D03*
X027486Y028320D03*
X028194Y028320D03*
X027846Y024100D03*
X028554Y024100D03*
D13*
X028550Y024796D03*
X028550Y025504D03*
X017920Y024104D03*
X017920Y023396D03*
X016960Y025836D03*
X016960Y026544D03*
X012050Y018204D03*
X012050Y017496D03*
D14*
X027365Y029380D03*
X028035Y029380D03*
D15*
X029016Y030228D03*
X029016Y027472D03*
D16*
X030000Y027866D03*
X030000Y029834D03*
D17*
X007520Y006040D03*
D18*
X008520Y005940D03*
X009520Y006040D03*
X010520Y005940D03*
D19*
X025796Y031746D03*
X025796Y033754D03*
X027804Y033754D03*
X027804Y031746D03*
D20*
X026800Y032750D03*
D21*
X011003Y020900D03*
X010097Y020900D03*
D22*
X012050Y020916D03*
X012050Y019184D03*
D23*
X010650Y017216D03*
D24*
X010650Y019184D03*
D25*
X003100Y019150D03*
X003100Y020150D03*
X003100Y021150D03*
X003100Y022150D03*
X003100Y023150D03*
X003100Y024150D03*
X003100Y025150D03*
X003100Y026150D03*
X003100Y027150D03*
X003100Y028150D03*
X003100Y029150D03*
X003100Y030150D03*
X003100Y031150D03*
X003100Y032150D03*
X003100Y033150D03*
X003100Y034150D03*
X003100Y035150D03*
X003100Y018150D03*
X003100Y017150D03*
X003100Y016150D03*
X003100Y015150D03*
X003100Y014150D03*
X003100Y013150D03*
X003100Y012150D03*
X003100Y011150D03*
X003100Y010150D03*
X003100Y009150D03*
X003100Y008150D03*
X003100Y007150D03*
X003100Y006150D03*
X003100Y005150D03*
X003100Y004150D03*
D26*
X017057Y005519D03*
X017844Y005519D03*
X018631Y005519D03*
X019419Y005519D03*
X020206Y005519D03*
X020994Y005519D03*
X021781Y005519D03*
X022569Y005519D03*
X023356Y005519D03*
X024143Y005519D03*
X029206Y012063D03*
X029206Y012850D03*
X029206Y013637D03*
X029994Y013637D03*
X029994Y012850D03*
X029994Y012063D03*
X024143Y014181D03*
X023356Y014181D03*
X022569Y014181D03*
X021781Y014181D03*
X020994Y014181D03*
X020206Y014181D03*
X019419Y014181D03*
X018631Y014181D03*
X017844Y014181D03*
X017057Y014181D03*
D27*
X029600Y014661D03*
X029600Y011039D03*
D28*
X000695Y003650D02*
X000695Y000345D01*
X027405Y000345D01*
X027405Y001286D01*
X027523Y001531D01*
X027523Y001531D01*
X027735Y001700D01*
X027735Y001700D01*
X028000Y001760D01*
X028000Y001760D01*
X028265Y001700D01*
X028265Y001700D01*
X028477Y001531D01*
X028477Y001531D01*
X028595Y001286D01*
X028595Y000345D01*
X030805Y000345D01*
X030805Y038955D01*
X028595Y038955D01*
X028595Y038114D01*
X028477Y037869D01*
X028477Y037869D01*
X028477Y037869D01*
X028265Y037700D01*
X028265Y037700D01*
X028000Y037640D01*
X028000Y037640D01*
X027735Y037700D01*
X027735Y037700D01*
X027523Y037869D01*
X027523Y037869D01*
X027405Y038114D01*
X027405Y038955D01*
X000695Y038955D01*
X000695Y035670D01*
X002249Y035670D01*
X002320Y035741D01*
X002320Y035741D01*
X002449Y035870D01*
X006751Y035870D01*
X006991Y035630D01*
X007120Y035501D01*
X007120Y033979D01*
X006940Y033799D01*
X006811Y033670D01*
X005710Y033670D01*
X005690Y033650D01*
X005770Y033570D01*
X005770Y033041D01*
X008041Y030770D01*
X008170Y030641D01*
X008170Y028188D01*
X008227Y028188D01*
X008370Y028129D01*
X008479Y028020D01*
X008490Y027993D01*
X008490Y031584D01*
X008546Y031720D01*
X008886Y032060D01*
X008990Y032164D01*
X009126Y032220D01*
X009950Y032220D01*
X009950Y033000D01*
X009988Y033092D01*
X010088Y033192D01*
X010158Y033262D01*
X010250Y033300D01*
X013796Y033300D01*
X013888Y033392D01*
X013888Y033392D01*
X013958Y033462D01*
X014050Y033500D01*
X015750Y033500D01*
X015842Y033462D01*
X016242Y033062D01*
X016242Y033062D01*
X016312Y032992D01*
X016350Y032900D01*
X016350Y030400D01*
X016312Y030308D01*
X016112Y030108D01*
X016042Y030038D01*
X015950Y030000D01*
X010450Y030000D01*
X010358Y030038D01*
X010228Y030168D01*
X009790Y029730D01*
X009790Y024959D01*
X009829Y024920D01*
X009888Y024777D01*
X009888Y024623D01*
X009829Y024480D01*
X009720Y024371D01*
X009577Y024312D01*
X009423Y024312D01*
X009307Y024360D01*
X008120Y024360D01*
X007790Y024030D01*
X007790Y021992D01*
X007746Y021886D01*
X007664Y021804D01*
X007488Y021628D01*
X007488Y021623D01*
X012810Y021623D01*
X012810Y021525D02*
X007447Y021525D01*
X007440Y021507D02*
X007488Y021623D01*
X007440Y021507D02*
X007440Y021270D01*
X007520Y021190D01*
X009859Y021190D01*
X009903Y021233D01*
X010292Y021233D01*
X010391Y021134D01*
X010391Y020666D01*
X010292Y020567D01*
X009903Y020567D01*
X009859Y020610D01*
X007342Y020610D01*
X007236Y020654D01*
X007154Y020736D01*
X007154Y020736D01*
X006986Y020904D01*
X006986Y020904D01*
X006904Y020986D01*
X006860Y021092D01*
X006860Y021391D01*
X006771Y021480D01*
X006770Y021483D01*
X006770Y020743D01*
X006914Y020600D01*
X006970Y020464D01*
X006970Y020276D01*
X006914Y020140D01*
X006810Y020036D01*
X006674Y019980D01*
X006526Y019980D01*
X006390Y020036D01*
X006286Y020140D01*
X006258Y020209D01*
X006190Y020276D01*
X006086Y020380D01*
X006030Y020516D01*
X006030Y024604D01*
X006086Y024740D01*
X007026Y025680D01*
X007130Y025784D01*
X007266Y025840D01*
X008267Y025840D01*
X008490Y026063D01*
X008490Y027607D01*
X008479Y027580D01*
X008370Y027471D01*
X008227Y027412D01*
X008087Y027412D01*
X008179Y027320D01*
X008238Y027177D01*
X008238Y027023D01*
X008179Y026880D01*
X008070Y026771D01*
X007927Y026712D01*
X007773Y026712D01*
X007630Y026771D01*
X007620Y026781D01*
X007620Y026646D01*
X007723Y026688D01*
X007877Y026688D01*
X008020Y026629D01*
X008129Y026520D01*
X008188Y026377D01*
X008188Y026223D01*
X008129Y026080D01*
X008020Y025971D01*
X007877Y025912D01*
X007723Y025912D01*
X007580Y025971D01*
X007471Y026080D01*
X007412Y026223D01*
X007412Y026248D01*
X007348Y026280D01*
X007309Y026280D01*
X007270Y026319D01*
X007220Y026344D01*
X007208Y026381D01*
X007180Y026409D01*
X007180Y026464D01*
X007162Y026517D01*
X007180Y026552D01*
X007180Y027004D01*
X007077Y026962D01*
X006923Y026962D01*
X006780Y027021D01*
X006671Y027130D01*
X006612Y027273D01*
X006612Y027427D01*
X006671Y027570D01*
X006780Y027679D01*
X006780Y029659D01*
X006509Y029930D01*
X005770Y029930D01*
X005770Y029730D01*
X005690Y029650D01*
X005770Y029570D01*
X005770Y028730D01*
X005690Y028650D01*
X005770Y028570D01*
X005770Y027730D01*
X006780Y027730D01*
X006780Y027829D02*
X005770Y027829D01*
X005770Y027927D02*
X006780Y027927D01*
X006780Y028026D02*
X005770Y028026D01*
X005770Y028124D02*
X006780Y028124D01*
X006780Y028223D02*
X005770Y028223D01*
X005770Y028321D02*
X006780Y028321D01*
X006780Y028420D02*
X005770Y028420D01*
X005770Y028518D02*
X006780Y028518D01*
X006780Y028617D02*
X005724Y028617D01*
X005755Y028715D02*
X006780Y028715D01*
X006780Y028814D02*
X005770Y028814D01*
X005770Y028912D02*
X006780Y028912D01*
X006780Y029011D02*
X005770Y029011D01*
X005770Y029109D02*
X006780Y029109D01*
X006780Y029208D02*
X005770Y029208D01*
X005770Y029306D02*
X006780Y029306D01*
X006780Y029405D02*
X005770Y029405D01*
X005770Y029503D02*
X006780Y029503D01*
X006780Y029602D02*
X005739Y029602D01*
X005740Y029700D02*
X006739Y029700D01*
X006640Y029799D02*
X005770Y029799D01*
X005770Y029897D02*
X006542Y029897D01*
X006600Y030150D02*
X007000Y029750D01*
X007000Y027350D01*
X006733Y027632D02*
X005709Y027632D01*
X005690Y027650D02*
X005770Y027730D01*
X005690Y027650D02*
X005770Y027570D01*
X005770Y026730D01*
X005690Y026650D01*
X005770Y026570D01*
X005770Y025730D01*
X005690Y025650D01*
X005770Y025570D01*
X005770Y024730D01*
X005690Y024650D01*
X005770Y024570D01*
X005770Y023730D01*
X005690Y023650D01*
X005770Y023570D01*
X005770Y022730D01*
X005690Y022650D01*
X005770Y022570D01*
X005770Y021730D01*
X005690Y021650D01*
X005770Y021570D01*
X005770Y020730D01*
X005690Y020650D01*
X005770Y020570D01*
X005770Y019730D01*
X005690Y019650D01*
X005770Y019570D01*
X005770Y018730D01*
X005690Y018650D01*
X005770Y018570D01*
X005770Y017730D01*
X005690Y017650D01*
X005770Y017570D01*
X005770Y016730D01*
X005690Y016650D01*
X005770Y016570D01*
X005770Y015730D01*
X005690Y015650D01*
X005770Y015570D01*
X005770Y014730D01*
X005690Y014650D01*
X005770Y014570D01*
X005770Y013730D01*
X005690Y013650D01*
X005770Y013570D01*
X005770Y012730D01*
X005690Y012650D01*
X005770Y012570D01*
X005770Y011730D01*
X005690Y011650D01*
X005770Y011570D01*
X005770Y010730D01*
X005690Y010650D01*
X005770Y010570D01*
X005770Y009730D01*
X005690Y009650D01*
X005770Y009570D01*
X005770Y008730D01*
X005690Y008650D01*
X005770Y008570D01*
X005770Y007730D01*
X005690Y007650D01*
X005770Y007570D01*
X005770Y006730D01*
X005690Y006650D01*
X005770Y006570D01*
X005770Y005730D01*
X005672Y005632D01*
X005692Y005620D01*
X005720Y005592D01*
X005740Y005558D01*
X005750Y005520D01*
X005750Y005200D01*
X003150Y005200D01*
X003150Y005100D01*
X005750Y005100D01*
X005750Y004780D01*
X005740Y004742D01*
X005720Y004708D01*
X005692Y004680D01*
X005658Y004660D01*
X005620Y004650D01*
X003150Y004650D01*
X003150Y005100D01*
X003050Y005100D01*
X003050Y004650D01*
X000695Y004650D01*
X000695Y004650D01*
X003050Y004650D01*
X003050Y004200D01*
X003150Y004200D01*
X003150Y004650D01*
X005620Y004650D01*
X005658Y004640D01*
X005692Y004620D01*
X005720Y004592D01*
X005740Y004558D01*
X005750Y004520D01*
X005750Y004200D01*
X003150Y004200D01*
X003150Y004100D01*
X005750Y004100D01*
X005750Y003780D01*
X005740Y003742D01*
X005720Y003708D01*
X005692Y003680D01*
X005658Y003660D01*
X005620Y003650D01*
X003150Y003650D01*
X003150Y004100D01*
X003050Y004100D01*
X003050Y003650D01*
X000695Y003650D01*
X000695Y003598D02*
X030805Y003598D01*
X030805Y003696D02*
X005708Y003696D01*
X005750Y003795D02*
X030805Y003795D01*
X030805Y003893D02*
X005750Y003893D01*
X005750Y003992D02*
X030805Y003992D01*
X030805Y004090D02*
X005750Y004090D01*
X005750Y004287D02*
X030805Y004287D01*
X030805Y004189D02*
X003150Y004189D01*
X003150Y004287D02*
X003050Y004287D01*
X003050Y004386D02*
X003150Y004386D01*
X003150Y004484D02*
X003050Y004484D01*
X003050Y004583D02*
X003150Y004583D01*
X003150Y004681D02*
X003050Y004681D01*
X003050Y004780D02*
X003150Y004780D01*
X003150Y004878D02*
X003050Y004878D01*
X003050Y004977D02*
X003150Y004977D01*
X003150Y005075D02*
X003050Y005075D01*
X003150Y005174D02*
X016770Y005174D01*
X016803Y005140D02*
X016677Y005266D01*
X016609Y005430D01*
X016609Y005608D01*
X016677Y005773D01*
X016800Y005895D01*
X016800Y006201D01*
X017169Y006570D01*
X024489Y006570D01*
X024640Y006721D01*
X024640Y014439D01*
X024489Y014590D01*
X024325Y014590D01*
X024397Y014560D01*
X024523Y014434D01*
X024591Y014270D01*
X024591Y014092D01*
X024523Y013927D01*
X024397Y013801D01*
X024232Y013733D01*
X024054Y013733D01*
X023890Y013801D01*
X023764Y013927D01*
X023750Y013962D01*
X023735Y013927D01*
X023609Y013801D01*
X023445Y013733D01*
X023267Y013733D01*
X023102Y013801D01*
X022977Y013927D01*
X022962Y013962D01*
X022948Y013927D01*
X022822Y013801D01*
X022658Y013733D01*
X022479Y013733D01*
X022315Y013801D01*
X022189Y013927D01*
X022175Y013962D01*
X022160Y013927D01*
X022035Y013801D01*
X021870Y013733D01*
X021692Y013733D01*
X021528Y013801D01*
X021402Y013927D01*
X021387Y013962D01*
X021373Y013927D01*
X021247Y013801D01*
X021083Y013733D01*
X020905Y013733D01*
X020740Y013801D01*
X020614Y013927D01*
X020600Y013962D01*
X020586Y013927D01*
X020460Y013801D01*
X020295Y013733D01*
X020117Y013733D01*
X019953Y013801D01*
X019827Y013927D01*
X019813Y013962D01*
X019798Y013927D01*
X019672Y013801D01*
X019508Y013733D01*
X019330Y013733D01*
X019165Y013801D01*
X019040Y013927D01*
X019025Y013962D01*
X019011Y013927D01*
X018885Y013801D01*
X018721Y013733D01*
X018542Y013733D01*
X018378Y013801D01*
X018252Y013927D01*
X018238Y013962D01*
X018223Y013927D01*
X018098Y013801D01*
X017933Y013733D01*
X017755Y013733D01*
X017591Y013801D01*
X017465Y013927D01*
X017439Y013989D01*
X017422Y013957D01*
X017383Y013902D01*
X017335Y013855D01*
X017281Y013815D01*
X017221Y013785D01*
X017157Y013764D01*
X017090Y013753D01*
X017085Y013753D01*
X017085Y014152D01*
X017028Y014152D01*
X017028Y013753D01*
X017023Y013753D01*
X016957Y013764D01*
X016893Y013785D01*
X016833Y013815D01*
X016778Y013855D01*
X016731Y013902D01*
X016691Y013957D01*
X016661Y014017D01*
X016640Y014081D01*
X016629Y014147D01*
X016629Y014152D01*
X017028Y014152D01*
X017028Y014209D01*
X016629Y014209D01*
X016629Y014214D01*
X016640Y014281D01*
X016661Y014345D01*
X016691Y014405D01*
X016731Y014459D01*
X016778Y014507D01*
X016833Y014546D01*
X016893Y014577D01*
X016957Y014598D01*
X017023Y014608D01*
X017028Y014608D01*
X017028Y014209D01*
X017085Y014209D01*
X017085Y014608D01*
X017090Y014608D01*
X017157Y014598D01*
X017221Y014577D01*
X017281Y014546D01*
X017335Y014507D01*
X017383Y014459D01*
X017422Y014405D01*
X017439Y014372D01*
X017465Y014434D01*
X017591Y014560D01*
X017755Y014628D01*
X017933Y014628D01*
X018098Y014560D01*
X018223Y014434D01*
X018238Y014400D01*
X018252Y014434D01*
X018378Y014560D01*
X018542Y014628D01*
X018721Y014628D01*
X018885Y014560D01*
X019011Y014434D01*
X019025Y014400D01*
X019040Y014434D01*
X019165Y014560D01*
X019330Y014628D01*
X019508Y014628D01*
X019672Y014560D01*
X019798Y014434D01*
X019813Y014400D01*
X019827Y014434D01*
X019953Y014560D01*
X020117Y014628D01*
X020295Y014628D01*
X020460Y014560D01*
X020586Y014434D01*
X020600Y014400D01*
X020614Y014434D01*
X020740Y014560D01*
X020905Y014628D01*
X021083Y014628D01*
X021247Y014560D01*
X021373Y014434D01*
X021387Y014400D01*
X021402Y014434D01*
X021528Y014560D01*
X021692Y014628D01*
X021870Y014628D01*
X022035Y014560D01*
X022160Y014434D01*
X022175Y014400D01*
X022189Y014434D01*
X022315Y014560D01*
X022479Y014628D01*
X022658Y014628D01*
X022822Y014560D01*
X022948Y014434D01*
X022962Y014400D01*
X022977Y014434D01*
X023102Y014560D01*
X023267Y014628D01*
X023445Y014628D01*
X023609Y014560D01*
X023735Y014434D01*
X023750Y014400D01*
X023764Y014434D01*
X023890Y014560D01*
X023967Y014592D01*
X023840Y014719D01*
X023540Y015019D01*
X023540Y020756D01*
X023492Y020641D01*
X023389Y020538D01*
X023253Y020482D01*
X023107Y020482D01*
X022971Y020538D01*
X022868Y020641D01*
X022812Y020777D01*
X022812Y020923D01*
X022868Y021059D01*
X022971Y021162D01*
X023107Y021218D01*
X023210Y021218D01*
X023210Y022523D01*
X022550Y023183D01*
X022550Y024139D01*
X022448Y024241D01*
X022392Y024377D01*
X022392Y024523D01*
X022448Y024659D01*
X022551Y024762D01*
X022687Y024818D01*
X022833Y024818D01*
X022969Y024762D01*
X023072Y024659D01*
X023128Y024523D01*
X023128Y024409D01*
X023247Y024458D01*
X023393Y024458D01*
X023529Y024402D01*
X023632Y024299D01*
X023688Y024163D01*
X023688Y024158D01*
X023833Y024158D01*
X023969Y024102D01*
X024072Y023999D01*
X024128Y023863D01*
X024128Y023854D01*
X024187Y023878D01*
X024290Y023878D01*
X024290Y026057D01*
X024279Y026030D01*
X024170Y025921D01*
X024027Y025862D01*
X023873Y025862D01*
X023730Y025921D01*
X023651Y026000D01*
X018849Y026000D01*
X018770Y025921D01*
X018627Y025862D01*
X018473Y025862D01*
X018330Y025921D01*
X018251Y026000D01*
X017854Y026000D01*
X017750Y025896D01*
X017750Y025749D01*
X017829Y025670D01*
X017888Y025527D01*
X017888Y025373D01*
X017829Y025230D01*
X017720Y025121D01*
X017577Y025062D01*
X017423Y025062D01*
X017280Y025121D01*
X017181Y025220D01*
X016791Y024830D01*
X015641Y024830D01*
X015520Y024709D01*
X015520Y023896D01*
X015634Y023896D01*
X015733Y023797D01*
X015733Y023183D01*
X015634Y023084D01*
X015626Y023084D01*
X015626Y022715D01*
X015665Y022676D01*
X015751Y022762D01*
X015887Y022818D01*
X016033Y022818D01*
X016169Y022762D01*
X016272Y022659D01*
X016283Y022634D01*
X016371Y022722D01*
X016507Y022778D01*
X016612Y022778D01*
X016612Y022783D01*
X016668Y022919D01*
X016771Y023022D01*
X016907Y023078D01*
X017053Y023078D01*
X017189Y023022D01*
X017292Y022919D01*
X017348Y022783D01*
X017348Y022638D01*
X017453Y022638D01*
X017492Y022623D01*
X017492Y022623D01*
X017548Y022759D01*
X017651Y022862D01*
X017787Y022918D01*
X017933Y022918D01*
X018069Y022862D01*
X018172Y022759D01*
X018228Y022623D01*
X018228Y022477D01*
X018172Y022341D01*
X018070Y022239D01*
X018070Y015603D01*
X017770Y015303D01*
X017647Y015180D01*
X016407Y015180D01*
X016250Y015023D01*
X016250Y013618D01*
X016373Y013618D01*
X016509Y013562D01*
X016612Y013459D01*
X016668Y013323D01*
X016668Y013177D01*
X016612Y013041D01*
X016509Y012938D01*
X016373Y012882D01*
X016227Y012882D01*
X016091Y012938D01*
X015988Y013041D01*
X015932Y013177D01*
X015932Y013281D01*
X015830Y013383D01*
X015830Y013545D01*
X015773Y013522D01*
X015627Y013522D01*
X015491Y013578D01*
X015388Y013681D01*
X015332Y013817D01*
X015332Y013963D01*
X015388Y014099D01*
X015490Y014201D01*
X015490Y015108D01*
X015488Y015193D01*
X015490Y015195D01*
X015490Y015197D01*
X015550Y015257D01*
X015990Y015715D01*
X015990Y015717D01*
X016050Y015777D01*
X016109Y015838D01*
X016111Y015838D01*
X016113Y015840D01*
X016198Y015840D01*
X016283Y015842D01*
X016285Y015840D01*
X016849Y015840D01*
X016848Y015841D01*
X016792Y015977D01*
X016792Y016123D01*
X016848Y016259D01*
X016951Y016362D01*
X017087Y016418D01*
X017150Y016418D01*
X017150Y016499D01*
X017129Y016478D01*
X016993Y016422D01*
X016847Y016422D01*
X016711Y016478D01*
X016608Y016581D01*
X016552Y016717D01*
X016552Y016863D01*
X016608Y016999D01*
X016711Y017102D01*
X016847Y017158D01*
X016910Y017158D01*
X016910Y021523D01*
X016542Y021891D01*
X016542Y021323D01*
X016442Y021224D01*
X015986Y021224D01*
X015887Y021323D01*
X015887Y021937D01*
X015895Y021944D01*
X015880Y021959D01*
X015780Y022059D01*
X015780Y022126D01*
X015751Y022138D01*
X015679Y022210D01*
X015509Y022210D01*
X015380Y022339D01*
X015186Y022533D01*
X015186Y023084D01*
X015178Y023084D01*
X015116Y023145D01*
X015109Y023138D01*
X014973Y023082D01*
X014827Y023082D01*
X014691Y023138D01*
X014588Y023241D01*
X014532Y023377D01*
X014532Y023523D01*
X014559Y023589D01*
X014441Y023638D01*
X014385Y023694D01*
X014385Y023205D01*
X014285Y023106D01*
X013515Y023106D01*
X013415Y023205D01*
X013415Y023897D01*
X013515Y023997D01*
X013736Y023997D01*
X013809Y024070D01*
X013909Y024170D01*
X014349Y024170D01*
X014441Y024262D01*
X014577Y024318D01*
X014723Y024318D01*
X014859Y024262D01*
X014962Y024159D01*
X015018Y024023D01*
X015018Y023877D01*
X014991Y023811D01*
X015078Y023775D01*
X015078Y023797D01*
X015080Y023798D01*
X015080Y024891D01*
X015330Y025141D01*
X015459Y025270D01*
X016609Y025270D01*
X016756Y025417D01*
X016750Y025423D01*
X016750Y025508D01*
X016653Y025508D01*
X016554Y025608D01*
X016554Y026064D01*
X016653Y026163D01*
X017267Y026163D01*
X017288Y026142D01*
X017358Y026212D01*
X017608Y026462D01*
X017700Y026500D01*
X018251Y026500D01*
X018330Y026579D01*
X018473Y026638D01*
X018627Y026638D01*
X018770Y026579D01*
X018849Y026500D01*
X023651Y026500D01*
X023730Y026579D01*
X023873Y026638D01*
X024027Y026638D01*
X024170Y026579D01*
X024279Y026470D01*
X024290Y026443D01*
X024290Y026613D01*
X024063Y026840D01*
X018513Y026840D01*
X018390Y026963D01*
X018190Y027163D01*
X018190Y033287D01*
X018313Y033410D01*
X018513Y033610D01*
X021813Y033610D01*
X021940Y033737D01*
X021940Y034587D01*
X022063Y034710D01*
X022363Y035010D01*
X022989Y035010D01*
X023091Y035112D01*
X023227Y035168D01*
X023373Y035168D01*
X023509Y035112D01*
X023612Y035009D01*
X023668Y034873D01*
X023668Y034727D01*
X023660Y034707D01*
X024113Y035160D01*
X025189Y035160D01*
X025291Y035262D01*
X025427Y035318D01*
X025573Y035318D01*
X025709Y035262D01*
X025812Y035159D01*
X025868Y035023D01*
X025868Y034877D01*
X025812Y034741D01*
X025709Y034638D01*
X025573Y034582D01*
X025427Y034582D01*
X025291Y034638D01*
X025189Y034740D01*
X024287Y034740D01*
X023860Y034313D01*
X023737Y034190D01*
X022737Y034190D01*
X022610Y034063D01*
X022610Y033463D01*
X022270Y033123D01*
X022359Y033035D01*
X022359Y031083D01*
X022259Y030983D01*
X019441Y030983D01*
X019341Y031083D01*
X019341Y032940D01*
X018887Y032940D01*
X018860Y032913D01*
X018860Y027510D01*
X024337Y027510D01*
X024837Y027010D01*
X024960Y026887D01*
X024960Y023411D01*
X024977Y023418D01*
X025123Y023418D01*
X025259Y023362D01*
X025270Y023351D01*
X025270Y025369D01*
X025260Y025379D01*
X025260Y027981D01*
X025680Y028401D01*
X025809Y028530D01*
X027158Y028530D01*
X027158Y028627D01*
X027258Y028726D01*
X027714Y028726D01*
X027813Y028627D01*
X027813Y028013D01*
X027714Y027914D01*
X027258Y027914D01*
X027158Y028013D01*
X027158Y028090D01*
X025991Y028090D01*
X025700Y027799D01*
X025700Y025379D01*
X025690Y025369D01*
X025690Y022703D01*
X025190Y022203D01*
X025190Y021698D01*
X025213Y021698D01*
X025349Y021642D01*
X025452Y021539D01*
X025508Y021403D01*
X025508Y021257D01*
X025452Y021121D01*
X025349Y021018D01*
X025213Y020962D01*
X025067Y020962D01*
X024960Y021006D01*
X024960Y020518D01*
X025023Y020518D01*
X025159Y020462D01*
X025262Y020359D01*
X025318Y020223D01*
X025318Y020077D01*
X025262Y019941D01*
X025159Y019838D01*
X025023Y019782D01*
X024877Y019782D01*
X024741Y019838D01*
X024710Y019869D01*
X024710Y019653D01*
X024809Y019612D01*
X024912Y019509D01*
X024968Y019373D01*
X024968Y019227D01*
X024912Y019091D01*
X024809Y018988D01*
X024673Y018932D01*
X024527Y018932D01*
X024391Y018988D01*
X024288Y019091D01*
X024260Y019158D01*
X024260Y015381D01*
X024291Y015350D01*
X024811Y015350D01*
X025271Y014890D01*
X025400Y014761D01*
X025400Y006439D01*
X024940Y005979D01*
X024811Y005850D01*
X024445Y005850D01*
X024523Y005773D01*
X024591Y005608D01*
X024591Y005430D01*
X024523Y005266D01*
X024397Y005140D01*
X024232Y005072D01*
X024054Y005072D01*
X023890Y005140D01*
X023764Y005266D01*
X023750Y005300D01*
X023735Y005266D01*
X023609Y005140D01*
X023445Y005072D01*
X023267Y005072D01*
X023102Y005140D01*
X022977Y005266D01*
X022962Y005300D01*
X022948Y005266D01*
X022822Y005140D01*
X022658Y005072D01*
X022479Y005072D01*
X022315Y005140D01*
X022189Y005266D01*
X022175Y005300D01*
X022160Y005266D01*
X022035Y005140D01*
X021870Y005072D01*
X021692Y005072D01*
X021528Y005140D01*
X021402Y005266D01*
X021387Y005300D01*
X021373Y005266D01*
X021247Y005140D01*
X021083Y005072D01*
X020905Y005072D01*
X020740Y005140D01*
X020614Y005266D01*
X020600Y005300D01*
X020586Y005266D01*
X020460Y005140D01*
X020295Y005072D01*
X020117Y005072D01*
X019953Y005140D01*
X019827Y005266D01*
X019813Y005300D01*
X019798Y005266D01*
X019672Y005140D01*
X019508Y005072D01*
X019330Y005072D01*
X019165Y005140D01*
X019040Y005266D01*
X019025Y005300D01*
X019011Y005266D01*
X018885Y005140D01*
X018721Y005072D01*
X018542Y005072D01*
X018378Y005140D01*
X018252Y005266D01*
X018238Y005300D01*
X018223Y005266D01*
X018098Y005140D01*
X017933Y005072D01*
X017755Y005072D01*
X017591Y005140D01*
X017465Y005266D01*
X017450Y005300D01*
X017436Y005266D01*
X017310Y005140D01*
X017146Y005072D01*
X016968Y005072D01*
X016803Y005140D01*
X016960Y005075D02*
X005750Y005075D01*
X005750Y004977D02*
X030805Y004977D01*
X030805Y005075D02*
X024240Y005075D01*
X024047Y005075D02*
X023453Y005075D01*
X023259Y005075D02*
X022665Y005075D01*
X022472Y005075D02*
X021878Y005075D01*
X021684Y005075D02*
X021090Y005075D01*
X020897Y005075D02*
X020303Y005075D01*
X020110Y005075D02*
X019516Y005075D01*
X019322Y005075D02*
X018728Y005075D01*
X018535Y005075D02*
X017941Y005075D01*
X017747Y005075D02*
X017153Y005075D01*
X017344Y005174D02*
X017557Y005174D01*
X017462Y005272D02*
X017439Y005272D01*
X017057Y005519D02*
X017020Y005556D01*
X017020Y006110D01*
X017260Y006350D01*
X024580Y006350D01*
X024860Y006630D01*
X024860Y014530D01*
X024580Y014810D01*
X024060Y014810D01*
X023760Y015110D01*
X023760Y022710D01*
X023320Y023150D01*
X023320Y024090D01*
X023550Y024381D02*
X024290Y024381D01*
X024290Y024283D02*
X023639Y024283D01*
X023680Y024184D02*
X024290Y024184D01*
X024290Y024086D02*
X023985Y024086D01*
X024077Y023987D02*
X024290Y023987D01*
X024290Y023889D02*
X024118Y023889D01*
X023760Y023790D02*
X023760Y023110D01*
X024040Y022830D01*
X024040Y015290D01*
X024200Y015130D01*
X024720Y015130D01*
X025180Y014670D01*
X025180Y006530D01*
X024720Y006070D01*
X020400Y006070D01*
X020220Y005890D01*
X020220Y005533D01*
X020206Y005519D01*
X019919Y005174D02*
X019706Y005174D01*
X019801Y005272D02*
X019824Y005272D01*
X020493Y005174D02*
X020707Y005174D01*
X020612Y005272D02*
X020588Y005272D01*
X021281Y005174D02*
X021494Y005174D01*
X021399Y005272D02*
X021376Y005272D01*
X022068Y005174D02*
X022281Y005174D01*
X022187Y005272D02*
X022163Y005272D01*
X022856Y005174D02*
X023069Y005174D01*
X022974Y005272D02*
X022950Y005272D01*
X023643Y005174D02*
X023856Y005174D01*
X023761Y005272D02*
X023738Y005272D01*
X024430Y005174D02*
X030805Y005174D01*
X030805Y005272D02*
X024525Y005272D01*
X024566Y005371D02*
X030805Y005371D01*
X030805Y005469D02*
X024591Y005469D01*
X024591Y005568D02*
X030805Y005568D01*
X030805Y005666D02*
X024567Y005666D01*
X024526Y005765D02*
X030805Y005765D01*
X030805Y005863D02*
X024824Y005863D01*
X024923Y005962D02*
X030805Y005962D01*
X030805Y006060D02*
X025021Y006060D01*
X025120Y006159D02*
X030805Y006159D01*
X030805Y006257D02*
X025218Y006257D01*
X025317Y006356D02*
X030805Y006356D01*
X030805Y006454D02*
X025400Y006454D01*
X025400Y006553D02*
X030805Y006553D01*
X030805Y006651D02*
X025400Y006651D01*
X025400Y006750D02*
X030805Y006750D01*
X030805Y006848D02*
X025400Y006848D01*
X025400Y006947D02*
X030805Y006947D01*
X030805Y007045D02*
X025400Y007045D01*
X025400Y007144D02*
X030805Y007144D01*
X030805Y007242D02*
X025400Y007242D01*
X025400Y007341D02*
X030805Y007341D01*
X030805Y007439D02*
X025400Y007439D01*
X025400Y007538D02*
X030805Y007538D01*
X030805Y007636D02*
X025400Y007636D01*
X025400Y007735D02*
X030805Y007735D01*
X030805Y007833D02*
X025400Y007833D01*
X025400Y007932D02*
X030805Y007932D01*
X030805Y008030D02*
X025400Y008030D01*
X025400Y008129D02*
X030805Y008129D01*
X030805Y008227D02*
X025400Y008227D01*
X025400Y008326D02*
X030805Y008326D01*
X030805Y008424D02*
X025400Y008424D01*
X025400Y008523D02*
X030805Y008523D01*
X030805Y008621D02*
X025400Y008621D01*
X025400Y008720D02*
X030805Y008720D01*
X030805Y008818D02*
X025400Y008818D01*
X025400Y008917D02*
X030805Y008917D01*
X030805Y009015D02*
X025400Y009015D01*
X025400Y009114D02*
X030805Y009114D01*
X030805Y009212D02*
X025400Y009212D01*
X025400Y009311D02*
X030805Y009311D01*
X030805Y009409D02*
X025400Y009409D01*
X025400Y009508D02*
X030805Y009508D01*
X030805Y009606D02*
X025400Y009606D01*
X025400Y009705D02*
X030805Y009705D01*
X030805Y009803D02*
X025400Y009803D01*
X025400Y009902D02*
X030805Y009902D01*
X030805Y010000D02*
X025400Y010000D01*
X025400Y010099D02*
X030805Y010099D01*
X030805Y010197D02*
X025400Y010197D01*
X025400Y010296D02*
X030805Y010296D01*
X030805Y010394D02*
X025400Y010394D01*
X025400Y010493D02*
X030805Y010493D01*
X030805Y010591D02*
X029894Y010591D01*
X029898Y010593D02*
X030046Y010741D01*
X030126Y010934D01*
X030126Y011144D01*
X030046Y011337D01*
X029898Y011485D01*
X029777Y011535D01*
X029871Y011629D01*
X029905Y011615D01*
X030083Y011615D01*
X030247Y011683D01*
X030373Y011809D01*
X030441Y011974D01*
X030441Y012152D01*
X030373Y012316D01*
X030247Y012442D01*
X030213Y012456D01*
X030247Y012471D01*
X030373Y012597D01*
X030394Y012647D01*
X030547Y012800D01*
X030670Y012923D01*
X030670Y014057D01*
X030530Y014197D01*
X030407Y014320D01*
X030003Y014320D01*
X030046Y014363D01*
X030126Y014556D01*
X030126Y014766D01*
X030046Y014959D01*
X029898Y015107D01*
X029705Y015187D01*
X029495Y015187D01*
X029302Y015107D01*
X029154Y014959D01*
X029074Y014766D01*
X029074Y014556D01*
X029154Y014363D01*
X029197Y014320D01*
X028293Y014320D01*
X028113Y014140D01*
X027990Y014017D01*
X027990Y013798D01*
X027987Y013798D01*
X027851Y013742D01*
X027748Y013639D01*
X027692Y013503D01*
X027692Y013357D01*
X027748Y013221D01*
X027851Y013118D01*
X027987Y013062D01*
X028133Y013062D01*
X028269Y013118D01*
X028372Y013221D01*
X028428Y013357D01*
X028428Y013503D01*
X028410Y013548D01*
X028410Y013843D01*
X028467Y013900D01*
X028836Y013900D01*
X028827Y013891D01*
X028759Y013726D01*
X028759Y013548D01*
X028827Y013384D01*
X028953Y013258D01*
X028987Y013244D01*
X028953Y013229D01*
X028827Y013103D01*
X028759Y012939D01*
X028759Y012871D01*
X028693Y012898D01*
X028547Y012898D01*
X028411Y012842D01*
X028308Y012739D01*
X028252Y012603D01*
X028252Y012457D01*
X028308Y012321D01*
X028400Y012229D01*
X028400Y011719D01*
X028620Y011499D01*
X028749Y011370D01*
X029187Y011370D01*
X029154Y011337D01*
X029074Y011144D01*
X029074Y010934D01*
X029154Y010741D01*
X029302Y010593D01*
X029495Y010513D01*
X029705Y010513D01*
X029898Y010593D01*
X029995Y010690D02*
X030805Y010690D01*
X030805Y010788D02*
X030066Y010788D01*
X030106Y010887D02*
X030805Y010887D01*
X030805Y010985D02*
X030126Y010985D01*
X030126Y011084D02*
X030805Y011084D01*
X030805Y011182D02*
X030110Y011182D01*
X030070Y011281D02*
X030805Y011281D01*
X030805Y011379D02*
X030004Y011379D01*
X029906Y011478D02*
X030805Y011478D01*
X030805Y011576D02*
X029818Y011576D01*
X029521Y011590D02*
X029994Y012063D01*
X030441Y012069D02*
X030805Y012069D01*
X030805Y012167D02*
X030435Y012167D01*
X030394Y012266D02*
X030805Y012266D01*
X030805Y012364D02*
X030325Y012364D01*
X030228Y012463D02*
X030805Y012463D01*
X030805Y012561D02*
X030338Y012561D01*
X030407Y012660D02*
X030805Y012660D01*
X030805Y012758D02*
X030505Y012758D01*
X030604Y012857D02*
X030805Y012857D01*
X030805Y012955D02*
X030670Y012955D01*
X030670Y013054D02*
X030805Y013054D01*
X030805Y013152D02*
X030670Y013152D01*
X030670Y013251D02*
X030805Y013251D01*
X030805Y013349D02*
X030670Y013349D01*
X030670Y013448D02*
X030805Y013448D01*
X030805Y013546D02*
X030670Y013546D01*
X030670Y013645D02*
X030805Y013645D01*
X030805Y013743D02*
X030670Y013743D01*
X030670Y013842D02*
X030805Y013842D01*
X030805Y013940D02*
X030670Y013940D01*
X030670Y014039D02*
X030805Y014039D01*
X030805Y014137D02*
X030590Y014137D01*
X030491Y014236D02*
X030805Y014236D01*
X030805Y014334D02*
X030017Y014334D01*
X030075Y014433D02*
X030805Y014433D01*
X030805Y014531D02*
X030116Y014531D01*
X030126Y014630D02*
X030805Y014630D01*
X030805Y014728D02*
X030126Y014728D01*
X030101Y014827D02*
X030805Y014827D01*
X030805Y014925D02*
X030060Y014925D01*
X029982Y015024D02*
X030805Y015024D01*
X030805Y015122D02*
X029862Y015122D01*
X029338Y015122D02*
X025039Y015122D01*
X024941Y015221D02*
X030805Y015221D01*
X030805Y015319D02*
X024842Y015319D01*
X025138Y015024D02*
X029218Y015024D01*
X029140Y014925D02*
X025236Y014925D01*
X025335Y014827D02*
X029099Y014827D01*
X029074Y014728D02*
X025400Y014728D01*
X025400Y014630D02*
X029074Y014630D01*
X029084Y014531D02*
X025400Y014531D01*
X025400Y014433D02*
X029125Y014433D01*
X029183Y014334D02*
X025400Y014334D01*
X025400Y014236D02*
X028209Y014236D01*
X028110Y014137D02*
X025400Y014137D01*
X025400Y014039D02*
X028012Y014039D01*
X027990Y013940D02*
X025400Y013940D01*
X025400Y013842D02*
X027990Y013842D01*
X027853Y013743D02*
X025400Y013743D01*
X025400Y013645D02*
X027754Y013645D01*
X027709Y013546D02*
X025400Y013546D01*
X025400Y013448D02*
X027692Y013448D01*
X027695Y013349D02*
X025400Y013349D01*
X025400Y013251D02*
X027736Y013251D01*
X027817Y013152D02*
X025400Y013152D01*
X025400Y013054D02*
X028806Y013054D01*
X028765Y012955D02*
X025400Y012955D01*
X025400Y012857D02*
X028446Y012857D01*
X028327Y012758D02*
X025400Y012758D01*
X025400Y012660D02*
X028275Y012660D01*
X028252Y012561D02*
X025400Y012561D01*
X025400Y012463D02*
X028252Y012463D01*
X028290Y012364D02*
X025400Y012364D01*
X025400Y012266D02*
X028363Y012266D01*
X028400Y012167D02*
X025400Y012167D01*
X025400Y012069D02*
X028400Y012069D01*
X028400Y011970D02*
X025400Y011970D01*
X025400Y011872D02*
X028400Y011872D01*
X028400Y011773D02*
X025400Y011773D01*
X025400Y011675D02*
X028444Y011675D01*
X028543Y011576D02*
X025400Y011576D01*
X025400Y011478D02*
X028641Y011478D01*
X028740Y011379D02*
X025400Y011379D01*
X025400Y011281D02*
X029130Y011281D01*
X029090Y011182D02*
X025400Y011182D01*
X025400Y011084D02*
X029074Y011084D01*
X029074Y010985D02*
X025400Y010985D01*
X025400Y010887D02*
X029094Y010887D01*
X029134Y010788D02*
X025400Y010788D01*
X025400Y010690D02*
X029205Y010690D01*
X029306Y010591D02*
X025400Y010591D01*
X024640Y010591D02*
X011280Y010591D01*
X011280Y010493D02*
X024640Y010493D01*
X024640Y010394D02*
X011280Y010394D01*
X011280Y010296D02*
X024640Y010296D01*
X024640Y010197D02*
X011258Y010197D01*
X011280Y010219D02*
X011280Y011149D01*
X011372Y011241D01*
X011428Y011377D01*
X011428Y011523D01*
X011372Y011659D01*
X011269Y011762D01*
X011133Y011818D01*
X010987Y011818D01*
X010851Y011762D01*
X010748Y011659D01*
X010692Y011523D01*
X010692Y011377D01*
X010748Y011241D01*
X010840Y011149D01*
X010840Y010401D01*
X010789Y010350D01*
X009291Y010350D01*
X009020Y010621D01*
X008891Y010750D01*
X007971Y010750D01*
X007575Y011147D01*
X007628Y011277D01*
X007628Y011423D01*
X007572Y011559D01*
X007469Y011662D01*
X007333Y011718D01*
X007187Y011718D01*
X007051Y011662D01*
X006948Y011559D01*
X006892Y011423D01*
X006892Y011277D01*
X006948Y011141D01*
X007051Y011038D01*
X007068Y011031D01*
X007169Y010930D01*
X007789Y010310D01*
X008709Y010310D01*
X008980Y010039D01*
X008980Y008411D01*
X008888Y008319D01*
X008832Y008183D01*
X008832Y008037D01*
X008888Y007901D01*
X008991Y007798D01*
X009127Y007742D01*
X009273Y007742D01*
X009409Y007798D01*
X009512Y007901D01*
X009568Y008037D01*
X009568Y008183D01*
X009512Y008319D01*
X009420Y008411D01*
X009420Y008460D01*
X009428Y008441D01*
X009531Y008338D01*
X009667Y008282D01*
X009813Y008282D01*
X009816Y008283D01*
X009849Y008250D01*
X010320Y008250D01*
X010320Y006442D01*
X010214Y006398D01*
X010062Y006246D01*
X010041Y006194D01*
X009978Y006346D01*
X009826Y006498D01*
X009627Y006580D01*
X009413Y006580D01*
X009214Y006498D01*
X009062Y006346D01*
X008999Y006194D01*
X008978Y006246D01*
X008826Y006398D01*
X008627Y006480D01*
X008413Y006480D01*
X008214Y006398D01*
X008062Y006246D01*
X008040Y006192D01*
X008040Y006430D01*
X008030Y006468D01*
X008010Y006502D01*
X007982Y006530D01*
X007948Y006550D01*
X007910Y006560D01*
X007570Y006560D01*
X007570Y006090D01*
X007470Y006090D01*
X007470Y006560D01*
X007130Y006560D01*
X007092Y006550D01*
X007058Y006530D01*
X007030Y006502D01*
X007010Y006468D01*
X007000Y006430D01*
X007000Y006090D01*
X007470Y006090D01*
X007470Y005990D01*
X007570Y005990D01*
X007570Y005520D01*
X007910Y005520D01*
X007948Y005530D01*
X007982Y005550D01*
X008010Y005578D01*
X008030Y005612D01*
X008040Y005650D01*
X008040Y005688D01*
X008062Y005634D01*
X008214Y005482D01*
X008413Y005400D01*
X008627Y005400D01*
X008826Y005482D01*
X008978Y005634D01*
X009041Y005786D01*
X009062Y005734D01*
X009214Y005582D01*
X009413Y005500D01*
X009627Y005500D01*
X009826Y005582D01*
X009978Y005734D01*
X009999Y005786D01*
X010062Y005634D01*
X010214Y005482D01*
X010413Y005400D01*
X010627Y005400D01*
X010826Y005482D01*
X010978Y005634D01*
X011060Y005833D01*
X011060Y006047D01*
X010978Y006246D01*
X010826Y006398D01*
X010760Y006425D01*
X010760Y008461D01*
X010631Y008590D01*
X010531Y008690D01*
X010108Y008690D01*
X010108Y008723D01*
X010052Y008859D01*
X009949Y008962D01*
X009813Y009018D01*
X009667Y009018D01*
X009531Y008962D01*
X009428Y008859D01*
X009420Y008840D01*
X009420Y009910D01*
X010971Y009910D01*
X011100Y010039D01*
X011280Y010219D01*
X011160Y010099D02*
X024640Y010099D01*
X024640Y010000D02*
X011061Y010000D01*
X010880Y010130D02*
X011060Y010310D01*
X011060Y011450D01*
X011313Y011182D02*
X024640Y011182D01*
X024640Y011084D02*
X011280Y011084D01*
X011280Y010985D02*
X024640Y010985D01*
X024640Y010887D02*
X011280Y010887D01*
X011280Y010788D02*
X024640Y010788D01*
X024640Y010690D02*
X011280Y010690D01*
X010840Y010690D02*
X008952Y010690D01*
X009050Y010591D02*
X010840Y010591D01*
X010840Y010493D02*
X009149Y010493D01*
X009247Y010394D02*
X010833Y010394D01*
X010880Y010130D02*
X009220Y010130D01*
X009200Y010110D01*
X009200Y010130D01*
X008800Y010530D01*
X007880Y010530D01*
X007260Y011150D01*
X007260Y011350D01*
X007005Y011084D02*
X005770Y011084D01*
X005770Y011182D02*
X006931Y011182D01*
X006892Y011281D02*
X005770Y011281D01*
X005770Y011379D02*
X006892Y011379D01*
X006914Y011478D02*
X005770Y011478D01*
X005764Y011576D02*
X006965Y011576D01*
X007081Y011675D02*
X005715Y011675D01*
X005770Y011773D02*
X010877Y011773D01*
X010763Y011675D02*
X007439Y011675D01*
X007555Y011576D02*
X010713Y011576D01*
X010692Y011478D02*
X007606Y011478D01*
X007628Y011379D02*
X010692Y011379D01*
X010731Y011281D02*
X007628Y011281D01*
X007589Y011182D02*
X010807Y011182D01*
X010840Y011084D02*
X007638Y011084D01*
X007736Y010985D02*
X010840Y010985D01*
X010840Y010887D02*
X007835Y010887D01*
X007933Y010788D02*
X010840Y010788D01*
X011389Y011281D02*
X024640Y011281D01*
X024640Y011379D02*
X011428Y011379D01*
X011428Y011478D02*
X024640Y011478D01*
X024640Y011576D02*
X011407Y011576D01*
X011357Y011675D02*
X024640Y011675D01*
X024640Y011773D02*
X011243Y011773D01*
X009420Y009902D02*
X024640Y009902D01*
X024640Y009803D02*
X009420Y009803D01*
X009420Y009705D02*
X024640Y009705D01*
X024640Y009606D02*
X009420Y009606D01*
X009420Y009508D02*
X024640Y009508D01*
X024640Y009409D02*
X009420Y009409D01*
X009420Y009311D02*
X024640Y009311D01*
X024640Y009212D02*
X009420Y009212D01*
X009420Y009114D02*
X024640Y009114D01*
X024640Y009015D02*
X009821Y009015D01*
X009659Y009015D02*
X009420Y009015D01*
X009420Y008917D02*
X009485Y008917D01*
X009740Y008650D02*
X009760Y008650D01*
X009940Y008470D01*
X010440Y008470D01*
X010540Y008370D01*
X010540Y005960D01*
X010520Y005940D01*
X011014Y006159D02*
X016800Y006159D01*
X016800Y006060D02*
X011055Y006060D01*
X011060Y005962D02*
X016800Y005962D01*
X016768Y005863D02*
X011060Y005863D01*
X011032Y005765D02*
X016674Y005765D01*
X016633Y005666D02*
X010991Y005666D01*
X010911Y005568D02*
X016609Y005568D01*
X016609Y005469D02*
X010794Y005469D01*
X010246Y005469D02*
X008794Y005469D01*
X008911Y005568D02*
X009250Y005568D01*
X009130Y005666D02*
X008991Y005666D01*
X009032Y005765D02*
X009050Y005765D01*
X009025Y006257D02*
X008967Y006257D01*
X008868Y006356D02*
X009072Y006356D01*
X009170Y006454D02*
X008690Y006454D01*
X008350Y006454D02*
X008033Y006454D01*
X008040Y006356D02*
X008172Y006356D01*
X008073Y006257D02*
X008040Y006257D01*
X007938Y006553D02*
X009346Y006553D01*
X009694Y006553D02*
X010320Y006553D01*
X010320Y006651D02*
X005691Y006651D01*
X005770Y006553D02*
X007102Y006553D01*
X007007Y006454D02*
X005770Y006454D01*
X005770Y006356D02*
X007000Y006356D01*
X007000Y006257D02*
X005770Y006257D01*
X005770Y006159D02*
X007000Y006159D01*
X007000Y005990D02*
X007000Y005650D01*
X007010Y005612D01*
X007030Y005578D01*
X007058Y005550D01*
X007092Y005530D01*
X007130Y005520D01*
X007470Y005520D01*
X007470Y005990D01*
X007000Y005990D01*
X007000Y005962D02*
X005770Y005962D01*
X005770Y006060D02*
X007470Y006060D01*
X007470Y005962D02*
X007570Y005962D01*
X007570Y005863D02*
X007470Y005863D01*
X007470Y005765D02*
X007570Y005765D01*
X007570Y005666D02*
X007470Y005666D01*
X007470Y005568D02*
X007570Y005568D01*
X008000Y005568D02*
X008129Y005568D01*
X008049Y005666D02*
X008040Y005666D01*
X008246Y005469D02*
X005750Y005469D01*
X005750Y005371D02*
X016634Y005371D01*
X016675Y005272D02*
X005750Y005272D01*
X005734Y005568D02*
X007040Y005568D01*
X007000Y005666D02*
X005706Y005666D01*
X005770Y005765D02*
X007000Y005765D01*
X007000Y005863D02*
X005770Y005863D01*
X005750Y004878D02*
X030805Y004878D01*
X030805Y004780D02*
X005750Y004780D01*
X005693Y004681D02*
X030805Y004681D01*
X030805Y004583D02*
X005726Y004583D01*
X005750Y004484D02*
X030805Y004484D01*
X030805Y004386D02*
X005750Y004386D01*
X007470Y006159D02*
X007570Y006159D01*
X007570Y006257D02*
X007470Y006257D01*
X007470Y006356D02*
X007570Y006356D01*
X007570Y006454D02*
X007470Y006454D01*
X007470Y006553D02*
X007570Y006553D01*
X008956Y007833D02*
X005770Y007833D01*
X005770Y007735D02*
X010320Y007735D01*
X010320Y007833D02*
X009444Y007833D01*
X009525Y007932D02*
X010320Y007932D01*
X010320Y008030D02*
X009566Y008030D01*
X009568Y008129D02*
X010320Y008129D01*
X010320Y008227D02*
X009550Y008227D01*
X009561Y008326D02*
X009506Y008326D01*
X009445Y008424D02*
X009420Y008424D01*
X009200Y008110D02*
X009200Y010110D01*
X008980Y010000D02*
X005770Y010000D01*
X005770Y009902D02*
X008980Y009902D01*
X008980Y009803D02*
X005770Y009803D01*
X005745Y009705D02*
X008980Y009705D01*
X008980Y009606D02*
X005734Y009606D01*
X005770Y009508D02*
X008980Y009508D01*
X008980Y009409D02*
X005770Y009409D01*
X005770Y009311D02*
X008980Y009311D01*
X008980Y009212D02*
X005770Y009212D01*
X005770Y009114D02*
X008980Y009114D01*
X008980Y009015D02*
X005770Y009015D01*
X005770Y008917D02*
X008980Y008917D01*
X008980Y008818D02*
X005770Y008818D01*
X005760Y008720D02*
X008980Y008720D01*
X008980Y008621D02*
X005719Y008621D01*
X005770Y008523D02*
X008980Y008523D01*
X008980Y008424D02*
X005770Y008424D01*
X005770Y008326D02*
X008894Y008326D01*
X008850Y008227D02*
X005770Y008227D01*
X005770Y008129D02*
X008832Y008129D01*
X008834Y008030D02*
X005770Y008030D01*
X005770Y007932D02*
X008875Y007932D01*
X009995Y008917D02*
X024640Y008917D01*
X024640Y008818D02*
X010069Y008818D01*
X010108Y008720D02*
X024640Y008720D01*
X024640Y008621D02*
X010600Y008621D01*
X010699Y008523D02*
X024640Y008523D01*
X024640Y008424D02*
X010760Y008424D01*
X010760Y008326D02*
X024640Y008326D01*
X024640Y008227D02*
X010760Y008227D01*
X010760Y008129D02*
X024640Y008129D01*
X024640Y008030D02*
X010760Y008030D01*
X010760Y007932D02*
X024640Y007932D01*
X024640Y007833D02*
X010760Y007833D01*
X010760Y007735D02*
X024640Y007735D01*
X024640Y007636D02*
X010760Y007636D01*
X010760Y007538D02*
X024640Y007538D01*
X024640Y007439D02*
X010760Y007439D01*
X010760Y007341D02*
X024640Y007341D01*
X024640Y007242D02*
X010760Y007242D01*
X010760Y007144D02*
X024640Y007144D01*
X024640Y007045D02*
X010760Y007045D01*
X010760Y006947D02*
X024640Y006947D01*
X024640Y006848D02*
X010760Y006848D01*
X010760Y006750D02*
X024640Y006750D01*
X024570Y006651D02*
X010760Y006651D01*
X010760Y006553D02*
X017151Y006553D01*
X017053Y006454D02*
X010760Y006454D01*
X010868Y006356D02*
X016954Y006356D01*
X016856Y006257D02*
X010967Y006257D01*
X010320Y006454D02*
X009870Y006454D01*
X009968Y006356D02*
X010172Y006356D01*
X010073Y006257D02*
X010015Y006257D01*
X009990Y005765D02*
X010008Y005765D01*
X010049Y005666D02*
X009910Y005666D01*
X009790Y005568D02*
X010129Y005568D01*
X010320Y006750D02*
X005770Y006750D01*
X005770Y006848D02*
X010320Y006848D01*
X010320Y006947D02*
X005770Y006947D01*
X005770Y007045D02*
X010320Y007045D01*
X010320Y007144D02*
X005770Y007144D01*
X005770Y007242D02*
X010320Y007242D01*
X010320Y007341D02*
X005770Y007341D01*
X005770Y007439D02*
X010320Y007439D01*
X010320Y007538D02*
X005770Y007538D01*
X005704Y007636D02*
X010320Y007636D01*
X008920Y010099D02*
X005770Y010099D01*
X005770Y010197D02*
X008822Y010197D01*
X008723Y010296D02*
X005770Y010296D01*
X005770Y010394D02*
X007705Y010394D01*
X007606Y010493D02*
X005770Y010493D01*
X005749Y010591D02*
X007508Y010591D01*
X007409Y010690D02*
X005730Y010690D01*
X005770Y010788D02*
X007311Y010788D01*
X007212Y010887D02*
X005770Y010887D01*
X005770Y010985D02*
X007114Y010985D01*
X005770Y011872D02*
X024640Y011872D01*
X024640Y011970D02*
X005770Y011970D01*
X005770Y012069D02*
X024640Y012069D01*
X024640Y012167D02*
X005770Y012167D01*
X005770Y012266D02*
X024640Y012266D01*
X024640Y012364D02*
X005770Y012364D01*
X005770Y012463D02*
X024640Y012463D01*
X024640Y012561D02*
X005770Y012561D01*
X005700Y012660D02*
X024640Y012660D01*
X024640Y012758D02*
X005770Y012758D01*
X005770Y012857D02*
X024640Y012857D01*
X024640Y012955D02*
X016526Y012955D01*
X016617Y013054D02*
X024640Y013054D01*
X024640Y013152D02*
X016658Y013152D01*
X016668Y013251D02*
X024640Y013251D01*
X024640Y013349D02*
X016658Y013349D01*
X016617Y013448D02*
X024640Y013448D01*
X024640Y013546D02*
X016525Y013546D01*
X016250Y013645D02*
X024640Y013645D01*
X024640Y013743D02*
X024256Y013743D01*
X024437Y013842D02*
X024640Y013842D01*
X024640Y013940D02*
X024528Y013940D01*
X024569Y014039D02*
X024640Y014039D01*
X024640Y014137D02*
X024591Y014137D01*
X024591Y014236D02*
X024640Y014236D01*
X024640Y014334D02*
X024564Y014334D01*
X024523Y014433D02*
X024640Y014433D01*
X024548Y014531D02*
X024426Y014531D01*
X023929Y014630D02*
X016250Y014630D01*
X016250Y014728D02*
X023831Y014728D01*
X023732Y014827D02*
X016250Y014827D01*
X016250Y014925D02*
X023634Y014925D01*
X023540Y015024D02*
X016251Y015024D01*
X016349Y015122D02*
X023540Y015122D01*
X023540Y015221D02*
X017688Y015221D01*
X017786Y015319D02*
X023540Y015319D01*
X023540Y015418D02*
X017885Y015418D01*
X017983Y015516D02*
X023540Y015516D01*
X023540Y015615D02*
X018070Y015615D01*
X018070Y015713D02*
X023540Y015713D01*
X023540Y015812D02*
X018070Y015812D01*
X018070Y015910D02*
X023540Y015910D01*
X023540Y016009D02*
X018070Y016009D01*
X018070Y016107D02*
X023540Y016107D01*
X023540Y016206D02*
X018070Y016206D01*
X018070Y016304D02*
X023540Y016304D01*
X023540Y016403D02*
X018070Y016403D01*
X018070Y016501D02*
X023540Y016501D01*
X023540Y016600D02*
X018070Y016600D01*
X018070Y016698D02*
X023540Y016698D01*
X023540Y016797D02*
X018070Y016797D01*
X018070Y016895D02*
X023540Y016895D01*
X023540Y016994D02*
X018070Y016994D01*
X018070Y017092D02*
X023540Y017092D01*
X023540Y017191D02*
X018070Y017191D01*
X018070Y017289D02*
X023540Y017289D01*
X023540Y017388D02*
X018070Y017388D01*
X018070Y017486D02*
X023540Y017486D01*
X023540Y017585D02*
X018070Y017585D01*
X018070Y017683D02*
X023540Y017683D01*
X023540Y017782D02*
X018070Y017782D01*
X018070Y017880D02*
X023540Y017880D01*
X023540Y017979D02*
X018070Y017979D01*
X018070Y018077D02*
X023540Y018077D01*
X023540Y018176D02*
X018070Y018176D01*
X018070Y018274D02*
X023540Y018274D01*
X023540Y018373D02*
X018070Y018373D01*
X018070Y018471D02*
X023540Y018471D01*
X023540Y018570D02*
X018070Y018570D01*
X018070Y018668D02*
X023540Y018668D01*
X023540Y018767D02*
X018070Y018767D01*
X018070Y018865D02*
X023540Y018865D01*
X023540Y018964D02*
X018070Y018964D01*
X018070Y019062D02*
X023540Y019062D01*
X023540Y019161D02*
X018070Y019161D01*
X018070Y019259D02*
X023540Y019259D01*
X023540Y019358D02*
X018070Y019358D01*
X018070Y019456D02*
X023540Y019456D01*
X023540Y019555D02*
X018070Y019555D01*
X018070Y019653D02*
X023540Y019653D01*
X023540Y019752D02*
X018070Y019752D01*
X018070Y019850D02*
X023540Y019850D01*
X023540Y019949D02*
X018070Y019949D01*
X018070Y020047D02*
X023540Y020047D01*
X023540Y020146D02*
X018070Y020146D01*
X018070Y020244D02*
X023540Y020244D01*
X023540Y020343D02*
X018070Y020343D01*
X018070Y020441D02*
X023540Y020441D01*
X023540Y020540D02*
X023391Y020540D01*
X023489Y020638D02*
X023540Y020638D01*
X023532Y020737D02*
X023540Y020737D01*
X023210Y021229D02*
X018070Y021229D01*
X018070Y021131D02*
X022940Y021131D01*
X022857Y021032D02*
X018070Y021032D01*
X018070Y020934D02*
X022816Y020934D01*
X022812Y020835D02*
X018070Y020835D01*
X018070Y020737D02*
X022828Y020737D01*
X022871Y020638D02*
X018070Y020638D01*
X018070Y020540D02*
X022969Y020540D01*
X023210Y021328D02*
X018070Y021328D01*
X018070Y021426D02*
X023210Y021426D01*
X023210Y021525D02*
X018070Y021525D01*
X018070Y021623D02*
X023210Y021623D01*
X023210Y021722D02*
X018070Y021722D01*
X018070Y021820D02*
X023210Y021820D01*
X023210Y021919D02*
X018070Y021919D01*
X018070Y022017D02*
X023210Y022017D01*
X023210Y022116D02*
X018070Y022116D01*
X018070Y022214D02*
X023210Y022214D01*
X023210Y022313D02*
X018144Y022313D01*
X018201Y022411D02*
X023210Y022411D01*
X023210Y022510D02*
X018228Y022510D01*
X018228Y022608D02*
X023125Y022608D01*
X023026Y022707D02*
X018194Y022707D01*
X018126Y022805D02*
X022928Y022805D01*
X022829Y022904D02*
X017969Y022904D01*
X017949Y023088D02*
X018176Y023088D01*
X018214Y023098D01*
X018248Y023118D01*
X018276Y023146D01*
X018296Y023180D01*
X018306Y023218D01*
X018306Y023367D01*
X017949Y023367D01*
X017949Y023424D01*
X018306Y023424D01*
X018306Y023573D01*
X018296Y023611D01*
X018276Y023645D01*
X018248Y023673D01*
X018214Y023693D01*
X018176Y023703D01*
X017949Y023703D01*
X017949Y023424D01*
X017891Y023424D01*
X017891Y023367D01*
X017534Y023367D01*
X017534Y023218D01*
X017544Y023180D01*
X017564Y023146D01*
X017592Y023118D01*
X017626Y023098D01*
X017664Y023088D01*
X017891Y023088D01*
X017891Y023367D01*
X017949Y023367D01*
X017949Y023088D01*
X017949Y023101D02*
X017891Y023101D01*
X017891Y023199D02*
X017949Y023199D01*
X017949Y023298D02*
X017891Y023298D01*
X017891Y023396D02*
X016422Y023396D01*
X016422Y023461D02*
X016143Y023461D01*
X016143Y023104D01*
X016292Y023104D01*
X016330Y023114D01*
X016364Y023134D01*
X016392Y023162D01*
X016412Y023196D01*
X016422Y023234D01*
X016422Y023461D01*
X016422Y023519D02*
X016422Y023746D01*
X016412Y023784D01*
X016392Y023818D01*
X016364Y023846D01*
X016330Y023866D01*
X016292Y023876D01*
X016143Y023876D01*
X016143Y023519D01*
X016086Y023519D01*
X016086Y023876D01*
X015937Y023876D01*
X015899Y023866D01*
X015865Y023846D01*
X015837Y023818D01*
X015817Y023784D01*
X015807Y023746D01*
X015807Y023519D01*
X016086Y023519D01*
X016086Y023461D01*
X016143Y023461D01*
X016143Y023519D01*
X016422Y023519D01*
X016422Y023593D02*
X017539Y023593D01*
X017544Y023611D02*
X017534Y023573D01*
X017534Y023424D01*
X017891Y023424D01*
X017891Y023703D01*
X017664Y023703D01*
X017626Y023693D01*
X017592Y023673D01*
X017564Y023645D01*
X017544Y023611D01*
X017624Y023692D02*
X016422Y023692D01*
X016408Y023790D02*
X017600Y023790D01*
X017613Y023777D02*
X017514Y023876D01*
X017514Y024332D01*
X017613Y024432D01*
X017697Y024432D01*
X017608Y024521D01*
X017552Y024657D01*
X017552Y024803D01*
X017608Y024939D01*
X017711Y025042D01*
X017847Y025098D01*
X017993Y025098D01*
X018129Y025042D01*
X018232Y024939D01*
X018288Y024803D01*
X018288Y024657D01*
X018232Y024521D01*
X018143Y024432D01*
X018227Y024432D01*
X018326Y024332D01*
X018326Y023876D01*
X018227Y023777D01*
X017613Y023777D01*
X017514Y023889D02*
X015641Y023889D01*
X015733Y023790D02*
X015821Y023790D01*
X015807Y023692D02*
X015733Y023692D01*
X015733Y023593D02*
X015807Y023593D01*
X015733Y023495D02*
X016086Y023495D01*
X016086Y023461D02*
X015807Y023461D01*
X015807Y023234D01*
X015817Y023196D01*
X015837Y023162D01*
X015865Y023134D01*
X015899Y023114D01*
X015937Y023104D01*
X016086Y023104D01*
X016086Y023461D01*
X016086Y023396D02*
X016143Y023396D01*
X016143Y023298D02*
X016086Y023298D01*
X016086Y023199D02*
X016143Y023199D01*
X016412Y023199D02*
X017539Y023199D01*
X017534Y023298D02*
X016422Y023298D01*
X016143Y023495D02*
X017534Y023495D01*
X017622Y023101D02*
X015650Y023101D01*
X015626Y023002D02*
X016751Y023002D01*
X016661Y022904D02*
X015626Y022904D01*
X015626Y022805D02*
X015854Y022805D01*
X015696Y022707D02*
X015635Y022707D01*
X015406Y022624D02*
X015600Y022430D01*
X015940Y022430D01*
X015960Y022450D01*
X016000Y022410D01*
X016000Y022150D01*
X016100Y022050D01*
X016180Y022050D01*
X016200Y022030D01*
X016200Y021644D01*
X016214Y021630D01*
X015887Y021623D02*
X015534Y021623D01*
X015534Y021601D02*
X015534Y021659D01*
X015477Y021659D01*
X015477Y022016D01*
X015328Y022016D01*
X015290Y022006D01*
X015256Y021986D01*
X015228Y021958D01*
X015208Y021924D01*
X015198Y021886D01*
X015198Y021659D01*
X015477Y021659D01*
X015477Y021601D01*
X015534Y021601D01*
X015534Y021244D01*
X015683Y021244D01*
X015721Y021254D01*
X015755Y021274D01*
X015783Y021302D01*
X015803Y021336D01*
X015813Y021374D01*
X015813Y021601D01*
X015534Y021601D01*
X015477Y021601D02*
X015477Y021244D01*
X015328Y021244D01*
X015290Y021254D01*
X015256Y021274D01*
X015228Y021302D01*
X015208Y021336D01*
X015198Y021374D01*
X015198Y021601D01*
X015477Y021601D01*
X015477Y021623D02*
X013390Y021623D01*
X013390Y021525D02*
X015198Y021525D01*
X015198Y021426D02*
X013390Y021426D01*
X013390Y021328D02*
X015213Y021328D01*
X015477Y021328D02*
X015534Y021328D01*
X015534Y021426D02*
X015477Y021426D01*
X015477Y021525D02*
X015534Y021525D01*
X015534Y021659D02*
X015813Y021659D01*
X015813Y021886D01*
X015803Y021924D01*
X015783Y021958D01*
X015755Y021986D01*
X015721Y022006D01*
X015683Y022016D01*
X015534Y022016D01*
X015534Y021659D01*
X015534Y021722D02*
X015477Y021722D01*
X015477Y021820D02*
X015534Y021820D01*
X015534Y021919D02*
X015477Y021919D01*
X015207Y021919D02*
X013390Y021919D01*
X013390Y022017D02*
X015822Y022017D01*
X015804Y021919D02*
X015887Y021919D01*
X015887Y021820D02*
X015813Y021820D01*
X015813Y021722D02*
X015887Y021722D01*
X015887Y021525D02*
X015813Y021525D01*
X015813Y021426D02*
X015887Y021426D01*
X015887Y021328D02*
X015798Y021328D01*
X015981Y021229D02*
X013390Y021229D01*
X013390Y021131D02*
X016910Y021131D01*
X016910Y021229D02*
X016448Y021229D01*
X016542Y021328D02*
X016910Y021328D01*
X016910Y021426D02*
X016542Y021426D01*
X016542Y021525D02*
X016908Y021525D01*
X016810Y021623D02*
X016542Y021623D01*
X016542Y021722D02*
X016711Y021722D01*
X016613Y021820D02*
X016542Y021820D01*
X015780Y022116D02*
X014355Y022116D01*
X014355Y022115D02*
X014365Y022153D01*
X014365Y022399D01*
X013950Y022399D01*
X013950Y022499D01*
X013850Y022499D01*
X013850Y022874D01*
X013565Y022874D01*
X013527Y022864D01*
X013493Y022844D01*
X013465Y022817D01*
X013445Y022782D01*
X013435Y022744D01*
X013435Y022499D01*
X013850Y022499D01*
X013850Y022399D01*
X013435Y022399D01*
X013435Y022153D01*
X013445Y022115D01*
X013465Y022081D01*
X013493Y022053D01*
X013527Y022033D01*
X013565Y022023D01*
X013850Y022023D01*
X013850Y022399D01*
X013950Y022399D01*
X013950Y022023D01*
X014235Y022023D01*
X014273Y022033D01*
X014307Y022053D01*
X014335Y022081D01*
X014355Y022115D01*
X014365Y022214D02*
X015505Y022214D01*
X015406Y022313D02*
X014365Y022313D01*
X014365Y022499D02*
X014365Y022744D01*
X014355Y022782D01*
X014335Y022817D01*
X014307Y022844D01*
X014273Y022864D01*
X014235Y022874D01*
X013950Y022874D01*
X013950Y022499D01*
X014365Y022499D01*
X014365Y022510D02*
X015209Y022510D01*
X015186Y022608D02*
X014365Y022608D01*
X014365Y022707D02*
X015186Y022707D01*
X015186Y022805D02*
X014342Y022805D01*
X014379Y023199D02*
X014630Y023199D01*
X014564Y023298D02*
X014385Y023298D01*
X014385Y023396D02*
X014532Y023396D01*
X014532Y023495D02*
X014385Y023495D01*
X014385Y023593D02*
X014549Y023593D01*
X014387Y023692D02*
X014385Y023692D01*
X014650Y023950D02*
X014000Y023950D01*
X013900Y023850D01*
X013900Y023551D01*
X013415Y023593D02*
X013390Y023593D01*
X013390Y023495D02*
X013415Y023495D01*
X013415Y023396D02*
X013390Y023396D01*
X013390Y023298D02*
X013415Y023298D01*
X013421Y023199D02*
X013390Y023199D01*
X013390Y023101D02*
X014781Y023101D01*
X015019Y023101D02*
X015161Y023101D01*
X015186Y023002D02*
X013390Y023002D01*
X013390Y022904D02*
X015186Y022904D01*
X015406Y022624D02*
X015406Y023490D01*
X015300Y023550D02*
X015300Y024800D01*
X015550Y025050D01*
X016700Y025050D01*
X017100Y025450D01*
X017160Y025450D01*
X017500Y025450D01*
X017520Y025330D01*
X017598Y025071D02*
X017779Y025071D01*
X017768Y025169D02*
X024290Y025169D01*
X024290Y025071D02*
X018061Y025071D01*
X018199Y024972D02*
X024290Y024972D01*
X024290Y024874D02*
X018259Y024874D01*
X018288Y024775D02*
X022582Y024775D01*
X022466Y024677D02*
X018288Y024677D01*
X018256Y024578D02*
X022414Y024578D01*
X022392Y024480D02*
X018191Y024480D01*
X018277Y024381D02*
X022392Y024381D01*
X022431Y024283D02*
X018326Y024283D01*
X018326Y024184D02*
X022505Y024184D01*
X022550Y024086D02*
X018326Y024086D01*
X018326Y023987D02*
X022550Y023987D01*
X022550Y023889D02*
X018326Y023889D01*
X018240Y023790D02*
X022550Y023790D01*
X022550Y023692D02*
X018216Y023692D01*
X018301Y023593D02*
X022550Y023593D01*
X022550Y023495D02*
X018306Y023495D01*
X018306Y023298D02*
X022550Y023298D01*
X022550Y023396D02*
X017949Y023396D01*
X017949Y023495D02*
X017891Y023495D01*
X017891Y023593D02*
X017949Y023593D01*
X017949Y023692D02*
X017891Y023692D01*
X017920Y024104D02*
X017920Y024730D01*
X017581Y024874D02*
X016835Y024874D01*
X016933Y024972D02*
X017641Y024972D01*
X017552Y024775D02*
X015586Y024775D01*
X015520Y024677D02*
X017552Y024677D01*
X017584Y024578D02*
X015520Y024578D01*
X015520Y024480D02*
X017649Y024480D01*
X017563Y024381D02*
X015520Y024381D01*
X015520Y024283D02*
X017514Y024283D01*
X017514Y024184D02*
X015520Y024184D01*
X015520Y024086D02*
X017514Y024086D01*
X017514Y023987D02*
X015520Y023987D01*
X015080Y023987D02*
X015018Y023987D01*
X015018Y023889D02*
X015080Y023889D01*
X015078Y023790D02*
X015042Y023790D01*
X015080Y024086D02*
X014993Y024086D01*
X014937Y024184D02*
X015080Y024184D01*
X015080Y024283D02*
X014810Y024283D01*
X015080Y024381D02*
X013390Y024381D01*
X013390Y024283D02*
X014490Y024283D01*
X014363Y024184D02*
X013390Y024184D01*
X013390Y024086D02*
X013824Y024086D01*
X013505Y023987D02*
X013390Y023987D01*
X013390Y023889D02*
X013415Y023889D01*
X013415Y023790D02*
X013390Y023790D01*
X013390Y023692D02*
X013415Y023692D01*
X012810Y023789D02*
X012720Y023879D01*
X012577Y023938D01*
X012423Y023938D01*
X012280Y023879D01*
X012171Y023770D01*
X012112Y023627D01*
X012112Y023473D01*
X012171Y023330D01*
X012227Y023274D01*
X012213Y023260D01*
X011623Y023260D01*
X011635Y023272D01*
X011710Y023453D01*
X011710Y023647D01*
X011635Y023828D01*
X011498Y023965D01*
X011317Y024040D01*
X010483Y024040D01*
X010302Y023965D01*
X010165Y023828D01*
X010090Y023647D01*
X010090Y023453D01*
X010165Y023272D01*
X010177Y023260D01*
X008683Y023260D01*
X008679Y023270D01*
X008570Y023379D01*
X008427Y023438D01*
X008273Y023438D01*
X008130Y023379D01*
X008021Y023270D01*
X007962Y023127D01*
X007962Y022973D01*
X008021Y022830D01*
X008130Y022721D01*
X008273Y022662D01*
X008427Y022662D01*
X008570Y022721D01*
X008679Y022830D01*
X008683Y022840D01*
X010277Y022840D01*
X010165Y022728D01*
X010090Y022547D01*
X010090Y022353D01*
X010165Y022172D01*
X010302Y022035D01*
X010483Y021960D01*
X011317Y021960D01*
X011498Y022035D01*
X011635Y022172D01*
X011710Y022353D01*
X011710Y022547D01*
X011635Y022728D01*
X011523Y022840D01*
X012387Y022840D01*
X012510Y022963D01*
X012710Y023163D01*
X012710Y023217D01*
X012720Y023221D01*
X012810Y023311D01*
X012810Y019570D01*
X012751Y019512D01*
X012751Y019609D01*
X012652Y019708D01*
X011448Y019708D01*
X011349Y019609D01*
X011349Y019474D01*
X011129Y019474D01*
X011120Y019498D01*
X010964Y019654D01*
X010760Y019738D01*
X010540Y019738D01*
X010336Y019654D01*
X010180Y019498D01*
X010096Y019294D01*
X010096Y019074D01*
X010180Y018871D01*
X010336Y018715D01*
X010540Y018630D01*
X010760Y018630D01*
X010964Y018715D01*
X011120Y018871D01*
X011129Y018894D01*
X011349Y018894D01*
X011349Y018759D01*
X011448Y018660D01*
X011760Y018660D01*
X011760Y018532D01*
X011743Y018532D01*
X011644Y018432D01*
X011644Y017976D01*
X011743Y017877D01*
X012357Y017877D01*
X012456Y017976D01*
X012456Y018432D01*
X012357Y018532D01*
X012340Y018532D01*
X012340Y018660D01*
X012652Y018660D01*
X012751Y018759D01*
X012751Y018894D01*
X012892Y018894D01*
X012999Y018938D01*
X013264Y019204D01*
X013346Y019286D01*
X013390Y019392D01*
X013390Y028730D01*
X013820Y029160D01*
X016908Y029160D01*
X017014Y029204D01*
X017764Y029954D01*
X017846Y030036D01*
X017890Y030142D01*
X017890Y033580D01*
X018070Y033760D01*
X019791Y033760D01*
X019830Y033721D01*
X019973Y033662D01*
X020127Y033662D01*
X020270Y033721D01*
X020379Y033830D01*
X020438Y033973D01*
X020438Y034127D01*
X020379Y034270D01*
X020270Y034379D01*
X020127Y034438D01*
X019973Y034438D01*
X019830Y034379D01*
X019791Y034340D01*
X017892Y034340D01*
X017786Y034296D01*
X017704Y034214D01*
X017354Y033864D01*
X017310Y033758D01*
X017310Y030320D01*
X016730Y029740D01*
X013642Y029740D01*
X013536Y029696D01*
X013454Y029614D01*
X012854Y029014D01*
X012810Y028908D01*
X012810Y023789D01*
X012809Y023790D02*
X012810Y023790D01*
X012810Y023889D02*
X012697Y023889D01*
X012810Y023987D02*
X011445Y023987D01*
X011574Y023889D02*
X012303Y023889D01*
X012191Y023790D02*
X011651Y023790D01*
X011692Y023692D02*
X012139Y023692D01*
X012112Y023593D02*
X011710Y023593D01*
X011710Y023495D02*
X012112Y023495D01*
X012144Y023396D02*
X011687Y023396D01*
X011646Y023298D02*
X012204Y023298D01*
X012549Y023002D02*
X012810Y023002D01*
X012810Y022904D02*
X012451Y022904D01*
X012648Y023101D02*
X012810Y023101D01*
X012810Y023199D02*
X012710Y023199D01*
X012796Y023298D02*
X012810Y023298D01*
X012810Y022805D02*
X011558Y022805D01*
X011644Y022707D02*
X012810Y022707D01*
X012810Y022608D02*
X011685Y022608D01*
X011710Y022510D02*
X012810Y022510D01*
X012810Y022411D02*
X011710Y022411D01*
X011693Y022313D02*
X012810Y022313D01*
X012810Y022214D02*
X011653Y022214D01*
X011579Y022116D02*
X012810Y022116D01*
X012810Y022017D02*
X011455Y022017D01*
X011448Y021440D02*
X011349Y021341D01*
X011349Y021190D01*
X011241Y021190D01*
X011197Y021233D01*
X010808Y021233D01*
X010709Y021134D01*
X010709Y020666D01*
X010808Y020567D01*
X011197Y020567D01*
X011241Y020610D01*
X011349Y020610D01*
X011349Y020491D01*
X011448Y020392D01*
X012652Y020392D01*
X012751Y020491D01*
X012751Y021341D01*
X012652Y021440D01*
X011448Y021440D01*
X011434Y021426D02*
X007440Y021426D01*
X007440Y021328D02*
X011349Y021328D01*
X011349Y021229D02*
X011202Y021229D01*
X010804Y021229D02*
X010296Y021229D01*
X010391Y021131D02*
X010709Y021131D01*
X010709Y021032D02*
X010391Y021032D01*
X010391Y020934D02*
X010709Y020934D01*
X010709Y020835D02*
X010391Y020835D01*
X010391Y020737D02*
X010709Y020737D01*
X010737Y020638D02*
X010363Y020638D01*
X009898Y021229D02*
X007481Y021229D01*
X007582Y021722D02*
X012810Y021722D01*
X012810Y021820D02*
X007680Y021820D01*
X007759Y021919D02*
X012810Y021919D01*
X012810Y021426D02*
X012666Y021426D01*
X012751Y021328D02*
X012810Y021328D01*
X012810Y021229D02*
X012751Y021229D01*
X012751Y021131D02*
X012810Y021131D01*
X012810Y021032D02*
X012751Y021032D01*
X012751Y020934D02*
X012810Y020934D01*
X012810Y020835D02*
X012751Y020835D01*
X012751Y020737D02*
X012810Y020737D01*
X012810Y020638D02*
X012751Y020638D01*
X012751Y020540D02*
X012810Y020540D01*
X012810Y020441D02*
X012701Y020441D01*
X012810Y020343D02*
X006970Y020343D01*
X006970Y020441D02*
X011399Y020441D01*
X011349Y020540D02*
X006939Y020540D01*
X006875Y020638D02*
X007275Y020638D01*
X007153Y020737D02*
X006777Y020737D01*
X006770Y020835D02*
X007055Y020835D01*
X006956Y020934D02*
X006770Y020934D01*
X006770Y021032D02*
X006885Y021032D01*
X006860Y021131D02*
X006770Y021131D01*
X006770Y021229D02*
X006860Y021229D01*
X006860Y021328D02*
X006770Y021328D01*
X006770Y021426D02*
X006825Y021426D01*
X007790Y022017D02*
X010345Y022017D01*
X010221Y022116D02*
X007790Y022116D01*
X007790Y022214D02*
X010147Y022214D01*
X010107Y022313D02*
X007790Y022313D01*
X007790Y022411D02*
X010090Y022411D01*
X010090Y022510D02*
X007790Y022510D01*
X007790Y022608D02*
X010115Y022608D01*
X010156Y022707D02*
X008535Y022707D01*
X008654Y022805D02*
X010242Y022805D01*
X010154Y023298D02*
X008651Y023298D01*
X008529Y023396D02*
X010113Y023396D01*
X010090Y023495D02*
X007790Y023495D01*
X007790Y023593D02*
X010090Y023593D01*
X010108Y023692D02*
X007790Y023692D01*
X007790Y023790D02*
X010149Y023790D01*
X010226Y023889D02*
X007790Y023889D01*
X007790Y023987D02*
X010355Y023987D01*
X009828Y024480D02*
X012810Y024480D01*
X012810Y024578D02*
X009870Y024578D01*
X009888Y024677D02*
X012810Y024677D01*
X012810Y024775D02*
X009888Y024775D01*
X009848Y024874D02*
X012810Y024874D01*
X012810Y024972D02*
X009790Y024972D01*
X009790Y025071D02*
X010336Y025071D01*
X010302Y025085D02*
X010483Y025010D01*
X011317Y025010D01*
X011498Y025085D01*
X011635Y025222D01*
X011710Y025403D01*
X011710Y025597D01*
X011635Y025778D01*
X011498Y025915D01*
X011317Y025990D01*
X010483Y025990D01*
X010302Y025915D01*
X010165Y025778D01*
X010090Y025597D01*
X010090Y025403D01*
X010165Y025222D01*
X010302Y025085D01*
X010218Y025169D02*
X009790Y025169D01*
X009790Y025268D02*
X010146Y025268D01*
X010105Y025366D02*
X009790Y025366D01*
X009790Y025465D02*
X010090Y025465D01*
X010090Y025563D02*
X009790Y025563D01*
X009790Y025662D02*
X010117Y025662D01*
X010157Y025760D02*
X009790Y025760D01*
X009790Y025859D02*
X010246Y025859D01*
X010403Y025957D02*
X009790Y025957D01*
X009790Y026056D02*
X012810Y026056D01*
X012810Y026154D02*
X011424Y026154D01*
X011498Y026185D02*
X011635Y026322D01*
X011710Y026503D01*
X011710Y026697D01*
X011635Y026878D01*
X011498Y027015D01*
X011317Y027090D01*
X010483Y027090D01*
X010302Y027015D01*
X010165Y026878D01*
X010090Y026697D01*
X010090Y026503D01*
X010165Y026322D01*
X010302Y026185D01*
X010483Y026110D01*
X011317Y026110D01*
X011498Y026185D01*
X011566Y026253D02*
X012810Y026253D01*
X012810Y026351D02*
X011647Y026351D01*
X011688Y026450D02*
X012810Y026450D01*
X012810Y026548D02*
X011710Y026548D01*
X011710Y026647D02*
X012810Y026647D01*
X012810Y026745D02*
X011690Y026745D01*
X011649Y026844D02*
X012810Y026844D01*
X012810Y026942D02*
X011571Y026942D01*
X011437Y027041D02*
X012810Y027041D01*
X012810Y027139D02*
X009790Y027139D01*
X009790Y027041D02*
X010363Y027041D01*
X010229Y026942D02*
X009790Y026942D01*
X009790Y026844D02*
X010151Y026844D01*
X010110Y026745D02*
X009790Y026745D01*
X009790Y026647D02*
X010090Y026647D01*
X010090Y026548D02*
X009790Y026548D01*
X009790Y026450D02*
X010112Y026450D01*
X010153Y026351D02*
X009790Y026351D01*
X009790Y026253D02*
X010234Y026253D01*
X010376Y026154D02*
X009790Y026154D01*
X009790Y027238D02*
X012810Y027238D01*
X012810Y027336D02*
X009790Y027336D01*
X009790Y027435D02*
X012810Y027435D01*
X012810Y027533D02*
X009790Y027533D01*
X009790Y027632D02*
X012810Y027632D01*
X012810Y027730D02*
X009790Y027730D01*
X009790Y027829D02*
X012810Y027829D01*
X012810Y027927D02*
X009790Y027927D01*
X009790Y028026D02*
X012810Y028026D01*
X012810Y028124D02*
X009790Y028124D01*
X009790Y028223D02*
X012810Y028223D01*
X012810Y028321D02*
X009790Y028321D01*
X009790Y028420D02*
X012810Y028420D01*
X012810Y028518D02*
X009790Y028518D01*
X009790Y028617D02*
X012810Y028617D01*
X012810Y028715D02*
X009790Y028715D01*
X009790Y028814D02*
X012810Y028814D01*
X012812Y028912D02*
X009790Y028912D01*
X009790Y029011D02*
X012853Y029011D01*
X012949Y029109D02*
X009790Y029109D01*
X009790Y029208D02*
X013047Y029208D01*
X013146Y029306D02*
X009790Y029306D01*
X009790Y029405D02*
X013244Y029405D01*
X013343Y029503D02*
X009790Y029503D01*
X009790Y029602D02*
X013441Y029602D01*
X013546Y029700D02*
X009790Y029700D01*
X009859Y029799D02*
X016788Y029799D01*
X016887Y029897D02*
X009957Y029897D01*
X010056Y029996D02*
X016985Y029996D01*
X017084Y030094D02*
X016098Y030094D01*
X016196Y030193D02*
X017182Y030193D01*
X017281Y030291D02*
X016295Y030291D01*
X016346Y030390D02*
X017310Y030390D01*
X017310Y030488D02*
X016350Y030488D01*
X016350Y030587D02*
X017310Y030587D01*
X017310Y030685D02*
X016350Y030685D01*
X016350Y030784D02*
X017310Y030784D01*
X017310Y030882D02*
X016350Y030882D01*
X016350Y030981D02*
X017310Y030981D01*
X017310Y031079D02*
X016350Y031079D01*
X016350Y031178D02*
X017310Y031178D01*
X017310Y031276D02*
X016350Y031276D01*
X016350Y031375D02*
X017310Y031375D01*
X017310Y031473D02*
X016350Y031473D01*
X016350Y031572D02*
X017310Y031572D01*
X017310Y031670D02*
X016350Y031670D01*
X016350Y031769D02*
X017310Y031769D01*
X017310Y031867D02*
X016350Y031867D01*
X016350Y031966D02*
X017310Y031966D01*
X017310Y032064D02*
X016350Y032064D01*
X016350Y032163D02*
X017310Y032163D01*
X017310Y032261D02*
X016350Y032261D01*
X016350Y032360D02*
X017310Y032360D01*
X017310Y032458D02*
X016350Y032458D01*
X016350Y032557D02*
X017310Y032557D01*
X017310Y032655D02*
X016350Y032655D01*
X016350Y032754D02*
X017310Y032754D01*
X017310Y032852D02*
X016350Y032852D01*
X016329Y032951D02*
X017310Y032951D01*
X017310Y033049D02*
X016254Y033049D01*
X016156Y033148D02*
X017310Y033148D01*
X017310Y033246D02*
X016057Y033246D01*
X015959Y033345D02*
X017310Y033345D01*
X017310Y033443D02*
X015860Y033443D01*
X017310Y033542D02*
X005770Y033542D01*
X005770Y033443D02*
X013940Y033443D01*
X013841Y033345D02*
X005770Y033345D01*
X005770Y033246D02*
X010143Y033246D01*
X010044Y033148D02*
X005770Y033148D01*
X005770Y033049D02*
X009970Y033049D01*
X009950Y032951D02*
X005861Y032951D01*
X005959Y032852D02*
X009950Y032852D01*
X009950Y032754D02*
X006058Y032754D01*
X006156Y032655D02*
X009950Y032655D01*
X009950Y032557D02*
X006255Y032557D01*
X006353Y032458D02*
X009950Y032458D01*
X009950Y032360D02*
X006452Y032360D01*
X006550Y032261D02*
X009950Y032261D01*
X008989Y032163D02*
X006649Y032163D01*
X006747Y032064D02*
X008891Y032064D01*
X008792Y031966D02*
X006846Y031966D01*
X006944Y031867D02*
X008694Y031867D01*
X008595Y031769D02*
X007043Y031769D01*
X007141Y031670D02*
X008526Y031670D01*
X008490Y031572D02*
X007240Y031572D01*
X007338Y031473D02*
X008490Y031473D01*
X008490Y031375D02*
X007437Y031375D01*
X007535Y031276D02*
X008490Y031276D01*
X008490Y031178D02*
X007634Y031178D01*
X007732Y031079D02*
X008490Y031079D01*
X008490Y030981D02*
X007831Y030981D01*
X007929Y030882D02*
X008490Y030882D01*
X008490Y030784D02*
X008028Y030784D01*
X008126Y030685D02*
X008490Y030685D01*
X008490Y030587D02*
X008170Y030587D01*
X008170Y030488D02*
X008490Y030488D01*
X008490Y030390D02*
X008170Y030390D01*
X008170Y030291D02*
X008490Y030291D01*
X008490Y030193D02*
X008170Y030193D01*
X008170Y030094D02*
X008490Y030094D01*
X008490Y029996D02*
X008170Y029996D01*
X008170Y029897D02*
X008490Y029897D01*
X008490Y029799D02*
X008170Y029799D01*
X008170Y029700D02*
X008490Y029700D01*
X008490Y029602D02*
X008170Y029602D01*
X008170Y029503D02*
X008490Y029503D01*
X008490Y029405D02*
X008170Y029405D01*
X008170Y029306D02*
X008490Y029306D01*
X008490Y029208D02*
X008170Y029208D01*
X008170Y029109D02*
X008490Y029109D01*
X008490Y029011D02*
X008170Y029011D01*
X008170Y028912D02*
X008490Y028912D01*
X008490Y028814D02*
X008170Y028814D01*
X008170Y028715D02*
X008490Y028715D01*
X008490Y028617D02*
X008170Y028617D01*
X008170Y028518D02*
X008490Y028518D01*
X008490Y028420D02*
X008170Y028420D01*
X008170Y028321D02*
X008490Y028321D01*
X008490Y028223D02*
X008170Y028223D01*
X008375Y028124D02*
X008490Y028124D01*
X008490Y028026D02*
X008473Y028026D01*
X008150Y027800D02*
X007950Y028000D01*
X007950Y030550D01*
X005350Y033150D01*
X003100Y033150D01*
X003100Y032150D02*
X005800Y032150D01*
X007650Y030300D01*
X007650Y027300D01*
X007850Y027100D01*
X007693Y026745D02*
X007620Y026745D01*
X007620Y026647D02*
X007623Y026647D01*
X007400Y026500D02*
X007800Y026300D01*
X008158Y026450D02*
X008490Y026450D01*
X008490Y026548D02*
X008101Y026548D01*
X007977Y026647D02*
X008490Y026647D01*
X008490Y026745D02*
X008007Y026745D01*
X008142Y026844D02*
X008490Y026844D01*
X008490Y026942D02*
X008205Y026942D01*
X008238Y027041D02*
X008490Y027041D01*
X008490Y027139D02*
X008238Y027139D01*
X008213Y027238D02*
X008490Y027238D01*
X008490Y027336D02*
X008163Y027336D01*
X008282Y027435D02*
X008490Y027435D01*
X008490Y027533D02*
X008432Y027533D01*
X008490Y026351D02*
X008188Y026351D01*
X008188Y026253D02*
X008490Y026253D01*
X008490Y026154D02*
X008160Y026154D01*
X008104Y026056D02*
X008482Y026056D01*
X008384Y025957D02*
X007986Y025957D01*
X008285Y025859D02*
X005770Y025859D01*
X005770Y025957D02*
X007614Y025957D01*
X007496Y026056D02*
X005770Y026056D01*
X005770Y026154D02*
X007440Y026154D01*
X007403Y026253D02*
X005770Y026253D01*
X005770Y026351D02*
X007218Y026351D01*
X007180Y026450D02*
X005770Y026450D01*
X005770Y026548D02*
X007178Y026548D01*
X007180Y026647D02*
X005694Y026647D01*
X005770Y026745D02*
X007180Y026745D01*
X007180Y026844D02*
X005770Y026844D01*
X005770Y026942D02*
X007180Y026942D01*
X007400Y026500D02*
X007400Y030150D01*
X006400Y031150D01*
X003100Y031150D01*
X003100Y030150D02*
X006600Y030150D01*
X006656Y027533D02*
X005770Y027533D01*
X005770Y027435D02*
X006615Y027435D01*
X006612Y027336D02*
X005770Y027336D01*
X005770Y027238D02*
X006626Y027238D01*
X006667Y027139D02*
X005770Y027139D01*
X005770Y027041D02*
X006761Y027041D01*
X007107Y025760D02*
X005770Y025760D01*
X005702Y025662D02*
X007008Y025662D01*
X006910Y025563D02*
X005770Y025563D01*
X005770Y025465D02*
X006811Y025465D01*
X006713Y025366D02*
X005770Y025366D01*
X005770Y025268D02*
X006614Y025268D01*
X006516Y025169D02*
X005770Y025169D01*
X005770Y025071D02*
X006417Y025071D01*
X006319Y024972D02*
X005770Y024972D01*
X005770Y024874D02*
X006220Y024874D01*
X006122Y024775D02*
X005770Y024775D01*
X005717Y024677D02*
X006060Y024677D01*
X006030Y024578D02*
X005762Y024578D01*
X005770Y024480D02*
X006030Y024480D01*
X006030Y024381D02*
X005770Y024381D01*
X005770Y024283D02*
X006030Y024283D01*
X006030Y024184D02*
X005770Y024184D01*
X005770Y024086D02*
X006030Y024086D01*
X006030Y023987D02*
X005770Y023987D01*
X005770Y023889D02*
X006030Y023889D01*
X006030Y023790D02*
X005770Y023790D01*
X005732Y023692D02*
X006030Y023692D01*
X006030Y023593D02*
X005747Y023593D01*
X005770Y023495D02*
X006030Y023495D01*
X006030Y023396D02*
X005770Y023396D01*
X005770Y023298D02*
X006030Y023298D01*
X006030Y023199D02*
X005770Y023199D01*
X005770Y023101D02*
X006030Y023101D01*
X006030Y023002D02*
X005770Y023002D01*
X005770Y022904D02*
X006030Y022904D01*
X006030Y022805D02*
X005770Y022805D01*
X005747Y022707D02*
X006030Y022707D01*
X006030Y022608D02*
X005732Y022608D01*
X005770Y022510D02*
X006030Y022510D01*
X006030Y022411D02*
X005770Y022411D01*
X005770Y022313D02*
X006030Y022313D01*
X006030Y022214D02*
X005770Y022214D01*
X005770Y022116D02*
X006030Y022116D01*
X006030Y022017D02*
X005770Y022017D01*
X005770Y021919D02*
X006030Y021919D01*
X006030Y021820D02*
X005770Y021820D01*
X005762Y021722D02*
X006030Y021722D01*
X006030Y021623D02*
X005717Y021623D01*
X005770Y021525D02*
X006030Y021525D01*
X006030Y021426D02*
X005770Y021426D01*
X005770Y021328D02*
X006030Y021328D01*
X006030Y021229D02*
X005770Y021229D01*
X005770Y021131D02*
X006030Y021131D01*
X006030Y021032D02*
X005770Y021032D01*
X005770Y020934D02*
X006030Y020934D01*
X006030Y020835D02*
X005770Y020835D01*
X005770Y020737D02*
X006030Y020737D01*
X006030Y020638D02*
X005702Y020638D01*
X005770Y020540D02*
X006030Y020540D01*
X006061Y020441D02*
X005770Y020441D01*
X005770Y020343D02*
X006124Y020343D01*
X006223Y020244D02*
X005770Y020244D01*
X005770Y020146D02*
X006284Y020146D01*
X006380Y020047D02*
X005770Y020047D01*
X005770Y019949D02*
X012810Y019949D01*
X012810Y020047D02*
X006820Y020047D01*
X006916Y020146D02*
X012810Y020146D01*
X012810Y020244D02*
X006957Y020244D01*
X005770Y019850D02*
X012810Y019850D01*
X012810Y019752D02*
X005770Y019752D01*
X005693Y019653D02*
X010336Y019653D01*
X010237Y019555D02*
X005770Y019555D01*
X005770Y019456D02*
X010163Y019456D01*
X010122Y019358D02*
X005770Y019358D01*
X005770Y019259D02*
X010096Y019259D01*
X010096Y019161D02*
X005770Y019161D01*
X005770Y019062D02*
X010101Y019062D01*
X010142Y018964D02*
X005770Y018964D01*
X005770Y018865D02*
X010186Y018865D01*
X010284Y018767D02*
X005770Y018767D01*
X005708Y018668D02*
X010449Y018668D01*
X010851Y018668D02*
X011440Y018668D01*
X011349Y018767D02*
X011016Y018767D01*
X011114Y018865D02*
X011349Y018865D01*
X011683Y018471D02*
X005770Y018471D01*
X005770Y018373D02*
X011644Y018373D01*
X011644Y018274D02*
X005770Y018274D01*
X005770Y018176D02*
X011644Y018176D01*
X011644Y018077D02*
X005770Y018077D01*
X005770Y017979D02*
X011644Y017979D01*
X011740Y017880D02*
X005770Y017880D01*
X005770Y017782D02*
X011736Y017782D01*
X011722Y017773D02*
X011694Y017745D01*
X011674Y017711D01*
X011664Y017673D01*
X011664Y017524D01*
X012021Y017524D01*
X012021Y017467D01*
X011664Y017467D01*
X011664Y017318D01*
X011674Y017280D01*
X011694Y017246D01*
X011722Y017218D01*
X011756Y017198D01*
X011794Y017188D01*
X012021Y017188D01*
X012021Y017467D01*
X012079Y017467D01*
X012079Y017524D01*
X012436Y017524D01*
X012436Y017673D01*
X012426Y017711D01*
X012406Y017745D01*
X012378Y017773D01*
X012344Y017793D01*
X012306Y017803D01*
X012079Y017803D01*
X012079Y017524D01*
X012021Y017524D01*
X012021Y017803D01*
X011794Y017803D01*
X011756Y017793D01*
X011722Y017773D01*
X011666Y017683D02*
X011159Y017683D01*
X011154Y017692D02*
X011126Y017720D01*
X011092Y017739D01*
X011054Y017750D01*
X010700Y017750D01*
X010700Y017266D01*
X010600Y017266D01*
X010600Y017750D01*
X010246Y017750D01*
X010208Y017739D01*
X010174Y017720D01*
X010146Y017692D01*
X010126Y017658D01*
X010116Y017619D01*
X010116Y017266D01*
X010600Y017266D01*
X010600Y017166D01*
X010116Y017166D01*
X010116Y016812D01*
X010126Y016774D01*
X010146Y016740D01*
X010174Y016712D01*
X010208Y016692D01*
X010246Y016682D01*
X010600Y016682D01*
X010600Y017166D01*
X010700Y017166D01*
X010700Y017266D01*
X011184Y017266D01*
X011184Y017619D01*
X011174Y017658D01*
X011154Y017692D01*
X011184Y017585D02*
X011664Y017585D01*
X011664Y017388D02*
X011184Y017388D01*
X011184Y017486D02*
X012021Y017486D01*
X012079Y017486D02*
X016910Y017486D01*
X016910Y017388D02*
X012436Y017388D01*
X012436Y017318D02*
X012436Y017467D01*
X012079Y017467D01*
X012079Y017188D01*
X012306Y017188D01*
X012344Y017198D01*
X012378Y017218D01*
X012406Y017246D01*
X012426Y017280D01*
X012436Y017318D01*
X012428Y017289D02*
X016910Y017289D01*
X016910Y017191D02*
X012315Y017191D01*
X012079Y017191D02*
X012021Y017191D01*
X012021Y017289D02*
X012079Y017289D01*
X012079Y017388D02*
X012021Y017388D01*
X012021Y017585D02*
X012079Y017585D01*
X012079Y017683D02*
X012021Y017683D01*
X012021Y017782D02*
X012079Y017782D01*
X012364Y017782D02*
X016910Y017782D01*
X016910Y017880D02*
X012360Y017880D01*
X012456Y017979D02*
X016910Y017979D01*
X016910Y018077D02*
X012456Y018077D01*
X012456Y018176D02*
X016910Y018176D01*
X016910Y018274D02*
X012456Y018274D01*
X012456Y018373D02*
X016910Y018373D01*
X016910Y018471D02*
X012417Y018471D01*
X012340Y018570D02*
X016910Y018570D01*
X016910Y018668D02*
X012660Y018668D01*
X012751Y018767D02*
X016910Y018767D01*
X016910Y018865D02*
X012751Y018865D01*
X013024Y018964D02*
X016910Y018964D01*
X016910Y019062D02*
X013122Y019062D01*
X013221Y019161D02*
X016910Y019161D01*
X016910Y019259D02*
X013319Y019259D01*
X013376Y019358D02*
X016910Y019358D01*
X016910Y019456D02*
X013390Y019456D01*
X013390Y019555D02*
X016910Y019555D01*
X016910Y019653D02*
X013390Y019653D01*
X013390Y019752D02*
X016910Y019752D01*
X016910Y019850D02*
X013390Y019850D01*
X013390Y019949D02*
X016910Y019949D01*
X016910Y020047D02*
X013390Y020047D01*
X013390Y020146D02*
X016910Y020146D01*
X016910Y020244D02*
X013390Y020244D01*
X013390Y020343D02*
X016910Y020343D01*
X016910Y020441D02*
X013390Y020441D01*
X013390Y020540D02*
X016910Y020540D01*
X016910Y020638D02*
X013390Y020638D01*
X013390Y020737D02*
X016910Y020737D01*
X016910Y020835D02*
X013390Y020835D01*
X013390Y020934D02*
X016910Y020934D01*
X016910Y021032D02*
X013390Y021032D01*
X013390Y021722D02*
X015198Y021722D01*
X015198Y021820D02*
X013390Y021820D01*
X013390Y022116D02*
X013445Y022116D01*
X013435Y022214D02*
X013390Y022214D01*
X013390Y022313D02*
X013435Y022313D01*
X013390Y022411D02*
X013850Y022411D01*
X013850Y022313D02*
X013950Y022313D01*
X013950Y022411D02*
X015308Y022411D01*
X016066Y022805D02*
X016621Y022805D01*
X016356Y022707D02*
X016224Y022707D01*
X015816Y023199D02*
X015733Y023199D01*
X015733Y023298D02*
X015807Y023298D01*
X015807Y023396D02*
X015733Y023396D01*
X016086Y023593D02*
X016143Y023593D01*
X016143Y023692D02*
X016086Y023692D01*
X016086Y023790D02*
X016143Y023790D01*
X015300Y023550D02*
X015200Y023450D01*
X014900Y023450D01*
X015080Y024480D02*
X013390Y024480D01*
X013390Y024578D02*
X015080Y024578D01*
X015080Y024677D02*
X013390Y024677D01*
X013390Y024775D02*
X015080Y024775D01*
X015080Y024874D02*
X013390Y024874D01*
X013390Y024972D02*
X015161Y024972D01*
X015259Y025071D02*
X013390Y025071D01*
X013390Y025169D02*
X015358Y025169D01*
X015456Y025268D02*
X013390Y025268D01*
X013390Y025366D02*
X016705Y025366D01*
X016750Y025465D02*
X013390Y025465D01*
X013390Y025563D02*
X016598Y025563D01*
X016554Y025662D02*
X013390Y025662D01*
X013390Y025760D02*
X016554Y025760D01*
X016554Y025859D02*
X013390Y025859D01*
X013390Y025957D02*
X016554Y025957D01*
X016554Y026056D02*
X013390Y026056D01*
X013390Y026154D02*
X016644Y026154D01*
X016666Y026247D02*
X016704Y026237D01*
X016931Y026237D01*
X016931Y026516D01*
X016574Y026516D01*
X016574Y026367D01*
X016584Y026329D01*
X016604Y026295D01*
X016632Y026267D01*
X016666Y026247D01*
X016656Y026253D02*
X013390Y026253D01*
X013390Y026351D02*
X016578Y026351D01*
X016574Y026450D02*
X013390Y026450D01*
X013390Y026548D02*
X016931Y026548D01*
X016931Y026573D02*
X016931Y026516D01*
X016989Y026516D01*
X016989Y026573D01*
X017346Y026573D01*
X017346Y026722D01*
X017336Y026760D01*
X017316Y026794D01*
X017288Y026822D01*
X017254Y026842D01*
X017216Y026852D01*
X016989Y026852D01*
X016989Y026573D01*
X016931Y026573D01*
X016574Y026573D01*
X016574Y026722D01*
X016584Y026760D01*
X016604Y026794D01*
X016632Y026822D01*
X016666Y026842D01*
X016704Y026852D01*
X016931Y026852D01*
X016931Y026573D01*
X016989Y026548D02*
X018299Y026548D01*
X018509Y026844D02*
X017247Y026844D01*
X017340Y026745D02*
X024158Y026745D01*
X024256Y026647D02*
X017346Y026647D01*
X017346Y026516D02*
X016989Y026516D01*
X016989Y026237D01*
X017216Y026237D01*
X017254Y026247D01*
X017288Y026267D01*
X017316Y026295D01*
X017336Y026329D01*
X017346Y026367D01*
X017346Y026516D01*
X017346Y026450D02*
X017596Y026450D01*
X017498Y026351D02*
X017342Y026351D01*
X017399Y026253D02*
X017264Y026253D01*
X017276Y026154D02*
X017301Y026154D01*
X016989Y026253D02*
X016931Y026253D01*
X016931Y026351D02*
X016989Y026351D01*
X016989Y026450D02*
X016931Y026450D01*
X016931Y026647D02*
X016989Y026647D01*
X016989Y026745D02*
X016931Y026745D01*
X016931Y026844D02*
X016989Y026844D01*
X016673Y026844D02*
X013390Y026844D01*
X013390Y026942D02*
X018411Y026942D01*
X018312Y027041D02*
X013390Y027041D01*
X013390Y027139D02*
X018214Y027139D01*
X018190Y027238D02*
X013390Y027238D01*
X013390Y027336D02*
X018190Y027336D01*
X018190Y027435D02*
X013390Y027435D01*
X013390Y027533D02*
X018190Y027533D01*
X018190Y027632D02*
X013390Y027632D01*
X013390Y027730D02*
X018190Y027730D01*
X018190Y027829D02*
X013390Y027829D01*
X013390Y027927D02*
X018190Y027927D01*
X018190Y028026D02*
X013390Y028026D01*
X013390Y028124D02*
X018190Y028124D01*
X018190Y028223D02*
X013390Y028223D01*
X013390Y028321D02*
X018190Y028321D01*
X018190Y028420D02*
X013390Y028420D01*
X013390Y028518D02*
X018190Y028518D01*
X018190Y028617D02*
X013390Y028617D01*
X013390Y028715D02*
X018190Y028715D01*
X018190Y028814D02*
X013474Y028814D01*
X013572Y028912D02*
X018190Y028912D01*
X018190Y029011D02*
X013671Y029011D01*
X013769Y029109D02*
X018190Y029109D01*
X018190Y029208D02*
X017018Y029208D01*
X017116Y029306D02*
X018190Y029306D01*
X018190Y029405D02*
X017215Y029405D01*
X017313Y029503D02*
X018190Y029503D01*
X018190Y029602D02*
X017412Y029602D01*
X017510Y029700D02*
X018190Y029700D01*
X018190Y029799D02*
X017609Y029799D01*
X017707Y029897D02*
X018190Y029897D01*
X018190Y029996D02*
X017806Y029996D01*
X017870Y030094D02*
X018190Y030094D01*
X018190Y030193D02*
X017890Y030193D01*
X017890Y030291D02*
X018190Y030291D01*
X018190Y030390D02*
X017890Y030390D01*
X017890Y030488D02*
X018190Y030488D01*
X018190Y030587D02*
X017890Y030587D01*
X017890Y030685D02*
X018190Y030685D01*
X018190Y030784D02*
X017890Y030784D01*
X017890Y030882D02*
X018190Y030882D01*
X018190Y030981D02*
X017890Y030981D01*
X017890Y031079D02*
X018190Y031079D01*
X018190Y031178D02*
X017890Y031178D01*
X017890Y031276D02*
X018190Y031276D01*
X018190Y031375D02*
X017890Y031375D01*
X017890Y031473D02*
X018190Y031473D01*
X018190Y031572D02*
X017890Y031572D01*
X017890Y031670D02*
X018190Y031670D01*
X018190Y031769D02*
X017890Y031769D01*
X017890Y031867D02*
X018190Y031867D01*
X018190Y031966D02*
X017890Y031966D01*
X017890Y032064D02*
X018190Y032064D01*
X018190Y032163D02*
X017890Y032163D01*
X017890Y032261D02*
X018190Y032261D01*
X018190Y032360D02*
X017890Y032360D01*
X017890Y032458D02*
X018190Y032458D01*
X018190Y032557D02*
X017890Y032557D01*
X017890Y032655D02*
X018190Y032655D01*
X018190Y032754D02*
X017890Y032754D01*
X017890Y032852D02*
X018190Y032852D01*
X018190Y032951D02*
X017890Y032951D01*
X017890Y033049D02*
X018190Y033049D01*
X018190Y033148D02*
X017890Y033148D01*
X017890Y033246D02*
X018190Y033246D01*
X018248Y033345D02*
X017890Y033345D01*
X017890Y033443D02*
X018346Y033443D01*
X018445Y033542D02*
X017890Y033542D01*
X017950Y033640D02*
X021843Y033640D01*
X021940Y033739D02*
X020287Y033739D01*
X020382Y033837D02*
X021940Y033837D01*
X021940Y033936D02*
X020423Y033936D01*
X020438Y034034D02*
X021940Y034034D01*
X021940Y034133D02*
X020436Y034133D01*
X020395Y034231D02*
X021940Y034231D01*
X021940Y034330D02*
X020319Y034330D01*
X020151Y034428D02*
X021940Y034428D01*
X021940Y034527D02*
X007120Y034527D01*
X007120Y034625D02*
X021978Y034625D01*
X022077Y034724D02*
X007120Y034724D01*
X007120Y034822D02*
X022175Y034822D01*
X022274Y034921D02*
X007120Y034921D01*
X007120Y035019D02*
X022998Y035019D01*
X023104Y035118D02*
X007120Y035118D01*
X007120Y035216D02*
X025245Y035216D01*
X025417Y035315D02*
X007120Y035315D01*
X007120Y035413D02*
X030805Y035413D01*
X030805Y035315D02*
X025583Y035315D01*
X025755Y035216D02*
X030805Y035216D01*
X030805Y035118D02*
X025829Y035118D01*
X025868Y035019D02*
X030805Y035019D01*
X030805Y034921D02*
X025868Y034921D01*
X025846Y034822D02*
X030805Y034822D01*
X030805Y034724D02*
X025795Y034724D01*
X025678Y034625D02*
X030805Y034625D01*
X030805Y034527D02*
X024074Y034527D01*
X024172Y034625D02*
X025322Y034625D01*
X025205Y034724D02*
X024271Y034724D01*
X023975Y034428D02*
X030805Y034428D01*
X030805Y034330D02*
X028385Y034330D01*
X028396Y034318D02*
X028368Y034346D01*
X028334Y034366D01*
X028296Y034376D01*
X027854Y034376D01*
X027854Y033804D01*
X027754Y033804D01*
X027754Y034376D01*
X027312Y034376D01*
X027274Y034366D01*
X027239Y034346D01*
X027211Y034318D01*
X027192Y034284D01*
X027181Y034246D01*
X027181Y033804D01*
X027754Y033804D01*
X027754Y033704D01*
X027181Y033704D01*
X027181Y033262D01*
X027191Y033226D01*
X027147Y033270D01*
X026922Y033363D01*
X026678Y033363D01*
X026453Y033270D01*
X026409Y033226D01*
X026419Y033262D01*
X026419Y033704D01*
X025846Y033704D01*
X025846Y033131D01*
X026288Y033131D01*
X026324Y033141D01*
X026280Y033097D01*
X026187Y032872D01*
X026187Y032628D01*
X026280Y032403D01*
X026324Y032359D01*
X026288Y032369D01*
X025846Y032369D01*
X025846Y031796D01*
X026419Y031796D01*
X026419Y032238D01*
X026409Y032274D01*
X026453Y032230D01*
X026678Y032137D01*
X026922Y032137D01*
X027147Y032230D01*
X027191Y032274D01*
X027181Y032238D01*
X027181Y031796D01*
X027754Y031796D01*
X027754Y031696D01*
X027854Y031696D01*
X027854Y031796D01*
X028426Y031796D01*
X028426Y032238D01*
X028416Y032276D01*
X028396Y032311D01*
X028368Y032339D01*
X028334Y032358D01*
X028296Y032369D01*
X027854Y032369D01*
X027854Y031796D01*
X027754Y031796D01*
X027754Y032369D01*
X027312Y032369D01*
X027276Y032359D01*
X027320Y032403D01*
X027413Y032628D01*
X027413Y032872D01*
X027320Y033097D01*
X027276Y033141D01*
X027312Y033131D01*
X027754Y033131D01*
X027754Y033704D01*
X027854Y033704D01*
X027854Y033804D01*
X028426Y033804D01*
X028426Y034246D01*
X028416Y034284D01*
X028396Y034318D01*
X028426Y034231D02*
X030805Y034231D01*
X030805Y034133D02*
X028426Y034133D01*
X028426Y034034D02*
X030805Y034034D01*
X030805Y033936D02*
X028426Y033936D01*
X028426Y033837D02*
X030805Y033837D01*
X030805Y033739D02*
X027854Y033739D01*
X027854Y033704D02*
X028426Y033704D01*
X028426Y033262D01*
X028416Y033224D01*
X028396Y033189D01*
X028368Y033161D01*
X028334Y033142D01*
X028296Y033131D01*
X027854Y033131D01*
X027854Y033704D01*
X027854Y033640D02*
X027754Y033640D01*
X027754Y033542D02*
X027854Y033542D01*
X027854Y033443D02*
X027754Y033443D01*
X027754Y033345D02*
X027854Y033345D01*
X027854Y033246D02*
X027754Y033246D01*
X027754Y033148D02*
X027854Y033148D01*
X027380Y032951D02*
X030805Y032951D01*
X030805Y033049D02*
X027340Y033049D01*
X027413Y032852D02*
X030805Y032852D01*
X030805Y032754D02*
X027413Y032754D01*
X027413Y032655D02*
X030805Y032655D01*
X030805Y032557D02*
X027383Y032557D01*
X027342Y032458D02*
X030805Y032458D01*
X030805Y032360D02*
X028329Y032360D01*
X028420Y032261D02*
X030805Y032261D01*
X030805Y032163D02*
X028426Y032163D01*
X028426Y032064D02*
X030805Y032064D01*
X030805Y031966D02*
X028426Y031966D01*
X028426Y031867D02*
X030805Y031867D01*
X030805Y031769D02*
X027854Y031769D01*
X027854Y031696D02*
X028426Y031696D01*
X028426Y031254D01*
X028416Y031216D01*
X028396Y031182D01*
X028368Y031154D01*
X028334Y031134D01*
X028296Y031124D01*
X027854Y031124D01*
X027854Y031696D01*
X027854Y031670D02*
X027754Y031670D01*
X027754Y031696D02*
X027754Y031124D01*
X027312Y031124D01*
X027274Y031134D01*
X027239Y031154D01*
X027211Y031182D01*
X027192Y031216D01*
X027181Y031254D01*
X027181Y031696D01*
X027754Y031696D01*
X027754Y031769D02*
X025846Y031769D01*
X025846Y031796D02*
X025846Y031696D01*
X025846Y031124D01*
X026288Y031124D01*
X026326Y031134D01*
X026361Y031154D01*
X026389Y031182D01*
X026408Y031216D01*
X026419Y031254D01*
X026419Y031696D01*
X025846Y031696D01*
X025746Y031696D01*
X025746Y031124D01*
X025304Y031124D01*
X025266Y031134D01*
X025232Y031154D01*
X025204Y031182D01*
X025184Y031216D01*
X025174Y031254D01*
X025174Y031696D01*
X025746Y031696D01*
X025746Y031796D01*
X025174Y031796D01*
X025174Y032238D01*
X025184Y032276D01*
X025204Y032311D01*
X025232Y032339D01*
X025266Y032358D01*
X025304Y032369D01*
X025746Y032369D01*
X025746Y031796D01*
X025846Y031796D01*
X025846Y031867D02*
X025746Y031867D01*
X025746Y031769D02*
X022359Y031769D01*
X022359Y031867D02*
X025174Y031867D01*
X025174Y031966D02*
X022359Y031966D01*
X022359Y032064D02*
X025174Y032064D01*
X025174Y032163D02*
X022359Y032163D01*
X022359Y032261D02*
X025180Y032261D01*
X025271Y032360D02*
X022359Y032360D01*
X022359Y032458D02*
X026258Y032458D01*
X026217Y032557D02*
X022359Y032557D01*
X022359Y032655D02*
X026187Y032655D01*
X026187Y032754D02*
X022359Y032754D01*
X022359Y032852D02*
X026187Y032852D01*
X026220Y032951D02*
X022359Y032951D01*
X022344Y033049D02*
X026260Y033049D01*
X026414Y033246D02*
X026429Y033246D01*
X026419Y033345D02*
X026634Y033345D01*
X026419Y033443D02*
X027181Y033443D01*
X027181Y033345D02*
X026966Y033345D01*
X027171Y033246D02*
X027186Y033246D01*
X027181Y033542D02*
X026419Y033542D01*
X026419Y033640D02*
X027181Y033640D01*
X027181Y033837D02*
X026419Y033837D01*
X026419Y033804D02*
X026419Y034246D01*
X026408Y034284D01*
X026389Y034318D01*
X026361Y034346D01*
X026326Y034366D01*
X026288Y034376D01*
X025846Y034376D01*
X025846Y033804D01*
X025746Y033804D01*
X025746Y034376D01*
X025304Y034376D01*
X025266Y034366D01*
X025232Y034346D01*
X025204Y034318D01*
X025184Y034284D01*
X025174Y034246D01*
X025174Y033804D01*
X025746Y033804D01*
X025746Y033704D01*
X025174Y033704D01*
X025174Y033262D01*
X025184Y033224D01*
X025204Y033189D01*
X025232Y033161D01*
X025266Y033142D01*
X025304Y033131D01*
X025746Y033131D01*
X025746Y033704D01*
X025846Y033704D01*
X025846Y033804D01*
X026419Y033804D01*
X026419Y033936D02*
X027181Y033936D01*
X027181Y034034D02*
X026419Y034034D01*
X026419Y034133D02*
X027181Y034133D01*
X027181Y034231D02*
X026419Y034231D01*
X026377Y034330D02*
X027223Y034330D01*
X027754Y034330D02*
X027854Y034330D01*
X027854Y034231D02*
X027754Y034231D01*
X027754Y034133D02*
X027854Y034133D01*
X027854Y034034D02*
X027754Y034034D01*
X027754Y033936D02*
X027854Y033936D01*
X027854Y033837D02*
X027754Y033837D01*
X027754Y033739D02*
X025846Y033739D01*
X025846Y033837D02*
X025746Y033837D01*
X025746Y033739D02*
X022610Y033739D01*
X022610Y033837D02*
X025174Y033837D01*
X025174Y033936D02*
X022610Y033936D01*
X022610Y034034D02*
X025174Y034034D01*
X025174Y034133D02*
X022680Y034133D01*
X022610Y033640D02*
X025174Y033640D01*
X025174Y033542D02*
X022610Y033542D01*
X022590Y033443D02*
X025174Y033443D01*
X025174Y033345D02*
X022492Y033345D01*
X022393Y033246D02*
X025178Y033246D01*
X025256Y033148D02*
X022295Y033148D01*
X022359Y031670D02*
X025174Y031670D01*
X025174Y031572D02*
X022359Y031572D01*
X022359Y031473D02*
X025174Y031473D01*
X025174Y031375D02*
X022359Y031375D01*
X022359Y031276D02*
X025174Y031276D01*
X025208Y031178D02*
X022359Y031178D01*
X022355Y031079D02*
X030805Y031079D01*
X030805Y030981D02*
X018860Y030981D01*
X018860Y031079D02*
X019345Y031079D01*
X019341Y031178D02*
X018860Y031178D01*
X018860Y031276D02*
X019341Y031276D01*
X019341Y031375D02*
X018860Y031375D01*
X018860Y031473D02*
X019341Y031473D01*
X019341Y031572D02*
X018860Y031572D01*
X018860Y031670D02*
X019341Y031670D01*
X019341Y031769D02*
X018860Y031769D01*
X018860Y031867D02*
X019341Y031867D01*
X019341Y031966D02*
X018860Y031966D01*
X018860Y032064D02*
X019341Y032064D01*
X019341Y032163D02*
X018860Y032163D01*
X018860Y032261D02*
X019341Y032261D01*
X019341Y032360D02*
X018860Y032360D01*
X018860Y032458D02*
X019341Y032458D01*
X019341Y032557D02*
X018860Y032557D01*
X018860Y032655D02*
X019341Y032655D01*
X019341Y032754D02*
X018860Y032754D01*
X018860Y032852D02*
X019341Y032852D01*
X019813Y033739D02*
X018049Y033739D01*
X017622Y034133D02*
X007120Y034133D01*
X007120Y034231D02*
X017721Y034231D01*
X017867Y034330D02*
X007120Y034330D01*
X007120Y034428D02*
X019949Y034428D01*
X017524Y034034D02*
X007120Y034034D01*
X007077Y033936D02*
X017425Y033936D01*
X017343Y033837D02*
X006978Y033837D01*
X006880Y033739D02*
X017310Y033739D01*
X017310Y033640D02*
X005700Y033640D01*
X005750Y033890D02*
X005750Y034100D01*
X003150Y034100D01*
X003150Y034200D01*
X005750Y034200D01*
X005750Y034520D01*
X005740Y034558D01*
X005720Y034592D01*
X005692Y034620D01*
X005658Y034640D01*
X005620Y034650D01*
X005658Y034660D01*
X005692Y034680D01*
X005720Y034708D01*
X005740Y034742D01*
X005750Y034780D01*
X005750Y035100D01*
X003150Y035100D01*
X003150Y035200D01*
X003050Y035200D01*
X003050Y035650D01*
X002540Y035650D01*
X006660Y035650D01*
X006900Y035410D01*
X006900Y034070D01*
X006720Y033890D01*
X005750Y033890D01*
X005750Y033936D02*
X006766Y033936D01*
X006864Y034034D02*
X005750Y034034D01*
X005750Y034231D02*
X006900Y034231D01*
X006900Y034133D02*
X003150Y034133D01*
X003150Y034200D02*
X003050Y034200D01*
X003050Y034650D01*
X003050Y035100D01*
X003150Y035100D01*
X003150Y034650D01*
X005620Y034650D01*
X003150Y034650D01*
X003150Y034200D01*
X003150Y034231D02*
X003050Y034231D01*
X003050Y034330D02*
X003150Y034330D01*
X003150Y034428D02*
X003050Y034428D01*
X003050Y034527D02*
X003150Y034527D01*
X003150Y034625D02*
X003050Y034625D01*
X003050Y034650D02*
X002180Y034650D01*
X003050Y034650D01*
X003050Y034724D02*
X003150Y034724D01*
X003150Y034822D02*
X003050Y034822D01*
X003050Y034921D02*
X003150Y034921D01*
X003150Y035019D02*
X003050Y035019D01*
X003150Y035118D02*
X006900Y035118D01*
X006900Y035216D02*
X005750Y035216D01*
X005750Y035200D02*
X005750Y035520D01*
X005740Y035558D01*
X005720Y035592D01*
X005692Y035620D01*
X005658Y035640D01*
X005620Y035650D01*
X003150Y035650D01*
X003150Y035200D01*
X005750Y035200D01*
X005750Y035315D02*
X006900Y035315D01*
X006897Y035413D02*
X005750Y035413D01*
X005750Y035512D02*
X006798Y035512D01*
X006700Y035610D02*
X005702Y035610D01*
X005750Y035019D02*
X006900Y035019D01*
X006900Y034921D02*
X005750Y034921D01*
X005750Y034822D02*
X006900Y034822D01*
X006900Y034724D02*
X005729Y034724D01*
X005683Y034625D02*
X006900Y034625D01*
X006900Y034527D02*
X005748Y034527D01*
X005750Y034428D02*
X006900Y034428D01*
X006900Y034330D02*
X005750Y034330D01*
X007011Y035610D02*
X030805Y035610D01*
X030805Y035512D02*
X007110Y035512D01*
X006913Y035709D02*
X030805Y035709D01*
X030805Y035807D02*
X006814Y035807D01*
X003150Y035610D02*
X003050Y035610D01*
X003050Y035512D02*
X003150Y035512D01*
X003150Y035413D02*
X003050Y035413D01*
X003050Y035315D02*
X003150Y035315D01*
X003150Y035216D02*
X003050Y035216D01*
X002540Y035650D02*
X002540Y035650D01*
X002386Y035807D02*
X000695Y035807D01*
X000695Y035709D02*
X002287Y035709D01*
X002180Y034650D02*
X002180Y034650D01*
X000695Y035906D02*
X030805Y035906D01*
X030805Y036004D02*
X000695Y036004D01*
X000695Y036103D02*
X030805Y036103D01*
X030805Y036201D02*
X000695Y036201D01*
X000695Y036300D02*
X030805Y036300D01*
X030805Y036398D02*
X000695Y036398D01*
X000695Y036497D02*
X030805Y036497D01*
X030805Y036595D02*
X000695Y036595D01*
X000695Y036694D02*
X030805Y036694D01*
X030805Y036792D02*
X000695Y036792D01*
X000695Y036891D02*
X030805Y036891D01*
X030805Y036989D02*
X000695Y036989D01*
X000695Y037088D02*
X030805Y037088D01*
X030805Y037186D02*
X000695Y037186D01*
X000695Y037285D02*
X030805Y037285D01*
X030805Y037383D02*
X000695Y037383D01*
X000695Y037482D02*
X030805Y037482D01*
X030805Y037580D02*
X000695Y037580D01*
X000695Y037679D02*
X027830Y037679D01*
X027639Y037777D02*
X000695Y037777D01*
X000695Y037876D02*
X027520Y037876D01*
X027472Y037974D02*
X000695Y037974D01*
X000695Y038073D02*
X027425Y038073D01*
X027405Y038171D02*
X000695Y038171D01*
X000695Y038270D02*
X027405Y038270D01*
X027405Y038368D02*
X000695Y038368D01*
X000695Y038467D02*
X027405Y038467D01*
X027405Y038565D02*
X000695Y038565D01*
X000695Y038664D02*
X027405Y038664D01*
X027405Y038762D02*
X000695Y038762D01*
X000695Y038861D02*
X027405Y038861D01*
X028170Y037679D02*
X030805Y037679D01*
X030805Y037777D02*
X028361Y037777D01*
X028480Y037876D02*
X030805Y037876D01*
X030805Y037974D02*
X028528Y037974D01*
X028575Y038073D02*
X030805Y038073D01*
X030805Y038171D02*
X028595Y038171D01*
X028595Y038270D02*
X030805Y038270D01*
X030805Y038368D02*
X028595Y038368D01*
X028595Y038467D02*
X030805Y038467D01*
X030805Y038565D02*
X028595Y038565D01*
X028595Y038664D02*
X030805Y038664D01*
X030805Y038762D02*
X028595Y038762D01*
X028595Y038861D02*
X030805Y038861D01*
X030805Y033640D02*
X028426Y033640D01*
X028426Y033542D02*
X030805Y033542D01*
X030805Y033443D02*
X028426Y033443D01*
X028426Y033345D02*
X030805Y033345D01*
X030805Y033246D02*
X028422Y033246D01*
X028344Y033148D02*
X030805Y033148D01*
X030805Y031670D02*
X028426Y031670D01*
X028426Y031572D02*
X030805Y031572D01*
X030805Y031473D02*
X028426Y031473D01*
X028426Y031375D02*
X030805Y031375D01*
X030805Y031276D02*
X028426Y031276D01*
X028392Y031178D02*
X030805Y031178D01*
X030805Y030882D02*
X018860Y030882D01*
X018860Y030784D02*
X028781Y030784D01*
X028674Y030739D02*
X028504Y030570D01*
X028413Y030348D01*
X028413Y030108D01*
X028504Y029886D01*
X028674Y029717D01*
X028896Y029625D01*
X029136Y029625D01*
X029357Y029717D01*
X029495Y029855D01*
X029495Y029734D01*
X029572Y029548D01*
X029714Y029406D01*
X029750Y029392D01*
X029750Y029154D01*
X029646Y029050D01*
X028630Y029050D01*
X028630Y029365D01*
X028495Y029500D01*
X028461Y029535D01*
X028461Y029746D01*
X028361Y029845D01*
X027708Y029845D01*
X027678Y029815D01*
X027641Y029825D01*
X027415Y029825D01*
X027415Y029430D01*
X027315Y029430D01*
X027315Y029330D01*
X026959Y029330D01*
X026959Y029065D01*
X026970Y029027D01*
X026989Y028993D01*
X027017Y028965D01*
X027052Y028945D01*
X027090Y028935D01*
X027315Y028935D01*
X027315Y029330D01*
X027415Y029330D01*
X027415Y028935D01*
X027641Y028935D01*
X027678Y028945D01*
X027708Y028915D01*
X028161Y028915D01*
X028058Y028812D01*
X027988Y028742D01*
X027982Y028726D01*
X027966Y028726D01*
X027867Y028627D01*
X027867Y028013D01*
X027950Y027930D01*
X027950Y025805D01*
X027988Y025713D01*
X028144Y025557D01*
X028144Y025276D01*
X028243Y025177D01*
X028857Y025177D01*
X028934Y025254D01*
X029233Y025254D01*
X029252Y025235D01*
X029433Y025160D01*
X030267Y025160D01*
X030448Y025235D01*
X030585Y025372D01*
X030660Y025553D01*
X030660Y025747D01*
X030585Y025928D01*
X030448Y026065D01*
X030267Y026140D01*
X029433Y026140D01*
X029252Y026065D01*
X029115Y025928D01*
X029043Y025754D01*
X028934Y025754D01*
X028857Y025832D01*
X028576Y025832D01*
X028450Y025958D01*
X028450Y027262D01*
X028504Y027130D01*
X028674Y026961D01*
X028896Y026869D01*
X029136Y026869D01*
X029357Y026961D01*
X029527Y027130D01*
X029619Y027352D01*
X029619Y027566D01*
X029630Y027550D01*
X029684Y027496D01*
X029746Y027451D01*
X029814Y027417D01*
X029887Y027393D01*
X029962Y027381D01*
X029971Y027381D01*
X029971Y027837D01*
X029515Y027837D01*
X029515Y027828D01*
X029516Y027825D01*
X029357Y027983D01*
X029136Y028075D01*
X028896Y028075D01*
X028674Y027983D01*
X028504Y027814D01*
X028450Y027682D01*
X028450Y027942D01*
X028522Y028013D01*
X028522Y028550D01*
X029800Y028550D01*
X029892Y028588D01*
X029962Y028658D01*
X030212Y028908D01*
X030250Y029000D01*
X030250Y029392D01*
X030286Y029406D01*
X030428Y029548D01*
X030505Y029734D01*
X030505Y029935D01*
X030428Y030120D01*
X030286Y030262D01*
X030100Y030339D01*
X029900Y030339D01*
X029714Y030262D01*
X029619Y030167D01*
X029619Y030348D01*
X029527Y030570D01*
X029357Y030739D01*
X029136Y030831D01*
X028896Y030831D01*
X028674Y030739D01*
X028620Y030685D02*
X018860Y030685D01*
X018860Y030587D02*
X028522Y030587D01*
X028471Y030488D02*
X018860Y030488D01*
X018860Y030390D02*
X028430Y030390D01*
X028413Y030291D02*
X018860Y030291D01*
X018860Y030193D02*
X028413Y030193D01*
X028418Y030094D02*
X018860Y030094D01*
X018860Y029996D02*
X028459Y029996D01*
X028500Y029897D02*
X018860Y029897D01*
X018860Y029799D02*
X027023Y029799D01*
X027017Y029795D02*
X026989Y029767D01*
X026970Y029733D01*
X026959Y029695D01*
X026959Y029430D01*
X027315Y029430D01*
X027315Y029825D01*
X027090Y029825D01*
X027052Y029815D01*
X027017Y029795D01*
X026961Y029700D02*
X018860Y029700D01*
X018860Y029602D02*
X026959Y029602D01*
X026959Y029503D02*
X018860Y029503D01*
X018860Y029405D02*
X027315Y029405D01*
X027315Y029503D02*
X027415Y029503D01*
X027415Y029602D02*
X027315Y029602D01*
X027315Y029700D02*
X027415Y029700D01*
X027415Y029799D02*
X027315Y029799D01*
X027315Y029306D02*
X027415Y029306D01*
X027415Y029208D02*
X027315Y029208D01*
X027315Y029109D02*
X027415Y029109D01*
X027415Y029011D02*
X027315Y029011D01*
X027247Y028715D02*
X018860Y028715D01*
X018860Y028617D02*
X027158Y028617D01*
X026979Y029011D02*
X018860Y029011D01*
X018860Y029109D02*
X026959Y029109D01*
X026959Y029208D02*
X018860Y029208D01*
X018860Y029306D02*
X026959Y029306D01*
X027486Y028320D02*
X027476Y028310D01*
X025900Y028310D01*
X025480Y027890D01*
X025480Y025470D01*
X025700Y025465D02*
X028144Y025465D01*
X028138Y025563D02*
X025700Y025563D01*
X025700Y025662D02*
X028039Y025662D01*
X027968Y025760D02*
X025700Y025760D01*
X025700Y025859D02*
X027950Y025859D01*
X027950Y025957D02*
X025700Y025957D01*
X025700Y026056D02*
X027950Y026056D01*
X027950Y026154D02*
X025700Y026154D01*
X025700Y026253D02*
X027950Y026253D01*
X027950Y026351D02*
X025700Y026351D01*
X025700Y026450D02*
X027950Y026450D01*
X027950Y026548D02*
X025700Y026548D01*
X025700Y026647D02*
X027950Y026647D01*
X027950Y026745D02*
X025700Y026745D01*
X025700Y026844D02*
X027950Y026844D01*
X027950Y026942D02*
X025700Y026942D01*
X025700Y027041D02*
X027950Y027041D01*
X027950Y027139D02*
X025700Y027139D01*
X025700Y027238D02*
X027950Y027238D01*
X027950Y027336D02*
X025700Y027336D01*
X025700Y027435D02*
X027950Y027435D01*
X027950Y027533D02*
X025700Y027533D01*
X025700Y027632D02*
X027950Y027632D01*
X027950Y027730D02*
X025700Y027730D01*
X025730Y027829D02*
X027950Y027829D01*
X027950Y027927D02*
X027727Y027927D01*
X027813Y028026D02*
X027867Y028026D01*
X027867Y028124D02*
X027813Y028124D01*
X027813Y028223D02*
X027867Y028223D01*
X027867Y028321D02*
X027813Y028321D01*
X027813Y028420D02*
X027867Y028420D01*
X027867Y028518D02*
X027813Y028518D01*
X027813Y028617D02*
X027867Y028617D01*
X027955Y028715D02*
X027725Y028715D01*
X028060Y028814D02*
X018860Y028814D01*
X018860Y028912D02*
X028159Y028912D01*
X028522Y028518D02*
X030805Y028518D01*
X030805Y028420D02*
X028522Y028420D01*
X028522Y028321D02*
X029833Y028321D01*
X029814Y028315D02*
X029746Y028280D01*
X029684Y028235D01*
X029630Y028181D01*
X029585Y028120D01*
X029551Y028052D01*
X029527Y027979D01*
X029515Y027904D01*
X029515Y027894D01*
X029971Y027894D01*
X029971Y027837D01*
X030029Y027837D01*
X030029Y027894D01*
X030485Y027894D01*
X030485Y027904D01*
X030473Y027979D01*
X030449Y028052D01*
X030415Y028120D01*
X030370Y028181D01*
X030316Y028235D01*
X030254Y028280D01*
X030186Y028315D01*
X030113Y028338D01*
X030038Y028350D01*
X030029Y028350D01*
X030029Y027894D01*
X029971Y027894D01*
X029971Y028350D01*
X029962Y028350D01*
X029887Y028338D01*
X029814Y028315D01*
X029971Y028321D02*
X030029Y028321D01*
X030029Y028223D02*
X029971Y028223D01*
X029971Y028124D02*
X030029Y028124D01*
X030029Y028026D02*
X029971Y028026D01*
X029971Y027927D02*
X030029Y027927D01*
X030029Y027837D02*
X030485Y027837D01*
X030485Y027828D01*
X030473Y027752D01*
X030449Y027680D01*
X030415Y027612D01*
X030370Y027550D01*
X030316Y027496D01*
X030254Y027451D01*
X030186Y027417D01*
X030113Y027393D01*
X030038Y027381D01*
X030029Y027381D01*
X030029Y027837D01*
X030029Y027829D02*
X029971Y027829D01*
X029971Y027730D02*
X030029Y027730D01*
X030029Y027632D02*
X029971Y027632D01*
X029971Y027533D02*
X030029Y027533D01*
X030029Y027435D02*
X029971Y027435D01*
X029779Y027435D02*
X029619Y027435D01*
X029619Y027533D02*
X029647Y027533D01*
X029612Y027336D02*
X030805Y027336D01*
X030805Y027238D02*
X029571Y027238D01*
X029531Y027139D02*
X030805Y027139D01*
X030805Y027041D02*
X029437Y027041D01*
X029312Y026942D02*
X030805Y026942D01*
X030805Y026844D02*
X028450Y026844D01*
X028450Y026942D02*
X028719Y026942D01*
X028594Y027041D02*
X028450Y027041D01*
X028450Y027139D02*
X028501Y027139D01*
X028460Y027238D02*
X028450Y027238D01*
X028450Y027730D02*
X028470Y027730D01*
X028450Y027829D02*
X028519Y027829D01*
X028450Y027927D02*
X028618Y027927D01*
X028522Y028026D02*
X028776Y028026D01*
X028522Y028124D02*
X029589Y028124D01*
X029542Y028026D02*
X029255Y028026D01*
X029414Y027927D02*
X029519Y027927D01*
X029512Y027829D02*
X029515Y027829D01*
X029671Y028223D02*
X028522Y028223D01*
X028630Y029109D02*
X029706Y029109D01*
X029750Y029208D02*
X028630Y029208D01*
X028630Y029306D02*
X029750Y029306D01*
X029719Y029405D02*
X028591Y029405D01*
X028492Y029503D02*
X029618Y029503D01*
X029550Y029602D02*
X028461Y029602D01*
X028461Y029700D02*
X028714Y029700D01*
X028592Y029799D02*
X028408Y029799D01*
X029317Y029700D02*
X029509Y029700D01*
X029495Y029799D02*
X029439Y029799D01*
X029619Y030193D02*
X029645Y030193D01*
X029619Y030291D02*
X029784Y030291D01*
X029602Y030390D02*
X030805Y030390D01*
X030805Y030488D02*
X029561Y030488D01*
X029510Y030587D02*
X030805Y030587D01*
X030805Y030685D02*
X029411Y030685D01*
X029250Y030784D02*
X030805Y030784D01*
X030805Y030291D02*
X030216Y030291D01*
X030355Y030193D02*
X030805Y030193D01*
X030805Y030094D02*
X030439Y030094D01*
X030479Y029996D02*
X030805Y029996D01*
X030805Y029897D02*
X030505Y029897D01*
X030505Y029799D02*
X030805Y029799D01*
X030805Y029700D02*
X030491Y029700D01*
X030450Y029602D02*
X030805Y029602D01*
X030805Y029503D02*
X030382Y029503D01*
X030281Y029405D02*
X030805Y029405D01*
X030805Y029306D02*
X030250Y029306D01*
X030250Y029208D02*
X030805Y029208D01*
X030805Y029109D02*
X030250Y029109D01*
X030250Y029011D02*
X030805Y029011D01*
X030805Y028912D02*
X030213Y028912D01*
X030117Y028814D02*
X030805Y028814D01*
X030805Y028715D02*
X030019Y028715D01*
X029920Y028617D02*
X030805Y028617D01*
X030805Y028321D02*
X030167Y028321D01*
X030329Y028223D02*
X030805Y028223D01*
X030805Y028124D02*
X030411Y028124D01*
X030458Y028026D02*
X030805Y028026D01*
X030805Y027927D02*
X030481Y027927D01*
X030485Y027829D02*
X030805Y027829D01*
X030805Y027730D02*
X030465Y027730D01*
X030425Y027632D02*
X030805Y027632D01*
X030805Y027533D02*
X030353Y027533D01*
X030221Y027435D02*
X030805Y027435D01*
X030805Y026745D02*
X028450Y026745D01*
X028450Y026647D02*
X030805Y026647D01*
X030805Y026548D02*
X028450Y026548D01*
X028450Y026450D02*
X030805Y026450D01*
X030805Y026351D02*
X028450Y026351D01*
X028450Y026253D02*
X030805Y026253D01*
X030805Y026154D02*
X028450Y026154D01*
X028450Y026056D02*
X029243Y026056D01*
X029144Y025957D02*
X028451Y025957D01*
X028549Y025859D02*
X029086Y025859D01*
X029045Y025760D02*
X028928Y025760D01*
X028857Y025123D02*
X028243Y025123D01*
X028144Y025024D01*
X028144Y024568D01*
X028243Y024468D01*
X028288Y024468D01*
X028227Y024407D01*
X028227Y023793D01*
X028310Y023710D01*
X028310Y021100D01*
X028348Y021008D01*
X028418Y020938D01*
X028718Y020638D01*
X028810Y020600D01*
X029009Y020600D01*
X029071Y020538D01*
X029207Y020482D01*
X029353Y020482D01*
X029489Y020538D01*
X029592Y020641D01*
X029648Y020777D01*
X029648Y020923D01*
X029592Y021059D01*
X029491Y021160D01*
X030267Y021160D01*
X030448Y021235D01*
X030585Y021372D01*
X030660Y021553D01*
X030660Y021747D01*
X030585Y021928D01*
X030448Y022065D01*
X030267Y022140D01*
X029433Y022140D01*
X029252Y022065D01*
X029115Y021928D01*
X029040Y021747D01*
X029040Y021553D01*
X029115Y021372D01*
X029252Y021235D01*
X029291Y021218D01*
X029207Y021218D01*
X029071Y021162D01*
X029009Y021100D01*
X028964Y021100D01*
X028810Y021254D01*
X028810Y023722D01*
X028882Y023793D01*
X028882Y024407D01*
X028820Y024468D01*
X028857Y024468D01*
X028888Y024500D01*
X028962Y024500D01*
X029015Y024372D01*
X029152Y024235D01*
X029333Y024160D01*
X030167Y024160D01*
X030348Y024235D01*
X030485Y024372D01*
X030560Y024553D01*
X030560Y024747D01*
X030485Y024928D01*
X030348Y025065D01*
X030167Y025140D01*
X029333Y025140D01*
X029152Y025065D01*
X029087Y025000D01*
X028956Y025000D01*
X028956Y025024D01*
X028857Y025123D01*
X028909Y025071D02*
X029165Y025071D01*
X029411Y025169D02*
X025690Y025169D01*
X025690Y025071D02*
X028191Y025071D01*
X028144Y024972D02*
X025690Y024972D01*
X025690Y024874D02*
X028144Y024874D01*
X028144Y024775D02*
X025690Y024775D01*
X025690Y024677D02*
X028144Y024677D01*
X028144Y024578D02*
X025690Y024578D01*
X025690Y024480D02*
X027644Y024480D01*
X027630Y024476D02*
X027596Y024456D01*
X027568Y024428D01*
X027548Y024394D01*
X027538Y024356D01*
X027538Y024129D01*
X027817Y024129D01*
X027817Y024486D01*
X027668Y024486D01*
X027630Y024476D01*
X027545Y024381D02*
X025690Y024381D01*
X025690Y024283D02*
X027538Y024283D01*
X027538Y024184D02*
X025690Y024184D01*
X025690Y024086D02*
X027817Y024086D01*
X027817Y024071D02*
X027538Y024071D01*
X027538Y023844D01*
X027548Y023806D01*
X027568Y023772D01*
X027596Y023744D01*
X027630Y023724D01*
X027668Y023714D01*
X027817Y023714D01*
X027817Y024071D01*
X027874Y024071D01*
X027874Y023714D01*
X028023Y023714D01*
X028061Y023724D01*
X028095Y023744D01*
X028123Y023772D01*
X028143Y023806D01*
X028153Y023844D01*
X028153Y024071D01*
X027874Y024071D01*
X027874Y024129D01*
X027817Y024129D01*
X027817Y024071D01*
X027874Y024086D02*
X028227Y024086D01*
X028153Y024129D02*
X028153Y024356D01*
X028143Y024394D01*
X028123Y024428D01*
X028095Y024456D01*
X028061Y024476D01*
X028023Y024486D01*
X027874Y024486D01*
X027874Y024129D01*
X028153Y024129D01*
X028153Y024184D02*
X028227Y024184D01*
X028227Y024283D02*
X028153Y024283D01*
X028146Y024381D02*
X028227Y024381D01*
X028232Y024480D02*
X028048Y024480D01*
X027874Y024480D02*
X027817Y024480D01*
X027817Y024381D02*
X027874Y024381D01*
X027874Y024283D02*
X027817Y024283D01*
X027817Y024184D02*
X027874Y024184D01*
X027874Y023987D02*
X027817Y023987D01*
X027817Y023889D02*
X027874Y023889D01*
X027874Y023790D02*
X027817Y023790D01*
X027558Y023790D02*
X025690Y023790D01*
X025690Y023692D02*
X028310Y023692D01*
X028310Y023593D02*
X025690Y023593D01*
X025690Y023495D02*
X028310Y023495D01*
X028310Y023396D02*
X025690Y023396D01*
X025690Y023298D02*
X028310Y023298D01*
X028310Y023199D02*
X025690Y023199D01*
X025690Y023101D02*
X028310Y023101D01*
X028310Y023002D02*
X025690Y023002D01*
X025690Y022904D02*
X028310Y022904D01*
X028310Y022805D02*
X025690Y022805D01*
X025690Y022707D02*
X028310Y022707D01*
X028310Y022608D02*
X025595Y022608D01*
X025497Y022510D02*
X028310Y022510D01*
X028310Y022411D02*
X025398Y022411D01*
X025300Y022313D02*
X028310Y022313D01*
X028310Y022214D02*
X025201Y022214D01*
X025190Y022116D02*
X028310Y022116D01*
X028310Y022017D02*
X025190Y022017D01*
X025190Y021919D02*
X028310Y021919D01*
X028310Y021820D02*
X025190Y021820D01*
X025190Y021722D02*
X028310Y021722D01*
X028310Y021623D02*
X025368Y021623D01*
X025458Y021525D02*
X028310Y021525D01*
X028310Y021426D02*
X025499Y021426D01*
X025508Y021328D02*
X028310Y021328D01*
X028310Y021229D02*
X025497Y021229D01*
X025456Y021131D02*
X028310Y021131D01*
X028338Y021032D02*
X025363Y021032D01*
X024960Y020934D02*
X028423Y020934D01*
X028521Y020835D02*
X024960Y020835D01*
X024960Y020737D02*
X028620Y020737D01*
X028718Y020638D02*
X024960Y020638D01*
X024960Y020540D02*
X029069Y020540D01*
X029491Y020540D02*
X030805Y020540D01*
X030805Y020638D02*
X029589Y020638D01*
X029632Y020737D02*
X030805Y020737D01*
X030805Y020835D02*
X029648Y020835D01*
X029644Y020934D02*
X030805Y020934D01*
X030805Y021032D02*
X029603Y021032D01*
X029520Y021131D02*
X030805Y021131D01*
X030805Y021229D02*
X030434Y021229D01*
X030541Y021328D02*
X030805Y021328D01*
X030805Y021426D02*
X030608Y021426D01*
X030648Y021525D02*
X030805Y021525D01*
X030805Y021623D02*
X030660Y021623D01*
X030660Y021722D02*
X030805Y021722D01*
X030805Y021820D02*
X030630Y021820D01*
X030589Y021919D02*
X030805Y021919D01*
X030805Y022017D02*
X030496Y022017D01*
X030326Y022116D02*
X030805Y022116D01*
X030805Y022214D02*
X030298Y022214D01*
X030348Y022235D02*
X030485Y022372D01*
X030560Y022553D01*
X030560Y022747D01*
X030485Y022928D01*
X030348Y023065D01*
X030167Y023140D01*
X029333Y023140D01*
X029152Y023065D01*
X029015Y022928D01*
X028940Y022747D01*
X028940Y022553D01*
X029015Y022372D01*
X029152Y022235D01*
X029333Y022160D01*
X030167Y022160D01*
X030348Y022235D01*
X030426Y022313D02*
X030805Y022313D01*
X030805Y022411D02*
X030501Y022411D01*
X030542Y022510D02*
X030805Y022510D01*
X030805Y022608D02*
X030560Y022608D01*
X030560Y022707D02*
X030805Y022707D01*
X030805Y022805D02*
X030536Y022805D01*
X030495Y022904D02*
X030805Y022904D01*
X030805Y023002D02*
X030411Y023002D01*
X030263Y023101D02*
X030805Y023101D01*
X030805Y023199D02*
X030303Y023199D01*
X030280Y023192D02*
X030350Y023214D01*
X030416Y023248D01*
X030476Y023292D01*
X030528Y023344D01*
X030572Y023404D01*
X030606Y023470D01*
X030628Y023540D01*
X030638Y023600D01*
X029900Y023600D01*
X029900Y023700D01*
X029800Y023700D01*
X029800Y024120D01*
X029493Y024120D01*
X029420Y024108D01*
X029350Y024086D01*
X029284Y024052D01*
X029224Y024008D01*
X029172Y023956D01*
X029128Y023896D01*
X029094Y023830D01*
X029072Y023760D01*
X029062Y023700D01*
X029800Y023700D01*
X029800Y023600D01*
X029900Y023600D01*
X029900Y023180D01*
X030207Y023180D01*
X030280Y023192D01*
X030482Y023298D02*
X030805Y023298D01*
X030805Y023396D02*
X030566Y023396D01*
X030614Y023495D02*
X030805Y023495D01*
X030805Y023593D02*
X030637Y023593D01*
X030638Y023700D02*
X030628Y023760D01*
X030606Y023830D01*
X030572Y023896D01*
X030528Y023956D01*
X030476Y024008D01*
X030416Y024052D01*
X030350Y024086D01*
X030280Y024108D01*
X030207Y024120D01*
X029900Y024120D01*
X029900Y023700D01*
X030638Y023700D01*
X030619Y023790D02*
X030805Y023790D01*
X030805Y023692D02*
X029900Y023692D01*
X029900Y023790D02*
X029800Y023790D01*
X029800Y023692D02*
X028810Y023692D01*
X028810Y023593D02*
X029063Y023593D01*
X029062Y023600D02*
X029072Y023540D01*
X029094Y023470D01*
X029128Y023404D01*
X029172Y023344D01*
X029224Y023292D01*
X029284Y023248D01*
X029350Y023214D01*
X029420Y023192D01*
X029493Y023180D01*
X029800Y023180D01*
X029800Y023600D01*
X029062Y023600D01*
X029086Y023495D02*
X028810Y023495D01*
X028810Y023396D02*
X029134Y023396D01*
X029218Y023298D02*
X028810Y023298D01*
X028810Y023199D02*
X029397Y023199D01*
X029237Y023101D02*
X028810Y023101D01*
X028810Y023002D02*
X029089Y023002D01*
X029005Y022904D02*
X028810Y022904D01*
X028810Y022805D02*
X028964Y022805D01*
X028940Y022707D02*
X028810Y022707D01*
X028810Y022608D02*
X028940Y022608D01*
X028958Y022510D02*
X028810Y022510D01*
X028810Y022411D02*
X028999Y022411D01*
X029074Y022313D02*
X028810Y022313D01*
X028810Y022214D02*
X029202Y022214D01*
X029204Y022017D02*
X028810Y022017D01*
X028810Y021919D02*
X029111Y021919D01*
X029070Y021820D02*
X028810Y021820D01*
X028810Y021722D02*
X029040Y021722D01*
X029040Y021623D02*
X028810Y021623D01*
X028810Y021525D02*
X029052Y021525D01*
X029092Y021426D02*
X028810Y021426D01*
X028810Y021328D02*
X029159Y021328D01*
X029266Y021229D02*
X028834Y021229D01*
X028933Y021131D02*
X029040Y021131D01*
X028810Y022116D02*
X029374Y022116D01*
X029800Y023199D02*
X029900Y023199D01*
X029900Y023298D02*
X029800Y023298D01*
X029800Y023396D02*
X029900Y023396D01*
X029900Y023495D02*
X029800Y023495D01*
X029800Y023593D02*
X029900Y023593D01*
X029900Y023889D02*
X029800Y023889D01*
X029800Y023987D02*
X029900Y023987D01*
X029900Y024086D02*
X029800Y024086D01*
X029350Y024086D02*
X028882Y024086D01*
X028882Y024184D02*
X029274Y024184D01*
X029104Y024283D02*
X028882Y024283D01*
X028882Y024381D02*
X029011Y024381D01*
X028970Y024480D02*
X028868Y024480D01*
X028882Y023987D02*
X029202Y023987D01*
X029124Y023889D02*
X028882Y023889D01*
X028879Y023790D02*
X029081Y023790D01*
X028230Y023790D02*
X028134Y023790D01*
X028153Y023889D02*
X028227Y023889D01*
X028227Y023987D02*
X028153Y023987D01*
X027538Y023987D02*
X025690Y023987D01*
X025690Y023889D02*
X027538Y023889D01*
X028153Y025268D02*
X025690Y025268D01*
X025690Y025366D02*
X028144Y025366D01*
X030289Y025169D02*
X030805Y025169D01*
X030805Y025071D02*
X030335Y025071D01*
X030441Y024972D02*
X030805Y024972D01*
X030805Y024874D02*
X030508Y024874D01*
X030549Y024775D02*
X030805Y024775D01*
X030805Y024677D02*
X030560Y024677D01*
X030560Y024578D02*
X030805Y024578D01*
X030805Y024480D02*
X030530Y024480D01*
X030489Y024381D02*
X030805Y024381D01*
X030805Y024283D02*
X030396Y024283D01*
X030226Y024184D02*
X030805Y024184D01*
X030805Y024086D02*
X030350Y024086D01*
X030498Y023987D02*
X030805Y023987D01*
X030805Y023889D02*
X030576Y023889D01*
X030481Y025268D02*
X030805Y025268D01*
X030805Y025366D02*
X030579Y025366D01*
X030624Y025465D02*
X030805Y025465D01*
X030805Y025563D02*
X030660Y025563D01*
X030660Y025662D02*
X030805Y025662D01*
X030805Y025760D02*
X030655Y025760D01*
X030614Y025859D02*
X030805Y025859D01*
X030805Y025957D02*
X030556Y025957D01*
X030457Y026056D02*
X030805Y026056D01*
X027244Y027927D02*
X025828Y027927D01*
X025927Y028026D02*
X027158Y028026D01*
X025797Y028518D02*
X018860Y028518D01*
X018860Y028420D02*
X025698Y028420D01*
X025600Y028321D02*
X018860Y028321D01*
X018860Y028223D02*
X025501Y028223D01*
X025403Y028124D02*
X018860Y028124D01*
X018860Y028026D02*
X025304Y028026D01*
X025260Y027927D02*
X018860Y027927D01*
X018860Y027829D02*
X025260Y027829D01*
X025260Y027730D02*
X018860Y027730D01*
X018860Y027632D02*
X025260Y027632D01*
X025260Y027533D02*
X018860Y027533D01*
X018801Y026548D02*
X023699Y026548D01*
X023694Y025957D02*
X018806Y025957D01*
X018294Y025957D02*
X017811Y025957D01*
X017750Y025859D02*
X024290Y025859D01*
X024290Y025957D02*
X024206Y025957D01*
X024290Y026056D02*
X024290Y026056D01*
X024290Y025760D02*
X017750Y025760D01*
X017832Y025662D02*
X024290Y025662D01*
X024290Y025563D02*
X017873Y025563D01*
X017888Y025465D02*
X024290Y025465D01*
X024290Y025366D02*
X017885Y025366D01*
X017845Y025268D02*
X024290Y025268D01*
X024290Y024775D02*
X022938Y024775D01*
X023054Y024677D02*
X024290Y024677D01*
X024290Y024578D02*
X023106Y024578D01*
X023128Y024480D02*
X024290Y024480D01*
X024960Y024480D02*
X025270Y024480D01*
X025270Y024578D02*
X024960Y024578D01*
X024960Y024677D02*
X025270Y024677D01*
X025270Y024775D02*
X024960Y024775D01*
X024960Y024874D02*
X025270Y024874D01*
X025270Y024972D02*
X024960Y024972D01*
X024960Y025071D02*
X025270Y025071D01*
X025270Y025169D02*
X024960Y025169D01*
X024960Y025268D02*
X025270Y025268D01*
X025270Y025366D02*
X024960Y025366D01*
X024960Y025465D02*
X025260Y025465D01*
X025260Y025563D02*
X024960Y025563D01*
X024960Y025662D02*
X025260Y025662D01*
X025260Y025760D02*
X024960Y025760D01*
X024960Y025859D02*
X025260Y025859D01*
X025260Y025957D02*
X024960Y025957D01*
X024960Y026056D02*
X025260Y026056D01*
X025260Y026154D02*
X024960Y026154D01*
X024960Y026253D02*
X025260Y026253D01*
X025260Y026351D02*
X024960Y026351D01*
X024960Y026450D02*
X025260Y026450D01*
X025260Y026548D02*
X024960Y026548D01*
X024960Y026647D02*
X025260Y026647D01*
X025260Y026745D02*
X024960Y026745D01*
X024960Y026844D02*
X025260Y026844D01*
X025260Y026942D02*
X024905Y026942D01*
X024806Y027041D02*
X025260Y027041D01*
X025260Y027139D02*
X024708Y027139D01*
X024609Y027238D02*
X025260Y027238D01*
X025260Y027336D02*
X024511Y027336D01*
X024412Y027435D02*
X025260Y027435D01*
X024290Y026548D02*
X024201Y026548D01*
X024287Y026450D02*
X024290Y026450D01*
X024960Y024381D02*
X025270Y024381D01*
X025270Y024283D02*
X024960Y024283D01*
X024960Y024184D02*
X025270Y024184D01*
X025270Y024086D02*
X024960Y024086D01*
X024960Y023987D02*
X025270Y023987D01*
X025270Y023889D02*
X024960Y023889D01*
X024960Y023790D02*
X025270Y023790D01*
X025270Y023692D02*
X024960Y023692D01*
X024960Y023593D02*
X025270Y023593D01*
X025270Y023495D02*
X024960Y023495D01*
X025177Y023396D02*
X025270Y023396D01*
X022731Y023002D02*
X017209Y023002D01*
X017299Y022904D02*
X017751Y022904D01*
X017594Y022805D02*
X017339Y022805D01*
X017348Y022707D02*
X017526Y022707D01*
X018218Y023101D02*
X022632Y023101D01*
X022550Y023199D02*
X018301Y023199D01*
X017402Y025071D02*
X017032Y025071D01*
X017130Y025169D02*
X017232Y025169D01*
X016574Y026647D02*
X013390Y026647D01*
X013390Y026745D02*
X016580Y026745D01*
X013950Y022805D02*
X013850Y022805D01*
X013850Y022707D02*
X013950Y022707D01*
X013950Y022608D02*
X013850Y022608D01*
X013850Y022510D02*
X013950Y022510D01*
X013950Y022214D02*
X013850Y022214D01*
X013850Y022116D02*
X013950Y022116D01*
X013435Y022510D02*
X013390Y022510D01*
X013390Y022608D02*
X013435Y022608D01*
X013435Y022707D02*
X013390Y022707D01*
X013390Y022805D02*
X013458Y022805D01*
X012810Y024086D02*
X007846Y024086D01*
X007944Y024184D02*
X012810Y024184D01*
X012810Y024283D02*
X008043Y024283D01*
X008171Y023396D02*
X007790Y023396D01*
X007790Y023298D02*
X008049Y023298D01*
X007992Y023199D02*
X007790Y023199D01*
X007790Y023101D02*
X007962Y023101D01*
X007962Y023002D02*
X007790Y023002D01*
X007790Y022904D02*
X007991Y022904D01*
X008046Y022805D02*
X007790Y022805D01*
X007790Y022707D02*
X008165Y022707D01*
X009730Y024381D02*
X012810Y024381D01*
X012810Y025071D02*
X011464Y025071D01*
X011582Y025169D02*
X012810Y025169D01*
X012810Y025268D02*
X011654Y025268D01*
X011695Y025366D02*
X012810Y025366D01*
X012810Y025465D02*
X011710Y025465D01*
X011710Y025563D02*
X012810Y025563D01*
X012810Y025662D02*
X011683Y025662D01*
X011643Y025760D02*
X012810Y025760D01*
X012810Y025859D02*
X011554Y025859D01*
X011397Y025957D02*
X012810Y025957D01*
X010302Y030094D02*
X010154Y030094D01*
X010964Y019653D02*
X011393Y019653D01*
X011349Y019555D02*
X011063Y019555D01*
X011760Y018570D02*
X005770Y018570D01*
X005723Y017683D02*
X010141Y017683D01*
X010116Y017585D02*
X005756Y017585D01*
X005770Y017486D02*
X010116Y017486D01*
X010116Y017388D02*
X005770Y017388D01*
X005770Y017289D02*
X010116Y017289D01*
X010116Y017092D02*
X005770Y017092D01*
X005770Y016994D02*
X010116Y016994D01*
X010116Y016895D02*
X005770Y016895D01*
X005770Y016797D02*
X010120Y016797D01*
X010198Y016698D02*
X005738Y016698D01*
X005741Y016600D02*
X016600Y016600D01*
X016559Y016698D02*
X011102Y016698D01*
X011092Y016692D02*
X011126Y016712D01*
X011154Y016740D01*
X011174Y016774D01*
X011184Y016812D01*
X011184Y017166D01*
X010700Y017166D01*
X010700Y016682D01*
X011054Y016682D01*
X011092Y016692D01*
X011180Y016797D02*
X016552Y016797D01*
X016565Y016895D02*
X011184Y016895D01*
X011184Y016994D02*
X016606Y016994D01*
X016701Y017092D02*
X011184Y017092D01*
X011184Y017289D02*
X011672Y017289D01*
X011785Y017191D02*
X010700Y017191D01*
X010700Y017289D02*
X010600Y017289D01*
X010600Y017191D02*
X005770Y017191D01*
X005770Y016501D02*
X016688Y016501D01*
X016893Y016304D02*
X005770Y016304D01*
X005770Y016206D02*
X016826Y016206D01*
X016792Y016107D02*
X005770Y016107D01*
X005770Y016009D02*
X016792Y016009D01*
X016819Y015910D02*
X005770Y015910D01*
X005770Y015812D02*
X016083Y015812D01*
X015989Y015713D02*
X005753Y015713D01*
X005726Y015615D02*
X015894Y015615D01*
X015799Y015516D02*
X005770Y015516D01*
X005770Y015418D02*
X015704Y015418D01*
X015610Y015319D02*
X005770Y015319D01*
X005770Y015221D02*
X015514Y015221D01*
X015490Y015122D02*
X005770Y015122D01*
X005770Y015024D02*
X015490Y015024D01*
X015490Y014925D02*
X005770Y014925D01*
X005770Y014827D02*
X015490Y014827D01*
X015490Y014728D02*
X005768Y014728D01*
X005711Y014630D02*
X015490Y014630D01*
X015490Y014531D02*
X005770Y014531D01*
X005770Y014433D02*
X015490Y014433D01*
X015490Y014334D02*
X005770Y014334D01*
X005770Y014236D02*
X015490Y014236D01*
X015426Y014137D02*
X005770Y014137D01*
X005770Y014039D02*
X015363Y014039D01*
X015332Y013940D02*
X005770Y013940D01*
X005770Y013842D02*
X015332Y013842D01*
X015362Y013743D02*
X005770Y013743D01*
X005696Y013645D02*
X015424Y013645D01*
X015568Y013546D02*
X005770Y013546D01*
X005770Y013448D02*
X015830Y013448D01*
X015864Y013349D02*
X005770Y013349D01*
X005770Y013251D02*
X015932Y013251D01*
X015942Y013152D02*
X005770Y013152D01*
X005770Y013054D02*
X015983Y013054D01*
X016074Y012955D02*
X005770Y012955D01*
X005770Y016403D02*
X017048Y016403D01*
X016910Y017585D02*
X012436Y017585D01*
X012434Y017683D02*
X016910Y017683D01*
X016812Y014531D02*
X016250Y014531D01*
X016250Y014433D02*
X016711Y014433D01*
X016657Y014334D02*
X016250Y014334D01*
X016250Y014236D02*
X016633Y014236D01*
X016631Y014137D02*
X016250Y014137D01*
X016250Y014039D02*
X016653Y014039D01*
X016703Y013940D02*
X016250Y013940D01*
X016250Y013842D02*
X016796Y013842D01*
X017028Y013842D02*
X017085Y013842D01*
X017085Y013940D02*
X017028Y013940D01*
X017028Y014039D02*
X017085Y014039D01*
X017085Y014137D02*
X017028Y014137D01*
X017028Y014236D02*
X017085Y014236D01*
X017085Y014334D02*
X017028Y014334D01*
X017028Y014433D02*
X017085Y014433D01*
X017085Y014531D02*
X017028Y014531D01*
X017302Y014531D02*
X017562Y014531D01*
X017464Y014433D02*
X017402Y014433D01*
X017410Y013940D02*
X017459Y013940D01*
X017550Y013842D02*
X017317Y013842D01*
X017731Y013743D02*
X016250Y013743D01*
X017957Y013743D02*
X018519Y013743D01*
X018338Y013842D02*
X018138Y013842D01*
X018229Y013940D02*
X018247Y013940D01*
X018224Y014433D02*
X018251Y014433D01*
X018349Y014531D02*
X018127Y014531D01*
X018744Y013743D02*
X019306Y013743D01*
X019125Y013842D02*
X018925Y013842D01*
X019016Y013940D02*
X019034Y013940D01*
X019012Y014433D02*
X019039Y014433D01*
X019136Y014531D02*
X018914Y014531D01*
X019701Y014531D02*
X019924Y014531D01*
X019826Y014433D02*
X019799Y014433D01*
X019804Y013940D02*
X019822Y013940D01*
X019913Y013842D02*
X019713Y013842D01*
X019532Y013743D02*
X020094Y013743D01*
X020319Y013743D02*
X020881Y013743D01*
X020700Y013842D02*
X020500Y013842D01*
X020591Y013940D02*
X020609Y013940D01*
X020586Y014433D02*
X020614Y014433D01*
X020711Y014531D02*
X020489Y014531D01*
X021276Y014531D02*
X021499Y014531D01*
X021401Y014433D02*
X021374Y014433D01*
X021378Y013940D02*
X021396Y013940D01*
X021487Y013842D02*
X021287Y013842D01*
X021106Y013743D02*
X021668Y013743D01*
X021894Y013743D02*
X022456Y013743D01*
X022275Y013842D02*
X022075Y013842D01*
X022166Y013940D02*
X022184Y013940D01*
X022161Y014433D02*
X022188Y014433D01*
X022286Y014531D02*
X022064Y014531D01*
X022681Y013743D02*
X023243Y013743D01*
X023062Y013842D02*
X022862Y013842D01*
X022953Y013940D02*
X022971Y013940D01*
X022949Y014433D02*
X022976Y014433D01*
X023073Y014531D02*
X022851Y014531D01*
X023638Y014531D02*
X023861Y014531D01*
X023763Y014433D02*
X023736Y014433D01*
X023741Y013940D02*
X023759Y013940D01*
X023850Y013842D02*
X023650Y013842D01*
X023469Y013743D02*
X024031Y013743D01*
X024260Y015418D02*
X030805Y015418D01*
X030805Y015516D02*
X024260Y015516D01*
X024260Y015615D02*
X030805Y015615D01*
X030805Y015713D02*
X024260Y015713D01*
X024260Y015812D02*
X030805Y015812D01*
X030805Y015910D02*
X024260Y015910D01*
X024260Y016009D02*
X030805Y016009D01*
X030805Y016107D02*
X024260Y016107D01*
X024260Y016206D02*
X030805Y016206D01*
X030805Y016304D02*
X024260Y016304D01*
X024260Y016403D02*
X030805Y016403D01*
X030805Y016501D02*
X024260Y016501D01*
X024260Y016600D02*
X030805Y016600D01*
X030805Y016698D02*
X024260Y016698D01*
X024260Y016797D02*
X030805Y016797D01*
X030805Y016895D02*
X024260Y016895D01*
X024260Y016994D02*
X030805Y016994D01*
X030805Y017092D02*
X024260Y017092D01*
X024260Y017191D02*
X030805Y017191D01*
X030805Y017289D02*
X024260Y017289D01*
X024260Y017388D02*
X030805Y017388D01*
X030805Y017486D02*
X024260Y017486D01*
X024260Y017585D02*
X030805Y017585D01*
X030805Y017683D02*
X024260Y017683D01*
X024260Y017782D02*
X030805Y017782D01*
X030805Y017880D02*
X024260Y017880D01*
X024260Y017979D02*
X030805Y017979D01*
X030805Y018077D02*
X024260Y018077D01*
X024260Y018176D02*
X030805Y018176D01*
X030805Y018274D02*
X024260Y018274D01*
X024260Y018373D02*
X030805Y018373D01*
X030805Y018471D02*
X024260Y018471D01*
X024260Y018570D02*
X030805Y018570D01*
X030805Y018668D02*
X024260Y018668D01*
X024260Y018767D02*
X030805Y018767D01*
X030805Y018865D02*
X024260Y018865D01*
X024260Y018964D02*
X024450Y018964D01*
X024317Y019062D02*
X024260Y019062D01*
X024750Y018964D02*
X030805Y018964D01*
X030805Y019062D02*
X024883Y019062D01*
X024941Y019161D02*
X030805Y019161D01*
X030805Y019259D02*
X024968Y019259D01*
X024968Y019358D02*
X030805Y019358D01*
X030805Y019456D02*
X024934Y019456D01*
X024866Y019555D02*
X030805Y019555D01*
X030805Y019653D02*
X024710Y019653D01*
X024710Y019752D02*
X030805Y019752D01*
X030805Y019850D02*
X025171Y019850D01*
X025265Y019949D02*
X030805Y019949D01*
X030805Y020047D02*
X025306Y020047D01*
X025318Y020146D02*
X030805Y020146D01*
X030805Y020244D02*
X025310Y020244D01*
X025269Y020343D02*
X030805Y020343D01*
X030805Y020441D02*
X025180Y020441D01*
X024729Y019850D02*
X024710Y019850D01*
X028410Y013842D02*
X028807Y013842D01*
X028766Y013743D02*
X028410Y013743D01*
X028410Y013645D02*
X028759Y013645D01*
X028760Y013546D02*
X028411Y013546D01*
X028428Y013448D02*
X028801Y013448D01*
X028862Y013349D02*
X028425Y013349D01*
X028384Y013251D02*
X028971Y013251D01*
X028875Y013152D02*
X028303Y013152D01*
X028620Y012530D02*
X028620Y011810D01*
X028840Y011590D01*
X029521Y011590D01*
X030226Y011675D02*
X030805Y011675D01*
X030805Y011773D02*
X030337Y011773D01*
X030399Y011872D02*
X030805Y011872D01*
X030805Y011970D02*
X030440Y011970D01*
X030805Y003499D02*
X000695Y003499D01*
X000695Y003401D02*
X030805Y003401D01*
X030805Y003302D02*
X000695Y003302D01*
X000695Y003204D02*
X030805Y003204D01*
X030805Y003105D02*
X000695Y003105D01*
X000695Y003007D02*
X030805Y003007D01*
X030805Y002908D02*
X000695Y002908D01*
X000695Y002810D02*
X030805Y002810D01*
X030805Y002711D02*
X000695Y002711D01*
X000695Y002613D02*
X030805Y002613D01*
X030805Y002514D02*
X000695Y002514D01*
X000695Y002416D02*
X030805Y002416D01*
X030805Y002317D02*
X000695Y002317D01*
X000695Y002219D02*
X030805Y002219D01*
X030805Y002120D02*
X000695Y002120D01*
X000695Y002022D02*
X030805Y002022D01*
X030805Y001923D02*
X000695Y001923D01*
X000695Y001825D02*
X030805Y001825D01*
X030805Y001726D02*
X028150Y001726D01*
X028356Y001628D02*
X030805Y001628D01*
X030805Y001529D02*
X028478Y001529D01*
X028525Y001431D02*
X030805Y001431D01*
X030805Y001332D02*
X028573Y001332D01*
X028595Y001234D02*
X030805Y001234D01*
X030805Y001135D02*
X028595Y001135D01*
X028595Y001037D02*
X030805Y001037D01*
X030805Y000938D02*
X028595Y000938D01*
X028595Y000840D02*
X030805Y000840D01*
X030805Y000741D02*
X028595Y000741D01*
X028595Y000643D02*
X030805Y000643D01*
X030805Y000544D02*
X028595Y000544D01*
X028595Y000446D02*
X030805Y000446D01*
X030805Y000347D02*
X028595Y000347D01*
X027405Y000347D02*
X000695Y000347D01*
X000695Y000446D02*
X027405Y000446D01*
X027405Y000544D02*
X000695Y000544D01*
X000695Y000643D02*
X027405Y000643D01*
X027405Y000741D02*
X000695Y000741D01*
X000695Y000840D02*
X027405Y000840D01*
X027405Y000938D02*
X000695Y000938D01*
X000695Y001037D02*
X027405Y001037D01*
X027405Y001135D02*
X000695Y001135D01*
X000695Y001234D02*
X027405Y001234D01*
X027427Y001332D02*
X000695Y001332D01*
X000695Y001431D02*
X027475Y001431D01*
X027522Y001529D02*
X000695Y001529D01*
X000695Y001628D02*
X027644Y001628D01*
X027523Y001531D02*
X027523Y001531D01*
X027850Y001726D02*
X000695Y001726D01*
X003050Y003696D02*
X003150Y003696D01*
X003150Y003795D02*
X003050Y003795D01*
X003050Y003893D02*
X003150Y003893D01*
X003150Y003992D02*
X003050Y003992D01*
X003050Y004090D02*
X003150Y004090D01*
X010600Y016698D02*
X010700Y016698D01*
X010700Y016797D02*
X010600Y016797D01*
X010600Y016895D02*
X010700Y016895D01*
X010700Y016994D02*
X010600Y016994D01*
X010600Y017092D02*
X010700Y017092D01*
X010700Y017388D02*
X010600Y017388D01*
X010600Y017486D02*
X010700Y017486D01*
X010700Y017585D02*
X010600Y017585D01*
X010600Y017683D02*
X010700Y017683D01*
X012751Y019555D02*
X012794Y019555D01*
X012810Y019653D02*
X012707Y019653D01*
X018226Y005272D02*
X018250Y005272D01*
X018344Y005174D02*
X018131Y005174D01*
X018919Y005174D02*
X019132Y005174D01*
X019037Y005272D02*
X019013Y005272D01*
X025746Y031178D02*
X025846Y031178D01*
X025846Y031276D02*
X025746Y031276D01*
X025746Y031375D02*
X025846Y031375D01*
X025846Y031473D02*
X025746Y031473D01*
X025746Y031572D02*
X025846Y031572D01*
X025846Y031670D02*
X025746Y031670D01*
X025746Y031966D02*
X025846Y031966D01*
X025846Y032064D02*
X025746Y032064D01*
X025746Y032163D02*
X025846Y032163D01*
X025846Y032261D02*
X025746Y032261D01*
X025746Y032360D02*
X025846Y032360D01*
X026322Y032360D02*
X026324Y032360D01*
X026412Y032261D02*
X026422Y032261D01*
X026419Y032163D02*
X026617Y032163D01*
X026419Y032064D02*
X027181Y032064D01*
X027181Y031966D02*
X026419Y031966D01*
X026419Y031867D02*
X027181Y031867D01*
X027181Y031670D02*
X026419Y031670D01*
X026419Y031572D02*
X027181Y031572D01*
X027181Y031473D02*
X026419Y031473D01*
X026419Y031375D02*
X027181Y031375D01*
X027181Y031276D02*
X026419Y031276D01*
X026385Y031178D02*
X027215Y031178D01*
X027754Y031178D02*
X027854Y031178D01*
X027854Y031276D02*
X027754Y031276D01*
X027754Y031375D02*
X027854Y031375D01*
X027854Y031473D02*
X027754Y031473D01*
X027754Y031572D02*
X027854Y031572D01*
X027854Y031867D02*
X027754Y031867D01*
X027754Y031966D02*
X027854Y031966D01*
X027854Y032064D02*
X027754Y032064D01*
X027754Y032163D02*
X027854Y032163D01*
X027854Y032261D02*
X027754Y032261D01*
X027754Y032360D02*
X027854Y032360D01*
X027278Y032360D02*
X027276Y032360D01*
X027188Y032261D02*
X027178Y032261D01*
X027181Y032163D02*
X026983Y032163D01*
X025846Y033148D02*
X025746Y033148D01*
X025746Y033246D02*
X025846Y033246D01*
X025846Y033345D02*
X025746Y033345D01*
X025746Y033443D02*
X025846Y033443D01*
X025846Y033542D02*
X025746Y033542D01*
X025746Y033640D02*
X025846Y033640D01*
X025846Y033936D02*
X025746Y033936D01*
X025746Y034034D02*
X025846Y034034D01*
X025846Y034133D02*
X025746Y034133D01*
X025746Y034231D02*
X025846Y034231D01*
X025846Y034330D02*
X025746Y034330D01*
X025215Y034330D02*
X023877Y034330D01*
X023778Y034231D02*
X025174Y034231D01*
X024071Y035118D02*
X023496Y035118D01*
X023602Y035019D02*
X023972Y035019D01*
X023874Y034921D02*
X023649Y034921D01*
X023668Y034822D02*
X023775Y034822D01*
X023677Y034724D02*
X023667Y034724D01*
D29*
X020050Y034050D03*
X016850Y030800D03*
X015900Y030550D03*
X015900Y031350D03*
X015900Y032150D03*
X015100Y032150D03*
X015100Y031350D03*
X015100Y030550D03*
X014300Y030550D03*
X014300Y031350D03*
X014300Y032150D03*
X013500Y032150D03*
X013500Y031350D03*
X013500Y030550D03*
X012400Y031050D03*
X012000Y031450D03*
X011600Y031050D03*
X011200Y031450D03*
X010800Y031050D03*
X010800Y031850D03*
X011200Y032250D03*
X010800Y032650D03*
X011600Y032650D03*
X012000Y032250D03*
X011600Y031850D03*
X012400Y031850D03*
X012400Y032650D03*
X011900Y035600D03*
X012950Y035600D03*
X017830Y029550D03*
X018550Y026250D03*
X017500Y025450D03*
X014650Y026900D03*
X012300Y027550D03*
X009500Y024700D03*
X008350Y023050D03*
X007100Y021700D03*
X007800Y026300D03*
X007850Y027100D03*
X008150Y027800D03*
X007000Y027350D03*
X012500Y023550D03*
X013650Y021850D03*
X023950Y026250D03*
D30*
X022760Y024450D03*
X023320Y024090D03*
X023760Y023790D03*
X024260Y023510D03*
X025050Y023050D03*
X025140Y021330D03*
X024950Y020150D03*
X024600Y019300D03*
X023180Y020850D03*
X021560Y020210D03*
X019520Y024130D03*
X017920Y024730D03*
X016980Y022710D03*
X016580Y022410D03*
X015960Y022450D03*
X015090Y022370D03*
X014900Y023450D03*
X014650Y023950D03*
X016730Y021070D03*
X017380Y022270D03*
X017860Y022550D03*
X016920Y016790D03*
X017160Y016050D03*
X015700Y013890D03*
X016300Y013250D03*
X011060Y011450D03*
X009740Y008650D03*
X009200Y008110D03*
X008440Y009910D03*
X007260Y011350D03*
X006600Y020350D03*
X006300Y034330D03*
X006300Y035270D03*
X020660Y029870D03*
X023260Y031990D03*
X023820Y031990D03*
X024420Y031990D03*
X024720Y032390D03*
X024720Y033230D03*
X024200Y033330D03*
X023300Y034800D03*
X025500Y034950D03*
X025940Y027370D03*
X027500Y022870D03*
X029280Y020850D03*
X028060Y013430D03*
X028620Y012530D03*
D31*
X028860Y020850D02*
X028560Y021150D01*
X028560Y024324D01*
X028554Y024330D01*
X028554Y024791D01*
X028550Y024796D01*
X028596Y024750D01*
X029350Y024750D01*
X029450Y024650D01*
X029750Y024650D01*
X029704Y025504D02*
X029850Y025650D01*
X029704Y025504D02*
X028550Y025504D01*
X028200Y025854D01*
X028200Y028310D01*
X028200Y028600D01*
X028400Y028800D01*
X029750Y028800D01*
X030000Y029050D01*
X030000Y029834D01*
X028554Y024330D02*
X028554Y024100D01*
X028860Y020850D02*
X029280Y020850D01*
X023950Y026250D02*
X018550Y026250D01*
X017750Y026250D01*
X017500Y026000D01*
X017500Y025450D01*
X015900Y030250D02*
X010500Y030250D01*
X010200Y030550D01*
X010200Y032950D01*
X010300Y033050D01*
X013900Y033050D01*
X014100Y033250D01*
X015700Y033250D01*
X016100Y032850D01*
X016100Y030450D01*
X015900Y030250D01*
X015915Y030265D02*
X010485Y030265D01*
X010326Y030424D02*
X016074Y030424D01*
X016100Y030582D02*
X010200Y030582D01*
X010200Y030741D02*
X016100Y030741D01*
X016100Y030899D02*
X010200Y030899D01*
X010200Y031058D02*
X016100Y031058D01*
X016100Y031216D02*
X010200Y031216D01*
X010200Y031375D02*
X016100Y031375D01*
X016100Y031533D02*
X010200Y031533D01*
X010200Y031692D02*
X016100Y031692D01*
X016100Y031850D02*
X010200Y031850D01*
X010200Y032009D02*
X016100Y032009D01*
X016100Y032167D02*
X010200Y032167D01*
X010200Y032326D02*
X016100Y032326D01*
X016100Y032484D02*
X010200Y032484D01*
X010200Y032643D02*
X016100Y032643D01*
X016100Y032801D02*
X010200Y032801D01*
X010210Y032960D02*
X015990Y032960D01*
X015832Y033118D02*
X013968Y033118D01*
D32*
X013700Y029450D02*
X016850Y029450D01*
X017600Y030200D01*
X017600Y033700D01*
X017950Y034050D01*
X020050Y034050D01*
X013700Y029450D02*
X013100Y028850D01*
X013100Y019450D01*
X012834Y019184D01*
X012050Y019184D01*
X012050Y018204D01*
X012050Y019184D02*
X012050Y019184D01*
X010650Y019184D01*
X011003Y020900D02*
X012034Y020900D01*
X012050Y020916D01*
X010097Y020900D02*
X007400Y020900D01*
X007150Y021150D01*
X007150Y021650D01*
X007100Y021700D01*
X007150Y021700D01*
X007500Y022050D01*
X007500Y024150D01*
X008000Y024650D01*
X009450Y024650D01*
X009500Y024700D01*
X009500Y029850D01*
X010150Y030500D01*
X010750Y030500D01*
X010850Y030400D01*
D33*
X012500Y023550D02*
X012500Y023250D01*
X012300Y023050D01*
X008350Y023050D01*
X015300Y023550D02*
X015360Y023490D01*
X015406Y023490D01*
X016580Y022410D02*
X016580Y022150D01*
X017120Y021610D01*
X017120Y016990D01*
X016920Y016790D01*
X017360Y016230D02*
X017160Y016050D01*
X017360Y016230D02*
X017360Y021710D01*
X016980Y022090D01*
X016980Y022710D01*
X017380Y022270D02*
X017400Y022270D01*
X017600Y022070D01*
X017600Y015790D01*
X017440Y015630D01*
X016200Y015630D01*
X015700Y015110D01*
X015700Y013890D01*
X016040Y013470D02*
X016260Y013250D01*
X016300Y013250D01*
X016040Y013470D02*
X016040Y015110D01*
X016320Y015390D01*
X017560Y015390D01*
X017860Y015690D01*
X017860Y022550D01*
X017160Y025450D02*
X017020Y025450D01*
X016960Y025510D01*
X016960Y025836D01*
X018400Y027250D02*
X018600Y027050D01*
X024150Y027050D01*
X024500Y026700D01*
X024500Y023430D01*
X024460Y023510D01*
X024260Y023510D01*
X024500Y023430D02*
X024500Y019400D01*
X024600Y019300D01*
X024950Y020150D02*
X024750Y020350D01*
X024750Y023150D01*
X024950Y023150D01*
X025050Y023050D01*
X024750Y023150D02*
X024750Y026800D01*
X024250Y027300D01*
X018750Y027300D01*
X018650Y027400D01*
X018650Y033000D01*
X018800Y033150D01*
X022000Y033150D01*
X022400Y033550D01*
X022400Y034150D01*
X022650Y034400D01*
X023650Y034400D01*
X024200Y034950D01*
X025500Y034950D01*
X023300Y034800D02*
X022450Y034800D01*
X022150Y034500D01*
X022150Y033650D01*
X021900Y033400D01*
X018600Y033400D01*
X018400Y033200D01*
X018400Y027250D01*
X022760Y024450D02*
X022760Y023270D01*
X023420Y022610D01*
X023420Y021090D01*
X023180Y020850D01*
X024980Y021490D02*
X025140Y021330D01*
X024980Y021490D02*
X024980Y022290D01*
X025480Y022790D01*
X025480Y025470D01*
X028380Y014110D02*
X028200Y013930D01*
X028200Y013570D01*
X028060Y013430D01*
X028380Y014110D02*
X030320Y014110D01*
X030460Y013970D01*
X030460Y013010D01*
X030300Y012850D01*
X029994Y012850D01*
D34*
X010800Y031850D02*
X009200Y031850D01*
X008860Y031510D01*
X008860Y025910D01*
X008420Y025470D01*
X007340Y025470D01*
X006400Y024530D01*
X006400Y020590D01*
X006600Y020390D01*
X006600Y020350D01*
D35*
X028194Y028316D02*
X028200Y028310D01*
X028194Y028316D02*
X028194Y028320D01*
X028400Y028800D02*
X028400Y029270D01*
X028290Y029380D01*
X028035Y029380D01*
M02*
