G75*
%MOIN*%
%OFA0B0*%
%FSLAX24Y24*%
%IPPOS*%
%LPD*%
%AMOC8*
5,1,8,0,0,1.08239X$1,22.5*
%
%ADD10C,0.0100*%
%ADD11C,0.0157*%
%ADD12C,0.0320*%
%ADD13R,0.0340X0.0300*%
%ADD14R,0.0079X0.0079*%
%ADD15R,0.0256X0.0551*%
%ADD16R,0.0028X0.0001*%
%ADD17R,0.0026X0.0001*%
%ADD18R,0.0042X0.0001*%
%ADD19R,0.0038X0.0001*%
%ADD20R,0.0053X0.0001*%
%ADD21R,0.0047X0.0001*%
%ADD22R,0.0060X0.0001*%
%ADD23R,0.0055X0.0001*%
%ADD24R,0.0068X0.0001*%
%ADD25R,0.0061X0.0001*%
%ADD26R,0.0049X0.0001*%
%ADD27R,0.0050X0.0001*%
%ADD28R,0.0051X0.0001*%
%ADD29R,0.0073X0.0001*%
%ADD30R,0.0046X0.0001*%
%ADD31R,0.0067X0.0001*%
%ADD32R,0.0032X0.0001*%
%ADD33R,0.0172X0.0001*%
%ADD34R,0.0056X0.0001*%
%ADD35R,0.0049X0.0001*%
%ADD36R,0.0050X0.0001*%
%ADD37R,0.0051X0.0001*%
%ADD38R,0.0079X0.0001*%
%ADD39R,0.0049X0.0001*%
%ADD40R,0.0047X0.0001*%
%ADD41R,0.0051X0.0001*%
%ADD42R,0.0072X0.0001*%
%ADD43R,0.0031X0.0001*%
%ADD44R,0.0172X0.0001*%
%ADD45R,0.0057X0.0001*%
%ADD46R,0.0084X0.0001*%
%ADD47R,0.0046X0.0001*%
%ADD48R,0.0077X0.0001*%
%ADD49R,0.0032X0.0001*%
%ADD50R,0.0058X0.0001*%
%ADD51R,0.0089X0.0001*%
%ADD52R,0.0081X0.0001*%
%ADD53R,0.0093X0.0001*%
%ADD54R,0.0085X0.0001*%
%ADD55R,0.0059X0.0001*%
%ADD56R,0.0048X0.0001*%
%ADD57R,0.0097X0.0001*%
%ADD58R,0.0053X0.0001*%
%ADD59R,0.0089X0.0001*%
%ADD60R,0.0033X0.0001*%
%ADD61R,0.0172X0.0001*%
%ADD62R,0.0060X0.0001*%
%ADD63R,0.0048X0.0001*%
%ADD64R,0.0101X0.0001*%
%ADD65R,0.0046X0.0001*%
%ADD66R,0.0092X0.0001*%
%ADD67R,0.0172X0.0001*%
%ADD68R,0.0105X0.0001*%
%ADD69R,0.0054X0.0001*%
%ADD70R,0.0096X0.0001*%
%ADD71R,0.0033X0.0001*%
%ADD72R,0.0108X0.0001*%
%ADD73R,0.0099X0.0001*%
%ADD74R,0.0062X0.0001*%
%ADD75R,0.0111X0.0001*%
%ADD76R,0.0056X0.0001*%
%ADD77R,0.0102X0.0001*%
%ADD78R,0.0061X0.0001*%
%ADD79R,0.0049X0.0001*%
%ADD80R,0.0115X0.0001*%
%ADD81R,0.0047X0.0001*%
%ADD82R,0.0105X0.0001*%
%ADD83R,0.0034X0.0001*%
%ADD84R,0.0062X0.0001*%
%ADD85R,0.0118X0.0001*%
%ADD86R,0.0034X0.0001*%
%ADD87R,0.0063X0.0001*%
%ADD88R,0.0121X0.0001*%
%ADD89R,0.0057X0.0001*%
%ADD90R,0.0110X0.0001*%
%ADD91R,0.0033X0.0001*%
%ADD92R,0.0123X0.0001*%
%ADD93R,0.0058X0.0001*%
%ADD94R,0.0113X0.0001*%
%ADD95R,0.0034X0.0001*%
%ADD96R,0.0064X0.0001*%
%ADD97R,0.0126X0.0001*%
%ADD98R,0.0115X0.0001*%
%ADD99R,0.0065X0.0001*%
%ADD100R,0.0047X0.0001*%
%ADD101R,0.0128X0.0001*%
%ADD102R,0.0059X0.0001*%
%ADD103R,0.0117X0.0001*%
%ADD104R,0.0034X0.0001*%
%ADD105R,0.0065X0.0001*%
%ADD106R,0.0131X0.0001*%
%ADD107R,0.0120X0.0001*%
%ADD108R,0.0035X0.0001*%
%ADD109R,0.0066X0.0001*%
%ADD110R,0.0134X0.0001*%
%ADD111R,0.0122X0.0001*%
%ADD112R,0.0067X0.0001*%
%ADD113R,0.0136X0.0001*%
%ADD114R,0.0124X0.0001*%
%ADD115R,0.0138X0.0001*%
%ADD116R,0.0127X0.0001*%
%ADD117R,0.0068X0.0001*%
%ADD118R,0.0140X0.0001*%
%ADD119R,0.0062X0.0001*%
%ADD120R,0.0129X0.0001*%
%ADD121R,0.0035X0.0001*%
%ADD122R,0.0069X0.0001*%
%ADD123R,0.0142X0.0001*%
%ADD124R,0.0062X0.0001*%
%ADD125R,0.0130X0.0001*%
%ADD126R,0.0036X0.0001*%
%ADD127R,0.0069X0.0001*%
%ADD128R,0.0048X0.0001*%
%ADD129R,0.0145X0.0001*%
%ADD130R,0.0132X0.0001*%
%ADD131R,0.0070X0.0001*%
%ADD132R,0.0147X0.0001*%
%ADD133R,0.0071X0.0001*%
%ADD134R,0.0148X0.0001*%
%ADD135R,0.0137X0.0001*%
%ADD136R,0.0150X0.0001*%
%ADD137R,0.0064X0.0001*%
%ADD138R,0.0138X0.0001*%
%ADD139R,0.0036X0.0001*%
%ADD140R,0.0072X0.0001*%
%ADD141R,0.0152X0.0001*%
%ADD142R,0.0140X0.0001*%
%ADD143R,0.0154X0.0001*%
%ADD144R,0.0066X0.0001*%
%ADD145R,0.0178X0.0001*%
%ADD146R,0.0156X0.0001*%
%ADD147R,0.0179X0.0001*%
%ADD148R,0.0073X0.0001*%
%ADD149R,0.0157X0.0001*%
%ADD150R,0.0180X0.0001*%
%ADD151R,0.0074X0.0001*%
%ADD152R,0.0159X0.0001*%
%ADD153R,0.0046X0.0001*%
%ADD154R,0.0067X0.0001*%
%ADD155R,0.0181X0.0001*%
%ADD156R,0.0074X0.0001*%
%ADD157R,0.0160X0.0001*%
%ADD158R,0.0181X0.0001*%
%ADD159R,0.0075X0.0001*%
%ADD160R,0.0163X0.0001*%
%ADD161R,0.0183X0.0001*%
%ADD162R,0.0076X0.0001*%
%ADD163R,0.0164X0.0001*%
%ADD164R,0.0077X0.0001*%
%ADD165R,0.0165X0.0001*%
%ADD166R,0.0184X0.0001*%
%ADD167R,0.0167X0.0001*%
%ADD168R,0.0070X0.0001*%
%ADD169R,0.0185X0.0001*%
%ADD170R,0.0078X0.0001*%
%ADD171R,0.0168X0.0001*%
%ADD172R,0.0071X0.0001*%
%ADD173R,0.0185X0.0001*%
%ADD174R,0.0169X0.0001*%
%ADD175R,0.0186X0.0001*%
%ADD176R,0.0171X0.0001*%
%ADD177R,0.0187X0.0001*%
%ADD178R,0.0080X0.0001*%
%ADD179R,0.0087X0.0001*%
%ADD180R,0.0073X0.0001*%
%ADD181R,0.0069X0.0001*%
%ADD182R,0.0082X0.0001*%
%ADD183R,0.0081X0.0001*%
%ADD184R,0.0082X0.0001*%
%ADD185R,0.0083X0.0001*%
%ADD186R,0.0074X0.0001*%
%ADD187R,0.0048X0.0001*%
%ADD188R,0.0077X0.0001*%
%ADD189R,0.0084X0.0001*%
%ADD190R,0.0059X0.0001*%
%ADD191R,0.0078X0.0001*%
%ADD192R,0.0086X0.0001*%
%ADD193R,0.0057X0.0001*%
%ADD194R,0.0079X0.0001*%
%ADD195R,0.0087X0.0001*%
%ADD196R,0.0088X0.0001*%
%ADD197R,0.0090X0.0001*%
%ADD198R,0.0090X0.0001*%
%ADD199R,0.0083X0.0001*%
%ADD200R,0.0091X0.0001*%
%ADD201R,0.0053X0.0001*%
%ADD202R,0.0056X0.0001*%
%ADD203R,0.0052X0.0001*%
%ADD204R,0.0055X0.0001*%
%ADD205R,0.0052X0.0001*%
%ADD206R,0.0085X0.0001*%
%ADD207R,0.0054X0.0001*%
%ADD208R,0.0093X0.0001*%
%ADD209R,0.0052X0.0001*%
%ADD210R,0.0094X0.0001*%
%ADD211R,0.0095X0.0001*%
%ADD212R,0.0088X0.0001*%
%ADD213R,0.0052X0.0001*%
%ADD214R,0.0096X0.0001*%
%ADD215R,0.0097X0.0001*%
%ADD216R,0.0089X0.0001*%
%ADD217R,0.0098X0.0001*%
%ADD218R,0.0091X0.0001*%
%ADD219R,0.0100X0.0001*%
%ADD220R,0.0091X0.0001*%
%ADD221R,0.0100X0.0001*%
%ADD222R,0.0094X0.0001*%
%ADD223R,0.0096X0.0001*%
%ADD224R,0.0045X0.0001*%
%ADD225R,0.0045X0.0001*%
%ADD226R,0.0176X0.0001*%
%ADD227R,0.0176X0.0001*%
%ADD228R,0.0174X0.0001*%
%ADD229R,0.0173X0.0001*%
%ADD230R,0.0095X0.0001*%
%ADD231R,0.0170X0.0001*%
%ADD232R,0.0159X0.0001*%
%ADD233R,0.0160X0.0001*%
%ADD234R,0.0167X0.0001*%
%ADD235R,0.0166X0.0001*%
%ADD236R,0.0162X0.0001*%
%ADD237R,0.0158X0.0001*%
%ADD238R,0.0153X0.0001*%
%ADD239R,0.0156X0.0001*%
%ADD240R,0.0159X0.0001*%
%ADD241R,0.0157X0.0001*%
%ADD242R,0.0161X0.0001*%
%ADD243R,0.0164X0.0001*%
%ADD244R,0.0168X0.0001*%
%ADD245R,0.0170X0.0001*%
%ADD246R,0.0175X0.0001*%
%ADD247R,0.0159X0.0001*%
%ADD248R,0.0175X0.0001*%
%ADD249R,0.0176X0.0001*%
%ADD250R,0.0092X0.0001*%
%ADD251R,0.0054X0.0001*%
%ADD252R,0.0051X0.0001*%
%ADD253R,0.0091X0.0001*%
%ADD254R,0.0053X0.0001*%
%ADD255R,0.0088X0.0001*%
%ADD256R,0.0079X0.0001*%
%ADD257R,0.0087X0.0001*%
%ADD258R,0.0058X0.0001*%
%ADD259R,0.0083X0.0001*%
%ADD260R,0.0063X0.0001*%
%ADD261R,0.0076X0.0001*%
%ADD262R,0.0064X0.0001*%
%ADD263R,0.0063X0.0001*%
%ADD264R,0.0076X0.0001*%
%ADD265R,0.0082X0.0001*%
%ADD266R,0.0169X0.0001*%
%ADD267R,0.0067X0.0001*%
%ADD268R,0.0184X0.0001*%
%ADD269R,0.0080X0.0001*%
%ADD270R,0.0071X0.0001*%
%ADD271R,0.0169X0.0001*%
%ADD272R,0.0183X0.0001*%
%ADD273R,0.0182X0.0001*%
%ADD274R,0.0182X0.0001*%
%ADD275R,0.0076X0.0001*%
%ADD276R,0.0168X0.0001*%
%ADD277R,0.0071X0.0001*%
%ADD278R,0.0166X0.0001*%
%ADD279R,0.0181X0.0001*%
%ADD280R,0.0179X0.0001*%
%ADD281R,0.0073X0.0001*%
%ADD282R,0.0162X0.0001*%
%ADD283R,0.0179X0.0001*%
%ADD284R,0.0068X0.0001*%
%ADD285R,0.0072X0.0001*%
%ADD286R,0.0178X0.0001*%
%ADD287R,0.0177X0.0001*%
%ADD288R,0.0155X0.0001*%
%ADD289R,0.0154X0.0001*%
%ADD290R,0.0152X0.0001*%
%ADD291R,0.0151X0.0001*%
%ADD292R,0.0150X0.0001*%
%ADD293R,0.0149X0.0001*%
%ADD294R,0.0146X0.0001*%
%ADD295R,0.0173X0.0001*%
%ADD296R,0.0146X0.0001*%
%ADD297R,0.0144X0.0001*%
%ADD298R,0.0143X0.0001*%
%ADD299R,0.0171X0.0001*%
%ADD300R,0.0142X0.0001*%
%ADD301R,0.0061X0.0001*%
%ADD302R,0.0141X0.0001*%
%ADD303R,0.0139X0.0001*%
%ADD304R,0.0139X0.0001*%
%ADD305R,0.0135X0.0001*%
%ADD306R,0.0133X0.0001*%
%ADD307R,0.0167X0.0001*%
%ADD308R,0.0130X0.0001*%
%ADD309R,0.0058X0.0001*%
%ADD310R,0.0129X0.0001*%
%ADD311R,0.0169X0.0001*%
%ADD312R,0.0127X0.0001*%
%ADD313R,0.0125X0.0001*%
%ADD314R,0.0122X0.0001*%
%ADD315R,0.0161X0.0001*%
%ADD316R,0.0119X0.0001*%
%ADD317R,0.0116X0.0001*%
%ADD318R,0.0158X0.0001*%
%ADD319R,0.0113X0.0001*%
%ADD320R,0.0109X0.0001*%
%ADD321R,0.0107X0.0001*%
%ADD322R,0.0103X0.0001*%
%ADD323R,0.0102X0.0001*%
%ADD324R,0.0098X0.0001*%
%ADD325R,0.0143X0.0001*%
%ADD326R,0.0087X0.0001*%
%ADD327R,0.0133X0.0001*%
%ADD328R,0.0038X0.0001*%
%ADD329R,0.0038X0.0001*%
%ADD330R,0.0023X0.0001*%
%ADD331R,0.0022X0.0001*%
%ADD332R,0.0002X0.0001*%
D10*
X000500Y000180D02*
X000500Y039180D01*
X027600Y039180D01*
X027600Y038280D01*
X027602Y038241D01*
X027608Y038202D01*
X027617Y038164D01*
X027630Y038127D01*
X027647Y038091D01*
X027667Y038058D01*
X027691Y038026D01*
X027717Y037997D01*
X027746Y037971D01*
X027778Y037947D01*
X027811Y037927D01*
X027847Y037910D01*
X027884Y037897D01*
X027922Y037888D01*
X027961Y037882D01*
X028000Y037880D01*
X028039Y037882D01*
X028078Y037888D01*
X028116Y037897D01*
X028153Y037910D01*
X028189Y037927D01*
X028222Y037947D01*
X028254Y037971D01*
X028283Y037997D01*
X028309Y038026D01*
X028333Y038058D01*
X028353Y038091D01*
X028370Y038127D01*
X028383Y038164D01*
X028392Y038202D01*
X028398Y038241D01*
X028400Y038280D01*
X028400Y039180D01*
X031000Y039180D01*
X031000Y000180D01*
X028400Y000180D01*
X028400Y001180D01*
X028398Y001219D01*
X028392Y001258D01*
X028383Y001296D01*
X028370Y001333D01*
X028353Y001369D01*
X028333Y001402D01*
X028309Y001434D01*
X028283Y001463D01*
X028254Y001489D01*
X028222Y001513D01*
X028189Y001533D01*
X028153Y001550D01*
X028116Y001563D01*
X028078Y001572D01*
X028039Y001578D01*
X028000Y001580D01*
X027961Y001578D01*
X027922Y001572D01*
X027884Y001563D01*
X027847Y001550D01*
X027811Y001533D01*
X027778Y001513D01*
X027746Y001489D01*
X027717Y001463D01*
X027691Y001434D01*
X027667Y001402D01*
X027647Y001369D01*
X027630Y001333D01*
X027617Y001296D01*
X027608Y001258D01*
X027602Y001219D01*
X027600Y001180D01*
X027600Y000180D01*
X000500Y000180D01*
X006258Y004021D02*
X006325Y003954D01*
X006592Y003954D01*
X006659Y004021D01*
X006659Y004154D01*
X006592Y004221D01*
X006592Y004414D02*
X006659Y004481D01*
X006659Y004614D01*
X006592Y004681D01*
X006525Y004681D01*
X006459Y004614D01*
X006459Y004548D01*
X006459Y004614D02*
X006392Y004681D01*
X006325Y004681D01*
X006258Y004614D01*
X006258Y004481D01*
X006325Y004414D01*
X006325Y004221D02*
X006258Y004154D01*
X006258Y004021D01*
X006868Y003916D02*
X006868Y003483D01*
X007025Y003326D01*
X007655Y003326D01*
X007812Y003483D01*
X007812Y003916D01*
X007740Y004160D02*
X006940Y004160D01*
X006868Y004704D02*
X006868Y005294D01*
X007812Y005294D01*
X007812Y004704D01*
X008226Y005190D02*
X008159Y005257D01*
X008159Y005590D01*
X008165Y005805D02*
X008165Y006205D01*
X008365Y006205D01*
X008432Y006139D01*
X008432Y006005D01*
X008365Y005938D01*
X008165Y005938D01*
X008298Y005938D02*
X008432Y005805D01*
X008625Y005872D02*
X008692Y005805D01*
X008826Y005805D01*
X008892Y005872D01*
X008892Y005938D01*
X008826Y006005D01*
X008759Y006005D01*
X008826Y006005D02*
X008892Y006072D01*
X008892Y006139D01*
X008826Y006205D01*
X008692Y006205D01*
X008625Y006139D01*
X009086Y006139D02*
X009086Y006072D01*
X009153Y006005D01*
X009286Y006005D01*
X009353Y005938D01*
X009353Y005872D01*
X009286Y005805D01*
X009153Y005805D01*
X009086Y005872D01*
X009086Y005938D01*
X009153Y006005D01*
X009286Y006005D02*
X009353Y006072D01*
X009353Y006139D01*
X009286Y006205D01*
X009153Y006205D01*
X009086Y006139D01*
X009280Y005590D02*
X009080Y005390D01*
X009346Y005390D01*
X009280Y005190D02*
X009280Y005590D01*
X009625Y005950D02*
X009625Y006350D01*
X009825Y006350D01*
X009892Y006284D01*
X009892Y006150D01*
X009825Y006083D01*
X009625Y006083D01*
X009758Y006083D02*
X009892Y005950D01*
X010085Y006017D02*
X010152Y005950D01*
X010286Y005950D01*
X010352Y006017D01*
X010352Y006083D01*
X010286Y006150D01*
X010219Y006150D01*
X010286Y006150D02*
X010352Y006217D01*
X010352Y006284D01*
X010286Y006350D01*
X010152Y006350D01*
X010085Y006284D01*
X009977Y005711D02*
X010213Y005711D01*
X010546Y005950D02*
X010546Y006017D01*
X010813Y006284D01*
X010813Y006350D01*
X010546Y006350D01*
X010213Y005239D02*
X009977Y005239D01*
X010031Y004935D02*
X010369Y004935D01*
X009881Y004481D02*
X009881Y004269D01*
X010031Y003815D02*
X010369Y003815D01*
X010198Y003566D02*
X009962Y003566D01*
X009962Y003094D02*
X010198Y003094D01*
X010182Y002815D02*
X010316Y002815D01*
X010382Y002749D01*
X010382Y002682D01*
X010316Y002615D01*
X010382Y002548D01*
X010382Y002482D01*
X010316Y002415D01*
X010182Y002415D01*
X010115Y002482D01*
X010249Y002615D02*
X010316Y002615D01*
X010182Y002815D02*
X010115Y002749D01*
X009922Y002749D02*
X009922Y002615D01*
X009855Y002548D01*
X009655Y002548D01*
X009655Y002415D02*
X009655Y002815D01*
X009855Y002815D01*
X009922Y002749D01*
X009788Y002548D02*
X009922Y002415D01*
X010576Y002415D02*
X010843Y002415D01*
X010709Y002415D02*
X010709Y002815D01*
X010576Y002682D01*
X011445Y002734D02*
X011445Y002934D01*
X011511Y003001D01*
X011645Y003001D01*
X011712Y002934D01*
X011712Y002734D01*
X011845Y002734D02*
X011445Y002734D01*
X011712Y002867D02*
X011845Y003001D01*
X011778Y003194D02*
X011845Y003261D01*
X011845Y003394D01*
X011778Y003461D01*
X011712Y003461D01*
X011645Y003394D01*
X011645Y003328D01*
X011645Y003394D02*
X011578Y003461D01*
X011511Y003461D01*
X011445Y003394D01*
X011445Y003261D01*
X011511Y003194D01*
X011645Y003655D02*
X011445Y003855D01*
X011845Y003855D01*
X011645Y003921D02*
X011645Y003655D01*
X012188Y003588D02*
X012345Y003431D01*
X012975Y003431D01*
X013132Y003588D01*
X013132Y004021D01*
X013060Y004265D02*
X012260Y004265D01*
X012188Y004021D02*
X012188Y003588D01*
X011726Y004537D02*
X011726Y004773D01*
X011254Y004773D02*
X011254Y004537D01*
X012188Y004809D02*
X012188Y005399D01*
X013132Y005399D01*
X013132Y004809D01*
X013428Y004791D02*
X013495Y004725D01*
X013562Y004725D01*
X013629Y004791D01*
X013629Y004925D01*
X013695Y004991D01*
X013762Y004991D01*
X013829Y004925D01*
X013829Y004791D01*
X013762Y004725D01*
X013695Y004725D01*
X013629Y004791D01*
X013629Y004925D02*
X013562Y004991D01*
X013495Y004991D01*
X013428Y004925D01*
X013428Y004791D01*
X013495Y004531D02*
X013562Y004531D01*
X013629Y004464D01*
X013695Y004531D01*
X013762Y004531D01*
X013829Y004464D01*
X013829Y004331D01*
X013762Y004264D01*
X013629Y004398D02*
X013629Y004464D01*
X013495Y004531D02*
X013428Y004464D01*
X013428Y004331D01*
X013495Y004264D01*
X013495Y004071D02*
X013428Y004004D01*
X013428Y003871D01*
X013495Y003804D01*
X013762Y003804D01*
X013829Y003871D01*
X013829Y004004D01*
X013762Y004071D01*
X014019Y005340D02*
X014019Y012781D01*
X028035Y012781D01*
X028035Y005340D01*
X014019Y005340D01*
X011615Y007925D02*
X011715Y008025D01*
X011715Y010425D01*
X011615Y010525D01*
X009415Y010525D01*
X009315Y010425D01*
X009315Y008025D01*
X009415Y007925D01*
X011615Y007925D01*
X011924Y008712D02*
X011924Y008948D01*
X012396Y008948D02*
X012396Y008712D01*
X012233Y009605D02*
X011966Y009605D01*
X011900Y009672D01*
X011900Y009805D01*
X011966Y009872D01*
X011966Y010065D02*
X011900Y010132D01*
X011900Y010266D01*
X011966Y010332D01*
X012033Y010332D01*
X012100Y010266D01*
X012167Y010332D01*
X012233Y010332D01*
X012300Y010266D01*
X012300Y010132D01*
X012233Y010065D01*
X012100Y010199D02*
X012100Y010266D01*
X012233Y010526D02*
X012300Y010593D01*
X012300Y010726D01*
X012233Y010793D01*
X012167Y010793D01*
X012100Y010726D01*
X012100Y010659D01*
X012100Y010726D02*
X012033Y010793D01*
X011966Y010793D01*
X011900Y010726D01*
X011900Y010593D01*
X011966Y010526D01*
X012233Y009872D02*
X012300Y009805D01*
X012300Y009672D01*
X012233Y009605D01*
X010465Y009425D02*
X010467Y009438D01*
X010472Y009451D01*
X010481Y009462D01*
X010492Y009469D01*
X010505Y009474D01*
X010518Y009475D01*
X010532Y009472D01*
X010544Y009466D01*
X010554Y009457D01*
X010561Y009445D01*
X010565Y009432D01*
X010565Y009418D01*
X010561Y009405D01*
X010554Y009393D01*
X010544Y009384D01*
X010532Y009378D01*
X010518Y009375D01*
X010505Y009376D01*
X010492Y009381D01*
X010481Y009388D01*
X010472Y009399D01*
X010467Y009412D01*
X010465Y009425D01*
X010226Y010775D02*
X010092Y010775D01*
X010025Y010842D01*
X010025Y010975D02*
X010159Y011042D01*
X010226Y011042D01*
X010292Y010975D01*
X010292Y010842D01*
X010226Y010775D01*
X010025Y010975D02*
X010025Y011175D01*
X010292Y011175D01*
X010384Y011410D02*
X010384Y011488D01*
X010384Y011410D02*
X008415Y011410D01*
X008415Y011488D01*
X008880Y010505D02*
X006680Y010505D01*
X006580Y010405D01*
X006580Y008005D01*
X006680Y007905D01*
X008880Y007905D01*
X008980Y008005D01*
X008980Y010405D01*
X008880Y010505D01*
X009565Y010775D02*
X009565Y011175D01*
X009565Y010775D02*
X009832Y010775D01*
X007730Y009405D02*
X007732Y009418D01*
X007737Y009431D01*
X007746Y009442D01*
X007757Y009449D01*
X007770Y009454D01*
X007783Y009455D01*
X007797Y009452D01*
X007809Y009446D01*
X007819Y009437D01*
X007826Y009425D01*
X007830Y009412D01*
X007830Y009398D01*
X007826Y009385D01*
X007819Y009373D01*
X007809Y009364D01*
X007797Y009358D01*
X007783Y009355D01*
X007770Y009356D01*
X007757Y009361D01*
X007746Y009368D01*
X007737Y009379D01*
X007732Y009392D01*
X007730Y009405D01*
X006360Y009427D02*
X006360Y009560D01*
X006293Y009627D01*
X006293Y009820D02*
X006360Y009887D01*
X006360Y010021D01*
X006293Y010087D01*
X006227Y010087D01*
X006160Y010021D01*
X006160Y009954D01*
X006160Y010021D02*
X006093Y010087D01*
X006026Y010087D01*
X005960Y010021D01*
X005960Y009887D01*
X006026Y009820D01*
X006026Y009627D02*
X005960Y009560D01*
X005960Y009427D01*
X006026Y009360D01*
X006293Y009360D01*
X006360Y009427D01*
X006391Y008693D02*
X006391Y008457D01*
X005919Y008457D02*
X005919Y008693D01*
X006160Y010281D02*
X006160Y010548D01*
X006360Y010481D02*
X005960Y010481D01*
X006160Y010281D01*
X006765Y010780D02*
X007032Y010780D01*
X007225Y010847D02*
X007292Y010780D01*
X007426Y010780D01*
X007492Y010847D01*
X007492Y010913D01*
X007426Y010980D01*
X007359Y010980D01*
X007426Y010980D02*
X007492Y011047D01*
X007492Y011114D01*
X007426Y011180D01*
X007292Y011180D01*
X007225Y011114D01*
X006765Y011180D02*
X006765Y010780D01*
X008415Y013732D02*
X008415Y013811D01*
X009163Y013811D01*
X009165Y013784D01*
X009170Y013758D01*
X009179Y013733D01*
X009192Y013709D01*
X009207Y013687D01*
X009226Y013667D01*
X009246Y013650D01*
X009269Y013636D01*
X009294Y013625D01*
X009320Y013618D01*
X009347Y013614D01*
X009373Y013614D01*
X009400Y013618D01*
X009426Y013625D01*
X009451Y013636D01*
X009474Y013650D01*
X009494Y013667D01*
X009513Y013687D01*
X009528Y013709D01*
X009541Y013733D01*
X009550Y013758D01*
X009555Y013784D01*
X009557Y013811D01*
X010384Y013811D01*
X010384Y013732D01*
X009941Y014220D02*
X009807Y014220D01*
X009740Y014287D01*
X009874Y014420D02*
X009941Y014420D01*
X010007Y014353D01*
X010007Y014287D01*
X009941Y014220D01*
X009941Y014420D02*
X010007Y014487D01*
X010007Y014554D01*
X009941Y014620D01*
X009807Y014620D01*
X009740Y014554D01*
X009547Y014620D02*
X009547Y014287D01*
X009480Y014220D01*
X009347Y014220D01*
X009280Y014287D01*
X009280Y014620D01*
X009053Y014640D02*
X008786Y014640D01*
X008919Y014640D02*
X008919Y015040D01*
X008786Y014907D01*
X008592Y014640D02*
X008325Y014640D01*
X008459Y014640D02*
X008459Y015040D01*
X008325Y014907D01*
X008132Y014974D02*
X008132Y014840D01*
X008065Y014773D01*
X007865Y014773D01*
X007865Y014640D02*
X007865Y015040D01*
X008065Y015040D01*
X008132Y014974D01*
X007998Y014773D02*
X008132Y014640D01*
X008252Y014466D02*
X008488Y014466D01*
X008488Y013994D02*
X008252Y013994D01*
X007243Y013989D02*
X007007Y013989D01*
X007007Y014461D02*
X007243Y014461D01*
X007287Y014655D02*
X007421Y014655D01*
X007487Y014722D01*
X007487Y014989D01*
X007421Y015055D01*
X007287Y015055D01*
X007220Y014989D01*
X007220Y014922D01*
X007287Y014855D01*
X007487Y014855D01*
X007287Y014655D02*
X007220Y014722D01*
X007027Y014655D02*
X006893Y014788D01*
X006960Y014788D02*
X006760Y014788D01*
X006760Y014655D02*
X006760Y015055D01*
X006960Y015055D01*
X007027Y014989D01*
X007027Y014855D01*
X006960Y014788D01*
X006997Y015399D02*
X007233Y015399D01*
X007233Y015871D02*
X006997Y015871D01*
X007072Y016040D02*
X006938Y016173D01*
X007005Y016173D02*
X006805Y016173D01*
X006805Y016040D02*
X006805Y016440D01*
X007005Y016440D01*
X007072Y016374D01*
X007072Y016240D01*
X007005Y016173D01*
X007265Y016107D02*
X007265Y016040D01*
X007265Y016107D02*
X007532Y016374D01*
X007532Y016440D01*
X007265Y016440D01*
X007111Y016705D02*
X007111Y017105D01*
X006910Y016905D01*
X007177Y016905D01*
X007371Y016772D02*
X007638Y017039D01*
X007638Y016772D01*
X007571Y016705D01*
X007438Y016705D01*
X007371Y016772D01*
X007371Y017039D01*
X007438Y017105D01*
X007571Y017105D01*
X007638Y017039D01*
X007342Y017345D02*
X008011Y017345D01*
X008232Y017151D02*
X008468Y017151D01*
X008759Y017345D02*
X009625Y017345D01*
X009625Y018585D01*
X008759Y018585D01*
X008615Y018855D02*
X010035Y018855D01*
X010592Y018536D02*
X010828Y018536D01*
X010828Y018064D02*
X010592Y018064D01*
X010704Y017880D02*
X010704Y017480D01*
X010837Y017480D02*
X010570Y017480D01*
X010377Y017547D02*
X010310Y017480D01*
X010177Y017480D01*
X010110Y017547D01*
X010110Y017814D01*
X010177Y017880D01*
X010310Y017880D01*
X010377Y017814D01*
X010570Y017747D02*
X010704Y017880D01*
X011031Y017814D02*
X011098Y017880D01*
X011231Y017880D01*
X011298Y017814D01*
X011298Y017747D01*
X011231Y017680D01*
X011298Y017613D01*
X011298Y017547D01*
X011231Y017480D01*
X011098Y017480D01*
X011031Y017547D01*
X011164Y017680D02*
X011231Y017680D01*
X011495Y017256D02*
X011495Y016990D01*
X011695Y016990D01*
X011628Y017123D01*
X011628Y017190D01*
X011695Y017256D01*
X011828Y017256D01*
X011895Y017190D01*
X011895Y017056D01*
X011828Y016990D01*
X011828Y016796D02*
X011895Y016729D01*
X011895Y016596D01*
X011828Y016529D01*
X011695Y016663D02*
X011695Y016729D01*
X011762Y016796D01*
X011828Y016796D01*
X011695Y016729D02*
X011628Y016796D01*
X011561Y016796D01*
X011495Y016729D01*
X011495Y016596D01*
X011561Y016529D01*
X011561Y016336D02*
X011495Y016269D01*
X011495Y016136D01*
X011561Y016069D01*
X011828Y016069D01*
X011895Y016136D01*
X011895Y016269D01*
X011828Y016336D01*
X012074Y016562D02*
X012074Y016798D01*
X012546Y016798D02*
X012546Y016562D01*
X012687Y015181D02*
X012923Y015181D01*
X012923Y014709D02*
X012687Y014709D01*
X012697Y014501D02*
X012933Y014501D01*
X012933Y014029D02*
X012697Y014029D01*
X012707Y013856D02*
X012943Y013856D01*
X012943Y013384D02*
X012707Y013384D01*
X013580Y013440D02*
X013580Y013840D01*
X013780Y013840D01*
X013847Y013774D01*
X013847Y013640D01*
X013780Y013573D01*
X013580Y013573D01*
X013713Y013573D02*
X013847Y013440D01*
X014040Y013507D02*
X014107Y013440D01*
X014241Y013440D01*
X014307Y013507D01*
X014307Y013640D01*
X014241Y013707D01*
X014174Y013707D01*
X014040Y013640D01*
X014040Y013840D01*
X014307Y013840D01*
X014436Y014085D02*
X014703Y014085D01*
X014569Y014085D02*
X014569Y014485D01*
X014436Y014352D01*
X014242Y014352D02*
X014176Y014285D01*
X014242Y014218D01*
X014242Y014152D01*
X014176Y014085D01*
X014042Y014085D01*
X013975Y014152D01*
X014109Y014285D02*
X014176Y014285D01*
X014242Y014352D02*
X014242Y014419D01*
X014176Y014485D01*
X014042Y014485D01*
X013975Y014419D01*
X013782Y014419D02*
X013715Y014485D01*
X013582Y014485D01*
X013515Y014419D01*
X013515Y014152D01*
X013582Y014085D01*
X013715Y014085D01*
X013782Y014152D01*
X013700Y014760D02*
X013767Y014827D01*
X013700Y014760D02*
X013567Y014760D01*
X013500Y014827D01*
X013500Y015094D01*
X013567Y015160D01*
X013700Y015160D01*
X013767Y015094D01*
X013960Y015094D02*
X014027Y015160D01*
X014161Y015160D01*
X014227Y015094D01*
X014227Y015027D01*
X014161Y014960D01*
X014227Y014893D01*
X014227Y014827D01*
X014161Y014760D01*
X014027Y014760D01*
X013960Y014827D01*
X014094Y014960D02*
X014161Y014960D01*
X014421Y015094D02*
X014488Y015160D01*
X014621Y015160D01*
X014688Y015094D01*
X014688Y015027D01*
X014421Y014760D01*
X014688Y014760D01*
X015419Y014313D02*
X015419Y014077D01*
X015891Y014077D02*
X015891Y014313D01*
X016165Y014291D02*
X016365Y014090D01*
X016365Y014357D01*
X016565Y014291D02*
X016165Y014291D01*
X016231Y014551D02*
X016165Y014618D01*
X016165Y014751D01*
X016231Y014818D01*
X016298Y014818D01*
X016565Y014551D01*
X016565Y014818D01*
X016498Y013897D02*
X016565Y013830D01*
X016565Y013697D01*
X016498Y013630D01*
X016231Y013630D01*
X016165Y013697D01*
X016165Y013830D01*
X016231Y013897D01*
X016025Y015925D02*
X017445Y015925D01*
X017068Y016145D02*
X017070Y016160D01*
X017076Y016173D01*
X017085Y016185D01*
X017096Y016194D01*
X017110Y016200D01*
X017125Y016202D01*
X017140Y016200D01*
X017153Y016194D01*
X017165Y016185D01*
X017174Y016174D01*
X017180Y016160D01*
X017182Y016145D01*
X017180Y016130D01*
X017174Y016117D01*
X017165Y016105D01*
X017154Y016096D01*
X017140Y016090D01*
X017125Y016088D01*
X017110Y016090D01*
X017097Y016096D01*
X017085Y016105D01*
X017076Y016116D01*
X017070Y016130D01*
X017068Y016145D01*
X018544Y016112D02*
X018544Y016348D01*
X019016Y016348D02*
X019016Y016112D01*
X019245Y016043D02*
X019645Y016043D01*
X019645Y016176D02*
X019645Y015909D01*
X019578Y015716D02*
X019645Y015649D01*
X019645Y015516D01*
X019578Y015449D01*
X019311Y015449D01*
X019245Y015516D01*
X019245Y015649D01*
X019311Y015716D01*
X019378Y015909D02*
X019245Y016043D01*
X019311Y016370D02*
X019245Y016436D01*
X019245Y016570D01*
X019311Y016636D01*
X019378Y016636D01*
X019645Y016370D01*
X019645Y016636D01*
X019585Y017035D02*
X019185Y017035D01*
X019185Y017235D01*
X019251Y017302D01*
X019385Y017302D01*
X019452Y017235D01*
X019452Y017035D01*
X019452Y017168D02*
X019585Y017302D01*
X019585Y017495D02*
X019585Y017762D01*
X019585Y017629D02*
X019185Y017629D01*
X019318Y017495D01*
X019016Y017578D02*
X019016Y017342D01*
X018544Y017342D02*
X018544Y017578D01*
X019185Y018023D02*
X019251Y017956D01*
X019185Y018023D02*
X019185Y018156D01*
X019251Y018223D01*
X019318Y018223D01*
X019585Y017956D01*
X019585Y018223D01*
X020127Y018765D02*
X020260Y018765D01*
X020327Y018832D01*
X020327Y019165D01*
X020520Y019099D02*
X020520Y019032D01*
X020587Y018965D01*
X020721Y018965D01*
X020787Y018898D01*
X020787Y018832D01*
X020721Y018765D01*
X020587Y018765D01*
X020520Y018832D01*
X020520Y018898D01*
X020587Y018965D01*
X020721Y018965D02*
X020787Y019032D01*
X020787Y019099D01*
X020721Y019165D01*
X020587Y019165D01*
X020520Y019099D01*
X020060Y019165D02*
X020060Y018832D01*
X020127Y018765D01*
X020098Y019399D02*
X019862Y019399D01*
X019862Y019871D02*
X020098Y019871D01*
X019931Y020070D02*
X019664Y020070D01*
X019664Y020470D01*
X020125Y020270D02*
X020392Y020270D01*
X020325Y020070D02*
X020325Y020470D01*
X020125Y020270D01*
X019676Y021072D02*
X019676Y021308D01*
X019204Y021308D02*
X019204Y021072D01*
X018985Y021134D02*
X018948Y021134D01*
X018985Y021134D02*
X018985Y020496D01*
X018948Y020496D01*
X018631Y020496D02*
X018219Y020496D01*
X017902Y020496D02*
X017865Y020496D01*
X017865Y021134D01*
X017902Y021134D01*
X018219Y021134D02*
X018256Y021134D01*
X018594Y021134D02*
X018631Y021134D01*
X018780Y020933D02*
X018782Y020945D01*
X018787Y020956D01*
X018796Y020965D01*
X018807Y020970D01*
X018819Y020972D01*
X018831Y020970D01*
X018842Y020965D01*
X018851Y020956D01*
X018856Y020945D01*
X018858Y020933D01*
X018856Y020921D01*
X018851Y020910D01*
X018842Y020901D01*
X018831Y020896D01*
X018819Y020894D01*
X018807Y020896D01*
X018796Y020901D01*
X018787Y020910D01*
X018782Y020921D01*
X018780Y020933D01*
X018782Y019940D02*
X018782Y019607D01*
X018715Y019540D01*
X018582Y019540D01*
X018515Y019607D01*
X018515Y019940D01*
X018975Y019740D02*
X019176Y019740D01*
X019242Y019673D01*
X019242Y019607D01*
X019176Y019540D01*
X019042Y019540D01*
X018975Y019607D01*
X018975Y019740D01*
X019109Y019874D01*
X019242Y019940D01*
X018336Y019348D02*
X018336Y019112D01*
X017864Y019112D02*
X017864Y019348D01*
X017680Y019426D02*
X017680Y019559D01*
X017613Y019626D01*
X017680Y019426D02*
X017613Y019359D01*
X017346Y019359D01*
X017280Y019426D01*
X017280Y019559D01*
X017346Y019626D01*
X017480Y019819D02*
X017480Y020086D01*
X017413Y020280D02*
X017280Y020413D01*
X017680Y020413D01*
X017680Y020280D02*
X017680Y020546D01*
X017680Y020019D02*
X017280Y020019D01*
X017480Y019819D01*
X017095Y020511D02*
X017058Y020511D01*
X017095Y020511D02*
X017095Y021149D01*
X017058Y021149D01*
X016890Y020948D02*
X016892Y020960D01*
X016897Y020971D01*
X016906Y020980D01*
X016917Y020985D01*
X016929Y020987D01*
X016941Y020985D01*
X016952Y020980D01*
X016961Y020971D01*
X016966Y020960D01*
X016968Y020948D01*
X016966Y020936D01*
X016961Y020925D01*
X016952Y020916D01*
X016941Y020911D01*
X016929Y020909D01*
X016917Y020911D01*
X016906Y020916D01*
X016897Y020925D01*
X016892Y020936D01*
X016890Y020948D01*
X016741Y021149D02*
X016704Y021149D01*
X016366Y021149D02*
X016329Y021149D01*
X016012Y021149D02*
X015975Y021149D01*
X015975Y020511D01*
X016012Y020511D01*
X016329Y020511D02*
X016741Y020511D01*
X015676Y021132D02*
X015676Y021368D01*
X015204Y021368D02*
X015204Y021132D01*
X015268Y022050D02*
X015001Y022050D01*
X014935Y022117D01*
X014935Y022250D01*
X015001Y022317D01*
X015068Y022510D02*
X014935Y022644D01*
X015335Y022644D01*
X015335Y022777D02*
X015335Y022510D01*
X015268Y022317D02*
X015335Y022250D01*
X015335Y022117D01*
X015268Y022050D01*
X015335Y022971D02*
X015335Y023238D01*
X015335Y023104D02*
X014935Y023104D01*
X015068Y022971D01*
X015265Y023689D02*
X015265Y023889D01*
X015331Y023956D01*
X015465Y023956D01*
X015532Y023889D01*
X015532Y023689D01*
X015665Y023689D02*
X015265Y023689D01*
X015532Y023822D02*
X015665Y023956D01*
X015665Y024149D02*
X015665Y024416D01*
X015665Y024283D02*
X015265Y024283D01*
X015398Y024149D01*
X015398Y024610D02*
X015331Y024610D01*
X015265Y024676D01*
X015265Y024810D01*
X015331Y024876D01*
X015598Y024876D01*
X015665Y024810D01*
X015665Y024676D01*
X015598Y024610D01*
X015465Y024676D02*
X015465Y024876D01*
X015465Y024676D02*
X015398Y024610D01*
X016027Y025099D02*
X016263Y025099D01*
X016306Y024744D02*
X018624Y024744D01*
X018847Y025074D02*
X019083Y025074D01*
X019083Y025546D02*
X018847Y025546D01*
X019161Y025844D02*
X019428Y025844D01*
X019495Y025911D01*
X019495Y026044D01*
X019428Y026111D01*
X019495Y026304D02*
X019228Y026571D01*
X019161Y026571D01*
X019095Y026504D01*
X019095Y026371D01*
X019161Y026304D01*
X019161Y026111D02*
X019095Y026044D01*
X019095Y025911D01*
X019161Y025844D01*
X018906Y026297D02*
X018906Y026533D01*
X019228Y026765D02*
X019095Y026898D01*
X019495Y026898D01*
X019495Y026765D02*
X019495Y027031D01*
X019740Y027091D02*
X019740Y026958D01*
X019806Y026891D01*
X020073Y026891D01*
X019806Y027158D01*
X020073Y027158D01*
X020140Y027091D01*
X020140Y026958D01*
X020073Y026891D01*
X020140Y026697D02*
X020140Y026430D01*
X019873Y026697D01*
X019806Y026697D01*
X019740Y026631D01*
X019740Y026497D01*
X019806Y026430D01*
X019806Y026237D02*
X019940Y026237D01*
X020007Y026170D01*
X020007Y025970D01*
X020140Y025970D02*
X019740Y025970D01*
X019740Y026170D01*
X019806Y026237D01*
X020007Y026103D02*
X020140Y026237D01*
X020299Y026342D02*
X020299Y026578D01*
X020771Y026578D02*
X020771Y026342D01*
X020919Y025705D02*
X020919Y025075D01*
X020918Y025075D02*
X020913Y025059D01*
X020905Y025043D01*
X020895Y025029D01*
X020883Y025017D01*
X020868Y025007D01*
X020852Y025000D01*
X020835Y024996D01*
X020818Y024995D01*
X020800Y024997D01*
X020811Y024885D02*
X020945Y024885D01*
X020878Y024885D02*
X020878Y024552D01*
X020811Y024485D01*
X020745Y024485D01*
X020678Y024552D01*
X020484Y024552D02*
X020484Y024618D01*
X020418Y024685D01*
X020284Y024685D01*
X020218Y024752D01*
X020218Y024819D01*
X020284Y024885D01*
X020418Y024885D01*
X020484Y024819D01*
X020484Y024552D02*
X020418Y024485D01*
X020284Y024485D01*
X020218Y024552D01*
X019840Y024375D02*
X019773Y024375D01*
X019506Y024641D01*
X019440Y024641D01*
X019440Y024375D01*
X019506Y024181D02*
X019440Y024114D01*
X019440Y023981D01*
X019506Y023914D01*
X019506Y023721D02*
X019440Y023654D01*
X019440Y023521D01*
X019506Y023454D01*
X019773Y023454D01*
X019840Y023521D01*
X019840Y023654D01*
X019773Y023721D01*
X019840Y023914D02*
X019573Y024181D01*
X019506Y024181D01*
X019840Y024181D02*
X019840Y023914D01*
X019846Y023038D02*
X020113Y022771D01*
X020180Y022838D01*
X020180Y022971D01*
X020113Y023038D01*
X019846Y023038D01*
X019780Y022971D01*
X019780Y022838D01*
X019846Y022771D01*
X020113Y022771D01*
X020180Y022577D02*
X020180Y022310D01*
X020180Y022444D02*
X019780Y022444D01*
X019913Y022310D01*
X019846Y022117D02*
X019780Y022050D01*
X019780Y021917D01*
X019846Y021850D01*
X020113Y021850D01*
X020180Y021917D01*
X020180Y022050D01*
X020113Y022117D01*
X021355Y022059D02*
X021421Y022126D01*
X021488Y022126D01*
X021555Y022059D01*
X021555Y021926D01*
X021488Y021859D01*
X021421Y021859D01*
X021355Y021926D01*
X021355Y022059D01*
X021555Y022059D02*
X021622Y022126D01*
X021688Y022126D01*
X021755Y022059D01*
X021755Y021926D01*
X021688Y021859D01*
X021622Y021859D01*
X021555Y021926D01*
X021555Y021666D02*
X021622Y021599D01*
X021622Y021399D01*
X021755Y021399D02*
X021355Y021399D01*
X021355Y021599D01*
X021421Y021666D01*
X021555Y021666D01*
X021622Y021532D02*
X021755Y021666D01*
X021969Y021912D02*
X021969Y022148D01*
X021755Y022320D02*
X021488Y022586D01*
X021421Y022586D01*
X021355Y022520D01*
X021355Y022386D01*
X021421Y022320D01*
X021755Y022320D02*
X021755Y022586D01*
X021730Y022875D02*
X021330Y022875D01*
X021330Y023075D01*
X021396Y023142D01*
X021530Y023142D01*
X021597Y023075D01*
X021597Y022875D01*
X021597Y023008D02*
X021730Y023142D01*
X021730Y023335D02*
X021330Y023602D01*
X021463Y023796D02*
X021330Y023929D01*
X021730Y023929D01*
X021730Y023796D02*
X021730Y024063D01*
X021730Y023602D02*
X021330Y023335D01*
X021338Y024485D02*
X021205Y024485D01*
X021138Y024552D01*
X021272Y024685D02*
X021338Y024685D01*
X021405Y024618D01*
X021405Y024552D01*
X021338Y024485D01*
X021338Y024685D02*
X021405Y024752D01*
X021405Y024819D01*
X021338Y024885D01*
X021205Y024885D01*
X021138Y024819D01*
X020918Y025705D02*
X020912Y025723D01*
X020903Y025741D01*
X020891Y025756D01*
X020875Y025768D01*
X020858Y025777D01*
X020839Y025783D01*
X020820Y025785D01*
X020800Y025783D01*
X020250Y025783D02*
X020230Y025785D01*
X020211Y025783D01*
X020192Y025777D01*
X020175Y025768D01*
X020159Y025756D01*
X020147Y025741D01*
X020138Y025723D01*
X020132Y025705D01*
X020131Y025705D02*
X020131Y025075D01*
X020132Y025075D02*
X020137Y025059D01*
X020145Y025043D01*
X020155Y025029D01*
X020167Y025017D01*
X020182Y025007D01*
X020198Y025000D01*
X020215Y024996D01*
X020232Y024995D01*
X020250Y024997D01*
X019495Y026304D02*
X019495Y026571D01*
X019740Y027091D02*
X019806Y027158D01*
X019440Y027304D02*
X019040Y027304D01*
X019040Y027504D01*
X019106Y027571D01*
X019240Y027571D01*
X019307Y027504D01*
X019307Y027304D01*
X019307Y027437D02*
X019440Y027571D01*
X019440Y027764D02*
X019173Y028031D01*
X019106Y028031D01*
X019040Y027964D01*
X019040Y027831D01*
X019106Y027764D01*
X018891Y027792D02*
X018891Y028028D01*
X019240Y028225D02*
X019240Y028491D01*
X019440Y028425D02*
X019040Y028425D01*
X019240Y028225D01*
X019440Y028031D02*
X019440Y027764D01*
X020210Y027825D02*
X020210Y027365D01*
X020490Y027615D01*
X020210Y027825D01*
X020299Y028412D02*
X020299Y028648D01*
X020771Y028648D02*
X020771Y028412D01*
X021019Y028328D02*
X021219Y028328D01*
X021286Y028395D01*
X021286Y028529D01*
X021219Y028595D01*
X021019Y028595D01*
X021019Y028195D01*
X021152Y028328D02*
X021286Y028195D01*
X021479Y028195D02*
X021746Y028462D01*
X021746Y028529D01*
X021679Y028595D01*
X021546Y028595D01*
X021479Y028529D01*
X021479Y028195D02*
X021746Y028195D01*
X021940Y028195D02*
X022206Y028462D01*
X022206Y028529D01*
X022140Y028595D01*
X022006Y028595D01*
X021940Y028529D01*
X021940Y028195D02*
X022206Y028195D01*
X023287Y029809D02*
X023523Y029809D01*
X023523Y030281D02*
X023287Y030281D01*
X022744Y030510D02*
X022635Y030401D01*
X020195Y030401D01*
X020086Y030510D01*
X020086Y032950D01*
X020195Y033059D01*
X022635Y033059D01*
X022744Y032950D01*
X022744Y030510D01*
X023824Y031517D02*
X023824Y031753D01*
X023875Y032305D02*
X023875Y032505D01*
X023941Y032572D01*
X024075Y032572D01*
X024142Y032505D01*
X024142Y032305D01*
X024275Y032305D02*
X023875Y032305D01*
X024142Y032438D02*
X024275Y032572D01*
X024275Y032765D02*
X024275Y033032D01*
X024275Y032899D02*
X023875Y032899D01*
X024008Y032765D01*
X023941Y033226D02*
X023875Y033293D01*
X023875Y033426D01*
X023941Y033493D01*
X024208Y033226D01*
X024275Y033293D01*
X024275Y033426D01*
X024208Y033493D01*
X023941Y033493D01*
X023941Y033226D02*
X024208Y033226D01*
X024809Y033742D02*
X024876Y033675D01*
X025009Y033675D01*
X025076Y033742D01*
X025269Y033675D02*
X025536Y033675D01*
X025403Y033675D02*
X025403Y034075D01*
X025269Y033942D01*
X025076Y034009D02*
X025009Y034075D01*
X024876Y034075D01*
X024809Y034009D01*
X024809Y033742D01*
X025252Y033486D02*
X025488Y033486D01*
X025730Y033675D02*
X025730Y033742D01*
X025996Y034009D01*
X025996Y034075D01*
X025730Y034075D01*
X025430Y034640D02*
X025296Y034640D01*
X025230Y034707D01*
X025230Y034840D02*
X025363Y034907D01*
X025430Y034907D01*
X025496Y034840D01*
X025496Y034707D01*
X025430Y034640D01*
X025230Y034840D02*
X025230Y035040D01*
X025496Y035040D01*
X025036Y034840D02*
X024769Y034840D01*
X024969Y035040D01*
X024969Y034640D01*
X024576Y034640D02*
X024442Y034773D01*
X024509Y034773D02*
X024309Y034773D01*
X024309Y034640D02*
X024309Y035040D01*
X024509Y035040D01*
X024576Y034974D01*
X024576Y034840D01*
X024509Y034773D01*
X024546Y035535D02*
X024412Y035668D01*
X024479Y035668D02*
X024279Y035668D01*
X024279Y035535D02*
X024279Y035935D01*
X024479Y035935D01*
X024546Y035869D01*
X024546Y035735D01*
X024479Y035668D01*
X024739Y035735D02*
X025006Y035735D01*
X025200Y035735D02*
X025200Y035602D01*
X025266Y035535D01*
X025400Y035535D01*
X025466Y035602D01*
X025466Y035668D01*
X025400Y035735D01*
X025200Y035735D01*
X025333Y035869D01*
X025466Y035935D01*
X025375Y036415D02*
X025441Y036482D01*
X025441Y036548D01*
X025375Y036615D01*
X025175Y036615D01*
X025175Y036482D01*
X025241Y036415D01*
X025375Y036415D01*
X025175Y036615D02*
X025308Y036749D01*
X025441Y036815D01*
X024981Y036749D02*
X024981Y036682D01*
X024914Y036615D01*
X024981Y036548D01*
X024981Y036482D01*
X024914Y036415D01*
X024781Y036415D01*
X024714Y036482D01*
X024848Y036615D02*
X024914Y036615D01*
X024981Y036749D02*
X024914Y036815D01*
X024781Y036815D01*
X024714Y036749D01*
X024521Y036749D02*
X024521Y036615D01*
X024454Y036548D01*
X024254Y036548D01*
X024254Y036415D02*
X024254Y036815D01*
X024454Y036815D01*
X024521Y036749D01*
X024387Y036548D02*
X024521Y036415D01*
X024939Y035935D02*
X024739Y035735D01*
X024939Y035535D02*
X024939Y035935D01*
X026162Y035981D02*
X026398Y035981D01*
X026363Y036344D02*
X026127Y036344D01*
X026127Y036816D02*
X026363Y036816D01*
X027060Y036780D02*
X027060Y036380D01*
X027327Y036380D01*
X027520Y036380D02*
X027520Y036780D01*
X027787Y036780D01*
X027981Y036780D02*
X027981Y036380D01*
X028181Y036380D01*
X028248Y036447D01*
X028248Y036714D01*
X028181Y036780D01*
X027981Y036780D01*
X027654Y036580D02*
X027520Y036580D01*
X027520Y036380D02*
X027787Y036380D01*
X027767Y035965D02*
X027500Y035965D01*
X027500Y035565D01*
X027767Y035565D01*
X027961Y035565D02*
X027961Y035965D01*
X028161Y035965D01*
X028228Y035899D01*
X028228Y035632D01*
X028161Y035565D01*
X027961Y035565D01*
X027634Y035765D02*
X027500Y035765D01*
X027307Y035565D02*
X027040Y035565D01*
X027040Y035965D01*
X026398Y035509D02*
X026162Y035509D01*
X026157Y035146D02*
X026393Y035146D01*
X026393Y034674D02*
X026157Y034674D01*
X027110Y034695D02*
X027377Y034695D01*
X027570Y034695D02*
X027570Y035095D01*
X027837Y035095D01*
X028031Y035095D02*
X028231Y035095D01*
X028298Y035029D01*
X028298Y034762D01*
X028231Y034695D01*
X028031Y034695D01*
X028031Y035095D01*
X027704Y034895D02*
X027570Y034895D01*
X027570Y034695D02*
X027837Y034695D01*
X028491Y034762D02*
X028558Y034695D01*
X028691Y034695D01*
X028758Y034762D01*
X028758Y034828D01*
X028691Y034895D01*
X028625Y034895D01*
X028691Y034895D02*
X028758Y034962D01*
X028758Y035029D01*
X028691Y035095D01*
X028558Y035095D01*
X028491Y035029D01*
X028488Y035565D02*
X028421Y035632D01*
X028488Y035565D02*
X028621Y035565D01*
X028688Y035632D01*
X028688Y035765D01*
X028621Y035832D01*
X028555Y035832D01*
X028421Y035765D01*
X028421Y035965D01*
X028688Y035965D01*
X028708Y036380D02*
X028441Y036380D01*
X028575Y036380D02*
X028575Y036780D01*
X028441Y036647D01*
X027110Y035095D02*
X027110Y034695D01*
X025488Y033014D02*
X025252Y033014D01*
X025302Y032614D02*
X025538Y032614D01*
X026050Y031866D02*
X026050Y031394D01*
X026390Y031517D02*
X026456Y031517D01*
X026590Y031383D01*
X026790Y031383D01*
X026590Y031383D02*
X026456Y031250D01*
X026390Y031250D01*
X026456Y031710D02*
X026390Y031777D01*
X026390Y031911D01*
X026456Y031977D01*
X026523Y031977D01*
X026790Y031710D01*
X026790Y031977D01*
X025538Y030646D02*
X025302Y030646D01*
X025277Y030156D02*
X025513Y030156D01*
X025513Y029684D02*
X025277Y029684D01*
X024670Y029691D02*
X024670Y029424D01*
X024403Y029691D01*
X024336Y029691D01*
X024270Y029624D01*
X024270Y029491D01*
X024336Y029424D01*
X024336Y029231D02*
X024470Y029231D01*
X024537Y029164D01*
X024537Y028964D01*
X024670Y028964D02*
X024270Y028964D01*
X024270Y029164D01*
X024336Y029231D01*
X024537Y029097D02*
X024670Y029231D01*
X024670Y029885D02*
X024670Y030151D01*
X024670Y030018D02*
X024270Y030018D01*
X024403Y029885D01*
X024790Y031394D02*
X024790Y031866D01*
X024296Y031753D02*
X024296Y031517D01*
X026099Y030054D02*
X026099Y029787D01*
X026166Y029720D01*
X026299Y029720D01*
X026366Y029787D01*
X026559Y029720D02*
X026826Y029720D01*
X026693Y029720D02*
X026693Y030120D01*
X026559Y029987D01*
X026366Y030054D02*
X026299Y030120D01*
X026166Y030120D01*
X026099Y030054D01*
X027020Y030054D02*
X027020Y029987D01*
X027086Y029920D01*
X027220Y029920D01*
X027286Y029853D01*
X027286Y029787D01*
X027220Y029720D01*
X027086Y029720D01*
X027020Y029787D01*
X027020Y029853D01*
X027086Y029920D01*
X027220Y029920D02*
X027286Y029987D01*
X027286Y030054D01*
X027220Y030120D01*
X027086Y030120D01*
X027020Y030054D01*
X027824Y027359D02*
X028336Y027359D01*
X029170Y027098D02*
X029288Y027098D01*
X029170Y027098D02*
X029170Y028122D01*
X029288Y028122D01*
X029550Y028673D02*
X029950Y028673D01*
X029950Y028940D01*
X029950Y029134D02*
X029550Y029134D01*
X029550Y029401D01*
X029550Y029594D02*
X029550Y029794D01*
X029616Y029861D01*
X029883Y029861D01*
X029950Y029794D01*
X029950Y029594D01*
X029550Y029594D01*
X029750Y029267D02*
X029750Y029134D01*
X029950Y029134D02*
X029950Y029401D01*
X029950Y030055D02*
X029683Y030321D01*
X029616Y030321D01*
X029550Y030255D01*
X029550Y030121D01*
X029616Y030055D01*
X029950Y030055D02*
X029950Y030321D01*
X030312Y028122D02*
X030430Y028122D01*
X030430Y027098D01*
X030312Y027098D01*
X029800Y026980D02*
X029800Y026901D01*
X030066Y026513D02*
X030000Y026446D01*
X030000Y026313D01*
X030066Y026246D01*
X030200Y026052D02*
X030200Y025785D01*
X030000Y025986D01*
X030400Y025986D01*
X030400Y026246D02*
X030133Y026513D01*
X030066Y026513D01*
X030400Y026513D02*
X030400Y026246D01*
X030400Y025592D02*
X030267Y025458D01*
X030267Y025525D02*
X030267Y025325D01*
X030400Y025325D02*
X030000Y025325D01*
X030000Y025525D01*
X030066Y025592D01*
X030200Y025592D01*
X030267Y025525D01*
X029766Y025827D02*
X029766Y026063D01*
X029294Y026063D02*
X029294Y025827D01*
X028336Y025941D02*
X027824Y025941D01*
X027850Y025613D02*
X028250Y025613D01*
X028250Y025480D02*
X028250Y025747D01*
X027983Y025480D02*
X027850Y025613D01*
X027850Y025286D02*
X027916Y025286D01*
X028050Y025153D01*
X028250Y025153D01*
X028050Y025153D02*
X027916Y025019D01*
X027850Y025019D01*
X027822Y024285D02*
X027822Y023952D01*
X027755Y023885D01*
X027622Y023885D01*
X027555Y023952D01*
X027555Y024285D01*
X028015Y024285D02*
X028015Y024085D01*
X028149Y024152D01*
X028216Y024152D01*
X028282Y024085D01*
X028282Y023952D01*
X028216Y023885D01*
X028082Y023885D01*
X028015Y023952D01*
X028015Y024285D02*
X028282Y024285D01*
X028256Y023373D02*
X028523Y023106D01*
X028590Y023173D01*
X028590Y023306D01*
X028523Y023373D01*
X028256Y023373D01*
X028190Y023306D01*
X028190Y023173D01*
X028256Y023106D01*
X028523Y023106D01*
X028390Y022912D02*
X028390Y022645D01*
X028190Y022846D01*
X028590Y022846D01*
X028590Y022452D02*
X028457Y022318D01*
X028457Y022385D02*
X028457Y022185D01*
X028590Y022185D02*
X028190Y022185D01*
X028190Y022385D01*
X028256Y022452D01*
X028390Y022452D01*
X028457Y022385D01*
X029095Y022070D02*
X029095Y022970D01*
X029595Y023820D02*
X030295Y023820D01*
X030345Y023770D01*
X030345Y023320D01*
X030345Y023070D01*
X030445Y022970D02*
X030445Y023320D01*
X030495Y023270D01*
X030495Y022920D01*
X030445Y023320D02*
X030345Y023320D01*
X030495Y022120D02*
X030495Y021770D01*
X030445Y021720D01*
X030445Y022070D01*
X030345Y021970D02*
X030345Y021720D01*
X030345Y021270D01*
X030295Y021220D01*
X029595Y021220D01*
X030345Y021720D02*
X030445Y021720D01*
X030792Y020177D02*
X029611Y020177D01*
X029218Y019527D02*
X029218Y017953D01*
X029611Y017303D02*
X030792Y017303D01*
X030792Y020177D01*
X028455Y018451D02*
X028455Y018317D01*
X028388Y018250D01*
X028255Y018384D02*
X028255Y018451D01*
X028322Y018517D01*
X028388Y018517D01*
X028455Y018451D01*
X028255Y018451D02*
X028188Y018517D01*
X028121Y018517D01*
X028055Y018451D01*
X028055Y018317D01*
X028121Y018250D01*
X028121Y018057D02*
X028055Y017990D01*
X028055Y017857D01*
X028121Y017790D01*
X028188Y017790D01*
X028255Y017857D01*
X028255Y017990D01*
X028322Y018057D01*
X028388Y018057D01*
X028455Y017990D01*
X028455Y017857D01*
X028388Y017790D01*
X028070Y017592D02*
X028070Y017325D01*
X027803Y017592D01*
X027736Y017592D01*
X027670Y017526D01*
X027670Y017392D01*
X027736Y017325D01*
X027736Y017132D02*
X027670Y017065D01*
X027670Y016932D01*
X027736Y016865D01*
X028003Y016865D01*
X028070Y016932D01*
X028070Y017065D01*
X028003Y017132D01*
X027270Y017065D02*
X027270Y016932D01*
X027203Y016865D01*
X026936Y016865D01*
X026870Y016932D01*
X026870Y017065D01*
X026936Y017132D01*
X026936Y017325D02*
X026870Y017392D01*
X026870Y017526D01*
X026936Y017592D01*
X027003Y017592D01*
X027070Y017526D01*
X027137Y017592D01*
X027203Y017592D01*
X027270Y017526D01*
X027270Y017392D01*
X027203Y017325D01*
X027070Y017459D02*
X027070Y017526D01*
X027203Y017132D02*
X027270Y017065D01*
X027396Y016198D02*
X027396Y015962D01*
X027724Y015952D02*
X027724Y016188D01*
X028196Y016188D02*
X028196Y015952D01*
X028475Y015908D02*
X028875Y015908D01*
X028875Y016175D01*
X028875Y016368D02*
X028875Y016635D01*
X028875Y016502D02*
X028475Y016502D01*
X028608Y016368D01*
X027742Y015309D02*
X027428Y015309D01*
X027428Y014521D02*
X027742Y014521D01*
X027762Y013429D02*
X027762Y013029D01*
X027895Y013029D02*
X027628Y013029D01*
X027435Y013095D02*
X027435Y013429D01*
X027628Y013295D02*
X027762Y013429D01*
X027435Y013095D02*
X027368Y013029D01*
X027235Y013029D01*
X027168Y013095D01*
X027168Y013429D01*
X029009Y013440D02*
X029009Y013040D01*
X029009Y013173D02*
X029209Y013173D01*
X029276Y013240D01*
X029276Y013374D01*
X029209Y013440D01*
X029009Y013440D01*
X029142Y013173D02*
X029276Y013040D01*
X029469Y013040D02*
X029736Y013040D01*
X029603Y013040D02*
X029603Y013440D01*
X029469Y013307D01*
X029930Y013440D02*
X030196Y013440D01*
X030196Y013374D01*
X029930Y013107D01*
X029930Y013040D01*
X029525Y011866D02*
X029525Y011600D01*
X029325Y011800D01*
X029725Y011800D01*
X029658Y011406D02*
X029391Y011406D01*
X029325Y011339D01*
X029325Y011139D01*
X029725Y011139D01*
X029725Y011339D01*
X029658Y011406D01*
X029725Y010946D02*
X029725Y010679D01*
X029325Y010679D01*
X029325Y010946D01*
X029525Y010812D02*
X029525Y010679D01*
X029725Y010485D02*
X029725Y010218D01*
X029325Y010218D01*
X029430Y009960D02*
X029320Y009850D01*
X029430Y009960D02*
X029820Y009960D01*
X030210Y009960D01*
X030320Y009850D01*
X029820Y009860D02*
X029820Y009960D01*
X029820Y009060D02*
X029820Y008860D01*
X029820Y008060D02*
X029820Y007860D01*
X029820Y007060D02*
X029820Y006860D01*
X029820Y006060D02*
X029820Y005860D01*
X029820Y005060D02*
X029820Y004960D01*
X030210Y004960D01*
X030320Y005070D01*
X030125Y004670D02*
X029625Y004670D01*
X029375Y004420D01*
X029375Y003920D01*
X029625Y003670D01*
X029375Y003420D01*
X029375Y002920D01*
X029625Y002670D01*
X030125Y002670D01*
X030375Y002920D01*
X030375Y003420D01*
X030125Y003670D01*
X030375Y003920D01*
X030375Y004420D01*
X030125Y004670D01*
X029820Y004960D02*
X029430Y004960D01*
X029320Y005070D01*
X029060Y004995D02*
X029360Y004765D01*
X029060Y004565D01*
X029060Y004995D01*
X029110Y004895D02*
X029120Y004685D01*
X029240Y004755D01*
X029180Y004805D01*
X029120Y004715D01*
X028900Y004652D02*
X028833Y004719D01*
X028900Y004652D02*
X028900Y004519D01*
X028833Y004452D01*
X028566Y004452D01*
X028500Y004519D01*
X028500Y004652D01*
X028566Y004719D01*
X028566Y004912D02*
X028633Y004912D01*
X028700Y004979D01*
X028700Y005112D01*
X028767Y005179D01*
X028833Y005179D01*
X028900Y005112D01*
X028900Y004979D01*
X028833Y004912D01*
X028566Y004912D02*
X028500Y004979D01*
X028500Y005112D01*
X028566Y005179D01*
X028500Y005373D02*
X028500Y005573D01*
X028566Y005640D01*
X028700Y005640D01*
X028767Y005573D01*
X028767Y005373D01*
X028900Y005373D02*
X028500Y005373D01*
X028500Y004278D02*
X028500Y004145D01*
X028500Y004212D02*
X028900Y004212D01*
X028900Y004278D02*
X028900Y004145D01*
X029187Y002420D02*
X029321Y002420D01*
X029254Y002420D02*
X029254Y002087D01*
X029187Y002020D01*
X029121Y002020D01*
X029054Y002087D01*
X029514Y002153D02*
X029714Y002153D01*
X029781Y002220D01*
X029781Y002354D01*
X029714Y002420D01*
X029514Y002420D01*
X029514Y002020D01*
X029975Y002020D02*
X029975Y002087D01*
X030241Y002354D01*
X030241Y002420D01*
X029975Y002420D01*
X027117Y003320D02*
X027117Y003560D01*
X026799Y003592D01*
X026765Y003699D01*
X026714Y003799D01*
X026916Y004046D01*
X026746Y004216D01*
X026499Y004014D01*
X026399Y004065D01*
X026292Y004099D01*
X026260Y004417D01*
X026020Y004417D01*
X025988Y004099D01*
X025881Y004065D01*
X025781Y004014D01*
X025534Y004216D01*
X025364Y004046D01*
X025566Y003799D01*
X025515Y003699D01*
X025481Y003592D01*
X025163Y003560D01*
X025163Y003320D01*
X025481Y003288D01*
X025515Y003181D01*
X025566Y003081D01*
X025364Y002834D01*
X025534Y002664D01*
X025781Y002866D01*
X025881Y002815D01*
X026022Y003156D01*
X025969Y003184D01*
X025922Y003223D01*
X025884Y003269D01*
X025856Y003322D01*
X025838Y003380D01*
X025832Y003440D01*
X025839Y003503D01*
X025858Y003563D01*
X025889Y003618D01*
X025931Y003665D01*
X025981Y003703D01*
X026038Y003730D01*
X026100Y003745D01*
X026163Y003747D01*
X026225Y003736D01*
X026284Y003712D01*
X026336Y003677D01*
X026380Y003632D01*
X026415Y003579D01*
X026437Y003520D01*
X026447Y003457D01*
X026444Y003394D01*
X026428Y003333D01*
X026400Y003276D01*
X026362Y003227D01*
X026313Y003186D01*
X026258Y003156D01*
X026399Y002815D01*
X026499Y002866D01*
X026746Y002664D01*
X026916Y002834D01*
X026714Y003081D01*
X026765Y003181D01*
X026799Y003288D01*
X027117Y003320D01*
X027117Y003393D02*
X026444Y003393D01*
X026442Y003491D02*
X027117Y003491D01*
X026826Y003590D02*
X026408Y003590D01*
X026320Y003688D02*
X026769Y003688D01*
X026720Y003787D02*
X025560Y003787D01*
X025511Y003688D02*
X025961Y003688D01*
X025873Y003590D02*
X025454Y003590D01*
X025496Y003885D02*
X026784Y003885D01*
X026865Y003984D02*
X025415Y003984D01*
X025400Y004082D02*
X025698Y004082D01*
X025577Y004181D02*
X025499Y004181D01*
X025934Y004082D02*
X026346Y004082D01*
X026284Y004181D02*
X025996Y004181D01*
X026006Y004279D02*
X026274Y004279D01*
X026264Y004378D02*
X026016Y004378D01*
X026582Y004082D02*
X026880Y004082D01*
X026781Y004181D02*
X026703Y004181D01*
X026860Y003294D02*
X026409Y003294D01*
X026325Y003196D02*
X026770Y003196D01*
X026722Y003097D02*
X026282Y003097D01*
X026323Y002999D02*
X026781Y002999D01*
X026862Y002900D02*
X026364Y002900D01*
X026578Y002802D02*
X026883Y002802D01*
X026785Y002703D02*
X026699Y002703D01*
X025957Y002999D02*
X025499Y002999D01*
X025558Y003097D02*
X025998Y003097D01*
X025955Y003196D02*
X025510Y003196D01*
X025420Y003294D02*
X025871Y003294D01*
X025837Y003393D02*
X025163Y003393D01*
X025163Y003491D02*
X025838Y003491D01*
X025916Y002900D02*
X025418Y002900D01*
X025397Y002802D02*
X025702Y002802D01*
X025581Y002703D02*
X025495Y002703D01*
X024617Y002651D02*
X024617Y002061D01*
X023673Y002061D01*
X023673Y002651D01*
X023205Y002442D02*
X023205Y002175D01*
X023205Y002308D02*
X022805Y002308D01*
X022938Y002175D01*
X022871Y001981D02*
X022805Y001914D01*
X022805Y001781D01*
X022871Y001714D01*
X023138Y001714D01*
X023205Y001781D01*
X023205Y001914D01*
X023138Y001981D01*
X023885Y001627D02*
X023885Y001360D01*
X023952Y001294D01*
X024085Y001294D01*
X024152Y001360D01*
X024345Y001494D02*
X024612Y001494D01*
X024546Y001294D02*
X024546Y001694D01*
X024345Y001494D01*
X024152Y001627D02*
X024085Y001694D01*
X023952Y001694D01*
X023885Y001627D01*
X023201Y003137D02*
X023201Y003373D01*
X022729Y003373D02*
X022729Y003137D01*
X023673Y003439D02*
X023673Y003872D01*
X023830Y004029D01*
X024460Y004029D01*
X024617Y003872D01*
X024617Y003439D01*
X024545Y003195D02*
X023745Y003195D01*
X020742Y003340D02*
X020475Y003340D01*
X020742Y003607D01*
X020742Y003674D01*
X020676Y003740D01*
X020542Y003740D01*
X020475Y003674D01*
X020282Y003340D02*
X020015Y003340D01*
X020015Y003740D01*
X021213Y014835D02*
X021055Y014993D01*
X021055Y018457D01*
X021213Y018615D01*
X024677Y018615D01*
X024835Y018457D01*
X024835Y014993D01*
X024677Y014835D01*
X021213Y014835D01*
X021259Y018300D02*
X021261Y018320D01*
X021266Y018340D01*
X021276Y018358D01*
X021288Y018375D01*
X021303Y018389D01*
X021321Y018399D01*
X021340Y018407D01*
X021360Y018411D01*
X021380Y018411D01*
X021400Y018407D01*
X021419Y018399D01*
X021437Y018389D01*
X021452Y018375D01*
X021464Y018358D01*
X021474Y018340D01*
X021479Y018320D01*
X021481Y018300D01*
X021479Y018280D01*
X021474Y018260D01*
X021464Y018242D01*
X021452Y018225D01*
X021437Y018211D01*
X021419Y018201D01*
X021400Y018193D01*
X021380Y018189D01*
X021360Y018189D01*
X021340Y018193D01*
X021321Y018201D01*
X021303Y018211D01*
X021288Y018225D01*
X021276Y018242D01*
X021266Y018260D01*
X021261Y018280D01*
X021259Y018300D01*
X023465Y021384D02*
X023465Y021584D01*
X023531Y021651D01*
X023665Y021651D01*
X023732Y021584D01*
X023732Y021384D01*
X023865Y021384D02*
X023465Y021384D01*
X023732Y021517D02*
X023865Y021651D01*
X023798Y021844D02*
X023732Y021844D01*
X023665Y021911D01*
X023665Y022044D01*
X023732Y022111D01*
X023798Y022111D01*
X023865Y022044D01*
X023865Y021911D01*
X023798Y021844D01*
X023665Y021911D02*
X023598Y021844D01*
X023531Y021844D01*
X023465Y021911D01*
X023465Y022044D01*
X023531Y022111D01*
X023598Y022111D01*
X023665Y022044D01*
X023598Y022305D02*
X023465Y022438D01*
X023865Y022438D01*
X023865Y022305D02*
X023865Y022571D01*
X023360Y022925D02*
X023360Y023192D01*
X023360Y023058D02*
X023760Y023058D01*
X023760Y023385D02*
X023360Y023652D01*
X023493Y023846D02*
X023360Y023979D01*
X023760Y023979D01*
X023760Y023846D02*
X023760Y024113D01*
X024075Y024340D02*
X026695Y024340D01*
X026835Y024480D01*
X026835Y027100D01*
X024075Y027100D01*
X024075Y024340D01*
X023760Y023652D02*
X023360Y023385D01*
X023219Y022138D02*
X023219Y021902D01*
X022699Y021912D02*
X022699Y022148D01*
X022439Y022148D02*
X022439Y021912D01*
X025655Y020885D02*
X025655Y020751D01*
X025721Y020685D01*
X025721Y020491D02*
X025855Y020491D01*
X025922Y020424D01*
X025922Y020224D01*
X026055Y020224D02*
X025655Y020224D01*
X025655Y020424D01*
X025721Y020491D01*
X026055Y020685D02*
X025788Y020951D01*
X025721Y020951D01*
X025655Y020885D01*
X026055Y020951D02*
X026055Y020685D01*
X025988Y019964D02*
X025655Y019964D01*
X025655Y019897D02*
X025655Y020031D01*
X025988Y019964D02*
X026055Y019897D01*
X026055Y019831D01*
X025988Y019764D01*
X026265Y019055D02*
X026375Y018945D01*
X026765Y018945D01*
X027155Y018945D01*
X027265Y019055D01*
X026765Y019045D02*
X026765Y018945D01*
X026765Y019845D02*
X026765Y020045D01*
X026765Y020845D02*
X026765Y021045D01*
X026765Y021845D02*
X026765Y021945D01*
X026375Y021945D01*
X026265Y021835D01*
X026765Y021945D02*
X027155Y021945D01*
X027265Y021835D01*
X026394Y024640D02*
X026396Y024663D01*
X026402Y024686D01*
X026411Y024707D01*
X026424Y024727D01*
X026440Y024744D01*
X026458Y024758D01*
X026478Y024769D01*
X026500Y024777D01*
X026523Y024781D01*
X026547Y024781D01*
X026570Y024777D01*
X026592Y024769D01*
X026612Y024758D01*
X026630Y024744D01*
X026646Y024727D01*
X026659Y024707D01*
X026668Y024686D01*
X026674Y024663D01*
X026676Y024640D01*
X026674Y024617D01*
X026668Y024594D01*
X026659Y024573D01*
X026646Y024553D01*
X026630Y024536D01*
X026612Y024522D01*
X026592Y024511D01*
X026570Y024503D01*
X026547Y024499D01*
X026523Y024499D01*
X026500Y024503D01*
X026478Y024511D01*
X026458Y024522D01*
X026440Y024536D01*
X026424Y024553D01*
X026411Y024573D01*
X026402Y024594D01*
X026396Y024617D01*
X026394Y024640D01*
X020392Y030943D02*
X020394Y030973D01*
X020400Y031003D01*
X020409Y031032D01*
X020422Y031059D01*
X020439Y031084D01*
X020458Y031107D01*
X020481Y031128D01*
X020506Y031145D01*
X020532Y031159D01*
X020561Y031169D01*
X020590Y031176D01*
X020620Y031179D01*
X020651Y031178D01*
X020681Y031173D01*
X020710Y031164D01*
X020737Y031152D01*
X020763Y031137D01*
X020787Y031118D01*
X020808Y031096D01*
X020826Y031072D01*
X020841Y031045D01*
X020852Y031017D01*
X020860Y030988D01*
X020864Y030958D01*
X020864Y030928D01*
X020860Y030898D01*
X020852Y030869D01*
X020841Y030841D01*
X020826Y030814D01*
X020808Y030790D01*
X020787Y030768D01*
X020763Y030749D01*
X020737Y030734D01*
X020710Y030722D01*
X020681Y030713D01*
X020651Y030708D01*
X020620Y030707D01*
X020590Y030710D01*
X020561Y030717D01*
X020532Y030727D01*
X020506Y030741D01*
X020481Y030758D01*
X020458Y030779D01*
X020439Y030802D01*
X020422Y030827D01*
X020409Y030854D01*
X020400Y030883D01*
X020394Y030913D01*
X020392Y030943D01*
X018940Y029380D02*
X018940Y028880D01*
X018690Y028630D01*
X018190Y028630D01*
X017940Y028880D01*
X017690Y028630D01*
X017190Y028630D01*
X016940Y028880D01*
X016690Y028630D01*
X016190Y028630D01*
X015940Y028880D01*
X015940Y029380D01*
X016190Y029630D01*
X016690Y029630D01*
X016940Y029380D01*
X017190Y029630D01*
X017690Y029630D01*
X017940Y029380D01*
X018190Y029630D01*
X018690Y029630D01*
X018940Y029380D01*
X018113Y028498D02*
X018180Y028431D01*
X018180Y028298D01*
X018113Y028231D01*
X017980Y028364D02*
X017980Y028431D01*
X018047Y028498D01*
X018113Y028498D01*
X017980Y028431D02*
X017913Y028498D01*
X017846Y028498D01*
X017780Y028431D01*
X017780Y028298D01*
X017846Y028231D01*
X017846Y028037D02*
X017780Y027971D01*
X017780Y027837D01*
X017846Y027770D01*
X017846Y027577D02*
X017980Y027577D01*
X018047Y027510D01*
X018047Y027310D01*
X018180Y027310D02*
X017780Y027310D01*
X017780Y027510D01*
X017846Y027577D01*
X018047Y027443D02*
X018180Y027577D01*
X018180Y027770D02*
X017913Y028037D01*
X017846Y028037D01*
X017611Y028043D02*
X017611Y027807D01*
X017139Y027807D02*
X017139Y028043D01*
X016900Y028011D02*
X016900Y027744D01*
X016633Y028011D01*
X016566Y028011D01*
X016500Y027944D01*
X016500Y027811D01*
X016566Y027744D01*
X016566Y027551D02*
X016700Y027551D01*
X016767Y027484D01*
X016767Y027284D01*
X016900Y027284D02*
X016500Y027284D01*
X016500Y027484D01*
X016566Y027551D01*
X016767Y027417D02*
X016900Y027551D01*
X016905Y026986D02*
X016905Y026720D01*
X016638Y026986D01*
X016571Y026986D01*
X016505Y026920D01*
X016505Y026786D01*
X016571Y026720D01*
X016571Y026526D02*
X016505Y026459D01*
X016505Y026326D01*
X016571Y026259D01*
X016571Y026066D02*
X016505Y025999D01*
X016505Y025866D01*
X016571Y025799D01*
X016838Y025799D01*
X016905Y025866D01*
X016905Y025999D01*
X016838Y026066D01*
X016905Y026259D02*
X016638Y026526D01*
X016571Y026526D01*
X016331Y026533D02*
X016331Y026297D01*
X015859Y026297D02*
X015859Y026533D01*
X016027Y025571D02*
X016263Y025571D01*
X016905Y026259D02*
X016905Y026526D01*
X017139Y026533D02*
X017139Y026297D01*
X017611Y026297D02*
X017611Y026533D01*
X017765Y026444D02*
X017765Y026311D01*
X017831Y026244D01*
X017831Y026051D02*
X017765Y025984D01*
X017765Y025851D01*
X017831Y025784D01*
X018098Y025784D01*
X018165Y025851D01*
X018165Y025984D01*
X018098Y026051D01*
X018165Y026244D02*
X017898Y026511D01*
X017831Y026511D01*
X017765Y026444D01*
X017831Y026705D02*
X017765Y026771D01*
X017765Y026905D01*
X017831Y026971D01*
X018098Y026705D01*
X018165Y026771D01*
X018165Y026905D01*
X018098Y026971D01*
X017831Y026971D01*
X017831Y026705D02*
X018098Y026705D01*
X018165Y026511D02*
X018165Y026244D01*
X018434Y026297D02*
X018434Y026533D01*
X018175Y025560D02*
X018241Y025494D01*
X018241Y025427D01*
X018175Y025360D01*
X018041Y025360D01*
X017975Y025427D01*
X017975Y025494D01*
X018041Y025560D01*
X018175Y025560D01*
X018175Y025360D02*
X018241Y025293D01*
X018241Y025227D01*
X018175Y025160D01*
X018041Y025160D01*
X017975Y025227D01*
X017975Y025293D01*
X018041Y025360D01*
X017781Y025160D02*
X017514Y025160D01*
X017648Y025160D02*
X017648Y025560D01*
X017514Y025427D01*
X017321Y025494D02*
X017321Y025360D01*
X017254Y025293D01*
X017054Y025293D01*
X017054Y025160D02*
X017054Y025560D01*
X017254Y025560D01*
X017321Y025494D01*
X017187Y025293D02*
X017321Y025160D01*
X016306Y023456D02*
X018624Y023456D01*
X018218Y023141D02*
X017982Y023141D01*
X017982Y022669D02*
X018218Y022669D01*
X017076Y022927D02*
X017076Y022993D01*
X017010Y023060D01*
X016810Y023060D01*
X016810Y022927D01*
X016876Y022860D01*
X017010Y022860D01*
X017076Y022927D01*
X016810Y023060D02*
X016943Y023194D01*
X017076Y023260D01*
X016483Y023260D02*
X016483Y022860D01*
X016616Y022860D02*
X016349Y022860D01*
X016156Y022927D02*
X016089Y022860D01*
X015956Y022860D01*
X015889Y022927D01*
X015889Y023194D01*
X015956Y023260D01*
X016089Y023260D01*
X016156Y023194D01*
X016349Y023127D02*
X016483Y023260D01*
X016457Y022235D02*
X016457Y021902D01*
X016390Y021835D01*
X016257Y021835D01*
X016190Y021902D01*
X016190Y022235D01*
X016650Y022169D02*
X016717Y022235D01*
X016851Y022235D01*
X016917Y022169D01*
X016917Y022102D01*
X016650Y021835D01*
X016917Y021835D01*
X015233Y019536D02*
X014997Y019536D01*
X014997Y019064D02*
X015233Y019064D01*
X015388Y018930D02*
X015321Y018864D01*
X015321Y018597D01*
X015588Y018864D01*
X015588Y018597D01*
X015521Y018530D01*
X015388Y018530D01*
X015321Y018597D01*
X015127Y018597D02*
X015061Y018530D01*
X014927Y018530D01*
X014860Y018597D01*
X014994Y018730D02*
X015061Y018730D01*
X015127Y018663D01*
X015127Y018597D01*
X015061Y018730D02*
X015127Y018797D01*
X015127Y018864D01*
X015061Y018930D01*
X014927Y018930D01*
X014860Y018864D01*
X014667Y018864D02*
X014667Y018730D01*
X014600Y018663D01*
X014400Y018663D01*
X014400Y018530D02*
X014400Y018930D01*
X014600Y018930D01*
X014667Y018864D01*
X014533Y018663D02*
X014667Y018530D01*
X015388Y018930D02*
X015521Y018930D01*
X015588Y018864D01*
X016219Y018340D02*
X016219Y018007D01*
X016286Y017940D01*
X016419Y017940D01*
X016486Y018007D01*
X016486Y018340D01*
X016679Y018207D02*
X016813Y018340D01*
X016813Y017940D01*
X016946Y017940D02*
X016679Y017940D01*
X017140Y017940D02*
X017406Y018207D01*
X017406Y018274D01*
X017340Y018340D01*
X017206Y018340D01*
X017140Y018274D01*
X017140Y017940D02*
X017406Y017940D01*
X017445Y017785D02*
X016025Y017785D01*
X015021Y017189D02*
X015021Y017032D01*
X014509Y017032D01*
X014509Y016481D01*
X014295Y016519D02*
X014295Y016719D01*
X014228Y016786D01*
X013961Y016786D01*
X013895Y016719D01*
X013895Y016519D01*
X014295Y016519D01*
X014295Y016980D02*
X014295Y017247D01*
X014295Y017113D02*
X013895Y017113D01*
X014028Y016980D01*
X014509Y017032D02*
X014509Y017189D01*
X015021Y017032D02*
X015021Y016481D01*
X013540Y018974D02*
X013140Y018974D01*
X013140Y019174D01*
X013206Y019241D01*
X013340Y019241D01*
X013407Y019174D01*
X013407Y018974D01*
X013407Y019107D02*
X013540Y019241D01*
X013540Y019434D02*
X013540Y019701D01*
X013540Y019568D02*
X013140Y019568D01*
X013273Y019434D01*
X012891Y019712D02*
X012891Y019948D01*
X013140Y019895D02*
X013340Y019895D01*
X013273Y020028D01*
X013273Y020095D01*
X013340Y020161D01*
X013473Y020161D01*
X013540Y020095D01*
X013540Y019961D01*
X013473Y019895D01*
X013140Y019895D02*
X013140Y020161D01*
X012531Y019075D02*
X012598Y019009D01*
X012598Y018942D01*
X012531Y018875D01*
X012598Y018808D01*
X012598Y018742D01*
X012531Y018675D01*
X012398Y018675D01*
X012331Y018742D01*
X012464Y018875D02*
X012531Y018875D01*
X012531Y019075D02*
X012398Y019075D01*
X012331Y019009D01*
X012004Y019075D02*
X012004Y018675D01*
X012137Y018675D02*
X011870Y018675D01*
X011677Y018675D02*
X011543Y018808D01*
X011610Y018808D02*
X011410Y018808D01*
X011410Y018675D02*
X011410Y019075D01*
X011610Y019075D01*
X011677Y019009D01*
X011677Y018875D01*
X011610Y018808D01*
X011870Y018942D02*
X012004Y019075D01*
X011718Y019279D02*
X011482Y019279D01*
X011482Y019751D02*
X011718Y019751D01*
X011738Y020389D02*
X011502Y020389D01*
X011502Y020861D02*
X011738Y020861D01*
X011714Y021010D02*
X011981Y021010D01*
X011848Y021010D02*
X011848Y021410D01*
X011714Y021277D01*
X011521Y021344D02*
X011521Y021210D01*
X011454Y021143D01*
X011254Y021143D01*
X011254Y021010D02*
X011254Y021410D01*
X011454Y021410D01*
X011521Y021344D01*
X011387Y021143D02*
X011521Y021010D01*
X012175Y021210D02*
X012441Y021210D01*
X012375Y021010D02*
X012375Y021410D01*
X012175Y021210D01*
X012595Y021681D02*
X013225Y021681D01*
X013382Y021838D01*
X013382Y022271D01*
X013310Y022515D02*
X012510Y022515D01*
X012438Y022271D02*
X012438Y021838D01*
X012595Y021681D01*
X013583Y022646D02*
X013650Y022579D01*
X013917Y022579D01*
X013984Y022646D01*
X013984Y022779D01*
X013917Y022846D01*
X013984Y023039D02*
X013717Y023306D01*
X013650Y023306D01*
X013583Y023239D01*
X013583Y023106D01*
X013650Y023039D01*
X013650Y022846D02*
X013583Y022779D01*
X013583Y022646D01*
X013382Y023059D02*
X013382Y023649D01*
X012438Y023649D01*
X012438Y023059D01*
X012055Y022995D02*
X009475Y022995D01*
X009475Y025355D01*
X009215Y023929D02*
X009215Y023662D01*
X008948Y023929D01*
X008881Y023929D01*
X008815Y023862D01*
X008815Y023729D01*
X008881Y023662D01*
X008881Y023469D02*
X008815Y023402D01*
X008815Y023269D01*
X008881Y023202D01*
X009148Y023202D01*
X009215Y023269D01*
X009215Y023402D01*
X009148Y023469D01*
X009215Y023028D02*
X009215Y022895D01*
X009215Y022962D02*
X008815Y022962D01*
X008815Y023028D02*
X008815Y022895D01*
X008981Y021420D02*
X008981Y021020D01*
X009114Y021020D02*
X008847Y021020D01*
X008654Y021087D02*
X008587Y021020D01*
X008454Y021020D01*
X008387Y021087D01*
X008387Y021354D01*
X008454Y021420D01*
X008587Y021420D01*
X008654Y021354D01*
X008847Y021287D02*
X008981Y021420D01*
X008615Y020715D02*
X010035Y020715D01*
X008878Y020495D02*
X008880Y020510D01*
X008886Y020523D01*
X008895Y020535D01*
X008906Y020544D01*
X008920Y020550D01*
X008935Y020552D01*
X008950Y020550D01*
X008963Y020544D01*
X008975Y020535D01*
X008984Y020524D01*
X008990Y020510D01*
X008992Y020495D01*
X008990Y020480D01*
X008984Y020467D01*
X008975Y020455D01*
X008964Y020446D01*
X008950Y020440D01*
X008935Y020438D01*
X008920Y020440D01*
X008907Y020446D01*
X008895Y020455D01*
X008886Y020466D01*
X008880Y020480D01*
X008878Y020495D01*
X008213Y021020D02*
X008080Y021020D01*
X008147Y021020D02*
X008147Y021420D01*
X008213Y021420D02*
X008080Y021420D01*
X007211Y019658D02*
X007211Y019422D01*
X006739Y019422D02*
X006739Y019658D01*
X006510Y019643D02*
X006110Y019643D01*
X006243Y019509D01*
X006176Y019316D02*
X006110Y019249D01*
X006110Y019116D01*
X006176Y019049D01*
X006443Y019049D01*
X006510Y019116D01*
X006510Y019249D01*
X006443Y019316D01*
X006510Y019509D02*
X006510Y019776D01*
X006443Y019970D02*
X006510Y020036D01*
X006510Y020170D01*
X006443Y020236D01*
X006310Y020236D01*
X006243Y020170D01*
X006243Y020103D01*
X006310Y019970D01*
X006110Y019970D01*
X006110Y020236D01*
X006760Y018606D02*
X006760Y018340D01*
X006560Y018540D01*
X006960Y018540D01*
X007185Y018427D02*
X007185Y017463D01*
X007342Y017345D01*
X006960Y017486D02*
X006960Y017619D01*
X006893Y017686D01*
X006960Y017879D02*
X006960Y018146D01*
X006960Y018013D02*
X006560Y018013D01*
X006693Y017879D01*
X006626Y017686D02*
X006560Y017619D01*
X006560Y017486D01*
X006626Y017419D01*
X006893Y017419D01*
X006960Y017486D01*
X006650Y017105D02*
X006517Y017105D01*
X006450Y017039D01*
X006450Y016772D01*
X006517Y016705D01*
X006650Y016705D01*
X006717Y016772D01*
X006717Y017039D02*
X006650Y017105D01*
X007185Y018427D02*
X007342Y018565D01*
X008011Y018565D01*
X008232Y016679D02*
X008468Y016679D01*
X008250Y016465D02*
X008050Y016465D01*
X008050Y016065D01*
X008050Y016198D02*
X008250Y016198D01*
X008317Y016265D01*
X008317Y016399D01*
X008250Y016465D01*
X008183Y016198D02*
X008317Y016065D01*
X008510Y016132D02*
X008577Y016065D01*
X008711Y016065D01*
X008777Y016132D01*
X008777Y016198D01*
X008711Y016265D01*
X008510Y016265D01*
X008510Y016132D01*
X008510Y016265D02*
X008644Y016399D01*
X008777Y016465D01*
X008473Y015876D02*
X008237Y015876D01*
X008237Y015404D02*
X008473Y015404D01*
X009175Y016100D02*
X009175Y016500D01*
X009375Y016500D01*
X009442Y016434D01*
X009442Y016300D01*
X009375Y016233D01*
X009175Y016233D01*
X009308Y016233D02*
X009442Y016100D01*
X009635Y016300D02*
X009902Y016300D01*
X010096Y016367D02*
X010229Y016500D01*
X010229Y016100D01*
X010096Y016100D02*
X010363Y016100D01*
X009836Y016100D02*
X009836Y016500D01*
X009635Y016300D01*
X009562Y016684D02*
X009798Y016684D01*
X009798Y017156D02*
X009562Y017156D01*
X012419Y019712D02*
X012419Y019948D01*
X012055Y022995D02*
X012055Y025355D01*
X012513Y025546D02*
X012513Y026136D01*
X012513Y025546D02*
X013457Y025546D01*
X013457Y026136D01*
X013736Y026257D02*
X013736Y026391D01*
X013803Y026457D01*
X013869Y026457D01*
X013936Y026391D01*
X014003Y026457D01*
X014070Y026457D01*
X014136Y026391D01*
X014136Y026257D01*
X014070Y026190D01*
X013936Y026324D02*
X013936Y026391D01*
X013736Y026257D02*
X013803Y026190D01*
X013803Y025997D02*
X013736Y025930D01*
X013736Y025797D01*
X013803Y025730D01*
X014070Y025730D01*
X014136Y025797D01*
X014136Y025930D01*
X014070Y025997D01*
X014070Y026651D02*
X013803Y026918D01*
X014070Y026918D01*
X014136Y026851D01*
X014136Y026718D01*
X014070Y026651D01*
X013803Y026651D01*
X013736Y026718D01*
X013736Y026851D01*
X013803Y026918D01*
X013457Y026924D02*
X013457Y027357D01*
X013300Y027514D01*
X012670Y027514D01*
X012513Y027357D01*
X012513Y026924D01*
X012585Y026680D02*
X013385Y026680D01*
X012005Y027380D02*
X012005Y029740D01*
X009425Y029740D01*
X009425Y027380D01*
X009105Y027363D02*
X008705Y027363D01*
X008838Y027229D01*
X008705Y027036D02*
X009038Y027036D01*
X009105Y026969D01*
X009105Y026836D01*
X009038Y026769D01*
X008705Y026769D01*
X009105Y027229D02*
X009105Y027496D01*
X009038Y027690D02*
X009105Y027756D01*
X009105Y027890D01*
X009038Y027956D01*
X008972Y027956D01*
X008905Y027890D01*
X008905Y027823D01*
X008905Y027890D02*
X008838Y027956D01*
X008771Y027956D01*
X008705Y027890D01*
X008705Y027756D01*
X008771Y027690D01*
X007490Y030636D02*
X007556Y030703D01*
X007556Y030970D01*
X007490Y031037D01*
X007356Y031037D01*
X007290Y030970D01*
X007290Y030903D01*
X007356Y030836D01*
X007556Y030836D01*
X007490Y030636D02*
X007356Y030636D01*
X007290Y030703D01*
X007096Y030636D02*
X006829Y030636D01*
X007096Y030903D01*
X007096Y030970D01*
X007029Y031037D01*
X006896Y031037D01*
X006829Y030970D01*
X006636Y030970D02*
X006569Y031037D01*
X006436Y031037D01*
X006369Y030970D01*
X006369Y030703D01*
X006436Y030636D01*
X006569Y030636D01*
X006636Y030703D01*
X006036Y031391D02*
X008004Y031391D01*
X008004Y032573D01*
X009405Y032775D02*
X009405Y035135D01*
X011985Y035135D01*
X011985Y032775D01*
X012310Y032676D02*
X012643Y032676D01*
X012710Y032609D01*
X012710Y032476D01*
X012643Y032409D01*
X012310Y032409D01*
X012443Y032869D02*
X012310Y033003D01*
X012710Y033003D01*
X012710Y033136D02*
X012710Y032869D01*
X012643Y033330D02*
X012376Y033330D01*
X012310Y033396D01*
X012310Y033530D01*
X012376Y033596D01*
X012643Y033330D01*
X012710Y033396D01*
X012710Y033530D01*
X012643Y033596D01*
X012376Y033596D01*
X012420Y034031D02*
X013050Y034031D01*
X013207Y034188D01*
X013207Y034621D01*
X013135Y034865D02*
X012335Y034865D01*
X012263Y034621D02*
X012263Y034188D01*
X012420Y034031D01*
X012263Y035409D02*
X012263Y035999D01*
X013207Y035999D01*
X013207Y035409D01*
X013535Y035259D02*
X013535Y034992D01*
X013602Y034925D01*
X013735Y034925D01*
X013802Y034992D01*
X013995Y035125D02*
X014262Y035125D01*
X014196Y034925D02*
X014196Y035325D01*
X013995Y035125D01*
X013802Y035259D02*
X013735Y035325D01*
X013602Y035325D01*
X013535Y035259D01*
X013627Y035609D02*
X013760Y035609D01*
X013827Y035675D01*
X013627Y035609D02*
X013560Y035675D01*
X013560Y035942D01*
X013627Y036009D01*
X013760Y036009D01*
X013827Y035942D01*
X014020Y035809D02*
X014287Y035809D01*
X014481Y035809D02*
X014748Y035809D01*
X014681Y035609D02*
X014681Y036009D01*
X014481Y035809D01*
X014221Y035609D02*
X014221Y036009D01*
X014020Y035809D01*
X014523Y035325D02*
X014456Y035259D01*
X014523Y035325D02*
X014656Y035325D01*
X014723Y035259D01*
X014723Y035192D01*
X014656Y035125D01*
X014723Y035058D01*
X014723Y034992D01*
X014656Y034925D01*
X014523Y034925D01*
X014456Y034992D01*
X014589Y035125D02*
X014656Y035125D01*
X014013Y034706D02*
X013777Y034706D01*
X013777Y034234D02*
X014013Y034234D01*
X013893Y034029D02*
X014837Y034029D01*
X014837Y033439D01*
X014765Y032895D02*
X013965Y032895D01*
X013893Y032651D02*
X013893Y032218D01*
X014050Y032061D01*
X014680Y032061D01*
X014837Y032218D01*
X014837Y032651D01*
X014487Y031706D02*
X014354Y031706D01*
X014287Y031640D01*
X014287Y031573D01*
X014354Y031440D01*
X014153Y031440D01*
X014153Y031706D01*
X013830Y031716D02*
X013763Y031783D01*
X013630Y031783D01*
X013563Y031716D01*
X013563Y031649D01*
X013630Y031516D01*
X013430Y031516D01*
X013430Y031783D01*
X013830Y031716D02*
X013830Y031583D01*
X013763Y031516D01*
X013763Y031322D02*
X013697Y031322D01*
X013630Y031256D01*
X013630Y031189D01*
X013630Y031256D02*
X013563Y031322D01*
X013496Y031322D01*
X013430Y031256D01*
X013430Y031122D01*
X013496Y031055D01*
X013496Y030862D02*
X013630Y030862D01*
X013697Y030795D01*
X013697Y030595D01*
X013830Y030595D02*
X013430Y030595D01*
X013430Y030795D01*
X013496Y030862D01*
X013697Y030728D02*
X013830Y030862D01*
X013763Y031055D02*
X013830Y031122D01*
X013830Y031256D01*
X013763Y031322D01*
X014153Y031179D02*
X014354Y030979D01*
X014354Y031246D01*
X014554Y031179D02*
X014153Y031179D01*
X014220Y030786D02*
X014153Y030719D01*
X014153Y030586D01*
X014220Y030519D01*
X014487Y030519D01*
X014554Y030586D01*
X014554Y030719D01*
X014487Y030786D01*
X014487Y031440D02*
X014554Y031506D01*
X014554Y031640D01*
X014487Y031706D01*
X013830Y030228D02*
X013830Y029961D01*
X013563Y030228D01*
X013496Y030228D01*
X013430Y030161D01*
X013430Y030028D01*
X013496Y029961D01*
X013496Y029767D02*
X013563Y029767D01*
X013630Y029701D01*
X013697Y029767D01*
X013763Y029767D01*
X013830Y029701D01*
X013830Y029567D01*
X013763Y029500D01*
X013630Y029634D02*
X013630Y029701D01*
X013496Y029767D02*
X013430Y029701D01*
X013430Y029567D01*
X013496Y029500D01*
X013496Y029307D02*
X013630Y029307D01*
X013697Y029240D01*
X013697Y029040D01*
X013830Y029040D02*
X013430Y029040D01*
X013430Y029240D01*
X013496Y029307D01*
X013697Y029173D02*
X013830Y029307D01*
X013186Y029317D02*
X013186Y029553D01*
X012714Y029553D02*
X012714Y029317D01*
X012709Y031017D02*
X012709Y031253D01*
X013181Y031253D02*
X013181Y031017D01*
X014722Y029295D02*
X014856Y029295D01*
X014789Y029295D02*
X014789Y028962D01*
X014722Y028895D01*
X014656Y028895D01*
X014589Y028962D01*
X015049Y029028D02*
X015249Y029028D01*
X015316Y029095D01*
X015316Y029229D01*
X015249Y029295D01*
X015049Y029295D01*
X015049Y028895D01*
X015510Y028895D02*
X015776Y028895D01*
X015643Y028895D02*
X015643Y029295D01*
X015510Y029162D01*
X015869Y028018D02*
X015869Y027782D01*
X016341Y027782D02*
X016341Y028018D01*
X016500Y028205D02*
X016700Y028205D01*
X016633Y028338D01*
X016633Y028405D01*
X016700Y028471D01*
X016833Y028471D01*
X016900Y028405D01*
X016900Y028271D01*
X016833Y028205D01*
X016500Y028205D02*
X016500Y028471D01*
X018180Y028037D02*
X018180Y027770D01*
X018419Y027792D02*
X018419Y028028D01*
X019356Y033170D02*
X019289Y033237D01*
X019289Y033570D01*
X019556Y033570D02*
X019556Y033237D01*
X019489Y033170D01*
X019356Y033170D01*
X019750Y033370D02*
X020017Y033370D01*
X019950Y033170D02*
X019950Y033570D01*
X019750Y033370D01*
X019559Y034647D02*
X019559Y034883D01*
X020031Y034883D02*
X020031Y034647D01*
X020254Y034642D02*
X020254Y034878D01*
X020726Y034878D02*
X020726Y034642D01*
X020939Y034642D02*
X020939Y034878D01*
X021411Y034878D02*
X021411Y034642D01*
X021644Y034657D02*
X021644Y034893D01*
X022116Y034893D02*
X022116Y034657D01*
X022384Y034483D02*
X022384Y034247D01*
X022856Y034247D02*
X022856Y034483D01*
X022800Y035084D02*
X022400Y035084D01*
X022400Y035284D01*
X022466Y035351D01*
X022600Y035351D01*
X022667Y035284D01*
X022667Y035084D01*
X022667Y035217D02*
X022800Y035351D01*
X022800Y035544D02*
X022533Y035811D01*
X022466Y035811D01*
X022400Y035744D01*
X022400Y035611D01*
X022466Y035544D01*
X022800Y035544D02*
X022800Y035811D01*
X022733Y036005D02*
X022667Y036005D01*
X022600Y036071D01*
X022600Y036205D01*
X022667Y036271D01*
X022733Y036271D01*
X022800Y036205D01*
X022800Y036071D01*
X022733Y036005D01*
X022600Y036071D02*
X022533Y036005D01*
X022466Y036005D01*
X022400Y036071D01*
X022400Y036205D01*
X022466Y036271D01*
X022533Y036271D01*
X022600Y036205D01*
X022090Y036151D02*
X021690Y036151D01*
X021890Y035950D01*
X021890Y036217D01*
X021890Y036411D02*
X021890Y036611D01*
X021957Y036678D01*
X022023Y036678D01*
X022090Y036611D01*
X022090Y036478D01*
X022023Y036411D01*
X021890Y036411D01*
X021756Y036544D01*
X021690Y036678D01*
X021380Y036365D02*
X021313Y036365D01*
X021046Y036631D01*
X020980Y036631D01*
X020980Y036365D01*
X021046Y036171D02*
X020980Y036104D01*
X020980Y035971D01*
X021046Y035904D01*
X021046Y035711D02*
X021180Y035711D01*
X021247Y035644D01*
X021247Y035444D01*
X021380Y035444D02*
X020980Y035444D01*
X020980Y035644D01*
X021046Y035711D01*
X021247Y035577D02*
X021380Y035711D01*
X021380Y035904D02*
X021113Y036171D01*
X021046Y036171D01*
X021380Y036171D02*
X021380Y035904D01*
X021690Y035690D02*
X021690Y035557D01*
X021756Y035490D01*
X022023Y035490D01*
X022090Y035557D01*
X022090Y035690D01*
X022023Y035757D01*
X021756Y035757D02*
X021690Y035690D01*
X020680Y035797D02*
X020547Y035663D01*
X020547Y035730D02*
X020547Y035530D01*
X020680Y035530D02*
X020280Y035530D01*
X020280Y035730D01*
X020346Y035797D01*
X020480Y035797D01*
X020547Y035730D01*
X020680Y035990D02*
X020413Y036257D01*
X020346Y036257D01*
X020280Y036191D01*
X020280Y036057D01*
X020346Y035990D01*
X020680Y035990D02*
X020680Y036257D01*
X020613Y036451D02*
X020680Y036518D01*
X020680Y036651D01*
X020613Y036718D01*
X020547Y036718D01*
X020480Y036651D01*
X020480Y036451D01*
X020613Y036451D01*
X020480Y036451D02*
X020346Y036584D01*
X020280Y036718D01*
X019980Y036566D02*
X019913Y036633D01*
X019646Y036633D01*
X019580Y036566D01*
X019580Y036433D01*
X019646Y036366D01*
X019713Y036366D01*
X019780Y036433D01*
X019780Y036633D01*
X019980Y036566D02*
X019980Y036433D01*
X019913Y036366D01*
X019980Y036172D02*
X019980Y035905D01*
X019713Y036172D01*
X019646Y036172D01*
X019580Y036106D01*
X019580Y035972D01*
X019646Y035905D01*
X019646Y035712D02*
X019580Y035645D01*
X019580Y035445D01*
X019980Y035445D01*
X019847Y035445D02*
X019847Y035645D01*
X019780Y035712D01*
X019646Y035712D01*
X019847Y035578D02*
X019980Y035712D01*
X013893Y034029D02*
X013893Y033439D01*
X009100Y034417D02*
X009100Y034550D01*
X009033Y034617D01*
X008700Y034617D01*
X008766Y034810D02*
X008833Y034810D01*
X008900Y034877D01*
X008900Y035077D01*
X009033Y035077D02*
X008766Y035077D01*
X008700Y035011D01*
X008700Y034877D01*
X008766Y034810D01*
X009033Y034810D02*
X009100Y034877D01*
X009100Y035011D01*
X009033Y035077D01*
X009100Y034417D02*
X009033Y034350D01*
X008700Y034350D01*
X008004Y034147D02*
X008004Y034935D01*
X007611Y035329D01*
X006429Y035329D01*
X006036Y034935D01*
X006036Y034147D01*
X006036Y032573D02*
X006036Y031391D01*
X013650Y023766D02*
X013717Y023766D01*
X013784Y023700D01*
X013784Y023566D01*
X013717Y023500D01*
X013650Y023500D01*
X013583Y023566D01*
X013583Y023700D01*
X013650Y023766D01*
X013784Y023700D02*
X013850Y023766D01*
X013917Y023766D01*
X013984Y023700D01*
X013984Y023566D01*
X013917Y023500D01*
X013850Y023500D01*
X013784Y023566D01*
X013984Y023306D02*
X013984Y023039D01*
X026924Y016198D02*
X026924Y015962D01*
X009306Y003509D02*
X009240Y003575D01*
X009106Y003575D01*
X009040Y003509D01*
X009040Y003442D01*
X009106Y003375D01*
X009306Y003375D01*
X009306Y003242D02*
X009306Y003509D01*
X009306Y003242D02*
X009240Y003175D01*
X009106Y003175D01*
X009040Y003242D01*
X008846Y003242D02*
X008779Y003175D01*
X008646Y003175D01*
X008579Y003242D01*
X008713Y003375D02*
X008779Y003375D01*
X008846Y003308D01*
X008846Y003242D01*
X008779Y003375D02*
X008846Y003442D01*
X008846Y003509D01*
X008779Y003575D01*
X008646Y003575D01*
X008579Y003509D01*
X008386Y003509D02*
X008319Y003575D01*
X008119Y003575D01*
X008119Y003175D01*
X008119Y003308D02*
X008319Y003308D01*
X008386Y003375D01*
X008386Y003509D01*
X008252Y003308D02*
X008386Y003175D01*
X008532Y003764D02*
X008768Y003764D01*
X008768Y004236D02*
X008532Y004236D01*
X008542Y004514D02*
X008778Y004514D01*
X008778Y004986D02*
X008542Y004986D01*
X008619Y005190D02*
X008886Y005190D01*
X008753Y005190D02*
X008753Y005590D01*
X008619Y005457D01*
X008426Y005590D02*
X008426Y005257D01*
X008359Y005190D01*
X008226Y005190D01*
X006659Y005075D02*
X006592Y005141D01*
X006525Y005141D01*
X006459Y005075D01*
X006459Y004875D01*
X006592Y004875D01*
X006659Y004941D01*
X006659Y005075D01*
X006459Y004875D02*
X006325Y005008D01*
X006258Y005141D01*
D11*
X008165Y017439D02*
X008165Y018461D01*
D12*
X000882Y037180D02*
X000884Y037246D01*
X000890Y037312D01*
X000900Y037378D01*
X000913Y037443D01*
X000931Y037507D01*
X000952Y037569D01*
X000977Y037631D01*
X001005Y037691D01*
X001037Y037749D01*
X001073Y037805D01*
X001111Y037858D01*
X001153Y037910D01*
X001198Y037959D01*
X001245Y038005D01*
X001296Y038048D01*
X001348Y038088D01*
X001403Y038125D01*
X001460Y038159D01*
X001519Y038189D01*
X001580Y038216D01*
X001642Y038239D01*
X001705Y038258D01*
X001770Y038274D01*
X001835Y038286D01*
X001901Y038294D01*
X001967Y038298D01*
X002033Y038298D01*
X002099Y038294D01*
X002165Y038286D01*
X002230Y038274D01*
X002295Y038258D01*
X002358Y038239D01*
X002420Y038216D01*
X002481Y038189D01*
X002540Y038159D01*
X002597Y038125D01*
X002652Y038088D01*
X002704Y038048D01*
X002755Y038005D01*
X002802Y037959D01*
X002847Y037910D01*
X002889Y037858D01*
X002927Y037805D01*
X002963Y037749D01*
X002995Y037691D01*
X003023Y037631D01*
X003048Y037569D01*
X003069Y037507D01*
X003087Y037443D01*
X003100Y037378D01*
X003110Y037312D01*
X003116Y037246D01*
X003118Y037180D01*
X003116Y037114D01*
X003110Y037048D01*
X003100Y036982D01*
X003087Y036917D01*
X003069Y036853D01*
X003048Y036791D01*
X003023Y036729D01*
X002995Y036669D01*
X002963Y036611D01*
X002927Y036555D01*
X002889Y036502D01*
X002847Y036450D01*
X002802Y036401D01*
X002755Y036355D01*
X002704Y036312D01*
X002652Y036272D01*
X002597Y036235D01*
X002540Y036201D01*
X002481Y036171D01*
X002420Y036144D01*
X002358Y036121D01*
X002295Y036102D01*
X002230Y036086D01*
X002165Y036074D01*
X002099Y036066D01*
X002033Y036062D01*
X001967Y036062D01*
X001901Y036066D01*
X001835Y036074D01*
X001770Y036086D01*
X001705Y036102D01*
X001642Y036121D01*
X001580Y036144D01*
X001519Y036171D01*
X001460Y036201D01*
X001403Y036235D01*
X001348Y036272D01*
X001296Y036312D01*
X001245Y036355D01*
X001198Y036401D01*
X001153Y036450D01*
X001111Y036502D01*
X001073Y036555D01*
X001037Y036611D01*
X001005Y036669D01*
X000977Y036729D01*
X000952Y036791D01*
X000931Y036853D01*
X000913Y036917D01*
X000900Y036982D01*
X000890Y037048D01*
X000884Y037114D01*
X000882Y037180D01*
D13*
X010695Y035325D03*
X010715Y029930D03*
X010765Y022805D03*
D14*
X022200Y023584D03*
X022960Y023584D03*
X029684Y034900D03*
X029679Y035745D03*
X029639Y036585D03*
X030165Y011081D03*
D15*
X029952Y012534D03*
X029372Y012534D03*
D16*
X015819Y001130D03*
D17*
X016801Y001130D03*
D18*
X015819Y001131D03*
D19*
X016801Y001131D03*
D20*
X016754Y001198D03*
X016754Y001199D03*
X016754Y001201D03*
X016795Y001311D03*
X016901Y001197D03*
X016900Y001196D03*
X016495Y001141D03*
X016495Y001139D03*
X016440Y001369D03*
X015954Y001317D03*
X015954Y001316D03*
X015906Y001191D03*
X015819Y001132D03*
X015769Y001199D03*
X015769Y001201D03*
X015769Y001202D03*
X015769Y001203D03*
X015810Y001311D03*
X015811Y001312D03*
X015535Y001372D03*
X015221Y001323D03*
X015221Y001322D03*
X015221Y001321D03*
X015195Y001272D03*
D21*
X015171Y001181D03*
X015171Y001179D03*
X015170Y001178D03*
X015170Y001177D03*
X015170Y001176D03*
X015169Y001174D03*
X015169Y001173D03*
X015169Y001172D03*
X015166Y001164D03*
X015166Y001163D03*
X015166Y001162D03*
X015165Y001159D03*
X015165Y001158D03*
X015164Y001156D03*
X015164Y001154D03*
X015420Y001216D03*
X015425Y001223D03*
X015429Y001229D03*
X015431Y001232D03*
X015434Y001236D03*
X015435Y001237D03*
X015436Y001239D03*
X015439Y001243D03*
X015440Y001244D03*
X015441Y001246D03*
X015445Y001251D03*
X015446Y001253D03*
X015449Y001257D03*
X015450Y001258D03*
X015454Y001264D03*
X015456Y001267D03*
X015459Y001271D03*
X015461Y001274D03*
X016354Y001142D03*
X016355Y001144D03*
X016356Y001147D03*
X016359Y001156D03*
X016360Y001158D03*
X016361Y001161D03*
X016364Y001169D03*
X016365Y001172D03*
X016369Y001183D03*
X016370Y001186D03*
X016371Y001188D03*
X016374Y001197D03*
X016375Y001199D03*
X016376Y001202D03*
X016380Y001213D03*
X016381Y001216D03*
X016384Y001224D03*
X016385Y001227D03*
X016389Y001238D03*
X016390Y001241D03*
X016391Y001243D03*
X016394Y001252D03*
X016395Y001254D03*
X016396Y001257D03*
X016400Y001268D03*
X016401Y001271D03*
X016404Y001279D03*
X016405Y001282D03*
X016409Y001293D03*
X016410Y001296D03*
X016539Y001252D03*
X016540Y001254D03*
X016541Y001257D03*
X016545Y001268D03*
X016546Y001271D03*
X016549Y001279D03*
X016550Y001282D03*
X016554Y001293D03*
X016555Y001296D03*
X016556Y001298D03*
X016559Y001307D03*
X016560Y001309D03*
X016561Y001312D03*
X016565Y001323D03*
X016566Y001326D03*
X016569Y001334D03*
X016570Y001337D03*
X016571Y001339D03*
X016574Y001348D03*
X016575Y001351D03*
X016576Y001353D03*
X016579Y001361D03*
X016579Y001362D03*
X016580Y001364D03*
X016581Y001367D03*
X016536Y001243D03*
X016535Y001241D03*
X016534Y001238D03*
X016530Y001227D03*
X016529Y001224D03*
X016526Y001216D03*
X016801Y001132D03*
X016909Y001212D03*
X016910Y001214D03*
X016936Y001297D03*
D22*
X016894Y001187D03*
X016759Y001184D03*
X016810Y001326D03*
X016811Y001327D03*
X016440Y001357D03*
X016440Y001358D03*
X016440Y001359D03*
X015950Y001328D03*
X015826Y001327D03*
X015825Y001326D03*
X015820Y001133D03*
X015531Y001362D03*
X015531Y001363D03*
X017739Y001141D03*
D23*
X016936Y001324D03*
X016801Y001318D03*
X016800Y001317D03*
X016799Y001316D03*
X016755Y001194D03*
X016755Y001193D03*
X016801Y001133D03*
X016898Y001193D03*
X016440Y001366D03*
X016440Y001367D03*
X015953Y001321D03*
X015903Y001188D03*
X015902Y001187D03*
X015901Y001186D03*
X015770Y001194D03*
X015534Y001369D03*
X015176Y001222D03*
D24*
X015779Y001177D03*
X015819Y001134D03*
X015944Y001334D03*
X016764Y001177D03*
D25*
X016759Y001183D03*
X016801Y001134D03*
X016813Y001328D03*
X016932Y001331D03*
X016496Y001154D03*
X016496Y001153D03*
X016439Y001356D03*
X015949Y001329D03*
X015828Y001328D03*
X015774Y001184D03*
X015892Y001179D03*
X015531Y001361D03*
X015218Y001331D03*
X015173Y001226D03*
X017739Y001142D03*
D26*
X017738Y001215D03*
X017739Y001230D03*
X017794Y001215D03*
X017804Y001230D03*
X017371Y001225D03*
X017369Y001220D03*
X017362Y001200D03*
X017358Y001190D03*
X016759Y001245D03*
X016473Y001230D03*
X016472Y001235D03*
X016471Y001240D03*
X016469Y001250D03*
X016462Y001280D03*
X016461Y001285D03*
X016459Y001295D03*
X016207Y001375D03*
X016203Y001365D03*
X016196Y001345D03*
X016194Y001340D03*
X016183Y001310D03*
X016176Y001290D03*
X016174Y001285D03*
X016163Y001255D03*
X016156Y001235D03*
X016154Y001230D03*
X016143Y001200D03*
X016136Y001180D03*
X016134Y001175D03*
X016132Y001170D03*
X016123Y001145D03*
X015954Y001305D03*
X015784Y001270D03*
X015776Y001250D03*
X015773Y001240D03*
X015536Y001235D03*
X015536Y001230D03*
X015536Y001225D03*
X015398Y001185D03*
X015391Y001175D03*
X015384Y001165D03*
X015377Y001155D03*
X015177Y001205D03*
X015162Y001135D03*
X015037Y001190D03*
X015033Y001180D03*
X015026Y001160D03*
X015024Y001155D03*
X015017Y001135D03*
X015044Y001210D03*
X015046Y001215D03*
X015204Y001280D03*
X015213Y001295D03*
D27*
X015215Y001300D03*
X015218Y001305D03*
X015220Y001310D03*
X015178Y001210D03*
X015050Y001225D03*
X015048Y001220D03*
X015043Y001205D03*
X015040Y001200D03*
X015039Y001195D03*
X015031Y001175D03*
X015030Y001170D03*
X015028Y001165D03*
X015023Y001150D03*
X015020Y001145D03*
X015019Y001140D03*
X015363Y001135D03*
X015366Y001140D03*
X015374Y001150D03*
X015534Y001140D03*
X015535Y001165D03*
X015535Y001170D03*
X015535Y001175D03*
X015535Y001180D03*
X015535Y001185D03*
X015770Y001225D03*
X015770Y001230D03*
X015771Y001235D03*
X015775Y001245D03*
X015778Y001255D03*
X015780Y001260D03*
X015781Y001265D03*
X015786Y001275D03*
X015791Y001285D03*
X015795Y001290D03*
X015920Y001210D03*
X015918Y001205D03*
X015955Y001310D03*
X016158Y001240D03*
X016160Y001245D03*
X016161Y001250D03*
X016166Y001265D03*
X016169Y001270D03*
X016170Y001275D03*
X016173Y001280D03*
X016178Y001295D03*
X016180Y001300D03*
X016181Y001305D03*
X016186Y001320D03*
X016189Y001325D03*
X016190Y001330D03*
X016193Y001335D03*
X016198Y001350D03*
X016200Y001355D03*
X016201Y001360D03*
X016153Y001225D03*
X016150Y001220D03*
X016149Y001215D03*
X016146Y001210D03*
X016141Y001195D03*
X016140Y001190D03*
X016138Y001185D03*
X016130Y001165D03*
X016129Y001160D03*
X016126Y001155D03*
X016121Y001140D03*
X016120Y001135D03*
X016495Y001135D03*
X016440Y001375D03*
X016760Y001250D03*
X016763Y001255D03*
X016765Y001260D03*
X016766Y001265D03*
X016769Y001270D03*
X016771Y001275D03*
X016774Y001280D03*
X016776Y001285D03*
X016780Y001290D03*
X016783Y001295D03*
X016758Y001240D03*
X016756Y001235D03*
X016755Y001230D03*
X016755Y001225D03*
X016754Y001220D03*
X016938Y001310D03*
X017355Y001180D03*
X017356Y001185D03*
X017364Y001205D03*
X017365Y001210D03*
X017368Y001215D03*
X017373Y001230D03*
X017375Y001235D03*
X017738Y001210D03*
X017739Y001220D03*
X017739Y001225D03*
X017740Y001235D03*
X017740Y001240D03*
X017740Y001250D03*
X017740Y001255D03*
X017740Y001260D03*
X017741Y001265D03*
X017741Y001270D03*
X017741Y001275D03*
X017743Y001280D03*
X017743Y001285D03*
X017743Y001290D03*
X017744Y001295D03*
X017744Y001300D03*
X017744Y001305D03*
X017745Y001315D03*
X017745Y001320D03*
X017745Y001330D03*
X017745Y001335D03*
X017746Y001345D03*
X017746Y001350D03*
X017748Y001365D03*
X017848Y001295D03*
X017845Y001290D03*
X017838Y001280D03*
X017835Y001275D03*
X017830Y001270D03*
X017828Y001265D03*
X017825Y001260D03*
X017820Y001255D03*
X017818Y001250D03*
X017815Y001245D03*
X017810Y001240D03*
X017808Y001235D03*
X017800Y001225D03*
X017798Y001220D03*
X017790Y001210D03*
X017855Y001305D03*
X017858Y001310D03*
X017865Y001320D03*
X017875Y001335D03*
D28*
X017878Y001340D03*
X017881Y001345D03*
X017888Y001355D03*
X017891Y001360D03*
X017898Y001370D03*
X017901Y001375D03*
X017871Y001330D03*
X017868Y001325D03*
X017861Y001315D03*
X017851Y001300D03*
X017841Y001285D03*
X017744Y001310D03*
X017746Y001340D03*
X017747Y001355D03*
X017747Y001360D03*
X017748Y001370D03*
X017748Y001375D03*
X016938Y001315D03*
X016786Y001300D03*
X016753Y001215D03*
X016753Y001210D03*
X015914Y001200D03*
X015769Y001215D03*
X015769Y001220D03*
X015789Y001280D03*
X015798Y001295D03*
X015801Y001300D03*
X015536Y001375D03*
X015534Y001160D03*
X015534Y001155D03*
X015534Y001150D03*
X015534Y001145D03*
X015533Y001135D03*
X015199Y001275D03*
D29*
X015525Y001345D03*
X015820Y001135D03*
D30*
X015486Y001310D03*
X015479Y001300D03*
X015475Y001295D03*
X015468Y001285D03*
X015465Y001280D03*
X015461Y001275D03*
X015454Y001265D03*
X016351Y001135D03*
X016353Y001140D03*
X016360Y001160D03*
X016364Y001170D03*
X016369Y001185D03*
X016371Y001190D03*
X016373Y001195D03*
X016375Y001200D03*
X016380Y001215D03*
X016384Y001225D03*
X016389Y001240D03*
X016391Y001245D03*
X016393Y001250D03*
X016395Y001255D03*
X016400Y001270D03*
X016404Y001280D03*
X016409Y001295D03*
X016536Y001245D03*
X016534Y001240D03*
X016538Y001250D03*
X016540Y001255D03*
X016545Y001270D03*
X016549Y001280D03*
X016554Y001295D03*
X016556Y001300D03*
X016558Y001305D03*
X016560Y001310D03*
X016565Y001325D03*
X016569Y001335D03*
X016576Y001355D03*
X016578Y001360D03*
X016580Y001365D03*
X016529Y001225D03*
X016525Y001215D03*
X016910Y001215D03*
D31*
X016801Y001135D03*
D32*
X016889Y001135D03*
D33*
X017399Y001135D03*
X017404Y001150D03*
X017410Y001165D03*
X015114Y001235D03*
D34*
X015771Y001190D03*
X015818Y001320D03*
X016495Y001145D03*
X016803Y001320D03*
X016935Y001325D03*
X017736Y001135D03*
D35*
X017738Y001211D03*
X017738Y001212D03*
X017738Y001213D03*
X017738Y001214D03*
X017739Y001228D03*
X017739Y001229D03*
X017792Y001212D03*
X017796Y001218D03*
X017798Y001221D03*
X017802Y001227D03*
X017806Y001233D03*
X017808Y001236D03*
X017374Y001234D03*
X017374Y001233D03*
X017373Y001231D03*
X017372Y001228D03*
X017368Y001217D03*
X017367Y001214D03*
X017366Y001212D03*
X017366Y001211D03*
X017364Y001206D03*
X017363Y001203D03*
X017362Y001201D03*
X017361Y001198D03*
X017359Y001192D03*
X017358Y001189D03*
X017357Y001187D03*
X017356Y001184D03*
X016938Y001307D03*
X016938Y001308D03*
X016938Y001309D03*
X016907Y001208D03*
X016906Y001206D03*
X016767Y001266D03*
X016766Y001264D03*
X016764Y001259D03*
X016763Y001256D03*
X016762Y001254D03*
X016761Y001251D03*
X016758Y001241D03*
X016477Y001214D03*
X016476Y001217D03*
X016476Y001218D03*
X016474Y001226D03*
X016474Y001227D03*
X016473Y001231D03*
X016473Y001232D03*
X016472Y001236D03*
X016471Y001239D03*
X016471Y001241D03*
X016469Y001248D03*
X016469Y001249D03*
X016468Y001253D03*
X016468Y001254D03*
X016467Y001258D03*
X016467Y001259D03*
X016466Y001262D03*
X016466Y001263D03*
X016466Y001264D03*
X016464Y001271D03*
X016464Y001272D03*
X016464Y001273D03*
X016463Y001276D03*
X016463Y001277D03*
X016462Y001281D03*
X016462Y001282D03*
X016461Y001286D03*
X016459Y001294D03*
X016206Y001373D03*
X016204Y001367D03*
X016203Y001364D03*
X016202Y001362D03*
X016201Y001359D03*
X016199Y001354D03*
X016198Y001351D03*
X016197Y001348D03*
X016193Y001337D03*
X016192Y001334D03*
X016191Y001332D03*
X016189Y001326D03*
X016188Y001323D03*
X016187Y001321D03*
X016186Y001318D03*
X016184Y001312D03*
X016182Y001307D03*
X016181Y001304D03*
X016179Y001299D03*
X016178Y001296D03*
X016177Y001293D03*
X016173Y001282D03*
X016172Y001279D03*
X016171Y001277D03*
X016169Y001271D03*
X016168Y001268D03*
X016167Y001266D03*
X016166Y001263D03*
X016164Y001257D03*
X016162Y001252D03*
X016161Y001249D03*
X016159Y001244D03*
X016158Y001241D03*
X016157Y001238D03*
X016153Y001227D03*
X016152Y001224D03*
X016151Y001222D03*
X016149Y001216D03*
X016148Y001213D03*
X016147Y001211D03*
X016146Y001208D03*
X016144Y001202D03*
X016142Y001197D03*
X016141Y001194D03*
X016139Y001189D03*
X016138Y001186D03*
X016137Y001183D03*
X016136Y001181D03*
X016133Y001172D03*
X016132Y001169D03*
X016131Y001167D03*
X016129Y001161D03*
X016128Y001159D03*
X016128Y001158D03*
X016127Y001156D03*
X016126Y001153D03*
X016124Y001148D03*
X016124Y001147D03*
X016122Y001142D03*
X016121Y001139D03*
X015928Y001223D03*
X015927Y001221D03*
X015926Y001219D03*
X015924Y001216D03*
X015923Y001214D03*
X015922Y001213D03*
X015922Y001212D03*
X015921Y001211D03*
X015918Y001206D03*
X015954Y001301D03*
X015954Y001302D03*
X015954Y001303D03*
X015954Y001304D03*
X015954Y001306D03*
X015909Y001379D03*
X015783Y001268D03*
X015781Y001263D03*
X015779Y001258D03*
X015778Y001256D03*
X015777Y001253D03*
X015774Y001244D03*
X015772Y001236D03*
X015536Y001236D03*
X015536Y001237D03*
X015536Y001238D03*
X015536Y001234D03*
X015536Y001233D03*
X015536Y001232D03*
X015536Y001231D03*
X015536Y001229D03*
X015536Y001228D03*
X015536Y001227D03*
X015536Y001226D03*
X015536Y001224D03*
X015536Y001223D03*
X015536Y001222D03*
X015536Y001221D03*
X015408Y001199D03*
X015403Y001192D03*
X015401Y001189D03*
X015399Y001186D03*
X015396Y001182D03*
X015394Y001179D03*
X015393Y001178D03*
X015392Y001176D03*
X015389Y001172D03*
X015388Y001171D03*
X015387Y001169D03*
X015386Y001168D03*
X015383Y001164D03*
X015382Y001162D03*
X015381Y001161D03*
X015379Y001158D03*
X015378Y001157D03*
X015376Y001154D03*
X015374Y001151D03*
X015372Y001148D03*
X015371Y001147D03*
X015369Y001144D03*
X015367Y001141D03*
X015176Y001198D03*
X015176Y001199D03*
X015177Y001203D03*
X015177Y001204D03*
X015177Y001206D03*
X015177Y001207D03*
X015162Y001139D03*
X015162Y001138D03*
X015162Y001137D03*
X015162Y001136D03*
X015033Y001179D03*
X015032Y001177D03*
X015031Y001174D03*
X015029Y001169D03*
X015029Y001168D03*
X015028Y001166D03*
X015027Y001163D03*
X015023Y001152D03*
X015022Y001149D03*
X015021Y001147D03*
X015021Y001146D03*
X015019Y001141D03*
X015018Y001138D03*
X015017Y001136D03*
X015034Y001182D03*
X015036Y001188D03*
X015037Y001191D03*
X015038Y001193D03*
X015039Y001196D03*
X015041Y001201D03*
X015041Y001202D03*
X015042Y001204D03*
X015043Y001207D03*
X015047Y001218D03*
X015048Y001221D03*
X015049Y001223D03*
X015049Y001224D03*
X015201Y001277D03*
X015202Y001278D03*
X015203Y001279D03*
X015206Y001283D03*
X015207Y001284D03*
X015208Y001286D03*
X015209Y001287D03*
X015211Y001291D03*
X015212Y001292D03*
X015212Y001293D03*
X015213Y001294D03*
X015214Y001296D03*
X015214Y001297D03*
X015216Y001301D03*
X015217Y001303D03*
X015217Y001304D03*
X015218Y001306D03*
D36*
X015219Y001307D03*
X015219Y001308D03*
X015219Y001309D03*
X015220Y001311D03*
X015220Y001312D03*
X015216Y001302D03*
X015178Y001213D03*
X015178Y001212D03*
X015178Y001211D03*
X015178Y001209D03*
X015178Y001208D03*
X015051Y001229D03*
X015050Y001228D03*
X015050Y001227D03*
X015049Y001222D03*
X015048Y001219D03*
X015046Y001217D03*
X015046Y001216D03*
X015045Y001214D03*
X015045Y001211D03*
X015044Y001209D03*
X015044Y001208D03*
X015043Y001206D03*
X015041Y001203D03*
X015040Y001198D03*
X015040Y001197D03*
X015039Y001194D03*
X015038Y001192D03*
X015036Y001189D03*
X015035Y001187D03*
X015035Y001186D03*
X015035Y001184D03*
X015035Y001183D03*
X015034Y001181D03*
X015033Y001178D03*
X015031Y001176D03*
X015030Y001173D03*
X015030Y001172D03*
X015029Y001167D03*
X015028Y001164D03*
X015026Y001162D03*
X015026Y001161D03*
X015025Y001159D03*
X015025Y001156D03*
X015024Y001154D03*
X015024Y001153D03*
X015023Y001151D03*
X015021Y001148D03*
X015020Y001143D03*
X015020Y001142D03*
X015019Y001139D03*
X015018Y001137D03*
X015364Y001136D03*
X015365Y001137D03*
X015365Y001139D03*
X015368Y001142D03*
X015369Y001143D03*
X015370Y001146D03*
X015373Y001149D03*
X015375Y001153D03*
X015378Y001156D03*
X015383Y001163D03*
X015535Y001163D03*
X015535Y001164D03*
X015535Y001166D03*
X015535Y001167D03*
X015535Y001168D03*
X015535Y001169D03*
X015535Y001171D03*
X015535Y001172D03*
X015535Y001173D03*
X015535Y001174D03*
X015535Y001176D03*
X015535Y001177D03*
X015535Y001178D03*
X015535Y001179D03*
X015535Y001181D03*
X015535Y001182D03*
X015535Y001183D03*
X015535Y001184D03*
X015535Y001186D03*
X015535Y001187D03*
X015535Y001162D03*
X015534Y001139D03*
X015534Y001138D03*
X015534Y001137D03*
X015770Y001222D03*
X015770Y001223D03*
X015770Y001224D03*
X015770Y001226D03*
X015770Y001228D03*
X015770Y001229D03*
X015770Y001231D03*
X015771Y001232D03*
X015771Y001233D03*
X015771Y001234D03*
X015773Y001237D03*
X015773Y001238D03*
X015773Y001239D03*
X015774Y001241D03*
X015774Y001242D03*
X015774Y001243D03*
X015775Y001246D03*
X015775Y001248D03*
X015775Y001249D03*
X015776Y001251D03*
X015776Y001252D03*
X015778Y001254D03*
X015779Y001257D03*
X015780Y001259D03*
X015780Y001262D03*
X015781Y001264D03*
X015783Y001266D03*
X015783Y001267D03*
X015784Y001269D03*
X015785Y001271D03*
X015785Y001273D03*
X015785Y001274D03*
X015786Y001276D03*
X015788Y001277D03*
X015788Y001278D03*
X015789Y001279D03*
X015790Y001281D03*
X015790Y001283D03*
X015791Y001284D03*
X015793Y001286D03*
X015794Y001288D03*
X015796Y001293D03*
X015799Y001296D03*
X015919Y001207D03*
X015920Y001208D03*
X015916Y001204D03*
X015915Y001201D03*
X015955Y001307D03*
X015955Y001308D03*
X015955Y001309D03*
X015955Y001311D03*
X016159Y001243D03*
X016159Y001242D03*
X016158Y001239D03*
X016156Y001237D03*
X016156Y001236D03*
X016155Y001234D03*
X016155Y001232D03*
X016155Y001231D03*
X016154Y001229D03*
X016154Y001228D03*
X016153Y001226D03*
X016151Y001223D03*
X016150Y001221D03*
X016150Y001218D03*
X016150Y001217D03*
X016149Y001214D03*
X016148Y001212D03*
X016146Y001209D03*
X016145Y001207D03*
X016145Y001206D03*
X016145Y001204D03*
X016145Y001203D03*
X016144Y001201D03*
X016143Y001199D03*
X016143Y001198D03*
X016141Y001196D03*
X016140Y001193D03*
X016139Y001188D03*
X016139Y001187D03*
X016138Y001184D03*
X016136Y001182D03*
X016135Y001179D03*
X016135Y001177D03*
X016135Y001176D03*
X016134Y001174D03*
X016134Y001173D03*
X016133Y001171D03*
X016131Y001168D03*
X016130Y001166D03*
X016130Y001163D03*
X016130Y001162D03*
X016128Y001157D03*
X016126Y001154D03*
X016125Y001152D03*
X016125Y001151D03*
X016125Y001149D03*
X016124Y001146D03*
X016123Y001144D03*
X016123Y001143D03*
X016121Y001141D03*
X016120Y001138D03*
X016160Y001247D03*
X016160Y001248D03*
X016161Y001251D03*
X016163Y001253D03*
X016163Y001254D03*
X016164Y001256D03*
X016165Y001258D03*
X016165Y001259D03*
X016165Y001261D03*
X016165Y001262D03*
X016166Y001264D03*
X016168Y001267D03*
X016169Y001269D03*
X016170Y001272D03*
X016170Y001273D03*
X016170Y001276D03*
X016171Y001278D03*
X016173Y001281D03*
X016174Y001283D03*
X016174Y001284D03*
X016175Y001286D03*
X016175Y001287D03*
X016175Y001289D03*
X016176Y001291D03*
X016176Y001292D03*
X016178Y001294D03*
X016179Y001297D03*
X016179Y001298D03*
X016180Y001302D03*
X016180Y001303D03*
X016181Y001306D03*
X016183Y001308D03*
X016183Y001309D03*
X016184Y001311D03*
X016185Y001313D03*
X016185Y001314D03*
X016185Y001316D03*
X016185Y001317D03*
X016186Y001319D03*
X016188Y001322D03*
X016189Y001324D03*
X016190Y001327D03*
X016190Y001328D03*
X016190Y001331D03*
X016191Y001333D03*
X016193Y001336D03*
X016194Y001338D03*
X016194Y001339D03*
X016195Y001341D03*
X016195Y001342D03*
X016195Y001344D03*
X016196Y001346D03*
X016196Y001347D03*
X016198Y001349D03*
X016199Y001352D03*
X016199Y001353D03*
X016200Y001357D03*
X016200Y001358D03*
X016201Y001361D03*
X016203Y001363D03*
X016204Y001366D03*
X016205Y001368D03*
X016205Y001369D03*
X016205Y001371D03*
X016205Y001372D03*
X016206Y001374D03*
X016440Y001374D03*
X016761Y001253D03*
X016761Y001252D03*
X016760Y001249D03*
X016760Y001247D03*
X016760Y001246D03*
X016759Y001244D03*
X016759Y001243D03*
X016759Y001242D03*
X016758Y001239D03*
X016758Y001238D03*
X016756Y001237D03*
X016756Y001236D03*
X016756Y001234D03*
X016755Y001233D03*
X016755Y001232D03*
X016755Y001231D03*
X016755Y001229D03*
X016755Y001228D03*
X016755Y001227D03*
X016755Y001226D03*
X016755Y001224D03*
X016754Y001219D03*
X016754Y001218D03*
X016754Y001217D03*
X016764Y001257D03*
X016764Y001258D03*
X016765Y001261D03*
X016765Y001262D03*
X016765Y001263D03*
X016768Y001267D03*
X016768Y001268D03*
X016769Y001269D03*
X016770Y001271D03*
X016770Y001272D03*
X016770Y001273D03*
X016770Y001274D03*
X016771Y001276D03*
X016773Y001277D03*
X016773Y001278D03*
X016774Y001279D03*
X016775Y001281D03*
X016775Y001282D03*
X016775Y001283D03*
X016775Y001284D03*
X016778Y001287D03*
X016779Y001289D03*
X016780Y001292D03*
X016904Y001202D03*
X016905Y001203D03*
X016938Y001311D03*
X016938Y001312D03*
X016938Y001313D03*
X017355Y001183D03*
X017355Y001182D03*
X017355Y001179D03*
X017356Y001186D03*
X017358Y001188D03*
X017359Y001191D03*
X017360Y001193D03*
X017360Y001194D03*
X017360Y001196D03*
X017360Y001197D03*
X017361Y001199D03*
X017363Y001202D03*
X017364Y001204D03*
X017365Y001207D03*
X017365Y001208D03*
X017366Y001213D03*
X017368Y001216D03*
X017369Y001218D03*
X017369Y001219D03*
X017370Y001221D03*
X017370Y001224D03*
X017371Y001226D03*
X017371Y001227D03*
X017373Y001229D03*
X017374Y001232D03*
X017375Y001237D03*
X017375Y001238D03*
X017738Y001209D03*
X017738Y001208D03*
X017738Y001207D03*
X017739Y001216D03*
X017739Y001217D03*
X017739Y001218D03*
X017739Y001219D03*
X017739Y001221D03*
X017739Y001222D03*
X017739Y001223D03*
X017739Y001224D03*
X017739Y001226D03*
X017739Y001227D03*
X017740Y001231D03*
X017740Y001232D03*
X017740Y001233D03*
X017740Y001234D03*
X017740Y001236D03*
X017740Y001237D03*
X017740Y001238D03*
X017740Y001239D03*
X017740Y001241D03*
X017740Y001242D03*
X017740Y001243D03*
X017740Y001246D03*
X017740Y001247D03*
X017740Y001248D03*
X017740Y001249D03*
X017740Y001251D03*
X017740Y001252D03*
X017740Y001253D03*
X017740Y001254D03*
X017740Y001256D03*
X017740Y001257D03*
X017740Y001258D03*
X017740Y001259D03*
X017741Y001261D03*
X017741Y001262D03*
X017741Y001263D03*
X017741Y001264D03*
X017741Y001266D03*
X017741Y001267D03*
X017741Y001268D03*
X017741Y001269D03*
X017741Y001271D03*
X017741Y001272D03*
X017741Y001273D03*
X017741Y001274D03*
X017743Y001278D03*
X017743Y001279D03*
X017743Y001281D03*
X017743Y001282D03*
X017743Y001283D03*
X017743Y001284D03*
X017743Y001286D03*
X017743Y001287D03*
X017743Y001288D03*
X017743Y001289D03*
X017743Y001291D03*
X017744Y001296D03*
X017744Y001297D03*
X017744Y001298D03*
X017744Y001299D03*
X017744Y001301D03*
X017744Y001302D03*
X017744Y001303D03*
X017744Y001304D03*
X017744Y001306D03*
X017745Y001311D03*
X017745Y001312D03*
X017745Y001313D03*
X017745Y001314D03*
X017745Y001316D03*
X017745Y001317D03*
X017745Y001318D03*
X017745Y001319D03*
X017745Y001321D03*
X017745Y001328D03*
X017745Y001329D03*
X017745Y001331D03*
X017745Y001332D03*
X017745Y001333D03*
X017745Y001334D03*
X017745Y001336D03*
X017746Y001346D03*
X017746Y001347D03*
X017746Y001348D03*
X017746Y001349D03*
X017746Y001351D03*
X017748Y001361D03*
X017748Y001362D03*
X017748Y001363D03*
X017748Y001364D03*
X017748Y001366D03*
X017850Y001298D03*
X017850Y001299D03*
X017851Y001301D03*
X017853Y001302D03*
X017854Y001304D03*
X017855Y001307D03*
X017856Y001308D03*
X017859Y001311D03*
X017860Y001314D03*
X017863Y001317D03*
X017866Y001323D03*
X017869Y001326D03*
X017870Y001329D03*
X017873Y001332D03*
X017876Y001338D03*
X017879Y001341D03*
X017880Y001344D03*
X017883Y001347D03*
X017849Y001296D03*
X017846Y001293D03*
X017845Y001292D03*
X017844Y001289D03*
X017843Y001287D03*
X017841Y001286D03*
X017840Y001284D03*
X017840Y001283D03*
X017839Y001281D03*
X017836Y001278D03*
X017835Y001277D03*
X017834Y001274D03*
X017833Y001273D03*
X017833Y001272D03*
X017831Y001271D03*
X017830Y001269D03*
X017830Y001268D03*
X017829Y001267D03*
X017829Y001266D03*
X017826Y001264D03*
X017826Y001263D03*
X017825Y001262D03*
X017825Y001261D03*
X017824Y001259D03*
X017823Y001258D03*
X017823Y001257D03*
X017821Y001256D03*
X017820Y001254D03*
X017820Y001253D03*
X017819Y001252D03*
X017819Y001251D03*
X017816Y001249D03*
X017816Y001248D03*
X017815Y001247D03*
X017815Y001246D03*
X017814Y001244D03*
X017813Y001243D03*
X017813Y001242D03*
X017811Y001241D03*
X017810Y001239D03*
X017810Y001238D03*
X017809Y001237D03*
X017806Y001234D03*
X017805Y001232D03*
X017805Y001231D03*
X017804Y001229D03*
X017803Y001228D03*
X017801Y001226D03*
X017800Y001223D03*
X017799Y001222D03*
X017796Y001219D03*
X017795Y001217D03*
X017795Y001216D03*
X017794Y001214D03*
X017793Y001213D03*
X017791Y001211D03*
X017790Y001208D03*
X017789Y001207D03*
D37*
X017742Y001276D03*
X017742Y001277D03*
X017743Y001292D03*
X017743Y001293D03*
X017743Y001294D03*
X017744Y001307D03*
X017744Y001308D03*
X017744Y001309D03*
X017746Y001337D03*
X017746Y001338D03*
X017746Y001339D03*
X017746Y001341D03*
X017746Y001342D03*
X017746Y001343D03*
X017746Y001344D03*
X017747Y001352D03*
X017747Y001353D03*
X017747Y001354D03*
X017747Y001356D03*
X017747Y001357D03*
X017747Y001358D03*
X017747Y001359D03*
X017748Y001367D03*
X017748Y001368D03*
X017748Y001369D03*
X017748Y001371D03*
X017748Y001372D03*
X017748Y001373D03*
X017748Y001374D03*
X017853Y001303D03*
X017857Y001309D03*
X017859Y001312D03*
X017862Y001316D03*
X017863Y001318D03*
X017864Y001319D03*
X017866Y001322D03*
X017867Y001324D03*
X017869Y001327D03*
X017872Y001331D03*
X017873Y001333D03*
X017874Y001334D03*
X017876Y001337D03*
X017877Y001339D03*
X017879Y001342D03*
X017882Y001346D03*
X017883Y001348D03*
X017884Y001349D03*
X017886Y001352D03*
X017887Y001353D03*
X017887Y001354D03*
X017889Y001356D03*
X017889Y001357D03*
X017891Y001359D03*
X017892Y001361D03*
X017893Y001362D03*
X017893Y001363D03*
X017894Y001364D03*
X017896Y001367D03*
X017897Y001368D03*
X017897Y001369D03*
X017899Y001371D03*
X017899Y001372D03*
X017901Y001374D03*
X017849Y001297D03*
X017847Y001294D03*
X017843Y001288D03*
X017839Y001282D03*
X017837Y001279D03*
X016938Y001314D03*
X016903Y001201D03*
X016902Y001199D03*
X016753Y001209D03*
X016753Y001211D03*
X016753Y001212D03*
X016753Y001213D03*
X016753Y001214D03*
X016753Y001216D03*
X016754Y001221D03*
X016754Y001222D03*
X016754Y001223D03*
X016777Y001286D03*
X016778Y001288D03*
X016781Y001293D03*
X016782Y001294D03*
X016783Y001296D03*
X016784Y001297D03*
X016789Y001304D03*
X015954Y001312D03*
X015954Y001313D03*
X015954Y001314D03*
X015916Y001203D03*
X015913Y001199D03*
X015912Y001198D03*
X015769Y001214D03*
X015769Y001216D03*
X015769Y001217D03*
X015769Y001218D03*
X015769Y001219D03*
X015769Y001221D03*
X015793Y001287D03*
X015794Y001289D03*
X015796Y001292D03*
X015797Y001294D03*
X015799Y001297D03*
X015802Y001301D03*
X015534Y001161D03*
X015534Y001159D03*
X015534Y001158D03*
X015534Y001157D03*
X015534Y001156D03*
X015534Y001154D03*
X015534Y001153D03*
X015534Y001152D03*
X015534Y001151D03*
X015534Y001149D03*
X015534Y001148D03*
X015534Y001147D03*
X015534Y001146D03*
X015534Y001144D03*
X015534Y001143D03*
X015534Y001142D03*
X015534Y001141D03*
X015533Y001136D03*
X015198Y001274D03*
D38*
X015820Y001136D03*
X016880Y001176D03*
X017750Y001172D03*
X017750Y001171D03*
D39*
X017790Y001209D03*
X017800Y001224D03*
X017740Y001244D03*
X017375Y001236D03*
X017370Y001223D03*
X017370Y001222D03*
X017365Y001209D03*
X017355Y001181D03*
X016905Y001204D03*
X016760Y001248D03*
X016475Y001223D03*
X016475Y001222D03*
X016475Y001221D03*
X016470Y001244D03*
X016465Y001267D03*
X016465Y001268D03*
X016460Y001289D03*
X016460Y001291D03*
X016200Y001356D03*
X016195Y001343D03*
X016190Y001329D03*
X016180Y001301D03*
X016175Y001288D03*
X016170Y001274D03*
X016160Y001246D03*
X016155Y001233D03*
X016150Y001219D03*
X016140Y001192D03*
X016140Y001191D03*
X016135Y001178D03*
X016130Y001164D03*
X016120Y001137D03*
X016120Y001136D03*
X015925Y001217D03*
X015920Y001209D03*
X015785Y001272D03*
X015780Y001261D03*
X015775Y001247D03*
X015535Y001213D03*
X015535Y001212D03*
X015535Y001211D03*
X015535Y001209D03*
X015535Y001208D03*
X015535Y001207D03*
X015535Y001206D03*
X015535Y001204D03*
X015535Y001203D03*
X015535Y001202D03*
X015535Y001201D03*
X015535Y001199D03*
X015535Y001198D03*
X015535Y001197D03*
X015535Y001196D03*
X015535Y001194D03*
X015535Y001193D03*
X015535Y001192D03*
X015535Y001191D03*
X015535Y001189D03*
X015535Y001188D03*
X015400Y001188D03*
X015395Y001181D03*
X015390Y001174D03*
X015390Y001173D03*
X015385Y001167D03*
X015385Y001166D03*
X015380Y001159D03*
X015375Y001152D03*
X015365Y001138D03*
X015205Y001281D03*
X015205Y001282D03*
X015210Y001289D03*
X015215Y001298D03*
X015215Y001299D03*
X015050Y001226D03*
X015045Y001213D03*
X015045Y001212D03*
X015040Y001199D03*
X015030Y001171D03*
X015025Y001158D03*
X015025Y001157D03*
X015020Y001144D03*
D40*
X015162Y001144D03*
X015162Y001143D03*
X015163Y001149D03*
X015163Y001151D03*
X015167Y001166D03*
X015167Y001167D03*
X015168Y001169D03*
X015172Y001182D03*
X015172Y001183D03*
X015172Y001184D03*
X015173Y001186D03*
X015173Y001187D03*
X015422Y001219D03*
X015427Y001226D03*
X015428Y001227D03*
X015432Y001233D03*
X015433Y001234D03*
X015438Y001241D03*
X015438Y001242D03*
X015442Y001247D03*
X015443Y001248D03*
X015443Y001249D03*
X015447Y001254D03*
X015448Y001256D03*
X015452Y001261D03*
X015453Y001263D03*
X015463Y001277D03*
X015537Y001277D03*
X015537Y001278D03*
X015537Y001279D03*
X015537Y001281D03*
X015537Y001282D03*
X015537Y001283D03*
X015537Y001284D03*
X015537Y001286D03*
X015537Y001287D03*
X015537Y001288D03*
X015537Y001289D03*
X015538Y001301D03*
X015538Y001302D03*
X015538Y001303D03*
X015538Y001304D03*
X015538Y001306D03*
X015538Y001307D03*
X015538Y001308D03*
X015538Y001309D03*
X015538Y001311D03*
X015538Y001312D03*
X015538Y001313D03*
X015538Y001314D03*
X015537Y001276D03*
X015537Y001274D03*
X015537Y001273D03*
X015537Y001272D03*
X015537Y001271D03*
X015537Y001269D03*
X015537Y001268D03*
X015537Y001267D03*
X015537Y001266D03*
X016352Y001136D03*
X016353Y001139D03*
X016358Y001153D03*
X016362Y001164D03*
X016363Y001166D03*
X016363Y001167D03*
X016367Y001177D03*
X016367Y001178D03*
X016372Y001191D03*
X016373Y001194D03*
X016378Y001208D03*
X016382Y001219D03*
X016383Y001221D03*
X016387Y001232D03*
X016392Y001246D03*
X016393Y001249D03*
X016398Y001263D03*
X016402Y001274D03*
X016403Y001276D03*
X016407Y001287D03*
X016537Y001246D03*
X016538Y001249D03*
X016543Y001263D03*
X016547Y001274D03*
X016548Y001276D03*
X016552Y001287D03*
X016557Y001301D03*
X016558Y001304D03*
X016563Y001318D03*
X016567Y001328D03*
X016567Y001329D03*
X016568Y001331D03*
X016572Y001342D03*
X016577Y001356D03*
X016578Y001359D03*
X016583Y001372D03*
X016583Y001373D03*
X016532Y001232D03*
X016528Y001222D03*
X016528Y001221D03*
X016527Y001219D03*
D41*
X016495Y001138D03*
X016495Y001137D03*
X016495Y001136D03*
X016440Y001373D03*
X016780Y001291D03*
X016785Y001298D03*
X016785Y001299D03*
X015915Y001202D03*
X015770Y001227D03*
X015790Y001282D03*
X015795Y001291D03*
X015800Y001298D03*
X015220Y001313D03*
X015220Y001314D03*
X015200Y001276D03*
X017745Y001322D03*
X017745Y001323D03*
X017745Y001324D03*
X017745Y001326D03*
X017745Y001327D03*
X017835Y001276D03*
X017845Y001291D03*
X017855Y001306D03*
X017860Y001313D03*
X017865Y001321D03*
X017870Y001328D03*
X017875Y001336D03*
X017880Y001343D03*
X017885Y001351D03*
X017890Y001358D03*
X017895Y001366D03*
X017900Y001373D03*
D42*
X017746Y001162D03*
X017746Y001161D03*
X016801Y001136D03*
X016498Y001172D03*
X016498Y001173D03*
X016498Y001174D03*
X016438Y001337D03*
D43*
X016889Y001136D03*
D44*
X017399Y001136D03*
X017400Y001137D03*
X017400Y001138D03*
X017400Y001139D03*
X017404Y001148D03*
X017404Y001149D03*
X017405Y001151D03*
X017405Y001152D03*
X017405Y001153D03*
X017409Y001162D03*
X017409Y001163D03*
X017409Y001164D03*
X017410Y001166D03*
X017414Y001176D03*
X017414Y001177D03*
X017415Y001178D03*
X015124Y001262D03*
X015114Y001236D03*
D45*
X015533Y001366D03*
X015533Y001367D03*
X015822Y001323D03*
X015952Y001324D03*
X015772Y001189D03*
X015772Y001188D03*
X016893Y001378D03*
X017737Y001136D03*
D46*
X017753Y001181D03*
X016436Y001316D03*
X016436Y001317D03*
X016436Y001318D03*
X015820Y001137D03*
X015519Y001329D03*
D47*
X015538Y001299D03*
X015538Y001298D03*
X015538Y001297D03*
X015538Y001296D03*
X015538Y001294D03*
X015538Y001293D03*
X015538Y001292D03*
X015538Y001291D03*
X015478Y001297D03*
X015468Y001283D03*
X015463Y001276D03*
X015458Y001269D03*
X015453Y001262D03*
X015168Y001168D03*
X016353Y001138D03*
X016353Y001137D03*
X016358Y001151D03*
X016358Y001152D03*
X016368Y001179D03*
X016373Y001192D03*
X016373Y001193D03*
X016378Y001206D03*
X016378Y001207D03*
X016388Y001233D03*
X016388Y001234D03*
X016393Y001247D03*
X016393Y001248D03*
X016398Y001261D03*
X016398Y001262D03*
X016408Y001288D03*
X016408Y001289D03*
X016538Y001248D03*
X016538Y001247D03*
X016533Y001234D03*
X016533Y001233D03*
X016543Y001261D03*
X016543Y001262D03*
X016553Y001288D03*
X016553Y001289D03*
X016558Y001302D03*
X016558Y001303D03*
X016563Y001316D03*
X016563Y001317D03*
X016573Y001343D03*
X016573Y001344D03*
X016578Y001357D03*
X016578Y001358D03*
X016583Y001371D03*
X016913Y001219D03*
D48*
X016923Y001337D03*
X016802Y001137D03*
X016498Y001181D03*
X016498Y001182D03*
X016437Y001328D03*
X016437Y001329D03*
X015523Y001339D03*
D49*
X016889Y001139D03*
X016889Y001138D03*
X016889Y001137D03*
X016890Y001141D03*
D50*
X016758Y001187D03*
X016756Y001188D03*
X016806Y001323D03*
X016808Y001324D03*
X015909Y001378D03*
X015898Y001183D03*
X015896Y001182D03*
X015773Y001187D03*
X017738Y001138D03*
X017738Y001137D03*
D51*
X017756Y001188D03*
X016436Y001308D03*
X016436Y001309D03*
X015821Y001138D03*
X015517Y001322D03*
D52*
X015521Y001333D03*
X015521Y001334D03*
X015847Y001337D03*
X016437Y001322D03*
X016437Y001321D03*
X016499Y001188D03*
X016802Y001138D03*
X016832Y001337D03*
X016891Y001374D03*
X017751Y001174D03*
D53*
X017759Y001196D03*
X016500Y001208D03*
X016500Y001209D03*
X016435Y001301D03*
X015821Y001139D03*
X015515Y001317D03*
D54*
X015519Y001328D03*
X016436Y001314D03*
X016499Y001196D03*
X016499Y001194D03*
X016802Y001139D03*
X017754Y001182D03*
D55*
X017738Y001139D03*
X016934Y001329D03*
X016894Y001188D03*
X016758Y001186D03*
X016496Y001152D03*
X016496Y001151D03*
X015951Y001326D03*
X015823Y001324D03*
X015773Y001186D03*
X015532Y001364D03*
X015188Y001268D03*
D56*
X015208Y001285D03*
X015176Y001200D03*
X015173Y001185D03*
X015163Y001145D03*
X015161Y001140D03*
X015388Y001170D03*
X015401Y001190D03*
X015409Y001200D03*
X015413Y001205D03*
X015423Y001220D03*
X015426Y001225D03*
X015434Y001235D03*
X015536Y001240D03*
X015536Y001245D03*
X015536Y001250D03*
X015536Y001255D03*
X015536Y001260D03*
X015924Y001215D03*
X015926Y001220D03*
X015929Y001225D03*
X015954Y001300D03*
X016464Y001275D03*
X016466Y001260D03*
X016468Y001255D03*
X016476Y001215D03*
X016936Y001300D03*
X016938Y001305D03*
D57*
X015822Y001140D03*
D58*
X015769Y001200D03*
X015809Y001310D03*
X015905Y001190D03*
X016440Y001370D03*
X016495Y001140D03*
X016754Y001200D03*
X016794Y001310D03*
X015221Y001320D03*
D59*
X016802Y001140D03*
D60*
X016890Y001140D03*
D61*
X017401Y001140D03*
X017404Y001145D03*
X017406Y001155D03*
X017409Y001160D03*
X017413Y001170D03*
X017414Y001175D03*
D62*
X017739Y001140D03*
X015894Y001180D03*
X015774Y001185D03*
D63*
X015928Y001222D03*
X015929Y001224D03*
X015953Y001296D03*
X015954Y001297D03*
X015954Y001298D03*
X015954Y001299D03*
X015536Y001264D03*
X015536Y001263D03*
X015536Y001262D03*
X015536Y001261D03*
X015536Y001259D03*
X015536Y001258D03*
X015536Y001257D03*
X015536Y001256D03*
X015536Y001254D03*
X015536Y001253D03*
X015536Y001252D03*
X015536Y001251D03*
X015536Y001249D03*
X015536Y001248D03*
X015536Y001247D03*
X015536Y001246D03*
X015536Y001244D03*
X015536Y001243D03*
X015536Y001242D03*
X015536Y001241D03*
X015536Y001239D03*
X015429Y001228D03*
X015424Y001221D03*
X015421Y001218D03*
X015419Y001214D03*
X015418Y001213D03*
X015418Y001212D03*
X015416Y001211D03*
X015414Y001207D03*
X015413Y001206D03*
X015411Y001204D03*
X015408Y001198D03*
X015406Y001197D03*
X015404Y001193D03*
X015403Y001191D03*
X015398Y001184D03*
X015396Y001183D03*
X015393Y001177D03*
X015176Y001201D03*
X015176Y001202D03*
X015174Y001189D03*
X015174Y001188D03*
X015164Y001153D03*
X015164Y001152D03*
X015163Y001148D03*
X015163Y001147D03*
X015163Y001146D03*
X015161Y001142D03*
X015161Y001141D03*
X016459Y001296D03*
X016461Y001284D03*
X016461Y001283D03*
X016463Y001279D03*
X016463Y001278D03*
X016464Y001274D03*
X016466Y001261D03*
X016468Y001257D03*
X016468Y001256D03*
X016469Y001252D03*
X016469Y001251D03*
X016471Y001238D03*
X016471Y001237D03*
X016473Y001234D03*
X016473Y001233D03*
X016474Y001229D03*
X016474Y001228D03*
X016476Y001216D03*
X016906Y001207D03*
X016908Y001209D03*
X016909Y001211D03*
X016936Y001298D03*
X016936Y001299D03*
X016936Y001301D03*
X016938Y001302D03*
X016938Y001303D03*
X016938Y001304D03*
X016938Y001306D03*
X016894Y001379D03*
D64*
X015822Y001141D03*
D65*
X015538Y001316D03*
X015488Y001313D03*
X015484Y001307D03*
X015483Y001306D03*
X015481Y001303D03*
X015480Y001302D03*
X015478Y001299D03*
X015476Y001296D03*
X015474Y001293D03*
X015473Y001292D03*
X015471Y001289D03*
X015470Y001288D03*
X015470Y001287D03*
X015469Y001286D03*
X015468Y001284D03*
X015466Y001282D03*
X015465Y001281D03*
X015464Y001279D03*
X015463Y001278D03*
X015460Y001273D03*
X015459Y001272D03*
X015456Y001268D03*
X015455Y001266D03*
X015450Y001259D03*
X015445Y001252D03*
X015168Y001171D03*
X015165Y001161D03*
X016353Y001141D03*
X016354Y001143D03*
X016355Y001146D03*
X016356Y001148D03*
X016356Y001149D03*
X016358Y001154D03*
X016359Y001157D03*
X016360Y001159D03*
X016361Y001162D03*
X016361Y001163D03*
X016363Y001168D03*
X016364Y001171D03*
X016365Y001173D03*
X016365Y001174D03*
X016366Y001176D03*
X016368Y001181D03*
X016368Y001182D03*
X016369Y001184D03*
X016370Y001187D03*
X016371Y001189D03*
X016373Y001196D03*
X016374Y001198D03*
X016375Y001201D03*
X016376Y001203D03*
X016376Y001204D03*
X016378Y001209D03*
X016379Y001211D03*
X016379Y001212D03*
X016380Y001214D03*
X016381Y001217D03*
X016381Y001218D03*
X016383Y001222D03*
X016383Y001223D03*
X016384Y001226D03*
X016385Y001228D03*
X016385Y001229D03*
X016386Y001231D03*
X016388Y001236D03*
X016388Y001237D03*
X016389Y001239D03*
X016390Y001242D03*
X016391Y001244D03*
X016393Y001251D03*
X016394Y001253D03*
X016395Y001256D03*
X016396Y001258D03*
X016396Y001259D03*
X016398Y001264D03*
X016399Y001266D03*
X016399Y001267D03*
X016400Y001269D03*
X016401Y001272D03*
X016401Y001273D03*
X016403Y001277D03*
X016403Y001278D03*
X016404Y001281D03*
X016405Y001283D03*
X016405Y001284D03*
X016406Y001286D03*
X016408Y001291D03*
X016408Y001292D03*
X016409Y001294D03*
X016538Y001251D03*
X016539Y001253D03*
X016540Y001256D03*
X016541Y001258D03*
X016541Y001259D03*
X016543Y001264D03*
X016544Y001266D03*
X016544Y001267D03*
X016545Y001269D03*
X016546Y001272D03*
X016546Y001273D03*
X016548Y001277D03*
X016548Y001278D03*
X016549Y001281D03*
X016550Y001283D03*
X016550Y001284D03*
X016551Y001286D03*
X016553Y001291D03*
X016553Y001292D03*
X016554Y001294D03*
X016555Y001297D03*
X016556Y001299D03*
X016558Y001306D03*
X016559Y001308D03*
X016560Y001311D03*
X016561Y001313D03*
X016561Y001314D03*
X016563Y001319D03*
X016564Y001321D03*
X016564Y001322D03*
X016565Y001324D03*
X016566Y001327D03*
X016568Y001332D03*
X016568Y001333D03*
X016569Y001336D03*
X016570Y001338D03*
X016571Y001341D03*
X016573Y001346D03*
X016573Y001347D03*
X016574Y001349D03*
X016575Y001352D03*
X016576Y001354D03*
X016579Y001363D03*
X016580Y001366D03*
X016581Y001368D03*
X016581Y001369D03*
X016583Y001374D03*
X016536Y001244D03*
X016535Y001242D03*
X016534Y001239D03*
X016533Y001237D03*
X016533Y001236D03*
X016531Y001231D03*
X016530Y001229D03*
X016530Y001228D03*
X016529Y001226D03*
X016528Y001223D03*
X016526Y001218D03*
X016526Y001217D03*
X016525Y001214D03*
X016909Y001213D03*
X016910Y001216D03*
X016911Y001217D03*
X016911Y001218D03*
X016913Y001222D03*
D66*
X016803Y001141D03*
X015906Y001372D03*
X017758Y001193D03*
X017758Y001192D03*
X017759Y001194D03*
D67*
X017414Y001174D03*
X017414Y001173D03*
X017413Y001172D03*
X017413Y001171D03*
X017411Y001169D03*
X017411Y001168D03*
X017411Y001167D03*
X017409Y001161D03*
X017409Y001159D03*
X017408Y001158D03*
X017408Y001157D03*
X017408Y001156D03*
X017406Y001154D03*
X017404Y001147D03*
X017404Y001146D03*
X017403Y001144D03*
X017403Y001143D03*
X017401Y001142D03*
X017401Y001141D03*
X015124Y001261D03*
D68*
X015822Y001142D03*
X016889Y001368D03*
D69*
X016936Y001323D03*
X016936Y001322D03*
X016898Y001194D03*
X016754Y001196D03*
X016754Y001197D03*
X016795Y001312D03*
X016796Y001313D03*
X016495Y001143D03*
X016495Y001142D03*
X016440Y001368D03*
X015953Y001319D03*
X015953Y001318D03*
X015815Y001317D03*
X015814Y001316D03*
X015811Y001313D03*
X015769Y001198D03*
X015769Y001197D03*
X015769Y001196D03*
X015904Y001189D03*
X015534Y001371D03*
X015220Y001324D03*
X015193Y001271D03*
X015176Y001221D03*
D70*
X016803Y001142D03*
D71*
X016891Y001142D03*
X016891Y001143D03*
X016891Y001144D03*
D72*
X016804Y001146D03*
X015823Y001143D03*
D73*
X016803Y001143D03*
X017762Y001204D03*
D74*
X017739Y001143D03*
X016814Y001329D03*
X016759Y001182D03*
X016439Y001354D03*
X015829Y001329D03*
X015775Y001182D03*
D75*
X015823Y001144D03*
D76*
X015770Y001192D03*
X015770Y001193D03*
X015816Y001318D03*
X015819Y001321D03*
X015533Y001368D03*
X015220Y001327D03*
X015220Y001326D03*
X015175Y001223D03*
X016439Y001364D03*
X016495Y001146D03*
X016495Y001144D03*
X016755Y001191D03*
X016755Y001192D03*
X016804Y001321D03*
X016935Y001326D03*
X016896Y001191D03*
D77*
X016803Y001144D03*
D78*
X017740Y001144D03*
X015775Y001183D03*
D79*
X015535Y001190D03*
X015535Y001195D03*
X015535Y001200D03*
X015535Y001205D03*
X015535Y001210D03*
X015380Y001160D03*
X015370Y001145D03*
X015035Y001185D03*
X016125Y001150D03*
X016145Y001205D03*
X016165Y001260D03*
X016185Y001315D03*
X016205Y001370D03*
X016460Y001290D03*
X016470Y001245D03*
X016905Y001205D03*
X017360Y001195D03*
X017740Y001245D03*
D80*
X016888Y001365D03*
X015823Y001145D03*
D81*
X015451Y001260D03*
X015444Y001250D03*
X015440Y001245D03*
X015430Y001230D03*
X015174Y001190D03*
X015171Y001180D03*
X015170Y001175D03*
X015165Y001160D03*
X015164Y001155D03*
X016355Y001145D03*
X016359Y001155D03*
X016366Y001175D03*
X016379Y001210D03*
X016386Y001230D03*
X016399Y001265D03*
X016406Y001285D03*
X016531Y001230D03*
X016544Y001265D03*
X016551Y001285D03*
X016564Y001320D03*
X016571Y001340D03*
X016575Y001350D03*
X016584Y001375D03*
D82*
X016803Y001145D03*
D83*
X016891Y001145D03*
D84*
X017740Y001145D03*
X015530Y001360D03*
D85*
X015824Y001146D03*
X016888Y001364D03*
D86*
X016891Y001146D03*
D87*
X016761Y001181D03*
X016496Y001157D03*
X016439Y001352D03*
X016439Y001353D03*
X015891Y001178D03*
X015776Y001181D03*
X015530Y001358D03*
X015530Y001359D03*
X017741Y001147D03*
X017741Y001146D03*
D88*
X016887Y001363D03*
X015824Y001147D03*
D89*
X015771Y001191D03*
X015899Y001184D03*
X015821Y001322D03*
X015220Y001328D03*
X015190Y001269D03*
X015175Y001224D03*
X016440Y001363D03*
X016496Y001147D03*
X016756Y001189D03*
X016805Y001322D03*
X016935Y001327D03*
D90*
X016804Y001147D03*
X015905Y001367D03*
D91*
X016892Y001147D03*
D92*
X015824Y001148D03*
D93*
X015219Y001329D03*
X016439Y001361D03*
X016439Y001362D03*
X016495Y001149D03*
X016495Y001148D03*
X016934Y001328D03*
D94*
X016804Y001148D03*
X015904Y001366D03*
D95*
X016893Y001149D03*
X016893Y001148D03*
D96*
X016889Y001183D03*
X016890Y001184D03*
X016930Y001333D03*
X016496Y001159D03*
X016496Y001158D03*
X016438Y001351D03*
X015529Y001357D03*
X015184Y001267D03*
X017741Y001148D03*
D97*
X015824Y001149D03*
D98*
X016804Y001149D03*
D99*
X016762Y001179D03*
X016819Y001332D03*
X016497Y001161D03*
X016439Y001349D03*
X015947Y001332D03*
X015908Y001377D03*
X015834Y001332D03*
X015889Y001177D03*
X015529Y001356D03*
X015216Y001333D03*
X017742Y001149D03*
D100*
X016908Y001210D03*
X016573Y001345D03*
X016582Y001370D03*
X016562Y001315D03*
X016553Y001290D03*
X016542Y001260D03*
X016533Y001235D03*
X016408Y001290D03*
X016397Y001260D03*
X016388Y001235D03*
X016377Y001205D03*
X016368Y001180D03*
X016357Y001150D03*
X015537Y001265D03*
X015537Y001270D03*
X015537Y001275D03*
X015537Y001280D03*
X015537Y001285D03*
X015537Y001290D03*
X015538Y001300D03*
X015538Y001305D03*
X015538Y001310D03*
X015538Y001315D03*
X015458Y001270D03*
X015437Y001240D03*
X015168Y001170D03*
X015167Y001165D03*
X015163Y001150D03*
D101*
X015824Y001150D03*
D102*
X015824Y001325D03*
X015219Y001330D03*
X015174Y001225D03*
X016496Y001150D03*
X016758Y001185D03*
X016809Y001325D03*
X016933Y001330D03*
D103*
X016804Y001150D03*
D104*
X016893Y001150D03*
D105*
X016439Y001350D03*
X015529Y001355D03*
X017742Y001150D03*
D106*
X015825Y001151D03*
D107*
X016805Y001151D03*
D108*
X016893Y001151D03*
X016893Y001152D03*
X016894Y001153D03*
X016894Y001154D03*
X016895Y001158D03*
D109*
X017743Y001151D03*
X015778Y001179D03*
D110*
X015825Y001152D03*
X016805Y001158D03*
X016884Y001358D03*
D111*
X016804Y001152D03*
D112*
X016763Y001178D03*
X016497Y001164D03*
X015887Y001176D03*
X015528Y001353D03*
X017743Y001153D03*
X017743Y001152D03*
D113*
X016884Y001357D03*
X015825Y001153D03*
D114*
X016804Y001153D03*
X016886Y001362D03*
D115*
X015900Y001357D03*
X015825Y001154D03*
D116*
X016805Y001154D03*
X016886Y001361D03*
D117*
X016888Y001181D03*
X016498Y001166D03*
X016439Y001343D03*
X016439Y001344D03*
X015528Y001351D03*
X015528Y001352D03*
X017744Y001154D03*
D118*
X015826Y001155D03*
D119*
X015949Y001330D03*
X016496Y001155D03*
X016891Y001185D03*
D120*
X016805Y001155D03*
D121*
X016894Y001155D03*
D122*
X016886Y001180D03*
X016928Y001335D03*
X017744Y001155D03*
X015527Y001350D03*
D123*
X015826Y001156D03*
D124*
X015171Y001227D03*
X016496Y001156D03*
X016893Y001186D03*
X016931Y001332D03*
D125*
X016805Y001156D03*
D126*
X016894Y001156D03*
X016894Y001157D03*
X016895Y001159D03*
X016895Y001161D03*
D127*
X016823Y001334D03*
X016497Y001168D03*
X016497Y001167D03*
X016438Y001342D03*
X015838Y001334D03*
X015214Y001334D03*
X017744Y001156D03*
D128*
X016475Y001219D03*
X016474Y001224D03*
X016470Y001242D03*
X016470Y001243D03*
X016469Y001246D03*
X016469Y001247D03*
X016465Y001266D03*
X016464Y001269D03*
X016460Y001287D03*
X016460Y001288D03*
X016459Y001292D03*
X016459Y001293D03*
X015929Y001227D03*
X015929Y001226D03*
X015925Y001218D03*
X015535Y001218D03*
X015535Y001219D03*
X015535Y001217D03*
X015535Y001216D03*
X015535Y001214D03*
X015435Y001238D03*
X015430Y001231D03*
X015425Y001224D03*
X015424Y001222D03*
X015420Y001217D03*
X015415Y001209D03*
X015414Y001208D03*
X015410Y001203D03*
X015410Y001202D03*
X015409Y001201D03*
X015405Y001196D03*
X015404Y001194D03*
X015399Y001187D03*
X015209Y001288D03*
X015175Y001197D03*
X015175Y001196D03*
X015174Y001194D03*
X015174Y001193D03*
X015174Y001192D03*
X015174Y001191D03*
X015164Y001157D03*
D129*
X015827Y001157D03*
X016883Y001353D03*
D130*
X016885Y001359D03*
X016805Y001157D03*
D131*
X016765Y001176D03*
X016498Y001169D03*
X016439Y001341D03*
X015526Y001348D03*
X015526Y001349D03*
X017745Y001157D03*
D132*
X015827Y001158D03*
D133*
X016885Y001179D03*
X017745Y001159D03*
X017745Y001158D03*
D134*
X015899Y001352D03*
X015828Y001159D03*
D135*
X016806Y001159D03*
D136*
X015828Y001160D03*
D137*
X015776Y001180D03*
X016496Y001160D03*
X016761Y001180D03*
D138*
X016806Y001160D03*
D139*
X016895Y001160D03*
D140*
X017745Y001160D03*
D141*
X016881Y001349D03*
X015829Y001161D03*
D142*
X015149Y001374D03*
X016806Y001161D03*
D143*
X015828Y001162D03*
D144*
X015778Y001178D03*
X015528Y001354D03*
X015169Y001228D03*
X016438Y001346D03*
X016438Y001347D03*
X016438Y001348D03*
X016496Y001163D03*
X016496Y001162D03*
X016888Y001182D03*
X016929Y001334D03*
D145*
X016825Y001162D03*
D146*
X016880Y001347D03*
X015828Y001163D03*
X015110Y001247D03*
D147*
X016825Y001163D03*
D148*
X016438Y001336D03*
X015942Y001336D03*
X015882Y001174D03*
X017747Y001163D03*
D149*
X016880Y001346D03*
X015829Y001164D03*
X015155Y001367D03*
D150*
X016825Y001164D03*
D151*
X016498Y001176D03*
X016438Y001333D03*
X016438Y001334D03*
X017748Y001164D03*
D152*
X017444Y001275D03*
X017437Y001255D03*
X015829Y001165D03*
D153*
X015538Y001295D03*
X015473Y001290D03*
X015448Y001255D03*
X016363Y001165D03*
X016383Y001220D03*
X016403Y001275D03*
X016528Y001220D03*
X016548Y001275D03*
X016568Y001330D03*
X016913Y001220D03*
D154*
X016497Y001165D03*
D155*
X016825Y001165D03*
D156*
X017748Y001165D03*
D157*
X017445Y001278D03*
X017445Y001279D03*
X017445Y001276D03*
X017444Y001274D03*
X017444Y001273D03*
X017443Y001271D03*
X017441Y001268D03*
X017441Y001267D03*
X017440Y001263D03*
X017440Y001262D03*
X017439Y001259D03*
X017438Y001257D03*
X017438Y001256D03*
X017436Y001254D03*
X017435Y001252D03*
X017435Y001251D03*
X017435Y001249D03*
X017435Y001248D03*
X017434Y001246D03*
X017433Y001243D03*
X017431Y001241D03*
X016880Y001344D03*
X015830Y001166D03*
D158*
X016825Y001166D03*
D159*
X016882Y001177D03*
X016828Y001336D03*
X016498Y001179D03*
X016498Y001178D03*
X016498Y001177D03*
X016438Y001332D03*
X015843Y001336D03*
X015524Y001341D03*
X015524Y001342D03*
X017748Y001166D03*
D160*
X015895Y001343D03*
X015830Y001167D03*
X015156Y001363D03*
D161*
X016825Y001168D03*
X016825Y001167D03*
D162*
X017748Y001167D03*
D163*
X016878Y001342D03*
X015894Y001342D03*
X015830Y001168D03*
X015156Y001362D03*
X015113Y001243D03*
D164*
X015785Y001174D03*
X016770Y001174D03*
X017749Y001169D03*
X017749Y001168D03*
D165*
X016878Y001341D03*
X015831Y001169D03*
X015157Y001361D03*
X015119Y001256D03*
D166*
X016824Y001169D03*
D167*
X015831Y001170D03*
X015114Y001240D03*
D168*
X015944Y001335D03*
X016498Y001170D03*
D169*
X016825Y001170D03*
D170*
X017749Y001170D03*
D171*
X016878Y001339D03*
X015831Y001171D03*
X015158Y001359D03*
D172*
X015526Y001347D03*
X015781Y001176D03*
X015908Y001376D03*
X016438Y001339D03*
X016438Y001338D03*
X016497Y001171D03*
X016892Y001376D03*
X016926Y001336D03*
D173*
X016825Y001171D03*
D174*
X016877Y001338D03*
X017471Y001336D03*
X017472Y001338D03*
X017473Y001341D03*
X017474Y001343D03*
X017474Y001344D03*
X017476Y001349D03*
X017477Y001352D03*
X017478Y001354D03*
X017479Y001357D03*
X017479Y001358D03*
X017481Y001363D03*
X017482Y001366D03*
X017483Y001368D03*
X017484Y001371D03*
X015893Y001339D03*
X015832Y001172D03*
X015158Y001358D03*
X015122Y001259D03*
X015114Y001239D03*
D175*
X016824Y001172D03*
D176*
X015893Y001338D03*
X015832Y001173D03*
X015158Y001356D03*
D177*
X016825Y001173D03*
D178*
X016499Y001186D03*
X016499Y001187D03*
X016436Y001323D03*
X017750Y001173D03*
D179*
X016875Y001174D03*
X016499Y001198D03*
X016436Y001311D03*
X016436Y001312D03*
D180*
X016438Y001335D03*
X016498Y001175D03*
X016767Y001175D03*
X015783Y001175D03*
D181*
X015885Y001175D03*
D182*
X016436Y001320D03*
X016499Y001190D03*
X016879Y001175D03*
D183*
X017751Y001175D03*
D184*
X017751Y001176D03*
X017753Y001178D03*
X016499Y001189D03*
X016436Y001319D03*
X015908Y001374D03*
D185*
X017752Y001177D03*
X017753Y001179D03*
D186*
X016883Y001178D03*
X015524Y001343D03*
X015165Y001229D03*
D187*
X015175Y001195D03*
X015210Y001290D03*
X015394Y001180D03*
X015405Y001195D03*
X015415Y001210D03*
X015419Y001215D03*
X015535Y001215D03*
X015535Y001220D03*
X016464Y001270D03*
X016465Y001265D03*
X016474Y001225D03*
X016475Y001220D03*
D188*
X016498Y001180D03*
D189*
X017753Y001180D03*
D190*
X016895Y001189D03*
X015950Y001327D03*
X015895Y001181D03*
D191*
X015523Y001337D03*
X015523Y001338D03*
X016438Y001327D03*
X016499Y001184D03*
X016499Y001183D03*
D192*
X016499Y001197D03*
X016436Y001313D03*
X016890Y001373D03*
X017754Y001184D03*
X017754Y001183D03*
X015518Y001326D03*
X015518Y001327D03*
D193*
X015900Y001185D03*
X016756Y001190D03*
X016896Y001190D03*
D194*
X016498Y001185D03*
X016437Y001325D03*
D195*
X016436Y001310D03*
X017755Y001185D03*
D196*
X017755Y001186D03*
X017755Y001187D03*
X016499Y001199D03*
X016499Y001201D03*
D197*
X016500Y001203D03*
X016500Y001204D03*
X016435Y001306D03*
X016435Y001307D03*
X016890Y001372D03*
X017756Y001189D03*
X015516Y001321D03*
D198*
X016435Y001305D03*
X017756Y001190D03*
D199*
X016499Y001191D03*
X016499Y001192D03*
X016499Y001193D03*
X015520Y001331D03*
D200*
X015516Y001319D03*
X017757Y001191D03*
D201*
X016937Y001319D03*
X016937Y001321D03*
X016793Y001309D03*
X016792Y001308D03*
X015908Y001193D03*
X015907Y001192D03*
X015808Y001309D03*
X015177Y001219D03*
X015177Y001218D03*
D202*
X015818Y001319D03*
X015953Y001322D03*
X015953Y001323D03*
X016803Y001319D03*
X016898Y001192D03*
D203*
X016901Y001198D03*
X016938Y001316D03*
X016938Y001317D03*
X016938Y001318D03*
X016791Y001307D03*
X016789Y001303D03*
X016788Y001302D03*
X016786Y001301D03*
X016754Y001208D03*
X016754Y001207D03*
X016754Y001206D03*
X016754Y001204D03*
X016754Y001203D03*
X016754Y001202D03*
X015911Y001197D03*
X015909Y001194D03*
X015769Y001204D03*
X015769Y001206D03*
X015769Y001207D03*
X015769Y001208D03*
X015769Y001209D03*
X015769Y001211D03*
X015769Y001212D03*
X015769Y001213D03*
X015803Y001302D03*
X015804Y001303D03*
X015806Y001307D03*
X015808Y001308D03*
X015196Y001273D03*
X015178Y001217D03*
X015178Y001216D03*
X015178Y001214D03*
D204*
X015192Y001270D03*
X015221Y001325D03*
X015534Y001370D03*
X015770Y001195D03*
X015953Y001320D03*
X016440Y001365D03*
D205*
X016789Y001305D03*
X015954Y001315D03*
X015909Y001195D03*
X015805Y001305D03*
D206*
X016436Y001315D03*
X016499Y001195D03*
D207*
X016754Y001195D03*
X016798Y001315D03*
X016899Y001195D03*
X015813Y001315D03*
X015176Y001220D03*
D208*
X017759Y001195D03*
D209*
X016790Y001306D03*
X016440Y001371D03*
X016440Y001372D03*
X015910Y001196D03*
X015800Y001299D03*
X015804Y001304D03*
X015805Y001306D03*
X015535Y001373D03*
X015535Y001374D03*
X015220Y001319D03*
X015220Y001318D03*
X015220Y001317D03*
X015220Y001316D03*
D210*
X016435Y001299D03*
X016500Y001211D03*
X017759Y001197D03*
D211*
X017760Y001198D03*
X017760Y001199D03*
X016904Y001263D03*
X016904Y001264D03*
X016903Y001262D03*
X016903Y001261D03*
X016902Y001259D03*
X016902Y001258D03*
X016901Y001257D03*
X016901Y001256D03*
X016900Y001254D03*
X016900Y001253D03*
X016899Y001251D03*
X016898Y001249D03*
X016898Y001248D03*
X016898Y001247D03*
X016897Y001246D03*
X016897Y001244D03*
X016896Y001243D03*
X016896Y001242D03*
X016895Y001239D03*
X016894Y001238D03*
X016894Y001237D03*
X016894Y001236D03*
X016893Y001234D03*
X016893Y001233D03*
X016892Y001232D03*
X016892Y001231D03*
X016891Y001229D03*
X016891Y001228D03*
X016890Y001227D03*
X016890Y001226D03*
X016890Y001371D03*
X016500Y001212D03*
X016435Y001297D03*
X016435Y001298D03*
X015906Y001371D03*
D212*
X016499Y001200D03*
D213*
X016754Y001205D03*
X016903Y001200D03*
X015769Y001205D03*
X015769Y001210D03*
X015178Y001215D03*
D214*
X016891Y001230D03*
X017760Y001200D03*
D215*
X017761Y001201D03*
X017761Y001202D03*
D216*
X016500Y001202D03*
D217*
X017761Y001203D03*
D218*
X016500Y001205D03*
D219*
X015905Y001370D03*
X017763Y001205D03*
D220*
X016500Y001206D03*
X016500Y001207D03*
D221*
X017763Y001206D03*
D222*
X016500Y001210D03*
X016435Y001300D03*
D223*
X016500Y001213D03*
X016895Y001241D03*
X016899Y001252D03*
D224*
X016914Y001224D03*
X016914Y001223D03*
X016913Y001221D03*
X015491Y001316D03*
X015489Y001314D03*
X015488Y001312D03*
X015487Y001311D03*
X015486Y001309D03*
X015485Y001308D03*
X015482Y001304D03*
X015480Y001301D03*
X015478Y001298D03*
X015475Y001294D03*
X015473Y001291D03*
D225*
X015483Y001305D03*
X015490Y001315D03*
X016915Y001225D03*
D226*
X015158Y001350D03*
X015114Y001230D03*
D227*
X015114Y001231D03*
D228*
X015114Y001232D03*
X015114Y001233D03*
D229*
X015115Y001234D03*
X015125Y001263D03*
D230*
X016893Y001235D03*
X016895Y001240D03*
X016897Y001245D03*
X016899Y001250D03*
X016901Y001255D03*
X016902Y001260D03*
D231*
X017470Y001334D03*
X017471Y001337D03*
X017473Y001339D03*
X017474Y001342D03*
X017475Y001348D03*
X017476Y001351D03*
X017478Y001353D03*
X017479Y001356D03*
X017480Y001359D03*
X017480Y001361D03*
X017480Y001362D03*
X017481Y001364D03*
X017483Y001367D03*
X017484Y001369D03*
X017485Y001372D03*
X017485Y001373D03*
X015158Y001357D03*
X015115Y001238D03*
X015115Y001237D03*
D232*
X015114Y001252D03*
X015896Y001346D03*
X017431Y001239D03*
X017432Y001242D03*
X017433Y001244D03*
X017434Y001247D03*
X017436Y001253D03*
X017438Y001258D03*
X017439Y001261D03*
X017441Y001266D03*
X017442Y001269D03*
X017443Y001272D03*
D233*
X017443Y001270D03*
X017440Y001265D03*
X017439Y001260D03*
X017434Y001245D03*
X017431Y001240D03*
X015895Y001345D03*
X015155Y001365D03*
X015113Y001245D03*
D234*
X015114Y001241D03*
X015120Y001257D03*
X015894Y001341D03*
D235*
X015113Y001242D03*
D236*
X015113Y001244D03*
X015116Y001254D03*
X016879Y001343D03*
D237*
X015896Y001347D03*
X015111Y001246D03*
D238*
X015110Y001248D03*
X015110Y001249D03*
X015154Y001369D03*
D239*
X015111Y001250D03*
D240*
X016880Y001345D03*
X017435Y001250D03*
D241*
X015113Y001251D03*
D242*
X015115Y001253D03*
D243*
X015118Y001255D03*
D244*
X015120Y001258D03*
D245*
X015123Y001260D03*
X017473Y001340D03*
X017475Y001345D03*
X017476Y001350D03*
X017484Y001370D03*
X017485Y001375D03*
D246*
X015158Y001352D03*
X015158Y001351D03*
X015126Y001264D03*
D247*
X017440Y001264D03*
X017445Y001277D03*
D248*
X015127Y001265D03*
D249*
X015128Y001266D03*
D250*
X015515Y001318D03*
X016435Y001304D03*
X016435Y001303D03*
X016435Y001302D03*
D251*
X016798Y001314D03*
X015813Y001314D03*
D252*
X015220Y001315D03*
X017745Y001325D03*
X017885Y001350D03*
X017895Y001365D03*
D253*
X015516Y001320D03*
D254*
X016937Y001320D03*
D255*
X015518Y001323D03*
X015518Y001324D03*
D256*
X015522Y001336D03*
X015939Y001337D03*
X016437Y001326D03*
X016437Y001324D03*
D257*
X015518Y001325D03*
D258*
X015533Y001365D03*
X015951Y001325D03*
D259*
X015520Y001330D03*
D260*
X015831Y001330D03*
X016816Y001330D03*
D261*
X016438Y001330D03*
X015908Y001375D03*
D262*
X015833Y001331D03*
X016818Y001331D03*
X016893Y001377D03*
D263*
X015948Y001331D03*
X015217Y001332D03*
D264*
X016438Y001331D03*
D265*
X015520Y001332D03*
D266*
X017470Y001333D03*
X017470Y001332D03*
X017475Y001346D03*
X017475Y001347D03*
X017485Y001374D03*
D267*
X016821Y001333D03*
X015946Y001333D03*
X015836Y001333D03*
D268*
X015156Y001335D03*
D269*
X015521Y001335D03*
D270*
X015840Y001335D03*
X016825Y001335D03*
D271*
X017471Y001335D03*
X017478Y001355D03*
X017482Y001365D03*
D272*
X015157Y001338D03*
X015157Y001337D03*
X015157Y001336D03*
D273*
X015158Y001339D03*
X015158Y001341D03*
D274*
X015158Y001340D03*
D275*
X015523Y001340D03*
X016891Y001375D03*
D276*
X015894Y001340D03*
D277*
X016438Y001340D03*
D278*
X016878Y001340D03*
D279*
X015158Y001342D03*
X015158Y001343D03*
D280*
X015158Y001344D03*
X015158Y001346D03*
D281*
X015525Y001344D03*
D282*
X015895Y001344D03*
D283*
X015158Y001345D03*
D284*
X016439Y001345D03*
D285*
X015525Y001346D03*
D286*
X015159Y001347D03*
D287*
X015158Y001348D03*
X015158Y001349D03*
D288*
X015154Y001368D03*
X015897Y001348D03*
X016881Y001348D03*
D289*
X015898Y001349D03*
D290*
X015898Y001350D03*
D291*
X015153Y001370D03*
X016882Y001350D03*
D292*
X015899Y001351D03*
D293*
X015152Y001371D03*
X016882Y001351D03*
D294*
X016883Y001352D03*
D295*
X015158Y001354D03*
X015158Y001353D03*
D296*
X015151Y001372D03*
X015898Y001353D03*
D297*
X015899Y001354D03*
D298*
X016883Y001354D03*
D299*
X015158Y001355D03*
D300*
X015899Y001355D03*
D301*
X016439Y001355D03*
D302*
X016884Y001355D03*
D303*
X015900Y001356D03*
D304*
X016884Y001356D03*
D305*
X015901Y001358D03*
D306*
X015901Y001359D03*
D307*
X015157Y001360D03*
D308*
X015901Y001360D03*
D309*
X016439Y001360D03*
D310*
X016886Y001360D03*
D311*
X017480Y001360D03*
D312*
X015902Y001361D03*
D313*
X015902Y001362D03*
D314*
X015903Y001363D03*
D315*
X015156Y001364D03*
D316*
X015903Y001364D03*
D317*
X015903Y001365D03*
D318*
X015155Y001366D03*
D319*
X016888Y001366D03*
D320*
X016888Y001367D03*
D321*
X015905Y001368D03*
D322*
X015905Y001369D03*
D323*
X016889Y001369D03*
D324*
X016889Y001370D03*
D325*
X015150Y001373D03*
D326*
X015907Y001373D03*
D327*
X015146Y001375D03*
D328*
X015909Y001380D03*
D329*
X016894Y001380D03*
D330*
X015910Y001381D03*
D331*
X016894Y001381D03*
D332*
X017619Y002816D03*
X017619Y002817D03*
M02*
